<svg width="24" height="24" viewBox="0 0 24 24" fill="none" xmlns="http://www.w3.org/2000/svg">
<g clip-path="url(#clip0_330_13812)">
<path fill-rule="evenodd" clip-rule="evenodd" d="M13.996 10.5C13.996 10.838 13.878 11.148 13.688 11.4C14.178 11.766 14.5 12.344 14.5 13C14.5 14.103 13.603 15 12.5 15H11.5C10.397 15 9.5 14.103 9.5 13C9.5 12.346 9.82 11.77 10.307 11.404C10.115 11.152 9.996 10.841 9.996 10.5C9.996 9.673 10.669 9 11.496 9H12.496C13.323 9 13.996 9.673 13.996 10.5ZM10.996 10.5C10.996 10.775 11.22 11 11.496 11H12.496C12.772 11 12.996 10.775 12.996 10.5C12.996 10.225 12.772 10 12.496 10H11.496C11.22 10 10.996 10.225 10.996 10.5ZM11.5 14H12.5C13.051 14 13.5 13.552 13.5 13C13.5 12.448 13.051 12 12.5 12H11.5C10.949 12 10.5 12.448 10.5 13C10.5 13.552 10.949 14 11.5 14Z" fill="black"/>
<path fill-rule="evenodd" clip-rule="evenodd" d="M11.996 6C8.68697 6 5.99597 8.691 5.99597 12C5.99597 15.309 8.68697 18 11.996 18C15.305 18 17.996 15.309 17.996 12C17.996 8.691 15.305 6 11.996 6ZM11.996 17C9.23897 17 6.99597 14.757 6.99597 12C6.99597 9.243 9.23897 7 11.996 7C14.753 7 16.996 9.243 16.996 12C16.996 14.757 14.753 17 11.996 17Z" fill="black"/>
<path fill-rule="evenodd" clip-rule="evenodd" d="M11.996 0C5.37897 0 -0.00402832 5.383 -0.00402832 12C-0.00402832 18.617 5.37897 24 11.996 24C18.613 24 23.996 18.617 23.996 12C23.996 5.383 18.613 0 11.996 0ZM11.996 23C5.93097 23 0.995972 18.065 0.995972 12C0.995972 5.935 5.93097 1 11.996 1C18.061 1 22.996 5.935 22.996 12C22.996 18.065 18.062 23 11.996 23Z" fill="black"/>
</g>
<defs>
<clipPath id="clip0_330_13812">
<rect width="24" height="24" fill="white"/>
</clipPath>
</defs>
</svg>
