<svg width="24" height="24" viewBox="0 0 24 24" fill="none" xmlns="http://www.w3.org/2000/svg">
<path fill-rule="evenodd" clip-rule="evenodd" d="M12 1C5.65881 1 1 5.65881 1 12C1 18.3399 5.65885 23 12 23C18.3399 23 23 18.3399 23 12C23 5.65885 18.3399 1 12 1ZM0 12C0 5.10652 5.10652 0 12 0C18.8921 0 24 5.10649 24 12C24 18.8921 18.8921 24 12 24C5.10649 24 0 18.8921 0 12ZM9.16667 5.5H14.8333V8.88889C14.8333 9.03927 14.9582 9.16667 15.1111 9.16667H18.5V14.8333H15.1111C14.9517 14.8333 14.8333 14.9517 14.8333 15.1111V18.5H9.16667V15.1111C9.16667 14.9582 9.03927 14.8333 8.88889 14.8333H5.5V9.16667H8.88889C9.03275 9.16667 9.16667 9.03275 9.16667 8.88889V5.5ZM10.1667 6.5V8.88889C10.1667 9.58503 9.58503 10.1667 8.88889 10.1667H6.5V13.8333H8.88889C9.57851 13.8333 10.1667 14.3929 10.1667 15.1111V17.5H13.8333V15.1111C13.8333 14.3994 14.3994 13.8333 15.1111 13.8333H17.5V10.1667H15.1111C14.3929 10.1667 13.8333 9.57851 13.8333 8.88889V6.5H10.1667Z" fill="black"/>
</svg>
