<svg width="24" height="24" viewBox="0 0 24 24" fill="none" xmlns="http://www.w3.org/2000/svg">
<g clip-path="url(#clip0_346_13576)">
<path d="M3 3.5C3 3.22386 3.22386 3 3.5 3H20.5C20.7761 3 21 3.22386 21 3.5C21 3.77614 20.7761 4 20.5 4H3.5C3.22386 4 3 3.77614 3 3.5Z" fill="black"/>
<path d="M3.5 5C3.22386 5 3 5.22386 3 5.5C3 5.77614 3.22386 6 3.5 6H20.5C20.7761 6 21 5.77614 21 5.5C21 5.22386 20.7761 5 20.5 5H3.5Z" fill="black"/>
<path d="M3.5 7C3.22386 7 3 7.22386 3 7.5C3 7.77614 3.22386 8 3.5 8H20.5C20.7761 8 21 7.77614 21 7.5C21 7.22386 20.7761 7 20.5 7H3.5Z" fill="black"/>
<path d="M19.5 10C19.7761 10 20 9.77614 20 9.5C20 9.22386 19.7761 9 19.5 9C19.2239 9 19 9.22386 19 9.5C19 9.77614 19.2239 10 19.5 10Z" fill="black"/>
<path d="M16.5 10C16.7761 10 17 9.77614 17 9.5C17 9.22386 16.7761 9 16.5 9C16.2239 9 16 9.22386 16 9.5C16 9.77614 16.2239 10 16.5 10Z" fill="black"/>
<path fill-rule="evenodd" clip-rule="evenodd" d="M0 12.5V2.5C0 1.11929 1.11929 0 2.5 0H21.5C22.8807 0 24 1.11929 24 2.5V12.5C24 13.8807 22.8807 15 21.5 15H2.5C1.11929 15 0 13.8807 0 12.5ZM1 2.5C1 1.67157 1.67157 1 2.5 1H21.5C22.3284 1 23 1.67157 23 2.5V11H1V2.5ZM23 12V12.5C23 13.3284 22.3284 14 21.5 14H2.5C1.67157 14 1 13.3284 1 12.5V12H23Z" fill="black"/>
<path d="M5.14699 17.146C5.34199 16.951 5.65899 16.951 5.85399 17.146C6.96399 18.256 6.41399 19.621 5.97099 20.718C5.51799 21.843 5.26899 22.562 5.85399 23.147C6.04899 23.342 6.04899 23.659 5.85399 23.854C5.75599 23.951 5.62699 24 5.49999 24C5.37299 24 5.24499 23.951 5.14699 23.853C4.06499 22.77 4.60699 21.425 5.04399 20.343C5.50599 19.197 5.75799 18.464 5.14699 17.853C4.95199 17.659 4.95199 17.341 5.14699 17.146Z" fill="black"/>
<path d="M11.147 17.146C11.342 16.951 11.659 16.951 11.854 17.146C12.964 18.256 12.414 19.621 11.971 20.718C11.518 21.843 11.269 22.562 11.854 23.147C12.049 23.342 12.049 23.659 11.854 23.854C11.756 23.951 11.627 24 11.5 24C11.373 24 11.245 23.951 11.147 23.853C10.065 22.77 10.607 21.425 11.044 20.343C11.506 19.197 11.758 18.464 11.147 17.853C10.952 17.659 10.952 17.341 11.147 17.146Z" fill="black"/>
<path d="M18.354 17.146C18.159 16.951 17.842 16.951 17.647 17.146C17.452 17.341 17.452 17.659 17.647 17.853C18.258 18.464 18.006 19.197 17.544 20.343C17.107 21.425 16.565 22.77 17.647 23.853C17.745 23.951 17.873 24 18 24C18.127 24 18.256 23.951 18.354 23.854C18.549 23.659 18.549 23.342 18.354 23.147C17.769 22.562 18.018 21.843 18.471 20.718C18.914 19.621 19.464 18.256 18.354 17.146Z" fill="black"/>
</g>
<defs>
<clipPath id="clip0_346_13576">
<rect width="24" height="24" fill="white"/>
</clipPath>
</defs>
</svg>
