<svg width="24" height="24" viewBox="0 0 24 24" fill="none" xmlns="http://www.w3.org/2000/svg">
<g clip-path="url(#clip0_346_13621)">
<path d="M6.49665 6.31383C6.59965 6.56983 6.47565 6.86083 6.21965 6.96383C6.15765 6.98883 6.09465 6.99983 6.03265 6.99983C5.83465 6.99983 5.64765 6.88183 5.56865 6.68683C4.998 5.27071 5.2843 4.20815 5.53718 3.26958L5.53818 3.26587C5.76796 2.4127 5.96635 1.67607 5.56865 0.686834C5.46565 0.430834 5.58965 0.139834 5.84565 0.0358336C6.10065 -0.0661664 6.39265 0.0568336 6.49665 0.312834C7.01965 1.61283 6.74665 2.62983 6.50365 3.52683L6.50299 3.52928C6.26027 4.43024 6.05106 5.20684 6.49665 6.31383Z" fill="black"/>
<path d="M12.2197 6.96383C12.4757 6.86083 12.5997 6.56983 12.4967 6.31383C12.0511 5.20684 12.2603 4.43024 12.503 3.52928L12.5037 3.52683C12.7467 2.62983 13.0197 1.61283 12.4967 0.312834C12.3927 0.0568336 12.1007 -0.0661664 11.8457 0.0358336C11.5897 0.139834 11.4657 0.430834 11.5687 0.686834C11.9663 1.67607 11.768 2.4127 11.5382 3.26587L11.5372 3.26957C11.2843 4.20815 10.998 5.27071 11.5687 6.68683C11.6477 6.88183 11.8347 6.99983 12.0327 6.99983C12.0947 6.99983 12.1577 6.98883 12.2197 6.96383Z" fill="black"/>
<path d="M18.4967 6.31383C18.5997 6.56983 18.4757 6.86083 18.2197 6.96383C18.1577 6.98883 18.0947 6.99983 18.0327 6.99983C17.8347 6.99983 17.6477 6.88183 17.5687 6.68683C16.998 5.27071 17.2843 4.20815 17.5372 3.26958L17.5377 3.26783L17.5382 3.26587C17.768 2.4127 17.9663 1.67607 17.5687 0.686834C17.4657 0.430834 17.5897 0.139834 17.8457 0.0358336C18.1017 -0.0661664 18.3927 0.0568336 18.4967 0.312834C19.0197 1.61283 18.7467 2.62983 18.5037 3.52683L18.503 3.52929C18.2603 4.43024 18.0511 5.20684 18.4967 6.31383Z" fill="black"/>
<path d="M4 12.5158C4 12.792 3.77614 13.0158 3.5 13.0158C3.22386 13.0158 3 12.792 3 12.5158C3 12.2397 3.22386 12.0158 3.5 12.0158C3.77614 12.0158 4 12.2397 4 12.5158Z" fill="black"/>
<path d="M3.5 16.0158C3.77614 16.0158 4 15.792 4 15.5158C4 15.2397 3.77614 15.0158 3.5 15.0158C3.22386 15.0158 3 15.2397 3 15.5158C3 15.792 3.22386 16.0158 3.5 16.0158Z" fill="black"/>
<path d="M8 11.5158C8 11.2397 7.77614 11.0158 7.5 11.0158C7.22386 11.0158 7 11.2397 7 11.5158V19.5158C7 19.792 7.22386 20.0158 7.5 20.0158C7.77614 20.0158 8 19.792 8 19.5158V11.5158Z" fill="black"/>
<path d="M10.5 11.0158C10.7761 11.0158 11 11.2397 11 11.5158V19.5158C11 19.792 10.7761 20.0158 10.5 20.0158C10.2239 20.0158 10 19.792 10 19.5158V11.5158C10 11.2397 10.2239 11.0158 10.5 11.0158Z" fill="black"/>
<path d="M14 11.5158C14 11.2397 13.7761 11.0158 13.5 11.0158C13.2239 11.0158 13 11.2397 13 11.5158V19.5158C13 19.792 13.2239 20.0158 13.5 20.0158C13.7761 20.0158 14 19.792 14 19.5158V11.5158Z" fill="black"/>
<path d="M16.5 11.0158C16.7761 11.0158 17 11.2397 17 11.5158V19.5158C17 19.792 16.7761 20.0158 16.5 20.0158C16.2239 20.0158 16 19.792 16 19.5158V11.5158C16 11.2397 16.2239 11.0158 16.5 11.0158Z" fill="black"/>
<path d="M20 11.5158C20 11.2397 19.7761 11.0158 19.5 11.0158C19.2239 11.0158 19 11.2397 19 11.5158V19.5158C19 19.792 19.2239 20.0158 19.5 20.0158C19.7761 20.0158 20 19.792 20 19.5158V11.5158Z" fill="black"/>
<path fill-rule="evenodd" clip-rule="evenodd" d="M2.5 8.01584C1.11929 8.01584 0 9.13513 0 10.5158V20.5158C0 21.8965 1.11929 23.0158 2.5 23.0158H5V23.5158C5 23.792 5.22386 24.0158 5.5 24.0158C5.77614 24.0158 6 23.792 6 23.5158V23.0158H18V23.5158C18 23.792 18.2239 24.0158 18.5 24.0158C18.7761 24.0158 19 23.792 19 23.5158V23.0158H21.5C22.8807 23.0158 24 21.8965 24 20.5158V10.5158C24 9.13513 22.8807 8.01584 21.5 8.01584H2.5ZM21.5 22.0158C22.3284 22.0158 23 21.3443 23 20.5158V10.5158C23 9.68741 22.3284 9.01584 21.5 9.01584H2.5C1.67157 9.01584 1 9.68741 1 10.5158V20.5158C1 21.3443 1.67157 22.0158 2.5 22.0158H21.5Z" fill="black"/>
</g>
<defs>
<clipPath id="clip0_346_13621">
<rect width="24" height="24" fill="white"/>
</clipPath>
</defs>
</svg>
