<svg width="24" height="24" viewBox="0 0 24 24" fill="none" xmlns="http://www.w3.org/2000/svg">
<path d="M12 0C12.7449 0 13.3947 0.407237 13.7389 1.01122C13.4494 1.17899 13.1706 1.36649 12.9044 1.57284C12.7442 1.23423 12.3995 1 12 1C11.4477 1 11 1.44772 11 2V2.65003C11 2.88783 10.8325 3.09273 10.5995 3.14003C7.40454 3.78857 5 6.61404 5 10L5.00012 14.5C5.00012 14.6326 4.94744 14.7598 4.85368 14.8536L3.00012 16.7071V19H21.0001V16.7071L19.1466 14.8536C19.1368 14.8438 19.1275 14.8337 19.1187 14.8233C19.4886 14.7415 19.8511 14.632 20.2032 14.4959L21.8537 16.1464C21.9474 16.2402 22.0001 16.3674 22.0001 16.5V19.5C22.0001 19.7761 21.7763 20 21.5001 20H2.50012C2.22398 20 2.00012 19.7761 2.00012 19.5V16.5C2.00012 16.3674 2.0528 16.2402 2.14657 16.1464L4.00012 14.2929L4 10C4 6.27195 6.54959 3.14042 10 2.25216V2C10 0.895431 10.8954 0 12 0Z" fill="black"/>
<path d="M10.0001 21C10.2763 21 10.5001 21.2239 10.5001 21.5C10.5001 22.3284 11.1717 23 12.0001 23C12.8285 23 13.5001 22.3284 13.5001 21.5C13.5001 21.2239 13.724 21 14.0001 21C14.2763 21 14.5001 21.2239 14.5001 21.5C14.5001 22.8807 13.3808 24 12.0001 24C10.6194 24 9.50012 22.8807 9.50012 21.5C9.50012 21.2239 9.72398 21 10.0001 21Z" fill="black"/>
<path d="M20.3796 6.3254C20.5593 6.11574 20.5351 5.80009 20.3254 5.62038C20.1157 5.44067 19.8001 5.46495 19.6204 5.67461L16.9718 8.76466L15.3536 7.14646C15.1583 6.95119 14.8417 6.95119 14.6464 7.14646C14.4512 7.34172 14.4512 7.6583 14.6464 7.85356L16.6464 9.85356C16.7449 9.95204 16.88 10.005 17.0192 9.99964C17.1584 9.9943 17.289 9.93115 17.3796 9.82541L20.3796 6.3254Z" fill="black"/>
<path fill-rule="evenodd" clip-rule="evenodd" d="M12.9038 2.90381C14.1228 1.68482 15.7761 1 17.5 1C19.2239 1 20.8772 1.68482 22.0962 2.90381C23.3152 4.12279 24 5.77609 24 7.5C24 9.22391 23.3152 10.8772 22.0962 12.0962C20.8772 13.3152 19.2239 14 17.5 14C15.7761 14 14.1228 13.3152 12.9038 12.0962C11.6848 10.8772 11 9.22391 11 7.5C11 5.77609 11.6848 4.12279 12.9038 2.90381ZM17.5 2C16.0413 2 14.6424 2.57946 13.6109 3.61091C12.5795 4.64236 12 6.04131 12 7.5C12 8.95869 12.5795 10.3576 13.6109 11.3891C14.6424 12.4205 16.0413 13 17.5 13C18.9587 13 20.3576 12.4205 21.3891 11.3891C22.4205 10.3576 23 8.95869 23 7.5C23 6.04131 22.4205 4.64236 21.3891 3.61091C20.3576 2.57946 18.9587 2 17.5 2Z" fill="black"/>
</svg>
