<svg width="24" height="24" viewBox="0 0 24 24" fill="none" xmlns="http://www.w3.org/2000/svg">
<path d="M12 0C12.7449 0 13.3947 0.407237 13.7389 1.01122C13.4494 1.17899 13.1706 1.36649 12.9044 1.57284C12.7442 1.23423 12.3995 1 12 1C11.4477 1 11 1.44772 11 2V2.65003C11 2.88783 10.8325 3.09273 10.5995 3.14003C7.40454 3.78857 5 6.61404 5 10L5.00012 14.5C5.00012 14.6326 4.94744 14.7598 4.85368 14.8536L3.00012 16.7071V19H21.0001V16.7071L19.1466 14.8536C19.1368 14.8438 19.1275 14.8337 19.1187 14.8233C19.4886 14.7415 19.8511 14.632 20.2032 14.4959L21.8537 16.1464C21.9474 16.2402 22.0001 16.3674 22.0001 16.5V19.5C22.0001 19.7761 21.7763 20 21.5001 20H2.50012C2.22398 20 2.00012 19.7761 2.00012 19.5V16.5C2.00012 16.3674 2.0528 16.2402 2.14657 16.1464L4.00012 14.2929L4 10C4 6.27195 6.54959 3.14042 10 2.25216V2C10 0.895431 10.8954 0 12 0Z" fill="black"/>
<path d="M10.0001 21C10.2763 21 10.5001 21.2239 10.5001 21.5C10.5001 22.3284 11.1717 23 12.0001 23C12.8285 23 13.5001 22.3284 13.5001 21.5C13.5001 21.2239 13.724 21 14.0001 21C14.2763 21 14.5001 21.2239 14.5001 21.5C14.5001 22.8807 13.3808 24 12.0001 24C10.6194 24 9.50012 22.8807 9.50012 21.5C9.50012 21.2239 9.72398 21 10.0001 21Z" fill="black"/>
<path d="M19.8536 5.14645C20.0488 5.34171 20.0488 5.65829 19.8536 5.85355L18.2071 7.5L19.8536 9.14645C20.0488 9.34171 20.0488 9.65829 19.8536 9.85355C19.6583 10.0488 19.3417 10.0488 19.1464 9.85355L17.5 8.20711L15.8536 9.85355C15.6583 10.0488 15.3417 10.0488 15.1464 9.85355C14.9512 9.65829 14.9512 9.34171 15.1464 9.14645L16.7929 7.5L15.1464 5.85355C14.9512 5.65829 14.9512 5.34171 15.1464 5.14645C15.3417 4.95118 15.6583 4.95118 15.8536 5.14645L17.5 6.79289L19.1464 5.14645C19.3417 4.95118 19.6583 4.95118 19.8536 5.14645Z" fill="black"/>
<path fill-rule="evenodd" clip-rule="evenodd" d="M17.5 1C15.7761 1 14.1228 1.68482 12.9038 2.90381C11.6848 4.12279 11 5.77609 11 7.5C11 9.22391 11.6848 10.8772 12.9038 12.0962C14.1228 13.3152 15.7761 14 17.5 14C19.2239 14 20.8772 13.3152 22.0962 12.0962C23.3152 10.8772 24 9.22391 24 7.5C24 5.77609 23.3152 4.12279 22.0962 2.90381C20.8772 1.68482 19.2239 1 17.5 1ZM13.6109 3.61091C14.6424 2.57946 16.0413 2 17.5 2C18.9587 2 20.3576 2.57946 21.3891 3.61091C22.4205 4.64236 23 6.04131 23 7.5C23 8.95869 22.4205 10.3576 21.3891 11.3891C20.3576 12.4205 18.9587 13 17.5 13C16.0413 13 14.6424 12.4205 13.6109 11.3891C12.5795 10.3576 12 8.95869 12 7.5C12 6.04131 12.5795 4.64236 13.6109 3.61091Z" fill="black"/>
</svg>
