<svg width="24" height="24" viewBox="0 0 24 24" fill="none" xmlns="http://www.w3.org/2000/svg">
<path d="M2 5.5C2 3.567 3.567 2 5.5 2C6.61406 2 7.60639 2.51994 8.2482 3.33239C8.41938 3.54907 8.7338 3.58597 8.95049 3.41479C9.16718 3.24361 9.20407 2.92919 9.03289 2.7125C8.2096 1.67032 6.93293 1 5.5 1C3.01472 1 1 3.01472 1 5.5C1 6.59914 1.39471 7.6074 2.04955 8.38882C2.22692 8.60047 2.54228 8.62826 2.75393 8.45089C2.96558 8.27353 2.99337 7.95817 2.81601 7.74652C2.30639 7.1384 2 6.35564 2 5.5Z" fill="black"/>
<path d="M15.7518 3.33239C16.3936 2.51994 17.3859 2 18.5 2C20.433 2 22 3.567 22 5.5C22 6.35564 21.6936 7.1384 21.184 7.74652C21.0066 7.95817 21.0344 8.27353 21.2461 8.45089C21.4577 8.62826 21.7731 8.60047 21.9504 8.38882C22.6053 7.6074 23 6.59914 23 5.5C23 3.01472 20.9853 1 18.5 1C17.0671 1 15.7904 1.67032 14.9671 2.7125C14.7959 2.92919 14.8328 3.24361 15.0495 3.41479C15.2662 3.58597 15.5806 3.54907 15.7518 3.33239Z" fill="black"/>
<path d="M11.935 8.5C11.935 8.224 12.159 8 12.435 8C12.711 8 12.935 8.224 12.935 8.5V14.5C12.935 14.776 12.711 15 12.435 15H8.435C8.159 15 7.935 14.776 7.935 14.5C7.935 14.224 8.159 14 8.435 14H11.935V8.5Z" fill="black"/>
<path fill-rule="evenodd" clip-rule="evenodd" d="M12 4C6.75329 4 2.5 8.25329 2.5 13.5C2.5 16.453 3.84776 19.0912 5.95994 20.833L4.64645 22.1464C4.45118 22.3417 4.45118 22.6583 4.64645 22.8536C4.84171 23.0488 5.15829 23.0488 5.35355 22.8536L6.7731 21.434C8.27262 22.4238 10.0696 23 12 23C13.9304 23 15.7274 22.4238 17.2269 21.434L18.6464 22.8536C18.8417 23.0488 19.1583 23.0488 19.3536 22.8536C19.5488 22.6583 19.5488 22.3417 19.3536 22.1464L18.0401 20.833C20.1522 19.0912 21.5 16.453 21.5 13.5C21.5 8.25329 17.2467 4 12 4ZM3.5 13.5C3.5 8.80558 7.30558 5 12 5C16.6944 5 20.5 8.80558 20.5 13.5C20.5 16.3288 19.1186 18.835 16.9914 20.3809C15.5899 21.3994 13.8658 22 12 22C10.1342 22 8.41009 21.3994 7.00858 20.3809C4.88139 18.835 3.5 16.3288 3.5 13.5Z" fill="black"/>
</svg>
