<svg width="24" height="24" viewBox="0 0 24 24" fill="none" xmlns="http://www.w3.org/2000/svg">
<path d="M13.7389 1.01122C13.3947 0.407237 12.7449 0 12 0C10.8954 0 10 0.895431 10 2V2.25216C6.54959 3.14042 4 6.27195 4 10L4.00012 14.2929L2.14657 16.1464C2.0528 16.2402 2.00012 16.3674 2.00012 16.5V19.5C2.00012 19.7761 2.22398 20 2.50012 20H21.5001C21.7763 20 22.0001 19.7761 22.0001 19.5V16.5C22.0001 16.3674 21.9474 16.2402 21.8537 16.1464L20.2032 14.4959C19.8511 14.632 19.4886 14.7415 19.1187 14.8233C19.1275 14.8337 19.1368 14.8438 19.1466 14.8536L21.0001 16.7071V19H3.00012V16.7071L4.85368 14.8536C4.94744 14.7598 5.00012 14.6326 5.00012 14.5L5 10C5 6.61404 7.40454 3.78857 10.5995 3.14003C10.8325 3.09273 11 2.88783 11 2.65003V2C11 1.44772 11.4477 1 12 1C12.3995 1 12.7442 1.23423 12.9044 1.57284C13.1706 1.36649 13.4494 1.17899 13.7389 1.01122Z" fill="black"/>
<path d="M10.5001 21.5C10.5001 21.2239 10.2763 21 10.0001 21C9.72398 21 9.50012 21.2239 9.50012 21.5C9.50012 22.8807 10.6194 24 12.0001 24C13.3808 24 14.5001 22.8807 14.5001 21.5C14.5001 21.2239 14.2763 21 14.0001 21C13.724 21 13.5001 21.2239 13.5001 21.5C13.5001 22.3284 12.8285 23 12.0001 23C11.1717 23 10.5001 22.3284 10.5001 21.5Z" fill="black"/>
<path d="M16 5C15.7239 5 15.5 5.22386 15.5 5.5C15.5 5.77614 15.7239 6 16 6H18L15.6 9.2C15.4864 9.35151 15.4681 9.55421 15.5528 9.72361C15.6375 9.893 15.8106 10 16 10H19C19.2761 10 19.5 9.77614 19.5 9.5C19.5 9.22386 19.2761 9 19 9H17L19.4 5.8C19.5136 5.64849 19.5319 5.44579 19.4472 5.27639C19.3625 5.107 19.1894 5 19 5H16Z" fill="black"/>
<path fill-rule="evenodd" clip-rule="evenodd" d="M12.9038 2.90381C14.1228 1.68482 15.7761 1 17.5 1C19.2239 1 20.8772 1.68482 22.0962 2.90381C23.3152 4.12279 24 5.77609 24 7.5C24 9.22391 23.3152 10.8772 22.0962 12.0962C20.8772 13.3152 19.2239 14 17.5 14C15.7761 14 14.1228 13.3152 12.9038 12.0962C11.6848 10.8772 11 9.22391 11 7.5C11 5.77609 11.6848 4.12279 12.9038 2.90381ZM17.5 2C16.0413 2 14.6424 2.57946 13.6109 3.61091C12.5795 4.64236 12 6.04131 12 7.5C12 8.95869 12.5795 10.3576 13.6109 11.3891C14.6424 12.4205 16.0413 13 17.5 13C18.9587 13 20.3576 12.4205 21.3891 11.3891C22.4205 10.3576 23 8.95869 23 7.5C23 6.04131 22.4205 4.64236 21.3891 3.61091C20.3576 2.57946 18.9587 2 17.5 2Z" fill="black"/>
</svg>
