<svg width="24" height="24" viewBox="0 0 24 24" fill="none" xmlns="http://www.w3.org/2000/svg">
<path d="M8.5 1C4.35786 1 1 4.35786 1 8.5C1 8.77614 0.776142 9 0.5 9C0.223858 9 0 8.77614 0 8.5C0 3.80558 3.80558 0 8.5 0C8.77614 0 9 0.223858 9 0.5C9 0.776142 8.77614 1 8.5 1Z" fill="black"/>
<path d="M8.5 4C6.01472 4 4 6.01472 4 8.5C4 8.77614 3.77614 9 3.5 9C3.22386 9 3 8.77614 3 8.5C3 5.46243 5.46243 3 8.5 3C8.77614 3 9 3.22386 9 3.5C9 3.77614 8.77614 4 8.5 4Z" fill="black"/>
<path fill-rule="evenodd" clip-rule="evenodd" d="M12.0025 7.99181C7.57964 7.99181 3.99707 11.5732 3.99707 15.9951C3.99707 20.4071 7.57964 23.9984 12.0025 23.9984C16.4154 23.9984 20.008 20.4071 20.008 15.9951C20.008 11.5732 16.4154 7.99181 12.0025 7.99181ZM4.99707 15.9951C4.99707 12.1257 8.13166 8.99181 12.0025 8.99181C15.8642 8.99181 19.008 12.1265 19.008 15.9951C19.008 19.8545 15.8634 22.9984 12.0025 22.9984C8.13246 22.9984 4.99707 19.8553 4.99707 15.9951Z" fill="black"/>
<path d="M20 8.5C20 6.01472 17.9853 4 15.5 4C15.2239 4 15 3.77614 15 3.5C15 3.22386 15.2239 3 15.5 3C18.5376 3 21 5.46243 21 8.5C21 8.77614 20.7761 9 20.5 9C20.2239 9 20 8.77614 20 8.5Z" fill="black"/>
<path d="M23 8.5C23 4.35786 19.6421 1 15.5 1C15.2239 1 15 0.776142 15 0.5C15 0.223858 15.2239 0 15.5 0C20.1944 0 24 3.80558 24 8.5C24 8.77614 23.7761 9 23.5 9C23.2239 9 23 8.77614 23 8.5Z" fill="black"/>
<path fill-rule="evenodd" clip-rule="evenodd" d="M10.6118 11.1421C10.7459 11.0113 10.9419 10.9664 11.1195 11.0258C13.7398 11.9017 15.615 14.6711 15.615 17.385C15.615 19.3642 14.0131 21 12 21C9.99761 21 8.38501 19.3729 8.38501 17.385C8.38501 16.7668 8.70256 16.0634 8.9631 15.5762C9.1006 15.3191 9.23749 15.095 9.33985 14.9352C9.39119 14.8551 9.43422 14.7906 9.46483 14.7456C9.48014 14.7231 9.49236 14.7054 9.50099 14.693L9.51118 14.6784L9.51413 14.6742L9.5156 14.6721C9.60925 14.5405 9.76075 14.4622 9.92231 14.462C10.0839 14.4618 10.2361 14.5404 10.3301 14.6718L10.3646 14.7198L10.4596 14.8516C10.5392 14.9619 10.6476 15.1112 10.7626 15.2678L10.851 15.3879C11.0071 14.8762 11.0303 14.3291 10.9771 13.7826C10.9017 13.0075 10.6782 12.2812 10.5042 11.7155L10.483 11.6468C10.428 11.4677 10.4778 11.2729 10.6118 11.1421ZM9.84492 16.0478C9.8809 15.9805 9.91692 15.9156 9.95221 15.8539L9.95647 15.8597C10.1808 16.1652 10.459 16.5381 10.591 16.6833C10.6964 16.7992 10.85 16.8591 11.0059 16.845C11.1619 16.8309 11.3023 16.7445 11.3852 16.6117C11.9756 15.6654 12.0627 14.613 11.9724 13.6857C11.9283 13.233 11.8405 12.7979 11.7423 12.4063C13.4409 13.4131 14.615 15.4217 14.615 17.385C14.615 18.8178 13.4549 20 12 20C10.5524 20 9.38501 18.8231 9.38501 17.385C9.38501 17.0392 9.58646 16.5311 9.84492 16.0478Z" fill="black"/>
</svg>
