<svg width="24" height="24" viewBox="0 0 24 24" fill="none" xmlns="http://www.w3.org/2000/svg">
<path d="M8.5 1C4.35786 1 1 4.35786 1 8.5C1 8.77614 0.776142 9 0.5 9C0.223858 9 0 8.77614 0 8.5C0 3.80558 3.80558 0 8.5 0C8.77614 0 9 0.223858 9 0.5C9 0.776142 8.77614 1 8.5 1Z" fill="black"/>
<path d="M8.5 4C6.01472 4 4 6.01472 4 8.5C4 8.77614 3.77614 9 3.5 9C3.22386 9 3 8.77614 3 8.5C3 5.46243 5.46243 3 8.5 3C8.77614 3 9 3.22386 9 3.5C9 3.77614 8.77614 4 8.5 4Z" fill="black"/>
<path d="M13.3841 12.3201C13.5609 12.108 13.5322 11.7927 13.3201 11.6159C13.108 11.4391 12.7927 11.4678 12.6159 11.6799L10.1159 14.6799C9.99168 14.8289 9.96491 15.0364 10.0472 15.2121C10.1295 15.3878 10.306 15.5 10.5 15.5H12.5657L10.7109 18.2822L10.4851 17.3787C10.4181 17.1108 10.1466 16.948 9.87873 17.0149C9.61083 17.0819 9.44795 17.3534 9.51493 17.6213L10.0149 19.6213C10.0797 19.8802 10.3363 20.0426 10.5981 19.9903L13.0981 19.4903C13.3688 19.4361 13.5444 19.1727 13.4903 18.9019C13.4361 18.6312 13.1727 18.4556 12.9019 18.5097L11.5856 18.773L13.916 15.2773C14.0183 15.1239 14.0278 14.9266 13.9408 14.7641C13.8538 14.6015 13.6844 14.5 13.5 14.5H11.5675L13.3841 12.3201Z" fill="black"/>
<path fill-rule="evenodd" clip-rule="evenodd" d="M3.99707 15.9951C3.99707 11.5732 7.57964 7.99181 12.0025 7.99181C16.4154 7.99181 20.008 11.5732 20.008 15.9951C20.008 20.4071 16.4154 23.9984 12.0025 23.9984C7.57964 23.9984 3.99707 20.4071 3.99707 15.9951ZM12.0025 8.99181C8.13166 8.99181 4.99707 12.1257 4.99707 15.9951C4.99707 19.8553 8.13246 22.9984 12.0025 22.9984C15.8634 22.9984 19.008 19.8545 19.008 15.9951C19.008 12.1265 15.8642 8.99181 12.0025 8.99181Z" fill="black"/>
<path d="M20 8.5C20 6.01472 17.9853 4 15.5 4C15.2239 4 15 3.77614 15 3.5C15 3.22386 15.2239 3 15.5 3C18.5376 3 21 5.46243 21 8.5C21 8.77614 20.7761 9 20.5 9C20.2239 9 20 8.77614 20 8.5Z" fill="black"/>
<path d="M15.5 1C19.6421 1 23 4.35786 23 8.5C23 8.77614 23.2239 9 23.5 9C23.7761 9 24 8.77614 24 8.5C24 3.80558 20.1944 0 15.5 0C15.2239 0 15 0.223858 15 0.5C15 0.776142 15.2239 1 15.5 1Z" fill="black"/>
</svg>
