<svg width="24" height="24" viewBox="0 0 24 24" fill="none" xmlns="http://www.w3.org/2000/svg">
<path d="M12.5 0.5C12.5 0.223858 12.2761 0 12 0C11.7239 0 11.5 0.223858 11.5 0.5V2.5C11.5 2.77614 11.7239 3 12 3C12.2761 3 12.5 2.77614 12.5 2.5V0.5Z" fill="black"/>
<path d="M18.183 2.29071C18.3211 2.05156 18.2391 1.74577 18 1.6077C17.7609 1.46963 17.4551 1.55156 17.317 1.79071L16.317 3.52276C16.1789 3.76191 16.2609 4.0677 16.5 4.20577C16.7391 4.34384 17.0449 4.26191 17.183 4.02276L18.183 2.29071Z" fill="black"/>
<path d="M22.3923 6C22.5304 6.23914 22.4484 6.54494 22.2093 6.68301L20.4772 7.68301C20.2381 7.82108 19.9323 7.73914 19.7942 7.5C19.6562 7.26085 19.7381 6.95506 19.9772 6.81699L21.7093 5.81699C21.9484 5.67892 22.2542 5.76085 22.3923 6Z" fill="black"/>
<path d="M23.5 12.5C23.7761 12.5 24 12.2761 24 12C24 11.7239 23.7761 11.5 23.5 11.5H21.5C21.2239 11.5 21 11.7239 21 12C21 12.2761 21.2239 12.5 21.5 12.5H23.5Z" fill="black"/>
<path d="M0 12C0 11.7239 0.223858 11.5 0.5 11.5H2.5C2.77614 11.5 3 11.7239 3 12C3 12.2761 2.77614 12.5 2.5 12.5H0.5C0.223858 12.5 0 12.2761 0 12Z" fill="black"/>
<path d="M2.29071 5.81699C2.05156 5.67892 1.74577 5.76086 1.6077 6C1.46963 6.23915 1.55156 6.54494 1.79071 6.68301L3.52276 7.68301C3.76191 7.82108 4.0677 7.73915 4.20577 7.5C4.34384 7.26086 4.26191 6.95506 4.02276 6.81699L2.29071 5.81699Z" fill="black"/>
<path d="M6 1.6077C6.23914 1.46963 6.54494 1.55156 6.68301 1.79071L7.68301 3.52276C7.82108 3.76191 7.73914 4.0677 7.5 4.20577C7.26085 4.34384 6.95506 4.26191 6.81699 4.02276L5.81699 2.29071C5.67892 2.05156 5.76085 1.74577 6 1.6077Z" fill="black"/>
<path fill-rule="evenodd" clip-rule="evenodd" d="M20 20.05V12C20 7.58172 16.4183 4 12 4C7.58172 4 4 7.58172 4 12V20.05C2.85888 20.2816 2 21.2905 2 22.5V23.5C2 23.7761 2.22386 24 2.5 24H21.5C21.7761 24 22 23.7761 22 23.5V22.5C22 21.2905 21.1411 20.2816 20 20.05ZM12 5C8.13401 5 5 8.13401 5 12V20H11.5V15.937C10.6374 15.715 10 14.9319 10 14C10 12.8954 10.8954 12 12 12C13.1046 12 14 12.8954 14 14C14 14.9319 13.3626 15.715 12.5 15.937V20H19V12C19 8.13401 15.866 5 12 5ZM12 15C12.5523 15 13 14.5523 13 14C13 13.4477 12.5523 13 12 13C11.4477 13 11 13.4477 11 14C11 14.5523 11.4477 15 12 15ZM4.5 21H19.5C20.3284 21 21 21.6716 21 22.5V23H3V22.5C3 21.6716 3.67157 21 4.5 21Z" fill="black"/>
</svg>
