<svg width="24" height="24" viewBox="0 0 24 24" fill="none" xmlns="http://www.w3.org/2000/svg">
<path d="M2 5.5C2 3.567 3.567 2 5.5 2C6.61406 2 7.60639 2.51994 8.2482 3.33239C8.41938 3.54907 8.7338 3.58597 8.95049 3.41479C9.16718 3.24361 9.20407 2.92919 9.03289 2.7125C8.2096 1.67032 6.93293 1 5.5 1C3.01472 1 1 3.01472 1 5.5C1 6.59914 1.39471 7.6074 2.04955 8.38882C2.22692 8.60047 2.54228 8.62826 2.75393 8.45089C2.96558 8.27353 2.99337 7.95817 2.81601 7.74652C2.30639 7.1384 2 6.35564 2 5.5Z" fill="black"/>
<path d="M15.7518 3.33239C16.3936 2.51994 17.3859 2 18.5 2C20.433 2 22 3.567 22 5.5C22 6.35564 21.6936 7.1384 21.184 7.74652C21.0066 7.95817 21.0344 8.27353 21.2461 8.45089C21.4577 8.62826 21.7731 8.60047 21.9504 8.38882C22.6053 7.6074 23 6.59914 23 5.5C23 3.01472 20.9853 1 18.5 1C17.0671 1 15.7904 1.67032 14.9671 2.7125C14.7959 2.92919 14.8328 3.24361 15.0495 3.41479C15.2662 3.58597 15.5806 3.54907 15.7518 3.33239Z" fill="black"/>
<path d="M12.435 8C12.159 8 11.935 8.224 11.935 8.5V14H8.435C8.159 14 7.935 14.224 7.935 14.5C7.935 14.776 8.159 15 8.435 15H12.435C12.711 15 12.935 14.776 12.935 14.5V8.5C12.935 8.224 12.711 8 12.435 8Z" fill="black"/>
<path fill-rule="evenodd" clip-rule="evenodd" d="M16.4828 17.5858C16.8578 17.2107 17.3665 17 17.897 17C18.4274 17 18.9361 17.2107 19.3112 17.5858C19.6863 17.9609 19.897 18.4696 19.897 19C19.897 19.5304 19.6863 20.0391 19.3112 20.4142C18.9361 20.7893 18.4274 21 17.897 21C17.3665 21 16.8578 20.7893 16.4828 20.4142C16.1077 20.0391 15.897 19.5304 15.897 19C15.897 18.4696 16.1077 17.9609 16.4828 17.5858ZM17.897 18C17.6318 18 17.3774 18.1054 17.1899 18.2929C17.0023 18.4804 16.897 18.7348 16.897 19C16.897 19.2652 17.0023 19.5196 17.1899 19.7071C17.3774 19.8946 17.6318 20 17.897 20C18.1622 20 18.4165 19.8946 18.6041 19.7071C18.7916 19.5196 18.897 19.2652 18.897 19C18.897 18.7348 18.7916 18.4804 18.6041 18.2929C18.4165 18.1054 18.1622 18 17.897 18Z" fill="black"/>
<path fill-rule="evenodd" clip-rule="evenodd" d="M16.897 14C16.6209 14 16.397 14.2239 16.397 14.5V15.3079C16.0545 15.4455 15.734 15.6277 15.4443 15.8517L14.7508 15.4518C14.5116 15.314 14.206 15.396 14.068 15.635L13.068 17.367C12.9299 17.6061 13.0118 17.9119 13.2509 18.05L13.9409 18.4485C13.8834 18.8248 13.8831 19.1755 13.9408 19.5534L13.2501 19.9519C13.1352 20.0182 13.0514 20.1274 13.0171 20.2555C12.9827 20.3836 13.0007 20.5201 13.067 20.635L14.067 22.367C14.1333 22.4819 14.2426 22.5657 14.3707 22.6C14.4989 22.6343 14.6354 22.6163 14.7502 22.5499L15.4449 22.1483C15.7349 22.372 16.0552 22.5537 16.397 22.691V23.5C16.397 23.7761 16.6209 24 16.897 24H18.897C19.1731 24 19.397 23.7761 19.397 23.5V22.692C19.7388 22.5545 20.0593 22.3726 20.3486 22.1492L21.0443 22.5502C21.2834 22.688 21.589 22.606 21.727 22.367L22.727 20.635C22.7933 20.5201 22.8113 20.3836 22.7769 20.2555C22.7426 20.1274 22.6588 20.0182 22.5439 19.9519L21.8532 19.5534C21.9109 19.1755 21.9106 18.8248 21.8531 18.4485L22.5431 18.05C22.7822 17.9119 22.8641 17.6061 22.726 17.367L21.726 15.635C21.588 15.396 21.2824 15.314 21.0433 15.4518L20.3495 15.8518C20.0598 15.6279 19.7396 15.4457 19.397 15.3079V14.5C19.397 14.2239 19.1731 14 18.897 14H16.897ZM17.397 15.662V15H18.397V15.662C18.397 15.8827 18.5417 16.0773 18.7531 16.1408C19.2108 16.2784 19.618 16.5113 19.9513 16.8251C20.1119 16.9763 20.3526 17.0043 20.5438 16.8942L21.1098 16.5678L21.61 17.4341L21.0439 17.761C20.8528 17.8714 20.7567 18.0941 20.8074 18.3089C20.9256 18.8097 20.9264 19.19 20.8074 19.6929C20.7566 19.9078 20.8528 20.1307 21.0441 20.2411L21.6109 20.5681L21.1108 21.4343L20.5427 21.1068C20.3514 20.9966 20.1104 21.0248 19.9499 21.1763C19.6193 21.4882 19.2105 21.7214 18.7528 21.8592C18.5416 21.9228 18.397 22.1174 18.397 22.338V23H17.397V22.337C17.397 22.1164 17.2524 21.9218 17.0412 21.8582C16.5835 21.7204 16.1754 21.4881 15.8427 21.1749C15.6819 21.0236 15.4409 20.9956 15.2498 21.1061L14.6829 21.4338L14.1831 20.5681L14.7499 20.2411C14.9412 20.1307 15.0374 19.9078 14.9866 19.6929C14.8676 19.19 14.8684 18.8097 14.9866 18.3089C15.0373 18.0941 14.9412 17.8714 14.7501 17.761L14.184 17.4341L14.6842 16.5678L15.2503 16.8942C15.4416 17.0045 15.6826 16.9762 15.8432 16.8246C16.175 16.5115 16.5828 16.2785 17.0409 16.1408C17.2523 16.0773 17.397 15.8827 17.397 15.662Z" fill="black"/>
<path d="M3.5 13.5C3.5 8.80558 7.30558 5 12 5C16.6944 5 20.5 8.80558 20.5 13.5C20.5 13.7761 20.7239 14 21 14C21.2761 14 21.5 13.7761 21.5 13.5C21.5 8.25329 17.2467 4 12 4C6.75329 4 2.5 8.25329 2.5 13.5C2.5 16.453 3.84776 19.0912 5.95994 20.833L4.64645 22.1464C4.45118 22.3417 4.45118 22.6583 4.64645 22.8536C4.84171 23.0488 5.15829 23.0488 5.35355 22.8536L6.7731 21.434C8.27262 22.4238 10.0696 23 12 23C12.2761 23 12.5 22.7761 12.5 22.5C12.5 22.2239 12.2761 22 12 22C10.1342 22 8.41009 21.3994 7.00858 20.3809C4.88139 18.835 3.5 16.3288 3.5 13.5Z" fill="black"/>
</svg>
