<svg width="24" height="24" viewBox="0 0 24 24" fill="none" xmlns="http://www.w3.org/2000/svg">
<path d="M8.5 1C4.35786 1 1 4.35786 1 8.5C1 8.77614 0.776142 9 0.5 9C0.223858 9 0 8.77614 0 8.5C0 3.80558 3.80558 0 8.5 0C8.77614 0 9 0.223858 9 0.5C9 0.776142 8.77614 1 8.5 1Z" fill="black"/>
<path d="M8.5 4C6.01472 4 4 6.01472 4 8.5C4 8.77614 3.77614 9 3.5 9C3.22386 9 3 8.77614 3 8.5C3 5.46243 5.46243 3 8.5 3C8.77614 3 9 3.22386 9 3.5C9 3.77614 8.77614 4 8.5 4Z" fill="black"/>
<path fill-rule="evenodd" clip-rule="evenodd" d="M9.28018 13.9208L11.4973 11.7153C11.6354 11.5714 11.8285 11.4934 12.0275 11.5004C12.2246 11.5004 12.4137 11.5804 12.5518 11.7213L14.7229 13.9238C16.2146 15.4239 16.2096 17.8473 14.7099 19.3403C13.2111 20.8333 10.7839 20.8323 9.28718 19.3373C7.78943 17.8423 7.78643 15.4189 9.28018 13.9208ZM12.0198 12.6059L14.01 14.625L14.0131 14.6281C15.1161 15.7373 15.1119 17.5291 14.0034 18.6327C12.8953 19.7366 11.1006 19.7353 9.9944 18.6304C8.88735 17.5254 8.88492 15.7348 9.98773 14.6274L12.0198 12.6059Z" fill="black"/>
<path fill-rule="evenodd" clip-rule="evenodd" d="M12.0025 7.99181C7.57964 7.99181 3.99707 11.5732 3.99707 15.9951C3.99707 20.4071 7.57964 23.9984 12.0025 23.9984C16.4154 23.9984 20.008 20.4071 20.008 15.9951C20.008 11.5732 16.4154 7.99181 12.0025 7.99181ZM4.99707 15.9951C4.99707 12.1257 8.13166 8.99181 12.0025 8.99181C15.8642 8.99181 19.008 12.1265 19.008 15.9951C19.008 19.8545 15.8634 22.9984 12.0025 22.9984C8.13246 22.9984 4.99707 19.8553 4.99707 15.9951Z" fill="black"/>
<path d="M20 8.5C20 6.01472 17.9853 4 15.5 4C15.2239 4 15 3.77614 15 3.5C15 3.22386 15.2239 3 15.5 3C18.5376 3 21 5.46243 21 8.5C21 8.77614 20.7761 9 20.5 9C20.2239 9 20 8.77614 20 8.5Z" fill="black"/>
<path d="M23 8.5C23 4.35786 19.6421 1 15.5 1C15.2239 1 15 0.776142 15 0.5C15 0.223858 15.2239 0 15.5 0C20.1944 0 24 3.80558 24 8.5C24 8.77614 23.7761 9 23.5 9C23.2239 9 23 8.77614 23 8.5Z" fill="black"/>
</svg>
