<svg width="24" height="24" viewBox="0 0 24 24" fill="none" xmlns="http://www.w3.org/2000/svg">
<path fill-rule="evenodd" clip-rule="evenodd" d="M2.57855 15.8664C2.73816 16.2506 3.11355 16.5 3.52874 16.5H20.4714C20.8865 16.5 21.2619 16.2506 21.4216 15.8664C21.5813 15.482 21.4928 15.0397 21.1982 14.7461L12.7269 6.3003C12.3253 5.8999 11.6748 5.8999 11.2732 6.3003L2.80187 14.7461C2.50732 15.0397 2.41883 15.482 2.57855 15.8664ZM3.52874 15.5C3.51625 15.5 3.50607 15.4925 3.50202 15.4828C3.49806 15.4733 3.50004 15.4621 3.50791 15.4542L11.9792 7.00847C11.9905 6.99718 12.0095 6.99717 12.0209 7.00848L20.4922 15.4542C20.5001 15.4621 20.502 15.4733 20.4981 15.4828C20.494 15.4925 20.4838 15.5 20.4714 15.5H3.52874Z" fill="black"/>
</svg>
