<svg width="24" height="24" viewBox="0 0 24 24" fill="none" xmlns="http://www.w3.org/2000/svg">
<path fill-rule="evenodd" clip-rule="evenodd" d="M2.57855 8.13356C2.73816 7.74938 3.11355 7.5 3.52874 7.5H20.4714C20.8865 7.5 21.2619 7.74938 21.4216 8.13356C21.5813 8.51799 21.4928 8.96027 21.1982 9.25393L12.7269 17.6997C12.3253 18.1001 11.6748 18.1001 11.2732 17.6997L2.80187 9.25393C2.50732 8.96026 2.41883 8.51798 2.57855 8.13356ZM3.52874 8.5C3.51625 8.5 3.50607 8.50747 3.50202 8.51723C3.49806 8.52675 3.50004 8.53791 3.50791 8.54576L11.9792 16.9915C11.9905 17.0028 12.0095 17.0028 12.0209 16.9915L20.4922 8.54576C20.5001 8.53791 20.502 8.52675 20.4981 8.51723C20.494 8.50747 20.4838 8.5 20.4714 8.5H3.52874Z" fill="black"/>
</svg>
