<svg width="24" height="24" viewBox="0 0 24 24" fill="none" xmlns="http://www.w3.org/2000/svg">
<path fill-rule="evenodd" clip-rule="evenodd" d="M8.13356 2.57855C7.74938 2.73816 7.5 3.11355 7.5 3.52874V20.4714C7.5 20.8865 7.74938 21.2619 8.13356 21.4216C8.51799 21.5813 8.96027 21.4928 9.25393 21.1982L17.6997 12.7269C18.1001 12.3253 18.1001 11.6748 17.6997 11.2732L9.25393 2.80187C8.96026 2.50732 8.51798 2.41883 8.13356 2.57855ZM8.5 3.52874C8.5 3.51625 8.50747 3.50607 8.51723 3.50202C8.52675 3.49806 8.53791 3.50004 8.54576 3.50791L16.9915 11.9792C17.0028 11.9905 17.0028 12.0095 16.9915 12.0209L8.54576 20.4922C8.53791 20.5001 8.52675 20.502 8.51723 20.4981C8.50747 20.494 8.5 20.4838 8.5 20.4714V3.52874Z" fill="black"/>
</svg>
