<svg width="24" height="24" viewBox="0 0 24 24" fill="none" xmlns="http://www.w3.org/2000/svg">
<path fill-rule="evenodd" clip-rule="evenodd" d="M15.8664 2.57855C16.2506 2.73816 16.5 3.11355 16.5 3.52874V20.4714C16.5 20.8865 16.2506 21.2619 15.8664 21.4216C15.482 21.5813 15.0397 21.4928 14.7461 21.1982L6.3003 12.7269C5.8999 12.3253 5.8999 11.6748 6.3003 11.2732L14.7461 2.80187C15.0397 2.50732 15.482 2.41883 15.8664 2.57855ZM15.5 3.52874C15.5 3.51625 15.4925 3.50607 15.4828 3.50202C15.4733 3.49806 15.4621 3.50004 15.4542 3.50791L7.00847 11.9792C6.99718 11.9905 6.99717 12.0095 7.00848 12.0209L15.4542 20.4922C15.4621 20.5001 15.4733 20.502 15.4828 20.4981C15.4925 20.494 15.5 20.4838 15.5 20.4714V3.52874Z" fill="black"/>
</svg>
