<svg width="24" height="24" viewBox="0 0 24 24" fill="none" xmlns="http://www.w3.org/2000/svg">
<g clip-path="url(#clip0_346_13572)">
<path d="M12.3536 1.14645C12.1583 0.951184 11.8417 0.951184 11.6464 1.14645L0.146447 12.6464C-0.0488155 12.8417 -0.0488155 13.1583 0.146447 13.3536C0.341709 13.5488 0.658291 13.5488 0.853553 13.3536L12 2.20711L23.1464 13.3536C23.3417 13.5488 23.6583 13.5488 23.8536 13.3536C24.0488 13.1583 24.0488 12.8417 23.8536 12.6464L12.3536 1.14645Z" fill="black"/>
<path d="M4 13.5C4 13.2239 3.77614 13 3.5 13C3.22386 13 3 13.2239 3 13.5V23.5C3 23.7761 3.22386 24 3.5 24H20.5C20.7761 24 21 23.7761 21 23.5V13.5C21 13.2239 20.7761 13 20.5 13C20.2239 13 20 13.2239 20 13.5V23H4V13.5Z" fill="black"/>
<path d="M15.5 2.5C15.5 2.22386 15.7239 2 16 2H19.5C19.7761 2 20 2.22386 20 2.5V6C20 6.27614 19.7761 6.5 19.5 6.5C19.2239 6.5 19 6.27614 19 6V3H16C15.7239 3 15.5 2.77614 15.5 2.5Z" fill="black"/>
<path d="M8 11.5C8.27614 11.5 8.5 11.2761 8.5 11C8.5 10.7239 8.27614 10.5 8 10.5C7.72386 10.5 7.5 10.7239 7.5 11C7.5 11.2761 7.72386 11.5 8 11.5Z" fill="black"/>
<path d="M16 11.5C16.2761 11.5 16.5 11.2761 16.5 11C16.5 10.7239 16.2761 10.5 16 10.5C15.7239 10.5 15.5 10.7239 15.5 11C15.5 11.2761 15.7239 11.5 16 11.5Z" fill="black"/>
<path d="M12.5 11C12.5 11.2761 12.2761 11.5 12 11.5C11.7239 11.5 11.5 11.2761 11.5 11C11.5 10.7239 11.7239 10.5 12 10.5C12.2761 10.5 12.5 10.7239 12.5 11Z" fill="black"/>
</g>
<defs>
<clipPath id="clip0_346_13572">
<rect width="24" height="24" fill="white"/>
</clipPath>
</defs>
</svg>
