<svg width="24" height="24" viewBox="0 0 24 24" fill="none" xmlns="http://www.w3.org/2000/svg">
<path fill-rule="evenodd" clip-rule="evenodd" d="M12.454 4.29047C12.3723 4.1134 12.195 4 12 4C11.805 4 11.6277 4.1134 11.546 4.29047L7.85817 12.2808C7.85668 12.2839 7.85521 12.287 7.85377 12.2901C7.85214 12.2936 7.85054 12.2971 7.84899 12.3007L5.54602 17.2905C5.4303 17.5412 5.53974 17.8383 5.79047 17.954C6.0412 18.0697 6.33826 17.9603 6.45398 17.7095L8.62761 13H15.3724L17.546 17.7095C17.6617 17.9603 17.9588 18.0697 18.2095 17.954C18.4603 17.8383 18.5697 17.5412 18.454 17.2905L16.151 12.3007C16.1481 12.294 16.145 12.2874 16.1418 12.2808L12.454 4.29047ZM12 5.69315L14.9109 12H9.08915L12 5.69315Z" fill="black"/>
<path fill-rule="evenodd" clip-rule="evenodd" d="M12 0C5.383 0 0 5.383 0 12C0 18.617 5.383 24 12 24C18.617 24 24 18.617 24 12C24 5.383 18.617 0 12 0ZM12 23C5.935 23 1 18.066 1 12C1 5.935 5.935 1 12 1C18.065 1 23 5.935 23 12C23 18.066 18.065 23 12 23Z" fill="black"/>
</svg>
