<svg width="24" height="24" viewBox="0 0 24 24" fill="none" xmlns="http://www.w3.org/2000/svg">
<g clip-path="url(#clip0_366_12656)">
<path d="M11.6629 1.13076C11.8538 0.956414 12.1462 0.956414 12.3371 1.13076L23.8371 11.6308C24.0411 11.817 24.0554 12.1332 23.8692 12.3371C23.6831 12.5411 23.3668 12.5554 23.1629 12.3692L12 2.17706L0.837138 12.3692C0.633211 12.5554 0.316955 12.5411 0.13076 12.3371C-0.0554339 12.1332 -0.0410586 11.817 0.162869 11.6308L11.6629 1.13076Z" fill="black"/>
<path d="M3.5 12C3.77614 12 4 12.2239 4 12.5V23H12.5C12.7761 23 13 23.2239 13 23.5C13 23.7761 12.7761 24 12.5 24H3.5C3.22386 24 3 23.7761 3 23.5V12.5C3 12.2239 3.22386 12 3.5 12Z" fill="black"/>
<path d="M16 2C15.7239 2 15.5 2.22386 15.5 2.5C15.5 2.77614 15.7239 3 16 3H19V6C19 6.27614 19.2239 6.5 19.5 6.5C19.7761 6.5 20 6.27614 20 6V2.5C20 2.22386 19.7761 2 19.5 2H16Z" fill="black"/>
<path fill-rule="evenodd" clip-rule="evenodd" d="M10 6.5C10 6.22386 10.2239 6 10.5 6H13.5C13.7761 6 14 6.22386 14 6.5V9.5C14 9.77614 13.7761 10 13.5 10H10.5C10.2239 10 10 9.77614 10 9.5V6.5ZM11 7V9H13V7H11Z" fill="black"/>
<path d="M23.8536 18.1464L19.8536 14.1464C19.6583 13.9512 19.3417 13.9512 19.1464 14.1464C18.9512 14.3417 18.9512 14.6583 19.1464 14.8536L22.2929 18H13.5C13.2239 18 13 18.2239 13 18.5C13 18.7761 13.2239 19 13.5 19H22.2929L19.1464 22.1464C18.9512 22.3417 18.9512 22.6583 19.1464 22.8536C19.3417 23.0488 19.6583 23.0488 19.8536 22.8536L23.8536 18.8536C24.0488 18.6583 24.0488 18.3417 23.8536 18.1464Z" fill="black"/>
</g>
<defs>
<clipPath id="clip0_366_12656">
<rect width="24" height="24" fill="white"/>
</clipPath>
</defs>
</svg>
