<svg width="24" height="24" viewBox="0 0 24 24" fill="none" xmlns="http://www.w3.org/2000/svg">
<path d="M12 10.5C11.436 10.5 10.995 10.067 10.995 9.513C10.995 8.954 11.446 8.5 12 8.5C12.554 8.5 13.005 8.954 13.005 9.513C13.005 10.066 12.564 10.5 12 10.5Z" fill="black"/>
<path d="M9.5 6.525C9.5 6.235 9.725 6 10 6C10.275 6 10.5 6.235 10.5 6.525C10.5 6.801 10.724 7.025 11 7.025C11.276 7.025 11.5 6.801 11.5 6.525C11.5 5.685 10.827 5 10 5C9.173 5 8.5 5.685 8.5 6.525C8.5 6.801 8.724 7.025 9 7.025C9.276 7.025 9.5 6.802 9.5 6.525Z" fill="black"/>
<path d="M13.5 6.525C13.5 6.801 13.276 7.025 13 7.025C12.724 7.025 12.5 6.802 12.5 6.525C12.5 5.685 13.173 5 14 5C14.827 5 15.5 5.685 15.5 6.525C15.5 6.801 15.276 7.025 15 7.025C14.724 7.025 14.5 6.801 14.5 6.525C14.5 6.235 14.275 6 14 6C13.725 6 13.5 6.235 13.5 6.525Z" fill="black"/>
<path fill-rule="evenodd" clip-rule="evenodd" d="M12.042 13C15.178 13 17.542 10.69 17.542 7.627C17.542 4.524 15.074 2 12.042 2C9.00999 2 6.54199 4.524 6.54199 7.627C6.54199 10.69 8.90599 13 12.042 13ZM12.042 3C14.523 3 16.542 5.075 16.542 7.627C16.542 10.12 14.607 12 12.042 12C9.47699 12 7.54199 10.12 7.54199 7.627C7.54199 5.075 9.56099 3 12.042 3Z" fill="black"/>
<path fill-rule="evenodd" clip-rule="evenodd" d="M17.438 2.392C16.045 0.872 14.062 0 12 0C9.938 0 7.957 0.872 6.563 2.392C5.17 3.909 4.474 5.959 4.651 8.015L5.525 18.064C5.819 21.448 8.604 24 12 24C15.396 24 18.181 21.448 18.475 18.063L18.985 12.205L18.9853 12.2029C18.9912 12.1666 18.997 12.1313 18.995 12.093L19.349 8.015C19.527 5.96 18.83 3.91 17.438 2.392ZM17.479 17.978C17.471 18.0696 17.452 18.1575 17.4331 18.2455C17.4212 18.3006 17.4092 18.3558 17.4 18.412L10.574 16.079L17.92 12.92L17.479 17.978ZM7.3 3.067C8.505 1.754 10.218 1 12 1C13.783 1 15.496 1.754 16.7 3.067C17.904 4.38 18.507 6.152 18.352 7.928L18.016 11.788L9.163 15.595L6.226 14.591L5.646 7.928C5.494 6.151 6.097 4.38 7.3 3.067ZM12 23C9.126 23 6.771 20.841 6.521 17.978L6.322 15.682L17.148 19.382C16.379 21.513 14.377 23 12 23Z" fill="black"/>
</svg>
