<svg width="24" height="24" viewBox="0 0 24 24" fill="none" xmlns="http://www.w3.org/2000/svg">
<path fill-rule="evenodd" clip-rule="evenodd" d="M12 8.5C11.173 8.5 10.5 7.827 10.5 7C10.5 6.173 11.173 5.5 12 5.5V4H11C10.724 4 10.5 3.776 10.5 3.5C10.5 3.224 10.724 3 11 3H15V0.5C15 0.224 15.224 0 15.5 0C15.776 0 16 0.224 16 0.5V3H20C20.276 3 20.5 3.224 20.5 3.5C20.5 3.776 20.276 4 20 4H19V5.5C19.827 5.5 20.5 6.173 20.5 7C20.5 7.827 19.827 8.5 19 8.5C18.173 8.5 17.5 7.827 17.5 7C17.5 6.559 17.695 6.165 18 5.891V4H16V5.592C16.581 5.799 17 6.349 17 7C17 7.827 16.327 8.5 15.5 8.5C14.673 8.5 14 7.827 14 7C14 6.349 14.419 5.799 15 5.592V4H13V5.891C13.305 6.165 13.5 6.559 13.5 7C13.5 7.827 12.827 8.5 12 8.5ZM15 7C15 7.275 15.225 7.5 15.5 7.5C15.775 7.5 16 7.275 16 7C16 6.725 15.775 6.5 15.5 6.5C15.225 6.5 15 6.725 15 7ZM19 7.5C19.275 7.5 19.5 7.275 19.5 7C19.5 6.725 19.275 6.5 19 6.5C18.725 6.5 18.5 6.725 18.5 7C18.5 7.275 18.725 7.5 19 7.5ZM11.5 7C11.5 7.275 11.725 7.5 12 7.5C12.275 7.5 12.5 7.275 12.5 7C12.5 6.725 12.275 6.5 12 6.5C11.725 6.5 11.5 6.725 11.5 7Z" fill="black"/>
<path fill-rule="evenodd" clip-rule="evenodd" d="M23 7C23 6.724 23.224 6.5 23.5 6.5C23.776 6.5 24 6.724 24 7V23.5C24 23.776 23.776 24 23.5 24C23.224 24 23 23.776 23 23.5V20H1V23.5C1 23.776 0.776 24 0.5 24C0.224 24 0 23.776 0 23.5V7C0 6.724 0.224 6.5 0.5 6.5C0.776 6.5 1 6.724 1 7V11H23V7ZM14 19V12H10V19H14ZM5 19H9V12H5V19ZM19 19V12H15V19H19ZM4 12H1V19H4V12ZM20 12V19H23V12H20Z" fill="black"/>
</svg>
