<svg width="24" height="24" viewBox="0 0 24 24" fill="none" xmlns="http://www.w3.org/2000/svg">
<path d="M22.9921 5C23.2681 5 23.4921 4.776 23.4921 4.5C23.4921 4.224 23.2691 4 22.9921 4H12.5081V0H11.5081V4H1.00806C0.732057 4 0.508057 4.224 0.508057 4.5C0.508057 4.776 0.732057 5 1.00806 5H4.50806V9.551C2.81706 9.796 1.50806 11.241 1.50806 13C1.50806 14.93 3.07806 16.5 5.00806 16.5C6.93806 16.5 8.50806 14.93 8.50806 13C8.50806 11.241 7.19906 9.796 5.50806 9.551V5H11.5081V13.426C9.82106 14.119 8.52906 15.538 8.52906 17.99C8.52906 20.023 9.41406 21.548 11.0871 22.399C12.4041 23.069 13.8691 23.142 14.4391 23.142C14.6281 23.142 14.7371 23.134 14.7371 23.134C14.9541 23.119 15.1361 22.966 15.1881 22.755C15.2411 22.545 15.1521 22.324 14.9671 22.21C13.8321 21.505 13.1131 19.818 13.1341 17.913C13.1551 16.056 13.8681 14.489 14.9931 13.825C15.1811 13.714 15.2751 13.494 15.2251 13.281C15.1761 13.069 14.9941 12.913 14.7761 12.895C14.7761 12.895 14.6421 12.885 14.4131 12.885C13.7751 12.885 13.1301 12.957 12.5091 13.104V5H18.5091V11.831L15.0691 18.265C14.9861 18.419 14.9901 18.607 15.0811 18.757C15.1691 18.908 15.3321 19 15.5081 19H22.5081C22.6841 19 22.8471 18.907 22.9381 18.756C23.0281 18.606 23.0321 18.418 22.9491 18.263L19.5081 11.887V5H22.9921ZM7.50806 13C7.50806 14.379 6.38706 15.5 5.00806 15.5C3.62906 15.5 2.50806 14.379 2.50806 13C2.50806 11.621 3.62906 10.5 5.00806 10.5C6.38706 10.5 7.50806 11.621 7.50806 13ZM12.1341 17.903C12.1151 19.543 12.5661 21.025 13.3591 22.062C11.8061 21.834 9.52906 20.989 9.52906 17.99C9.52906 16.361 10.1901 15.194 11.4951 14.523C12.1221 14.201 12.8061 14.04 13.3731 13.961C12.6061 14.945 12.1521 16.347 12.1341 17.903ZM16.3421 18L18.9941 13.041L21.6701 18H16.3421Z" fill="black"/>
</svg>
