<svg width="24" height="24" viewBox="0 0 24 24" fill="none" xmlns="http://www.w3.org/2000/svg">
<path d="M5.5 0C5.22386 0 5 0.223858 5 0.5V9.5C5 9.77614 5.22386 10 5.5 10C5.77614 10 6 9.77614 6 9.5V1H18V9.5C18 9.77614 18.2239 10 18.5 10C18.7761 10 19 9.77614 19 9.5V0.5C19 0.223858 18.7761 0 18.5 0H5.5Z" fill="black"/>
<path d="M19.5 16.5C19.5 16.2239 19.2761 16 19 16C18.7239 16 18.5 16.2239 18.5 16.5V20.5C18.5 20.7761 18.7239 21 19 21C19.2761 21 19.5 20.7761 19.5 20.5V16.5Z" fill="black"/>
<path d="M17.5 16.5C17.5 16.2239 17.2761 16 17 16C16.7239 16 16.5 16.2239 16.5 16.5V20.5C16.5 20.7761 16.7239 21 17 21C17.2761 21 17.5 20.7761 17.5 20.5V16.5Z" fill="black"/>
<path d="M13.5 16.5C13.5 16.2239 13.2761 16 13 16C12.7239 16 12.5 16.2239 12.5 16.5V20.5C12.5 20.7761 12.7239 21 13 21C13.2761 21 13.5 20.7761 13.5 20.5V16.5Z" fill="black"/>
<path d="M11.5 16.5C11.5 16.2239 11.2761 16 11 16C10.7239 16 10.5 16.2239 10.5 16.5V20.5C10.5 20.7761 10.7239 21 11 21C11.2761 21 11.5 20.7761 11.5 20.5V16.5Z" fill="black"/>
<path d="M7.5 16.5C7.5 16.2239 7.27614 16 7 16C6.72386 16 6.5 16.2239 6.5 16.5V20.5C6.5 20.7761 6.72386 21 7 21C7.27614 21 7.5 20.7761 7.5 20.5V16.5Z" fill="black"/>
<path d="M5.5 16.5C5.5 16.2239 5.27614 16 5 16C4.72386 16 4.5 16.2239 4.5 16.5V20.5C4.5 20.7761 4.72386 21 5 21C5.27614 21 5.5 20.7761 5.5 20.5V16.5Z" fill="black"/>
<path fill-rule="evenodd" clip-rule="evenodd" d="M0 12.5C0 13.1531 0.417404 13.7087 1 13.9146V23H0.5C0.223858 23 0 23.2239 0 23.5C0 23.7761 0.223858 24 0.5 24H23.5C23.7761 24 24 23.7761 24 23.5C24 23.2239 23.7761 23 23.5 23H23V13.9146C23.5826 13.7087 24 13.1531 24 12.5C24 11.6716 23.3284 11 22.5 11H1.5C0.671573 11 0 11.6716 0 12.5ZM22 23H2V14H22V23ZM22.5 12H1.5C1.22386 12 1 12.2239 1 12.5C1 12.7761 1.22386 13 1.5 13H22.5C22.7761 13 23 12.7761 23 12.5C23 12.2239 22.7761 12 22.5 12Z" fill="black"/>
<path d="M8.85355 2.85355C9.04882 2.65829 9.04882 2.34171 8.85355 2.14645C8.65829 1.95118 8.34171 1.95118 8.14645 2.14645L7.14645 3.14645C6.95118 3.34171 6.95118 3.65829 7.14645 3.85355C7.34171 4.04882 7.65829 4.04882 7.85355 3.85355L8.85355 2.85355Z" fill="black"/>
<path d="M11.8536 2.14645C12.0488 2.34171 12.0488 2.65829 11.8536 2.85355L7.85355 6.85355C7.65829 7.04882 7.34171 7.04882 7.14645 6.85355C6.95118 6.65829 6.95118 6.34171 7.14645 6.14645L11.1464 2.14645C11.3417 1.95118 11.6583 1.95118 11.8536 2.14645Z" fill="black"/>
</svg>
