<svg width="24" height="24" viewBox="0 0 24 24" fill="none" xmlns="http://www.w3.org/2000/svg">
<path d="M5.5 0C5.22386 0 5 0.223858 5 0.5V10.5C5 10.7761 5.22386 11 5.5 11C5.77614 11 6 10.7761 6 10.5V1H18V10.5C18 10.7761 18.2239 11 18.5 11C18.7761 11 19 10.7761 19 10.5V0.5C19 0.223858 18.7761 0 18.5 0H5.5Z" fill="black"/>
<path fill-rule="evenodd" clip-rule="evenodd" d="M24 12.5C24 12.2239 23.7761 12 23.5 12H0.5C0.223858 12 0 12.2239 0 12.5C0 12.7761 0.223858 13 0.5 13H1.34541L0.0176181 17.8686C-0.00587269 17.9547 -0.00587269 18.0456 0.0176181 18.1317L1.34534 23H0.5C0.223858 23 0 23.2239 0 23.5C0 23.7761 0.223858 24 0.5 24H1.98393C1.9944 24.0003 2.00493 24.0003 2.01548 24H4.98629C4.99501 24.0002 5.00377 24.0002 5.01257 24H8.49141C8.49674 24.0001 8.50207 24.0001 8.50743 24H15.4926C15.498 24.0001 15.5033 24.0001 15.5086 24H18.9874C18.9962 24.0002 19.005 24.0002 19.0137 24H21.9845C21.9951 24.0003 22.0056 24.0003 22.0161 24H23.5C23.7761 24 24 23.7761 24 23.5C24 23.2239 23.7761 23 23.5 23H22.6547L23.9824 18.1317C24.0059 18.0456 24.0059 17.9547 23.9824 17.8686L22.6546 13H23.5C23.7761 13 24 12.7761 24 12.5ZM21.6181 23L22.9817 18.0001L21.6181 13H19.5991L20.4919 17.9106C20.5027 17.9698 20.5027 18.0304 20.4919 18.0895L19.5991 23H21.6181ZM18.5827 23L19.4918 18.0001L18.5827 13H16.0475L16.498 17.9548C16.5007 17.9849 16.5007 18.0152 16.498 18.0453L16.0476 23H18.5827ZM15.0434 23L15.498 18L15.0434 13H12.5V23H15.0434ZM11.5 23V13H8.95661L8.50206 18L8.9566 23H11.5ZM7.95248 23L7.50205 18.0453C7.49932 18.0152 7.49932 17.9849 7.50205 17.9548L7.95249 13H5.4173L4.5082 18.0001L5.41727 23H7.95248ZM4.40088 23L3.50806 18.0895C3.49731 18.0304 3.49731 17.9698 3.50806 17.9106L4.40091 13H2.38193L1.01826 18.0001L2.38186 23H4.40088Z" fill="black"/>
<path d="M8.85355 2.85355C9.04882 2.65829 9.04882 2.34171 8.85355 2.14645C8.65829 1.95118 8.34171 1.95118 8.14645 2.14645L7.14645 3.14645C6.95118 3.34171 6.95118 3.65829 7.14645 3.85355C7.34171 4.04882 7.65829 4.04882 7.85355 3.85355L8.85355 2.85355Z" fill="black"/>
<path d="M11.8536 2.14645C12.0488 2.34171 12.0488 2.65829 11.8536 2.85355L7.85355 6.85355C7.65829 7.04882 7.34171 7.04882 7.14645 6.85355C6.95118 6.65829 6.95118 6.34171 7.14645 6.14645L11.1464 2.14645C11.3417 1.95118 11.6583 1.95118 11.8536 2.14645Z" fill="black"/>
</svg>
