<svg width="24" height="24" viewBox="0 0 24 24" fill="none" xmlns="http://www.w3.org/2000/svg">
<path d="M5 0.5C5 0.223858 5.22386 0 5.5 0H18.5C18.7761 0 19 0.223858 19 0.5V9.5C19 9.77614 18.7761 10 18.5 10C18.2239 10 18 9.77614 18 9.5V1H6V9.5C6 9.77614 5.77614 10 5.5 10C5.22386 10 5 9.77614 5 9.5V0.5Z" fill="black"/>
<path fill-rule="evenodd" clip-rule="evenodd" d="M6 16C5.17157 16 4.5 16.6716 4.5 17.5V19.5C4.5 20.3284 5.17157 21 6 21C6.82843 21 7.5 20.3284 7.5 19.5V17.5C7.5 16.6716 6.82843 16 6 16ZM5.5 17.5C5.5 17.2239 5.72386 17 6 17C6.27614 17 6.5 17.2239 6.5 17.5V19.5C6.5 19.7761 6.27614 20 6 20C5.72386 20 5.5 19.7761 5.5 19.5V17.5Z" fill="black"/>
<path fill-rule="evenodd" clip-rule="evenodd" d="M10.5 17.5C10.5 16.6716 11.1716 16 12 16C12.8284 16 13.5 16.6716 13.5 17.5V19.5C13.5 20.3284 12.8284 21 12 21C11.1716 21 10.5 20.3284 10.5 19.5V17.5ZM12 17C11.7239 17 11.5 17.2239 11.5 17.5V19.5C11.5 19.7761 11.7239 20 12 20C12.2761 20 12.5 19.7761 12.5 19.5V17.5C12.5 17.2239 12.2761 17 12 17Z" fill="black"/>
<path fill-rule="evenodd" clip-rule="evenodd" d="M18 16C17.1716 16 16.5 16.6716 16.5 17.5V19.5C16.5 20.3284 17.1716 21 18 21C18.8284 21 19.5 20.3284 19.5 19.5V17.5C19.5 16.6716 18.8284 16 18 16ZM17.5 17.5C17.5 17.2239 17.7239 17 18 17C18.2761 17 18.5 17.2239 18.5 17.5V19.5C18.5 19.7761 18.2761 20 18 20C17.7239 20 17.5 19.7761 17.5 19.5V17.5Z" fill="black"/>
<path fill-rule="evenodd" clip-rule="evenodd" d="M0.5 24C0.223858 24 0 23.7761 0 23.5C0 23.2239 0.223858 23 0.5 23H1V13.9146C0.417404 13.7087 0 13.1531 0 12.5C0 11.6716 0.671573 11 1.5 11H22.5C23.3284 11 24 11.6716 24 12.5C24 13.1531 23.5826 13.7087 23 13.9146V23H23.5C23.7761 23 24 23.2239 24 23.5C24 23.7761 23.7761 24 23.5 24H0.5ZM22 23V14H2V23H22ZM22.5 12H1.5C1.22386 12 1 12.2239 1 12.5C1 12.7761 1.22386 13 1.5 13H22.5C22.7761 13 23 12.7761 23 12.5C23 12.2239 22.7761 12 22.5 12Z" fill="black"/>
<path d="M8.85355 2.85355C9.04882 2.65829 9.04882 2.34171 8.85355 2.14645C8.65829 1.95118 8.34171 1.95118 8.14645 2.14645L7.14645 3.14645C6.95118 3.34171 6.95118 3.65829 7.14645 3.85355C7.34171 4.04882 7.65829 4.04882 7.85355 3.85355L8.85355 2.85355Z" fill="black"/>
<path d="M11.8536 2.85355C12.0488 2.65829 12.0488 2.34171 11.8536 2.14645C11.6583 1.95118 11.3417 1.95118 11.1464 2.14645L7.14645 6.14645C6.95118 6.34171 6.95118 6.65829 7.14645 6.85355C7.34171 7.04882 7.65829 7.04882 7.85355 6.85355L11.8536 2.85355Z" fill="black"/>
</svg>
