<svg width="24" height="24" viewBox="0 0 24 24" fill="none" xmlns="http://www.w3.org/2000/svg">
<path d="M5 0.5C5 0.223858 5.22386 0 5.5 0H18.5C18.7761 0 19 0.223858 19 0.5V10.5C19 10.7761 18.7761 11 18.5 11C18.2239 11 18 10.7761 18 10.5V1H6V10.5C6 10.7761 5.77614 11 5.5 11C5.22386 11 5 10.7761 5 10.5V0.5Z" fill="black"/>
<path fill-rule="evenodd" clip-rule="evenodd" d="M0 12.5C0 12.2239 0.223858 12 0.5 12H23.5C23.7761 12 24 12.2239 24 12.5C24 12.7761 23.7761 13 23.5 13H23V23H23.5C23.7761 23 24 23.2239 24 23.5C24 23.7761 23.7761 24 23.5 24H0.5C0.223858 24 0 23.7761 0 23.5C0 23.2239 0.223858 23 0.5 23H1L1.00004 13H0.5C0.223858 13 0 12.7761 0 12.5ZM2 23H4V13H2.00004L2 23ZM7 23V13H5V23H7ZM8 23H10V13H8V23ZM11 23H13V13H11V23ZM14 23H16V13H14V23ZM19 23V13H17V23H19ZM20 23H22V13H20V23Z" fill="black"/>
<path d="M8.85355 2.85355C9.04882 2.65829 9.04882 2.34171 8.85355 2.14645C8.65829 1.95118 8.34171 1.95118 8.14645 2.14645L7.14645 3.14645C6.95118 3.34171 6.95118 3.65829 7.14645 3.85355C7.34171 4.04882 7.65829 4.04882 7.85355 3.85355L8.85355 2.85355Z" fill="black"/>
<path d="M11.8536 2.85355C12.0488 2.65829 12.0488 2.34171 11.8536 2.14645C11.6583 1.95118 11.3417 1.95118 11.1464 2.14645L7.14645 6.14645C6.95118 6.34171 6.95118 6.65829 7.14645 6.85355C7.34171 7.04882 7.65829 7.04882 7.85355 6.85355L11.8536 2.85355Z" fill="black"/>
</svg>
