<svg width="24" height="24" viewBox="0 0 24 24" fill="none" xmlns="http://www.w3.org/2000/svg">
<g clip-path="url(#clip0_339_13484)">
<path d="M12 0.00300026C5.383 0.00300026 0 5.386 0 12.003C0 18.62 5.383 24.003 12 24.003C18.617 24.003 24 18.62 24 12.003C24 5.386 18.616 0.00300026 12 0.00300026ZM9.682 22.752C8.178 22.428 6.793 21.792 5.586 20.921C10.025 20.836 14.155 18.251 16.137 14.235C16.977 14.802 17.729 15.485 18.384 16.257C16.828 19.805 13.534 22.276 9.682 22.752ZM12.396 11.588C12.012 10.481 11.819 9.35 11.792 8.225C16.32 7.801 20.751 10.267 22.74 14.354C22.414 15.846 21.781 17.222 20.915 18.421C19.347 14.938 16.173 12.375 12.396 11.588ZM11.808 7.22C11.878 6.205 12.096 5.209 12.449 4.25C16.221 3.798 19.978 5.328 22.346 8.303C22.762 9.461 23 10.703 23 12.003C23 12.245 22.979 12.482 22.963 12.721C20.583 9.016 16.245 6.842 11.808 7.22ZM20.839 5.483C18.562 3.818 15.74 3.01 12.883 3.214C13.226 2.515 13.648 1.847 14.145 1.216C16.877 1.759 19.24 3.321 20.839 5.483ZM13.029 1.055C10.765 4.207 10.17 8.158 11.436 11.864C10.645 12.731 9.752 13.441 8.788 14.003C6.288 10.161 6.445 5.048 9.226 1.372C10.114 1.139 11.04 1.003 12 1.003C12.347 1.003 12.689 1.023 13.029 1.055ZM7.688 1.885C5.408 5.746 5.467 10.666 7.901 14.471C6.988 14.893 6.022 15.177 5.019 15.328C2.789 12.166 2.373 8.07 3.956 4.525C4.998 3.404 6.262 2.495 7.688 1.885ZM2.14 7.156C1.693 10.017 2.318 12.963 3.907 15.447C3.121 15.484 2.32 15.437 1.509 15.307C1.179 14.264 1 13.154 1 12.003C1 10.262 1.417 8.621 2.14 7.156ZM1.912 16.377C2.407 16.436 2.899 16.475 3.385 16.475C6.734 16.475 9.831 15.101 12.158 12.557C13.264 12.784 14.309 13.184 15.275 13.717C13.293 17.814 8.884 20.311 4.331 19.874C3.313 18.883 2.487 17.697 1.912 16.377ZM12.847 22.96C15.544 21.865 17.756 19.797 19.066 17.136C19.525 17.805 19.91 18.528 20.213 19.294C18.374 21.364 15.771 22.735 12.847 22.96Z" fill="black"/>
</g>
<defs>
<clipPath id="clip0_339_13484">
<rect width="24" height="24" fill="white"/>
</clipPath>
</defs>
</svg>
