<svg width="24" height="24" viewBox="0 0 24 24" fill="none" xmlns="http://www.w3.org/2000/svg">
<path d="M14.473 8.11214C14.668 7.91715 14.985 7.91715 15.18 8.11214C15.375 8.30715 15.375 8.62415 15.184 8.81915L14.477 9.52614L15.184 10.2321C15.379 10.4271 15.379 10.7441 15.184 10.9391C15.086 11.0361 14.958 11.0851 14.83 11.0851C14.702 11.0851 14.574 11.0371 14.476 10.9391L13.769 10.2331L12.355 11.6471L13.062 12.3541C13.257 12.5491 13.257 12.8661 13.062 13.0611C12.964 13.1581 12.836 13.2071 12.708 13.2071C12.58 13.2071 12.452 13.1591 12.354 13.0611L11.647 12.3541L10.232 13.7681L10.939 14.4751C11.134 14.6701 11.134 14.9871 10.939 15.1821C10.841 15.2791 10.713 15.3281 10.585 15.3281C10.457 15.3281 10.329 15.2801 10.231 15.1821L9.52401 14.4751L8.81701 15.1821C8.71901 15.2791 8.59101 15.3281 8.46301 15.3281C8.33501 15.3281 8.20701 15.2801 8.10901 15.1821C7.91401 14.9871 7.91401 14.6701 8.10901 14.4751L8.81601 13.7681L8.10901 13.0611C7.91401 12.8661 7.91401 12.5491 8.10901 12.3541C8.30401 12.1591 8.62101 12.1591 8.81601 12.3541L9.52301 13.0611L10.938 11.6471L10.23 10.9391C10.035 10.7441 10.035 10.4271 10.23 10.2321C10.425 10.0371 10.742 10.0371 10.937 10.2321L11.645 10.9401L13.059 9.52614L12.351 8.81915C12.156 8.62415 12.156 8.30715 12.351 8.11214C12.546 7.91715 12.863 7.91715 13.058 8.11214L13.766 8.81915L14.473 8.11214Z" fill="black"/>
<path fill-rule="evenodd" clip-rule="evenodd" d="M20.791 1.86014C21.502 1.93114 22.069 2.49714 22.137 3.20714C22.408 5.95814 21.584 13.0201 17.316 17.2881C13.453 21.1521 7.24401 22.1821 4.18401 22.1821C3.80801 22.1821 3.47701 22.1661 3.20301 22.1401C2.49401 22.0701 1.92801 21.5051 1.85801 20.7931C1.60001 18.1511 2.46201 10.9291 6.70901 6.68214C11.033 2.35914 18.287 1.61214 20.791 1.86014ZM20.692 2.85614C20.441 2.83114 20.137 2.81714 19.79 2.81714C18.664 2.81714 17.089 2.96514 15.372 3.35414L20.643 8.62415C21.147 6.41315 21.251 4.42314 21.141 3.30314C21.118 3.06714 20.929 2.87914 20.692 2.85614ZM2.85301 20.6961C2.87601 20.9331 3.06401 21.1221 3.30001 21.1441C4.18201 21.2301 5.68901 21.1811 7.44101 20.8781L3.11801 16.5551C2.81801 18.2811 2.76401 19.7811 2.85301 20.6961ZM8.61601 20.6411C11.326 20.0231 14.39 18.8011 16.609 16.5821C18.503 14.6881 19.67 12.1551 20.353 9.74814L14.247 3.64414C11.853 4.32214 9.32101 5.48414 7.41501 7.39014C5.20901 9.59614 3.97801 12.6571 3.35501 15.3791L8.61601 20.6411Z" fill="black"/>
</svg>
