<svg width="24" height="24" viewBox="0 0 24 24" fill="none" xmlns="http://www.w3.org/2000/svg">
<g clip-path="url(#clip0_316_14096)">
<path d="M12 0.00300026C5.383 0.00300026 0 5.386 0 12.003C0 18.62 5.383 24.003 12 24.003C18.617 24.003 24 18.62 24 12.003C24 5.386 18.616 0.00300026 12 0.00300026ZM21.5 17.521L17.302 18.488L15.738 16.742L17.482 11.357L20.169 9.914L22.944 13.107C22.783 14.705 22.271 16.197 21.5 17.521ZM6.725 18.49L2.496 17.515C1.73 16.202 1.221 14.722 1.058 13.137L3.866 9.905L6.49 11.187L8.29 16.742L6.725 18.49ZM3.224 9.119L1.017 11.66C1.084 9.487 1.775 7.471 2.93 5.791L3.224 9.119ZM9.218 16.362L7.487 11.021L12.012 7.723L16.538 11.021L14.809 16.362H9.218ZM20.8 9.116L21.092 5.821C22.228 7.486 22.907 9.48 22.981 11.625L20.8 9.116ZM20.188 4.684L19.81 8.971L17.285 10.328L12.513 6.85V3.587L16.399 1.928C17.855 2.566 19.142 3.515 20.188 4.684ZM15.011 1.433L12.012 2.713L9.005 1.428C9.958 1.157 10.96 1.003 12 1.003C13.045 1.003 14.053 1.158 15.011 1.433ZM7.613 1.921L11.512 3.587V6.85L6.848 10.25L4.214 8.962L3.834 4.658C4.879 3.497 6.162 2.555 7.613 1.921ZM3.317 18.731L6.581 19.483L8.292 22.345C6.307 21.633 4.588 20.368 3.317 18.731ZM9.703 22.758L7.519 19.104L9.078 17.363H14.949L16.508 19.102L14.332 22.748C13.579 22.912 12.8 23.003 12 23.003C11.212 23.003 10.444 22.916 9.703 22.758ZM15.744 22.332L17.446 19.481L20.678 18.736C19.416 20.36 17.711 21.617 15.744 22.332Z" fill="black"/>
</g>
<defs>
<clipPath id="clip0_316_14096">
<rect width="24" height="24" fill="white"/>
</clipPath>
</defs>
</svg>
