<svg width="24" height="24" viewBox="0 0 24 24" fill="none" xmlns="http://www.w3.org/2000/svg">
<g clip-path="url(#clip0_339_13494)">
<path d="M12.01 -0.0579996C5.39301 -0.0579996 0.0100098 5.325 0.0100098 11.942C0.0100098 18.559 5.39301 23.942 12.01 23.942C18.627 23.942 24.01 18.559 24.01 11.942C24.01 5.325 18.627 -0.0579996 12.01 -0.0579996ZM20.304 4.738C21.76 6.412 22.724 8.522 22.955 10.849C19.878 9.309 16.735 9.82 14.382 11.259C13.574 10.266 12.705 9.391 11.81 8.609C14.033 6.871 16.819 5.447 20.304 4.738ZM19.495 3.904C16.038 4.705 13.255 6.175 11.03 7.951C10.375 7.43 9.71201 6.954 9.05101 6.527C10.291 4.965 10.977 3.028 10.995 0.994C11.33 0.963 11.667 0.942 12.01 0.942C14.902 0.942 17.529 2.072 19.495 3.904ZM7.49901 6.754C7.46501 6.787 7.43601 6.822 7.40001 6.854C5.76901 8.34 3.62301 9.065 1.44501 8.911C1.87401 7.418 2.60501 6.053 3.57701 4.892C4.74901 5.336 6.09701 5.94 7.49901 6.754ZM4.30901 4.102C5.83901 2.599 7.80401 1.544 9.99501 1.136C9.94601 2.932 9.31201 4.635 8.19401 6.003C6.82001 5.191 5.48901 4.567 4.30901 4.102ZM1.21001 9.887C1.48001 9.911 1.74901 9.944 2.01801 9.944C4.24501 9.944 6.40001 9.119 8.07401 7.594C8.18201 7.496 8.27601 7.387 8.37901 7.283C8.99701 7.678 9.61801 8.122 10.232 8.603C6.42501 11.956 4.40301 16.125 3.42001 18.794C1.91601 16.912 1.01001 14.532 1.01001 11.941C1.01001 11.239 1.08301 10.554 1.21001 9.887ZM4.17901 19.654C5.05001 17.115 7.03001 12.714 11.022 9.255C11.903 10.013 12.757 10.865 13.552 11.835C13.252 12.066 12.965 12.309 12.702 12.567C9.81901 15.41 9.16201 19.379 10.917 22.886C8.29001 22.627 5.93501 21.438 4.17901 19.654ZM13.404 13.279C13.633 13.052 13.888 12.834 14.157 12.625C15.841 14.902 17.183 17.737 17.814 21.269C16.147 22.311 14.189 22.924 12.085 22.939C9.80501 19.033 11.349 15.307 13.404 13.279ZM18.707 20.648C18.017 17.166 16.669 14.339 14.988 12.057C17.099 10.783 20.012 10.262 23.007 12.019C22.981 15.532 21.299 18.65 18.707 20.648Z" fill="black"/>
</g>
<defs>
<clipPath id="clip0_339_13494">
<rect width="24" height="24" fill="white"/>
</clipPath>
</defs>
</svg>
