<svg width="24" height="24" viewBox="0 0 24 24" fill="none" xmlns="http://www.w3.org/2000/svg">
<path d="M22.3879 9.66827L19.3139 9.00627L18.5479 5.81927C18.5039 5.63627 18.3609 5.49427 18.1779 5.45027L14.9909 4.68327L14.3289 1.61027C14.2759 1.36327 14.0429 1.20627 13.7929 1.21727L9.5959 1.61627C9.4059 1.63527 9.2439 1.75927 9.1759 1.93727L4.2859 14.7623L2.9479 16.1013L2.2409 16.8083C0.876896 18.1723 0.876896 20.3933 2.2409 21.7583C2.9019 22.4193 3.7809 22.7833 4.7149 22.7833C5.6499 22.7833 6.5289 22.4193 7.1899 21.7583L7.8969 21.0523L9.2359 19.7133L22.0629 14.8223C22.2409 14.7553 22.3649 14.5923 22.3819 14.4023L22.7799 10.2043C22.8039 9.95227 22.6359 9.72227 22.3879 9.66827ZM18.3389 9.22527L7.5919 17.2103L6.7879 16.4063L14.7739 5.66027L17.6479 6.35127L18.3389 9.22527ZM9.9999 2.58327L13.4469 2.25627L14.0339 4.98127L6.07389 15.6923L5.29789 14.9173L9.9999 2.58327ZM6.4829 21.0513C5.5389 21.9963 3.8929 21.9963 2.9479 21.0513C1.9729 20.0753 1.9729 18.4893 2.9479 17.5153L3.3019 17.1613L5.0699 18.9303L6.8379 20.6993L6.4829 21.0513ZM7.5439 19.9913L5.7759 18.2233L4.0079 16.4543L4.7159 15.7473L8.2509 19.2833L7.5439 19.9913ZM21.4159 13.9993L9.08289 18.7013L8.30689 17.9253L19.0179 9.96627L21.7439 10.5533L21.4159 13.9993Z" fill="black"/>
</svg>
