<svg width="24" height="24" viewBox="0 0 24 24" fill="none" xmlns="http://www.w3.org/2000/svg">
<path d="M11 13.5C11 13.224 10.776 13 10.5 13H8.5C8.224 13 8 13.224 8 13.5C8 13.776 8.224 14 8.5 14H10.5C10.776 14 11 13.776 11 13.5Z" fill="black"/>
<path fill-rule="evenodd" clip-rule="evenodd" d="M21 6.5C21 9.371 18.786 11.733 15.976 11.976C15.809 14.269 14.451 16.234 12.515 17.253L12.633 20.014C13.673 20.083 14.5 20.943 14.5 22C14.5 23.103 13.603 24 12.5 24C11.397 24 10.5 23.103 10.5 22C10.5 21.207 10.968 20.526 11.639 20.203L11.63 20H7.04L6.494 23.575C6.456 23.823 6.243 24 6.001 24C5.976 24 5.95 23.998 5.925 23.993C5.652 23.951 5.464 23.696 5.506 23.424L6.451 17.236C4.4 16.143 3 13.982 3 11.5C3 11.224 3.224 11 3.5 11H15V0.5C15 0.224 15.224 0 15.5 0C15.776 0 16 0.224 16 0.5V1.025C18.799 1.279 21 3.637 21 6.5ZM16 10.973C18.247 10.723 20 8.812 20 6.5C20 4.188 18.247 2.277 16 2.027V10.973ZM14.977 12H4.022C4.275 14.8 6.636 17 9.5 17C10.299 17 11.05 16.814 11.735 16.508C11.766 16.488 11.796 16.472 11.831 16.459C13.552 15.646 14.798 13.982 14.977 12ZM12.5 23C13.052 23 13.5 22.552 13.5 22C13.5 21.448 13.052 21 12.5 21C11.948 21 11.5 21.448 11.5 22C11.5 22.552 11.948 23 12.5 23ZM7.193 19H11.588L11.531 17.67C10.892 17.882 10.21 18 9.5 18C8.765 18 8.06 17.871 7.4 17.645L7.193 19Z" fill="black"/>
<path d="M4.5 10H13.5C13.776 10 14 9.776 14 9.5C14 9.224 13.776 9 13.5 9H4.5C4.224 9 4 9.224 4 9.5C4 9.776 4.224 10 4.5 10Z" fill="black"/>
</svg>
