<svg width="24" height="24" viewBox="0 0 24 24" fill="none" xmlns="http://www.w3.org/2000/svg">
<g clip-path="url(#clip0_316_14114)">
<path fill-rule="evenodd" clip-rule="evenodd" d="M12 11.5C10.622 11.5 9.5 10.379 9.5 9C9.5 7.621 10.622 6.5 12 6.5C13.378 6.5 14.5 7.621 14.5 9C14.5 10.379 13.378 11.5 12 11.5ZM12 10.5C12.827 10.5 13.5 9.827 13.5 9C13.5 8.173 12.827 7.5 12 7.5C11.173 7.5 10.5 8.173 10.5 9C10.5 9.827 11.173 10.5 12 10.5Z" fill="black"/>
<path fill-rule="evenodd" clip-rule="evenodd" d="M23.725 12.946C23.556 13.032 23.354 13.013 23.202 12.901L22 12.011V23H23.5C23.776 23 24 23.224 24 23.5C24 23.776 23.776 24 23.5 24H0.5C0.223 24 0 23.776 0 23.5C0 23.224 0.223 23 0.5 23H2V12.016L0.797 12.902C0.709 12.967 0.605 13 0.5 13C0.422 13 0.345 12.982 0.274 12.946C0.106 12.861 0 12.688 0 12.5V9C0 8.842 0.075 8.692 0.202 8.598L11.702 0.0980001C11.879 -0.0329999 12.12 -0.0329999 12.297 0.0980001L23.797 8.598C23.925 8.692 24 8.842 24 9V12.5C24 12.688 23.893 12.861 23.725 12.946ZM12 1.122L1 9.252V11.51L2.121 10.682C2.174 10.619 2.24 10.566 2.32 10.536L11.733 3.598C11.91 3.466 12.151 3.468 12.328 3.599L21.694 10.539C21.763 10.568 21.82 10.614 21.869 10.668L23 11.507V9.252L12 1.122ZM7 22.369L11.256 18.5L7 14.631V22.369ZM16.206 23L12 19.176L7.793 23H16.206ZM17 14.631L12.743 18.5L17 22.369V14.631ZM7.793 14L12 17.824L16.206 14H7.793ZM18 23H21V11.27L12.029 4.622L3 11.278V23H6V13.5C6 13.224 6.223 13 6.5 13H17.5C17.776 13 18 13.224 18 13.5V23Z" fill="black"/>
</g>
<defs>
<clipPath id="clip0_316_14114">
<rect width="24" height="24" fill="white"/>
</clipPath>
</defs>
</svg>
