<svg width="24" height="24" viewBox="0 0 24 24" fill="none" xmlns="http://www.w3.org/2000/svg">
<path d="M10.965 4C10.965 4.737 9.932 5 8.965 5C7.998 5 6.965 4.737 6.965 4C6.965 3.263 7.998 3 8.965 3C9.932 3 10.965 3.263 10.965 4Z" fill="black"/>
<path fill-rule="evenodd" clip-rule="evenodd" d="M19.956 3.901C22.267 12.927 20.037 19.865 19.94 20.157C19.901 20.295 18.764 24 11.965 24C5.166 24 4.029 20.295 3.985 20.138C3.956 20.045 3.712 19.221 3.474 17.852C3.4726 17.8469 3.46883 17.8398 3.46509 17.8328C3.46079 17.8248 3.45653 17.8168 3.456 17.812C3.4536 17.7982 3.45444 17.7851 3.45528 17.7721C3.45584 17.7634 3.4564 17.7548 3.456 17.746C2.978 14.931 2.546 9.882 3.975 3.903C4.075 1.707 7.544 0 11.965 0C16.385 0 19.854 1.706 19.956 3.901ZM4.45 17.563C4.82 18.023 6.723 20 11.965 20C15.802 20 18.788 18.729 19.529 17.48C19.602 17.061 19.674 16.6 19.738 16.086C18.163 17.254 15.268 18 11.965 18C8.719 18 5.837 17.266 4.245 16.122C4.307 16.657 4.378 17.133 4.45 17.563ZM19.319 5.6C18.107 7.024 15.307 8 11.965 8C8.639 8 5.852 7.033 4.63 5.62C4.515 6.219 4.417 6.808 4.338 7.384C5.224 8.671 8.403 10 11.965 10C15.606 10 18.793 8.676 19.638 7.392C19.551 6.808 19.445 6.209 19.319 5.6ZM11.965 17C16.323 17 19.304 15.693 19.896 14.465L19.898 14.462C19.956 13.673 19.988 12.818 19.982 11.9C18.407 13.162 15.356 14 11.965 14C8.652 14 5.611 13.149 4.016 11.871C4.008 12.842 4.042 13.743 4.101 14.568C4.8 15.757 7.757 17 11.965 17ZM11.965 13C16.09 13 19.201 11.741 19.942 10.487C19.912 9.905 19.867 9.308 19.802 8.689C18.236 10.041 15.125 11 11.965 11C8.862 11 5.767 10.035 4.185 8.68C4.124 9.295 4.081 9.89 4.054 10.469C4.868 11.732 7.975 13 11.965 13ZM18.965 4C18.965 2.581 16.09 1 11.965 1C7.84 1 4.965 2.581 4.965 4C4.965 5.419 7.84 7 11.965 7C16.09 7 18.965 5.419 18.965 4ZM4.943 19.853C4.984 19.987 5.973 23 11.965 23C17.957 23 18.946 19.987 18.985 19.858C18.99 19.844 19.063 19.611 19.165 19.211C17.554 20.296 14.865 21 11.965 21C8.265 21 6.021 20.06 4.773 19.194C4.87 19.606 4.939 19.841 4.943 19.853Z" fill="black"/>
</svg>
