<svg width="24" height="24" viewBox="0 0 24 24" fill="none" xmlns="http://www.w3.org/2000/svg">
<path fill-rule="evenodd" clip-rule="evenodd" d="M19.8991 0.37C20.8851 0.37 21.8111 0.754 22.5061 1.45C23.2471 2.19 23.6381 3.216 23.5801 4.261C23.5221 5.309 23.0201 6.285 22.2031 6.939L8.92306 17.947L5.38706 21.487C5.48106 21.686 5.53606 21.901 5.53606 22.128C5.53606 22.53 5.38006 22.908 5.09706 23.192C4.81306 23.475 4.43606 23.63 4.03606 23.63C3.63506 23.63 3.25806 23.474 2.97506 23.191L0.853063 21.069C0.570063 20.786 0.414062 20.41 0.414062 20.008C0.414062 19.606 0.569063 19.23 0.852062 18.947C1.29406 18.503 1.98906 18.418 2.54506 18.668L6.15706 15.056L17.0031 1.771C17.7011 0.883 18.7591 0.37 19.8991 0.37ZM3.32706 19.301L4.74306 20.717L5.80406 19.655L4.38806 18.239L3.32706 19.301ZM6.15506 16.469L5.09506 17.531L6.51106 18.947L7.57206 17.885L6.15506 16.469ZM3.68106 22.483C3.87006 22.672 4.20006 22.672 4.38906 22.484C4.48306 22.39 4.53506 22.264 4.53606 22.129C4.53506 21.995 4.48406 21.87 4.39006 21.777L2.26706 19.654C2.17206 19.559 2.04706 19.507 1.91406 19.507C1.78006 19.507 1.65406 19.56 1.56006 19.654C1.46606 19.749 1.41406 19.874 1.41406 20.008C1.41406 20.142 1.46506 20.267 1.55906 20.361L3.68106 22.483ZM8.28106 17.182L21.5721 6.164C22.1741 5.682 22.5391 4.971 22.5821 4.207C22.6241 3.445 22.3391 2.698 21.7991 2.158C20.7061 1.063 18.7411 1.18 17.7831 2.398L6.89806 15.726L6.86106 15.762L8.28106 17.182Z" fill="black"/>
<path fill-rule="evenodd" clip-rule="evenodd" d="M15.2501 17.87C15.2501 16.216 16.5961 14.87 18.2501 14.87C19.9041 14.87 21.2501 16.216 21.2501 17.87C21.2501 19.524 19.9041 20.87 18.2501 20.87C16.5961 20.87 15.2501 19.524 15.2501 17.87ZM16.2501 17.87C16.2501 18.973 17.1471 19.87 18.2501 19.87C19.3531 19.87 20.2501 18.973 20.2501 17.87C20.2501 16.767 19.3531 15.87 18.2501 15.87C17.1471 15.87 16.2501 16.767 16.2501 17.87Z" fill="black"/>
</svg>
