<svg width="24" height="24" viewBox="0 0 24 24" fill="none" xmlns="http://www.w3.org/2000/svg">
<path fill-rule="evenodd" clip-rule="evenodd" d="M22 14H23.5C23.776 14 24 14.224 24 14.5C24 19.738 19.738 24 14.5 24H9.5C4.262 24 0 19.738 0 14.5C0 14.224 0.224 14 0.5 14H6V13.5C6 12.673 6.673 12 7.5 12H12.5C13.327 12 14 12.673 14 13.5V14H21V2.954C21 2.24 20.542 1.779 20.112 1.587C19.558 1.338 18.956 1.43 18.504 1.833L17.942 2.397C18.725 3.516 18.623 5.07 17.625 6.068L17.066 6.627C16.972 6.72 16.845 6.773 16.712 6.773C16.579 6.773 16.452 6.721 16.358 6.627L13.006 3.274C12.811 3.079 12.811 2.762 13.006 2.567L13.565 2.008C14.529 1.045 16.127 0.943 17.232 1.693L17.817 1.106C18.583 0.423 19.609 0.266 20.521 0.675C21.434 1.084 22 1.957 22 2.954V14ZM16.712 5.565L16.917 5.36C17.646 4.631 17.646 3.444 16.917 2.715C16.21 2.008 14.979 2.008 14.272 2.715L14.067 2.92L16.712 5.565ZM7.5 13C7.224 13 7 13.224 7 13.5V19H13V13.5C13 13.224 12.776 13 12.5 13H7.5ZM9.5 23H14.5C19.019 23 22.726 19.455 22.985 15H14V19.5C14 19.776 13.776 20 13.5 20H6.5C6.224 20 6 19.776 6 19.5V15H1.015C1.274 19.455 4.981 23 9.5 23Z" fill="black"/>
<path d="M9.80099 4.873C9.73299 4.904 9.66199 4.919 9.59199 4.919C9.40299 4.919 9.22199 4.812 9.13699 4.629C9.02199 4.378 9.13199 4.081 9.38199 3.965L11.198 3.126C11.45 3.011 11.746 3.121 11.862 3.371C11.977 3.622 11.867 3.919 11.617 4.035L9.80099 4.873Z" fill="black"/>
<path d="M15.107 10.42C15.301 10.42 15.486 10.307 15.567 10.116L16.353 8.276C16.461 8.022 16.343 7.728 16.089 7.62C15.837 7.512 15.541 7.63 15.433 7.884L14.647 9.724C14.539 9.978 14.657 10.272 14.911 10.38C14.975 10.407 15.041 10.42 15.107 10.42Z" fill="black"/>
<path d="M11.789 8.203C11.661 8.203 11.532 8.154 11.434 8.055C11.239 7.858 11.241 7.542 11.438 7.347L12.86 5.941C13.057 5.748 13.373 5.748 13.567 5.945C13.761 6.141 13.759 6.458 13.563 6.652L12.141 8.058C12.043 8.155 11.916 8.203 11.789 8.203Z" fill="black"/>
</svg>
