<svg width="24" height="24" viewBox="0 0 24 24" fill="none" xmlns="http://www.w3.org/2000/svg">
<path d="M4.5 9C4.77614 9 5 9.22386 5 9.5V14.5C5 14.7761 4.77614 15 4.5 15C4.22386 15 4 14.7761 4 14.5V9.5C4 9.22386 4.22386 9 4.5 9Z" fill="black"/>
<path d="M9 9.5C9 9.22386 8.77614 9 8.5 9C8.22386 9 8 9.22386 8 9.5V14.5C8 14.7761 8.22386 15 8.5 15C8.77614 15 9 14.7761 9 14.5V9.5Z" fill="black"/>
<path d="M13 9.5C13 9.22386 12.7761 9 12.5 9C12.2239 9 12 9.22386 12 9.5V14.5C12 14.7761 12.2239 15 12.5 15C12.7761 15 13 14.7761 13 14.5V9.5Z" fill="black"/>
<path d="M17 9.5C17 9.22386 16.7761 9 16.5 9C16.2239 9 16 9.22386 16 9.5V14.5C16 14.7761 16.2239 15 16.5 15C16.7761 15 17 14.7761 17 14.5V9.5Z" fill="black"/>
<path fill-rule="evenodd" clip-rule="evenodd" d="M21 9H23.5C23.776 9 24 9.224 24 9.5V14.5C24 14.776 23.776 15 23.5 15H21V17.5C21 17.776 20.776 18 20.5 18H0.5C0.224 18 0 17.776 0 17.5V6.5C0 6.224 0.224 6 0.5 6H20.5C20.776 6 21 6.224 21 6.5V9ZM21 14H23V10H21V14ZM20 7H1V17H20V7Z" fill="black"/>
</svg>
