<svg width="24" height="24" viewBox="0 0 24 24" fill="none" xmlns="http://www.w3.org/2000/svg">
<path d="M9.5 16H1V6H9.5C9.776 6 10 5.776 10 5.5C10 5.224 9.776 5 9.5 5H0.5C0.224 5 0 5.224 0 5.5V16.5C0 16.776 0.224 17 0.5 17H9.5C9.776 17 10 16.776 10 16.5C10 16.224 9.776 16 9.5 16Z" fill="black"/>
<path fill-rule="evenodd" clip-rule="evenodd" d="M23.5 8H21V5.5C21 5.224 20.776 5 20.5 5H15.5C15.224 5 15 5.224 15 5.5C15 5.776 15.224 6 15.5 6H20V16H15.5C15.224 16 15 16.224 15 16.5C15 16.776 15.224 17 15.5 17H20.5C20.776 17 21 16.776 21 16.5V14H23.5C23.776 14 24 13.776 24 13.5V8.5C24 8.224 23.776 8 23.5 8ZM21 13H23V9H21V13Z" fill="black"/>
<path fill-rule="evenodd" clip-rule="evenodd" d="M16 12.5V8.5C16 8.224 15.776 8 15.5 8H14V6.542C14 6.266 13.776 6.042 13.5 6.042C13.224 6.042 13 6.266 13 6.542V8H12V6.542C12 6.266 11.776 6.042 11.5 6.042C11.224 6.042 11 6.266 11 6.542V8H9.5C9.224 8 9 8.224 9 8.5V12.5C9 13.879 10.122 15 11.5 15H12V21.5C12 21.776 12.224 22 12.5 22C12.776 22 13 21.776 13 21.5V15H13.5C14.878 15 16 13.879 16 12.5ZM10 12.5V9H15V12.5C15 13.327 14.327 14 13.5 14H11.5C10.673 14 10 13.327 10 12.5Z" fill="black"/>
</svg>
