<svg width="24" height="24" viewBox="0 0 24 24" fill="none" xmlns="http://www.w3.org/2000/svg">
<path fill-rule="evenodd" clip-rule="evenodd" d="M15.5 10C15.676 10 15.838 10.092 15.929 10.243C16.019 10.394 16.024 10.58 15.941 10.735L11.941 18.235C11.853 18.401 11.682 18.5 11.5 18.5C11.46 18.5 11.419 18.495 11.379 18.485C11.156 18.43 11 18.229 11 18V14H8.49999C8.32399 14 8.16199 13.908 8.07199 13.757C7.98099 13.607 7.97599 13.42 8.05899 13.265L12.059 5.765C12.166 5.563 12.4 5.461 12.621 5.515C12.844 5.57 13 5.771 13 6V10H15.5ZM12 13.5V16L14.667 11H12.5C12.224 11 12 10.776 12 10.5V8L9.33299 13H11.5C11.776 13 12 13.224 12 13.5Z" fill="black"/>
<path d="M9 17H1V7H8.5C8.776 7 9 6.776 9 6.5C9 6.224 8.776 6 8.5 6H0.5C0.224 6 0 6.224 0 6.5V17.5C0 17.776 0.224 18 0.5 18H9C9.276 18 9.5 17.776 9.5 17.5C9.5 17.224 9.276 17 9 17Z" fill="black"/>
<path fill-rule="evenodd" clip-rule="evenodd" d="M21 9H23.5C23.776 9 24 9.224 24 9.5V14.5C24 14.776 23.776 15 23.5 15H21V17.5C21 17.776 20.776 18 20.5 18H15.5C15.224 18 15 17.776 15 17.5C15 17.224 15.224 17 15.5 17H20V7H15C14.724 7 14.5 6.776 14.5 6.5C14.5 6.224 14.724 6 15 6H20.5C20.776 6 21 6.224 21 6.5V9ZM21 10V14H23V10H21Z" fill="black"/>
</svg>
