<svg width="24" height="24" viewBox="0 0 24 24" fill="none" xmlns="http://www.w3.org/2000/svg">
<path fill-rule="evenodd" clip-rule="evenodd" d="M5.15404 13.0991C5.03304 13.0471 4.93704 12.9482 4.88804 12.8253L4.51904 11.8949C3.77504 10.0171 4.12604 8.06439 5.53604 6.24658C6.71604 4.72557 8.63404 3.36346 10.96 2.37011L10.771 1.89342C10.67 1.63758 10.795 1.34677 11.052 1.24484C11.307 1.14291 11.6 1.26882 11.702 1.52666L11.893 2.00934C13.672 1.35777 15.43 1 16.999 1C20.038 1 22.209 2.25418 23.112 4.5317L23.48 5.46109C23.582 5.71692 23.456 6.00574 23.2 6.10867L20.877 7.02907C20.753 7.07804 20.617 7.07604 20.494 7.02307L19.655 6.66131L19.292 7.49976C19.239 7.62068 19.141 7.71662 19.017 7.76559L14.833 9.42351L17.833 16.9886H23.5C23.776 16.9886 24 17.2124 24 17.4882C24 17.7641 23.776 17.9879 23.5 17.9879H17.582C17.5726 17.9897 17.5631 17.9921 17.5535 17.9946C17.5356 17.9992 17.5176 18.0039 17.5 18.0039C17.4906 18.0039 17.4826 18.0002 17.4749 17.9965C17.4687 17.9936 17.4627 17.9908 17.456 17.9899C15.255 17.9989 13.159 18.6965 11.844 19.8607C11.748 19.9446 11.63 19.9866 11.512 19.9866C11.374 19.9866 11.237 19.9297 11.138 19.8187C10.954 19.6119 10.973 19.2971 11.18 19.1132C12.554 17.896 14.562 17.1525 16.77 17.0166L13.904 9.79127L9.72104 11.4482C9.59804 11.4972 9.46004 11.4942 9.33804 11.4422L8.49904 11.0784L8.13604 11.9169C8.08404 12.0388 7.98504 12.1347 7.86204 12.1837L5.53804 13.1051C5.47804 13.1281 5.41504 13.1401 5.35304 13.1401C5.28504 13.1401 5.21704 13.1261 5.15404 13.0991ZM11.789 3.10363C9.41604 4.04302 7.47604 5.37715 6.32704 6.85918C5.50304 7.92049 4.68204 9.5934 5.44904 11.5271L5.63304 11.9928L7.30004 11.3323L7.77904 10.224C7.83204 10.1021 7.93104 10.0061 8.05404 9.95716C8.17704 9.90819 8.31504 9.91019 8.43604 9.96316L9.54404 10.4428L18.456 6.91214L18.935 5.80587C19.044 5.55203 19.339 5.43711 19.592 5.54604L20.7 6.02472L22.367 5.36415L22.183 4.89946C21.441 3.02868 19.6 1.99935 16.999 1.99935C15.415 1.99935 13.614 2.3801 11.789 3.10363Z" fill="black"/>
<path d="M22 21.5016C22 22.3461 22.806 23.0007 23.5 23.0007C23.776 23.0007 24 23.2245 24 23.5003C24 23.7761 23.776 24 23.5 24C22.703 24 21.964 23.5823 21.5 22.9607C21.036 23.5823 20.297 24 19.5 24C18.703 24 17.964 23.5823 17.5 22.9607C17.036 23.5823 16.297 24 15.5 24C14.703 24 13.964 23.5823 13.5 22.9607C13.036 23.5823 12.297 24 11.5 24C10.703 24 9.96404 23.5823 9.50004 22.9607C9.03604 23.5823 8.29704 24 7.50004 24C6.70304 24 5.96404 23.5823 5.50004 22.9607C5.03604 23.5823 4.29704 24 3.50004 24C2.69004 24 1.94104 23.5683 1.47704 22.9307C1.28804 23.1705 1.05304 23.3894 0.777036 23.5733C0.548036 23.7272 0.237036 23.6652 0.0840358 23.4354C-0.0699642 23.2065 -0.00696419 22.8957 0.222036 22.7438C0.598036 22.492 1.00004 22.0333 1.00004 21.5016C1.00004 21.2258 1.22404 21.002 1.50004 21.002C1.77604 21.002 2.00004 21.2258 2.00004 21.5016C2.00004 22.3461 2.80604 23.0007 3.50004 23.0007C4.19404 23.0007 5.00004 22.3461 5.00004 21.5016C5.00004 21.2258 5.22404 21.002 5.50004 21.002C5.77604 21.002 6.00004 21.2258 6.00004 21.5016C6.00004 22.3461 6.80604 23.0007 7.50004 23.0007C8.19404 23.0007 9.00004 22.3461 9.00004 21.5016C9.00004 21.2258 9.22404 21.002 9.50004 21.002C9.77604 21.002 10 21.2258 10 21.5016C10 22.3461 10.806 23.0007 11.5 23.0007C12.194 23.0007 13 22.3461 13 21.5016C13 21.2258 13.224 21.002 13.5 21.002C13.776 21.002 14 21.2258 14 21.5016C14 22.3461 14.806 23.0007 15.5 23.0007C16.194 23.0007 17 22.3461 17 21.5016C17 21.2258 17.224 21.002 17.5 21.002C17.776 21.002 18 21.2258 18 21.5016C18 22.3461 18.806 23.0007 19.5 23.0007C20.194 23.0007 21 22.3461 21 21.5016C21 21.2258 21.224 21.002 21.5 21.002C21.776 21.002 22 21.2258 22 21.5016Z" fill="black"/>
</svg>
