<svg width="24" height="24" viewBox="0 0 24 24" fill="none" xmlns="http://www.w3.org/2000/svg">
<path fill-rule="evenodd" clip-rule="evenodd" d="M22 20H23.5C23.7761 20 24 19.7761 24 19.5V13.5C24 12.2905 23.1411 11.2816 22 11.05V3.5C22 2.67157 21.3284 2 20.5 2H3.5C2.67157 2 2 2.67157 2 3.5V11.05C0.85888 11.2816 0 12.2905 0 13.5V19.5C0 19.7761 0.223858 20 0.5 20H2V22.5C2 22.7761 2.22386 23 2.5 23C2.77614 23 3 22.7761 3 22.5V20H21V22.5C21 22.7761 21.2239 23 21.5 23C21.7761 23 22 22.7761 22 22.5V20ZM3 3.5C3 3.22386 3.22386 3 3.5 3H20.5C20.7761 3 21 3.22386 21 3.5V11H19V7.5C19 6.67157 18.3284 6 17.5 6H14.5C13.6716 6 13 6.67157 13 7.5V11H11V7.5C11 6.67157 10.3284 6 9.5 6H6.5C5.67157 6 5 6.67157 5 7.5V11H3V3.5ZM6 11V7.5C6 7.22386 6.22386 7 6.5 7H9.5C9.77614 7 10 7.22386 10 7.5V11H6ZM2.5 12C1.67157 12 1 12.6716 1 13.5V19H23V13.5C23 12.6716 22.3284 12 21.5 12H2.5ZM14 11H18V7.5C18 7.22386 17.7761 7 17.5 7H14.5C14.2239 7 14 7.22386 14 7.5V11Z" fill="black"/>
</svg>
