<svg width="24" height="24" viewBox="0 0 24 24" fill="none" xmlns="http://www.w3.org/2000/svg">
<path d="M15 2.5C15 2.77614 15.2239 3 15.5 3H18.2929L15.1464 6.14645C15.0034 6.28945 14.9607 6.5045 15.0381 6.69134C15.1155 6.87818 15.2978 7 15.5 7H19.5C19.7761 7 20 6.77614 20 6.5C20 6.22386 19.7761 6 19.5 6H16.7071L19.8536 2.85355C19.9966 2.71055 20.0393 2.4955 19.9619 2.30866C19.8845 2.12182 19.7022 2 19.5 2H15.5C15.2239 2 15 2.22386 15 2.5Z" fill="black"/>
<path d="M9 6.5C9 6.77614 9.22386 7 9.5 7H11.2929L9.14645 9.14645C9.00345 9.28944 8.96067 9.5045 9.03806 9.69134C9.11545 9.87818 9.29777 10 9.5 10H12.5C12.7761 10 13 9.77614 13 9.5C13 9.22386 12.7761 9 12.5 9H10.7071L12.8536 6.85355C12.9966 6.71055 13.0393 6.4955 12.9619 6.30866C12.8845 6.12182 12.7022 6 12.5 6H9.5C9.22386 6 9 6.22386 9 6.5Z" fill="black"/>
<path fill-rule="evenodd" clip-rule="evenodd" d="M0.5 9C0.776142 9 1 9.22386 1 9.5V17H7V12.5C7 12.3566 7.06158 12.2201 7.1691 12.1252C7.27661 12.0302 7.41971 11.9861 7.56202 12.0039L21.8101 13.7849C23.0612 13.9413 24 15.0048 24 16.2656V20.5C24 20.7761 23.7761 21 23.5 21H23V23.5C23 23.7761 22.7761 24 22.5 24C22.2239 24 22 23.7761 22 23.5V21H7.5C7.22386 21 7 20.7761 7 20.5V20H1V23.5C1 23.7761 0.776142 24 0.5 24C0.223858 24 0 23.7761 0 23.5V9.5C0 9.22386 0.223858 9 0.5 9ZM1 19V18H7V19H1ZM23 20H8V13.0664L21.6861 14.7771C22.4367 14.871 23 15.5091 23 16.2656V20Z" fill="black"/>
<path fill-rule="evenodd" clip-rule="evenodd" d="M6 14C6 15.1046 5.10457 16 4 16C2.89543 16 2 15.1046 2 14C2 12.8954 2.89543 12 4 12C5.10457 12 6 12.8954 6 14ZM5 14C5 14.5523 4.55228 15 4 15C3.44772 15 3 14.5523 3 14C3 13.4477 3.44772 13 4 13C4.55228 13 5 13.4477 5 14Z" fill="black"/>
</svg>
