<svg width="24" height="24" viewBox="0 0 24 24" fill="none" xmlns="http://www.w3.org/2000/svg">
<path fill-rule="evenodd" clip-rule="evenodd" d="M21 20H22.5C22.7761 20 23 19.7761 23 19.5V13.5C23 12.2905 22.1411 11.2816 21 11.05V3.5C21 2.67157 20.3284 2 19.5 2H4.5C3.67157 2 3 2.67157 3 3.5V11.05C1.85888 11.2816 1 12.2905 1 13.5V19.5C1 19.7761 1.22386 20 1.5 20H3V22.5C3 22.7761 3.22386 23 3.5 23C3.77614 23 4 22.7761 4 22.5V20H20V22.5C20 22.7761 20.2239 23 20.5 23C20.7761 23 21 22.7761 21 22.5V20ZM4 3.5C4 3.22386 4.22386 3 4.5 3H19.5C19.7761 3 20 3.22386 20 3.5V11H16V7.5C16 6.67157 15.3284 6 14.5 6H9.5C8.67157 6 8 6.67157 8 7.5V11H4V3.5ZM9 11V7.5C9 7.22386 9.22386 7 9.5 7H14.5C14.7761 7 15 7.22386 15 7.5V11H9ZM3.5 12C2.67157 12 2 12.6716 2 13.5V19H22V13.5C22 12.6716 21.3284 12 20.5 12H3.5Z" fill="black"/>
</svg>
