<svg width="24" height="24" viewBox="0 0 24 24" fill="none" xmlns="http://www.w3.org/2000/svg">
<path d="M9.50201 8.5C9.50201 8.77614 9.27815 9 9.00201 9C8.72587 9 8.50201 8.77614 8.50201 8.5C8.50201 8.22386 8.72587 8 9.00201 8C9.27815 8 9.50201 8.22386 9.50201 8.5Z" fill="black"/>
<path d="M13.502 10C13.7782 10 14.002 9.77614 14.002 9.5C14.002 9.22386 13.7782 9 13.502 9C13.2259 9 13.002 9.22386 13.002 9.5C13.002 9.77614 13.2259 10 13.502 10Z" fill="black"/>
<path d="M11.502 12C11.7782 12 12.002 11.7761 12.002 11.5C12.002 11.2239 11.7782 11 11.502 11C11.2259 11 11.002 11.2239 11.002 11.5C11.002 11.7761 11.2259 12 11.502 12Z" fill="black"/>
<path d="M11.002 15.5C11.2782 15.5 11.502 15.2761 11.502 15C11.502 14.7239 11.2782 14.5 11.002 14.5C10.7259 14.5 10.502 14.7239 10.502 15C10.502 15.2761 10.7259 15.5 11.002 15.5Z" fill="black"/>
<path fill-rule="evenodd" clip-rule="evenodd" d="M5.89301 0H16.502C18.432 0 20.002 1.57 20.002 3.5V8.5C20.002 9.327 19.329 10 18.502 10C17.696 10 17.042 9.36 17.007 8.563C16.687 9.485 16.283 10.471 15.769 11.693C14.836 13.917 15.03 19.052 15.487 20.879C15.497 20.918 15.502 20.959 15.502 21V21.016C15.812 21.432 16.002 21.942 16.002 22.5V23.5C16.002 23.776 15.778 24 15.502 24H7.50201C7.22601 24 7.00201 23.776 7.00201 23.5V22.5C7.00201 21.943 7.19201 21.432 7.50201 21.016V21C7.50201 20.923 7.52001 20.846 7.55401 20.777C8.47101 18.942 8.15201 13.877 7.23501 11.694C5.91401 8.55 5.20601 6.721 5.04701 3.77C4.36701 3.415 4.00601 2.693 4.00001 1.971C3.99201 1.007 4.64001 0.021 5.89301 0ZM14.0826 5.10026C14.0714 5.06742 14.0602 5.03479 14.053 5C14.02 4.838 14.002 4.671 14.002 4.5C14.002 4.331 14.02 4.164 14.054 4H6.05801C6.10701 4.72 6.19801 5.371 6.32601 6H14.516C14.504 5.98422 14.4909 5.96914 14.4779 5.95409C14.4595 5.93291 14.4412 5.91181 14.426 5.889C14.3913 5.83695 14.3629 5.78104 14.3343 5.72496C14.3218 5.70024 14.3092 5.67548 14.296 5.651C14.2852 5.63068 14.2737 5.61079 14.2623 5.59094C14.2388 5.55023 14.2155 5.5097 14.198 5.466C14.1637 5.38651 14.1406 5.30141 14.1176 5.21657C14.1131 5.20002 14.1086 5.18348 14.104 5.167C14.0976 5.14419 14.0901 5.12218 14.0826 5.10026ZM8.00201 23H15.002V22.501C15.002 22.127 14.86 21.788 14.632 21.525C14.6308 21.5232 14.6277 21.521 14.6277 21.521L14.625 21.519C14.338 21.188 13.928 21 13.502 21H9.50201C9.39601 21 9.29101 21.012 9.19101 21.033C9.18358 21.0349 9.1768 21.0374 9.17016 21.0398C9.16251 21.0426 9.15505 21.0454 9.14701 21.047C9.05901 21.069 8.97301 21.095 8.89101 21.133L8.88674 21.1356C8.88407 21.1374 8.88125 21.1394 8.87801 21.14C8.69101 21.227 8.52201 21.355 8.37801 21.519C8.37701 21.521 8.37401 21.521 8.37401 21.521C8.14601 21.785 8.00201 22.125 8.00201 22.5V23ZM14.333 20.145C13.988 17.766 13.928 13.495 14.848 11.307C15.591 9.538 16.105 8.276 16.451 7H6.56201C6.91601 8.305 7.44101 9.604 8.15701 11.307C9.03101 13.387 9.40101 17.583 8.83101 20.095C8.84027 20.0923 8.84983 20.0913 8.85936 20.0904C8.86732 20.0896 8.87527 20.0888 8.88301 20.087C9.08201 20.036 9.28701 20 9.50201 20H13.502C13.657 20 13.811 20.018 13.961 20.047C14.014 20.057 14.0651 20.0722 14.1159 20.0874C14.1313 20.092 14.1467 20.0966 14.162 20.101C14.1821 20.1063 14.2023 20.1108 14.2225 20.1154C14.2596 20.1237 14.2967 20.132 14.333 20.145ZM18.502 9C18.777 9 19.002 8.776 19.002 8.5V3.5C19.002 2.122 17.881 1 16.502 1H5.95001C5.23201 1.011 4.99601 1.526 5.00001 1.963C5.00301 2.348 5.21801 3 6.00201 3H14.779C14.958 3 15.124 3.096 15.213 3.251C15.302 3.406 15.302 3.597 15.211 3.752C15.072 3.99 15.002 4.242 15.002 4.5C15.002 5.327 15.675 6 16.502 6C16.641 6 16.784 5.974 16.953 5.916H16.957C17.057 5.883 17.155 5.847 17.25 5.791C17.328 5.745 17.415 5.723 17.502 5.723C17.588 5.723 17.674 5.745 17.751 5.789C17.906 5.879 18.002 6.044 18.002 6.223V8.5C18.002 8.776 18.227 9 18.502 9Z" fill="black"/>
</svg>
