<svg width="24" height="24" viewBox="0 0 24 24" fill="none" xmlns="http://www.w3.org/2000/svg">
<path d="M14.45 13.002C14.176 13.029 13.974 13.274 14.003 13.549L14.503 18.549C14.528 18.807 14.746 18.999 14.999 18.999C15.016 18.999 15.033 18.998 15.05 18.997C15.324 18.97 15.526 18.725 15.497 18.449L14.997 13.449C14.97 13.175 14.716 12.976 14.45 13.002Z" fill="black"/>
<path d="M11 13.5C11 13.224 11.224 13 11.5 13C11.776 13 12 13.224 12 13.5V18.5C12 18.776 11.776 19 11.5 19C11.224 19 11 18.776 11 18.5V13.5Z" fill="black"/>
<path fill-rule="evenodd" clip-rule="evenodd" d="M4.5 11.5C4.5 12.096 4.68 12.648 4.979 13.115L4.062 20H4C2.897 20 2 20.896 2 22C2 23.103 2.897 24 4 24H19C20.103 24 21 23.103 21 22C21 20.896 20.103 20 19 20H18.95L18.846 19H20.644C21.943 19 23 17.878 23 16.5V13.5C23 12.127 21.887 11.011 20.516 11.002C21.982 10.259 23 8.754 23 7C23 4.519 20.981 2.5 18.5 2.5C17.856 2.5 17.222 2.64 16.637 2.909C15.553 1.102 13.629 0 11.5 0C9.37 0 7.446 1.102 6.363 2.908C5.778 2.64 5.144 2.5 4.5 2.5C2.019 2.5 0 4.519 0 7C0 9.481 2.019 11.5 4.5 11.5ZM20 22C20 22.551 19.552 23 19 23H4C3.448 23 3 22.551 3 22C3 21.449 3.448 21 4 21H19C19.552 21 20 21.449 20 22ZM5.071 20L5.87 14.012C6.34 14.318 6.898 14.5 7.5 14.5C7.652 14.5 7.8 14.481 7.946 14.459L7.503 18.445C7.473 18.719 7.67 18.967 7.944 18.997C7.964 18.999 7.982 19 8.001 19C8.252 19 8.469 18.811 8.497 18.555L8.992 14.096C9.778 13.642 10.344 12.847 10.471 11.91C12.315 12.233 14.207 11.657 15.564 10.405C15.998 10.78 16.5 11.058 17.036 11.244L17.945 20H5.071ZM22 13.5V16.5C22 17.327 21.392 18 20.645 18H18.744L18.12 12H20.5C21.327 12 22 12.673 22 13.5ZM4.5 3.5C5.134 3.5 5.759 3.676 6.307 4.009C6.427 4.082 6.574 4.102 6.707 4.061C6.842 4.022 6.953 3.928 7.016 3.802C7.864 2.073 9.582 1 11.5 1C13.417 1 15.135 2.074 15.985 3.802C16.047 3.928 16.159 4.022 16.293 4.061C16.431 4.102 16.573 4.082 16.693 4.009C17.241 3.676 17.866 3.5 18.5 3.5C20.43 3.5 22 5.07 22 7C22 8.93 20.43 10.5 18.5 10.5C17.512 10.5 16.598 10.097 15.926 9.365C15.831 9.261 15.697 9.203 15.558 9.203C15.418 9.203 15.284 9.263 15.189 9.366C13.926 10.747 11.955 11.327 10.117 10.803C9.961 10.757 9.789 10.793 9.662 10.897C9.535 11.001 9.468 11.162 9.481 11.325C9.481 11.3322 9.49316 11.4348 9.49854 11.4801L9.501 11.501C9.501 12.604 8.604 13.501 7.501 13.501C6.398 13.501 5.501 12.604 5.501 11.501C5.501 11.362 5.518 11.222 5.553 11.07C5.59 10.91 5.545 10.742 5.435 10.621C5.339 10.517 5.206 10.458 5.066 10.458C5.044 10.458 5.021 10.459 4.999 10.463C4.833 10.484 4.668 10.5 4.5 10.5C2.57 10.5 1 8.93 1 7C1 5.07 2.57 3.5 4.5 3.5Z" fill="black"/>
</svg>
