<svg width="24" height="24" viewBox="0 0 24 24" fill="none" xmlns="http://www.w3.org/2000/svg">
<path d="M7.62532 0.984805C7.893 0.916985 8.05502 0.645004 7.9872 0.37732C7.91938 0.109635 7.6474 -0.052387 7.37972 0.015434C4.53705 0.735659 2.30157 2.89046 1.51887 5.66835C1.44398 5.93415 1.59873 6.21032 1.86453 6.28521C2.13032 6.3601 2.4065 6.20535 2.48139 5.93955C3.16659 3.50771 5.12738 1.61769 7.62532 0.984805Z" fill="black"/>
<path d="M16.6201 0.0154327L16.531 0.00116958C16.2945 -0.0150744 16.0729 0.139383 16.0126 0.377325C15.9448 0.64501 16.1068 0.916989 16.3745 0.984798C18.873 1.61778 20.834 3.50842 21.5189 5.94087C21.5937 6.20668 21.8698 6.36149 22.1356 6.28665C22.4015 6.21182 22.5563 5.93567 22.4814 5.66986C21.6991 2.89126 19.4633 0.735769 16.6201 0.0154327Z" fill="black"/>
<path d="M10.5001 21.5C10.5001 21.2239 10.2763 21 10.0001 21C9.72398 21 9.50012 21.2239 9.50012 21.5C9.50012 22.8807 10.6194 24 12.0001 24C13.3808 24 14.5001 22.8807 14.5001 21.5C14.5001 21.2239 14.2763 21 14.0001 21C13.724 21 13.5001 21.2239 13.5001 21.5C13.5001 22.3284 12.8285 23 12.0001 23C11.1717 23 10.5001 22.3284 10.5001 21.5Z" fill="black"/>
<path fill-rule="evenodd" clip-rule="evenodd" d="M10 2C10 0.895431 10.8954 2.64322e-10 12 2.64322e-10C13.1046 2.64322e-10 14 0.895431 14 2V2.25216C17.4504 3.14042 20 6.27194 20 10L20.0001 14.2929L21.8537 16.1464C21.9474 16.2402 22.0001 16.3674 22.0001 16.5V19.5C22.0001 19.7761 21.7763 20 21.5001 20H2.50012C2.22398 20 2.00012 19.7761 2.00012 19.5V16.5C2.00012 16.3674 2.0528 16.2402 2.14657 16.1464L4.00012 14.2929L4 10C4 6.27195 6.54959 3.14042 10 2.25216V2ZM5 10C5 6.61404 7.40454 3.78857 10.5995 3.14003C10.8325 3.09273 11 2.88783 11 2.65003V2C11 1.44772 11.4477 1 12 1C12.5523 1 13 1.44772 13 2V2.65003C13 2.88783 13.1675 3.09273 13.4005 3.14003C16.5955 3.78857 19 6.61404 19 10L19.0001 14.5C19.0001 14.6326 19.0528 14.7598 19.1466 14.8536L21.0001 16.7071V19H3.00012V16.7071L4.85368 14.8536C4.94744 14.7598 5.00012 14.6326 5.00012 14.5L5 10Z" fill="black"/>
</svg>
