<svg width="24" height="24" viewBox="0 0 24 24" fill="none" xmlns="http://www.w3.org/2000/svg">
<path d="M23.5 15H20V14H21C22.103 14 23 13.103 23 12C23 10.897 22.103 10 21 10H20V9H21C22.103 9 23 8.103 23 7C23 5.897 22.103 5 21 5H3C1.897 5 1 5.897 1 7C1 8.103 1.897 9 3 9H4V10H3C1.897 10 1 10.897 1 12C1 13.103 1.897 14 3 14H4V15H0.5C0.224 15 0 15.224 0 15.5V18.5C0 18.776 0.224 19 0.5 19H2V23.5C2 23.776 2.224 24 2.5 24C2.776 24 3 23.776 3 23.5V22H21V23.5C21 23.776 21.224 24 21.5 24C21.776 24 22 23.776 22 23.5V19H23.5C23.776 19 24 18.776 24 18.5V15.5C24 15.224 23.776 15 23.5 15ZM2 7C2 6.449 2.448 6 3 6H21C21.552 6 22 6.449 22 7C22 7.551 21.552 8 21 8H3C2.448 8 2 7.551 2 7ZM5 9H19V10H5V9ZM2 12C2 11.449 2.448 11 3 11H21C21.552 11 22 11.449 22 12C22 12.551 21.552 13 21 13H3C2.448 13 2 12.551 2 12ZM5 14H19V15H5V14ZM21 21H3V19H21V21ZM23 18H1V16H23V18Z" fill="black"/>
</svg>
