<svg width="24" height="24" viewBox="0 0 24 24" fill="none" xmlns="http://www.w3.org/2000/svg">
<path d="M9.5 7C9.224 7 9 7.224 9 7.5V19.5C9 19.776 9.224 20 9.5 20C9.776 20 10 19.776 10 19.5V7.5C10 7.224 9.776 7 9.5 7Z" fill="black"/>
<path d="M14 7.5C14 7.224 14.224 7 14.5 7C14.776 7 15 7.224 15 7.5V19.5C15 19.776 14.776 20 14.5 20C14.224 20 14 19.776 14 19.5V7.5Z" fill="black"/>
<path fill-rule="evenodd" clip-rule="evenodd" d="M23 3H17V0.5C17 0.224 16.776 0 16.5 0H7.5C7.224 0 7 0.224 7 0.5V3H1C0.724 3 0.5 3.224 0.5 3.5C0.5 3.776 0.724 4 1 4H3V23.5C3 23.776 3.224 24 3.5 24H20.5C20.776 24 21 23.776 21 23.5V4H23C23.276 4 23.5 3.776 23.5 3.5C23.5 3.224 23.276 3 23 3ZM8 1H16V3H8V1ZM20 23H4V4H20V23Z" fill="black"/>
</svg>
