<svg width="24" height="24" viewBox="0 0 24 24" fill="none" xmlns="http://www.w3.org/2000/svg">
<path d="M2.5 3.5C2.5 3.22386 2.72386 3 3 3H5.5C5.77614 3 6 3.22386 6 3.5C6 3.77614 5.77614 4 5.5 4H3C2.72386 4 2.5 3.77614 2.5 3.5Z" fill="black"/>
<path d="M2.5 5.5C2.5 5.22386 2.72386 5 3 5H5.5C5.77614 5 6 5.22386 6 5.5C6 5.77614 5.77614 6 5.5 6H3C2.72386 6 2.5 5.77614 2.5 5.5Z" fill="black"/>
<path d="M3 7C2.72386 7 2.5 7.22386 2.5 7.5C2.5 7.77614 2.72386 8 3 8H5.5C5.77614 8 6 7.77614 6 7.5C6 7.22386 5.77614 7 5.5 7H3Z" fill="black"/>
<path fill-rule="evenodd" clip-rule="evenodd" d="M2.5 19.25C2.5 18.2835 3.2835 17.5 4.25 17.5C5.2165 17.5 6 18.2835 6 19.25C6 20.2165 5.2165 21 4.25 21C3.2835 21 2.5 20.2165 2.5 19.25ZM4.25 18.5C3.83579 18.5 3.5 18.8358 3.5 19.25C3.5 19.6642 3.83579 20 4.25 20C4.66421 20 5 19.6642 5 19.25C5 18.8358 4.66421 18.5 4.25 18.5Z" fill="black"/>
<path d="M10.25 3.5C10.25 3.22386 10.4739 3 10.75 3H13.25C13.5261 3 13.75 3.22386 13.75 3.5C13.75 3.77614 13.5261 4 13.25 4H10.75C10.4739 4 10.25 3.77614 10.25 3.5Z" fill="black"/>
<path d="M10.75 5C10.4739 5 10.25 5.22386 10.25 5.5C10.25 5.77614 10.4739 6 10.75 6H13.25C13.5261 6 13.75 5.77614 13.75 5.5C13.75 5.22386 13.5261 5 13.25 5H10.75Z" fill="black"/>
<path d="M10.25 7.5C10.25 7.22386 10.4739 7 10.75 7H13.25C13.5261 7 13.75 7.22386 13.75 7.5C13.75 7.77614 13.5261 8 13.25 8H10.75C10.4739 8 10.25 7.77614 10.25 7.5Z" fill="black"/>
<path fill-rule="evenodd" clip-rule="evenodd" d="M12 17.5C11.0335 17.5 10.25 18.2835 10.25 19.25C10.25 20.2165 11.0335 21 12 21C12.9665 21 13.75 20.2165 13.75 19.25C13.75 18.2835 12.9665 17.5 12 17.5ZM11.25 19.25C11.25 18.8358 11.5858 18.5 12 18.5C12.4142 18.5 12.75 18.8358 12.75 19.25C12.75 19.6642 12.4142 20 12 20C11.5858 20 11.25 19.6642 11.25 19.25Z" fill="black"/>
<path d="M18.5 3C18.2239 3 18 3.22386 18 3.5C18 3.77614 18.2239 4 18.5 4H21C21.2761 4 21.5 3.77614 21.5 3.5C21.5 3.22386 21.2761 3 21 3H18.5Z" fill="black"/>
<path d="M18 5.5C18 5.22386 18.2239 5 18.5 5H21C21.2761 5 21.5 5.22386 21.5 5.5C21.5 5.77614 21.2761 6 21 6H18.5C18.2239 6 18 5.77614 18 5.5Z" fill="black"/>
<path d="M18.5 7C18.2239 7 18 7.22386 18 7.5C18 7.77614 18.2239 8 18.5 8H21C21.2761 8 21.5 7.77614 21.5 7.5C21.5 7.22386 21.2761 7 21 7H18.5Z" fill="black"/>
<path fill-rule="evenodd" clip-rule="evenodd" d="M19.75 17.5C18.7835 17.5 18 18.2835 18 19.25C18 20.2165 18.7835 21 19.75 21C20.7165 21 21.5 20.2165 21.5 19.25C21.5 18.2835 20.7165 17.5 19.75 17.5ZM19 19.25C19 18.8358 19.3358 18.5 19.75 18.5C20.1642 18.5 20.5 18.8358 20.5 19.25C20.5 19.6642 20.1642 20 19.75 20C19.3358 20 19 19.6642 19 19.25Z" fill="black"/>
<path fill-rule="evenodd" clip-rule="evenodd" d="M0.5 0C0.223858 0 0 0.223858 0 0.5V23.5C0 23.7761 0.223858 24 0.5 24H23.5C23.7761 24 24 23.7761 24 23.5V0.5C24 0.223858 23.7761 0 23.5 0H0.5ZM1 1V23H7.66666V1H1ZM8.66666 1V23H15.3333V1H8.66666ZM16.3333 1V23H23V1H16.3333Z" fill="black"/>
</svg>
