<svg width="24" height="24" viewBox="0 0 24 24" fill="none" xmlns="http://www.w3.org/2000/svg">
<g clip-path="url(#clip0_339_13496)">
<path fill-rule="evenodd" clip-rule="evenodd" d="M7.5 2.99322C7.5 4.09657 6.603 4.99386 5.5 4.99386C4.397 4.99386 3.5 4.09657 3.5 2.99322C3.5 2.0229 4.855 0.462399 5.128 0.158301C5.317 -0.052767 5.683 -0.052767 5.872 0.158301C6.145 0.462399 7.5 2.0229 7.5 2.99322ZM6.5 2.99322C6.5 2.67411 6.03 1.92987 5.5 1.26666C4.97 1.93087 4.5 2.67511 4.5 2.99322C4.5 3.54539 4.948 3.99354 5.5 3.99354C6.052 3.99354 6.5 3.54539 6.5 2.99322Z" fill="black"/>
<path fill-rule="evenodd" clip-rule="evenodd" d="M1 10.4956V19.4985C1 20.878 2.121 21.9994 3.5 21.9994H20.5C21.879 21.9994 23 20.878 23 19.4985V10.4956C23 10.2195 22.776 9.99548 22.5 9.99548H20V6.49435C20 6.21826 19.776 5.99418 19.5 5.99418H17.5C17.224 5.99418 17 6.21826 17 6.49435V9.99548H13V6.49435C13 6.21826 12.776 5.99418 12.5 5.99418H10.5C10.224 5.99418 10 6.21826 10 6.49435V9.99548H7V6.49435C7 6.21826 6.776 5.99418 6.5 5.99418H4.5C4.224 5.99418 4 6.21826 4 6.49435V9.99548H1.5C1.224 9.99548 1 10.2195 1 10.4956ZM22 19.4985C22 20.3258 21.327 20.999 20.5 20.999H3.5C2.673 20.999 2 20.3258 2 19.4985V15.1001C2.607 15.6603 3.379 15.9974 4 15.9974C4.794 15.9974 5.841 15.4522 6.465 14.585C7.085 15.5863 8.225 16.2475 9.25 16.2475C10.257 16.2475 11.373 15.6103 12 14.64C12.627 15.6113 13.743 16.2475 14.75 16.2475C15.775 16.2475 16.915 15.5863 17.535 14.585C18.159 15.4522 19.206 15.9974 20 15.9974C20.621 15.9974 21.394 15.6603 22 15.1001V19.4985ZM19 6.99451V9.99548H18V6.99451H19ZM11 6.99451H12V9.99548H11V6.99451ZM5 9.99548V6.99451H6V9.99548H5ZM2 10.9958H22V12.9964C22 14.0618 20.754 14.9971 20 14.9971C19.246 14.9971 18 14.0618 18 12.9964C18 12.7204 17.776 12.4963 17.5 12.4963C17.224 12.4963 17 12.7204 17 12.9964C17 14.2088 15.763 15.2472 14.75 15.2472C13.737 15.2472 12.5 14.2088 12.5 12.9964C12.5 12.7204 12.276 12.4963 12 12.4963C11.724 12.4963 11.5 12.7204 11.5 12.9964C11.5 14.2088 10.263 15.2472 9.25 15.2472C8.237 15.2472 7 14.2088 7 12.9964C7 12.7204 6.776 12.4963 6.5 12.4963C6.224 12.4963 6 12.7204 6 12.9964C6 14.0618 4.754 14.9971 4 14.9971C3.246 14.9971 2 14.0618 2 12.9964V10.9958Z" fill="black"/>
<path d="M0.5 22.9997C0.224 22.9997 0 23.2237 0 23.4998C0 23.7759 0.224 24 0.5 24H23.5C23.776 24 24 23.7759 24 23.4998C24 23.2237 23.776 22.9997 23.5 22.9997H0.5Z" fill="black"/>
<path fill-rule="evenodd" clip-rule="evenodd" d="M18.5 4.99386C19.603 4.99386 20.5 4.09657 20.5 2.99322C20.5 2.0229 19.145 0.462399 18.872 0.158301C18.683 -0.052767 18.317 -0.052767 18.128 0.158301C17.855 0.462399 16.5 2.0229 16.5 2.99322C16.5 4.09657 17.397 4.99386 18.5 4.99386ZM18.5 1.26666C19.03 1.92987 19.5 2.67411 19.5 2.99322C19.5 3.54539 19.052 3.99354 18.5 3.99354C17.948 3.99354 17.5 3.54539 17.5 2.99322C17.5 2.67511 17.97 1.93087 18.5 1.26666Z" fill="black"/>
<path fill-rule="evenodd" clip-rule="evenodd" d="M13.5 2.99322C13.5 4.09657 12.603 4.99386 11.5 4.99386C10.397 4.99386 9.5 4.09657 9.5 2.99322C9.5 2.0229 10.855 0.462399 11.128 0.158301C11.317 -0.052767 11.683 -0.052767 11.872 0.158301C12.145 0.462399 13.5 2.0229 13.5 2.99322ZM12.5 2.99322C12.5 2.67411 12.03 1.92987 11.5 1.26666C10.97 1.93087 10.5 2.67511 10.5 2.99322C10.5 3.54539 10.948 3.99354 11.5 3.99354C12.052 3.99354 12.5 3.54539 12.5 2.99322Z" fill="black"/>
</g>
<defs>
<clipPath id="clip0_339_13496">
<rect width="24" height="24" fill="white"/>
</clipPath>
</defs>
</svg>
