<svg width="24" height="24" viewBox="0 0 24 24" fill="none" xmlns="http://www.w3.org/2000/svg">
<path d="M4 3.375C4 3.09886 4.22386 2.875 4.5 2.875H19.5C19.7761 2.875 20 3.09886 20 3.375C20 3.65114 19.7761 3.875 19.5 3.875H4.5C4.22386 3.875 4 3.65114 4 3.375Z" fill="black"/>
<path d="M4 6.25002C4 5.97387 4.22386 5.75002 4.5 5.75002H19.5C19.7761 5.75002 20 5.97387 20 6.25002C20 6.52616 19.7761 6.75002 19.5 6.75002H4.5C4.22386 6.75002 4 6.52616 4 6.25002Z" fill="black"/>
<path d="M4.5 8.62502C4.22386 8.62502 4 8.84887 4 9.12502C4 9.40116 4.22386 9.62502 4.5 9.62502H19.5C19.7761 9.62502 20 9.40116 20 9.12502C20 8.84887 19.7761 8.62502 19.5 8.62502H4.5Z" fill="black"/>
<path d="M4.5 11.5C4.22386 11.5 4 11.7239 4 12C4 12.2762 4.22386 12.5 4.5 12.5H19.5C19.7761 12.5 20 12.2762 20 12C20 11.7239 19.7761 11.5 19.5 11.5H4.5Z" fill="black"/>
<path d="M4.5 17.25C4.22386 17.25 4 17.4739 4 17.75C4 18.0262 4.22386 18.25 4.5 18.25H19.5C19.7761 18.25 20 18.0262 20 17.75C20 17.4739 19.7761 17.25 19.5 17.25H4.5Z" fill="black"/>
<path d="M4.5 14.375C4.22386 14.375 4 14.5989 4 14.875C4 15.1512 4.22386 15.375 4.5 15.375H19.5C19.7761 15.375 20 15.1512 20 14.875C20 14.5989 19.7761 14.375 19.5 14.375H4.5Z" fill="black"/>
<path d="M4.5 20.125C4.22386 20.125 4 20.3489 4 20.625C4 20.9012 4.22386 21.125 4.5 21.125H19.5C19.7761 21.125 20 20.9012 20 20.625C20 20.3489 19.7761 20.125 19.5 20.125H4.5Z" fill="black"/>
<path fill-rule="evenodd" clip-rule="evenodd" d="M2.5 0C2.22386 0 2 0.223858 2 0.5V23.5C2 23.7761 2.22386 24 2.5 24H21.5C21.7761 24 22 23.7761 22 23.5V0.5C22 0.223858 21.7761 0 21.5 0H2.5ZM3 23V1H21V23H3Z" fill="black"/>
</svg>
