<svg width="24" height="24" viewBox="0 0 24 24" fill="none" xmlns="http://www.w3.org/2000/svg">
<path d="M4.5 6C4.22386 6 4 6.22386 4 6.5C4 6.77614 4.22386 7 4.5 7H19.5C19.7761 7 20 6.77614 20 6.5C20 6.22386 19.7761 6 19.5 6H4.5Z" fill="black"/>
<path d="M4 9.5C4 9.22386 4.22386 9 4.5 9H19.5C19.7761 9 20 9.22386 20 9.5C20 9.77614 19.7761 10 19.5 10H4.5C4.22386 10 4 9.77614 4 9.5Z" fill="black"/>
<path d="M4.5 3C4.22386 3 4 3.22386 4 3.5C4 3.77614 4.22386 4 4.5 4H19.5C19.7761 4 20 3.77614 20 3.5C20 3.22386 19.7761 3 19.5 3H4.5Z" fill="black"/>
<path d="M9.10957 17.1877C9.28207 16.972 9.59672 16.9371 9.81235 17.1096L12 18.8597L14.1877 17.1096C14.4033 16.9371 14.7179 16.972 14.8904 17.1877C15.0629 17.4033 15.028 17.7179 14.8123 17.8904L12.3123 19.8904C12.1297 20.0365 11.8703 20.0365 11.6877 19.8904L9.18765 17.8904C8.97202 17.7179 8.93706 17.4033 9.10957 17.1877Z" fill="black"/>
<path d="M9.81235 15.8904C9.59672 16.0629 9.28207 16.028 9.10957 15.8123C8.93706 15.5967 8.97202 15.2821 9.18765 15.1096L11.6877 13.1096C11.8703 12.9635 12.1297 12.9635 12.3123 13.1096L14.8123 15.1096C15.028 15.2821 15.0629 15.5967 14.8904 15.8123C14.7179 16.028 14.4033 16.0629 14.1877 15.8904L12 14.1403L9.81235 15.8904Z" fill="black"/>
<path fill-rule="evenodd" clip-rule="evenodd" d="M2.5 0C2.22386 0 2 0.223858 2 0.5V23.5C2 23.7761 2.22386 24 2.5 24H21.5C21.7761 24 22 23.7761 22 23.5V0.5C22 0.223858 21.7761 0 21.5 0H2.5ZM3 23V1H21V23H3Z" fill="black"/>
</svg>
