<svg width="24" height="24" viewBox="0 0 24 24" fill="none" xmlns="http://www.w3.org/2000/svg">
<path d="M4 3.375C4 3.09886 4.22386 2.875 4.5 2.875H19.5C19.7761 2.875 20 3.09886 20 3.375C20 3.65114 19.7761 3.875 19.5 3.875H4.5C4.22386 3.875 4 3.65114 4 3.375Z" fill="black"/>
<path d="M4 6.25002C4 5.97387 4.22386 5.75002 4.5 5.75002H19.5C19.7761 5.75002 20 5.97387 20 6.25002C20 6.52616 19.7761 6.75002 19.5 6.75002H4.5C4.22386 6.75002 4 6.52616 4 6.25002Z" fill="black"/>
<path d="M4.5 8.62502C4.22386 8.62502 4 8.84887 4 9.12502C4 9.40116 4.22386 9.62502 4.5 9.62502H19.5C19.7761 9.62502 20 9.40116 20 9.12502C20 8.84887 19.7761 8.62502 19.5 8.62502H4.5Z" fill="black"/>
<path fill-rule="evenodd" clip-rule="evenodd" d="M2.5 0C2.22386 0 2 0.223858 2 0.5V23.5C2 23.7761 2.22386 24 2.5 24H21.5C21.7761 24 22 23.7761 22 23.5V0.5C22 0.223858 21.7761 0 21.5 0H2.5ZM3 23V1H21V23H3Z" fill="black"/>
</svg>
