<svg width="24" height="24" viewBox="0 0 24 24" fill="none" xmlns="http://www.w3.org/2000/svg">
<path d="M4 3.5C4 3.22386 4.22386 3 4.5 3H19.5C19.7761 3 20 3.22386 20 3.5C20 3.77614 19.7761 4 19.5 4H4.5C4.22386 4 4 3.77614 4 3.5Z" fill="black"/>
<path d="M4 6.5C4 6.22386 4.22386 6 4.5 6H19.5C19.7761 6 20 6.22386 20 6.5C20 6.77614 19.7761 7 19.5 7H4.5C4.22386 7 4 6.77614 4 6.5Z" fill="black"/>
<path d="M4.5 9C4.22386 9 4 9.22386 4 9.5C4 9.77614 4.22386 10 4.5 10H19.5C19.7761 10 20 9.77614 20 9.5C20 9.22386 19.7761 9 19.5 9H4.5Z" fill="black"/>
<path d="M9.10957 15.1877C9.28207 14.972 9.59672 14.9371 9.81235 15.1096L12 16.8597L14.1877 15.1096C14.4033 14.9371 14.7179 14.972 14.8904 15.1877C15.0629 15.4033 15.028 15.7179 14.8123 15.8904L12.3123 17.8904C12.1297 18.0365 11.8703 18.0365 11.6877 17.8904L9.18765 15.8904C8.97202 15.7179 8.93706 15.4033 9.10957 15.1877Z" fill="black"/>
<path fill-rule="evenodd" clip-rule="evenodd" d="M2.5 0C2.22386 0 2 0.223858 2 0.5V23.5C2 23.7761 2.22386 24 2.5 24H21.5C21.7761 24 22 23.7761 22 23.5V0.5C22 0.223858 21.7761 0 21.5 0H2.5ZM3 23V1H21V23H3Z" fill="black"/>
</svg>
