<svg width="24" height="24" viewBox="0 0 24 24" fill="none" xmlns="http://www.w3.org/2000/svg">
<path d="M4 6.5C4 6.22386 4.22386 6 4.5 6H19.5C19.7761 6 20 6.22386 20 6.5C20 6.77614 19.7761 7 19.5 7H4.5C4.22386 7 4 6.77614 4 6.5Z" fill="black"/>
<path d="M4.5 9C4.22386 9 4 9.22386 4 9.5C4 9.77614 4.22386 10 4.5 10H19.5C19.7761 10 20 9.77614 20 9.5C20 9.22386 19.7761 9 19.5 9H4.5Z" fill="black"/>
<path d="M4 3.5C4 3.22386 4.22386 3 4.5 3H19.5C19.7761 3 20 3.22386 20 3.5C20 3.77614 19.7761 4 19.5 4H4.5C4.22386 4 4 3.77614 4 3.5Z" fill="black"/>
<path d="M9.81235 17.8904C9.59672 18.0629 9.28207 18.028 9.10957 17.8123C8.93706 17.5967 8.97202 17.2821 9.18765 17.1095L11.6877 15.1095C11.8703 14.9635 12.1297 14.9635 12.3123 15.1095L14.8123 17.1095C15.028 17.2821 15.0629 17.5967 14.8904 17.8123C14.7179 18.028 14.4033 18.0629 14.1877 17.8904L12 16.1403L9.81235 17.8904Z" fill="black"/>
<path fill-rule="evenodd" clip-rule="evenodd" d="M2 0.5C2 0.223858 2.22386 0 2.5 0H21.5C21.7761 0 22 0.223858 22 0.5V23.5C22 23.7761 21.7761 24 21.5 24H2.5C2.22386 24 2 23.7761 2 23.5V0.5ZM3 1V23H21V1H3Z" fill="black"/>
</svg>
