<svg width="24" height="24" viewBox="0 0 24 24" fill="none" xmlns="http://www.w3.org/2000/svg">
<path fill-rule="evenodd" clip-rule="evenodd" d="M11.8536 4.64646C11.7106 4.50346 11.4955 4.46068 11.3087 4.53807C11.1218 4.61547 11 4.79778 11 5.00001V10.7929L8.35355 8.14646C8.15829 7.9512 7.84171 7.9512 7.64645 8.14646C7.45118 8.34172 7.45118 8.65831 7.64645 8.85357L10.7929 12L7.64645 15.1465C7.45118 15.3417 7.45118 15.6583 7.64645 15.8536C7.84171 16.0488 8.15829 16.0488 8.35355 15.8536L11 13.2071V19C11 19.2022 11.1218 19.3846 11.3087 19.462C11.4955 19.5393 11.7106 19.4966 11.8536 19.3536L15.3536 15.8536C15.5488 15.6583 15.5488 15.3417 15.3536 15.1465L12.2071 12L15.3536 8.85357C15.5488 8.65831 15.5488 8.34172 15.3536 8.14646L11.8536 4.64646ZM14.2929 8.50002L12 10.7929V6.20712L14.2929 8.50002ZM14.2929 15.5L12 17.7929V13.2071L14.2929 15.5Z" fill="black"/>
<path fill-rule="evenodd" clip-rule="evenodd" d="M12 0C7.58172 0 4 3.58172 4 8V16C4 20.4183 7.58172 24 12 24C16.4183 24 20 20.4183 20 16V8C20 3.58172 16.4183 0 12 0ZM5 8C5 4.13401 8.13401 1 12 1C15.866 1 19 4.13401 19 8V16C19 19.866 15.866 23 12 23C8.13401 23 5 19.866 5 16V8Z" fill="black"/>
</svg>
