<svg width="24" height="24" viewBox="0 0 24 24" fill="none" xmlns="http://www.w3.org/2000/svg">
<path d="M6.272 22.651C6.461 23.408 7.22 24 8 24H16C16.78 24 17.539 23.408 17.728 22.651C17.759 22.525 18.5 19.526 18.5 16.5C18.5 14.655 17.055 13.066 15.78 11.664C14.864 10.657 14 9.706 14 9V3.5V0.5C14 0.224 13.776 0 13.5 0H10.5C10.224 0 10 0.224 10 0.5V3.5V9C10 9.706 9.136 10.657 8.22 11.664C6.945 13.066 5.5 14.655 5.5 16.5C5.5 19.527 6.241 22.525 6.272 22.651ZM17.215 20H6.785C6.653 19.112 6.537 18.064 6.508 17H17.492C17.463 18.063 17.347 19.111 17.215 20ZM16 23H8C7.681 23 7.32 22.719 7.243 22.409C7.24 22.396 7.104 21.848 6.95 21H17.05C16.896 21.847 16.76 22.396 16.757 22.409C16.68 22.719 16.319 23 16 23ZM13 3H11V1H13V3ZM8.96 12.336C10.055 11.133 11 10.093 11 9V4H13V9C13 10.093 13.945 11.133 15.04 12.336C16.061 13.459 17.198 14.714 17.446 16H6.554C6.802 14.715 7.938 13.459 8.96 12.336Z" fill="black"/>
</svg>
