<svg width="24" height="24" viewBox="0 0 24 24" fill="none" xmlns="http://www.w3.org/2000/svg">
<path d="M14 0.5C14 0.224 13.776 0 13.5 0H10.5C10.224 0 10 0.224 10 0.5V3.5V7C10 8.293 9.853 8.44 9.146 9.146C8.396 9.896 7 11.293 7 13.5V14.5V19.5V22.5C7 23.327 7.673 24 8.5 24H15.5C16.327 24 17 23.327 17 22.5V19.5V14.5V13.5C17 11.293 15.604 9.896 14.854 9.146C14.147 8.44 14 8.293 14 7V3.5V0.5ZM13 3H11V1H13V3ZM16 19H8V15H16V19ZM15.5 23H8.5C8.225 23 8 22.776 8 22.5V20H16V22.5C16 22.776 15.775 23 15.5 23ZM14.146 9.854C14.885 10.592 16 11.707 16 13.5V14H8V13.5C8 11.707 9.115 10.592 9.854 9.854C10.705 9.002 11 8.625 11 7V4H13V7C13 8.625 13.295 9.002 14.146 9.854Z" fill="black"/>
</svg>
