<svg width="24" height="24" viewBox="0 0 24 24" fill="none" xmlns="http://www.w3.org/2000/svg">
<path fill-rule="evenodd" clip-rule="evenodd" d="M8.25415 9.38249L8.15115 9.20049C7.87315 8.70949 8.03415 7.88549 8.16415 7.22249L8.21615 6.95049C8.72915 4.16949 8.53915 2.21849 7.65015 1.15049C7.15315 0.552488 6.46015 0.250488 5.58915 0.250488C4.71915 0.250488 4.02615 0.553488 3.52815 1.15049C2.64015 2.21849 2.44915 4.17149 2.96215 6.95649L3.01515 7.23349L3.01566 7.23605C3.14457 7.89461 3.3048 8.71312 3.02815 9.19849L2.92515 9.38249C0.991154 12.7865 -1.93185 17.9315 3.63715 23.6005C3.73115 23.6965 3.85915 23.7495 3.99315 23.7495H7.18615C7.32015 23.7495 7.44915 23.6955 7.54215 23.6005C13.1122 17.9315 10.1892 12.7865 8.25415 9.38249ZM7.23315 6.76749L7.18315 7.03049C7.07915 7.55749 6.96215 8.16649 7.01015 8.74949H4.16915C4.21615 8.17049 4.09915 7.56549 3.99715 7.04249L3.94615 6.77449C3.94415 6.76649 3.94315 6.75849 3.94215 6.74949H7.23615L7.23545 6.75549C7.23498 6.75998 7.23456 6.76398 7.23315 6.76749ZM4.29815 1.78949C4.60115 1.42649 5.02315 1.24949 5.59015 1.24949C6.15715 1.24949 6.58015 1.42649 6.88215 1.78949C7.45315 2.47649 7.62415 3.86549 7.38915 5.74949H3.78915C3.55515 3.86549 3.72615 2.47549 4.29815 1.78949ZM6.97415 22.7495H4.20515C-0.639636 17.6818 1.91888 13.1777 3.79275 9.87896L3.86615 9.74949H7.31215L7.38415 9.87649C9.25915 13.1745 11.8202 17.6805 6.97415 22.7495Z" fill="black"/>
<path d="M15.5902 7.74948C13.6042 7.74948 11.7002 8.48148 10.2282 9.81148C10.0232 9.99748 10.0072 10.3135 10.1922 10.5175C10.3772 10.7235 10.6942 10.7375 10.8992 10.5535C12.1862 9.38948 13.8522 8.74848 15.5902 8.74848C19.4502 8.74848 22.5902 11.8895 22.5902 15.7485C22.5902 19.6075 19.4502 22.7485 15.5902 22.7485C14.0612 22.7485 12.6092 22.2655 11.3902 21.3505C11.1692 21.1835 10.8552 21.2295 10.6902 21.4505C10.5252 21.6715 10.5692 21.9845 10.7902 22.1495C12.1842 23.1965 13.8432 23.7495 15.5902 23.7495C20.0012 23.7495 23.5902 20.1605 23.5902 15.7495C23.5902 11.3385 20.0012 7.74948 15.5902 7.74948Z" fill="black"/>
<path fill-rule="evenodd" clip-rule="evenodd" d="M13.0901 11.7495C13.0901 10.9225 13.7631 10.2495 14.5901 10.2495C15.4171 10.2495 16.0901 10.9225 16.0901 11.7495C16.0901 12.5765 15.4171 13.2495 14.5901 13.2495C13.7631 13.2495 13.0901 12.5765 13.0901 11.7495ZM14.0901 11.7495C14.0901 12.0245 14.3141 12.2495 14.5901 12.2495C14.8651 12.2495 15.0901 12.0245 15.0901 11.7495C15.0901 11.4745 14.8661 11.2495 14.5901 11.2495C14.3141 11.2495 14.0901 11.4745 14.0901 11.7495Z" fill="black"/>
<path fill-rule="evenodd" clip-rule="evenodd" d="M20.0901 12.7495C20.0901 11.9225 19.4171 11.2495 18.5901 11.2495C17.7631 11.2495 17.0901 11.9225 17.0901 12.7495C17.0901 13.5765 17.7631 14.2495 18.5901 14.2495C19.4171 14.2495 20.0901 13.5765 20.0901 12.7495ZM18.0901 12.7495C18.0901 12.4745 18.3141 12.2495 18.5901 12.2495C18.8661 12.2495 19.0901 12.4745 19.0901 12.7495C19.0901 13.0245 18.8661 13.2495 18.5901 13.2495C18.3141 13.2495 18.0901 13.0245 18.0901 12.7495Z" fill="black"/>
<path fill-rule="evenodd" clip-rule="evenodd" d="M15.5901 17.2495C14.7631 17.2495 14.0901 16.5765 14.0901 15.7495C14.0901 14.9225 14.7631 14.2495 15.5901 14.2495C16.4171 14.2495 17.0901 14.9225 17.0901 15.7495C17.0901 16.5765 16.4171 17.2495 15.5901 17.2495ZM15.5901 16.2495C15.8661 16.2495 16.0901 16.0245 16.0901 15.7495C16.0901 15.4745 15.8661 15.2495 15.5901 15.2495C15.3141 15.2495 15.0901 15.4745 15.0901 15.7495C15.0901 16.0245 15.3141 16.2495 15.5901 16.2495Z" fill="black"/>
</svg>
