<svg width="24" height="24" viewBox="0 0 24 24" fill="none" xmlns="http://www.w3.org/2000/svg">
<path d="M12.5 2.5C12.5 2.22386 12.2761 2 12 2C11.7239 2 11.5 2.22386 11.5 2.5V5.5C11.5 5.77614 11.7239 6 12 6C12.2761 6 12.5 5.77614 12.5 5.5V2.5Z" fill="black"/>
<path d="M19.0711 5.6361C19.2663 5.44084 19.2663 5.12426 19.0711 4.92899C18.8758 4.73373 18.5592 4.73373 18.364 4.92899L16.2427 7.05031C16.0474 7.24558 16.0474 7.56216 16.2427 7.75742C16.4379 7.95268 16.7545 7.95268 16.9498 7.75742L19.0711 5.6361Z" fill="black"/>
<path d="M22 12C22 12.2761 21.7761 12.5 21.5 12.5H18.5C18.2239 12.5 18 12.2761 18 12C18 11.7239 18.2239 11.5 18.5 11.5H21.5C21.7761 11.5 22 11.7239 22 12Z" fill="black"/>
<path d="M18.3639 19.0711C18.5592 19.2663 18.8757 19.2663 19.071 19.0711C19.2663 18.8758 19.2663 18.5592 19.071 18.364L16.9497 16.2427C16.7544 16.0474 16.4378 16.0474 16.2426 16.2427C16.0473 16.4379 16.0473 16.7545 16.2426 16.9498L18.3639 19.0711Z" fill="black"/>
<path d="M12 22C11.7239 22 11.5 21.7761 11.5 21.5V18.5C11.5 18.2239 11.7239 18 12 18C12.2761 18 12.5 18.2239 12.5 18.5V21.5C12.5 21.7761 12.2761 22 12 22Z" fill="black"/>
<path d="M4.92892 18.3639C4.73366 18.5592 4.73366 18.8757 4.92892 19.071C5.12418 19.2663 5.44076 19.2663 5.63602 19.071L7.75734 16.9497C7.95261 16.7544 7.95261 16.4378 7.75734 16.2426C7.56208 16.0473 7.2455 16.0473 7.05024 16.2426L4.92892 18.3639Z" fill="black"/>
<path d="M2 12C2 11.7239 2.22386 11.5 2.5 11.5H5.5C5.77614 11.5 6 11.7239 6 12C6 12.2761 5.77614 12.5 5.5 12.5H2.5C2.22386 12.5 2 12.2761 2 12Z" fill="black"/>
<path d="M5.6361 4.92892C5.44084 4.73366 5.12425 4.73366 4.92899 4.92892C4.73373 5.12418 4.73373 5.44076 4.92899 5.63602L7.05031 7.75734C7.24558 7.95261 7.56216 7.95261 7.75742 7.75734C7.95268 7.56208 7.95268 7.2455 7.75742 7.05024L5.6361 4.92892Z" fill="black"/>
<path fill-rule="evenodd" clip-rule="evenodd" d="M12 8C10.9391 8 9.92172 8.42143 9.17157 9.17157C8.42143 9.92172 8 10.9391 8 12C8 13.0609 8.42143 14.0783 9.17157 14.8284C9.92172 15.5786 10.9391 16 12 16C13.0609 16 14.0783 15.5786 14.8284 14.8284C15.5786 14.0783 16 13.0609 16 12C16 10.9391 15.5786 9.92172 14.8284 9.17157C14.0783 8.42143 13.0609 8 12 8ZM9.87868 9.87868C10.4413 9.31607 11.2044 9 12 9C12.7956 9 13.5587 9.31607 14.1213 9.87868C14.6839 10.4413 15 11.2044 15 12C15 12.7956 14.6839 13.5587 14.1213 14.1213C13.5587 14.6839 12.7956 15 12 15C11.2044 15 10.4413 14.6839 9.87868 14.1213C9.31607 13.5587 9 12.7956 9 12C9 11.2044 9.31607 10.4413 9.87868 9.87868Z" fill="black"/>
</svg>
