<svg width="24" height="24" viewBox="0 0 24 24" fill="none" xmlns="http://www.w3.org/2000/svg">
<path d="M12 0C12.2761 0 12.5 0.223858 12.5 0.5V4.5C12.5 4.77614 12.2761 5 12 5C11.7239 5 11.5 4.77614 11.5 4.5V0.5C11.5 0.223858 11.7239 0 12 0Z" fill="black"/>
<path fill-rule="evenodd" clip-rule="evenodd" d="M8.81802 8.81802C9.66193 7.97411 10.8065 7.5 12 7.5C13.1935 7.5 14.3381 7.97411 15.182 8.81802C16.0259 9.66193 16.5 10.8065 16.5 12C16.5 13.1935 16.0259 14.3381 15.182 15.182C14.3381 16.0259 13.1935 16.5 12 16.5C10.8065 16.5 9.66193 16.0259 8.81802 15.182C7.97411 14.3381 7.5 13.1935 7.5 12C7.5 10.8065 7.97411 9.66193 8.81802 8.81802ZM12 8.5C11.0717 8.5 10.1815 8.86875 9.52513 9.52513C8.86875 10.1815 8.5 11.0717 8.5 12C8.5 12.9283 8.86875 13.8185 9.52513 14.4749C10.1815 15.1313 11.0717 15.5 12 15.5C12.9283 15.5 13.8185 15.1313 14.4749 14.4749C15.1313 13.8185 15.5 12.9283 15.5 12C15.5 11.0717 15.1313 10.1815 14.4749 9.52513C13.8185 8.86875 12.9283 8.5 12 8.5Z" fill="black"/>
<path d="M12.5 19.5C12.5 19.2239 12.2761 19 12 19C11.7239 19 11.5 19.2239 11.5 19.5V23.5C11.5 23.7761 11.7239 24 12 24C12.2761 24 12.5 23.7761 12.5 23.5V19.5Z" fill="black"/>
<path d="M3.51644 3.51656C3.7117 3.3213 4.02829 3.3213 4.22355 3.51656L7.05355 6.34656C7.24881 6.54183 7.24881 6.85841 7.05355 7.05367C6.85829 7.24893 6.5417 7.24893 6.34644 7.05367L3.51644 4.22367C3.32118 4.02841 3.32118 3.71183 3.51644 3.51656Z" fill="black"/>
<path d="M17.6536 16.9465C17.4583 16.7512 17.1418 16.7512 16.9465 16.9465C16.7512 17.1418 16.7512 17.4583 16.9465 17.6536L19.7765 20.4836C19.9718 20.6789 20.2883 20.6789 20.4836 20.4836C20.6789 20.2883 20.6789 19.9718 20.4836 19.7765L17.6536 16.9465Z" fill="black"/>
<path d="M0 11.5C0 11.2239 0.223858 11 0.5 11H4.5C4.77614 11 5 11.2239 5 11.5C5 11.7761 4.77614 12 4.5 12H0.5C0.223858 12 0 11.7761 0 11.5Z" fill="black"/>
<path d="M19.5 11C19.2239 11 19 11.2239 19 11.5C19 11.7761 19.2239 12 19.5 12H23.5C23.7761 12 24 11.7761 24 11.5C24 11.2239 23.7761 11 23.5 11H19.5Z" fill="black"/>
<path d="M7.05355 16.9465C7.24881 17.1418 7.24881 17.4583 7.05355 17.6536L4.22355 20.4836C4.02829 20.6789 3.7117 20.6789 3.51644 20.4836C3.32118 20.2883 3.32118 19.9718 3.51644 19.7765L6.34644 16.9465C6.5417 16.7512 6.85829 16.7512 7.05355 16.9465Z" fill="black"/>
<path d="M20.4836 4.22367C20.6789 4.02841 20.6789 3.71183 20.4836 3.51656C20.2883 3.3213 19.9718 3.3213 19.7765 3.51656L16.9465 6.34656C16.7512 6.54183 16.7512 6.85841 16.9465 7.05367C17.1418 7.24893 17.4583 7.24893 17.6536 7.05367L20.4836 4.22367Z" fill="black"/>
</svg>
