<svg width="24" height="24" viewBox="0 0 24 24" fill="none" xmlns="http://www.w3.org/2000/svg">
<path d="M9 22C8.936 22 8.871 21.987 8.809 21.962C8.622 21.885 8.5 21.702 8.5 21.5V18H8C3.589 18 0 14.411 0 10C0 5.589 3.589 2 8 2H16C20.411 2 24 5.589 24 10C24 14.411 20.411 18 16 18H13.207L9.353 21.854C9.258 21.949 9.13 22 9 22ZM8 3C4.14 3 1 6.141 1 10C1 13.859 4.14 17 8 17H9C9.276 17 9.5 17.224 9.5 17.5V20.293L12.646 17.147C12.74 17.053 12.867 17 13 17H16C19.86 17 23 13.859 23 10C23 6.141 19.86 3 16 3H8Z" fill="black"/>
</svg>
