<svg width="24" height="24" viewBox="0 0 24 24" fill="none" xmlns="http://www.w3.org/2000/svg">
<path d="M10 6.5C10 6.77614 9.77614 7 9.5 7C9.22386 7 9 6.77614 9 6.5C9 6.22386 9.22386 6 9.5 6C9.77614 6 10 6.22386 10 6.5Z" fill="black"/>
<path d="M8 7.5C8 7.77614 7.77614 8 7.5 8C7.22386 8 7 7.77614 7 7.5C7 7.22386 7.22386 7 7.5 7C7.77614 7 8 7.22386 8 7.5Z" fill="black"/>
<path d="M14.5 7C14.7761 7 15 6.77614 15 6.5C15 6.22386 14.7761 6 14.5 6C14.2239 6 14 6.22386 14 6.5C14 6.77614 14.2239 7 14.5 7Z" fill="black"/>
<path d="M12.5 7.5C12.5 7.77614 12.2761 8 12 8C11.7239 8 11.5 7.77614 11.5 7.5C11.5 7.22386 11.7239 7 12 7C12.2761 7 12.5 7.22386 12.5 7.5Z" fill="black"/>
<path d="M16.542 8C16.8181 8 17.042 7.77614 17.042 7.5C17.042 7.22386 16.8181 7 16.542 7C16.2659 7 16.042 7.22386 16.042 7.5C16.042 7.77614 16.2659 8 16.542 8Z" fill="black"/>
<path fill-rule="evenodd" clip-rule="evenodd" d="M24 14C24 12.837 22.668 12.306 21.98 12.107C21.776 6.89 17.561 3 12 3C6.439 3 2.224 6.89 2.02 12.107C1.332 12.306 0 12.837 0 14C0 14.723 0.319 15.27 0.883 15.609C0.347 16.068 0 16.741 0 17.5C0 18.707 0.86 19.717 2 19.95V20.5C2 21.878 3.121 23 4.5 23H19.5C20.879 23 22 21.878 22 20.5V19.95C23.14 19.717 24 18.707 24 17.5C24 16.741 23.653 16.068 23.117 15.609C23.681 15.27 24 14.723 24 14ZM20.986 12C20.73 7.405 16.953 4 12 4C7.047 4 3.27 7.405 3.014 12H20.986ZM19.5 22C20.327 22 21 21.327 21 20.5V20H3V20.5C3 21.327 3.673 22 4.5 22H19.5ZM21.5 19C22.327 19 23 18.327 23 17.5C23 16.673 22.327 16 21.5 16C21.004 16 20.528 15.892 20.143 15.698C19.506 16.542 18.585 17 17.5 17C16.369 17 15.534 16.648 14.97 15.929C14.223 16.706 13.02 17 12 17C10.979 17 9.776 16.706 9.029 15.929C8.465 16.648 7.63 17 6.5 17C5.414 17 4.493 16.542 3.857 15.698C3.471 15.892 2.995 16 2.5 16C1.673 16 1 16.673 1 17.5C1 18.327 1.673 19 2.5 19H21.5ZM19.924 14.506C20.076 14.485 20.232 14.532 20.344 14.637C20.573 14.854 21.038 15 21.5 15C23 15 23 14.248 23 14C23 13.492 21.957 13.109 21.443 13H2.557C2.041 13.112 1 13.497 1 14C1 14.248 1 15 2.5 15C2.962 15 3.427 14.854 3.657 14.637C3.769 14.531 3.925 14.484 4.077 14.506C4.23 14.53 4.363 14.623 4.438 14.758C4.751 15.325 5.363 16 6.5 16C7.564 16 8.175 15.642 8.542 14.8C8.621 14.618 8.801 14.5 9 14.5C9.199 14.5 9.379 14.618 9.458 14.801C9.844 15.686 11.023 16 12 16C12.976 16 14.155 15.685 14.542 14.8C14.621 14.618 14.801 14.5 15 14.5C15.199 14.5 15.379 14.618 15.458 14.801C15.824 15.642 16.436 16 17.5 16C18.636 16 19.249 15.324 19.563 14.758C19.638 14.623 19.771 14.529 19.924 14.506Z" fill="black"/>
<path fill-rule="evenodd" clip-rule="evenodd" d="M10 6.5C10 6.77614 9.77614 7 9.5 7C9.22386 7 9 6.77614 9 6.5C9 6.22386 9.22386 6 9.5 6C9.77614 6 10 6.22386 10 6.5ZM8 7.5C8 7.77614 7.77614 8 7.5 8C7.22386 8 7 7.77614 7 7.5C7 7.22386 7.22386 7 7.5 7C7.77614 7 8 7.22386 8 7.5ZM14.5 7C14.7761 7 15 6.77614 15 6.5C15 6.22386 14.7761 6 14.5 6C14.2239 6 14 6.22386 14 6.5C14 6.77614 14.2239 7 14.5 7ZM12.5 7.5C12.5 7.77614 12.2761 8 12 8C11.7239 8 11.5 7.77614 11.5 7.5C11.5 7.22386 11.7239 7 12 7C12.2761 7 12.5 7.22386 12.5 7.5ZM16.542 8C16.8181 8 17.042 7.77614 17.042 7.5C17.042 7.22386 16.8181 7 16.542 7C16.2659 7 16.042 7.22386 16.042 7.5C16.042 7.77614 16.2659 8 16.542 8Z" fill="black"/>
</svg>
