<svg width="24" height="24" viewBox="0 0 24 24" fill="none" xmlns="http://www.w3.org/2000/svg">
<path fill-rule="evenodd" clip-rule="evenodd" d="M14.5 5H9.5C9.223 5 9 4.776 9 4.5V2.5C9 2.224 9.223 2 9.5 2H14.5C14.776 2 15 2.224 15 2.5V4.5C15 4.776 14.776 5 14.5 5ZM14 3H10V4H14V3Z" fill="black"/>
<path d="M6 19.5C6 19.224 6.223 19 6.5 19H9.5C9.776 19 10 19.224 10 19.5C10 19.776 9.776 20 9.5 20H6.5C6.223 20 6 19.776 6 19.5Z" fill="black"/>
<path d="M18 19.5C18 19.224 17.776 19 17.5 19H14.5C14.224 19 14 19.224 14 19.5C14 19.776 14.224 20 14.5 20H17.5C17.776 20 18 19.776 18 19.5Z" fill="black"/>
<path fill-rule="evenodd" clip-rule="evenodd" d="M23.5 7C23.776 7 24 7.224 24 7.5V14.5C24 14.776 23.776 15 23.5 15H21.5C21.224 15 21 14.776 21 14.5V8H20V21.5C20 22.15 19.581 22.701 19 22.908V23.5C19 23.776 18.776 24 18.5 24H16.5C16.224 24 16 23.776 16 23.5V23H8V23.5C8 23.776 7.776 24 7.5 24H5.5C5.223 24 5 23.776 5 23.5V22.908C4.419 22.701 4 22.15 4 21.5V8H3V14.5C3 14.776 2.776 15 2.5 15H0.5C0.223 15 0 14.776 0 14.5V7.5C0 7.224 0.223 7 0.5 7H4V4C4 1.794 5.794 0 8 0H16C18.206 0 20 1.794 20 4V7H23.5ZM1 14H2V8H1V14ZM19 7H5V15H19V7ZM16 1H8C6.345 1 5 2.346 5 4V6H19V4C19 2.346 17.654 1 16 1ZM5.5 22H18.5C18.775 22 19 21.775 19 21.5V16H5V21.5C5 21.775 5.224 22 5.5 22ZM22 14H23V8H22V14Z" fill="black"/>
</svg>
