<svg width="24" height="24" viewBox="0 0 24 24" fill="none" xmlns="http://www.w3.org/2000/svg">
<path d="M7 9.5C7 9.22386 6.77614 9 6.5 9C6.22386 9 6 9.22386 6 9.5V14.5C6 14.7761 6.22386 15 6.5 15C6.77614 15 7 14.7761 7 14.5V9.5Z" fill="black"/>
<path fill-rule="evenodd" clip-rule="evenodd" d="M15 12C15 10.453 16.0209 9 17.5 9C18.9791 9 20 10.453 20 12C20 13.547 18.9791 15 17.5 15C16.0209 15 15 13.547 15 12ZM17.5 10C16.7699 10 16 10.7855 16 12C16 13.2145 16.7699 14 17.5 14C18.2301 14 19 13.2145 19 12C19 10.7855 18.2301 10 17.5 10Z" fill="black"/>
<path d="M12.9808 8.63749C13.0566 8.37197 12.9029 8.09523 12.6374 8.01937C12.3719 7.9435 12.0951 8.09725 12.0192 8.36277L10.0192 15.3628C9.94338 15.6283 10.0971 15.905 10.3626 15.9809C10.6282 16.0568 10.9049 15.903 10.9808 15.6375L12.9808 8.63749Z" fill="black"/>
<path fill-rule="evenodd" clip-rule="evenodd" d="M8 4C3.58172 4 0 7.58172 0 12C0 16.4183 3.58172 20 8 20H16C20.4183 20 24 16.4183 24 12C24 7.58172 20.4183 4 16 4H8ZM1 12C1 8.13401 4.13401 5 8 5H16C19.866 5 23 8.13401 23 12C23 15.866 19.866 19 16 19H8C4.13401 19 1 15.866 1 12Z" fill="black"/>
</svg>
