<svg width="24" height="24" viewBox="0 0 24 24" fill="none" xmlns="http://www.w3.org/2000/svg">
<path d="M22 11.5H20.97C20.961 11.42 20.945 11.349 20.93 11.275L21.852 10.353C22.047 10.158 22.047 9.841 21.852 9.646C21.657 9.451 21.34 9.451 21.145 9.646L20.458 10.333C20.329 10.216 20.174 10.133 19.998 10.078V9C19.998 8.724 19.774 8.5 19.498 8.5C19.222 8.5 19 8.724 19 9V10.076C18.812 10.135 18.657 10.22 18.536 10.329L17.854 9.646C17.659 9.451 17.342 9.451 17.147 9.646C16.952 9.841 16.952 10.158 17.147 10.353L18.048 11.254C18.037 11.296 18.026 11.339 18.016 11.378C17.875 11.937 17.822 12 17.5 12H16V6.5C16 6.382 15.981 6.206 15.944 6H17.5C17.776 6 18 5.776 18 5.5C18 5.224 17.776 5 17.5 5H15.647C15.515 4.678 15.336 4.344 15.105 4.026L16.399 2.3C16.565 2.079 16.52 1.766 16.299 1.6C16.079 1.435 15.765 1.481 15.599 1.701L14.408 3.29C13.824 2.823 13.042 2.5 12 2.5V0.5C12 0.224 11.776 0 11.5 0C11.224 0 11 0.224 11 0.5V2.617C10.437 2.749 9.97 2.986 9.591 3.289L8.399 1.7C8.234 1.479 7.92 1.434 7.7 1.6C7.479 1.766 7.434 2.079 7.6 2.3L8.895 4.027C8.207 4.969 8 6.076 8 6.5V9H7.5C7.275 9 7 8.725 7 8.5V7C7 6.606 6.87 6.119 6.566 5.724L7.37 4.835C7.556 4.631 7.54 4.314 7.335 4.129C7.13 3.945 6.814 3.959 6.629 4.165L5.75 5.137C5.668 5.107 5.591 5.072 5.5 5.053V4C5.5 3.724 5.276 3.5 5 3.5C4.724 3.5 4.5 3.724 4.5 4V5.053C4.428 5.068 4.369 5.097 4.303 5.118L3.218 4.13C3.014 3.945 2.699 3.96 2.512 4.163C2.326 4.367 2.34 4.684 2.545 4.87L3.452 5.696C3.134 6.096 3 6.598 3 7V10C3 11.468 4.196 12 5 12H8V14H6.5C6.223 14 6 14.224 6 14.5C6 14.776 6.223 15 6.5 15H8V17H6.5C6.353 17 6.213 17.064 6.119 17.177C6.024 17.289 5.983 17.438 6.007 17.582L7.007 23.582C7.046 23.823 7.255 24 7.5 24H16.5C16.745 24 16.953 23.823 16.993 23.582L17.993 17.582C18.017 17.437 17.976 17.289 17.881 17.177C17.786 17.064 17.646 17 17.5 17H16V15H19C20.332 15 21 13.718 21 13V12.5H22C22.276 12.5 22.5 12.276 22.5 12C22.5 11.724 22.276 11.5 22 11.5ZM16.076 23H7.923L7.09 18H16.909L16.076 23ZM20 13C20 13.241 19.699 14 19 14H15.5C15.224 14 15 14.224 15 14.5V17H9V11.5C9 11.224 8.776 11 8.5 11H5C4.833 11 4 10.952 4 10V7C4 6.879 4.03 6.416 4.401 6.164C4.421 6.156 4.435 6.139 4.454 6.128C4.591 6.051 4.768 6 5 6C5.913 6 5.996 6.769 6 7V8.5C6 9.271 6.729 10 7.5 10H8.5C8.776 10 9 9.776 9 9.5V6.5C9 6.47 9.224 3.5 12 3.5C14.776 3.5 15 6.47 15 6.5V12.5C15 12.776 15.224 13 15.5 13H17.5C18.641 13 18.856 12.137 18.985 11.621C19.124 11.063 19.177 11 19.5 11C19.846 11 20 11.145 20 12V13Z" fill="black"/>
</svg>
