<svg width="24" height="24" viewBox="0 0 24 24" fill="none" xmlns="http://www.w3.org/2000/svg">
<path d="M1.5 14H10.999C11.275 14 11.499 13.776 11.499 13.5C11.499 13.224 11.275 13 10.999 13H1.5C1.224 13 1 12.776 1 12.5V1.5C1 1.224 1.224 1 1.5 1H14.5C14.776 1 15 1.224 15 1.5V9.962C15 10.239 15.224 10.462 15.5 10.462C15.776 10.462 16 10.239 16 9.962V1.5C16 0.673 15.327 0 14.5 0H1.5C0.673 0 0 0.673 0 1.5V12.5C0 13.327 0.673 14 1.5 14Z" fill="black"/>
<path fill-rule="evenodd" clip-rule="evenodd" d="M19.5 21.016C19.385 21.016 19.271 20.976 19.179 20.899L16.179 18.383C16.065 18.288 16 18.147 16 17.999C16 17.852 16.066 17.711 16.18 17.616L19.18 15.116C19.33 14.993 19.539 14.966 19.712 15.048C19.888 15.13 20 15.307 20 15.5V20.516C20 20.71 19.887 20.887 19.711 20.969C19.644 21 19.572 21.016 19.5 21.016ZM17.28 18.001L19 19.444V16.567L17.28 18.001Z" fill="black"/>
<path d="M14 20.516C14 20.792 14.224 21.016 14.5 21.016C14.776 21.016 15 20.792 15 20.516V15.5C15 15.224 14.776 15 14.5 15C14.224 15 14 15.224 14 15.5V20.516Z" fill="black"/>
<path fill-rule="evenodd" clip-rule="evenodd" d="M17 24C13.691 24 11 21.309 11 18C11 14.691 13.691 12 17 12C20.309 12 23 14.691 23 18C23 21.309 20.309 24 17 24ZM17 13C14.243 13 12 15.243 12 18C12 20.757 14.243 23 17 23C19.757 23 22 20.757 22 18C22 15.243 19.757 13 17 13Z" fill="black"/>
<path fill-rule="evenodd" clip-rule="evenodd" d="M23.5 13C23.423 13 23.347 12.982 23.276 12.947L17.276 9.947C17.107 9.862 17 9.689 17 9.5V4.5C17 4.311 17.107 4.138 17.276 4.053L23.276 1.053C23.431 0.976 23.615 0.983 23.762 1.075C23.91 1.166 24 1.327 24 1.5V12.5C24 12.673 23.91 12.834 23.763 12.925C23.683 12.976 23.591 13 23.5 13ZM18 9.191L23 11.691V2.31L18 4.81V9.191Z" fill="black"/>
</svg>
