<svg width="24" height="24" viewBox="0 0 24 24" fill="none" xmlns="http://www.w3.org/2000/svg">
<path fill-rule="evenodd" clip-rule="evenodd" d="M10 5.5C10 4.122 11.122 3 12.5 3C13.878 3 15 4.122 15 5.5C15 6.878 13.878 8 12.5 8C11.122 8 10 6.878 10 5.5ZM11 5.5C11 6.327 11.673 7 12.5 7C13.327 7 14 6.327 14 5.5C14 4.673 13.327 4 12.5 4C11.673 4 11 4.673 11 5.5Z" fill="black"/>
<path fill-rule="evenodd" clip-rule="evenodd" d="M16.5 1H15.31C15.062 0.518 14.717 0 13.882 0H11.618C10.783 0 10.438 0.518 10.19 1H8V0.5C8 0.224 7.776 0 7.5 0H7C6.724 0 6.5 0.224 6.5 0.5V1C5.673 1 5 1.673 5 2.5V8.5C5 9.327 5.673 10 6.5 10H16.5C17.327 10 18 9.327 18 8.5V2.5C18 1.673 17.327 1 16.5 1ZM17 8.5C17 8.776 16.776 9 16.5 9H6.5C6.224 9 6 8.776 6 8.5V2.5C6 2.224 6.224 2 6.5 2H10.5C10.689 2 10.863 1.893 10.947 1.723L11.001 1.615C11.271 1.069 11.34 1 11.618 1H13.882C14.16 1 14.23 1.069 14.499 1.615L14.553 1.723C14.637 1.893 14.811 2 15 2H16.5C16.776 2 17 2.224 17 2.5V8.5Z" fill="black"/>
<path fill-rule="evenodd" clip-rule="evenodd" d="M12.196 17.96C12.65 17.867 13 17.482 13 17V12H14.5C14.776 12 15 11.776 15 11.5C15 11.224 14.776 11 14.5 11H8.5C8.224 11 8 11.224 8 11.5C8 11.776 8.224 12 8.5 12H10V17C10 17.482 10.35 17.867 10.804 17.96L5.162 23.131C4.958 23.318 4.945 23.634 5.131 23.838C5.23 23.945 5.365 24 5.5 24C5.621 24 5.742 23.957 5.838 23.869L11 19.137V23.5C11 23.776 11.224 24 11.5 24C11.776 24 12 23.776 12 23.5V19.137L17.162 23.869C17.258 23.957 17.379 24 17.5 24C17.635 24 17.77 23.945 17.869 23.838C18.056 23.634 18.042 23.318 17.838 23.131L12.196 17.96ZM12 12V17H11V12H12Z" fill="black"/>
</svg>
