<svg width="24" height="24" viewBox="0 0 24 24" fill="none" xmlns="http://www.w3.org/2000/svg">
<path d="M10.999 14H1.5C0.673 14 0 13.327 0 12.5V1.5C0 0.673 0.673 0 1.5 0H14.5C15.327 0 16 0.673 16 1.5V9.962C16 10.239 15.776 10.462 15.5 10.462C15.224 10.462 15 10.239 15 9.962V1.5C15 1.224 14.776 1 14.5 1H1.5C1.224 1 1 1.224 1 1.5V12.5C1 12.776 1.224 13 1.5 13H10.999C11.275 13 11.499 13.224 11.499 13.5C11.499 13.776 11.275 14 10.999 14Z" fill="black"/>
<path fill-rule="evenodd" clip-rule="evenodd" d="M14 18C14 19.654 15.346 21 17 21C18.654 21 20 19.654 20 18C20 16.346 18.654 15 17 15C15.346 15 14 16.346 14 18ZM15 18C15 16.896 15.897 16 17 16C18.103 16 19 16.896 19 18C19 19.103 18.103 20 17 20C15.897 20 15 19.103 15 18Z" fill="black"/>
<path fill-rule="evenodd" clip-rule="evenodd" d="M11 18C11 21.309 13.691 24 17 24C20.309 24 23 21.309 23 18C23 14.691 20.309 12 17 12C13.691 12 11 14.691 11 18ZM12 18C12 15.243 14.243 13 17 13C19.757 13 22 15.243 22 18C22 20.757 19.757 23 17 23C14.243 23 12 20.757 12 18Z" fill="black"/>
<path fill-rule="evenodd" clip-rule="evenodd" d="M23.276 12.947C23.347 12.982 23.423 13 23.5 13C23.591 13 23.683 12.976 23.763 12.925C23.91 12.834 24 12.673 24 12.5V1.5C24 1.327 23.91 1.166 23.762 1.075C23.614 0.983 23.431 0.976 23.276 1.053L17.276 4.053C17.107 4.138 17 4.311 17 4.5V9.5C17 9.689 17.107 9.862 17.276 9.947L23.276 12.947ZM23 11.691L18 9.191V4.81L23 2.31V11.691Z" fill="black"/>
</svg>
