<svg width="24" height="24" viewBox="0 0 24 24" fill="none" xmlns="http://www.w3.org/2000/svg">
<path d="M10.999 14H1.5C0.673 14 0 13.327 0 12.5V1.5C0 0.673 0.673 0 1.5 0H14.5C15.327 0 16 0.673 16 1.5V9.962C16 10.239 15.776 10.462 15.5 10.462C15.224 10.462 15 10.239 15 9.962V1.5C15 1.224 14.776 1 14.5 1H1.5C1.224 1 1 1.224 1 1.5V12.5C1 12.776 1.224 13 1.5 13H10.999C11.275 13 11.499 13.224 11.499 13.5C11.499 13.776 11.275 14 10.999 14Z" fill="black"/>
<path d="M15.5 20.5C15.224 20.5 15 20.276 15 20V16C15 15.724 15.224 15.5 15.5 15.5C15.776 15.5 16 15.724 16 16V20C16 20.276 15.776 20.5 15.5 20.5Z" fill="black"/>
<path d="M18 20C18 20.276 18.224 20.5 18.5 20.5C18.776 20.5 19 20.276 19 20V16C19 15.724 18.776 15.5 18.5 15.5C18.224 15.5 18 15.724 18 16V20Z" fill="black"/>
<path fill-rule="evenodd" clip-rule="evenodd" d="M17 24C13.691 24 11 21.309 11 18C11 14.691 13.691 12 17 12C20.309 12 23 14.691 23 18C23 21.309 20.309 24 17 24ZM17 13C14.243 13 12 15.243 12 18C12 20.757 14.243 23 17 23C19.757 23 22 20.757 22 18C22 15.243 19.757 13 17 13Z" fill="black"/>
<path fill-rule="evenodd" clip-rule="evenodd" d="M23.276 12.947C23.347 12.982 23.423 13 23.5 13C23.591 13 23.683 12.976 23.763 12.925C23.91 12.834 24 12.673 24 12.5V1.5C24 1.327 23.91 1.166 23.762 1.075C23.615 0.983 23.43 0.976 23.276 1.053L17.276 4.053C17.107 4.138 17 4.311 17 4.5V9.5C17 9.689 17.107 9.862 17.276 9.947L23.276 12.947ZM23 11.691L18 9.191V4.81L23 2.31V11.691Z" fill="black"/>
</svg>
