<svg width="24" height="24" viewBox="0 0 24 24" fill="none" xmlns="http://www.w3.org/2000/svg">
<path d="M1.5 14H10.999C11.275 14 11.499 13.776 11.499 13.5C11.499 13.224 11.275 13 10.999 13H1.5C1.224 13 1 12.776 1 12.5V1.5C1 1.224 1.224 1 1.5 1H14.5C14.776 1 15 1.224 15 1.5V9.962C15 10.239 15.224 10.462 15.5 10.462C15.776 10.462 16 10.239 16 9.962V1.5C16 0.673 15.327 0 14.5 0H1.5C0.673 0 0 0.673 0 1.5V12.5C0 13.327 0.673 14 1.5 14Z" fill="black"/>
<path fill-rule="evenodd" clip-rule="evenodd" d="M14 20.5C14 20.776 14.224 21 14.5 21H19.5C19.776 21 20 20.776 20 20.5V15.5C20 15.224 19.776 15 19.5 15H14.5C14.224 15 14 15.224 14 15.5V20.5ZM19 16V20H15V16H19Z" fill="black"/>
<path fill-rule="evenodd" clip-rule="evenodd" d="M11 18C11 21.309 13.691 24 17 24C20.309 24 23 21.309 23 18C23 14.691 20.309 12 17 12C13.691 12 11 14.691 11 18ZM12 18C12 15.243 14.243 13 17 13C19.757 13 22 15.243 22 18C22 20.757 19.757 23 17 23C14.243 23 12 20.757 12 18Z" fill="black"/>
<path fill-rule="evenodd" clip-rule="evenodd" d="M23.5 13C23.423 13 23.347 12.982 23.276 12.947L17.276 9.947C17.107 9.862 17 9.689 17 9.5V4.5C17 4.311 17.107 4.138 17.276 4.053L23.276 1.053C23.431 0.976 23.615 0.983 23.762 1.075C23.91 1.166 24 1.327 24 1.5V12.5C24 12.673 23.91 12.834 23.763 12.925C23.683 12.976 23.591 13 23.5 13ZM18 9.191L23 11.691V2.31L18 4.81V9.191Z" fill="black"/>
</svg>
