<svg width="24" height="24" viewBox="0 0 24 24" fill="none" xmlns="http://www.w3.org/2000/svg">
<g clip-path="url(#clip0_315_14115)">
<path fill-rule="evenodd" clip-rule="evenodd" d="M18.5 13H10.5C10.223 13 10 12.776 10 12.5V8.5C10 8.224 10.223 8 10.5 8H18.5C18.776 8 19 8.224 19 8.5V12.5C19 12.776 18.776 13 18.5 13ZM15 12H18V9H15V12ZM14 9H11V12H14V9Z" fill="black"/>
<path fill-rule="evenodd" clip-rule="evenodd" d="M8.50001 3H23.5C23.776 3 24 3.224 24 3.5V19.5C24 19.776 23.776 20 23.5 20H19.702C19.469 21.14 18.46 22 17.252 22C16.044 22 15.034 21.14 14.802 20H0.562012C0.286012 20 0.0620117 19.776 0.0620117 19.5C0.0620117 19.224 0.286012 19 0.562012 19H4.00001V7.5C4.00001 5.019 6.01801 3 8.50001 3ZM15.751 19.5C15.751 20.327 16.424 21 17.251 21C18.079 21 18.751 20.327 18.751 19.5C18.751 18.673 18.078 18 17.251 18C16.424 18 15.751 18.673 15.751 19.5ZM19.702 19H23V4H8.50001C6.57001 4 5.00001 5.57 5.00001 7.5V19H14.802C15.035 17.86 16.044 17 17.252 17C18.46 17 19.47 17.86 19.702 19Z" fill="black"/>
</g>
<defs>
<clipPath id="clip0_315_14115">
<rect width="24" height="24" fill="white"/>
</clipPath>
</defs>
</svg>
