<svg width="24" height="24" viewBox="0 0 24 24" fill="none" xmlns="http://www.w3.org/2000/svg">
<g clip-path="url(#clip0_348_12777)">
<path fill-rule="evenodd" clip-rule="evenodd" d="M5 2.51599C3.897 2.51599 3 3.41299 3 4.51599C3 5.61999 3.897 6.51599 5 6.51599C6.103 6.51599 7 5.61999 7 4.51599C7 3.41299 6.103 2.51599 5 2.51599ZM5 5.51599C4.449 5.51599 4 5.06699 4 4.51599C4 3.96499 4.449 3.51599 5 3.51599C5.551 3.51599 6 3.96499 6 4.51599C6 5.06699 5.551 5.51599 5 5.51599Z" fill="black"/>
<path fill-rule="evenodd" clip-rule="evenodd" d="M9.252 2.99999H22.5C23.327 2.99999 24 3.67299 24 4.49999C24 5.32699 23.327 5.99999 22.5 5.99999H21V7.49999C21 7.77599 20.776 7.99999 20.5 7.99999H18.5C18.224 7.99999 18 7.77599 18 7.49999V5.99999H17V7.49999C17 7.77599 16.776 7.99999 16.5 7.99999H14.5C14.224 7.99999 14 7.77599 14 7.49999V5.99999H9.243C8.611 7.79399 6.919 9.01599 5 9.01599C2.519 9.01599 0.5 6.99699 0.5 4.51599C0.5 2.03499 2.519 0.0159912 5 0.0159912C6.939 0.0159912 8.634 1.22499 9.252 2.99999ZM20.5 4.99999H22.5C22.776 4.99999 23 4.77599 23 4.49999C23 4.22399 22.776 3.99999 22.5 3.99999H8.88C8.65 3.99999 8.451 3.84399 8.395 3.62199C8.01 2.08799 6.614 1.01599 5 1.01599C3.07 1.01599 1.5 2.58599 1.5 4.51599C1.5 6.44599 3.07 8.01599 5 8.01599C6.594 8.01599 7.987 6.92999 8.389 5.37499C8.446 5.15399 8.645 4.99999 8.873 4.99999H14.5C14.776 4.99999 15 5.22399 15 5.49999V6.99999H16V5.49999C16 5.22399 16.224 4.99999 16.5 4.99999H18.5C18.776 4.99999 19 5.22399 19 5.49999V6.99999H20V5.49999C20 5.22399 20.224 4.99999 20.5 4.99999Z" fill="black"/>
<path fill-rule="evenodd" clip-rule="evenodd" d="M19.926 15.219L17.964 10.314C17.888 10.125 17.705 9.99999 17.5 9.99999H6.5C6.295 9.99999 6.112 10.125 6.036 10.314L4.074 15.219L2.147 17.146C2.053 17.24 2 17.367 2 17.5V21.5C2 21.776 2.224 22 2.5 22H3V23.5C3 23.776 3.224 24 3.5 24H6.5C6.776 24 7 23.776 7 23.5V22H17V23.5C17 23.776 17.224 24 17.5 24H20.5C20.776 24 21 23.776 21 23.5V22H21.5C21.776 22 22 21.776 22 21.5V17.5C22 17.367 21.947 17.24 21.854 17.146L19.926 15.219ZM6.838 11H17.161L18.761 15H5.238L6.838 11ZM4 23V22H6V23H4ZM20 22V23H18V22H20ZM3 21V20H7C7.276 20 7.5 19.776 7.5 19.5C7.5 19.224 7.276 19 7 19H3V17.707L4.707 16H19.293L21 17.707V19H17C16.724 19 16.5 19.224 16.5 19.5C16.5 19.776 16.724 20 17 20H21V21H3Z" fill="black"/>
</g>
<defs>
<clipPath id="clip0_348_12777">
<rect width="24" height="24" fill="white"/>
</clipPath>
</defs>
</svg>
