<svg width="24" height="24" viewBox="0 0 24 24" fill="none" xmlns="http://www.w3.org/2000/svg">
<path fill-rule="evenodd" clip-rule="evenodd" d="M19.685 11H23.5C23.776 11 24 11.224 24 11.5V22.5C24 22.776 23.776 23 23.5 23H19.5C19.435 23 19.37 22.986 19.31 22.962C19.187 22.911 19.09 22.813 19.039 22.691C19.013 22.63 19 22.565 19 22.5V11.73L7.79901 2.12995C7.58901 1.94995 7.56501 1.63395 7.74501 1.42495C7.92501 1.21595 8.24101 1.18995 8.45001 1.36995L19.685 11ZM20 21.293L23 18.293V15.96L20 18.957V21.293ZM23 12.188L20 15.206V17.543L23 14.546V12.188ZM20 13.788L21.777 12H20V13.788ZM23 19.707L20.707 22H23V19.707Z" fill="black"/>
<path fill-rule="evenodd" clip-rule="evenodd" d="M12.964 10.315L14.926 15.219L16.854 17.146C16.947 17.24 17 17.367 17 17.5V20.5C17 20.776 16.776 21 16.5 21H16V22.5C16 22.776 15.776 23 15.5 23H12.5C12.224 23 12 22.776 12 22.5V21H5V22.5C5 22.776 4.776 23 4.5 23H1.5C1.223 23 1 22.776 1 22.5V21H0.5C0.223 21 0 20.776 0 20.5V17.5C0 17.367 0.052 17.24 0.147 17.146L2.074 15.218L4.036 10.314C4.112 10.124 4.295 10 4.5 10H12.5C12.704 10 12.888 10.124 12.964 10.315ZM12.161 11H4.838L3.238 15H13.761L12.161 11ZM2 22H4V21H2V22ZM13 22H15V21H13V22ZM1 19V20H16V19H12C11.723 19 11.5 18.776 11.5 18.5C11.5 18.224 11.724 18 12 18H16V17.707L14.293 16H2.707L1 17.707V18H5C5.276 18 5.5 18.224 5.5 18.5C5.5 18.776 5.276 19 5 19H1Z" fill="black"/>
</svg>
