<svg width="24" height="24" viewBox="0 0 24 24" fill="none" xmlns="http://www.w3.org/2000/svg">
<path d="M5.00971 4.40194C5.05645 4.16823 5.26166 4 5.5 4H18.5C18.7383 4 18.9435 4.16823 18.9903 4.40194L19.9903 9.40194C20.0444 9.67272 19.8688 9.93613 19.5981 9.99029C19.3273 10.0444 19.0639 9.86884 19.0097 9.59806L18.0901 5H5.9099L4.99029 9.59806C4.93613 9.86884 4.67272 10.0444 4.40194 9.99029C4.13116 9.93613 3.95555 9.67272 4.00971 9.40194L5.00971 4.40194Z" fill="black"/>
<path d="M12.5 14.5C12.5 14.2239 12.2761 14 12 14C11.7239 14 11.5 14.2239 11.5 14.5V15.5C11.5 15.7761 11.7239 16 12 16C12.2761 16 12.5 15.7761 12.5 15.5V14.5Z" fill="black"/>
<path fill-rule="evenodd" clip-rule="evenodd" d="M1 12.5V17.5C1 17.7761 1.22386 18 1.5 18H22.5C22.7761 18 23 17.7761 23 17.5V12.5C23 12.3106 22.893 12.1375 22.7236 12.0528L20.7236 11.0528C20.6542 11.0181 20.5776 11 20.5 11H3.5C3.42238 11 3.34582 11.0181 3.27639 11.0528L1.27639 12.0528C1.107 12.1375 1 12.3106 1 12.5ZM19.5 14H22V12.809L20.382 12H3.61803L2 12.809V14H5.5C5.77614 14 6 14.2239 6 14.5C6 14.7761 5.77614 15 5.5 15H2V17H22V15H19.5C19.2239 15 19 14.7761 19 14.5C19 14.2239 19.2239 14 19.5 14Z" fill="black"/>
<path d="M2.5 19C2.77614 19 3 19.2239 3 19.5V21H5V19.5C5 19.2239 5.22386 19 5.5 19C5.77614 19 6 19.2239 6 19.5V21.5C6 21.7761 5.77614 22 5.5 22H2.5C2.22386 22 2 21.7761 2 21.5V19.5C2 19.2239 2.22386 19 2.5 19Z" fill="black"/>
<path d="M18.5 19C18.7761 19 19 19.2239 19 19.5V21H21V19.5C21 19.2239 21.2239 19 21.5 19C21.7761 19 22 19.2239 22 19.5V21.5C22 21.7761 21.7761 22 21.5 22H18.5C18.2239 22 18 21.7761 18 21.5V19.5C18 19.2239 18.2239 19 18.5 19Z" fill="black"/>
<path d="M0.5 23C0.223858 23 0 23.2239 0 23.5C0 23.7761 0.223858 24 0.5 24H23.5C23.7761 24 24 23.7761 24 23.5C24 23.2239 23.7761 23 23.5 23H0.5Z" fill="black"/>
</svg>
