<svg width="24" height="24" viewBox="0 0 24 24" fill="none" xmlns="http://www.w3.org/2000/svg">
<g clip-path="url(#clip0_312_15396)">
<path fill-rule="evenodd" clip-rule="evenodd" d="M23.5 2H7C5.346 2 4 3.346 4 5V9.5C4 9.776 4.224 10 4.5 10H5.043C5.246 11.15 6.249 12 7.5 12H19.5C19.776 12 20 11.776 20 11.5V6.734L22.638 5.981C22.796 5.936 22.922 5.814 22.975 5.659L23.975 2.659C24.025 2.506 24 2.338 23.905 2.208C23.812 2.077 23.661 2 23.5 2ZM19 11H7.5C6.804 11 6.254 10.59 6.07 10H15.5C15.776 10 16 9.776 16 9.5V7.877L19 7.02V11ZM22.109 5.092L15.362 7.019C15.148 7.081 15 7.277 15 7.5V9H5V5C5 3.897 5.897 3 7 3H22.807L22.109 5.092Z" fill="black"/>
<path d="M21.5 7.5C21.224 7.5 21 7.724 21 8V10C21 10.276 21.224 10.5 21.5 10.5C21.776 10.5 22 10.276 22 10V8C22 7.724 21.776 7.5 21.5 7.5Z" fill="black"/>
<path d="M8.5 13H12.5C12.776 13 13 13.224 13 13.5C13 13.776 12.776 14 12.5 14H11V18.5C11 18.738 10.832 18.943 10.598 18.991L1 20.91V22.5C1 22.776 0.776 23 0.5 23C0.224 23 0 22.776 0 22.5V18.5C0 18.224 0.224 18 0.5 18C0.776 18 1 18.224 1 18.5V19.89L10 18.09V14H8.5C8.224 14 8 13.776 8 13.5C8 13.224 8.224 13 8.5 13Z" fill="black"/>
</g>
<defs>
<clipPath id="clip0_312_15396">
<rect width="24" height="24" fill="white"/>
</clipPath>
</defs>
</svg>
