<svg width="24" height="24" viewBox="0 0 24 24" fill="none" xmlns="http://www.w3.org/2000/svg">
<path fill-rule="evenodd" clip-rule="evenodd" d="M23.5 0C23.7761 0 24 0.223858 24 0.5C24 0.776142 23.7761 1 23.5 1H20V9H20.5C20.7761 9 21 9.22386 21 9.5V19.5C21 19.7761 20.7761 20 20.5 20H18.5C18.2239 20 18 19.7761 18 19.5V9.5C18 9.22386 18.2239 9 18.5 9H19V1H15V13H15.5C15.7761 13 16 13.2239 16 13.5V23.5C16 23.7761 15.7761 24 15.5 24H13.5C13.2239 24 13 23.7761 13 23.5V13.5C13 13.2239 13.2239 13 13.5 13H14V1H10V9H10.5C10.7761 9 11 9.22386 11 9.5V19.5C11 19.7761 10.7761 20 10.5 20H8.5C8.22386 20 8 19.7761 8 19.5V9.5C8 9.22386 8.22386 9 8.5 9H9V1H5V11H5.5C5.77614 11 6 11.2239 6 11.5V21.5C6 21.7761 5.77614 22 5.5 22H3.5C3.22386 22 3 21.7761 3 21.5V11.5C3 11.2239 3.22386 11 3.5 11H4V1H0.5C0.223858 1 0 0.776142 0 0.5C0 0.223858 0.223858 0 0.5 0H23.5ZM20 10H19V19H20V10ZM14 23V14H15V23H14ZM10 10H9V19H10V10ZM4 21V12H5V21H4Z" fill="black"/>
</svg>
