<svg width="24" height="24" viewBox="0 0 24 24" fill="none" xmlns="http://www.w3.org/2000/svg">
<g clip-path="url(#clip0_312_15421)">
<path d="M11.6464 1.14645C11.8417 0.951184 12.1583 0.951184 12.3536 1.14645L23.8536 12.6464C24.0488 12.8417 24.0488 13.1583 23.8536 13.3536C23.6583 13.5488 23.3417 13.5488 23.1464 13.3536L12 2.20711L0.853553 13.3536C0.658291 13.5488 0.341709 13.5488 0.146447 13.3536C-0.0488155 13.1583 -0.0488155 12.8417 0.146447 12.6464L11.6464 1.14645Z" fill="black"/>
<path d="M16 21.5C16.2761 21.5 16.5 21.2761 16.5 21C16.5 20.7239 16.2761 20.5 16 20.5C15.7239 20.5 15.5 20.7239 15.5 21C15.5 21.2761 15.7239 21.5 16 21.5Z" fill="black"/>
<path d="M8 21.5C8.27614 21.5 8.5 21.2761 8.5 21C8.5 20.7239 8.27614 20.5 8 20.5C7.72386 20.5 7.5 20.7239 7.5 21C7.5 21.2761 7.72386 21.5 8 21.5Z" fill="black"/>
<path d="M12.5 21C12.5 21.2761 12.2761 21.5 12 21.5C11.7239 21.5 11.5 21.2761 11.5 21C11.5 20.7239 11.7239 20.5 12 20.5C12.2761 20.5 12.5 20.7239 12.5 21Z" fill="black"/>
<path fill-rule="evenodd" clip-rule="evenodd" d="M3.5 13C3.77614 13 4 13.2239 4 13.5V18H20V13.5C20 13.2239 20.2239 13 20.5 13C20.7761 13 21 13.2239 21 13.5V23.5C21 23.7761 20.7761 24 20.5 24H3.5C3.22386 24 3 23.7761 3 23.5V13.5C3 13.2239 3.22386 13 3.5 13ZM4 23V19H20V23H4Z" fill="black"/>
<path d="M16 2C15.7239 2 15.5 2.22386 15.5 2.5C15.5 2.77614 15.7239 3 16 3H19V6C19 6.27614 19.2239 6.5 19.5 6.5C19.7761 6.5 20 6.27614 20 6V2.5C20 2.22386 19.7761 2 19.5 2H16Z" fill="black"/>
</g>
<defs>
<clipPath id="clip0_312_15421">
<rect width="24" height="24" fill="white"/>
</clipPath>
</defs>
</svg>
