<svg width="24" height="24" viewBox="0 0 24 24" fill="none" xmlns="http://www.w3.org/2000/svg">
<path d="M11 19C7.14 19 4 15.859 4 12C4 8.141 7.14 5 11 5C12.135 5 13.22 5.264 14.224 5.784C14.469 5.912 14.565 6.214 14.438 6.459C14.311 6.703 14.007 6.8 13.764 6.673C12.903 6.227 11.974 6 11 6C7.691 6 5 8.691 5 12C5 15.309 7.691 18 11 18C12 18 12.989 17.75 13.86 17.275C14.102 17.143 14.406 17.234 14.538 17.475C14.67 17.718 14.58 18.022 14.337 18.154C13.32 18.707 12.166 19 11 19Z" fill="black"/>
<path fill-rule="evenodd" clip-rule="evenodd" d="M15.5 8.5C15.5 9.603 16.397 10.5 17.5 10.5C18.603 10.5 19.5 9.603 19.5 8.5C19.5 7.397 18.603 6.5 17.5 6.5C16.397 6.5 15.5 7.397 15.5 8.5ZM16.5 8.5C16.5 7.948 16.949 7.5 17.5 7.5C18.051 7.5 18.5 7.948 18.5 8.5C18.5 9.052 18.051 9.5 17.5 9.5C16.949 9.5 16.5 9.052 16.5 8.5Z" fill="black"/>
<path fill-rule="evenodd" clip-rule="evenodd" d="M12 24C5.383 24 0 18.617 0 12C0 5.383 5.383 0 12 0C18.617 0 24 5.383 24 12C24 18.617 18.617 24 12 24ZM12 1C5.935 1 1 5.935 1 12C1 18.065 5.935 23 12 23C18.065 23 23 18.065 23 12C23 5.935 18.065 1 12 1Z" fill="black"/>
</svg>
