<svg width="24" height="24" viewBox="0 0 24 24" fill="none" xmlns="http://www.w3.org/2000/svg">
<path fill-rule="evenodd" clip-rule="evenodd" d="M12.0358 4.5C13.1404 4.5 14.0358 3.60458 14.0358 2.5C14.0358 1.39542 13.1404 0.5 12.0358 0.5C10.9312 0.5 10.0358 1.39542 10.0358 2.5C10.0358 3.60458 10.9312 4.5 12.0358 4.5ZM12.0358 3.5C12.5881 3.5 13.0358 3.05228 13.0358 2.5C13.0358 1.94772 12.5881 1.5 12.0358 1.5C11.4836 1.5 11.0358 1.94772 11.0358 2.5C11.0358 3.05228 11.4836 3.5 12.0358 3.5Z" fill="black"/>
<path d="M11.9999 7.5C12.2761 7.5 12.4999 7.27615 12.4999 7C12.4999 6.72385 12.2761 6.5 11.9999 6.5C11.7238 6.5 11.4999 6.72385 11.4999 7C11.4999 7.27615 11.7238 7.5 11.9999 7.5Z" fill="black"/>
<path fill-rule="evenodd" clip-rule="evenodd" d="M15.9999 13C15.9999 15.2091 14.2091 17 11.9999 17C9.7908 17 7.99994 15.2091 7.99994 13C7.99994 10.7909 9.7908 9 11.9999 9C14.2091 9 15.9999 10.7909 15.9999 13ZM14.9999 13C14.9999 14.6569 13.6568 16 11.9999 16C10.3431 16 8.99994 14.6569 8.99994 13C8.99994 11.3431 10.3431 10 11.9999 10C13.6568 10 14.9999 11.3431 14.9999 13Z" fill="black"/>
<path fill-rule="evenodd" clip-rule="evenodd" d="M22.6152 11.6916C21.5646 12.0329 20.4363 11.458 20.095 10.4075C19.7537 9.35696 20.3286 8.22867 21.3791 7.88733C22.4296 7.546 23.5579 8.12089 23.8992 9.17141C24.2406 10.2219 23.6657 11.3502 22.6152 11.6916ZM22.3061 10.7405C21.7809 10.9112 21.2167 10.6237 21.0461 10.0985C20.8754 9.57322 21.1629 9.00905 21.6881 8.83839C22.2134 8.66773 22.7775 8.95518 22.9482 9.48043C23.1188 10.0057 22.8314 10.5698 22.3061 10.7405Z" fill="black"/>
<path d="M17.8608 11.6214C17.5981 11.7068 17.3161 11.563 17.2307 11.3004C17.1454 11.0378 17.2891 10.7557 17.5518 10.6704C17.8144 10.585 18.0965 10.7287 18.1818 10.9914C18.2671 11.254 18.1234 11.5361 17.8608 11.6214Z" fill="black"/>
<path d="M15.2328 17.4496C15.0094 17.6119 14.9598 17.9246 15.1221 18.148C15.2845 18.3714 15.5971 18.421 15.8206 18.2586C16.044 18.0963 16.0935 17.7836 15.9312 17.5602C15.7688 17.3368 15.4562 17.2873 15.2328 17.4496Z" fill="black"/>
<path fill-rule="evenodd" clip-rule="evenodd" d="M16.9671 19.8978C16.0735 20.547 15.8754 21.7977 16.5246 22.6914C17.1739 23.585 18.4246 23.7831 19.3182 23.1338C20.2119 22.4846 20.41 21.2339 19.7607 20.3402C19.1114 19.4466 17.8607 19.2485 16.9671 19.8978ZM17.5549 20.7068C17.1081 21.0314 17.009 21.6568 17.3336 22.1036C17.6583 22.5504 18.2836 22.6494 18.7304 22.3248C19.1772 22.0002 19.2763 21.3748 18.9517 20.928C18.6271 20.4812 18.0017 20.3822 17.5549 20.7068Z" fill="black"/>
<path d="M8.0687 17.5602C8.23102 17.3368 8.54369 17.2873 8.7671 17.4496C8.99052 17.6119 9.04004 17.9246 8.87772 18.148C8.7154 18.3714 8.40273 18.4209 8.17932 18.2586C7.95591 18.0963 7.90638 17.7836 8.0687 17.5602Z" fill="black"/>
<path fill-rule="evenodd" clip-rule="evenodd" d="M4.18111 20.298C4.83037 19.4044 6.08109 19.2063 6.97471 19.8556C7.86834 20.5048 8.06643 21.7555 7.41718 22.6492C6.76792 23.5428 5.5172 23.7409 4.62357 23.0916C3.72995 22.4424 3.53185 21.1917 4.18111 20.298ZM4.99013 20.8858C5.31475 20.439 5.94013 20.34 6.38693 20.6646C6.83373 20.9892 6.93278 21.6146 6.60816 22.0614C6.28354 22.5082 5.65816 22.6072 5.21136 22.2826C4.76456 21.958 4.66551 21.3326 4.99013 20.8858Z" fill="black"/>
<path fill-rule="evenodd" clip-rule="evenodd" d="M3.92707 10.3392C4.2684 9.2887 3.69351 8.16041 2.64299 7.81907C1.59247 7.47774 0.464179 8.05263 0.122844 9.10315C-0.218491 10.1537 0.356401 11.282 1.40692 11.6233C2.45744 11.9646 3.58574 11.3897 3.92707 10.3392ZM2.97601 10.0302C3.14668 9.50496 2.85922 8.94079 2.33397 8.77013C1.80873 8.59947 1.24456 8.88692 1.0739 9.41217C0.903238 9.93741 1.19069 10.5016 1.71594 10.6722C2.24119 10.8429 2.80535 10.5554 2.97601 10.0302Z" fill="black"/>
<path d="M6.76915 11.3004C6.85449 11.0378 6.71077 10.7557 6.44813 10.6704C6.18549 10.585 5.90343 10.7287 5.81809 10.9914C5.73276 11.254 5.87647 11.5361 6.13911 11.6214C6.40175 11.7068 6.68381 11.563 6.76915 11.3004Z" fill="black"/>
</svg>
