<svg width="24" height="24" viewBox="0 0 24 24" fill="none" xmlns="http://www.w3.org/2000/svg">
<g clip-path="url(#clip0_313_14076)">
<path d="M21.6795 15H19.6855C19.1945 12.208 16.5995 10.201 13.7385 10.476L6.91148 11.245C7.07748 10.82 7.10148 10.358 6.96148 9.918L4.22648 1.343C3.89848 0.312001 2.74648 -0.283999 1.71248 0.046001C0.663478 0.381001 0.0804778 1.508 0.414478 2.559L3.14948 11.133C3.33248 11.707 3.75948 12.134 4.28948 12.355L6.10548 16.442L1.27248 23.21C1.11248 23.434 1.16448 23.747 1.38848 23.907C1.47748 23.97 1.57848 24 1.67948 24C1.83448 24 1.98948 23.927 2.08648 23.791L6.35648 17.814C6.66848 18.511 7.36748 19 8.17948 19H19.1565L19.6825 23.557C19.7115 23.812 19.9285 24 20.1785 24C20.1985 24 20.2175 23.999 20.2375 23.997C20.5115 23.965 20.7085 23.717 20.6765 23.443L20.1635 19H21.6795C22.7825 19 23.6795 18.103 23.6795 17C23.6795 15.897 22.7825 15 21.6795 15ZM1.36748 2.255C1.20048 1.73 1.49148 1.166 2.01748 0.998001C2.11748 0.967001 2.21948 0.951001 2.32248 0.951001C2.75848 0.951001 3.14048 1.231 3.27348 1.647L6.00748 10.221C6.08948 10.476 6.06648 10.747 5.94448 10.984C5.84448 11.176 5.68048 11.311 5.49048 11.405L4.84048 11.478C4.50748 11.399 4.21148 11.17 4.10448 10.829L1.36748 2.255ZM5.43348 12.466C5.50948 12.451 5.58848 12.454 5.66248 12.431C5.70448 12.417 5.74048 12.395 5.78148 12.379L13.8415 11.471C16.1125 11.257 18.1705 12.811 18.6505 15H8.17948C7.64748 15 7.16448 15.212 6.80648 15.553L5.43348 12.466ZM8.17948 18C7.62748 18 7.17948 17.551 7.17948 17C7.17948 16.449 7.62748 16 8.17948 16H18.8105L19.0405 18H8.17948ZM21.6795 18H20.0485L19.8175 16H21.6795C22.2315 16 22.6795 16.449 22.6795 17C22.6795 17.551 22.2315 18 21.6795 18Z" fill="black"/>
</g>
<defs>
<clipPath id="clip0_313_14076">
<rect width="24" height="24" fill="white"/>
</clipPath>
</defs>
</svg>
