<svg width="24" height="24" viewBox="0 0 24 24" fill="none" xmlns="http://www.w3.org/2000/svg">
<g clip-path="url(#clip0_313_14113)">
<path fill-rule="evenodd" clip-rule="evenodd" d="M21.4588 9.72L12.3958 0.157C12.393 0.153713 12.3894 0.151626 12.3858 0.149589C12.3829 0.147908 12.38 0.146261 12.3778 0.144C12.3574 0.124478 12.3334 0.109279 12.3095 0.0941216L12.2968 0.086C12.2888 0.0811506 12.2821 0.0753294 12.2753 0.069479C12.2666 0.0620616 12.2579 0.0545893 12.2468 0.049C12.245 0.0478 12.2432 0.04768 12.2414 0.04756C12.2402 0.04748 12.239 0.0474 12.2378 0.047C12.2341 0.0451761 12.2305 0.043768 12.2269 0.0423965C12.2227 0.0407607 12.2186 0.0391754 12.2148 0.037C12.1867 0.0261221 12.1569 0.021818 12.1263 0.0173838L12.1168 0.016C12.1078 0.014508 12.0987 0.0123202 12.0895 0.0101115C12.0741 0.00639889 12.0584 0.00262699 12.0428 0.002C12.0414 0.002 12.04 0.00156918 12.0385 0.00110745C12.0368 0.00057447 12.0349 0 12.0328 0H12.0318C12.0304 0 12.029 0.000430817 12.0275 0.000892549C12.0258 0.00142567 12.0239 0.002 12.0218 0.002C12.0025 0.002 11.9832 0.00710182 11.9639 0.0122038C11.9562 0.0142447 11.9485 0.0162856 11.9408 0.018C11.9321 0.0196764 11.9234 0.0210405 11.9148 0.0223977C11.8926 0.025898 11.8707 0.0293531 11.8498 0.038C11.8461 0.0398239 11.8425 0.041232 11.8389 0.0426034C11.8347 0.0442397 11.8306 0.0458239 11.8268 0.048C11.8252 0.0483928 11.8238 0.048477 11.8225 0.0485557C11.8204 0.0486773 11.8186 0.0487856 11.8168 0.05C11.8056 0.0555893 11.7969 0.0630531 11.7883 0.0704705C11.7815 0.076321 11.7747 0.0821506 11.7668 0.087C11.7588 0.0924226 11.7508 0.0974379 11.7429 0.102395C11.7231 0.114803 11.7039 0.126853 11.6868 0.144C11.6843 0.1465 11.6813 0.14825 11.6783 0.15C11.6753 0.15175 11.6723 0.1535 11.6698 0.156L2.46577 9.775C1.93777 10.359 1.71377 11.17 1.86777 11.942C2.02177 12.714 2.53877 13.377 3.25077 13.713C3.65177 13.903 4.08377 14 4.53177 14C5.57377 14 6.49377 13.466 7.03177 12.656C7.56977 13.466 8.48977 14 9.53177 14C10.3008 14 11.0008 13.706 11.5318 13.229V24H12.5318V13.229C13.0628 13.706 13.7628 14 14.5318 14C15.5738 14 16.4938 13.466 17.0318 12.656C17.5698 13.466 18.4898 14 19.5318 14C19.8388 14 20.1408 13.954 20.4318 13.862C21.2598 13.6 21.9028 12.914 22.1088 12.072C22.3158 11.229 22.0618 10.323 21.4588 9.72ZM4.53177 13C4.23177 13 3.94477 12.936 3.67777 12.81C3.25077 12.608 2.94077 12.211 2.84777 11.748C2.75477 11.285 2.88977 10.798 3.19777 10.457L10.2448 3.092L6.58077 10.786C6.58027 10.7875 6.58002 10.7893 6.57977 10.791C6.57952 10.7927 6.57927 10.7945 6.57877 10.796C6.56668 10.821 6.56174 10.8486 6.55661 10.8772L6.55277 10.898C6.55065 10.9089 6.54779 10.9199 6.54492 10.9308C6.53967 10.9509 6.53442 10.9709 6.53377 10.991C6.53377 10.9915 6.53366 10.992 6.53349 10.9926C6.53336 10.993 6.5332 10.9935 6.53302 10.994C6.53245 10.9957 6.53177 10.9977 6.53177 11C6.53177 12.103 5.63477 13 4.53177 13ZM9.53177 13C8.46177 13 7.59077 12.151 7.54177 11.093L11.5318 2.713V11C11.5318 12.103 10.6348 13 9.53177 13ZM14.5318 13C13.4288 13 12.5318 12.103 12.5318 11V2.713L16.5218 11.093C16.4728 12.151 15.6018 13 14.5318 13ZM21.1378 11.834C21.0138 12.34 20.6278 12.752 20.1318 12.909C19.9388 12.97 19.7368 13 19.5318 13C18.4288 13 17.5318 12.103 17.5318 11C17.5318 10.998 17.5313 10.9963 17.5308 10.9945C17.5303 10.9928 17.5298 10.991 17.5298 10.989C17.5291 10.9669 17.5232 10.9447 17.5174 10.9226C17.5151 10.9137 17.5128 10.9049 17.5108 10.896C17.5086 10.8864 17.5067 10.8769 17.5048 10.8674C17.4998 10.8421 17.4949 10.8172 17.4848 10.794C17.4844 10.7928 17.4843 10.7914 17.4842 10.79C17.4841 10.7889 17.4841 10.7877 17.4838 10.7866C17.4836 10.7857 17.4833 10.7848 17.4828 10.784L13.8388 3.134L20.7408 10.416C21.1098 10.785 21.2608 11.328 21.1378 11.834Z" fill="black"/>
<path d="M21.1398 15.527C20.8678 15.468 20.6028 15.638 20.5428 15.907L19.6318 20H15.0318C14.7558 20 14.5318 20.224 14.5318 20.5V23.484C14.5318 23.76 14.7558 23.984 15.0318 23.984C15.3078 23.984 15.5318 23.76 15.5318 23.484V21H19.5318V23.5C19.5318 23.776 19.7558 24 20.0318 24C20.3078 24 20.5318 23.776 20.5318 23.5V20.557L21.5198 16.124C21.5798 15.854 21.4098 15.588 21.1398 15.527Z" fill="black"/>
<path d="M4.43176 20H9.03176C9.30776 20 9.53176 20.224 9.53176 20.5V23.484C9.53176 23.76 9.30776 23.984 9.03176 23.984C8.75576 23.984 8.53176 23.76 8.53176 23.484V21H4.53176V23.5C4.53176 23.776 4.30776 24 4.03176 24C3.75576 24 3.53176 23.776 3.53176 23.5V20.557L2.54276 16.124C2.48376 15.854 2.65276 15.588 2.92276 15.527C3.19476 15.469 3.45976 15.638 3.51976 15.907L4.43176 20Z" fill="black"/>
</g>
<defs>
<clipPath id="clip0_313_14113">
<rect width="24" height="24" fill="white"/>
</clipPath>
</defs>
</svg>
