<svg width="24" height="24" viewBox="0 0 24 24" fill="none" xmlns="http://www.w3.org/2000/svg">
<path d="M22.5 9H19V6.5V1.5V0.5C19 0.224 18.776 0 18.5 0C18.224 0 18 0.224 18 0.5V1H6V0.5C6 0.224 5.776 0 5.5 0C5.224 0 5 0.224 5 0.5V1.5V6.5V9H1.5C1.224 9 1 9.224 1 9.5C1 9.776 1.224 10 1.5 10H3V14.5C3 14.58 3.022 14.652 3.056 14.719C3.059 14.725 3.057 14.73 3.06 14.736C3.066 14.747 3.079 14.752 3.085 14.762C3.12 14.817 3.163 14.863 3.217 14.9C3.235 14.913 3.249 14.925 3.269 14.935C3.339 14.973 3.415 15 3.5 15H4.857L11.051 18.845L4.236 23.075C4.002 23.221 3.929 23.529 4.075 23.763C4.17 23.916 4.333 24 4.5 24C4.591 24 4.682 23.976 4.764 23.925L12 19.433L19.236 23.925C19.318 23.976 19.409 24 19.5 24C19.667 24 19.83 23.916 19.925 23.764C20.071 23.53 19.998 23.221 19.764 23.076L12.949 18.846L19.143 15H20.5C20.585 15 20.661 14.973 20.731 14.936C20.751 14.926 20.765 14.914 20.783 14.901C20.837 14.863 20.88 14.818 20.915 14.763C20.922 14.752 20.935 14.748 20.94 14.737C20.943 14.731 20.941 14.726 20.944 14.72C20.978 14.652 21 14.58 21 14.5V10H22.5C22.776 10 23 9.776 23 9.5C23 9.224 22.776 9 22.5 9ZM6 7H18V11H6V7ZM18 2V6H6V2H18ZM5 10V11.349L4 12.849V10H5ZM12 18.256L6.754 15H17.246L12 18.256ZM4.435 14L5.768 12H18.233L19.566 14H4.435ZM20 12.849L19 11.349V10H20V12.849Z" fill="black"/>
</svg>
