<svg width="24" height="24" viewBox="0 0 24 24" fill="none" xmlns="http://www.w3.org/2000/svg">
<path fill-rule="evenodd" clip-rule="evenodd" d="M3.94747 10.472C4.45447 7.04199 9.41147 2.91599 12.1415 2.91599C14.4705 2.91599 19.6295 7.04199 20.1575 10.56C20.3745 12.011 19.9355 13.956 16.6025 14.978C16.5565 14.993 16.5065 15 16.4565 15H7.73547C7.68647 15 7.63747 14.993 7.59047 14.978C5.71047 14.41 4.75547 13.535 4.29347 12.655C4.23747 12.588 4.19747 12.511 4.18147 12.426C3.87047 11.704 3.86947 10.996 3.94747 10.472ZM12.1415 3.91599C10.0355 3.91599 5.39247 7.53399 4.93647 10.619C4.88747 10.952 4.90347 11.261 4.95947 11.556C5.34447 11.408 5.92347 11.269 6.84347 11.151C9.97747 10.75 16.8085 10.775 19.1485 11.601C19.2015 11.32 19.2165 11.025 19.1685 10.707C18.6945 7.54099 13.8845 3.91599 12.1415 3.91599ZM7.81047 14H16.3795C17.5405 13.635 18.3315 13.123 18.7765 12.482C16.6705 11.694 7.23947 11.661 5.34647 12.452C5.80647 13.108 6.62047 13.63 7.81047 14Z" fill="black"/>
<path fill-rule="evenodd" clip-rule="evenodd" d="M0.865479 11.766C0.865479 6.268 6.89648 0 12.1875 0C17.2005 0 23.1335 6.465 23.1345 11.927C23.1345 14.009 22.2505 15.747 20.5765 16.954C18.7815 18.249 16.0945 18.928 12.6045 18.989V23H18.6045C18.8805 23 19.1045 23.224 19.1045 23.5C19.1045 23.776 18.8805 24 18.6045 24H5.60448C5.32848 24 5.10448 23.776 5.10448 23.5C5.10448 23.224 5.32848 23 5.60448 23H11.6045V18.989C8.05748 18.927 5.32148 18.23 3.48248 16.899C1.77048 15.66 0.865479 13.885 0.865479 11.766ZM12.1045 18C15.6295 18 18.2845 17.376 19.9915 16.144C21.4135 15.118 22.1335 13.699 22.1335 11.927C22.1335 7.026 16.6495 1 12.1875 1C7.46048 1 1.86548 6.835 1.86548 11.766C1.86548 13.576 2.60648 15.031 4.06948 16.089C5.82048 17.357 8.52348 18 12.1045 18Z" fill="black"/>
</svg>
