<svg width="24" height="24" viewBox="0 0 24 24" fill="none" xmlns="http://www.w3.org/2000/svg">
<g clip-path="url(#clip0_313_14086)">
<path d="M21 7C19.621 7 18.5 8.122 18.5 9.5C18.5 9.776 18.724 10 19 10H20.41L19.576 15H18.5C18.5 14.191 17.857 13.531 17.056 13.501C16.738 13.436 16.414 13.382 16.091 13.33C16.692 11.637 18.5 6.458 18.5 5.5C18.5 2.812 16.023 0.316002 13.092 0.0490024C12.397 -0.0129976 11.604 -0.0129976 10.908 0.0490024C7.987 0.314002 5.511 2.81 5.5 5.498C5.496 6.46 7.315 11.659 7.913 13.342C7.607 13.391 7.302 13.44 7 13.5C6.173 13.5 5.5 14.173 5.5 15H4.424L3.59 10H5C5.276 10 5.5 9.776 5.5 9.5C5.5 8.122 4.379 7 3 7C1.621 7 0.5 8.122 0.5 9.5C0.5 9.776 0.724 10 1 10H2.576L3.507 15.582C3.547 15.823 3.756 16 4 16H5.5V16.5C5.5 17.327 6.173 18 7 18H11.5V19.035C8.692 19.19 7.192 20.539 6.752 21.025C6.043 21.145 5.5 21.758 5.5 22.5C5.5 23.327 6.173 24 7 24C7.827 24 8.5 23.327 8.5 22.5C8.5 22.015 8.265 21.588 7.907 21.314C8.504 20.825 9.669 20.148 11.5 20.035V21C11.5 21.031 11.512 21.058 11.518 21.087C10.928 21.29 10.5 21.843 10.5 22.5C10.5 23.327 11.173 24 12 24C12.827 24 13.5 23.327 13.5 22.5C13.5 21.843 13.072 21.29 12.482 21.087C12.488 21.058 12.5 21.031 12.5 21V20.034C14.34 20.148 15.5 20.824 16.095 21.312C15.735 21.586 15.5 22.015 15.5 22.5C15.5 23.327 16.173 24 17 24C17.827 24 18.5 23.327 18.5 22.5C18.5 21.758 17.957 21.145 17.248 21.025C16.808 20.54 15.308 19.191 12.5 19.035V18H17C17.827 18 18.5 17.327 18.5 16.5V16H20C20.244 16 20.453 15.823 20.493 15.582L21.424 10H23C23.276 10 23.5 9.776 23.5 9.5C23.5 8.122 22.379 7 21 7ZM3 8C3.652 8 4.208 8.418 4.414 9H1.586C1.792 8.418 2.348 8 3 8ZM7 23C6.725 23 6.5 22.776 6.5 22.5C6.5 22.224 6.725 22 7 22C7.275 22 7.5 22.224 7.5 22.5C7.5 22.776 7.275 23 7 23ZM17 23C16.725 23 16.5 22.776 16.5 22.5C16.5 22.224 16.725 22 17 22C17.275 22 17.5 22.224 17.5 22.5C17.5 22.776 17.275 23 17 23ZM12 23C11.725 23 11.5 22.776 11.5 22.5C11.5 22.224 11.725 22 12 22C12.275 22 12.5 22.224 12.5 22.5C12.5 22.776 12.275 23 12 23ZM6.5 5.502C6.509 3.307 8.568 1.266 10.998 1.045C11.635 0.989002 12.365 0.989002 13.002 1.045C15.44 1.267 17.5 3.307 17.5 5.5C17.5 6.085 16.262 9.869 15.079 13.19C13.049 12.948 10.965 12.955 8.924 13.201C7.739 9.878 6.498 6.086 6.5 5.502ZM17.5 16.5C17.5 16.776 17.275 17 17 17H7C6.725 17 6.5 16.776 6.5 16.5V15C6.5 14.724 6.725 14.5 7.095 14.491C8.778 14.166 10.456 14 12.083 14C13.708 14 15.328 14.164 16.898 14.489C16.931 14.496 16.965 14.499 17 14.499C17.275 14.499 17.5 14.723 17.5 14.999V16.5ZM19.586 9C19.792 8.418 20.348 8 21 8C21.652 8 22.208 8.418 22.414 9H19.586Z" fill="black"/>
</g>
<defs>
<clipPath id="clip0_313_14086">
<rect width="24" height="24" fill="white"/>
</clipPath>
</defs>
</svg>
