<svg width="24" height="24" viewBox="0 0 24 24" fill="none" xmlns="http://www.w3.org/2000/svg">
<path fill-rule="evenodd" clip-rule="evenodd" d="M22 10C21.724 10 21.5 10.224 21.5 10.5V11.5C21.5 13.982 19.481 16 17 16C14.688 16 12.799 14.24 12.55 11.993C13.182 12.615 14.046 13 15 13C16.93 13 18.5 11.43 18.5 9.5V8C18.5 7.724 18.276 7.5 18 7.5C17.724 7.5 17.5 7.724 17.5 8V9.5C17.5 10.878 16.379 12 15 12C13.621 12 12.5 10.878 12.5 9.5V2.966C13.892 2.806 15.156 1.991 15.877 0.752C15.968 0.597 15.968 0.406 15.879 0.251C15.79 0.096 15.624 0 15.445 0H8.555C8.376 0 8.21 0.096 8.121 0.251C8.032 0.406 8.032 0.597 8.123 0.752C8.844 1.991 10.108 2.807 11.5 2.966V9.5C11.5 10.878 10.379 12 9 12C7.621 12 6.5 10.878 6.5 9.5V8C6.5 7.724 6.276 7.5 6 7.5C5.724 7.5 5.5 7.724 5.5 8V9.5C5.5 11.43 7.07 13 9 13C9.954 13 10.818 12.615 11.45 11.993C11.201 14.24 9.312 16 7 16C4.519 16 2.5 13.982 2.5 11.5V10.5C2.5 10.224 2.276 10 2 10C1.724 10 1.5 10.224 1.5 10.5V11.5C1.5 14.533 3.968 17 7 17C8.859 17 10.504 16.069 11.5 14.652V16C11.5 16.276 11.724 16.5 12 16.5C12.276 16.5 12.5 16.276 12.5 16V14.652C13.496 16.069 15.141 17 17 17C20.032 17 22.5 14.533 22.5 11.5V10.5C22.5 10.224 22.276 10 22 10ZM14.434 1C13.79 1.638 12.929 2 12 2C11.071 2 10.21 1.638 9.566 1H14.434Z" fill="black"/>
<path fill-rule="evenodd" clip-rule="evenodd" d="M7.5 5.50001C7.5 6.32701 6.827 7.00001 6 7.00001C5.173 7.00001 4.5 6.32701 4.5 5.50001C4.5 4.86101 5.262 3.69001 5.589 3.21601C5.774 2.94501 6.225 2.94501 6.411 3.21601C6.738 3.69001 7.5 4.86101 7.5 5.50001ZM6.5 5.50001C6.496 5.34801 6.288 4.91201 6 4.42701C5.712 4.91201 5.504 5.34801 5.5 5.50001C5.5 5.77601 5.725 6.00001 6 6.00001C6.275 6.00001 6.5 5.77601 6.5 5.50001Z" fill="black"/>
<path fill-rule="evenodd" clip-rule="evenodd" d="M2.411 5.71601C2.738 6.19001 3.5 7.36101 3.5 8.00001C3.5 8.82701 2.827 9.50001 2 9.50001C1.173 9.50001 0.5 8.82701 0.5 8.00001C0.5 7.36101 1.262 6.19001 1.589 5.71601C1.774 5.44501 2.225 5.44501 2.411 5.71601ZM2 6.92701C1.712 7.41201 1.504 7.84701 1.5 8.00001C1.5 8.27601 1.725 8.50001 2 8.50001C2.275 8.50001 2.5 8.27601 2.5 8.00001C2.496 7.84801 2.288 7.41201 2 6.92701Z" fill="black"/>
<path fill-rule="evenodd" clip-rule="evenodd" d="M21.589 5.71601C21.774 5.44501 22.225 5.44501 22.411 5.71601C22.738 6.19001 23.5 7.36101 23.5 8.00001C23.5 8.82701 22.827 9.50001 22 9.50001C21.173 9.50001 20.5 8.82701 20.5 8.00001C20.5 7.36101 21.262 6.19001 21.589 5.71601ZM21.5 8.00001C21.5 8.27601 21.725 8.50001 22 8.50001C22.275 8.50001 22.5 8.27601 22.5 8.00001C22.496 7.84801 22.288 7.41201 22 6.92701C21.712 7.41201 21.504 7.84701 21.5 8.00001Z" fill="black"/>
<path fill-rule="evenodd" clip-rule="evenodd" d="M18 7.00001C18.827 7.00001 19.5 6.32701 19.5 5.50001C19.5 4.86101 18.738 3.69001 18.411 3.21601C18.225 2.94501 17.774 2.94501 17.589 3.21601C17.262 3.69001 16.5 4.86101 16.5 5.50001C16.5 6.32701 17.173 7.00001 18 7.00001ZM18 4.42701C18.288 4.91201 18.496 5.34701 18.5 5.50001C18.5 5.77601 18.275 6.00001 18 6.00001C17.725 6.00001 17.5 5.77601 17.5 5.50001C17.504 5.34801 17.712 4.91201 18 4.42701Z" fill="black"/>
<path fill-rule="evenodd" clip-rule="evenodd" d="M10.5 18.5C10.5 17.673 11.173 17 12 17C12.827 17 13.5 17.673 13.5 18.5C13.5 19.14 12.738 20.311 12.411 20.784C12.318 20.919 12.164 21 12 21C11.836 21 11.682 20.919 11.589 20.784C11.262 20.311 10.5 19.14 10.5 18.5ZM11.5 18.5C11.504 18.652 11.712 19.088 12 19.573C12.288 19.088 12.496 18.652 12.5 18.5C12.5 18.224 12.275 18 12 18C11.725 18 11.5 18.224 11.5 18.5Z" fill="black"/>
<path fill-rule="evenodd" clip-rule="evenodd" d="M17 20C16.173 20 15.5 20.673 15.5 21.5C15.5 22.14 16.262 23.311 16.589 23.784C16.682 23.919 16.836 24 17 24C17.164 24 17.318 23.919 17.411 23.784C17.738 23.311 18.5 22.14 18.5 21.5C18.5 20.673 17.827 20 17 20ZM17 22.573C16.712 22.088 16.504 21.652 16.5 21.5C16.5 21.224 16.725 21 17 21C17.275 21 17.5 21.224 17.5 21.5C17.496 21.652 17.288 22.088 17 22.573Z" fill="black"/>
<path d="M17 17.5C17.276 17.5 17.5 17.724 17.5 18V19C17.5 19.276 17.276 19.5 17 19.5C16.724 19.5 16.5 19.276 16.5 19V18C16.5 17.724 16.724 17.5 17 17.5Z" fill="black"/>
<path fill-rule="evenodd" clip-rule="evenodd" d="M7 20C6.173 20 5.5 20.673 5.5 21.5C5.5 22.14 6.262 23.311 6.589 23.784C6.682 23.919 6.836 24 7 24C7.164 24 7.318 23.919 7.411 23.784C7.738 23.311 8.5 22.14 8.5 21.5C8.5 20.673 7.827 20 7 20ZM7 22.573C6.712 22.088 6.504 21.652 6.5 21.5C6.5 21.224 6.725 21 7 21C7.275 21 7.5 21.224 7.5 21.5C7.496 21.652 7.288 22.088 7 22.573Z" fill="black"/>
<path d="M7.5 18V19C7.5 19.276 7.276 19.5 7 19.5C6.724 19.5 6.5 19.276 6.5 19V18C6.5 17.724 6.724 17.5 7 17.5C7.276 17.5 7.5 17.724 7.5 18Z" fill="black"/>
</svg>
