<svg width="24" height="24" viewBox="0 0 24 24" fill="none" xmlns="http://www.w3.org/2000/svg">
<path d="M17.3412 8.86553C17.543 8.67711 17.5539 8.36072 17.3655 8.15884C17.1771 7.95697 16.8607 7.94606 16.6588 8.13447L9.51198 14.8049L7.35355 12.6464C7.15829 12.4512 6.84171 12.4512 6.64645 12.6464C6.45118 12.8417 6.45118 13.1583 6.64645 13.3536L9.14645 15.8536C9.33697 16.0441 9.64419 16.0494 9.84116 15.8655L17.3412 8.86553Z" fill="black"/>
<path fill-rule="evenodd" clip-rule="evenodd" d="M24 12C24 18.6274 18.6274 24 12 24C5.37258 24 0 18.6274 0 12C0 5.37258 5.37258 0 12 0C18.6274 0 24 5.37258 24 12ZM23 12C23 18.0751 18.0751 23 12 23C5.92487 23 1 18.0751 1 12C1 5.92487 5.92487 1 12 1C18.0751 1 23 5.92487 23 12Z" fill="black"/>
</svg>
