<svg width="24" height="24" viewBox="0 0 24 24" fill="none" xmlns="http://www.w3.org/2000/svg">
<path d="M18.0171 3.56201C17.5471 3.56201 17.0791 3.64501 16.6411 3.80601C15.8971 2.25101 13.9511 1.06201 12.0141 1.06201C10.0651 1.06201 8.10711 2.25101 7.36111 3.80601C6.92211 3.64501 6.45611 3.56201 5.98611 3.56201C3.78011 3.56201 1.98511 5.35601 1.98511 7.56201C1.98511 9.63501 3.48611 11.293 5.48411 11.533V23.5C5.48411 23.776 5.70811 24 5.98411 24H17.9841C18.2601 24 18.4841 23.776 18.4841 23.5V11.532C20.5011 11.295 22.0151 9.63601 22.0151 7.56101C22.0151 5.35501 20.2211 3.56201 18.0171 3.56201ZM6.48411 23V20H17.4841V23H6.48411ZM17.9841 10.562C17.7081 10.562 17.4841 10.786 17.4841 11.062V19H15.4841V15.5C15.4841 15.224 15.2601 15 14.9841 15C14.7081 15 14.4841 15.224 14.4841 15.5V19H12.4841V14.5C12.4841 14.224 12.2601 14 11.9841 14C11.7081 14 11.4841 14.224 11.4841 14.5V19H9.48411V15.5C9.48411 15.224 9.26011 15 8.98411 15C8.70811 15 8.48411 15.224 8.48411 15.5V19H6.48411V11.062C6.48411 10.786 6.26011 10.562 5.98411 10.562C4.30211 10.562 2.98511 9.24501 2.98511 7.56201C2.98511 5.90801 4.33211 4.56201 5.98611 4.56201C6.47911 4.56201 6.96911 4.68501 7.40211 4.91701C7.53511 4.98901 7.69511 4.99801 7.83411 4.93701C7.97411 4.87801 8.07911 4.75901 8.12011 4.61301C8.51011 3.22901 10.2941 2.06201 12.0141 2.06201C13.7211 2.06201 15.4921 3.23001 15.8811 4.61301C15.9221 4.75901 16.0271 4.87901 16.1671 4.93701C16.3071 4.99501 16.4661 4.99001 16.5991 4.91701C17.0321 4.68501 17.5221 4.56201 18.0171 4.56201C19.6701 4.56201 21.0151 5.90801 21.0151 7.56201C21.0151 9.24401 19.6841 10.562 17.9841 10.562Z" fill="black"/>
</svg>
