<svg width="24" height="24" viewBox="0 0 24 24" fill="none" xmlns="http://www.w3.org/2000/svg">
<path d="M11.9998 4.98871C12.276 4.98871 12.4998 4.76472 12.4998 4.48841C12.4998 4.21211 12.276 3.98812 11.9998 3.98812C11.7237 3.98812 11.4998 4.21211 11.4998 4.48841C11.4998 4.76472 11.7237 4.98871 11.9998 4.98871Z" fill="black"/>
<path d="M12.4998 6.4896C12.4998 6.76591 12.276 6.9899 11.9998 6.9899C11.7237 6.9899 11.4998 6.76591 11.4998 6.4896C11.4998 6.21329 11.7237 5.9893 11.9998 5.9893C12.276 5.9893 12.4998 6.21329 12.4998 6.4896Z" fill="black"/>
<path d="M12.4998 11.4926C12.4998 11.7689 12.276 11.9929 11.9998 11.9929C11.7237 11.9929 11.4998 11.7689 11.4998 11.4926C11.4998 11.2163 11.7237 10.9923 11.9998 10.9923C12.276 10.9923 12.4998 11.2163 12.4998 11.4926Z" fill="black"/>
<path d="M10.4998 10.492C10.4998 10.7683 10.276 10.9923 9.99982 10.9923C9.72367 10.9923 9.49982 10.7683 9.49982 10.492C9.49982 10.2157 9.72367 9.99168 9.99982 9.99168C10.276 9.99168 10.4998 10.2157 10.4998 10.492Z" fill="black"/>
<path d="M13.9998 10.9923C14.276 10.9923 14.4998 10.7683 14.4998 10.492C14.4998 10.2157 14.276 9.99168 13.9998 9.99168C13.7237 9.99168 13.4998 10.2157 13.4998 10.492C13.4998 10.7683 13.7237 10.9923 13.9998 10.9923Z" fill="black"/>
<path d="M14.9998 16.9958C15.276 16.9958 15.4998 16.7718 15.4998 16.4955C15.4998 16.2192 15.276 15.9952 14.9998 15.9952C14.7237 15.9952 14.4998 16.2192 14.4998 16.4955C14.4998 16.7718 14.7237 16.9958 14.9998 16.9958Z" fill="black"/>
<path d="M14.4998 14.4944C14.4998 14.7707 14.276 14.9947 13.9998 14.9947C13.7237 14.9947 13.4998 14.7707 13.4998 14.4944C13.4998 14.218 13.7237 13.9941 13.9998 13.9941C14.276 13.9941 14.4998 14.218 14.4998 14.4944Z" fill="black"/>
<path d="M8.49982 16.4955C8.49982 16.7718 8.27596 16.9958 7.99982 16.9958C7.72367 16.9958 7.49982 16.7718 7.49982 16.4955C7.49982 16.2192 7.72367 15.9952 7.99982 15.9952C8.27596 15.9952 8.49982 16.2192 8.49982 16.4955Z" fill="black"/>
<path d="M10.9998 16.9958C11.276 16.9958 11.4998 16.7718 11.4998 16.4955C11.4998 16.2192 11.276 15.9952 10.9998 15.9952C10.7237 15.9952 10.4998 16.2192 10.4998 16.4955C10.4998 16.7718 10.7237 16.9958 10.9998 16.9958Z" fill="black"/>
<path fill-rule="evenodd" clip-rule="evenodd" d="M15.9998 12.9935L19.8998 18.1966C20.0138 18.3486 20.0318 18.5518 19.9468 18.7209C19.8618 18.89 19.6888 18.997 19.4998 18.997H12.4998V23.4997C12.4998 23.7759 12.2758 24 11.9998 24C11.7238 24 11.4998 23.7759 11.4998 23.4997V18.997H4.49981C4.31081 18.997 4.13781 18.889 4.05281 18.7199C3.96781 18.5508 3.98681 18.3476 4.09981 18.1966L7.99981 12.9935H5.99981C5.81481 12.9935 5.64581 12.8914 5.55981 12.7303C5.47181 12.5672 5.48081 12.3691 5.58381 12.216L9.06481 6.9899H7.99981C7.81481 6.9899 7.64581 6.88784 7.55981 6.72574C7.47181 6.56265 7.48081 6.36553 7.58381 6.21144L11.5838 0.207873C11.7698 -0.0692911 12.2298 -0.0692911 12.4158 0.207873L16.4158 6.21144C16.5178 6.36553 16.5278 6.56265 16.4398 6.72574C16.3538 6.88784 16.1848 6.9899 15.9998 6.9899H14.9348L18.4158 12.215C18.5178 12.3691 18.5278 12.5662 18.4398 12.7293C18.3538 12.8914 18.1848 12.9935 17.9998 12.9935H15.9998ZM9.99981 5.98931C10.1848 5.98931 10.3538 6.09137 10.4398 6.25346C10.5278 6.41656 10.5188 6.61368 10.4158 6.76677L9.05681 8.80798L14.0288 7.43617L13.5838 6.76777C13.4818 6.61368 13.4718 6.41656 13.5598 6.25346C13.6458 6.09137 13.8148 5.98931 13.9998 5.98931H15.0648L11.9998 1.38757L8.93481 5.98931H9.99981ZM8.20781 10.0807L6.93481 11.9929H8.99981C9.18881 11.9929 9.36181 12.1009 9.44681 12.27C9.53181 12.4391 9.51281 12.6423 9.39981 12.7933L8.48881 14.0091L14.5338 12.3651C14.5374 12.3518 14.5386 12.3385 14.5398 12.3254C14.5415 12.306 14.5432 12.287 14.5528 12.269C14.6378 12.0999 14.8108 11.9929 14.9998 11.9929H17.0648L14.6138 8.31269L8.20781 10.0807ZM7.51381 15.3098L5.49981 17.9964H18.4998L14.9678 13.2836L7.51381 15.3098Z" fill="black"/>
</svg>
