<svg width="24" height="24" viewBox="0 0 24 24" fill="none" xmlns="http://www.w3.org/2000/svg">
<path d="M15.9111 15.0497C16.0678 15.0638 16.2221 15.0033 16.3274 14.8863L17.752 13.3046C17.9368 13.0994 17.9203 12.7833 17.7151 12.5985C17.5099 12.4137 17.1938 12.4302 17.0089 12.6354L16.5644 13.129C16.4173 11.2063 15.1022 9.48551 13.1227 8.98478C12.855 8.91706 12.5831 9.07918 12.5154 9.34689C12.4477 9.6146 12.6098 9.88652 12.8775 9.95424C14.3158 10.3181 15.3192 11.521 15.5351 12.9199L15.2622 12.4783C15.117 12.2434 14.8089 12.1707 14.574 12.3159C14.3391 12.4611 14.2664 12.7692 14.4115 13.0041L15.5306 14.8146C15.6134 14.9485 15.7543 15.0356 15.9111 15.0497Z" fill="black"/>
<path d="M10.1376 19.1193C10.3938 19.0162 10.5178 18.7249 10.4147 18.4687L10.17 17.8611C11.9624 18.5634 14.0862 18.1342 15.401 16.5803C15.5793 16.3695 15.553 16.054 15.3422 15.8756C15.1314 15.6972 14.8159 15.7235 14.6376 15.9344C13.679 17.0672 12.1489 17.4413 10.7928 17.0211L11.3233 16.9683C11.5981 16.9409 11.7986 16.6959 11.7713 16.4212C11.7439 16.1464 11.499 15.9458 11.2242 15.9732L9.10652 16.1841C8.94994 16.1997 8.80983 16.2881 8.72834 16.4227C8.64685 16.5573 8.63348 16.7224 8.69226 16.8684L9.48706 18.8422C9.5902 19.0984 9.88147 19.2224 10.1376 19.1193Z" fill="black"/>
<path d="M9.52919 11.9981C9.78025 12.1131 10.077 12.0028 10.192 11.7517L11.0785 9.8162C11.144 9.67307 11.1384 9.50744 11.0632 9.36914C10.988 9.23085 10.852 9.13604 10.6963 9.11326L8.59068 8.80525C8.31744 8.76528 8.06354 8.95438 8.02358 9.22762C7.98361 9.50085 8.17271 9.75475 8.44594 9.79472L9.08899 9.88879C7.57244 11.0779 6.88159 13.1293 7.56173 15.0524C7.6538 15.3127 7.93948 15.4491 8.19983 15.3571C8.46017 15.265 8.59658 14.9793 8.5045 14.719C8.00546 13.3079 8.45329 11.794 9.50932 10.8408L9.28281 11.3353C9.16782 11.5864 9.27813 11.8831 9.52919 11.9981Z" fill="black"/>
<path fill-rule="evenodd" clip-rule="evenodd" d="M5.27237 1.5C5.40497 1.5 5.53215 1.55268 5.62592 1.64645L6.97146 2.99198C7.16672 3.18725 7.16672 3.50383 6.97146 3.69909L6.65224 4.0183L7.95717 5.32323C10.4961 4.05775 13.504 4.05775 16.0429 5.32323L17.3479 4.01831L17.0286 3.69909C16.8334 3.50383 16.8334 3.18725 17.0286 2.99198L18.3742 1.64645C18.4679 1.55268 18.5951 1.5 18.7277 1.5C18.8603 1.5 18.9875 1.55268 19.0813 1.64645L23.7907 6.35582C23.9859 6.55109 23.9859 6.86767 23.7907 7.06293L22.4451 8.40847C22.3514 8.50223 22.2242 8.55491 22.0916 8.55491C21.959 8.55491 21.8318 8.50223 21.738 8.40847L21.4188 8.08925L20.1139 9.39418C21.8044 12.7861 21.2367 17.0173 18.4085 19.8455C14.8692 23.3848 9.13088 23.3848 5.59158 19.8455C2.76339 17.0173 2.19568 12.7861 3.88622 9.39418L2.58129 8.08925L2.26208 8.40847C2.06682 8.60373 1.75023 8.60373 1.55497 8.40847L0.209435 7.06293C0.115667 6.96916 0.0629883 6.84199 0.0629883 6.70938C0.0629883 6.57677 0.115667 6.44959 0.209435 6.35582L4.91881 1.64645C5.01258 1.55268 5.13976 1.5 5.27237 1.5ZM1.90852 7.34781L1.27009 6.70938L5.27237 2.70711L5.9108 3.34554L1.90852 7.34781ZM3.2884 7.38215L4.40114 8.49488C4.73954 7.97565 5.13642 7.48375 5.59158 7.02859C6.04674 6.57343 6.53864 6.17655 7.05787 5.83815L5.94513 4.72541L3.2884 7.38215ZM19.599 8.49488L20.7117 7.38215L18.055 4.72541L16.9422 5.83815C17.4615 6.17655 17.9534 6.57343 18.4085 7.02859C18.8637 7.48375 19.2606 7.97565 19.599 8.49488ZM22.0916 7.34781L22.73 6.70938L18.7277 2.70711L18.0893 3.34554L22.0916 7.34781ZM15.8947 6.3746C13.4786 5.04062 10.5215 5.04062 8.10538 6.3746C7.45794 6.73206 6.8488 7.18559 6.29869 7.7357C5.74858 8.28581 5.29505 8.89495 4.93759 9.54239C3.24544 12.6072 3.69996 16.5397 6.29869 19.1384C9.44746 22.2872 14.5526 22.2872 17.7014 19.1384C20.3001 16.5397 20.7547 12.6072 19.0625 9.54239C18.705 8.89495 18.2515 8.28581 17.7014 7.7357C17.1513 7.18559 16.5422 6.73206 15.8947 6.3746Z" fill="black"/>
</svg>
