<svg width="24" height="24" viewBox="0 0 24 24" fill="none" xmlns="http://www.w3.org/2000/svg">
<path d="M15 12H12V7C12 6.724 11.776 6.5 11.5 6.5C11.224 6.5 11 6.724 11 7V12.5C11 12.776 11.224 13 11.5 13H15C15.276 13 15.5 12.776 15.5 12.5C15.5 12.224 15.276 12 15 12Z" fill="black"/>
<path fill-rule="evenodd" clip-rule="evenodd" d="M3 12C3 7.038 7.038 3 12 3C16.962 3 21 7.038 21 12C21 16.962 16.962 21 12 21C7.038 21 3 16.962 3 12ZM4 12C4 16.411 7.589 20 12 20C16.411 20 20 16.411 20 12C20 7.589 16.411 4 12 4C7.589 4 4 7.589 4 12Z" fill="black"/>
<path fill-rule="evenodd" clip-rule="evenodd" d="M19.5 0H4.5C2.019 0 0 2.019 0 4.5V19.5C0 21.982 2.019 24 4.5 24H19.5C21.981 24 24 21.982 24 19.5V4.5C24 2.019 21.981 0 19.5 0ZM23 19.5C23 21.43 21.43 23 19.5 23H4.5C2.57 23 1 21.43 1 19.5V4.5C1 2.57 2.57 1 4.5 1H19.5C21.43 1 23 2.57 23 4.5V19.5Z" fill="black"/>
</svg>
