<svg width="24" height="24" viewBox="0 0 24 24" fill="none" xmlns="http://www.w3.org/2000/svg">
<path fill-rule="evenodd" clip-rule="evenodd" d="M19.2863 7.48671C19.4317 7.72147 19.3593 8.02966 19.1245 8.17507L13.91 11.4051C13.9685 11.593 14 11.7928 14 12C14 13.1046 13.1046 14 12 14C10.8954 14 10 13.1046 10 12C10 11.8424 10.0182 11.6891 10.0527 11.542L6.22983 9.53414C5.98535 9.40574 5.89126 9.10346 6.01966 8.85899C6.14807 8.61452 6.45034 8.52042 6.69481 8.64882L10.5181 10.6569C10.884 10.2534 11.4124 10 12 10C12.5366 10 13.0238 10.2113 13.383 10.5552L18.5979 7.32495C18.8327 7.17953 19.1409 7.25196 19.2863 7.48671ZM12 13C12.5523 13 13 12.5523 13 12C13 11.4477 12.5523 11 12 11C11.4477 11 11 11.4477 11 12C11 12.5523 11.4477 13 12 13Z" fill="black"/>
<path fill-rule="evenodd" clip-rule="evenodd" d="M24 12C24 18.6274 18.6274 24 12 24C5.37258 24 0 18.6274 0 12C0 5.37258 5.37258 0 12 0C18.6274 0 24 5.37258 24 12ZM23 12C23 18.0751 18.0751 23 12 23C5.92487 23 1 18.0751 1 12C1 5.92487 5.92487 1 12 1C18.0751 1 23 5.92487 23 12Z" fill="black"/>
</svg>
