<svg width="24" height="24" viewBox="0 0 24 24" fill="none" xmlns="http://www.w3.org/2000/svg">
<path fill-rule="evenodd" clip-rule="evenodd" d="M3.52874 5C3.11355 5 2.73816 5.24938 2.57854 5.63356C2.41883 6.01798 2.50732 6.46026 2.80187 6.75393L11.2732 15.1997C11.6748 15.6001 12.3253 15.6001 12.7269 15.1997L21.1982 6.75393C21.4928 6.46027 21.5813 6.01799 21.4216 5.63356C21.2619 5.24938 20.8865 5 20.4714 5H3.52874ZM3.50201 6.01723C3.50607 6.00747 3.51625 6 3.52874 6H20.4714C20.4838 6 20.494 6.00747 20.4981 6.01723C20.502 6.02675 20.5001 6.03791 20.4922 6.04576L12.0209 14.4915C12.0095 14.5028 11.9905 14.5028 11.9792 14.4915L3.50791 6.04576C3.50004 6.03791 3.49806 6.02675 3.50201 6.01723Z" fill="black"/>
<path d="M1.5 18C1.22386 18 1 18.2239 1 18.5C1 18.7761 1.22386 19 1.5 19H22.5C22.7761 19 23 18.7761 23 18.5C23 18.2239 22.7761 18 22.5 18H1.5Z" fill="black"/>
</svg>
