<svg width="24" height="24" viewBox="0 0 24 24" fill="none" xmlns="http://www.w3.org/2000/svg">
<path d="M12.3536 14.3536C12.1583 14.5488 11.8417 14.5488 11.6464 14.3536L3.14645 5.85355C2.95118 5.65829 2.95118 5.34171 3.14645 5.14645C3.34171 4.95118 3.65829 4.95118 3.85355 5.14645L12 13.2929L20.1464 5.14645C20.3417 4.95118 20.6583 4.95118 20.8536 5.14645C21.0488 5.34171 21.0488 5.65829 20.8536 5.85355L12.3536 14.3536Z" fill="black"/>
<path d="M1.5 18C1.22386 18 1 18.2239 1 18.5C1 18.7761 1.22386 19 1.5 19H22.5C22.7761 19 23 18.7761 23 18.5C23 18.2239 22.7761 18 22.5 18H1.5Z" fill="black"/>
</svg>
