<svg width="24" height="24" viewBox="0 0 24 24" fill="none" xmlns="http://www.w3.org/2000/svg">
<path d="M12.529 4.537L12.5 3.486C12.492 3.215 12.271 3 12 3C11.449 3 11 2.551 11 2C11 1.449 11.449 1 12 1C12.551 1 13 1.449 13 2C13 2.276 13.224 2.5 13.5 2.5C13.776 2.5 14 2.276 14 2C14 0.896 13.103 0 12 0C10.897 0 10 0.896 10 2C10 2.935 10.644 3.721 11.512 3.94L11.528 4.532C6.65402 4.864 0.0250244 9.771 0.0250244 11.899C0.0250244 12.26 0.189024 12.566 0.486024 12.759C0.735024 12.922 1.06702 13 1.50002 13H5.00002V23.5C5.00002 23.776 5.22402 24 5.50002 24H18.5C18.776 24 19 23.776 19 23.5V13H22.5C22.932 13 23.263 12.924 23.511 12.768C23.813 12.578 23.979 12.275 23.979 11.916C23.979 9.176 16.164 4.909 12.529 4.537ZM18 20H6.00002V10H18V20ZM6.00002 23V21H18V23H6.00002ZM22.5 12H19V9.5C19 9.224 18.776 9 18.5 9H5.50002C5.22402 9 5.00002 9.224 5.00002 9.5V12H1.50002C1.13602 12 1.03202 11.923 1.02702 11.923C1.01102 11.869 1.05002 11.606 1.42002 11.107C3.05202 8.901 8.34902 5.5 12.042 5.5C15.522 5.5 20.803 8.881 22.528 11.074C23 11.674 22.981 11.913 22.987 11.915C22.977 11.923 22.869 12 22.5 12Z" fill="black"/>
</svg>
