<svg width="24" height="24" viewBox="0 0 24 24" fill="none" xmlns="http://www.w3.org/2000/svg">
<path d="M10 6.5C10 5.39543 10.8954 4.5 12 4.5C12.4509 4.5 12.8657 4.64862 13.1999 4.89975C13.4207 5.06562 13.7341 5.02111 13.9 4.80034C14.0659 4.57956 14.0214 4.26613 13.8006 4.10025C13.2991 3.72347 12.6749 3.5 12 3.5C10.3432 3.5 9.00001 4.84315 9.00001 6.5C9.00001 6.77614 9.22387 7 9.50001 7C9.77616 7 10 6.77614 10 6.5Z" fill="black"/>
<path d="M13.8006 8.89975C14.0214 8.73387 14.0659 8.42044 13.9 8.19966C13.7341 7.97889 13.4207 7.93438 13.1999 8.10025C12.8657 8.35138 12.4509 8.5 12 8.5C11.7239 8.5 11.5 8.72386 11.5 9V11.2439L0.566512 19.116C-0.252935 19.706 0.164439 21 1.17419 21H22.7929C23.8086 21 24.2219 19.6933 23.391 19.1092L14.9601 13.1825C14.7342 13.0237 14.4223 13.0781 14.2635 13.304C14.1047 13.5299 14.1591 13.8418 14.385 14.0006L22.8159 19.9273C22.8255 19.934 22.8304 19.9404 22.8304 19.9404C22.8316 19.9422 22.8327 19.9451 22.8327 19.9451C22.8339 19.949 22.8352 19.9588 22.831 19.9721C22.8268 19.9854 22.8201 19.9926 22.8169 19.9951C22.8169 19.9951 22.8143 19.9969 22.8123 19.9976C22.8123 19.9976 22.8046 20 22.7929 20H1.17419C1.16265 20 1.15496 19.9976 1.15496 19.9976C1.15292 19.9969 1.15027 19.9951 1.15027 19.9951C1.14702 19.9926 1.14035 19.9854 1.13612 19.9723C1.13189 19.9592 1.1331 19.9494 1.13426 19.9455C1.13426 19.9455 1.13537 19.9425 1.13661 19.9407C1.13661 19.9407 1.14145 19.9343 1.15082 19.9275L12.2922 11.9058C12.4227 11.8118 12.5 11.6608 12.5 11.5V9.45845C12.9821 9.37748 13.4256 9.18147 13.8006 8.89975Z" fill="black"/>
<path d="M1.00001 6.5C1.00001 6.22386 1.22387 6 1.50001 6H7.50001C7.77616 6 8.00001 6.22386 8.00001 6.5C8.00001 6.77614 7.77616 7 7.50001 7H1.50001C1.22387 7 1.00001 6.77614 1.00001 6.5Z" fill="black"/>
<path d="M11 6.5C11 6.22386 11.2239 6 11.5 6H22.5C22.7762 6 23 6.22386 23 6.5C23 6.77614 22.7762 7 22.5 7H11.5C11.2239 7 11 6.77614 11 6.5Z" fill="black"/>
</svg>
