<svg width="24" height="24" viewBox="0 0 24 24" fill="none" xmlns="http://www.w3.org/2000/svg">
<path d="M20.5 2C18.57 2 17 3.57 17 5.5C17 5.67 17.019 5.835 17.042 6H7.727L4.376 2.171C4.281 2.062 4.145 2 4 2H0V3H3.773L6.398 6H4.5C4.298 6 4.115 6.122 4.038 6.309C3.961 6.496 4.004 6.71 4.146 6.854L12 14.707V23H8.5C8.224 23 8 23.224 8 23.5C8 23.776 8.224 24 8.5 24H16.5C16.776 24 17 23.776 17 23.5C17 23.224 16.776 23 16.5 23H13V14.707L19.033 8.675C19.491 8.886 19.99 9 20.5 9C22.43 9 24 7.43 24 5.5C24 3.57 22.43 2 20.5 2ZM19.293 7L12.5 13.793L5.707 7H19.293ZM20.5 8C20.264 8 20.03 7.965 19.807 7.901L20.854 6.854C20.997 6.711 21.04 6.496 20.962 6.309C20.884 6.122 20.702 6 20.5 6H18.055C18.021 5.837 18 5.671 18 5.5C18 4.122 19.121 3 20.5 3C21.879 3 23 4.122 23 5.5C23 6.878 21.879 8 20.5 8Z" fill="black"/>
</svg>
