<svg width="24" height="24" viewBox="0 0 24 24" fill="none" xmlns="http://www.w3.org/2000/svg">
<path fill-rule="evenodd" clip-rule="evenodd" d="M15.012 6.02088C15.012 4.92388 15.903 4.03188 17 4.03188C18.097 4.03188 18.988 4.92488 18.988 6.02088C18.988 7.11688 18.097 8.00888 17 8.00888C15.903 8.00888 15.012 7.11788 15.012 6.02088ZM16.012 6.02088C16.012 6.56588 16.455 7.00888 17 7.00888C17.545 7.00888 17.988 6.56588 17.988 6.02088C17.988 5.47588 17.545 5.03188 17 5.03188C16.455 5.03188 16.012 5.47588 16.012 6.02088Z" fill="black"/>
<path fill-rule="evenodd" clip-rule="evenodd" d="M16.986 1.07788C18.071 1.07788 18.969 1.97188 19.109 3.12688C20.105 2.79388 21.213 3.15288 21.714 3.97788C22.325 4.98888 21.916 6.35988 20.802 7.03488C20.71 7.08988 20.615 7.13988 20.517 7.18288C21.077 8.07488 21.019 9.20788 20.312 9.91488C20.061 10.1649 19.748 10.3329 19.405 10.4229C20.444 11.9329 21 13.6839 21 15.4999C21 19.4629 17.563 22.7609 14.168 23.9709C14.114 23.9899 14.058 23.9999 14 23.9999H10C9.942 23.9999 9.886 23.9899 9.832 23.9709C6.437 22.7609 3 19.4629 3 15.4999C3 13.6589 3.566 11.8839 4.633 10.3599L4.63378 10.3567C4.63422 10.3544 4.636 10.3509 4.636 10.3509L6.575 7.23588C6.667 7.08988 6.827 6.99988 7 6.99988H9.13L7.138 3.58688C6.927 3.22588 6.587 2.97588 6.18 2.88088C5.771 2.78588 5.357 2.86288 5.01 3.09388L2.277 4.91588C2.049 5.06688 1.738 5.00688 1.584 4.77688C1.431 4.54688 1.493 4.23688 1.723 4.08388L4.456 2.26088C5.035 1.87588 5.727 1.74988 6.406 1.90588C7.085 2.06288 7.651 2.47988 8.002 3.08288L10.287 6.99988H13.15C12.073 6.31288 11.684 4.97188 12.285 3.97688C12.782 3.15988 13.878 2.80088 14.864 3.11788C15.007 1.96688 15.904 1.07788 16.986 1.07788ZM13.159 7.99988H7.277L5.721 10.5019C6.517 11.1369 7.482 11.4999 8.5 11.4999C9.683 11.4999 10.802 11.0409 11.65 10.2089C11.845 10.0189 12.156 10.0189 12.351 10.2089C13.198 11.0419 14.317 11.5009 15.5 11.5009C16.55 11.5009 17.547 11.1159 18.357 10.4409C17.903 10.3379 17.472 10.1029 17.127 9.75788C17.083 9.71388 17.04 9.66888 17 9.62188C16.959 9.66888 16.917 9.71488 16.873 9.75888C15.987 10.6449 14.494 10.7209 13.687 9.91588C13.184 9.41288 13.016 8.69288 13.159 7.99988ZM4 15.4999C4 18.9689 7.049 21.8849 10.088 22.9999H13.912C16.951 21.8849 20 18.9689 20 15.4999C20 14.0359 19.599 12.6169 18.833 11.3639C16.855 12.8829 13.911 12.8229 12 11.2379C10.088 12.8229 7.144 12.8829 5.167 11.3639C4.401 12.6169 4 14.0359 4 15.4999ZM19.557 6.40088C19.814 6.38788 20.066 6.31088 20.285 6.17888C20.928 5.78888 21.186 5.03388 20.861 4.49388C20.547 3.97988 19.726 3.84688 19.103 4.22388C19.022 4.27488 18.943 4.33288 18.871 4.39488C18.704 4.54288 18.459 4.56188 18.272 4.44288C18.083 4.32388 17.998 4.09488 18.06 3.88088C18.107 3.72088 18.129 3.57688 18.129 3.43988C18.129 2.68888 17.617 2.07788 16.987 2.07788C16.357 2.07788 15.845 2.68888 15.845 3.43988C15.845 3.57088 15.865 3.70488 15.909 3.86388C15.968 4.07588 15.882 4.30188 15.696 4.41988C15.508 4.53888 15.268 4.52088 15.101 4.37688C15.038 4.32288 14.97 4.26988 14.896 4.22488C14.277 3.84988 13.452 3.98088 13.14 4.49688C12.814 5.03388 13.071 5.78888 13.714 6.17888C13.936 6.31188 14.181 6.38688 14.442 6.39988C14.652 6.40988 14.834 6.55088 14.896 6.75088C14.958 6.95188 14.887 7.16988 14.719 7.29688L14.7085 7.30484C14.6539 7.34621 14.5987 7.38802 14.548 7.43688C14.02 7.96788 13.95 8.76188 14.395 9.20688C14.823 9.63488 15.656 9.55988 16.166 9.05088C16.326 8.89088 16.448 8.69488 16.528 8.46688C16.6 8.26788 16.788 8.13388 17 8.13388C17.212 8.13388 17.4 8.26788 17.472 8.46788C17.552 8.69488 17.674 8.89188 17.834 9.05088C18.343 9.56088 19.177 9.63788 19.605 9.20788C20.051 8.76388 19.98 7.96888 19.449 7.43688C19.401 7.38983 19.3459 7.34809 19.2913 7.30666L19.281 7.29888C19.113 7.17188 19.042 6.95388 19.104 6.75288C19.165 6.55188 19.347 6.41088 19.557 6.40088Z" fill="black"/>
</svg>
