<svg width="25" height="24" viewBox="0 0 25 24" fill="none" xmlns="http://www.w3.org/2000/svg">
<path fill-rule="evenodd" clip-rule="evenodd" d="M18.3536 2.14645C18.5488 2.34171 18.5488 2.65829 18.3536 2.85355L17.2071 4H19.4917C19.5083 3.99974 19.5249 4.00031 19.5415 4.00169C19.6113 4.00743 19.6771 4.02752 19.7359 4.05902C19.7964 4.09134 19.851 4.13654 19.8952 4.19367C19.9053 4.20672 19.9148 4.22029 19.9237 4.23432L23.4094 9.59705C24.8977 11.8867 23.5745 14.8971 20.9913 15.4319C20.8987 17.7188 20.0744 19.8177 18.7467 21.5H23.5C23.7761 21.5 24 21.7239 24 22C24 22.2761 23.7761 22.5 23.5 22.5H0.5C0.223858 22.5 0 22.2761 0 22C0 21.7239 0.223858 21.5 0.5 21.5H2.25328C0.842471 19.7124 0 17.4542 0 15C0 13.3014 0.403736 11.6956 1.12093 10.2747C1.4546 9.61366 1.85601 8.99283 2.31598 8.42131L1.1 6.8C0.986368 6.64849 0.96809 6.44579 1.05279 6.27639C1.13748 6.107 1.31061 6 1.5 6H15.7704C15.8637 6 15.9551 6.02609 16.0343 6.07531C17.6705 7.092 19.0065 8.54607 19.8791 10.2747C20.5119 11.5284 20.9007 12.9261 20.9834 14.4045C22.7595 13.9013 23.6317 11.7739 22.571 10.142L19.2287 5H3.5C3.22386 5 3 4.77614 3 4.5C3 4.22386 3.22386 4 3.5 4H15.7929L17.6464 2.14645C17.8417 1.95118 18.1583 1.95118 18.3536 2.14645ZM17.4282 21.5H3.57175C1.97638 19.8003 1 17.5146 1 15C1 13.5701 1.31557 12.2152 1.88051 11H19.1195C19.6844 12.2152 20 13.5701 20 15C20 17.5146 19.0236 19.8003 17.4282 21.5ZM18.5794 10H2.42063C2.69097 9.56415 2.99563 9.15172 3.33087 8.76651C3.48564 8.58867 3.49516 8.32687 3.3537 8.13827L2.5 7H15.6258C16.8198 7.76672 17.831 8.79348 18.5794 10Z" fill="black"/>
</svg>
