<svg width="24" height="24" viewBox="0 0 24 24" fill="none" xmlns="http://www.w3.org/2000/svg">
<path d="M3.5 5.5C3.224 5.5 3 5.724 3 6V17C3 17.276 3.224 17.5 3.5 17.5C3.776 17.5 4 17.276 4 17V6C4 5.724 3.776 5.5 3.5 5.5Z" fill="black"/>
<path fill-rule="evenodd" clip-rule="evenodd" d="M18 5.525V1.5C18 1.224 17.776 1 17.5 1H0.5C0.224 1 0 1.224 0 1.5V18.5C0 19.912 0.653936 21.1743 1.6748 22H0.5C0.223858 22 0 22.2239 0 22.5C0 22.7761 0.223858 23 0.5 23H23.5C23.7761 23 24 22.7761 24 22.5C24 22.2239 23.7761 22 23.5 22H16.3252C17.3461 21.1743 18 19.912 18 18.5V18.475C21.351 18.218 24 15.415 24 12C24 8.585 21.351 5.782 18 5.525ZM13.5 22H4.5C2.57 22 1 20.43 1 18.5V2H17V18.5C17 20.43 15.43 22 13.5 22ZM18 9.051C19.416 9.291 20.5 10.517 20.5 12C20.5 13.483 19.416 14.71 18 14.95V9.051ZM18 17.475V15.95C19.968 15.7 21.5 14.034 21.5 12C21.5 9.966 19.968 8.3 18 8.051V6.525C20.799 6.779 23 9.135 23 12C23 14.865 20.799 17.221 18 17.475Z" fill="black"/>
</svg>
