<svg width="24" height="24" viewBox="0 0 24 24" fill="none" xmlns="http://www.w3.org/2000/svg">
<path fill-rule="evenodd" clip-rule="evenodd" d="M11.025 19.747C10.43 19.747 9.868 19.616 9.352 19.359C7.048 18.208 6.402 14.811 7.911 11.787C9.042 9.521 11.15 8 13.156 8C13.751 8 14.313 8.131 14.829 8.388C15.971 8.958 16.742 10.078 17 11.542C17.249 12.95 16.99 14.519 16.27 15.96C15.139 18.225 13.032 19.747 11.025 19.747ZM15.375 15.513C15.999 14.262 16.227 12.914 16.016 11.715C15.842 10.729 15.374 9.971 14.704 9.502C12.624 10.743 12.54 12.428 12.458 14.212C12.387 15.748 12.292 17.453 10.762 18.717C10.7957 18.7201 10.8288 18.725 10.8619 18.73C10.9152 18.738 10.9685 18.746 11.024 18.746C12.661 18.746 14.409 17.447 15.375 15.513ZM13.157 9C11.52 9 9.772 10.299 8.806 12.233C7.597 14.655 7.967 17.3 9.588 18.318C11.296 17.308 11.383 15.85 11.461 14.166C11.54 12.448 11.636 10.525 13.591 9.048C13.572 9.04507 13.553 9.04208 13.534 9.03908C13.4101 9.01954 13.2862 9 13.157 9Z" fill="black"/>
<path fill-rule="evenodd" clip-rule="evenodd" d="M18.5 24H5.5C4.121 24 3 22.878 3 21.5V7.5C3 5.5 4.32 3.82 6.129 3.236L4.116 0.82C3.991 0.671 3.965 0.463 4.047 0.288C4.13 0.112 4.306 0 4.5 0H19.5C19.685 0 19.854 0.102 19.94 0.265C20.028 0.427 20.019 0.625 19.916 0.778L18.207 3.341C19.844 4.015 21 5.623 21 7.5V21.5C21 22.878 19.879 24 18.5 24ZM18.565 1H5.567L7.255 3.025C7.29216 3.02321 7.32831 3.01801 7.36445 3.01282C7.40904 3.00641 7.4536 3 7.5 3H16.5C16.735 3 16.961 3.034 17.186 3.069L18.565 1ZM7.5 4C5.57 4 4 5.57 4 7.5V21.5C4 22.327 4.673 23 5.5 23H18.5C19.327 23 20 22.327 20 21.5V7.5C20 5.57 18.43 4 16.5 4H7.5Z" fill="black"/>
</svg>
