<svg width="24" height="24" viewBox="0 0 24 24" fill="none" xmlns="http://www.w3.org/2000/svg">
<path fill-rule="evenodd" clip-rule="evenodd" d="M1 1.5C1 1.22386 1.22386 1 1.5 1H17.5C17.7761 1 18 1.22386 18 1.5V4H19C21.7614 4 24 6.23858 24 9C24 11.7614 21.7614 14 19 14H18V14.5C18 17.7469 16.1795 20.5686 13.5036 22H23.5C23.7761 22 24 22.2239 24 22.5C24 22.7761 23.7761 23 23.5 23H0.5C0.223858 23 0 22.7761 0 22.5C0 22.2239 0.223858 22 0.5 22H5.49645C2.8205 20.5686 1 17.7469 1 14.5V1.5ZM17 2H2V14.5C2 18.6421 5.35786 22 9.5 22C13.6421 22 17 18.6421 17 14.5V2ZM18 13H19C21.2091 13 23 11.2091 23 9C23 6.79086 21.2091 5 19 5H18V13Z" fill="black"/>
</svg>
