<svg width="24" height="24" viewBox="0 0 24 24" fill="none" xmlns="http://www.w3.org/2000/svg">
<path fill-rule="evenodd" clip-rule="evenodd" d="M19.0001 3C17.8971 3 17.0001 3.897 17.0001 5C17.0001 6.103 17.8971 7 19.0001 7C20.1031 7 21.0001 6.103 21.0001 5C21.0001 3.897 20.1031 3 19.0001 3ZM19.0001 6C18.4491 6 18.0001 5.551 18.0001 5C18.0001 4.449 18.4491 4 19.0001 4C19.5511 4 20.0001 4.449 20.0001 5C20.0001 5.551 19.5511 6 19.0001 6Z" fill="black"/>
<path fill-rule="evenodd" clip-rule="evenodd" d="M22.9511 5.549L23.6461 5.951C23.8861 6.088 23.9681 6.394 23.8311 6.634L22.8311 8.366C22.7641 8.481 22.6551 8.565 22.5271 8.599C22.4001 8.632 22.2631 8.615 22.1481 8.549L21.4521 8.147C21.1611 8.372 20.8401 8.558 20.5011 8.697V9.5C20.5011 9.776 20.2771 10 20.0011 10H18.0011C17.7251 10 17.5011 9.776 17.5011 9.5V8.7C17.1621 8.562 16.8451 8.376 16.5521 8.145L15.8541 8.548C15.7391 8.614 15.6021 8.632 15.4751 8.598C15.3471 8.564 15.2371 8.48 15.1711 8.365L14.1711 6.633C14.0331 6.393 14.1151 6.088 14.3541 5.95L15.0521 5.547C14.9991 5.179 14.9981 4.812 15.0481 4.449L14.3541 4.049C14.2391 3.982 14.1551 3.872 14.1211 3.745C14.0871 3.617 14.1051 3.481 14.1711 3.366L15.1711 1.634C15.2381 1.519 15.3471 1.435 15.4751 1.401C15.6021 1.367 15.7391 1.385 15.8541 1.451L16.5501 1.852C16.8401 1.627 17.1611 1.442 17.5001 1.303V0.5C17.5001 0.224 17.7241 0 18.0001 0H20.0001C20.2761 0 20.5001 0.224 20.5001 0.5V1.302C20.8381 1.44 21.1551 1.625 21.4471 1.855L22.1471 1.451C22.2611 1.385 22.3991 1.367 22.5261 1.401C22.6541 1.435 22.7641 1.519 22.8301 1.634L23.8301 3.366C23.9681 3.605 23.8861 3.911 23.6471 4.049L22.9471 4.453C23.0001 4.82 23.0011 5.186 22.9511 5.549ZM22.1461 6.238C21.9541 6.128 21.8591 5.905 21.9091 5.69C22.0151 5.24 22.0141 4.776 21.9041 4.313C21.8521 4.098 21.9491 3.875 22.1401 3.764L22.7131 3.433L22.2131 2.566L21.6391 2.898C21.4481 3.008 21.2071 2.98 21.0461 2.829C20.6981 2.5 20.2971 2.266 19.8561 2.134C19.6451 2.071 19.5001 1.876 19.5001 1.655V1H18.5001V1.656C18.5001 1.877 18.3551 2.072 18.1441 2.137C17.6951 2.271 17.2931 2.503 16.9491 2.827C16.7881 2.979 16.5471 3.006 16.3561 2.896L15.7871 2.567L15.2871 3.434L15.8541 3.761C16.0451 3.871 16.1411 4.094 16.0901 4.31C15.9831 4.76 15.9851 5.224 16.0951 5.688C16.1471 5.903 16.0501 6.126 15.8591 6.237L15.2871 6.567L15.7871 7.434L16.3591 7.103C16.5491 6.993 16.7911 7.02 16.9521 7.172C17.3021 7.502 17.7031 7.737 18.1431 7.868C18.3551 7.931 18.5001 8.126 18.5001 8.347V9H19.5001V8.344C19.5001 8.124 19.6451 7.929 19.8571 7.865C20.3051 7.731 20.7071 7.497 21.0521 7.173C21.2131 7.021 21.4541 6.994 21.6451 7.104L22.2141 7.433L22.7141 6.566L22.1461 6.238Z" fill="black"/>
<path fill-rule="evenodd" clip-rule="evenodd" d="M5.00009 15.5C5.00009 13.57 6.57009 12 8.50009 12C10.4301 12 12.0001 13.57 12.0001 15.5C12.0001 17.43 10.4301 19 8.50009 19C6.57009 19 5.00009 17.43 5.00009 15.5ZM6.00009 15.5C6.00009 16.878 7.12209 18 8.50009 18C9.87809 18 11.0001 16.878 11.0001 15.5C11.0001 14.122 9.87809 13 8.50009 13C7.12209 13 6.00009 14.122 6.00009 15.5Z" fill="black"/>
<path fill-rule="evenodd" clip-rule="evenodd" d="M14.8611 9.518L16.8611 12.982C16.9991 13.221 16.9171 13.527 16.6781 13.664L15.4071 14.398C15.5251 15.131 15.5251 15.869 15.4071 16.601L16.6781 17.334C16.7931 17.401 16.8771 17.51 16.9111 17.638C16.9451 17.766 16.9271 17.902 16.8611 18.017L14.8611 21.481C14.7941 21.596 14.6851 21.68 14.5571 21.714C14.4301 21.747 14.2931 21.73 14.1781 21.664L12.9131 20.934C12.3391 21.4 11.6991 21.768 11.0001 22.034V23.5C11.0001 23.776 10.7761 24 10.5001 24H6.50008C6.22408 24 6.00008 23.776 6.00008 23.5V22.032C5.30308 21.766 4.66308 21.398 4.08908 20.935L2.82108 21.666C2.58208 21.804 2.27608 21.722 2.13808 21.483L0.138082 18.019C0.0710821 17.904 0.0540821 17.767 0.0880821 17.64C0.122082 17.512 0.206082 17.403 0.321082 17.336L1.59208 16.602C1.47408 15.87 1.47408 15.132 1.59208 14.4L0.321082 13.665C0.0820822 13.527 8.21427e-05 13.221 0.138082 12.982L2.13808 9.518C2.20508 9.403 2.31408 9.319 2.44208 9.285C2.56908 9.251 2.70608 9.269 2.82108 9.335L4.08708 10.067C4.66008 9.601 5.30108 9.233 6.00008 8.967V7.5C6.00008 7.224 6.22408 7 6.50008 7H10.5001C10.7761 7 11.0001 7.224 11.0001 7.5V8.969C11.6961 9.235 12.3361 9.603 12.9091 10.067L14.1781 9.335C14.4161 9.196 14.7221 9.278 14.8611 9.518ZM14.3621 14.248C14.3171 14.035 14.4131 13.818 14.6011 13.71L15.7441 13.05L14.2441 10.452L13.1031 11.111C12.9161 11.218 12.6801 11.195 12.5191 11.049C11.8911 10.485 11.1601 10.064 10.3451 9.799C10.1401 9.732 10.0001 9.54 10.0001 9.323V8H7.00008V9.321C7.00008 9.538 6.86008 9.73 6.65308 9.795C5.83508 10.059 5.10308 10.481 4.47808 11.046C4.31708 11.192 4.08008 11.216 3.89308 11.109L2.75408 10.45L1.25408 13.048L2.39908 13.71C2.58708 13.818 2.68308 14.036 2.63808 14.248C2.46008 15.078 2.46008 15.92 2.63808 16.752C2.68308 16.964 2.58708 17.182 2.39908 17.29L1.25408 17.951L2.75408 20.549L3.89508 19.89C4.08408 19.783 4.31908 19.807 4.48008 19.952C5.10708 20.517 5.83808 20.937 6.65408 21.202C6.86008 21.269 7.00008 21.461 7.00008 21.678V23H10.0001V21.679C10.0001 21.462 10.1401 21.27 10.3481 21.203C11.1651 20.939 11.8971 20.518 12.5221 19.953C12.6821 19.807 12.9191 19.783 13.1071 19.891L14.2461 20.549L15.7461 17.951L14.6011 17.291C14.4131 17.183 14.3171 16.965 14.3621 16.753C14.5401 15.924 14.5401 15.081 14.3621 14.248Z" fill="black"/>
</svg>
