<svg width="24" height="24" viewBox="0 0 24 24" fill="none" xmlns="http://www.w3.org/2000/svg">
<path fill-rule="evenodd" clip-rule="evenodd" d="M7 12C7 9.243 9.243 7 12 7C14.757 7 17 9.243 17 12C17 14.757 14.757 17 12 17C9.243 17 7 14.757 7 12ZM8 12C8 14.206 9.794 16 12 16C14.206 16 16 14.206 16 12C16 9.794 14.206 8 12 8C9.794 8 8 9.794 8 12Z" fill="black"/>
<path fill-rule="evenodd" clip-rule="evenodd" d="M20.645 10H23.5C23.776 10 24 10.224 24 10.5V13.5C24 13.776 23.776 14 23.5 14H20.645C20.445 14.791 20.189 15.669 19.867 16.332L21.899 18.365C22.094 18.56 22.094 18.877 21.899 19.072L19.071 21.9C18.876 22.095 18.559 22.095 18.364 21.9L16.33 19.868C15.668 20.19 14.791 20.445 14 20.646V23.5C14 23.776 13.776 24 13.5 24H10.5C10.224 24 10 23.776 10 23.5V20.646C9.209 20.445 8.332 20.19 7.668 19.866L5.636 21.9C5.449 22.088 5.117 22.088 4.929 21.9L2.1 19.072C2.007 18.978 1.954 18.851 1.954 18.718C1.954 18.585 2.006 18.458 2.1 18.365L4.132 16.332C3.81 15.668 3.555 14.791 3.354 14H0.5C0.224 14 0 13.776 0 13.5V10.5C0 10.224 0.224 10 0.5 10H3.354C3.555 9.21 3.811 8.332 4.133 7.67L2.1 5.636C2.006 5.542 1.953 5.416 1.953 5.283C1.953 5.15 2.006 5.023 2.1 4.929L4.929 2.101C5.124 1.905 5.441 1.905 5.636 2.101L7.669 4.133C8.333 3.81 9.21 3.555 10 3.356V0.5C10 0.224 10.224 0 10.5 0H13.5C13.776 0 14 0.224 14 0.5V3.356C14.789 3.555 15.666 3.81 16.33 4.133L18.363 2.101C18.558 1.905 18.875 1.905 19.07 2.101L21.9 4.928C21.993 5.022 22.046 5.149 22.046 5.282C22.046 5.415 21.994 5.542 21.9 5.636L19.868 7.668C20.191 8.333 20.446 9.21 20.645 10ZM20.254 13H23V11H20.253C20.022 11 19.821 10.842 19.768 10.618C19.634 10.061 19.277 8.582 18.824 7.839C18.704 7.643 18.734 7.389 18.897 7.226L20.839 5.284L18.717 3.162L16.774 5.104C16.609 5.267 16.356 5.297 16.16 5.177C15.494 4.771 14.257 4.444 13.383 4.234C13.158 4.18 13 3.979 13 3.748V1H11V3.748C11 3.979 10.842 4.18 10.617 4.234C10.06 4.368 8.581 4.724 7.839 5.177C7.642 5.297 7.39 5.267 7.225 5.103L5.282 3.161L3.16 5.283L5.104 7.226C5.267 7.39 5.297 7.643 5.177 7.841C4.726 8.578 4.367 10.06 4.232 10.618C4.178 10.842 3.977 11 3.746 11H1V13H3.746C3.977 13 4.178 13.159 4.231 13.383C4.366 13.941 4.725 15.424 5.176 16.161C5.296 16.358 5.267 16.612 5.103 16.775L3.16 18.718L5.283 20.839L7.225 18.895C7.389 18.732 7.642 18.701 7.84 18.823C8.578 19.274 10.06 19.633 10.618 19.768C10.842 19.823 11 20.023 11 20.254V23H13V20.254C13 20.023 13.158 19.823 13.382 19.768C13.94 19.633 15.422 19.274 16.159 18.823C16.354 18.702 16.608 18.731 16.773 18.896L18.717 20.838L20.838 18.717L18.896 16.774C18.733 16.611 18.703 16.357 18.823 16.16C19.274 15.423 19.633 13.94 19.768 13.382C19.822 13.159 20.023 13 20.254 13Z" fill="black"/>
</svg>
