<svg width="24" height="24" viewBox="0 0 24 24" fill="none" xmlns="http://www.w3.org/2000/svg">
<g clip-path="url(#clip0_313_14949)">
<path fill-rule="evenodd" clip-rule="evenodd" d="M17.046 0.291996C17.145 0.0759961 17.383 -0.0440039 17.612 0.0129961C20.969 0.783996 23.5 4.003 23.5 7.5C23.5 9.981 21.481 12 19 12C16.519 12 14.5 9.981 14.5 7.5C14.5 5.689 15.526 4.244 17.317 3.535C17.46 3.478 17.623 3.492 17.758 3.571C17.891 3.651 17.979 3.789 17.997 3.943C18.028 4.214 18.146 4.44 18.335 4.659C18.649 3.612 18.543 1.887 17.204 0.901996C17.013 0.762996 16.947 0.506996 17.046 0.291996ZM15.5 7.5C15.5 9.43 17.07 11 19 11C20.93 11 22.5 9.43 22.5 7.5C22.5 5.068 21.098 2.793 19.048 1.634C19.726 3.087 19.546 4.824 18.918 5.775C18.84 5.893 18.715 5.973 18.575 5.994C18.433 6.016 18.292 5.976 18.183 5.887C17.784 5.559 17.401 5.191 17.18 4.701C16.092 5.301 15.5 6.278 15.5 7.5Z" fill="black"/>
<path d="M19.5 15C19.776 15 20 14.776 20 14.5C20 14.224 19.776 14 19.5 14H17V12.5C17 12.224 16.776 12 16.5 12C16.224 12 16 12.224 16 12.5V19.5C16 19.771 15.771 20 15.5 20H5.5C5.229 20 5 19.771 5 19.5V9.5C5 9.225 5.224 9 5.5 9H13C13.276 9 13.5 8.776 13.5 8.5C13.5 8.224 13.276 8 13 8H11V5.5C11 5.224 10.776 5 10.5 5C10.224 5 10 5.224 10 5.5V8H7V5.5C7 5.224 6.776 5 6.5 5C6.224 5 6 5.224 6 5.5V8H5.5C4.673 8 4 8.673 4 9.5V10H1.5C1.224 10 1 10.224 1 10.5C1 10.776 1.224 11 1.5 11H4V14H1.5C1.224 14 1 14.224 1 14.5C1 14.776 1.224 15 1.5 15H4V18H1.5C1.224 18 1 18.224 1 18.5C1 18.776 1.224 19 1.5 19H4V19.5C4 20.327 4.673 21 5.5 21H6V23.5C6 23.776 6.224 24 6.5 24C6.776 24 7 23.776 7 23.5V21H10V23.5C10 23.776 10.224 24 10.5 24C10.776 24 11 23.776 11 23.5V21H14V23.5C14 23.776 14.224 24 14.5 24C14.776 24 15 23.776 15 23.5V21H15.5C16.327 21 17 20.327 17 19.5V19H19.5C19.776 19 20 18.776 20 18.5C20 18.224 19.776 18 19.5 18H17V15H19.5Z" fill="black"/>
<path fill-rule="evenodd" clip-rule="evenodd" d="M8.5 10C7.122 10 6 11.121 6 12.5V16.5C6 17.879 7.122 19 8.5 19H12.5C13.878 19 15 17.879 15 16.5V12.5C15 11.121 13.878 10 12.5 10H8.5ZM14 16.5C14 17.327 13.327 18 12.5 18H8.5C7.673 18 7 17.327 7 16.5V12.5C7 11.673 7.673 11 8.5 11H12.5C13.327 11 14 11.673 14 12.5V16.5Z" fill="black"/>
</g>
<defs>
<clipPath id="clip0_313_14949">
<rect width="24" height="24" fill="white"/>
</clipPath>
</defs>
</svg>
