<svg width="24" height="24" viewBox="0 0 24 24" fill="none" xmlns="http://www.w3.org/2000/svg">
<path fill-rule="evenodd" clip-rule="evenodd" d="M23 17H23.5C23.776 17 24 17.224 24 17.5V19.5C24 20.327 23.327 21 22.5 21H1.5C0.673 21 0 20.327 0 19.5V17.5C0 17.224 0.224 17 0.5 17H1V5C1 3.897 1.897 3 3 3H21C22.103 3 23 3.897 23 5V17ZM3 4C2.449 4 2 4.448 2 5V17H9.5C9.776 17 10 17.224 10 17.5V18H14V17.5C14 17.224 14.224 17 14.5 17H22V5C22 4.448 21.551 4 21 4H3ZM22.5 20C22.776 20 23 19.775 23 19.5V18H15V18.5C15 18.776 14.776 19 14.5 19H9.5C9.224 19 9 18.776 9 18.5V18H1V19.5C1 19.775 1.224 20 1.5 20H22.5Z" fill="black"/>
</svg>
