<svg width="24" height="24" viewBox="0 0 24 24" fill="none" xmlns="http://www.w3.org/2000/svg">
<path fill-rule="evenodd" clip-rule="evenodd" d="M2.5 4H21.5C21.776 4 22 4.224 22 4.5V15.5C22 15.776 21.776 16 21.5 16H2.5C2.224 16 2 15.776 2 15.5V4.5C2 4.224 2.224 4 2.5 4ZM3 15H21V5H3V15Z" fill="black"/>
<path fill-rule="evenodd" clip-rule="evenodd" d="M1.5 2H22.5C23.327 2 24 2.673 24 3.5V16.5C24 17.327 23.327 18 22.5 18H14V20H17C17.276 20 17.5 20.224 17.5 20.5C17.5 20.776 17.276 21 17 21H7C6.724 21 6.5 20.776 6.5 20.5C6.5 20.224 6.724 20 7 20H10V18H1.5C0.673 18 0 17.327 0 16.5V3.5C0 2.673 0.673 2 1.5 2ZM11 20H13V18H11V20ZM22.5 17C22.776 17 23 16.775 23 16.5V3.5C23 3.225 22.776 3 22.5 3H1.5C1.224 3 1 3.225 1 3.5V16.5C1 16.775 1.224 17 1.5 17H22.5Z" fill="black"/>
</svg>
