<svg width="24" height="24" viewBox="0 0 24 24" fill="none" xmlns="http://www.w3.org/2000/svg">
<path fill-rule="evenodd" clip-rule="evenodd" d="M22.969 4.326C22.896 4.13 22.709 4 22.5 4H19.473L22.369 0.838C22.503 0.692 22.538 0.481 22.458 0.299C22.378 0.117 22.198 0 22 0H17C16.798 0 16.616 0.121 16.539 0.308L14.039 6.308C13.975 6.462 13.992 6.639 14.084 6.778C14.176 6.917 14.333 7 14.5 7H16.464L15.041 10.302C14.949 10.516 15.016 10.765 15.204 10.903C15.292 10.968 15.396 11 15.5 11C15.616 11 15.732 10.96 15.825 10.88L22.825 4.88C22.984 4.743 23.042 4.522 22.969 4.326ZM16.814 8.715L17.684 6.698C17.751 6.543 17.735 6.366 17.642 6.225C17.55 6.085 17.393 6 17.225 6H15.25L17.333 1H20.864L17.968 4.162C17.834 4.308 17.799 4.519 17.879 4.701C17.959 4.883 18.139 5 18.337 5H21.149L16.814 8.715Z" fill="black"/>
<path d="M19.5 15C19.776 15 20 14.776 20 14.5C20 14.224 19.776 14 19.5 14H17V12.5C17 12.224 16.776 12 16.5 12C16.224 12 16 12.224 16 12.5V19.5C16 19.771 15.771 20 15.5 20H5.5C5.229 20 5 19.771 5 19.5V9.5C5 9.225 5.224 9 5.5 9H13C13.276 9 13.5 8.776 13.5 8.5C13.5 8.224 13.276 8 13 8H11V5.5C11 5.224 10.776 5 10.5 5C10.224 5 10 5.224 10 5.5V8H7V5.5C7 5.224 6.776 5 6.5 5C6.224 5 6 5.224 6 5.5V8H5.5C4.673 8 4 8.673 4 9.5V10H1.5C1.224 10 1 10.224 1 10.5C1 10.776 1.224 11 1.5 11H4V14H1.5C1.224 14 1 14.224 1 14.5C1 14.776 1.224 15 1.5 15H4V18H1.5C1.224 18 1 18.224 1 18.5C1 18.776 1.224 19 1.5 19H4V19.5C4 20.327 4.673 21 5.5 21H6V23.5C6 23.776 6.224 24 6.5 24C6.776 24 7 23.776 7 23.5V21H10V23.5C10 23.776 10.224 24 10.5 24C10.776 24 11 23.776 11 23.5V21H14V23.5C14 23.776 14.224 24 14.5 24C14.776 24 15 23.776 15 23.5V21H15.5C16.327 21 17 20.327 17 19.5V19H19.5C19.776 19 20 18.776 20 18.5C20 18.224 19.776 18 19.5 18H17V15H19.5Z" fill="black"/>
<path fill-rule="evenodd" clip-rule="evenodd" d="M6 12.5C6 11.121 7.122 10 8.5 10H12.5C13.878 10 15 11.121 15 12.5V16.5C15 17.879 13.878 19 12.5 19H8.5C7.122 19 6 17.879 6 16.5V12.5ZM12.5 18C13.327 18 14 17.327 14 16.5V12.5C14 11.673 13.327 11 12.5 11H8.5C7.673 11 7 11.673 7 12.5V16.5C7 17.327 7.673 18 8.5 18H12.5Z" fill="black"/>
</svg>
