<svg width="24" height="24" viewBox="0 0 24 24" fill="none" xmlns="http://www.w3.org/2000/svg">
<path fill-rule="evenodd" clip-rule="evenodd" d="M21.5 3H2.5C2.224 3 2 3.224 2 3.5V15.5C2 15.776 2.224 16 2.5 16H21.5C21.776 16 22 15.776 22 15.5V3.5C22 3.224 21.776 3 21.5 3ZM21 15H3V4H21V15Z" fill="black"/>
<path d="M12 16.5C11.449 16.5 11 16.948 11 17.5C11 18.052 11.449 18.5 12 18.5C12.551 18.5 13 18.052 13 17.5C13 16.948 12.551 16.5 12 16.5Z" fill="black"/>
<path fill-rule="evenodd" clip-rule="evenodd" d="M22 1H2C0.897 1 0 1.897 0 3V18C0 19.103 0.897 20 2 20H8.807L8.14 22H5C4.724 22 4.5 22.224 4.5 22.5C4.5 22.776 4.724 23 5 23H19C19.276 23 19.5 22.776 19.5 22.5C19.5 22.224 19.276 22 19 22H15.86L15.193 20H22C23.103 20 24 19.103 24 18V3C24 1.897 23.103 1 22 1ZM14.14 20L14.806 22H9.194L9.861 20H14.14ZM23 18C23 18.552 22.551 19 22 19H2C1.449 19 1 18.552 1 18V3C1 2.448 1.449 2 2 2H22C22.551 2 23 2.448 23 3V18Z" fill="black"/>
</svg>
