<svg width="24" height="24" viewBox="0 0 24 24" fill="none" xmlns="http://www.w3.org/2000/svg">
<path fill-rule="evenodd" clip-rule="evenodd" d="M14.5 17H1.5C1.224 17 1 16.775 1 16.5V4.5C1 4.225 1.224 4 1.5 4H19.5C19.776 4 20 4.225 20 4.5V5.499C20 5.775 20.224 5.999 20.5 5.999C20.776 5.999 21 5.775 21 5.499V4.5C21 3.673 20.327 3 19.5 3H1.5C0.673 3 0 3.673 0 4.5V16.5C0 17.327 0.673 18 1.5 18H8V20H7C6.724 20 6.5 20.224 6.5 20.5C6.5 20.776 6.724 21 7 21H14C14.276 21 14.5 20.776 14.5 20.5C14.5 20.224 14.276 20 14 20H13V18H14.5C14.776 18 15 17.776 15 17.5C15 17.224 14.776 17 14.5 17ZM12 20H9V18H12V20Z" fill="black"/>
<path d="M14.5 15H3V5.99999L18.5 5.99899C18.776 5.99899 19 5.77499 19 5.49899C19 5.22299 18.776 4.99899 18.5 4.99899L2.5 4.99999C2.224 4.99999 2 5.22399 2 5.49999V15.5C2 15.776 2.224 16 2.5 16H14.5C14.776 16 15 15.776 15 15.5C15 15.224 14.776 15 14.5 15Z" fill="black"/>
<path d="M22 10H19.5C19.224 10 19 9.776 19 9.5C19 9.224 19.224 9 19.5 9H22C22.276 9 22.5 9.224 22.5 9.5C22.5 9.776 22.276 10 22 10Z" fill="black"/>
<path d="M22.5 17.5H20.5V19.5H22.5V17.5Z" fill="black"/>
<path fill-rule="evenodd" clip-rule="evenodd" d="M16 7.5C16 7.224 16.224 7 16.5 7H23.5C23.776 7 24 7.224 24 7.5V20.5C24 20.776 23.776 21 23.5 21H16.5C16.224 21 16 20.776 16 20.5V7.5ZM23 13V12H17V13H23ZM23 16V14H17V16H23ZM17 11H23V8H17V11ZM17 17V20H23V17H17Z" fill="black"/>
</svg>
