<svg width="24" height="24" viewBox="0 0 24 24" fill="none" xmlns="http://www.w3.org/2000/svg">
<path d="M17.5 2C17.7761 2 18 2.22386 18 2.5V21.5C18 21.7761 17.7761 22 17.5 22C17.2239 22 17 21.7761 17 21.5V2.5C17 2.22386 17.2239 2 17.5 2Z" fill="black"/>
<path d="M21.5 2C21.7761 2 22 2.22386 22 2.5V21.5C22 21.7761 21.7761 22 21.5 22C21.2239 22 21 21.7761 21 21.5V2.5C21 2.22386 21.2239 2 21.5 2Z" fill="black"/>
<path fill-rule="evenodd" clip-rule="evenodd" d="M3.65362 2.83565C3.0057 2.27608 2 2.73636 2 3.59247V20.4075C2 21.2636 3.0057 21.7239 3.65362 21.1643L13.3886 12.7568C13.8505 12.358 13.8505 11.642 13.3886 11.2432L3.65362 2.83565ZM3 3.59247L12.735 12L3 20.4075V3.59247Z" fill="black"/>
</svg>
