<svg width="24" height="24" viewBox="0 0 24 24" fill="none" xmlns="http://www.w3.org/2000/svg">
<path d="M20 3C20 2.72386 19.7761 2.5 19.5 2.5C19.2239 2.5 19 2.72386 19 3V22C19 22.2761 19.2239 22.5 19.5 22.5C19.7761 22.5 20 22.2761 20 22V3Z" fill="black"/>
<path fill-rule="evenodd" clip-rule="evenodd" d="M5.65362 2.83565C5.0057 2.27608 4 2.73636 4 3.59247V20.4075C4 21.2636 5.0057 21.7239 5.65362 21.1643L15.3886 12.7568C15.8505 12.358 15.8505 11.642 15.3886 11.2432L5.65362 2.83565ZM5 3.59247L14.735 12L5 20.4075V3.59247Z" fill="black"/>
</svg>
