<svg width="24" height="24" viewBox="0 0 24 24" fill="none" xmlns="http://www.w3.org/2000/svg">
<path d="M4 2.5C4 2.22386 4.22386 2 4.5 2C4.77614 2 5 2.22386 5 2.5V21.5C5 21.7761 4.77614 22 4.5 22C4.22386 22 4 21.7761 4 21.5V2.5Z" fill="black"/>
<path fill-rule="evenodd" clip-rule="evenodd" d="M18.3464 2.83565C18.9943 2.27608 20 2.73636 20 3.59247V20.4075C20 21.2636 18.9943 21.7239 18.3464 21.1643L8.61135 12.7568C8.14951 12.358 8.14951 11.642 8.61135 11.2432L18.3464 2.83565ZM19 3.59247L9.26497 12L19 20.4075V3.59247Z" fill="black"/>
</svg>
