<svg width="24" height="24" viewBox="0 0 24 24" fill="none" xmlns="http://www.w3.org/2000/svg">
<path d="M7.5 15H3.547C3.271 15 3.047 14.776 3.047 14.5C3.047 14.224 3.271 14 3.547 14H7.5C7.776 14 8 14.224 8 14.5C8 14.776 7.776 15 7.5 15Z" fill="black"/>
<path d="M9.547 15H13.5C13.776 15 14 14.776 14 14.5C14 14.224 13.776 14 13.5 14H9.547C9.271 14 9.047 14.224 9.047 14.5C9.047 14.776 9.271 15 9.547 15Z" fill="black"/>
<path d="M21 14.5C21 14.7761 20.7761 15 20.5 15C20.2239 15 20 14.7761 20 14.5C20 14.2239 20.2239 14 20.5 14C20.7761 14 21 14.2239 21 14.5Z" fill="black"/>
<path d="M17.5 15C17.7761 15 18 14.7761 18 14.5C18 14.2239 17.7761 14 17.5 14C17.2239 14 17 14.2239 17 14.5C17 14.7761 17.2239 15 17.5 15Z" fill="black"/>
<path fill-rule="evenodd" clip-rule="evenodd" d="M23.9788 12.3938L23.982 12.412C23.9839 12.4229 23.9869 12.4336 23.9899 12.4444C23.9949 12.4624 24 12.4806 24 12.5V16.5C24 16.776 23.776 17 23.5 17H0.5C0.224 17 0 16.776 0 16.5V12.5C0 12.4812 0.00476447 12.4636 0.00941217 12.4463C0.0124414 12.4351 0.0154217 12.424 0.017 12.413L0.020216 12.3948C0.0225559 12.381 0.0247969 12.3677 0.029 12.353C0.057 12.267 0.103 12.192 0.167 12.133C0.169 12.131 0.17 12.1287 0.171 12.1265C0.172 12.1243 0.173 12.122 0.175 12.12L7 6.27V0.5C7 0.224 7.224 0 7.5 0H16.5C16.776 0 17 0.224 17 0.5V6.27L23.824 12.119C23.8257 12.1207 23.8267 12.1227 23.8276 12.1246C23.8286 12.1269 23.83 12.13 23.832 12.132C23.897 12.191 23.943 12.266 23.97 12.352C23.9742 12.3667 23.9764 12.38 23.9788 12.3938ZM16 1H8V6H16V1ZM16.316 7H7.685L1.852 12H22.149L16.316 7ZM1 16H23V13H1V16Z" fill="black"/>
<path d="M16.1495 19.105C15.9545 19.3 15.9545 19.617 16.1495 19.812C16.7175 20.379 16.5372 20.6191 16.1019 21.1989L16.0995 21.202C15.6765 21.761 14.9695 22.698 16.1255 23.854C16.2235 23.951 16.3525 24 16.4795 24C16.6065 24 16.7345 23.951 16.8325 23.854C17.0275 23.659 17.0275 23.342 16.8325 23.147C16.2915 22.606 16.4565 22.387 16.8965 21.804C17.3245 21.237 18.0403 20.2888 16.8565 19.105C16.6615 18.91 16.3445 18.91 16.1495 19.105Z" fill="black"/>
<path d="M11.6495 19.812C11.4545 19.617 11.4545 19.3 11.6495 19.105C11.8445 18.91 12.1615 18.91 12.3565 19.105C13.5403 20.2888 12.8248 21.2366 12.3968 21.8037C11.9568 22.3867 11.7915 22.606 12.3325 23.147C12.5275 23.342 12.5275 23.659 12.3325 23.854C12.2345 23.951 12.1065 24 11.9795 24C11.8525 24 11.7235 23.951 11.6255 23.854C10.4695 22.698 11.1765 21.761 11.5995 21.202L11.6019 21.1989C12.0372 20.6191 12.2175 20.379 11.6495 19.812Z" fill="black"/>
<path d="M7.14952 19.105C6.95452 19.3 6.95452 19.617 7.14952 19.812C7.71749 20.379 7.53717 20.6191 7.10187 21.1989L7.09952 21.202C6.67652 21.761 5.96951 22.698 7.12551 23.854C7.22351 23.951 7.35251 24 7.47952 24C7.60652 24 7.73452 23.951 7.83252 23.854C8.02752 23.659 8.02752 23.342 7.83252 23.147C7.29152 22.606 7.45651 22.387 7.89651 21.804C8.32454 21.237 9.04029 20.2888 7.85652 19.105C7.66152 18.91 7.34451 18.91 7.14952 19.105Z" fill="black"/>
</svg>
