<svg width="24" height="24" viewBox="0 0 24 24" fill="none" xmlns="http://www.w3.org/2000/svg">
<path d="M16.5 18C16.776 18 17 17.776 17 17.5C17 17.224 16.776 17 16.5 17H14.5C14.224 17 14 17.224 14 17.5C14 17.776 14.224 18 14.5 18H16.5Z" fill="black"/>
<path d="M10.5 8H11.5C11.776 8 12 8.224 12 8.5C12 8.776 11.776 9 11.5 9H10.5C10.224 9 10 8.776 10 8.5C10 8.224 10.224 8 10.5 8Z" fill="black"/>
<path fill-rule="evenodd" clip-rule="evenodd" d="M19.932 23.139L17.846 21.139C17.753 21.05 17.629 21 17.5 21H8.949L8.95206 20.9798C8.97608 20.8216 9 20.664 9 20.5C9 20.336 8.97608 20.1784 8.95206 20.0202L8.949 20H18.5C18.776 20 19 19.776 19 19.5V10.5C19 10.224 18.776 10 18.5 10H16V5.5C16 5.224 15.776 5 15.5 5H8.5C8.224 5 8 5.224 8 5.5V18.058C7.714 17.765 7.373 17.53 7 17.351V0.5C7 0.224 6.776 0 6.5 0H3.5C3.224 0 3 0.224 3 0.5C3 0.776 3.224 1 3.5 1H6V17.051L5.95005 17.0437C5.80182 17.0218 5.65374 17 5.5 17C3.57 17 2 18.57 2 20.5C2 22.43 3.57 24 5.5 24C6.891 24 8.085 23.179 8.648 22H17.298L19.239 23.861C19.337 23.954 19.461 24 19.586 24C19.718 24 19.849 23.948 19.947 23.847C20.138 23.646 20.131 23.33 19.932 23.139ZM18 19H9V11H18V19ZM9 6H15V10H9V6ZM5.5 23C4.121 23 3 21.878 3 20.5C3 19.122 4.121 18 5.5 18C5.78 18 6.045 18.057 6.296 18.142C6.30364 18.1455 6.31162 18.1477 6.31974 18.1499C6.32545 18.1514 6.33122 18.1529 6.337 18.155C7.303 18.5 8 19.417 8 20.5C8 20.78 7.943 21.044 7.858 21.296C7.85448 21.3036 7.85233 21.3116 7.85015 21.3197C7.84862 21.3254 7.84706 21.3312 7.845 21.337C7.499 22.303 6.584 23 5.5 23Z" fill="black"/>
</svg>
