<svg width="24" height="24" viewBox="0 0 24 24" fill="none" xmlns="http://www.w3.org/2000/svg">
<path d="M0 0.5C0 0.223858 0.223858 0 0.5 0H23.5C23.7761 0 24 0.223858 24 0.5C24 0.776142 23.7761 1 23.5 1H0.5C0.223858 1 0 0.776142 0 0.5Z" fill="black"/>
<path d="M5 3.5C5 3.22386 5.22386 3 5.5 3H18.5C18.7761 3 19 3.22386 19 3.5C19 3.77614 18.7761 4 18.5 4H5.5C5.22386 4 5 3.77614 5 3.5Z" fill="black"/>
<path d="M5 22.5C5 22.2239 5.22386 22 5.5 22H18.5C18.7761 22 19 22.2239 19 22.5C19 22.7761 18.7761 23 18.5 23H5.5C5.22386 23 5 22.7761 5 22.5Z" fill="black"/>
<path fill-rule="evenodd" clip-rule="evenodd" d="M1.5 2C1.22386 2 1 2.22386 1 2.5V23.5C1 23.7761 1.22386 24 1.5 24H3.5C3.77614 24 4 23.7761 4 23.5V2.5C4 2.22386 3.77614 2 3.5 2H1.5ZM2 23V3H3V23H2Z" fill="black"/>
<path fill-rule="evenodd" clip-rule="evenodd" d="M20 2.5C20 2.22386 20.2239 2 20.5 2H22.5C22.7761 2 23 2.22386 23 2.5V23.5C23 23.7761 22.7761 24 22.5 24H20.5C20.2239 24 20 23.7761 20 23.5V2.5ZM22 3H21V23H22V3Z" fill="black"/>
<path d="M8.60957 12.6877C8.46348 12.8703 8.46348 13.1297 8.60957 13.3123L10.6096 15.8123C10.7821 16.028 11.0967 16.0629 11.3123 15.8904C11.528 15.7179 11.5629 15.4033 11.3904 15.1877L9.64031 13L11.3904 10.8123C11.5629 10.5967 11.528 10.2821 11.3123 10.1096C11.0967 9.93706 10.7821 9.97202 10.6096 10.1877L8.60957 12.6877Z" fill="black"/>
<path d="M12.6096 15.1877C12.4371 15.4033 12.472 15.7179 12.6877 15.8904C12.9033 16.0629 13.2179 16.028 13.3904 15.8123L15.3904 13.3123C15.5365 13.1297 15.5365 12.8703 15.3904 12.6877L13.3904 10.1877C13.2179 9.97202 12.9033 9.93706 12.6877 10.1096C12.472 10.2821 12.4371 10.5967 12.6096 10.8123L14.3597 13L12.6096 15.1877Z" fill="black"/>
</svg>
