<svg width="24" height="24" viewBox="0 0 24 24" fill="none" xmlns="http://www.w3.org/2000/svg">
<path d="M24 0.5C24 0.223858 23.7761 0 23.5 0H0.5C0.223858 0 0 0.223858 0 0.5C0 0.776142 0.223858 1 0.5 1H23.5C23.7761 1 24 0.776142 24 0.5Z" fill="black"/>
<path d="M5 4H16V3H4.5C4.22386 3 4 3.22386 4 3.5V22.5C4 22.7761 4.22386 23 4.5 23H16V22H5V4Z" fill="black"/>
<path fill-rule="evenodd" clip-rule="evenodd" d="M21.5 2C21.7761 2 22 2.22386 22 2.5V23.5C22 23.7761 21.7761 24 21.5 24H17.5C17.2239 24 17 23.7761 17 23.5V2.5C17 2.22386 17.2239 2 17.5 2H21.5ZM18 23H19V3H18V23ZM20 23V3H21V23H20Z" fill="black"/>
<path d="M11.8904 15.1877C12.0629 15.4033 12.028 15.7179 11.8123 15.8904C11.5967 16.0629 11.2821 16.028 11.1096 15.8123L9.10957 13.3123C8.96348 13.1297 8.96348 12.8703 9.10957 12.6877L11.1096 10.1877C11.2821 9.97202 11.5967 9.93706 11.8123 10.1096C12.028 10.2821 12.0629 10.5967 11.8904 10.8123L10.1403 13L11.8904 15.1877Z" fill="black"/>
</svg>
