<svg width="24" height="23" viewBox="0 0 24 23" fill="none" xmlns="http://www.w3.org/2000/svg">
<path d="M0.5 0C0.223858 0 0 0.223858 0 0.5C0 0.776142 0.223858 1 0.5 1H23.5C23.7761 1 24 0.776142 24 0.5C24 0.223858 23.7761 0 23.5 0H0.5Z" fill="black"/>
<path d="M8 4H19V21H8V22H19.5C19.7761 22 20 21.7761 20 21.5V3.5C20 3.22386 19.7761 3 19.5 3H8V4Z" fill="black"/>
<path fill-rule="evenodd" clip-rule="evenodd" d="M2 2.5C2 2.22386 2.22386 2 2.5 2H6.5C6.77614 2 7 2.22386 7 2.5V22.5C7 22.7761 6.77614 23 6.5 23H2.5C2.22386 23 2 22.7761 2 22.5V2.5ZM5 22H6V3H5V22ZM4 3V22H3V3H4Z" fill="black"/>
</svg>
