<svg width="24" height="24" viewBox="0 0 24 24" fill="none" xmlns="http://www.w3.org/2000/svg">
<path d="M0.5 0C0.223858 0 0 0.223858 0 0.5C0 0.776142 0.223858 1 0.5 1H23.5C23.7761 1 24 0.776142 24 0.5C24 0.223858 23.7761 0 23.5 0H0.5Z" fill="black"/>
<path d="M7.5 3C7.22386 3 7 3.22386 7 3.5C7 3.77614 7.22386 4 7.5 4H16.5C16.7761 4 17 3.77614 17 3.5C17 3.22386 16.7761 3 16.5 3H7.5Z" fill="black"/>
<path d="M7.5 22C7.22386 22 7 22.2239 7 22.5C7 22.7761 7.22386 23 7.5 23H16.5C16.7761 23 17 22.7761 17 22.5C17 22.2239 16.7761 22 16.5 22H7.5Z" fill="black"/>
<path fill-rule="evenodd" clip-rule="evenodd" d="M1 2.5C1 2.22386 1.22386 2 1.5 2H5.5C5.77614 2 6 2.22386 6 2.5V23.5C6 23.7761 5.77614 24 5.5 24H1.5C1.22386 24 1 23.7761 1 23.5V2.5ZM2 3V23H3V3H2ZM4 3V23H5V3H4Z" fill="black"/>
<path fill-rule="evenodd" clip-rule="evenodd" d="M18.5 2C18.2239 2 18 2.22386 18 2.5V23.5C18 23.7761 18.2239 24 18.5 24H22.5C22.7761 24 23 23.7761 23 23.5V2.5C23 2.22386 22.7761 2 22.5 2H18.5ZM19 23V3H20V23H19ZM21 23V3H22V23H21Z" fill="black"/>
</svg>
