<svg width="24" height="24" viewBox="0 0 24 24" fill="none" xmlns="http://www.w3.org/2000/svg">
<path d="M24 0.5C24 0.223858 23.7761 0 23.5 0H0.5C0.223858 0 0 0.223858 0 0.5C0 0.776142 0.223858 1 0.5 1H23.5C23.7761 1 24 0.776142 24 0.5Z" fill="black"/>
<path d="M5 4H17V3H4.5C4.22386 3 4 3.22386 4 3.5V22.5C4 22.7761 4.22386 23 4.5 23H17V22H5V4Z" fill="black"/>
<path fill-rule="evenodd" clip-rule="evenodd" d="M22.5 2C22.7761 2 23 2.22386 23 2.5V23.5C23 23.7761 22.7761 24 22.5 24H18.5C18.2239 24 18 23.7761 18 23.5V2.5C18 2.22386 18.2239 2 18.5 2H22.5ZM19 23H20V3H19V23ZM21 23V3H22V23H21Z" fill="black"/>
<path d="M10.1096 15.1877C9.93706 15.4033 9.97202 15.7179 10.1877 15.8904C10.4033 16.0629 10.7179 16.028 10.8904 15.8123L12.8904 13.3123C13.0365 13.1297 13.0365 12.8703 12.8904 12.6877L10.8904 10.1877C10.7179 9.97202 10.4033 9.93706 10.1877 10.1096C9.97202 10.2821 9.93706 10.5967 10.1096 10.8123L11.8597 13L10.1096 15.1877Z" fill="black"/>
</svg>
