<svg width="24" height="24" viewBox="0 0 24 24" fill="none" xmlns="http://www.w3.org/2000/svg">
<path d="M0 0.5C0 0.223858 0.223858 0 0.5 0H23.5C23.7761 0 24 0.223858 24 0.5C24 0.776142 23.7761 1 23.5 1H0.5C0.223858 1 0 0.776142 0 0.5Z" fill="black"/>
<path d="M5 3.5C5 3.22386 5.22386 3 5.5 3H18.5C18.7761 3 19 3.22386 19 3.5C19 3.77614 18.7761 4 18.5 4H5.5C5.22386 4 5 3.77614 5 3.5Z" fill="black"/>
<path d="M5 22.5C5 22.2239 5.22386 22 5.5 22H18.5C18.7761 22 19 22.2239 19 22.5C19 22.7761 18.7761 23 18.5 23H5.5C5.22386 23 5 22.7761 5 22.5Z" fill="black"/>
<path fill-rule="evenodd" clip-rule="evenodd" d="M1.5 2C1.22386 2 1 2.22386 1 2.5V23.5C1 23.7761 1.22386 24 1.5 24H3.5C3.77614 24 4 23.7761 4 23.5V2.5C4 2.22386 3.77614 2 3.5 2H1.5ZM2 23V3H3V23H2Z" fill="black"/>
<path fill-rule="evenodd" clip-rule="evenodd" d="M20 2.5C20 2.22386 20.2239 2 20.5 2H22.5C22.7761 2 23 2.22386 23 2.5V23.5C23 23.7761 22.7761 24 22.5 24H20.5C20.2239 24 20 23.7761 20 23.5V2.5ZM22 3H21V23H22V3Z" fill="black"/>
<path d="M8.60957 15.1877C8.43706 15.4033 8.47202 15.7179 8.68765 15.8904C8.90328 16.0629 9.21793 16.028 9.39043 15.8123L11.3904 13.3123C11.5365 13.1297 11.5365 12.8703 11.3904 12.6877L9.39043 10.1877C9.21793 9.97202 8.90328 9.93706 8.68765 10.1096C8.47202 10.2821 8.43706 10.5967 8.60957 10.8123L10.3597 13L8.60957 15.1877Z" fill="black"/>
<path d="M12.6096 13.3123L14.6096 15.8123C14.7821 16.028 15.0967 16.0629 15.3123 15.8904C15.528 15.7179 15.5629 15.4033 15.3904 15.1877L13.6403 13L15.3904 10.8123C15.5629 10.5967 15.528 10.2821 15.3123 10.1096C15.0967 9.93706 14.7821 9.97202 14.6096 10.1877L12.6096 12.6877C12.4635 12.8703 12.4635 13.1297 12.6096 13.3123Z" fill="black"/>
</svg>
