<svg width="24" height="24" viewBox="0 0 24 24" fill="none" xmlns="http://www.w3.org/2000/svg">
<path d="M0 0.5C0 0.223858 0.223858 0 0.5 0H23.5C23.7761 0 24 0.223858 24 0.5C24 0.776142 23.7761 1 23.5 1H0.5C0.223858 1 0 0.776142 0 0.5Z" fill="black"/>
<path d="M19 4H7V3H19.5C19.7761 3 20 3.22386 20 3.5V22.5C20 22.7761 19.7761 23 19.5 23H7V22H19V4Z" fill="black"/>
<path fill-rule="evenodd" clip-rule="evenodd" d="M1.5 2C1.22386 2 1 2.22386 1 2.5V23.5C1 23.7761 1.22386 24 1.5 24H5.5C5.77614 24 6 23.7761 6 23.5V2.5C6 2.22386 5.77614 2 5.5 2H1.5ZM5 23H4V3H5V23ZM3 23V3H2V23H3Z" fill="black"/>
<path d="M13.8904 15.1877C14.0629 15.4033 14.028 15.7179 13.8123 15.8904C13.5967 16.0629 13.2821 16.028 13.1096 15.8123L11.1096 13.3123C10.9635 13.1297 10.9635 12.8703 11.1096 12.6877L13.1096 10.1877C13.2821 9.97202 13.5967 9.93706 13.8123 10.1096C14.028 10.2821 14.0629 10.5967 13.8904 10.8123L12.1403 13L13.8904 15.1877Z" fill="black"/>
</svg>
