<svg width="24" height="24" viewBox="0 0 24 24" fill="none" xmlns="http://www.w3.org/2000/svg">
<path d="M0 0.5C0 0.223858 0.223858 0 0.5 0H23.5C23.7761 0 24 0.223858 24 0.5C24 0.776142 23.7761 1 23.5 1H0.5C0.223858 1 0 0.776142 0 0.5Z" fill="black"/>
<path d="M19 4H8V3H19.5C19.7761 3 20 3.22386 20 3.5V22.5C20 22.7761 19.7761 23 19.5 23H8V22H19V4Z" fill="black"/>
<path fill-rule="evenodd" clip-rule="evenodd" d="M2.5 2C2.22386 2 2 2.22386 2 2.5V23.5C2 23.7761 2.22386 24 2.5 24H6.5C6.77614 24 7 23.7761 7 23.5V2.5C7 2.22386 6.77614 2 6.5 2H2.5ZM6 23H5V3H6V23ZM4 23V3H3V23H4Z" fill="black"/>
<path d="M12.1096 15.1877C11.9371 15.4033 11.972 15.7179 12.1877 15.8904C12.4033 16.0629 12.7179 16.028 12.8904 15.8123L14.8904 13.3123C15.0365 13.1297 15.0365 12.8703 14.8904 12.6877L12.8904 10.1877C12.7179 9.97202 12.4033 9.93706 12.1877 10.1096C11.972 10.2821 11.9371 10.5967 12.1096 10.8123L13.8597 13L12.1096 15.1877Z" fill="black"/>
</svg>
