<svg width="24" height="23" viewBox="0 0 24 23" fill="none" xmlns="http://www.w3.org/2000/svg">
<path d="M23.5 0C23.7761 0 24 0.223858 24 0.5C24 0.776142 23.7761 1 23.5 1H0.5C0.223858 1 0 0.776142 0 0.5C0 0.223858 0.223858 0 0.5 0H23.5Z" fill="black"/>
<path d="M16 4H5V21H16V22H4.5C4.22386 22 4 21.7761 4 21.5V3.5C4 3.22386 4.22386 3 4.5 3H16V4Z" fill="black"/>
<path fill-rule="evenodd" clip-rule="evenodd" d="M22 2.5C22 2.22386 21.7761 2 21.5 2H17.5C17.2239 2 17 2.22386 17 2.5V22.5C17 22.7761 17.2239 23 17.5 23H21.5C21.7761 23 22 22.7761 22 22.5V2.5ZM19 22H18V3H19V22ZM20 3V22H21V3H20Z" fill="black"/>
</svg>
