<svg width="24" height="24" viewBox="0 0 24 24" fill="none" xmlns="http://www.w3.org/2000/svg">
<path d="M0.5 0C0.223858 0 0 0.223858 0 0.5C0 0.776142 0.223858 1 0.5 1H23.5C23.7761 1 24 0.776142 24 0.5C24 0.223858 23.7761 0 23.5 0H0.5Z" fill="black"/>
<path fill-rule="evenodd" clip-rule="evenodd" d="M1.5 2C1.22386 2 1 2.22386 1 2.5V23.5C1 23.7761 1.22386 24 1.5 24H22.5C22.7761 24 23 23.7761 23 23.5V2.5C23 2.22386 22.7761 2 22.5 2H1.5ZM2 23V3H4V23H2ZM5 23V3H7V23H5ZM8 23V3H10V23H8ZM11 23V3H13V23H11ZM14 23V3H16V23H14ZM17 23V3H19V23H17ZM20 23V3H22V23H20Z" fill="black"/>
</svg>
