<svg width="24" height="24" viewBox="0 0 24 24" fill="none" xmlns="http://www.w3.org/2000/svg">
<g clip-path="url(#clip0_313_15145)">
<path fill-rule="evenodd" clip-rule="evenodd" d="M4.358 7.50002H0.499998C0.304998 7.50002 0.127998 7.38702 0.0459983 7.21002C-0.0360017 7.03402 -0.00800169 6.82502 0.117998 6.67602L5.618 0.176018C5.767 0.00101756 6.016 -0.0519824 6.222 0.0510176C6.428 0.154018 6.538 0.383018 6.488 0.608018L5.623 4.50002H10C10.198 4.50002 10.378 4.61702 10.458 4.80002C10.537 4.98202 10.502 5.19302 10.367 5.33902L4.367 11.839C4.271 11.944 4.136 12 4 12C3.921 12 3.842 11.981 3.769 11.944C3.569 11.84 3.463 11.615 3.511 11.394L4.358 7.50002ZM4.511 4.89202L5.072 2.37102L1.578 6.50002H4.978C5.129 6.50002 5.272 6.56802 5.366 6.68702C5.462 6.80402 5.498 6.95902 5.466 7.10702L4.878 9.81102L8.858 5.50002H5C4.848 5.50002 4.705 5.43202 4.609 5.31202C4.515 5.19402 4.479 5.04002 4.511 4.89202Z" fill="black"/>
<path fill-rule="evenodd" clip-rule="evenodd" d="M18.428 15.144C18.773 15.059 19.128 15 19.5 15C21.981 15 24 17.019 24 19.5C24 21.981 21.981 24 19.5 24C17.019 24 15 21.981 15 19.5C15 17.744 16.021 16.236 17.49 15.495L16.532 12.895L11.401 19.796C11.395 19.803 11.39 19.81 11.384 19.817C11.312 19.906 11.214 19.964 11.109 19.987L11.108 19.988C11.088 19.992 11.066 19.996 11.045 19.998C11.045 19.9936 11.0333 19.9955 11.0207 19.9975C11.013 19.9987 11.005 20 10.999 20H8.95C8.697 22.244 6.81 24 4.5 24C2.018 24 6.98492e-10 21.981 6.98492e-10 19.5C6.98492e-10 17.019 2.018 15 4.5 15C5.476 15 6.373 15.32 7.111 15.85L8.397 14.422L7.413 12H6.5C6.223 12 6 11.776 6 11.5C6 11.224 6.223 11 6.5 11H9.5C9.776 11 10 11.224 10 11.5C10 11.776 9.776 12 9.5 12H8.493L9.258 13.884L16.038 11.55L15.531 10.174C15.482 10.041 15.492 9.893 15.558 9.768C15.625 9.642 15.741 9.551 15.879 9.516L17.879 9.016C18.146 8.95 18.418 9.111 18.485 9.38C18.552 9.647 18.389 9.919 18.121 9.986L16.662 10.35L18.428 15.144ZM7.949 19C7.854 18.347 7.581 17.758 7.177 17.273L5.622 19H7.949ZM1 19.5C1 21.43 2.57 23 4.5 23C6.258 23 7.704 21.691 7.95 20H4.5C4.302 20 4.123 19.884 4.044 19.703C3.963 19.523 3.997 19.312 4.129 19.165L6.444 16.592C5.887 16.219 5.219 16 4.5 16C2.57 16 1 17.57 1 19.5ZM7.849 16.525C8.45 17.201 8.843 18.055 8.949 19H10.257L8.815 15.452L7.849 16.525ZM9.634 14.81L11.128 18.488L15.317 12.854L9.634 14.81ZM16 19.5C16 21.43 17.57 23 19.5 23C21.429 23 23 21.43 23 19.5C23 17.57 21.43 16 19.5 16C19.25 16 19.007 16.028 18.772 16.078L19.969 19.327C20.065 19.586 19.932 19.874 19.673 19.969C19.616 19.99 19.558 20 19.5 20C19.296 20 19.105 19.875 19.03 19.672L17.839 16.438C16.75 17.032 16 18.174 16 19.5Z" fill="black"/>
</g>
<defs>
<clipPath id="clip0_313_15145">
<rect width="24" height="24" fill="white"/>
</clipPath>
</defs>
</svg>
