<svg width="24" height="24" viewBox="0 0 24 24" fill="none" xmlns="http://www.w3.org/2000/svg">
<path d="M9 1.5C9 1.776 9.224 2 9.5 2C9.776 2 10 1.776 10 1.5V0.5C10 0.224 9.776 0 9.5 0C9.224 0 9 0.224 9 0.5V1.5Z" fill="black"/>
<path d="M3.14601 3.85398C3.24401 3.95098 3.37201 3.99998 3.50001 3.99998C3.62801 3.99998 3.75601 3.95098 3.85301 3.85398C4.04801 3.65898 4.04801 3.34198 3.85301 3.14698L2.85301 2.14698C2.65801 1.95198 2.34101 1.95198 2.14601 2.14698C1.95101 2.34198 1.95101 2.65898 2.14601 2.85398L3.14601 3.85398Z" fill="black"/>
<path d="M15.5 3.99998C15.372 3.99998 15.244 3.95098 15.146 3.85398C14.951 3.65898 14.951 3.34198 15.146 3.14698L16.146 2.14698C16.341 1.95198 16.658 1.95198 16.853 2.14698C17.048 2.34198 17.048 2.65898 16.853 2.85398L15.853 3.85398C15.756 3.95098 15.628 3.99998 15.5 3.99998Z" fill="black"/>
<path d="M0.5 10H1.5C1.776 10 2 9.776 2 9.5C2 9.224 1.776 9 1.5 9H0.5C0.224 9 0 9.224 0 9.5C0 9.776 0.224 10 0.5 10Z" fill="black"/>
<path fill-rule="evenodd" clip-rule="evenodd" d="M19.5 24H8.5C5.468 24 3 21.526 3 18.485C3 15.761 4.939 13.492 7.574 13.049C8.022 10.17 10.551 7.96997 13.5 7.96997C15.874 7.96997 17.974 9.33197 18.951 11.472C20.157 11.458 21.264 12.045 21.926 13.053C22.501 13.93 22.65 15.001 22.349 15.988C23.39 16.841 24 18.121 24 19.485C24 21.975 21.982 24 19.5 24ZM13.5 8.97097C10.929 8.97097 8.742 10.977 8.521 13.538C8.5 13.778 8.311 13.971 8.07 13.993C5.789 14.208 4 16.182 4 18.485C4 20.975 6.019 23 8.5 23H19.5C21.43 23 23 21.423 23 19.485C23 18.319 22.428 17.232 21.469 16.578C21.271 16.442 21.197 16.185 21.292 15.966C21.633 15.182 21.559 14.32 21.088 13.603C20.565 12.805 19.665 12.372 18.689 12.493C18.465 12.528 18.244 12.391 18.161 12.177C17.412 10.229 15.582 8.97097 13.5 8.97097Z" fill="black"/>
<path d="M3.362 11.625C3.435 11.831 3.628 11.959 3.834 11.959C3.889 11.959 3.945 11.95 4 11.931C4.261 11.839 4.397 11.554 4.306 11.293C4.103 10.717 4 10.114 4 9.5C4 6.468 6.467 4 9.5 4C11.067 4 12.566 4.676 13.612 5.855C13.795 6.061 14.111 6.079 14.318 5.897C14.525 5.713 14.543 5.398 14.36 5.191C13.125 3.799 11.353 3 9.5 3C5.916 3 3 5.916 3 9.5C3 10.228 3.122 10.942 3.362 11.625Z" fill="black"/>
</svg>
