<svg width="24" height="24" viewBox="0 0 24 24" fill="none" xmlns="http://www.w3.org/2000/svg">
<g clip-path="url(#clip0_366_12655)">
<path d="M11.6629 1.13076C11.8538 0.956414 12.1462 0.956414 12.3371 1.13076L23.8371 11.6308C24.0411 11.817 24.0554 12.1332 23.8692 12.3371C23.6831 12.5411 23.3668 12.5554 23.1629 12.3692L12 2.17706L0.837138 12.3692C0.633211 12.5554 0.316955 12.5411 0.13076 12.3371C-0.0554339 12.1332 -0.0410586 11.817 0.162869 11.6308L11.6629 1.13076Z" fill="black"/>
<path d="M3.5 12C3.77614 12 4 12.2239 4 12.5V23H12.5C12.7761 23 13 23.2239 13 23.5C13 23.7761 12.7761 24 12.5 24H3.5C3.22386 24 3 23.7761 3 23.5V12.5C3 12.2239 3.22386 12 3.5 12Z" fill="black"/>
<path d="M16 2C15.7239 2 15.5 2.22386 15.5 2.5C15.5 2.77614 15.7239 3 16 3H19V6C19 6.27614 19.2239 6.5 19.5 6.5C19.7761 6.5 20 6.27614 20 6V2.5C20 2.22386 19.7761 2 19.5 2H16Z" fill="black"/>
<path fill-rule="evenodd" clip-rule="evenodd" d="M10 6.5C10 6.22386 10.2239 6 10.5 6H13.5C13.7761 6 14 6.22386 14 6.5V9.5C14 9.77614 13.7761 10 13.5 10H10.5C10.2239 10 10 9.77614 10 9.5V6.5ZM11 7V9H13V7H11Z" fill="black"/>
<path d="M19.7082 16L21.8543 13.854C21.9443 13.763 22.0002 13.638 22.0002 13.5C22.0002 13.224 21.7762 13 21.5002 13H18.5002C18.2242 13 18.0002 13.224 18.0002 13.5C18.0002 13.776 18.2242 14 18.5002 14H20.2932L18.1472 16.146C18.0572 16.237 18.0012 16.362 18.0012 16.5C18.0012 16.776 18.2252 17 18.5012 17H21.5012C21.7772 17 22.0012 16.776 22.0012 16.5C22.0012 16.224 21.7772 16 21.5012 16H19.7082Z" fill="black"/>
<path d="M13.7082 18L15.8543 15.854C15.9443 15.763 16.0002 15.638 16.0002 15.5C16.0002 15.224 15.7762 15 15.5002 15H12.5002C12.2242 15 12.0002 15.224 12.0002 15.5C12.0002 15.776 12.2242 16 12.5002 16H14.2932L12.1472 18.146C12.0572 18.237 12.0012 18.362 12.0012 18.5C12.0012 18.776 12.2252 19 12.5012 19H15.5012C15.7772 19 16.0012 18.776 16.0012 18.5C16.0012 18.224 15.7772 18 15.5012 18H13.7082Z" fill="black"/>
<path d="M19.8543 20.854L17.7082 23H19.5012C19.7772 23 20.0012 23.224 20.0012 23.5C20.0012 23.776 19.7772 24 19.5012 24H16.5012C16.2252 24 16.0012 23.776 16.0012 23.5C16.0012 23.362 16.0572 23.237 16.1472 23.146L18.2932 21H16.5002C16.2242 21 16.0002 20.776 16.0002 20.5C16.0002 20.224 16.2242 20 16.5002 20H19.5002C19.7762 20 20.0002 20.224 20.0002 20.5C20.0002 20.638 19.9443 20.763 19.8543 20.854Z" fill="black"/>
</g>
<defs>
<clipPath id="clip0_366_12655">
<rect width="24" height="24" fill="white"/>
</clipPath>
</defs>
</svg>
