<svg width="24" height="24" viewBox="0 0 24 24" fill="none" xmlns="http://www.w3.org/2000/svg">
<path fill-rule="evenodd" clip-rule="evenodd" d="M3.83301 12C3.83301 7.48987 7.48987 3.83301 12 3.83301C13.7019 3.83301 15.2813 4.35524 16.5902 5.24559C16.7134 5.32938 16.7928 5.46375 16.8068 5.61207C16.8208 5.7604 16.7679 5.90723 16.6625 6.01258L6.01254 16.6616C5.90726 16.7669 5.76052 16.8197 5.61228 16.8058C5.46404 16.7919 5.32971 16.7126 5.24585 16.5896C4.35411 15.2813 3.83301 13.7017 3.83301 12ZM12 4.83301C8.04215 4.83301 4.83301 8.04215 4.83301 12C4.83301 13.2762 5.16626 14.4722 5.75083 15.5091L15.5097 5.75114C14.472 5.16685 13.2759 4.83301 12 4.83301Z" fill="black"/>
<path fill-rule="evenodd" clip-rule="evenodd" d="M18.7544 7.40976C18.6706 7.28658 18.5362 7.20718 18.3879 7.19319C18.2396 7.1792 18.0928 7.23208 17.9874 7.33743L7.33743 17.9874C7.23208 18.0928 7.1792 18.2396 7.19319 18.3879C7.20718 18.5362 7.28658 18.6706 7.40976 18.7544C8.71866 19.6447 10.2981 20.167 12 20.167C16.509 20.167 20.167 16.5112 20.167 12C20.167 10.2991 19.6448 8.71869 18.7544 7.40976ZM12 19.167C10.724 19.167 9.52798 18.8331 8.49024 18.2488L18.2488 8.49026C18.8331 9.52818 19.167 10.7249 19.167 12C19.167 15.9588 15.9569 19.167 12 19.167Z" fill="black"/>
<path fill-rule="evenodd" clip-rule="evenodd" d="M7.4078 0.913445C8.86371 0.310389 10.4241 0 12 0C13.5759 0 15.1363 0.310389 16.5922 0.913445C18.0481 1.5165 19.371 2.40042 20.4853 3.51472C21.5996 4.62902 22.4835 5.95189 23.0866 7.4078C23.6896 8.86371 24 10.4241 24 12C24 13.5759 23.6896 15.1363 23.0866 16.5922C22.4835 18.0481 21.5996 19.371 20.4853 20.4853C19.371 21.5996 18.0481 22.4835 16.5922 23.0866C15.1363 23.6896 13.5759 24 12 24C10.4241 24 8.86371 23.6896 7.4078 23.0866C5.95189 22.4835 4.62902 21.5996 3.51472 20.4853C2.40042 19.371 1.5165 18.0481 0.913446 16.5922C0.310389 15.1363 0 13.5759 0 12C0 10.4241 0.310389 8.86371 0.913446 7.4078C1.5165 5.95189 2.40042 4.62902 3.51472 3.51472C4.62902 2.40042 5.95189 1.5165 7.4078 0.913445ZM12 1C10.5555 1 9.12506 1.28452 7.79048 1.83733C6.4559 2.39013 5.24327 3.20038 4.22183 4.22183C3.20038 5.24327 2.39013 6.4559 1.83733 7.79048C1.28452 9.12506 1 10.5555 1 12C1 13.4445 1.28452 14.8749 1.83733 16.2095C2.39013 17.5441 3.20038 18.7567 4.22183 19.7782C5.24327 20.7996 6.4559 21.6099 7.79048 22.1627C9.12506 22.7155 10.5555 23 12 23C13.4445 23 14.8749 22.7155 16.2095 22.1627C17.5441 21.6099 18.7567 20.7996 19.7782 19.7782C20.7996 18.7567 21.6099 17.5441 22.1627 16.2095C22.7155 14.8749 23 13.4445 23 12C23 10.5555 22.7155 9.12506 22.1627 7.79048C21.6099 6.4559 20.7996 5.24327 19.7782 4.22183C18.7567 3.20038 17.5441 2.39013 16.2095 1.83733C14.8749 1.28452 13.4445 1 12 1Z" fill="black"/>
</svg>
