<svg width="24" height="24" viewBox="0 0 24 24" fill="none" xmlns="http://www.w3.org/2000/svg">
<path fill-rule="evenodd" clip-rule="evenodd" d="M2.14645 2.14645C2.34171 1.95118 2.65829 1.95118 2.85355 2.14645L12 11.2929L21.1464 2.14645C21.3417 1.95118 21.6583 1.95118 21.8536 2.14645C22.0488 2.34171 22.0488 2.65829 21.8536 2.85355L12.7071 12L21.8536 21.1464C22.0488 21.3417 22.0488 21.6583 21.8536 21.8536C21.6583 22.0488 21.3417 22.0488 21.1464 21.8536L12 12.7071L2.85355 21.8536C2.65829 22.0488 2.34171 22.0488 2.14645 21.8536C1.95118 21.6583 1.95118 21.3417 2.14645 21.1464L11.2929 12L2.14645 2.85355C1.95118 2.65829 1.95118 2.34171 2.14645 2.14645Z" fill="black"/>
</svg>
