<svg width="24" height="24" viewBox="0 0 24 24" fill="none" xmlns="http://www.w3.org/2000/svg">
<path d="M21.974 20.842C21.887 20.58 21.605 20.438 21.342 20.527C20.864 20.686 20.144 20.897 19.733 20.973C19.613 20.629 19.454 19.902 19.332 19.345C18.809 16.96 18.44 15.5 17.5 15.5C16.604 15.5 11.237 16.547 9.427 16.905L8.894 12.816L14.124 11.484C14.392 11.416 14.553 11.143 14.485 10.876C14.417 10.608 14.144 10.446 13.877 10.515L8.764 11.818L8.048 6.336C9.429 5.97 10.456 4.722 10.456 3.227C10.456 1.448 9.008 0 7.228 0C5.448 0 4 1.448 4 3.228C4 4.948 5.356 6.344 7.053 6.438L7.787 12.067L7.765 12.073C7.76 12.074 7.757 12.078 7.752 12.079C5.128 12.56 3 15.201 3 18C3 21.309 5.647 24 8.901 24C12.207 24 15.001 21.252 15.001 18V16.87C16.159 16.666 17.078 16.521 17.431 16.502C17.76 16.844 18.16 18.667 18.356 19.558C18.745 21.335 18.891 22 19.5 22C20.053 22 21.395 21.562 21.658 21.474C21.92 21.387 22.062 21.104 21.974 20.842ZM5 3.228C5 2 6 1 7.228 1C8.456 1 9.456 2 9.456 3.228C9.456 4.457 8.457 5.456 7.228 5.456C5.999 5.456 5 4.456 5 3.228ZM14 18C14 20.664 11.617 23 8.9 23C6.199 23 4 20.757 4 18C4 15.472 6.015 13.425 7.917 13.065L8.504 17.565C8.522 17.703 8.596 17.826 8.708 17.907C8.821 17.988 8.96 18.017 9.098 17.991C10.547 17.701 12.397 17.344 14 17.051V18Z" fill="black"/>
</svg>
