<svg width="24" height="24" viewBox="0 0 24 24" fill="none" xmlns="http://www.w3.org/2000/svg">
<path d="M23.853 12.646L12.353 1.14601C12.158 0.951006 11.841 0.951006 11.646 1.14601L0.146 12.646C0.052 12.74 0 12.867 0 13V18C0 18.202 0.122 18.385 0.309 18.462C0.496 18.539 0.711 18.497 0.854 18.354L3 16.207V23.5C3 23.776 3.223 24 3.5 24H7.5C7.776 24 8 23.776 8 23.5V19C8 16.794 9.794 15 12 15C14.206 15 16 16.794 16 19V23.5C16 23.776 16.224 24 16.5 24H20.5C20.776 24 21 23.776 21 23.5V16.207L23.146 18.353C23.242 18.449 23.37 18.5 23.5 18.5C23.564 18.5 23.629 18.487 23.691 18.462C23.878 18.385 24 18.202 24 18V13C24 12.867 23.947 12.74 23.853 12.646ZM20 23H17V19C17 16.243 14.757 14 12 14C9.243 14 7 16.243 7 19V23H4V15.207L12 7.20701L20 15.207V23ZM23 16.793L12.353 6.14601C12.255 6.04901 12.127 6.00001 12 6.00001C11.873 6.00001 11.744 6.04901 11.646 6.14601L1 16.793V13.207L12 2.20701L23 13.207V16.793Z" fill="black"/>
</svg>
