<svg width="24" height="24" viewBox="0 0 24 24" fill="none" xmlns="http://www.w3.org/2000/svg">
<path fill-rule="evenodd" clip-rule="evenodd" d="M6 10.5C4.897 10.5 4 11.397 4 12.5C4 13.603 4.897 14.5 6 14.5C7.103 14.5 8 13.603 8 12.5C8 11.397 7.103 10.5 6 10.5ZM6 13.5C5.449 13.5 5 13.051 5 12.5C5 11.949 5.449 11.5 6 11.5C6.551 11.5 7 11.949 7 12.5C7 13.051 6.551 13.5 6 13.5Z" fill="black"/>
<path fill-rule="evenodd" clip-rule="evenodd" d="M17.5 19.5C17.224 19.5 17 19.724 17 20V21H10V3H17V5C17 5.276 17.224 5.5 17.5 5.5C17.776 5.5 18 5.276 18 5V2.5C18 2.224 17.776 2 17.5 2H10V0.499998C10 0.347998 9.931 0.204998 9.813 0.109998C9.694 0.0149978 9.538 -0.0190022 9.392 0.0119978L0.392 2.012C0.163 2.062 0 2.266 0 2.5V21.5C0 21.734 0.163 21.938 0.392 21.988L9.392 23.988C9.539 24.02 9.693 23.986 9.813 23.89C9.931 23.795 10 23.652 10 23.5V22H17.5C17.776 22 18 21.776 18 21.5V20C18 19.724 17.776 19.5 17.5 19.5ZM1 21.099V2.901L9 1.124V22.876L1 21.099Z" fill="black"/>
<path d="M19.854 8.146L23.854 12.146C23.952 12.245 24 12.375 23.999 12.504L24 12.508C24 12.658 23.932 12.788 23.828 12.88L19.854 16.854C19.756 16.951 19.628 17 19.5 17C19.372 17 19.244 16.951 19.147 16.853C18.952 16.658 18.952 16.341 19.147 16.146L22.285 13.008H12C11.724 13.008 11.5 12.784 11.5 12.508C11.5 12.232 11.724 12.008 12 12.008H22.302L19.147 8.853C18.952 8.658 18.952 8.341 19.147 8.146C19.342 7.951 19.659 7.951 19.854 8.146Z" fill="black"/>
</svg>
