<svg width="24" height="24" viewBox="0 0 24 24" fill="none" xmlns="http://www.w3.org/2000/svg">
<path fill-rule="evenodd" clip-rule="evenodd" d="M6 12.5C6 11.397 6.897 10.5 8 10.5C9.103 10.5 10 11.397 10 12.5C10 13.603 9.103 14.5 8 14.5C6.897 14.5 6 13.603 6 12.5ZM7 12.5C7 13.051 7.449 13.5 8 13.5C8.551 13.5 9 13.051 9 12.5C9 11.949 8.551 11.5 8 11.5C7.449 11.5 7 11.949 7 12.5Z" fill="black"/>
<path fill-rule="evenodd" clip-rule="evenodd" d="M19.5 19.021C19.224 19.021 19 19.245 19 19.521V21H12V3.00001H19V5.00001C19 5.27601 19.224 5.50001 19.5 5.50001C19.776 5.50001 20 5.27601 20 5.00001V2.50001C20 2.22401 19.776 2.00001 19.5 2.00001H12V0.500013C12 0.348013 11.931 0.205013 11.813 0.110013C11.695 0.0150131 11.539 -0.0189869 11.392 0.0110131L2.392 2.01101C2.163 2.06201 2 2.26601 2 2.50001V21.5C2 21.734 2.163 21.938 2.392 21.988L11.392 23.988C11.539 24.02 11.693 23.986 11.813 23.89C11.931 23.795 12 23.652 12 23.5V22H19.5C19.776 22 20 21.776 20 21.5V19.521C20 19.244 19.776 19.021 19.5 19.021ZM11 1.12401V22.876L3 21.099V2.90101L11 1.12401Z" fill="black"/>
<path d="M17 13C17 12.449 17.449 12 18 12C18.551 12 19 12.449 19 13C19 13.365 18.793 13.672 18.5 13.847V15.5C18.5 15.776 18.276 16 18 16C17.724 16 17.5 15.776 17.5 15.5V13.847C17.207 13.672 17 13.365 17 13Z" fill="black"/>
<path fill-rule="evenodd" clip-rule="evenodd" d="M21.5 10H22.5C22.776 10 23 10.224 23 10.5V17.5C23 17.776 22.776 18 22.5 18H13.5C13.224 18 13 17.776 13 17.5V10.5C13 10.224 13.224 10 13.5 10H14.5V9.50001C14.5 7.57001 16.07 6.00001 18 6.00001C19.93 6.00001 21.5 7.57001 21.5 9.50001V10ZM18 7.00001C16.622 7.00001 15.5 8.12201 15.5 9.50001V10H20.5V9.50001C20.5 8.12201 19.378 7.00001 18 7.00001ZM14 11V17H22V11H14Z" fill="black"/>
</svg>
