<svg width="24" height="24" viewBox="0 0 24 24" fill="none" xmlns="http://www.w3.org/2000/svg">
<path fill-rule="evenodd" clip-rule="evenodd" d="M7 12.5C7 11.397 7.897 10.5 9 10.5C10.103 10.5 11 11.397 11 12.5C11 13.603 10.103 14.5 9 14.5C7.897 14.5 7 13.603 7 12.5ZM8 12.5C8 13.051 8.449 13.5 9 13.5C9.551 13.5 10 13.051 10 12.5C10 11.949 9.551 11.5 9 11.5C8.449 11.5 8 11.949 8 12.5Z" fill="black"/>
<path fill-rule="evenodd" clip-rule="evenodd" d="M13 2.00001H20.5C20.776 2.00001 21 2.22401 21 2.50001V21.5C21 21.776 20.776 22 20.5 22H13V23.5C13 23.652 12.931 23.795 12.813 23.89C12.693 23.986 12.539 24.02 12.392 23.988L3.392 21.988C3.163 21.938 3 21.734 3 21.5V2.50001C3 2.26601 3.163 2.06201 3.392 2.01101L12.392 0.0110131C12.54 -0.0189869 12.694 0.0150131 12.813 0.110013C12.931 0.205013 13 0.348013 13 0.500013V2.00001ZM4 2.90101V21.099L12 22.876V1.12401L4 2.90101ZM13 21H20V3.00001H13V21Z" fill="black"/>
</svg>
