<svg width="24" height="24" viewBox="0 0 24 24" fill="none" xmlns="http://www.w3.org/2000/svg">
<path d="M9 20.5C9 20.224 9.224 20 9.5 20H14.5C14.776 20 15 20.224 15 20.5C15 20.776 14.776 21 14.5 21H9.5C9.224 21 9 20.776 9 20.5Z" fill="black"/>
<path fill-rule="evenodd" clip-rule="evenodd" d="M6 6C6 2.691 8.691 0 12 0C15.309 0 18 2.691 18 6V23.5C18 23.776 17.776 24 17.5 24H6.5C6.224 24 6 23.776 6 23.5V18C6 13.944 8.523 11 12 11C14.757 11 17 8.757 17 6C17 3.243 14.757 1 12 1C9.243 1 7 3.243 7 6C7 6.276 6.776 6.5 6.5 6.5C6.224 6.5 6 6.276 6 6ZM7 18V23H17V9.313C15.924 10.932 14.084 12 12 12C9.056 12 7 14.467 7 18Z" fill="black"/>
</svg>
