<svg width="24" height="24" viewBox="0 0 24 24" fill="none" xmlns="http://www.w3.org/2000/svg">
<path fill-rule="evenodd" clip-rule="evenodd" d="M6 10.4991C4.897 10.4991 4 11.3961 4 12.4991C4 13.6021 4.897 14.4991 6 14.4991C7.103 14.4991 8 13.6021 8 12.4991C8 11.3961 7.103 10.4991 6 10.4991ZM6 13.4991C5.449 13.4991 5 13.0501 5 12.4991C5 11.9481 5.449 11.4991 6 11.4991C6.551 11.4991 7 11.9481 7 12.4991C7 13.0501 6.551 13.4991 6 13.4991Z" fill="black"/>
<path fill-rule="evenodd" clip-rule="evenodd" d="M17.5 19.4991C17.224 19.4991 17 19.7231 17 19.9991V20.9991H10V2.99914H17V4.99914C17 5.27514 17.224 5.49914 17.5 5.49914C17.776 5.49914 18 5.27514 18 4.99914V2.49914C18 2.22314 17.776 1.99914 17.5 1.99914H10V0.499143C10 0.347143 9.931 0.204143 9.813 0.109143C9.694 0.0141433 9.54 -0.0198567 9.392 0.0111433L0.392 2.01114C0.163 2.06114 0 2.26514 0 2.49914V21.4991C0 21.7331 0.163 21.9371 0.392 21.9871L9.392 23.9871C9.539 24.0191 9.693 23.9851 9.813 23.8891C9.931 23.7941 10 23.6511 10 23.4991V21.9991H17.5C17.776 21.9991 18 21.7751 18 21.4991V19.9991C18 19.7231 17.776 19.4991 17.5 19.4991ZM1 21.0981V2.90014L9 1.12314V22.8751L1 21.0981Z" fill="black"/>
<path d="M13.199 12.0071H23.5C23.776 12.0071 24 12.2321 24 12.5081C24 12.7841 23.776 13.0081 23.5 13.0081H13.216L16.354 16.1461C16.549 16.3411 16.549 16.6581 16.354 16.8531C16.256 16.9501 16.128 16.9991 16 16.9991C15.872 16.9991 15.744 16.9501 15.647 16.8521L11.673 12.8781C11.568 12.7871 11.5 12.6561 11.5 12.5071L11.5008 12.5045L11.501 12.5031C11.501 12.3741 11.548 12.2441 11.647 12.1451L15.647 8.14514C15.842 7.95014 16.159 7.95014 16.354 8.14514C16.549 8.34014 16.549 8.65714 16.354 8.85214L13.199 12.0071Z" fill="black"/>
</svg>
