<svg width="24" height="24" viewBox="0 0 24 24" fill="none" xmlns="http://www.w3.org/2000/svg">
<path d="M10.5 4H13.5C13.776 4 14 4.224 14 4.5C14 4.776 13.776 5 13.5 5H10.5C10.224 5 10 4.776 10 4.5C10 4.224 10.224 4 10.5 4Z" fill="black"/>
<path fill-rule="evenodd" clip-rule="evenodd" d="M5.5 8H18.5C18.776 8 19 7.776 19 7.5V2.5C19 2.224 18.776 2 18.5 2H5.5C5.224 2 5 2.224 5 2.5V7.5C5 7.776 5.224 8 5.5 8ZM6 3H18V7H6V3Z" fill="black"/>
<path d="M13.5 11H10.5C10.224 11 10 11.224 10 11.5C10 11.776 10.224 12 10.5 12H13.5C13.776 12 14 11.776 14 11.5C14 11.224 13.776 11 13.5 11Z" fill="black"/>
<path fill-rule="evenodd" clip-rule="evenodd" d="M18.5 15H5.5C5.224 15 5 14.776 5 14.5V9.5C5 9.224 5.224 9 5.5 9H18.5C18.776 9 19 9.224 19 9.5V14.5C19 14.776 18.776 15 18.5 15ZM18 10H6V14H18V10Z" fill="black"/>
<path d="M10.5 18H13.5C13.776 18 14 18.224 14 18.5C14 18.776 13.776 19 13.5 19H10.5C10.224 19 10 18.776 10 18.5C10 18.224 10.224 18 10.5 18Z" fill="black"/>
<path fill-rule="evenodd" clip-rule="evenodd" d="M5.5 22H18.5C18.776 22 19 21.776 19 21.5V16.5C19 16.224 18.776 16 18.5 16H5.5C5.224 16 5 16.224 5 16.5V21.5C5 21.776 5.224 22 5.5 22ZM6 17H18V21H6V17Z" fill="black"/>
<path fill-rule="evenodd" clip-rule="evenodd" d="M20.5 0H3.5C3.224 0 3 0.224 3 0.5V23.5C3 23.776 3.224 24 3.5 24H20.5C20.776 24 21 23.776 21 23.5V0.5C21 0.224 20.776 0 20.5 0ZM20 23H4V1H20V23Z" fill="black"/>
</svg>
