<svg width="24" height="24" viewBox="0 0 24 24" fill="none" xmlns="http://www.w3.org/2000/svg">
<path d="M10.5 6H13.5C13.776 6 14 6.224 14 6.5C14 6.776 13.776 7 13.5 7H10.5C10.224 7 10 6.776 10 6.5C10 6.224 10.224 6 10.5 6Z" fill="black"/>
<path fill-rule="evenodd" clip-rule="evenodd" d="M4.5 10H19.5C19.776 10 20 9.776 20 9.5V3.5C20 3.224 19.776 3 19.5 3H4.5C4.224 3 4 3.224 4 3.5V9.5C4 9.776 4.224 10 4.5 10ZM5 4H19V9H5V4Z" fill="black"/>
<path d="M13.5 15H10.5C10.224 15 10 15.224 10 15.5C10 15.776 10.224 16 10.5 16H13.5C13.776 16 14 15.776 14 15.5C14 15.224 13.776 15 13.5 15Z" fill="black"/>
<path fill-rule="evenodd" clip-rule="evenodd" d="M4.5 19H19.5C19.776 19 20 18.776 20 18.5V12.5C20 12.224 19.776 12 19.5 12H4.5C4.224 12 4 12.224 4 12.5V18.5C4 18.776 4.224 19 4.5 19ZM5 13H19V18H5V13Z" fill="black"/>
<path fill-rule="evenodd" clip-rule="evenodd" d="M0.5 0H23.5C23.776 0 24 0.224 24 0.5C24 0.776 23.776 1 23.5 1H23V19.5C23 20.878 21.879 22 20.5 22H19.5V23.5C19.5 23.776 19.276 24 19 24C18.724 24 18.5 23.776 18.5 23.5V22H6.5V23.5C6.5 23.776 6.276 24 6 24C5.724 24 5.5 23.776 5.5 23.5V22H3.5C2.121 22 1 20.878 1 19.5V1H0.5C0.224 1 0 0.776 0 0.5C0 0.224 0.224 0 0.5 0ZM20.5 21C21.327 21 22 20.327 22 19.5V1H2V19.5C2 20.327 2.673 21 3.5 21H20.5Z" fill="black"/>
</svg>
