<svg width="24" height="24" viewBox="0 0 24 24" fill="none" xmlns="http://www.w3.org/2000/svg">
<g clip-path="url(#clip0_348_12906)">
<path d="M17.1459 13.531C16.6896 13.051 16.1694 12.691 15.5993 12.435C17.0151 11.664 18.0216 10.208 18.3541 8.798C18.8134 6.851 18.1125 5.168 16.4949 4.218V0.5C16.4949 0.224 16.2713 0 15.9957 0C15.7201 0 15.4965 0.224 15.4965 0.5V4.5C15.4965 5.969 13.6293 6.758 12.0018 6.995C10.3743 6.758 8.5071 5.969 8.5071 4.5V0.516C8.5071 0.24 8.28344 0.016 8.00786 0.016C7.73228 0.016 7.50862 0.24 7.50862 0.516V4.219C5.89108 5.169 5.19015 6.852 5.64945 8.799C5.98194 10.209 6.98841 11.663 8.40226 12.435C7.83113 12.69 7.30992 13.051 6.85362 13.533C4.24259 16.29 4.5002 21.794 4.51218 22.027C4.52217 22.217 4.63899 22.385 4.81372 22.461C7.1951 23.481 9.61242 24 11.9998 24C14.3861 24 16.8045 23.481 19.1858 22.46C19.3606 22.385 19.4774 22.217 19.4874 22.026C19.5004 21.793 19.758 16.288 17.1459 13.531ZM18.4989 21.664C14.1735 23.438 9.8211 23.436 5.50068 21.664C5.4867 20.496 5.58555 16.324 7.57751 14.221C8.35633 13.399 9.31287 13 10.5021 13C10.5031 13 10.5031 13 10.5041 13H12.0018V12H10.5041C8.5071 12 7.01337 10.232 6.62097 8.569C6.46221 7.897 6.28648 6.35 7.64042 5.313C8.09073 6.67 9.67732 7.686 11.9349 7.995C11.9798 8.001 12.0247 8.001 12.0697 7.995C14.3272 7.686 15.9138 6.671 16.3641 5.313C17.7171 6.349 17.5423 7.897 17.3836 8.569C16.9902 10.232 15.4965 12 13.4995 12H12.0028V13H13.4995C14.6867 13 15.6422 13.398 16.421 14.219C18.41 16.317 18.5109 20.495 18.4989 21.664Z" fill="black"/>
</g>
<defs>
<clipPath id="clip0_348_12906">
<rect width="24" height="24" fill="white"/>
</clipPath>
</defs>
</svg>
