<svg width="24" height="24" viewBox="0 0 24 24" fill="none" xmlns="http://www.w3.org/2000/svg">
<path d="M12.4999 13C12.4999 13.276 12.2759 13.5 11.9999 13.5C10.4379 13.5 9.16688 12.229 9.16688 10.667C9.16688 10.391 9.39088 10.167 9.66688 10.167C9.94288 10.167 10.1669 10.391 10.1669 10.667C10.1669 11.678 10.9889 12.5 11.9999 12.5C12.2759 12.5 12.4999 12.724 12.4999 13Z" fill="black"/>
<path fill-rule="evenodd" clip-rule="evenodd" d="M17.4999 11C17.4999 14.032 15.0329 16.5 11.9999 16.5C8.96688 16.5 6.49988 14.032 6.49988 11C6.49988 8.11599 11.3799 1.01699 11.5889 0.715989C11.7759 0.445989 12.2239 0.445989 12.4119 0.715989C12.6189 1.01699 17.4999 8.11599 17.4999 11ZM16.4999 11C16.4999 9.05299 13.5559 4.22999 11.9999 1.89199C10.4429 4.22899 7.49988 9.05399 7.49988 11C7.49988 13.481 9.51888 15.5 11.9999 15.5C14.4809 15.5 16.4999 13.481 16.4999 11Z" fill="black"/>
<path d="M11.9999 20C14.7489 20 17.4009 19.231 19.2789 17.891C19.5039 17.73 19.5559 17.418 19.3949 17.193C19.2339 16.97 18.9219 16.918 18.6979 17.077C16.9849 18.299 14.5439 19 11.9999 19C9.43888 19 6.98788 18.292 5.27488 17.058C5.04888 16.894 4.73788 16.947 4.57688 17.171C4.41588 17.395 4.46688 17.707 4.68988 17.868C6.56888 19.223 9.23388 20 11.9999 20Z" fill="black"/>
<path d="M22.6249 18.673C22.8399 18.5 23.1549 18.53 23.3279 18.745C23.5019 18.959 23.4699 19.274 23.2559 19.448C20.4829 21.705 16.3799 23 11.9999 23C7.58488 23 3.46288 21.689 0.689877 19.403C0.475877 19.227 0.445877 18.913 0.621877 18.699C0.796877 18.487 1.11188 18.455 1.32588 18.632C3.92288 20.772 7.81388 22 11.9999 22C16.1539 22 20.0259 20.787 22.6249 18.673Z" fill="black"/>
</svg>
