<svg width="24" height="24" viewBox="0 0 24 24" fill="none" xmlns="http://www.w3.org/2000/svg">
<path d="M23.5 11.5H23V9.5C23 8.673 22.327 8 21.5 8H20V6.5C20 5.673 19.327 5 18.5 5H15.5C14.673 5 14 5.673 14 6.5V12H10V6.5C10 5.673 9.327 5 8.5 5H5.5C4.673 5 4 5.673 4 6.5V8H2.5C1.673 8 1 8.673 1 9.5V11.5H0.5C0.224 11.5 0 11.724 0 12C0 12.276 0.224 12.5 0.5 12.5H1V14.5C1 15.327 1.673 16 2.5 16H4V17.5C4 18.327 4.673 19 5.5 19H8.5C9.327 19 10 18.327 10 17.5V13H14V17.5C14 18.327 14.673 19 15.5 19H18.5C19.327 19 20 18.327 20 17.5V16H21.5C22.327 16 23 15.327 23 14.5V12.5H23.5C23.776 12.5 24 12.276 24 12C24 11.724 23.776 11.5 23.5 11.5ZM2.5 15C2.224 15 2 14.775 2 14.5V9.5C2 9.225 2.224 9 2.5 9H4V15H2.5ZM9 17.5C9 17.775 8.776 18 8.5 18H5.5C5.224 18 5 17.775 5 17.5V15.5V8.5V6.5C5 6.225 5.224 6 5.5 6H8.5C8.776 6 9 6.225 9 6.5V17.5ZM19 17.5C19 17.775 18.776 18 18.5 18H15.5C15.224 18 15 17.775 15 17.5V6.5C15 6.225 15.224 6 15.5 6H18.5C18.776 6 19 6.225 19 6.5V8.5V15.5V17.5ZM22 14.5C22 14.775 21.776 15 21.5 15H20V9H21.5C21.776 9 22 9.225 22 9.5V14.5Z" fill="black"/>
</svg>
