<svg width="24" height="24" viewBox="0 0 24 24" fill="none" xmlns="http://www.w3.org/2000/svg">
<g clip-path="url(#clip0_336_13854)">
<path d="M23.213 4.32602L19.677 0.790022C18.921 0.0340225 17.605 0.0340225 16.85 0.790022C16.597 1.04302 16.428 1.35502 16.338 1.69102L16.142 1.49602C15.385 0.742022 14.071 0.741022 13.313 1.49702C13.055 1.75602 12.891 2.07002 12.804 2.40002L12.607 2.20402C11.852 1.44802 10.535 1.44802 9.777 2.20402C8.998 2.98402 8.998 4.25402 9.777 5.03302L12.959 8.21502L8.011 13.165L4.829 9.98202C4.074 9.22902 2.756 9.22802 2 9.98302C1.221 10.762 1.221 12.032 2 12.811L2.208 13.019C1.869 13.102 1.548 13.263 1.293 13.518C0.514 14.297 0.514 15.566 1.293 16.346L1.5 16.555C1.161 16.638 0.84 16.799 0.585 17.054C0.208 17.432 0 17.934 0 18.468C0 19.003 0.208 19.505 0.586 19.882L4.122 23.418C4.499 23.795 5 24.003 5.535 24.003C6.07 24.003 6.573 23.795 6.952 23.417C7.21 23.158 7.374 22.844 7.461 22.514L7.658 22.71C8.036 23.088 8.538 23.297 9.073 23.297C9.607 23.297 10.109 23.089 10.486 22.711C10.739 22.458 10.908 22.147 10.998 21.809L11.194 22.005C11.572 22.382 12.074 22.589 12.609 22.589C13.144 22.589 13.646 22.381 14.024 22.003C14.402 21.625 14.61 21.123 14.61 20.589C14.61 20.055 14.401 19.552 14.023 19.175L10.841 15.993L15.789 11.043L18.972 14.226C19.35 14.604 19.852 14.812 20.387 14.812C20.922 14.812 21.424 14.604 21.8 14.226C22.178 13.848 22.387 13.346 22.387 12.812C22.387 12.278 22.179 11.776 21.801 11.398L21.606 11.203C21.943 11.114 22.255 10.944 22.508 10.691C22.886 10.313 23.094 9.81102 23.094 9.27702C23.094 8.74202 22.886 8.24002 22.508 7.86202L22.31 7.66602C22.648 7.57602 22.96 7.40702 23.214 7.15402C23.993 6.37502 23.993 5.10502 23.213 4.32602ZM6.244 22.71C5.864 23.086 5.206 23.088 4.828 22.711L1.291 19.175C1.104 18.986 1 18.735 1 18.468C1 18.201 1.104 17.95 1.292 17.761C1.481 17.572 1.733 17.468 2 17.468C2.267 17.468 2.518 17.572 2.706 17.761L6.243 21.297C6.633 21.687 6.633 22.32 6.244 22.71ZM10.071 21.296C10.071 21.564 9.967 21.815 9.778 22.004C9.401 22.382 8.742 22.381 8.365 22.003L2 15.64C1.61 15.25 1.61 14.616 2 14.226C2.189 14.038 2.44 13.933 2.708 13.933C2.976 13.933 3.226 14.037 3.414 14.226L9.782 20.593C9.967 20.782 10.071 21.031 10.071 21.296ZM13.608 20.589C13.608 20.856 13.504 21.107 13.315 21.296C12.937 21.675 12.277 21.674 11.899 21.297L2.707 12.105C2.317 11.715 2.318 11.081 2.707 10.691C2.897 10.503 3.148 10.398 3.416 10.398C3.683 10.398 3.934 10.502 4.123 10.69L13.316 19.882C13.503 20.071 13.608 20.322 13.608 20.589ZM10.132 15.286L8.718 13.872L13.666 8.92202L15.08 10.336L10.132 15.286ZM21.091 13.52C20.715 13.898 20.055 13.895 19.677 13.519L10.485 4.32702C10.095 3.93702 10.095 3.30302 10.485 2.91202C10.674 2.72402 10.926 2.61902 11.193 2.61902C11.461 2.61902 11.711 2.72302 11.9 2.91202L19.677 10.691C19.677 10.692 19.678 10.692 19.678 10.692L21.091 12.105C21.28 12.294 21.384 12.545 21.384 12.812C21.384 13.079 21.281 13.329 21.091 13.52ZM21.798 9.98302C21.421 10.362 20.764 10.36 20.385 9.98402L14.022 3.61802C13.632 3.22802 13.632 2.59402 14.021 2.20402C14.21 2.01602 14.461 1.91102 14.729 1.91102C14.997 1.91102 15.248 2.01502 15.437 2.20402L21.799 8.56802C21.988 8.75702 22.092 9.00802 22.092 9.27602C22.091 9.54302 21.987 9.79402 21.798 9.98302ZM22.506 6.44702C22.13 6.82402 21.471 6.82402 21.092 6.44802L17.556 2.91102C17.367 2.72202 17.263 2.47102 17.263 2.20402C17.263 1.93702 17.367 1.68602 17.556 1.49702C17.745 1.30902 17.995 1.20402 18.262 1.20402C18.529 1.20402 18.78 1.30802 18.969 1.49702L22.505 5.03302C22.896 5.42302 22.896 6.05802 22.506 6.44702Z" fill="black"/>
</g>
<defs>
<clipPath id="clip0_336_13854">
<rect width="24" height="24" fill="white"/>
</clipPath>
</defs>
</svg>
