<svg width="24" height="24" viewBox="0 0 24 24" fill="none" xmlns="http://www.w3.org/2000/svg">
<path d="M23.777 19.084L18.212 15.384C17.673 15.129 17.098 15 16.5 15H14C11.889 15 10.288 17.02 10.049 19H7C4.794 19 3 17.206 3 15C3 12.794 4.794 11 7 11H20C21.93 11 23.5 9.43 23.5 7.5C23.5 5.57 21.93 4 20 4H10.451C10.211 2.189 8.693 1 6.5 1H3.5C3.224 1 3 1.224 3 1.5V3H1.5C1.224 3 1 3.224 1 3.5C1 3.776 1.224 4 1.5 4H3V5H1.5C1.224 5 1 5.224 1 5.5C1 5.776 1.224 6 1.5 6H3V7.5C3 7.776 3.224 8 3.5 8H6.5C8.693 8 10.211 6.811 10.451 5H20C21.378 5 22.5 6.121 22.5 7.5C22.5 8.879 21.378 10 20 10H7C4.243 10 2 12.243 2 15C2 17.757 4.243 20 7 20H10.049C10.288 21.98 11.889 24 14 24H16.5C17.11 24 17.698 23.865 18.305 23.566L23.778 19.916C23.917 19.823 24 19.667 24 19.5C24 19.333 23.917 19.177 23.777 19.084ZM4 2H5V7H4V2ZM6.5 7H6V2H6.5C7.884 2 9.5 2.654 9.5 4.5C9.5 6.346 7.884 7 6.5 7ZM17.81 22.7C17.399 22.899 16.958 23 16.5 23H14C12.482 23 11.279 21.482 11.048 20H12.548C12.654 20.527 12.926 21.012 13.335 21.375C13.43 21.46 13.549 21.502 13.668 21.502C13.806 21.502 13.942 21.445 14.042 21.335C14.226 21.128 14.207 20.813 14.001 20.629C13.809 20.457 13.673 20.238 13.589 20H15.057C15.144 20.427 15.338 20.827 15.63 21.158C15.729 21.27 15.866 21.327 16.005 21.327C16.123 21.327 16.241 21.286 16.336 21.202C16.543 21.018 16.563 20.703 16.379 20.496C16.25 20.35 16.158 20.181 16.094 20H17.5C17.776 20 18 19.776 18 19.5C18 19.224 17.776 19 17.5 19H16.094C16.157 18.82 16.25 18.652 16.378 18.508C16.561 18.301 16.542 17.985 16.336 17.802C16.129 17.617 15.814 17.637 15.63 17.844C15.338 18.174 15.144 18.574 15.057 19H13.592C13.677 18.763 13.815 18.546 14.009 18.376C14.217 18.194 14.238 17.879 14.056 17.671C13.873 17.461 13.557 17.442 13.35 17.624C12.936 17.986 12.66 18.471 12.55 19H11.049C11.28 17.518 12.483 16 14.001 16H16.501C16.949 16 17.381 16.097 17.722 16.252L22.6 19.501L17.81 22.7Z" fill="black"/>
</svg>
