<svg width="24" height="24" viewBox="0 0 24 24" fill="none" xmlns="http://www.w3.org/2000/svg">
<path fill-rule="evenodd" clip-rule="evenodd" d="M11 0.5C11 0.223858 11.2239 0 11.5 0H15.5C15.7762 0 16 0.223858 16 0.5V1H18.5C18.7762 1 19 1.22386 19 1.5C19 1.77614 18.7762 2 18.5 2H16V3H18.5C18.7762 3 19 3.22386 19 3.5C19 3.77614 18.7762 4 18.5 4H16V4.5C16 4.77614 15.7762 5 15.5 5H11.5C11.2239 5 11 4.77614 11 4.5V3.05276C9.16223 3.24727 7.41303 3.97483 5.97328 5.1564C4.2743 6.55072 3.11134 8.491 2.68256 10.6466C2.25377 12.8023 2.58569 15.0399 3.62177 16.9783C4.65784 18.9166 6.33395 20.4358 8.36453 21.2769C10.3951 22.1179 12.6545 22.2289 14.7577 21.5909C16.861 20.9529 18.6779 19.6054 19.899 17.7779C21.1201 15.9504 21.6697 13.7561 21.4543 11.5688C21.2388 9.38154 20.2717 7.33662 18.7175 5.78249C18.5223 5.58722 18.5223 5.27064 18.7175 5.07538C18.9128 4.88012 19.2294 4.88012 19.4246 5.07538C21.1424 6.7931 22.2113 9.05329 22.4495 11.4708C22.6876 13.8884 22.0801 16.3137 20.7304 18.3335C19.3808 20.3533 17.3726 21.8427 15.048 22.5479C12.7234 23.253 10.2262 23.1304 7.98184 22.2007C5.73753 21.2711 3.88498 19.5921 2.73984 17.4497C1.59471 15.3073 1.22785 12.8341 1.70177 10.4516C2.17569 8.069 3.46106 5.92448 5.33888 4.38339C6.95766 3.0549 8.93035 2.24569 11 2.04771V0.5ZM15 4V1H12V4H15Z" fill="black"/>
<path fill-rule="evenodd" clip-rule="evenodd" d="M14.5 17.5H16.5C16.776 17.5 17 17.276 17 17V16H17.5C17.776 16 18 15.776 18 15.5V12.5C18 12.311 17.893 12.138 17.724 12.053L15.909 11.146L14.974 8.342C14.906 8.138 14.715 8 14.5 8H9.50002C9.28402 8 9.09302 8.138 9.02502 8.342L8.09002 11.146L6.27502 12.053C6.10602 12.138 6.00002 12.311 6.00002 12.5V15.5C6.00002 15.776 6.22302 16 6.50002 16H7.00002V17C7.00002 17.276 7.22402 17.5 7.50002 17.5H9.50002C9.77602 17.5 10 17.276 10 17V16H14V17C14 17.276 14.223 17.5 14.5 17.5ZM16 16.5H15V16H16V16.5ZM9.86002 9H14.139L14.806 11H9.19302L9.86002 9ZM8.61802 12H15.382L17 12.809V13H15C14.724 13 14.5 13.224 14.5 13.5C14.5 13.776 14.723 14 15 14H17V15H7.00002V14H9.00002C9.27602 14 9.50002 13.776 9.50002 13.5C9.50002 13.224 9.27602 13 9.00002 13H7.00002V12.809L8.61802 12ZM9.00002 16.5H8.00002V16H9.00002V16.5Z" fill="black"/>
</svg>
