<svg width="24" height="24" viewBox="0 0 24 24" fill="none" xmlns="http://www.w3.org/2000/svg">
<path d="M21.5 3H20V0.5C20 0.224 19.776 0 19.5 0C19.224 0 19 0.224 19 0.5V3H15V0.5C15 0.224 14.776 0 14.5 0C14.224 0 14 0.224 14 0.5V3H12.5C12.223 3 12 3.224 12 3.5V5.5C12 8.257 14.243 10.5 17 10.5V18.5C17 21.317 15.131 23 12 23C10.747 23 9.54502 22.482 8.61402 21.542C7.81102 20.73 7.29702 19.686 7.10602 18.534C7.79302 18.973 8.41102 19.19 8.98102 19.19C9.79602 19.19 10.875 18.741 11.387 16.598C11.931 14.331 10.366 9.803 7.95702 8.101C7.83202 8.014 7.67502 7.985 7.53002 8.029C7.38502 8.07 7.26602 8.176 7.20702 8.315C6.67202 9.581 5.77202 10.438 4.90201 11.266C3.90701 12.213 2.96802 13.108 2.63402 14.502C2.35002 15.69 2.47102 16.663 2.98502 17.314C3.43902 17.889 4.15602 18.181 5.11602 18.181C5.39802 18.181 5.71202 18.146 6.03902 18.095C6.16402 19.687 6.81102 21.142 7.90202 22.244C9.02202 23.377 10.478 24 12 24C15.701 24 18 21.893 18 18.5V10.398C20.279 9.934 22 7.914 22 5.5V3.5C22 3.224 21.776 3 21.5 3ZM3.77102 16.695C3.45802 16.299 3.40002 15.602 3.60702 14.735C3.87202 13.629 4.66902 12.87 5.59102 11.991C6.36302 11.256 7.22402 10.436 7.84102 9.299C9.63502 10.986 10.833 14.616 10.413 16.366C9.90102 18.504 8.78901 18.653 7.02302 17.232C7.06702 15.147 7.40102 13.586 8.02202 12.598C8.16902 12.364 8.09902 12.055 7.86502 11.909C7.63202 11.761 7.32302 11.834 7.17602 12.065C6.47102 13.186 6.08801 14.877 6.02901 17.083C5.69901 17.142 5.38702 17.182 5.11802 17.182C4.47802 17.182 4.02502 17.018 3.77102 16.695ZM21 5.5C21 7.706 19.206 9.5 17 9.5C14.794 9.5 13 7.706 13 5.5V4H21V5.5Z" fill="black"/>
</svg>
