<svg width="24" height="24" viewBox="0 0 24 24" fill="none" xmlns="http://www.w3.org/2000/svg">
<g clip-path="url(#clip0_338_14592)">
<path fill-rule="evenodd" clip-rule="evenodd" d="M2.5 9C2.5 4.037 6.761 0 12 0C17.238 0 21.5 4.037 21.5 9C21.5 12.863 18.846 16.321 15 17.535V18.5C15 18.776 14.776 19 14.5 19H9.5C9.223 19 9 18.776 9 18.5V17.535C5.154 16.321 2.5 12.863 2.5 9ZM14 17.161C14 16.936 14.151 16.739 14.368 16.679C17.978 15.693 20.5 12.536 20.5 9C20.5 4.589 16.687 1 12 1C7.313 1 3.5 4.589 3.5 9C3.5 12.536 6.021 15.693 9.632 16.678C9.849 16.737 10 16.934 10 17.16V17.999H11.402C11.246 17.066 10.973 15.162 10.942 13.099C10.624 13.148 10.318 13.182 10.043 13.182C9.082 13.182 8.365 12.89 7.911 12.315C7.397 11.665 7.276 10.692 7.56 9.503C7.89452 8.111 8.83131 7.21756 9.82373 6.27108L9.828 6.267C10.699 5.438 11.599 4.581 12.134 3.316C12.193 3.176 12.311 3.071 12.457 3.03C12.603 2.986 12.759 3.014 12.883 3.102C15.29 4.804 16.856 9.331 16.313 11.598C15.801 13.741 14.721 14.191 13.906 14.191C13.316 14.191 12.671 13.951 11.955 13.479C12.019 15.438 12.287 17.229 12.418 18H14V17.161ZM8.696 11.697C8.95 12.019 9.403 12.183 10.043 12.183C10.312 12.183 10.622 12.143 10.95 12.084C11.002 10.215 11.298 8.341 12.102 7.065C12.25 6.833 12.558 6.762 12.792 6.909C13.025 7.055 13.095 7.365 12.948 7.598C12.234 8.733 11.981 10.474 11.946 12.23C13.715 13.656 14.828 13.508 15.34 11.366C15.759 9.617 14.561 5.987 12.768 4.3C12.15 5.436 11.29 6.256 10.518 6.991C9.595 7.87 8.798 8.63 8.533 9.735C8.325 10.604 8.383 11.3 8.696 11.697Z" fill="black"/>
<path d="M15 20.5C15 20.224 14.776 20 14.5 20H9.5C9.224 20 9 20.224 9 20.5C9 20.776 9.223 21 9.5 21H14.5C14.776 21 15 20.776 15 20.5Z" fill="black"/>
<path d="M15 22.5C15 22.224 14.776 22 14.5 22H9.5C9.224 22 9 22.224 9 22.5C9 22.776 9.223 23 9.5 23H11.5V23.5C11.5 23.776 11.724 24 12 24C12.276 24 12.5 23.776 12.5 23.5V23H14.5C14.776 23 15 22.776 15 22.5Z" fill="black"/>
</g>
<defs>
<clipPath id="clip0_338_14592">
<rect width="24" height="24" fill="white"/>
</clipPath>
</defs>
</svg>
