<svg width="24" height="24" viewBox="0 0 24 24" fill="none" xmlns="http://www.w3.org/2000/svg">
<path fill-rule="evenodd" clip-rule="evenodd" d="M7.5 16C7.224 16 7 15.776 7 15.5V13.5C7 13.224 7.224 13 7.5 13H16.5C16.776 13 17 13.224 17 13.5V15.5C17 15.776 16.776 16 16.5 16H7.5ZM16 15V14H8V15H16Z" fill="black"/>
<path fill-rule="evenodd" clip-rule="evenodd" d="M7.5 12H16.5C16.697 12 16.876 11.884 16.956 11.703C17.037 11.523 17.003 11.312 16.871 11.165L12.371 6.16499C12.182 5.95599 11.817 5.95599 11.628 6.16499L7.128 11.165C6.996 11.312 6.962 11.523 7.043 11.703C7.124 11.884 7.303 12 7.5 12ZM15.378 11H8.623L12 7.24699L15.378 11Z" fill="black"/>
<path fill-rule="evenodd" clip-rule="evenodd" d="M12 24C5.383 24 0 18.617 0 12C0 5.383 5.383 0 12 0C18.617 0 24 5.383 24 12C24 18.617 18.617 24 12 24ZM12 1C5.935 1 1 5.935 1 12C1 18.065 5.935 23 12 23C18.065 23 23 18.065 23 12C23 5.935 18.065 1 12 1Z" fill="black"/>
</svg>
