<svg width="24" height="24" viewBox="0 0 24 24" fill="none" xmlns="http://www.w3.org/2000/svg">
<path fill-rule="evenodd" clip-rule="evenodd" d="M12.0025 0C9.74882 0 7.58745 0.895533 5.99386 2.48959C4.40027 4.08365 3.505 6.24566 3.505 8.5C3.505 10.7543 4.40027 12.9163 5.99386 14.5104C6.9816 15.4984 8.18746 16.2181 9.49824 16.6225V20H5.49941C4.39559 20 3.5 20.8959 3.5 22C3.5 23.1054 4.39581 24 5.49941 24H18.4956C19.5992 24 20.495 23.1054 20.495 22C20.495 20.8959 19.5994 20 18.4956 20H14.4968V16.6256C15.8114 16.2218 17.0209 15.5009 18.0111 14.5104C19.6047 12.9163 20.5 10.7543 20.5 8.5C20.5 6.24566 19.6047 4.08365 18.0111 2.48959C16.4175 0.895533 14.2562 0 12.0025 0ZM17.4959 21V21.5C17.4959 21.7761 17.7197 22 17.9957 22C18.2718 22 18.4956 21.7761 18.4956 21.5V21C19.0473 21 19.4953 21.4481 19.4953 22C19.4953 22.5526 19.0475 23 18.4956 23H5.49941C4.9475 23 4.49971 22.5526 4.49971 22C4.49971 21.4481 4.94772 21 5.49941 21H15.4965V21.5C15.4965 21.7761 15.7203 22 15.9963 22C16.2724 22 16.4962 21.7761 16.4962 21.5V21H17.4959ZM10.4979 20V16.8657C10.9911 16.9545 11.4945 17 12.0025 17C12.5071 17 13.0071 16.9551 13.4971 16.8675V20H10.4979ZM6.70076 3.1967C7.25775 2.63954 7.89336 2.17909 8.5815 1.82617L10.4693 6.52179C10.3857 6.58644 10.3058 6.65667 10.2303 6.73223C9.8053 7.15731 9.54918 7.7197 9.50507 8.31514L4.56551 9.45343C4.52521 9.13891 4.5047 8.82051 4.5047 8.5C4.5047 6.51088 5.29465 4.60322 6.70076 3.1967ZM11.3693 6.08025L9.4998 1.43014C10.2961 1.14808 11.1417 1 12.0025 1C12.8423 1 13.6675 1.14092 14.4466 1.40967L12.6211 6.07906C12.4191 6.02699 12.2097 6 11.9975 6C11.7837 6 11.5728 6.0274 11.3693 6.08025ZM13.5224 6.51927C13.6072 6.58461 13.6882 6.65569 13.7647 6.73223C14.1891 7.15675 14.4451 7.71822 14.4898 8.3128L19.4395 9.45343C19.4798 9.13891 19.5003 8.82051 19.5003 8.5C19.5003 6.51088 18.7103 4.60322 17.3042 3.1967C16.7324 2.62465 16.0776 2.15455 15.3682 1.7981L13.5224 6.51927ZM14.3621 9.30958L19.2464 10.4351C18.9092 11.6983 18.2444 12.8628 17.3042 13.8033C17.1042 14.0034 16.894 14.1911 16.6748 14.3657L13.681 10.3478C13.7094 10.3218 13.7374 10.2951 13.7647 10.2678C14.0369 9.99555 14.2398 9.66703 14.3621 9.30958ZM12.8171 10.8618C12.5559 10.9524 12.2792 11 11.9975 11C11.7194 11 11.4461 10.9536 11.1879 10.8652L8.17598 14.9498C9.32441 15.6315 10.6445 16 12.0025 16C13.3699 16 14.6987 15.6264 15.8527 14.9357L12.8171 10.8618ZM10.3219 10.3549C10.2907 10.3267 10.2601 10.2977 10.2303 10.2678C9.95866 9.9961 9.75603 9.66834 9.63364 9.31171L4.75856 10.4351C5.09583 11.6983 5.76055 12.8628 6.70076 13.8033C6.90738 14.01 7.12483 14.2034 7.35176 14.3829L10.3219 10.3549ZM10.9372 7.43934C11.2184 7.15804 11.5998 7 11.9975 7C12.3952 7 12.7766 7.15804 13.0578 7.43934C13.3391 7.72064 13.4971 8.10218 13.4971 8.5C13.4971 8.89782 13.3391 9.27936 13.0578 9.56066C12.7766 9.84196 12.3952 10 11.9975 10C11.5998 10 11.2184 9.84196 10.9372 9.56066C10.6559 9.27936 10.4979 8.89782 10.4979 8.5C10.4979 8.10218 10.6559 7.72064 10.9372 7.43934Z" fill="black"/>
</svg>
