<svg width="24" height="24" viewBox="0 0 24 24" fill="none" xmlns="http://www.w3.org/2000/svg">
<path d="M7 6.5C7 6.224 7.224 6 7.5 6C7.776 6 8 6.224 8 6.5V11.5C8 11.776 7.776 12 7.5 12C7.224 12 7 11.776 7 11.5V6.5Z" fill="black"/>
<path fill-rule="evenodd" clip-rule="evenodd" d="M9 15.5C9 14.298 10.147 13 12 13C13.853 13 15 14.298 15 15.5V18.5C15 18.776 14.776 19 14.5 19H9.5C9.224 19 9 18.776 9 18.5V15.5ZM10 15.5V18H14V15.5C14 14.778 13.235 14 12 14C10.765 14 10 14.778 10 15.5Z" fill="black"/>
<path d="M16.5 6C16.224 6 16 6.224 16 6.5V11.5C16 11.776 16.224 12 16.5 12C16.776 12 17 11.776 17 11.5V6.5C17 6.224 16.776 6 16.5 6Z" fill="black"/>
<path fill-rule="evenodd" clip-rule="evenodd" d="M3.5 2H20.5C22.773 2 24 7.152 24 12C24 16.848 22.773 22 20.5 22H3.5C1.227 22 0 16.848 0 12C0 7.152 1.227 2 3.5 2ZM1 12C1 17.576 2.456 21 3.5 21H20.5C21.544 21 23 17.576 23 12C23 6.424 21.544 3 20.5 3H3.5C2.456 3 1 6.424 1 12Z" fill="black"/>
</svg>
