<svg width="24" height="24" viewBox="0 0 24 24" fill="none" xmlns="http://www.w3.org/2000/svg">
<path fill-rule="evenodd" clip-rule="evenodd" d="M7.93934 10.9393C8.22064 10.658 8.60217 10.5 9 10.5C9.39783 10.5 9.77936 10.658 10.0607 10.9393C10.342 11.2206 10.5 11.6022 10.5 12C10.5 12.3978 10.342 12.7794 10.0607 13.0607C9.77936 13.342 9.39783 13.5 9 13.5C8.60217 13.5 8.22064 13.342 7.93934 13.0607C7.65804 12.7794 7.5 12.3978 7.5 12C7.5 11.6022 7.65804 11.2206 7.93934 10.9393ZM9 11.5C8.86739 11.5 8.74022 11.5527 8.64645 11.6464C8.55268 11.7402 8.5 11.8674 8.5 12C8.5 12.1326 8.55268 12.2598 8.64645 12.3536C8.74022 12.4473 8.86739 12.5 9 12.5C9.13261 12.5 9.25978 12.4473 9.35355 12.3536C9.44732 12.2598 9.5 12.1326 9.5 12C9.5 11.8674 9.44732 11.7402 9.35355 11.6464C9.25978 11.5527 9.13261 11.5 9 11.5Z" fill="black"/>
<path fill-rule="evenodd" clip-rule="evenodd" d="M15 10.5C14.6022 10.5 14.2206 10.658 13.9393 10.9393C13.658 11.2206 13.5 11.6022 13.5 12C13.5 12.3978 13.658 12.7794 13.9393 13.0607C14.2206 13.342 14.6022 13.5 15 13.5C15.3978 13.5 15.7794 13.342 16.0607 13.0607C16.342 12.7794 16.5 12.3978 16.5 12C16.5 11.6022 16.342 11.2206 16.0607 10.9393C15.7794 10.658 15.3978 10.5 15 10.5ZM14.6464 11.6464C14.7402 11.5527 14.8674 11.5 15 11.5C15.1326 11.5 15.2598 11.5527 15.3536 11.6464C15.4473 11.7402 15.5 11.8674 15.5 12C15.5 12.1326 15.4473 12.2598 15.3536 12.3536C15.2598 12.4473 15.1326 12.5 15 12.5C14.8674 12.5 14.7402 12.4473 14.6464 12.3536C14.5527 12.2598 14.5 12.1326 14.5 12C14.5 11.8674 14.5527 11.7402 14.6464 11.6464Z" fill="black"/>
<path fill-rule="evenodd" clip-rule="evenodd" d="M12 4C9.87827 4 7.84344 4.84285 6.34315 6.34315C4.84285 7.84344 4 9.87827 4 12C4 14.1217 4.84285 16.1566 6.34315 17.6569C7.84344 19.1571 9.87827 20 12 20C14.1217 20 16.1566 19.1571 17.6569 17.6569C19.1571 16.1566 20 14.1217 20 12C20 9.87827 19.1571 7.84344 17.6569 6.34315C16.1566 4.84285 14.1217 4 12 4ZM11.5 7.5V5.01787C9.82624 5.13766 8.24465 5.85585 7.05025 7.05025C5.7375 8.36301 5 10.1435 5 12C5 13.8565 5.7375 15.637 7.05025 16.9497C8.24465 18.1441 9.82624 18.8623 11.5 18.9821V16.5C11.5 16.2239 11.7239 16 12 16C12.2761 16 12.5 16.2239 12.5 16.5V18.9821C14.1738 18.8623 15.7553 18.1441 16.9497 16.9497C18.2625 15.637 19 13.8565 19 12C19 10.1435 18.2625 8.36301 16.9497 7.05025C15.7553 5.85585 14.1738 5.13766 12.5 5.01787V7.5C12.5 7.77614 12.2761 8 12 8C11.7239 8 11.5 7.77614 11.5 7.5Z" fill="black"/>
<path fill-rule="evenodd" clip-rule="evenodd" d="M2 1C1.44772 1 1 1.44772 1 2V22C1 22.5523 1.44772 23 2 23H22C22.5523 23 23 22.5523 23 22V2C23 1.44772 22.5523 1 22 1H2ZM2 2H22V22H2V2Z" fill="black"/>
</svg>
