<svg width="24" height="24" viewBox="0 0 24 24" fill="none" xmlns="http://www.w3.org/2000/svg">
<path fill-rule="evenodd" clip-rule="evenodd" d="M14.5 4H11.741L8.00001 8.676V22.5C8.00001 22.776 7.77601 23 7.50001 23C7.22401 23 7.00001 22.776 7.00001 22.5V8.676L3.25901 4H0.562012C0.286012 4 0.0620117 3.776 0.0620117 3.5C0.0620117 3.224 0.286012 3 0.562012 3H1.00001V1.5C1.00001 1.224 1.22401 1 1.50001 1C1.77601 1 2.00001 1.224 2.00001 1.5V3H3.00001V1.5C3.00001 1.224 3.22401 1 3.50001 1C3.77601 1 4.00001 1.224 4.00001 1.5V3H11V1.5C11 1.224 11.224 1 11.5 1C11.776 1 12 1.224 12 1.5V3H13V1.5C13 1.224 13.224 1 13.5 1C13.776 1 14 1.224 14 1.5V3H14.5C14.776 3 15 3.224 15 3.5C15 3.776 14.776 4 14.5 4ZM10.46 4H4.54101L7.50001 7.7L10.46 4Z" fill="black"/>
<path fill-rule="evenodd" clip-rule="evenodd" d="M23 10H23.5C23.776 10 24 10.224 24 10.5C24 10.776 23.776 11 23.5 11H20.75L18 14.667V22.5C18 22.776 17.776 23 17.5 23C17.224 23 17 22.776 17 22.5V14.667L14.25 11H11.562C11.286 11 11.062 10.776 11.062 10.5C11.062 10.224 11.286 10 11.562 10H12V9.5C12 9.224 12.224 9 12.5 9C12.776 9 13 9.224 13 9.5V10H14V9.5C14 9.224 14.224 9 14.5 9C14.776 9 15 9.224 15 9.5V10H20V9.5C20 9.224 20.224 9 20.5 9C20.776 9 21 9.224 21 9.5V10H22V9.5C22 9.224 22.224 9 22.5 9C22.776 9 23 9.224 23 9.5V10ZM15.5 11L17.5 13.667L19.5 11H15.5Z" fill="black"/>
</svg>
