<svg width="24" height="24" viewBox="0 0 24 24" fill="none" xmlns="http://www.w3.org/2000/svg">
<path d="M10 14.5C10 14.776 9.776 15 9.5 15C9.224 15 9 14.776 9 14.5V9.5C9 9.224 9.224 9 9.5 9C9.776 9 10 9.224 10 9.5V14.5Z" fill="black"/>
<path d="M15 14.5C15 14.776 14.776 15 14.5 15C14.224 15 14 14.776 14 14.5V9.5C14 9.224 14.224 9 14.5 9C14.776 9 15 9.224 15 9.5V14.5Z" fill="black"/>
<path fill-rule="evenodd" clip-rule="evenodd" d="M20 12C20 16.411 16.411 20 12 20C7.589 20 4 16.411 4 12C4 7.589 7.589 4 12 4C16.411 4 20 7.589 20 12ZM19 12C19 8.141 15.86 5 12 5C8.14 5 5 8.141 5 12C5 15.859 8.14 19 12 19C15.86 19 19 15.859 19 12Z" fill="black"/>
<path fill-rule="evenodd" clip-rule="evenodd" d="M22.5 1H1.5C1.224 1 1 1.224 1 1.5V22.5C1 22.776 1.224 23 1.5 23H22.5C22.776 23 23 22.776 23 22.5V1.5C23 1.224 22.776 1 22.5 1ZM22 2V22H2V2H22Z" fill="black"/>
</svg>
