<svg width="24" height="24" viewBox="0 0 24 24" fill="none" xmlns="http://www.w3.org/2000/svg">
<path fill-rule="evenodd" clip-rule="evenodd" d="M13.5 0.5C13.7761 0.5 14 0.723858 14 1V3H15C15.2761 3 15.5 3.22386 15.5 3.5V4C15.5 6.0398 13.974 7.72311 12 7.96908V11.5C12 12.0519 12.4481 12.5 13 12.5C13.2761 12.5 13.5 12.7239 13.5 13C13.5 13.2761 13.2761 13.5 13 13.5C11.8959 13.5 11 12.6041 11 11.5V7.96908C9.02602 7.72311 7.5 6.0398 7.5 4V3.5C7.5 3.22386 7.72386 3 8 3H9V1C9 0.723858 9.22386 0.5 9.5 0.5C9.77614 0.5 10 0.723858 10 1V3H13V1C13 0.723858 13.2239 0.5 13.5 0.5ZM8.5 4C8.5 5.65695 9.84224 7 11.5 7C13.1578 7 14.5 5.65695 14.5 4H8.5Z" fill="black"/>
<path fill-rule="evenodd" clip-rule="evenodd" d="M6.5 10C6.29555 10 6.11169 10.1245 6.03576 10.3143L4.07388 15.219L2.14645 17.1464C2.05268 17.2402 2 17.3674 2 17.5V21.5C2 21.7761 2.22386 22 2.5 22H3V23.5C3 23.7761 3.22386 24 3.5 24H6.5C6.77614 24 7 23.7761 7 23.5V22H17V23.5C17 23.7761 17.2239 24 17.5 24H20.5C20.7761 24 21 23.7761 21 23.5V22H21.5C21.7761 22 22 21.7761 22 21.5V17.5C22 17.3674 21.9473 17.2402 21.8536 17.1464L19.9261 15.219L17.9642 10.3143C17.8883 10.1245 17.7045 10 17.5 10H14C13.7239 10 13.5 10.2239 13.5 10.5C13.5 10.7761 13.7239 11 14 11H17.1615L18.7615 15H5.23852L6.83852 11H9.5C9.77614 11 10 10.7761 10 10.5C10 10.2239 9.77614 10 9.5 10H6.5ZM21 19H17C16.7239 19 16.5 19.2239 16.5 19.5C16.5 19.7761 16.7239 20 17 20H21V21H3V20H7C7.27614 20 7.5 19.7761 7.5 19.5C7.5 19.2239 7.27614 19 7 19H3V17.7071L4.70711 16H19.2929L21 17.7071V19ZM18 22H20V23H18V22ZM4 22H6V23H4V22Z" fill="black"/>
</svg>
