<svg width="24" height="24" viewBox="0 0 24 24" fill="none" xmlns="http://www.w3.org/2000/svg">
<path d="M12.5 5.5C12.5 5.22386 12.2761 5 12 5C11.7239 5 11.5 5.22386 11.5 5.5V10.5C11.5 10.7761 11.7239 11 12 11C12.2761 11 12.5 10.7761 12.5 10.5V5.5Z" fill="black"/>
<path d="M14.5 15C14.2239 15 14 15.2239 14 15.5C14 15.7761 14.2239 16 14.5 16H19.5C19.7761 16 20 15.7761 20 15.5C20 15.2239 19.7761 15 19.5 15H14.5Z" fill="black"/>
<path d="M4 15.5C4 15.2239 4.22386 15 4.5 15H9.5C9.77614 15 10 15.2239 10 15.5C10 15.7761 9.77614 16 9.5 16H4.5C4.22386 16 4 15.7761 4 15.5Z" fill="black"/>
<path fill-rule="evenodd" clip-rule="evenodd" d="M2 1C1.44772 1 1 1.44772 1 2V22C1 22.5523 1.44772 23 2 23H22C22.5523 23 23 22.5523 23 22V2C23 1.44772 22.5523 1 22 1H2ZM2 2H22V22H2V2Z" fill="black"/>
</svg>
