<svg width="24" height="24" viewBox="0 0 24 24" fill="none" xmlns="http://www.w3.org/2000/svg">
<path d="M17.5 6.047C17.224 6.047 17 6.271 17 6.547V7.5C17 7.776 17.224 8 17.5 8C17.776 8 18 7.776 18 7.5V6.547C18 6.271 17.776 6.047 17.5 6.047Z" fill="black"/>
<path d="M19 6.547C19 6.271 19.224 6.047 19.5 6.047C19.776 6.047 20 6.271 20 6.547V7.5C20 7.776 19.776 8 19.5 8C19.224 8 19 7.776 19 7.5V6.547Z" fill="black"/>
<path fill-rule="evenodd" clip-rule="evenodd" d="M18.5 3.5C16.57 3.5 15 5.07 15 7C15 8.93 16.57 10.5 18.5 10.5C20.43 10.5 22 8.93 22 7C22 5.07 20.43 3.5 18.5 3.5ZM18.5 9.5C17.122 9.5 16 8.379 16 7C16 5.621 17.122 4.5 18.5 4.5C19.878 4.5 21 5.621 21 7C21 8.379 19.878 9.5 18.5 9.5Z" fill="black"/>
<path d="M8.99999 6.547C8.99999 6.271 9.22399 6.047 9.49999 6.047C9.77599 6.047 9.99999 6.271 9.99999 6.547V7.5C9.99999 7.776 9.77599 8 9.49999 8C9.22399 8 8.99999 7.776 8.99999 7.5V6.547Z" fill="black"/>
<path d="M11.5 6.047C11.224 6.047 11 6.271 11 6.547V7.5C11 7.776 11.224 8 11.5 8C11.776 8 12 7.776 12 7.5V6.547C12 6.271 11.776 6.047 11.5 6.047Z" fill="black"/>
<path fill-rule="evenodd" clip-rule="evenodd" d="M6.99999 7C6.99999 5.07 8.56999 3.5 10.5 3.5C12.43 3.5 14 5.07 14 7C14 8.93 12.43 10.5 10.5 10.5C8.56999 10.5 6.99999 8.93 6.99999 7ZM7.99999 7C7.99999 8.379 9.12199 9.5 10.5 9.5C11.878 9.5 13 8.379 13 7C13 5.621 11.878 4.5 10.5 4.5C9.12199 4.5 7.99999 5.621 7.99999 7Z" fill="black"/>
<path d="M17.5 16.047C17.224 16.047 17 16.271 17 16.547V17.5C17 17.776 17.224 18 17.5 18C17.776 18 18 17.776 18 17.5V16.547C18 16.271 17.776 16.047 17.5 16.047Z" fill="black"/>
<path d="M19 16.547C19 16.271 19.224 16.047 19.5 16.047C19.776 16.047 20 16.271 20 16.547V17.5C20 17.776 19.776 18 19.5 18C19.224 18 19 17.776 19 17.5V16.547Z" fill="black"/>
<path fill-rule="evenodd" clip-rule="evenodd" d="M18.5 13.5C16.57 13.5 15 15.07 15 17C15 18.93 16.57 20.5 18.5 20.5C20.43 20.5 22 18.93 22 17C22 15.07 20.43 13.5 18.5 13.5ZM18.5 19.5C17.122 19.5 16 18.379 16 17C16 15.621 17.122 14.5 18.5 14.5C19.878 14.5 21 15.621 21 17C21 18.379 19.878 19.5 18.5 19.5Z" fill="black"/>
<path d="M8.99999 16.547C8.99999 16.271 9.22399 16.047 9.49999 16.047C9.77599 16.047 9.99999 16.271 9.99999 16.547V17.5C9.99999 17.776 9.77599 18 9.49999 18C9.22399 18 8.99999 17.776 8.99999 17.5V16.547Z" fill="black"/>
<path d="M11.5 16.047C11.224 16.047 11 16.271 11 16.547V17.5C11 17.776 11.224 18 11.5 18C11.776 18 12 17.776 12 17.5V16.547C12 16.271 11.776 16.047 11.5 16.047Z" fill="black"/>
<path fill-rule="evenodd" clip-rule="evenodd" d="M6.99999 17C6.99999 15.07 8.56999 13.5 10.5 13.5C12.43 13.5 14 15.07 14 17C14 18.93 12.43 20.5 10.5 20.5C8.56999 20.5 6.99999 18.93 6.99999 17ZM7.99999 17C7.99999 18.379 9.12199 19.5 10.5 19.5C11.878 19.5 13 18.379 13 17C13 15.621 11.878 14.5 10.5 14.5C9.12199 14.5 7.99999 15.621 7.99999 17Z" fill="black"/>
<path fill-rule="evenodd" clip-rule="evenodd" d="M21.5 1H7.49999C6.12199 1 4.99999 2.121 4.99999 3.5V19H4.49999C3.67299 19 2.99999 18.327 2.99999 17.5V9.5C2.99999 8.052 2.02699 7 0.687988 7C0.411988 7 0.187988 7.224 0.187988 7.5C0.187988 7.776 0.410988 8 0.687988 8C1.58899 8 1.99999 8.777 1.99999 9.5V17.5C1.99999 18.879 3.12199 20 4.49999 20H4.99999V20.5C4.99999 21.879 6.12199 23 7.49999 23H21.5C22.878 23 24 21.879 24 20.5V3.5C24 2.121 22.878 1 21.5 1ZM23 20.5C23 21.327 22.327 22 21.5 22H7.49999C6.67299 22 5.99999 21.327 5.99999 20.5V3.5C5.99999 2.673 6.67299 2 7.49999 2H21.5C22.327 2 23 2.673 23 3.5V20.5Z" fill="black"/>
</svg>
