<svg width="24" height="24" viewBox="0 0 24 24" fill="none" xmlns="http://www.w3.org/2000/svg">
<path d="M16.309 4.962C16.248 4.936 16.192 4.9 16.146 4.853L14.147 2.854C13.952 2.659 13.952 2.342 14.147 2.147C14.342 1.952 14.659 1.952 14.854 2.147L16 3.293V0.5C16 0.224 16.223 0 16.5 0C16.777 0 17 0.224 17 0.5V3.293L18.147 2.147C18.342 1.952 18.659 1.952 18.854 2.147C19.049 2.342 19.049 2.659 18.854 2.854L16.854 4.853C16.808 4.9 16.753 4.936 16.691 4.962C16.63 4.987 16.564 5 16.5 5C16.436 5 16.371 4.987 16.309 4.962Z" fill="black"/>
<path d="M5.85401 2.85403L7.00001 1.70703V4.50003C7.00001 4.77603 7.22401 5.00003 7.50001 5.00003C7.77601 5.00003 8.00001 4.77603 8.00001 4.50003V1.70703L9.14601 2.85303C9.24501 2.95103 9.37301 3.00003 9.50001 3.00003C9.62701 3.00003 9.75601 2.95103 9.85401 2.85403C10.049 2.65903 10.049 2.34203 9.85401 2.14703L7.85401 0.147026C7.80901 0.101026 7.75301 0.0630259 7.69101 0.0390259C7.56901 -0.0109741 7.43101 -0.0109741 7.30901 0.0390259C7.24801 0.0630259 7.19201 0.101026 7.14601 0.146026L5.14601 2.14603C4.95101 2.34103 4.95101 2.65803 5.14601 2.85303C5.34101 3.04803 5.65901 3.04903 5.85401 2.85403Z" fill="black"/>
<path fill-rule="evenodd" clip-rule="evenodd" d="M10 10C10 8.896 9.103 8 8 8C6.897 8 6 8.896 6 10C6 11.103 6.897 12 8 12H5.5C5.224 12 5 12.224 5 12.5V15C5 16.083 5.336 16.73 6 16.932V21.5C6 21.776 6.224 22 6.5 22H9.5C9.776 22 10 21.776 10 21.5V16.932C10.663 16.73 10.999 16.083 11 15V12.5C11 12.224 10.776 12 10.5 12H8C9.103 12 10 11.103 10 10ZM8 11C7.449 11 7 10.551 7 10C7 9.449 7.449 9 8 9C8.551 9 9 9.449 9 10C9 10.551 8.552 11 8 11ZM10 13V15C9.999 16 9.722 16 9.5 16C9.224 16 9 16.224 9 16.5V21H7V16.5C7 16.224 6.777 16 6.5 16C6.278 16 6 16 6 15V13H10Z" fill="black"/>
<path fill-rule="evenodd" clip-rule="evenodd" d="M14 21.5V16.932C13.336 16.73 13 16.083 13 15V12.5C13 12.224 13.224 12 13.5 12H16H18.5C18.776 12 19 12.224 19 12.5V15C18.999 16.083 18.663 16.73 18 16.932V21.5C18 21.776 17.776 22 17.5 22H14.5C14.224 22 14 21.776 14 21.5ZM18 15V13H14V15C14 16 14.277 16 14.5 16C14.776 16 15 16.224 15 16.5V21H17V16.5C17 16.224 17.224 16 17.5 16C17.722 16 17.999 16 18 15Z" fill="black"/>
<path fill-rule="evenodd" clip-rule="evenodd" d="M16 12C14.897 12 14 11.103 14 10C14 8.896 14.897 8 16 8C17.103 8 18 8.896 18 10C18 11.103 17.103 12 16 12ZM16 11C15.449 11 15 10.551 15 10C15 9.449 15.449 9 16 9C16.551 9 17 9.449 17 10C17 10.551 16.552 11 16 11Z" fill="black"/>
<path fill-rule="evenodd" clip-rule="evenodd" d="M2.5 6H21.5C21.777 6 22 6.224 22 6.5V23.5C22 23.776 21.776 24 21.5 24H2.5C2.224 24 2 23.776 2 23.5V6.5C2 6.224 2.224 6 2.5 6ZM3 23H21V7H3V23Z" fill="black"/>
</svg>
