<svg width="24" height="24" viewBox="0 0 24 24" fill="none" xmlns="http://www.w3.org/2000/svg">
<path d="M20.229 7.081C20.46 6.931 20.77 6.998 20.92 7.229C21.07 7.46 21.003 7.77 20.771 7.92L12.271 13.42C12.189 13.474 12.094 13.5 12 13.5C11.906 13.5 11.812 13.474 11.729 13.42L3.229 7.92C2.997 7.77 2.93 7.46 3.08 7.229C3.23 6.997 3.54 6.931 3.771 7.08L12 12.404L20.229 7.081Z" fill="black"/>
<path d="M6.752 14.566L3.252 16.566C3.012 16.702 2.929 17.008 3.066 17.248C3.158 17.41 3.327 17.5 3.5 17.5C3.69428 17.5 6.36901 15.9449 7.08247 15.53C7.16957 15.4794 7.22744 15.4457 7.248 15.434C7.488 15.298 7.571 14.992 7.434 14.752C7.296 14.512 6.991 14.427 6.752 14.566Z" fill="black"/>
<path d="M17.248 14.566L20.748 16.566C20.988 16.702 21.071 17.009 20.934 17.248C20.795 17.491 20.487 17.569 20.252 17.434L16.752 15.434C16.512 15.298 16.429 14.992 16.566 14.752C16.702 14.512 17.007 14.427 17.248 14.566Z" fill="black"/>
<path fill-rule="evenodd" clip-rule="evenodd" d="M2 3H22C23.103 3 24 3.896 24 5V19C24 20.103 23.103 21 22 21H2C0.897 21 0 20.103 0 19V5C0 3.896 0.897 3 2 3ZM22 20C22.551 20 23 19.551 23 19V5C23 4.449 22.551 4 22 4H2C1.449 4 1 4.449 1 5V19C1 19.551 1.449 20 2 20H22Z" fill="black"/>
</svg>
