<svg width="24" height="24" viewBox="0 0 24 24" fill="none" xmlns="http://www.w3.org/2000/svg">
<path d="M5.5 10.5C5.5 9.94771 5.94772 9.5 6.5 9.5C7.05228 9.5 7.5 9.94771 7.5 10.5C7.5 10.7761 7.72386 11 8 11C8.27614 11 8.5 10.7761 8.5 10.5C8.5 9.39543 7.60457 8.5 6.5 8.5C5.39543 8.5 4.5 9.39543 4.5 10.5C4.5 10.7572 4.53884 10.9965 4.63697 11.2169C4.73639 11.4402 4.88305 11.6136 5.05435 11.7568C5.31331 11.9732 5.67651 12.1517 6.0568 12.3387C6.12957 12.3744 6.20298 12.4105 6.27639 12.4472C6.36941 12.4937 6.45511 12.5361 6.53423 12.5753C6.91691 12.7647 7.14567 12.8779 7.30435 13.0105C7.38305 13.0763 7.42389 13.1323 7.44947 13.1898C7.47634 13.2502 7.5 13.343 7.5 13.5C7.5 14.0523 7.05228 14.5 6.5 14.5C5.94772 14.5 5.5 14.0523 5.5 13.5C5.5 13.2239 5.27614 13 5 13C4.72386 13 4.5 13.2239 4.5 13.5C4.5 14.6046 5.39543 15.5 6.5 15.5C7.60457 15.5 8.5 14.6046 8.5 13.5C8.5 13.2428 8.46116 13.0035 8.36303 12.7831C8.26361 12.5598 8.11695 12.3864 7.94565 12.2432C7.6867 12.0268 7.32351 11.8483 6.94322 11.6613C6.87045 11.6256 6.79702 11.5895 6.72361 11.5528C6.63089 11.5064 6.54545 11.4641 6.46655 11.4251C6.08386 11.2357 5.85433 11.1221 5.69565 10.9895C5.61695 10.9237 5.57611 10.8677 5.55053 10.8102C5.52366 10.7498 5.5 10.657 5.5 10.5Z" fill="black"/>
<path d="M17.5 9.5C16.9477 9.5 16.5 9.94771 16.5 10.5C16.5 10.657 16.5237 10.7498 16.5505 10.8102C16.5761 10.8677 16.6169 10.9237 16.6956 10.9895C16.8543 11.1221 17.0831 11.2353 17.4658 11.4247C17.5449 11.4639 17.6306 11.5063 17.7236 11.5528C17.797 11.5895 17.8704 11.6256 17.9432 11.6613C18.3235 11.8482 18.6867 12.0268 18.9456 12.2432C19.1169 12.3864 19.2636 12.5598 19.363 12.7831C19.4612 13.0035 19.5 13.2428 19.5 13.5C19.5 14.6046 18.6046 15.5 17.5 15.5C16.3954 15.5 15.5 14.6046 15.5 13.5C15.5 13.2239 15.7239 13 16 13C16.2761 13 16.5 13.2239 16.5 13.5C16.5 14.0523 16.9477 14.5 17.5 14.5C18.0523 14.5 18.5 14.0523 18.5 13.5C18.5 13.343 18.4763 13.2502 18.4495 13.1898C18.4239 13.1323 18.3831 13.0763 18.3044 13.0105C18.1457 12.8779 17.9169 12.7647 17.5342 12.5753C17.4551 12.5361 17.3694 12.4937 17.2764 12.4472C17.203 12.4105 17.1296 12.3744 17.0568 12.3387C16.6765 12.1518 16.3133 11.9732 16.0544 11.7568C15.8831 11.6136 15.7364 11.4402 15.637 11.2169C15.5388 10.9965 15.5 10.7572 15.5 10.5C15.5 9.39543 16.3954 8.5 17.5 8.5C18.6046 8.5 19.5 9.39543 19.5 10.5C19.5 10.7761 19.2761 11 19 11C18.7239 11 18.5 10.7761 18.5 10.5C18.5 9.94771 18.0523 9.5 17.5 9.5Z" fill="black"/>
<path fill-rule="evenodd" clip-rule="evenodd" d="M12 8.5C11.2285 8.5 10.5913 8.96904 10.1698 9.60133C9.74591 10.2371 9.5 11.0866 9.5 12C9.5 12.9134 9.74591 13.7629 10.1698 14.3987C10.5913 15.031 11.2285 15.5 12 15.5C12.7715 15.5 13.4087 15.031 13.8302 14.3987C14.2541 13.7629 14.5 12.9134 14.5 12C14.5 11.0866 14.2541 10.2371 13.8302 9.60133C13.4087 8.96904 12.7715 8.5 12 8.5ZM10.5 12C10.5 11.2565 10.7018 10.606 11.0018 10.156C11.3041 9.70253 11.6669 9.5 12 9.5C12.3331 9.5 12.6959 9.70253 12.9982 10.156C13.2982 10.606 13.5 11.2565 13.5 12C13.5 12.7435 13.2982 13.394 12.9982 13.844C12.6959 14.2975 12.3331 14.5 12 14.5C11.6669 14.5 11.3041 14.2975 11.0018 13.844C10.7018 13.394 10.5 12.7435 10.5 12Z" fill="black"/>
<path fill-rule="evenodd" clip-rule="evenodd" d="M24 12C24 18.6274 18.6274 24 12 24C5.37258 24 0 18.6274 0 12C0 5.37258 5.37258 0 12 0C18.6274 0 24 5.37258 24 12ZM23 12C23 18.0751 18.0751 23 12 23C5.92487 23 1 18.0751 1 12C1 5.92487 5.92487 1 12 1C18.0751 1 23 5.92487 23 12Z" fill="black"/>
</svg>
