<svg width="24" height="24" viewBox="0 0 24 24" fill="none" xmlns="http://www.w3.org/2000/svg">
<path d="M11.5 2.5C10.397 2.5 9.5 3.396 9.5 4.5C9.5 5.603 10.397 6.5 11.5 6.5C12.603 6.5 13.5 5.603 13.5 4.5C13.5 3.396 12.603 2.5 11.5 2.5ZM11.5 5.5C10.948 5.5 10.5 5.051 10.5 4.5C10.5 3.949 10.948 3.5 11.5 3.5C12.052 3.5 12.5 3.949 12.5 4.5C12.5 5.051 12.052 5.5 11.5 5.5Z" fill="black"/>
<path d="M20.5 0H2.5C1.673 0 1 0.673 1 1.5V5.5C1 6.327 1.673 7 2.5 7H3V19H2.5C1.673 19 1 19.673 1 20.5V22.5C1 23.327 1.673 24 2.5 24H20.5C21.327 24 22 23.327 22 22.5V20.5C22 19.673 21.327 19 20.5 19H20V13H22.5C22.776 13 23 12.776 23 12.5V10.5C23 10.224 22.776 10 22.5 10H20V7H20.5C21.327 7 22 6.327 22 5.5V1.5C22 0.673 21.327 0 20.5 0ZM21 20.5V22.5C21 22.776 20.775 23 20.5 23H2.5C2.225 23 2 22.776 2 22.5V20.5C2 20.224 2.225 20 2.5 20H20.5C20.775 20 21 20.224 21 20.5ZM8.5 16H14.5C14.5 17.654 13.154 19 11.5 19C9.846 19 8.5 17.654 8.5 16ZM19 19H14.118C14.958 18.266 15.5 17.2 15.5 16H16.25C16.663 16 17 16.336 17 16.75C17 17.164 16.663 17.5 16.25 17.5H16V18.5H16.25C17.215 18.5 18 17.715 18 16.75C18 15.785 17.215 15 16.25 15H8C7.724 15 7.5 15.224 7.5 15.5V16C7.5 17.2 8.042 18.266 8.882 19H4V7H5.559C6.205 7 6.778 7.412 6.982 8.026L7.07 8.291C7.363 9.17 8.11 9.799 9 9.958V12.5C9 12.776 9.224 13 9.5 13H11V13.5C11 13.776 11.224 14 11.5 14C11.776 14 12 13.776 12 13.5V13H13.5C13.776 13 14 12.776 14 12.5V12H17.5V12.5C17.5 12.776 17.724 13 18 13H19V19ZM13 12H10V10H13V12ZM22 12H18.5V11H22V12ZM19 10H18C17.724 10 17.5 10.224 17.5 10.5V11H14V9.958C14.889 9.799 15.637 9.171 15.931 8.29L16.019 8.026C16.223 7.412 16.795 7 17.441 7H19V10ZM21 5.5C21 5.776 20.775 6 20.5 6H17.441C16.364 6 15.411 6.687 15.069 7.71L14.981 7.974C14.777 8.588 14.205 9 13.559 9H9.441C8.795 9 8.224 8.588 8.02 7.974L7.931 7.709C7.589 6.687 6.636 6 5.559 6H2.5C2.225 6 2 5.776 2 5.5V1.5C2 1.224 2.225 1 2.5 1H20.5C20.775 1 21 1.224 21 1.5V5.5Z" fill="black"/>
</svg>
