<svg width="24" height="24" viewBox="0 0 24 24" fill="none" xmlns="http://www.w3.org/2000/svg">
<path fill-rule="evenodd" clip-rule="evenodd" d="M17.5 6.5C16.397 6.5 15.5 7.397 15.5 8.5C15.5 9.603 16.397 10.5 17.5 10.5C18.603 10.5 19.5 9.603 19.5 8.5C19.5 7.397 18.603 6.5 17.5 6.5ZM17.5 9.5C16.949 9.5 16.5 9.052 16.5 8.5C16.5 7.948 16.949 7.5 17.5 7.5C18.051 7.5 18.5 7.948 18.5 8.5C18.5 9.052 18.051 9.5 17.5 9.5Z" fill="black"/>
<path d="M7.5 6H14C14.276 6 14.5 6.224 14.5 6.5C14.5 6.776 14.276 7 14 7H8V11H13C13.276 11 13.5 11.224 13.5 11.5C13.5 11.776 13.276 12 13 12H8V18.5C8 18.776 7.776 19 7.5 19C7.224 19 7 18.776 7 18.5V6.5C7 6.224 7.224 6 7.5 6Z" fill="black"/>
<path fill-rule="evenodd" clip-rule="evenodd" d="M12 0C5.383 0 0 5.383 0 12C0 18.617 5.383 24 12 24C18.617 24 24 18.617 24 12C24 5.383 18.617 0 12 0ZM12 23C5.935 23 1 18.065 1 12C1 5.935 5.935 1 12 1C18.065 1 23 5.935 23 12C23 18.065 18.065 23 12 23Z" fill="black"/>
</svg>
