<svg width="24" height="24" viewBox="0 0 24 24" fill="none" xmlns="http://www.w3.org/2000/svg">
<path fill-rule="evenodd" clip-rule="evenodd" d="M6.80774 4.44467C5.95894 2.2273 7.66465 0 9.97719 0H13.3746C15.5586 0 17.2415 1.99938 16.6346 4.15759C16.2716 5.44845 15.7972 6.9115 15.226 8.17977C15.3739 8.30483 15.5145 8.43833 15.647 8.57953C16.865 7.90151 18.2808 7.29565 19.5553 6.80774C21.7727 5.95894 24 7.66465 24 9.97719V13.3746C24 15.5586 22.0006 17.2415 19.8424 16.6346C18.5516 16.2716 17.0885 15.7972 15.8202 15.226C15.6952 15.3739 15.5617 15.5145 15.4205 15.647C16.0985 16.865 16.7044 18.2808 17.1923 19.5553C18.0411 21.7727 16.3354 24 14.0228 24H10.6254C8.44137 24 6.75849 22.0006 7.36541 19.8424C7.72843 18.5516 8.20284 17.0885 8.77404 15.8202C8.62608 15.6952 8.48549 15.5617 8.35302 15.4205C7.13498 16.0985 5.71924 16.7044 4.44467 17.1923C2.2273 18.0411 0 16.3354 0 14.0228V10.6254C0 8.44137 1.99938 6.75849 4.15759 7.36541C5.44845 7.72843 6.9115 8.20284 8.17977 8.77405C8.30483 8.62608 8.43833 8.48549 8.57953 8.35302C7.90151 7.13498 7.29565 5.71924 6.80774 4.44467ZM9.38286 7.73892C10.1442 7.2704 11.041 7 12 7C12.8638 7 13.6773 7.21941 14.3868 7.6055C14.8963 6.44133 15.3303 5.10166 15.6719 3.88687C16.0839 2.42178 14.9545 1 13.3746 1H9.97719C8.30346 1 7.16537 2.5817 7.74166 4.08717C8.20506 5.29775 8.76647 6.60997 9.38286 7.73892ZM7.6055 9.61319C6.44133 9.10367 5.10166 8.66969 3.88687 8.32807C2.42178 7.91607 1 9.04551 1 10.6254V14.0228C1 15.6965 2.5817 16.8346 4.08717 16.2583C5.29774 15.7949 6.60997 15.2335 7.73892 14.6171C7.2704 13.8558 7 12.959 7 12C7 11.1362 7.21941 10.3227 7.6055 9.61319ZM9.61319 16.3945C9.10367 17.5587 8.66969 18.8983 8.32807 20.1131C7.91607 21.5782 9.04551 23 10.6254 23H14.0228C15.6965 23 16.8346 21.4183 16.2583 19.9128C15.7949 18.7023 15.2335 17.39 14.6171 16.2611C13.8558 16.7296 12.959 17 12 17C11.1362 17 10.3227 16.7806 9.61319 16.3945ZM16.3945 14.3868C17.5587 14.8963 18.8983 15.3303 20.1131 15.6719C21.5782 16.0839 23 14.9545 23 13.3746V9.97719C23 8.30346 21.4183 7.16537 19.9128 7.74166C18.7023 8.20506 17.39 8.76647 16.2611 9.38286C16.7296 10.1442 17 11.041 17 12C17 12.8638 16.7806 13.6773 16.3945 14.3868ZM12 8C11.0661 8 10.2082 8.31943 9.52762 8.85534C9.22634 9.09259 8.95994 9.37219 8.73748 9.68508C8.27301 10.3383 8 11.1365 8 12C8 12.9339 8.31943 13.7918 8.85534 14.4724C9.09259 14.7737 9.37219 15.0401 9.68508 15.2625C10.3383 15.727 11.1365 16 12 16C12.9339 16 13.7918 15.6806 14.4724 15.1447C14.7737 14.9074 15.0401 14.6278 15.2625 14.3149C15.727 13.6617 16 12.8635 16 12C16 11.0661 15.6806 10.2082 15.1447 9.52762C14.9074 9.22634 14.6278 8.95994 14.3149 8.73748C13.6617 8.27301 12.8635 8 12 8ZM12 10.5C11.1716 10.5 10.5 11.1716 10.5 12C10.5 12.8284 11.1716 13.5 12 13.5C12.8284 13.5 13.5 12.8284 13.5 12C13.5 11.1716 12.8284 10.5 12 10.5ZM9.5 12C9.5 10.6193 10.6193 9.5 12 9.5C13.3807 9.5 14.5 10.6193 14.5 12C14.5 13.3807 13.3807 14.5 12 14.5C10.6193 14.5 9.5 13.3807 9.5 12Z" fill="black"/>
</svg>
