<svg width="24" height="24" viewBox="0 0 24 24" fill="none" xmlns="http://www.w3.org/2000/svg">
<path fill-rule="evenodd" clip-rule="evenodd" d="M12.286 16.952C12.354 16.984 12.427 17 12.5 17C12.613 17 12.726 16.962 12.816 16.887L18.316 12.387C18.433 12.292 18.5 12.15 18.5 12C18.5 11.85 18.433 11.708 18.317 11.613L12.817 7.11297C12.667 6.98897 12.46 6.96497 12.286 7.04797C12.111 7.13097 12 7.30697 12 7.49997V9.56497L8.277 7.08397C8.124 6.98197 7.927 6.97197 7.764 7.05997C7.602 7.14597 7.5 7.31497 7.5 7.49997V16.5C7.5 16.685 7.602 16.854 7.764 16.94C7.926 17.028 8.124 17.018 8.277 16.916L12 14.435V16.5C12 16.693 12.111 16.869 12.286 16.952ZM8.5 15.566V8.43497L12.223 10.916C12.375 11.017 12.573 11.029 12.736 10.94C12.898 10.854 13 10.685 13 10.5V8.55497L17.21 12L13 15.446V13.501C13 13.317 12.899 13.148 12.736 13.061C12.574 12.973 12.375 12.983 12.223 13.085L8.5 15.566Z" fill="black"/>
<path fill-rule="evenodd" clip-rule="evenodd" d="M0 12C0 18.617 5.383 24 12 24C18.617 24 24 18.617 24 12C24 5.383 18.617 0 12 0C5.383 0 0 5.383 0 12ZM1 12C1 5.935 5.935 1 12 1C18.065 1 23 5.935 23 12C23 18.065 18.065 23 12 23C5.935 23 1 18.065 1 12Z" fill="black"/>
</svg>
