<svg width="24" height="24" viewBox="0 0 24 24" fill="none" xmlns="http://www.w3.org/2000/svg">
<path d="M8.921 12.742C8.771 12.974 8.461 13.042 8.23 12.893C6.208 11.596 5 9.393 5 7C5 3.14 8.14 0 12 0C15.86 0 19 3.14 19 7C19 9.393 17.792 11.596 15.77 12.893C15.539 13.041 15.229 12.975 15.079 12.742C14.93 12.509 14.998 12.2 15.23 12.051C16.964 10.938 18 9.05 18 7C18 3.691 15.309 1 12 1C8.691 1 6 3.691 6 7C6 9.05 7.036 10.938 8.77 12.051C9.002 12.2 9.07 12.509 8.921 12.742Z" fill="black"/>
<path fill-rule="evenodd" clip-rule="evenodd" d="M14 13.641L18.096 15.026C19.384 15.442 19.678 16.917 19.403 18.112L18.387 23.591C18.343 23.828 18.136 24 17.895 24H9.911C9.744 24 9.588 23.917 9.495 23.779L5.479 17.779C5.114 17.22 4.933 16.314 5.289 15.655C5.517 15.232 5.922 15 6.428 15C7.5 15 8.515 15.438 10 17.405V7.984C10 6.89 10.897 6 12 6C13.103 6 14 6.897 14 8V13.641ZM17.479 23L18.424 17.909C18.604 17.124 18.477 16.2 17.782 15.976L13.34 14.474C13.137 14.405 13 14.214 13 14V8C13 7.449 12.551 7 12 7C11.449 7 11 7.442 11 7.984V19C11 19.222 10.855 19.417 10.643 19.479C10.431 19.539 10.201 19.458 10.081 19.272C8.121 16.253 7.168 16 6.428 16C6.253 16 6.203 16.067 6.168 16.13C6.033 16.381 6.102 16.903 6.313 17.226L10.177 23H17.479Z" fill="black"/>
</svg>
