<svg width="24" height="24" viewBox="0 0 24 24" fill="none" xmlns="http://www.w3.org/2000/svg">
<path fill-rule="evenodd" clip-rule="evenodd" d="M23.5 1C23.654 1 23.799 1.071 23.894 1.192C23.989 1.313 24.022 1.472 23.985 1.621L22.985 5.621C22.929 5.844 22.729 6 22.5 6H22V20H23.5C23.7761 20 24 20.2239 24 20.5V22.5C24 22.7761 23.7761 23 23.5 23H0.5C0.223858 23 0 22.7761 0 22.5V20.5C0 20.2239 0.223858 20 0.5 20H2V6H1.5C1.271 6 1.071 5.844 1.015 5.621L0.0150021 1.621C-0.0219979 1.472 0.0110021 1.313 0.106002 1.192C0.201002 1.071 0.346002 1 0.500002 1H23.5ZM3 20H5V18H3V20ZM6 20H10.102C8.583 19.283 7.522 17.748 7.522 15.96C7.522 14.16 8.544 12.722 10.324 12.016C10.469 11.958 10.633 11.971 10.766 12.052C10.9 12.132 10.988 12.27 11.006 12.425C11.036 12.692 11.152 12.915 11.337 13.131C11.647 12.091 11.54 10.381 10.212 9.403C10.021 9.263 9.955 9.007 10.054 8.792C10.153 8.576 10.387 8.457 10.621 8.513C13.959 9.282 16.477 12.484 16.477 15.96C16.477 17.748 15.417 19.283 13.897 20H18V6H6V20ZM19 20H21V18H19V20ZM1 21V22H23V21H1ZM5 6H3V8H5V6ZM21 6H19V8H21V6ZM21 9H19V11H21V9ZM21 12H19V14H21V12ZM21 15H19V17H21V15ZM15.477 15.96C15.477 13.549 14.087 11.29 12.054 10.136C12.723 11.58 12.544 13.304 11.92 14.247C11.842 14.365 11.717 14.445 11.577 14.466C11.438 14.487 11.294 14.449 11.185 14.359C10.789 14.034 10.408 13.668 10.188 13.182C9.108 13.778 8.521 14.748 8.521 15.96C8.521 17.878 10.081 19.438 11.999 19.438C13.917 19.438 15.477 17.878 15.477 15.96ZM5 9H3V11H5V9ZM5 12H3V14H5V12ZM5 15H3V17H5V15ZM22.109 5L22.86 2H1.141L1.891 5H22.109Z" fill="black"/>
</svg>
