<svg width="24" height="24" viewBox="0 0 24 24" fill="none" xmlns="http://www.w3.org/2000/svg">
<g clip-path="url(#clip0_343_13316)">
<path d="M22.434 0.00398188L14.934 1.00398C14.686 1.03798 14.5 1.24998 14.5 1.49998V1.99998H13H11.106L6.703 0.0429819C6.45 -0.0690181 6.155 0.0439819 6.043 0.296982C5.931 0.548982 6.045 0.844982 6.297 0.956982L9.23 2.26098C6.784 3.00998 5 5.28998 5 7.97898V20.5C5 20.776 5.224 21 5.5 21C5.776 21 6 20.776 6 20.5V7.97898C6 5.40398 7.972 3.30398 10.5 3.05098V4.29498C9.011 4.89798 8 6.37098 8 7.99998V23.5C8 23.777 8.224 24 8.5 24H15.5C15.776 24 16 23.776 16 23.5V7.99998C16 6.37198 14.989 4.89898 13.5 4.29398V2.99998H14.5V3.49998C14.5 3.74998 14.686 3.96198 14.934 3.99598L22.434 4.99598C22.456 4.99898 22.479 4.99998 22.5 4.99998C22.62 4.99998 22.737 4.95698 22.829 4.87598C22.938 4.78098 23 4.64398 23 4.49998V0.499982C23 0.355982 22.938 0.218982 22.829 0.123982C22.72 0.0289819 22.582 -0.0140181 22.434 0.00398188ZM15 20H13V9.99998H15V20ZM15 7.99998V8.99998H12.5C12.224 8.99998 12 9.22398 12 9.49998V20.5C12 20.776 12.224 21 12.5 21H15V23H9V7.99998C9 6.68398 9.881 5.50198 11.143 5.12798C11.354 5.06498 11.5 4.86998 11.5 4.64798V2.99998H12.5V4.64798C12.5 4.86898 12.646 5.06398 12.857 5.12698C14.119 5.50298 15 6.68398 15 7.99998ZM22 3.92898L15.5 3.06198V1.93798L22 1.07098V3.92898Z" fill="black"/>
</g>
<defs>
<clipPath id="clip0_343_13316">
<rect width="24" height="24" fill="white"/>
</clipPath>
</defs>
</svg>
