<svg width="24" height="24" viewBox="0 0 24 24" fill="none" xmlns="http://www.w3.org/2000/svg">
<path d="M9.751 18H11.5C11.776 18 12 18.224 12 18.5C12 18.776 11.776 19 11.5 19H7.521C7.245 19 7.021 18.776 7.021 18.5C7.021 18.224 7.245 18 7.521 18H8.502L6.131 14.83C5.965 14.609 6.011 14.296 6.232 14.13C6.454 13.964 6.767 14.011 6.932 14.232L9.751 18Z" fill="black"/>
<path fill-rule="evenodd" clip-rule="evenodd" d="M21.055 20H22C23.103 20 24 20.896 24 22C24 23.103 23.103 24 22 24H2C0.897 24 0 23.103 0 22C0 20.896 0.897 20 2 20H2.956C1.775 19.107 1 17.706 1 16.115C1 13.422 3.188 11.229 5.878 11.23C6.276 11.23 6.677 11.279 7.069 11.378L8 11.61V9H6.254C5.011 9 4 7.989 4 6.746C4 5.503 5.01 4.492 6.25 4.492C6.435 4.492 6.62 4.515 6.8 4.56L11.771 5.803C12.587 6.007 13.086 6.735 12.982 7.575C12.878 8.414 12.219 9 11.377 9H9V11.86L17.296 13.934L19.005 2.427C19 1.673 18.327 1 17.5 1H14.5C14.224 1 14 0.776 14 0.5C14 0.224 14.224 0 14.5 0H17.5C18.878 0 20 1.122 20 2.5L18.271 14.177L19.494 14.483C20.97 14.851 22 16.171 22 17.692C22 18.591 21.638 19.403 21.055 20ZM6.25 5.492C5.561 5.492 5 6.055 5 6.746C5 7.438 5.562 8 6.254 8H11.377C11.896 8 11.978 7.544 11.989 7.453C12 7.361 12.031 6.898 11.528 6.772L6.558 5.53C6.456 5.505 6.353 5.492 6.25 5.492ZM5.878 12.229C3.74 12.229 2 13.972 2 16.115C2 18.257 3.743 20 5.885 20H18.692C19.965 20 21 18.965 21 17.692C21 16.631 20.281 15.71 19.252 15.453L6.827 12.347C6.514 12.268 6.195 12.229 5.878 12.229ZM2 23H22C22.551 23 23 22.551 23 22C23 21.449 22.551 21 22 21H2C1.449 21 1 21.449 1 22C1 22.551 1.449 23 2 23Z" fill="black"/>
</svg>
