<svg width="24" height="24" viewBox="0 0 24 24" fill="none" xmlns="http://www.w3.org/2000/svg">
<path fill-rule="evenodd" clip-rule="evenodd" d="M15.0945 1.00793C15.2823 0.974118 15.4729 1.05008 15.5859 1.20375C15.699 1.35742 15.7147 1.56202 15.6265 1.73118C15.1011 2.73892 14.78 3.89168 14.7173 5.13481C14.7107 5.26005 14.7105 5.38925 14.7105 5.53284C14.7105 6.53853 14.8858 7.50105 15.205 8.3764C15.553 7.78237 15.8271 7.12569 16.0109 6.42108C16.0555 6.25015 16.187 6.11542 16.3568 6.06669C16.5266 6.01795 16.7095 6.06243 16.838 6.1837C18.4743 7.72844 19.5 10.0319 19.5 12.6007V12.6062C19.5 12.7437 19.5 12.8955 19.492 13.0503C19.284 17.4539 16.0307 21 12 21C7.80034 21 4.5 17.1837 4.5 12.6007C4.5 11.7669 4.60891 10.9666 4.81267 10.2098C4.85855 10.0394 4.99085 9.90581 5.16079 9.85828C5.33073 9.81074 5.51315 9.85631 5.64077 9.97818C6.08187 10.3994 6.56843 10.7485 7.09104 11.0171C7.19396 8.70685 7.94864 6.59388 9.1527 4.90235C10.5912 2.87007 12.6911 1.44083 15.0945 1.00793ZM13.7185 5.08439C13.7694 4.07668 13.9731 3.11713 14.3089 2.23084C12.585 2.77835 11.0701 3.92417 9.96845 5.48076L9.96764 5.48189C8.79149 7.13406 8.07895 9.24428 8.07895 11.5613C8.07895 11.6385 8.07928 11.6818 8.08396 11.7298C8.10061 11.9008 8.02836 12.0683 7.89262 12.1735C7.75688 12.2787 7.57665 12.3069 7.41527 12.2481C6.7669 12.0121 6.16091 11.6786 5.60771 11.2609C5.53699 11.6937 5.5 12.1409 5.5 12.6007C5.5 16.7485 8.46281 20 12 20C15.3963 20 18.3058 16.9795 18.4932 13.002L18.4933 12.9997C18.4999 12.8726 18.5 12.7441 18.5 12.6007C18.5 10.6164 17.8178 8.82998 16.7156 7.51072C16.4167 8.31967 16.0069 9.06293 15.5072 9.71897C15.4027 9.8562 15.2348 9.92986 15.063 9.91383C14.8912 9.89779 14.7399 9.79435 14.6625 9.64013C14.0515 8.42179 13.7105 7.01446 13.7105 5.53284V5.52713C13.7105 5.38979 13.7105 5.23772 13.7185 5.08439Z" fill="black"/>
<path d="M2.5 22C2.22386 22 2 22.2239 2 22.5C2 22.7762 2.22386 23 2.5 23H21.5C21.7761 23 22 22.7762 22 22.5C22 22.2239 21.7761 22 21.5 22H2.5Z" fill="black"/>
</svg>
