<svg width="24" height="24" viewBox="0 0 24 24" fill="none" xmlns="http://www.w3.org/2000/svg">
<path d="M21.578 11.135C21.529 10.974 21.402 10.849 21.241 10.801C21.079 10.753 20.905 10.79 20.776 10.899C20.084 11.485 19.317 11.954 18.492 12.295C18.397 9.52902 17.436 6.93902 15.701 4.77902C13.722 2.29902 10.9 0.658022 7.759 0.156022C7.569 0.124022 7.376 0.208022 7.267 0.368022C7.157 0.528022 7.15 0.737022 7.249 0.904022C7.989 2.16102 8.407 3.54602 8.491 5.01902C8.5 5.17902 8.5 5.34002 8.5 5.50002C8.5 6.80102 8.222 8.08302 7.689 9.24902C7.103 8.43702 6.664 7.54202 6.38 6.57902C6.332 6.41702 6.207 6.29102 6.045 6.24202C5.886 6.19202 5.709 6.22802 5.58 6.33702C3.305 8.23902 2 11.033 2 14C2 14.18 2 14.359 2.011 14.537C2.293 19.843 6.681 24 12 24C17.514 24 22 19.515 22 14C22 13.022 21.858 12.059 21.578 11.135ZM8.5 19.387C8.5 16.867 9.962 14.509 12.096 13.322C11.378 14.819 11.562 16.623 12.212 17.607C12.29 17.725 12.415 17.804 12.555 17.825C12.696 17.845 12.838 17.807 12.947 17.717C13.356 17.381 13.751 17.003 13.976 16.498C15.221 17.232 15.5 18.507 15.5 19.5C15.5 21.495 13.995 23 12 23C10.037 23 8.5 21.413 8.5 19.387ZM15.593 22.248C16.158 21.496 16.5 20.558 16.5 19.5C16.5 17.483 15.556 16 13.84 15.324C13.694 15.268 13.532 15.28 13.399 15.361C13.266 15.441 13.177 15.579 13.16 15.733C13.128 16.022 12.999 16.261 12.794 16.494C12.46 15.416 12.56 13.617 13.954 12.59C14.144 12.449 14.211 12.194 14.111 11.979C14.012 11.764 13.782 11.646 13.545 11.7C10.099 12.493 7.5 15.798 7.5 19.387C7.5 20.504 7.885 21.503 8.506 22.293C5.42 20.993 3.197 18.024 3.009 14.482C3 14.321 3 14.161 3 14C3 11.579 3.965 9.28602 5.671 7.60402C6.074 8.65702 6.654 9.62702 7.401 10.496C7.506 10.621 7.669 10.686 7.829 10.668C7.991 10.653 8.136 10.558 8.216 10.417C9.056 8.93102 9.5 7.23002 9.5 5.50002C9.5 5.32002 9.5 5.14102 9.489 4.96202C9.417 3.69202 9.121 2.48102 8.606 1.34902C11.095 1.97102 13.309 3.38702 14.92 5.40402C16.608 7.50302 17.499 10.044 17.499 12.75C17.499 12.822 17.5 12.885 17.492 12.957C17.473 13.126 17.542 13.292 17.674 13.399C17.805 13.507 17.985 13.539 18.143 13.487C19.098 13.179 19.991 12.729 20.805 12.144C20.935 12.75 21 13.372 21 14C21 17.686 18.771 20.856 15.593 22.248Z" fill="black"/>
</svg>
