<svg width="24" height="24" viewBox="0 0 24 24" fill="none" xmlns="http://www.w3.org/2000/svg">
<g clip-path="url(#clip0_344_13267)">
<path d="M17.5 8H13.402L17.923 0.765C18.02 0.611 18.025 0.416 17.937 0.258C17.849 0.099 17.682 0 17.5 0H9.50001C9.27101 0 9.07101 0.156 9.01501 0.379L6.01501 12.379C5.97701 12.528 6.01101 12.687 6.10601 12.808C6.20101 12.929 6.34601 13 6.50001 13H9.84501L7.01801 23.369C6.86801 23.919 7.60601 24.244 7.91601 23.778L17.916 8.778C18.018 8.625 18.028 8.427 17.941 8.265C17.854 8.102 17.685 8 17.5 8ZM8.79301 20.659L10.982 12.631C11.023 12.481 10.991 12.32 10.897 12.196C10.803 12.073 10.656 12 10.5 12H7.14101L9.89101 1H16.598L12.076 8.235C11.979 8.389 11.974 8.584 12.062 8.742C12.151 8.901 12.318 9 12.5 9H16.566L8.79301 20.659Z" fill="black"/>
</g>
<defs>
<clipPath id="clip0_344_13267">
<rect width="24" height="24" fill="white"/>
</clipPath>
</defs>
</svg>
