<svg width="24" height="24" viewBox="0 0 24 24" fill="none" xmlns="http://www.w3.org/2000/svg">
<g clip-path="url(#clip0_344_13262)">
<path d="M20.444 9.27103C20.359 9.10403 20.188 9.00003 20 9.00003H12.623L14.488 0.608029C14.539 0.376029 14.421 0.140029 14.203 0.043029C13.987 -0.052971 13.731 0.015029 13.593 0.209029L3.59298 14.209C3.48398 14.361 3.46899 14.562 3.55499 14.728C3.64099 14.896 3.81198 15 3.99998 15H11.377L9.51199 23.392C9.39399 23.927 10.094 24.229 10.407 23.791L20.407 9.79103C20.516 9.63803 20.53 9.43803 20.444 9.27103ZM11.021 21.21L12.488 14.608C12.521 14.46 12.485 14.305 12.39 14.187C12.295 14.069 12.152 14 12 14H4.97199L12.979 2.79003L11.512 9.39203C11.479 9.54003 11.515 9.69503 11.61 9.81303C11.705 9.93103 11.848 10 12 10H19.028L11.021 21.21Z" fill="black"/>
</g>
<defs>
<clipPath id="clip0_344_13262">
<rect width="24" height="24" fill="white"/>
</clipPath>
</defs>
</svg>
