<svg width="24" height="24" viewBox="0 0 24 24" fill="none" xmlns="http://www.w3.org/2000/svg">
<g clip-path="url(#clip0_344_13277)">
<path d="M11.9999 1.17699L0.83691 11.369C0.63391 11.555 0.31691 11.542 0.13091 11.337C-0.0560898 11.133 -0.0410898 10.818 0.16291 10.631L11.6629 0.130988C11.8539 -0.0430117 12.1469 -0.0430117 12.3369 0.130988L23.8369 10.631C24.0409 10.817 24.0559 11.133 23.8689 11.337C23.7709 11.445 23.6349 11.5 23.4999 11.5C23.3789 11.5 23.2589 11.457 23.1629 11.369L11.9999 1.17699Z" fill="black"/>
<path fill-rule="evenodd" clip-rule="evenodd" d="M23.8209 16.09C23.9379 16.185 24.0049 16.328 24.0049 16.479L23.9999 20.459L24.0008 20.4626L24.002 20.4663C24.0034 20.4705 24.0049 20.475 24.0049 20.48L23.9999 23.501C23.9999 23.776 23.7759 24 23.4999 24H0.49991C0.36691 24 0.23991 23.947 0.14591 23.853C0.0519102 23.759 -8.98405e-05 23.632 -8.98405e-05 23.499L0.00691016 20.52C0.00691016 20.5159 0.00824493 20.5123 0.00953519 20.5088C0.0107422 20.5055 0.0119102 20.5024 0.0119102 20.499H-8.98405e-05L0.00691016 16.52C0.00791016 16.369 0.0759102 16.227 0.19291 16.132C0.30991 16.037 0.46491 16.002 0.61091 16.031C1.49691 16.221 2.32791 15.932 2.99991 15.533V11.5C2.99991 11.224 3.22391 11 3.49991 11C3.77591 11 3.99991 11.224 3.99991 11.5V14.782C4.35291 14.458 4.56291 14.198 4.56891 14.19C4.77091 13.934 5.21791 13.959 5.38991 14.235C6.12091 15.409 7.30191 16.049 8.65091 16.047C9.94791 16.024 11.1429 15.336 11.7679 14.25C11.9419 13.946 12.4429 13.937 12.6289 14.235C13.3599 15.409 14.5399 16.056 15.8879 16.047C17.1869 16.024 18.3819 15.336 19.0079 14.25C19.1839 13.948 19.6829 13.938 19.8689 14.235C19.8779 14.25 19.9249 14.321 19.9999 14.423V11.5C19.9999 11.224 20.2239 11 20.4999 11C20.7759 11 20.9999 11.224 20.9999 11.5V15.416C21.5999 15.85 22.4159 16.193 23.4029 15.988C23.5519 15.961 23.7039 15.995 23.8209 16.09ZM4.91791 15.291C4.22491 15.986 2.77891 17.182 1.00591 17.088L1.00091 20.073C1.02578 20.0747 1.05048 20.0783 1.07522 20.082C1.10917 20.087 1.1432 20.092 1.17791 20.092C3.03991 20.092 4.55491 18.211 4.56991 18.191C4.77191 17.938 5.21891 17.962 5.38991 18.237C6.10691 19.389 7.27191 20.049 8.58591 20.049C9.90991 20.048 11.1299 19.359 11.7679 18.251C11.9419 17.947 12.4429 17.938 12.6289 18.236C13.3459 19.388 14.5109 20.048 15.8229 20.048C17.1489 20.048 18.3689 19.359 19.0079 18.251C19.1839 17.948 19.6829 17.939 19.8689 18.236L19.871 18.2392C19.9279 18.3252 21.0673 20.05 22.8209 20.05C22.8548 20.05 22.889 20.045 22.9234 20.0401C22.9489 20.0364 22.9744 20.0327 22.9999 20.031L23.0029 17.047C21.3009 17.123 20.0739 16.053 19.4609 15.346C18.6089 16.386 17.3019 17.023 15.9049 17.047C14.4739 17.061 13.1359 16.451 12.2119 15.358C11.3599 16.391 10.0599 17.023 8.66791 17.047C7.19791 17.027 5.84391 16.425 4.91791 15.291ZM1.00091 23H23.0009L23.0029 21.047C21.3299 21.134 20.0749 20.051 19.4619 19.347C18.5919 20.41 17.2549 21.048 15.8229 21.048C14.3999 21.048 13.1179 20.441 12.2109 19.36C11.3409 20.415 10.0089 21.047 8.58491 21.048C7.13191 21.048 5.82591 20.415 4.91591 19.292C4.22291 19.986 2.75591 21.175 1.00491 21.087L1.00091 23Z" fill="black"/>
<path d="M15.9999 1.99999H18.9999V4.99999C18.9999 5.27599 19.2239 5.49999 19.4999 5.49999C19.7759 5.49999 19.9999 5.27599 19.9999 4.99999V1.49999C19.9999 1.22399 19.7759 0.999988 19.4999 0.999988H15.9999C15.7239 0.999988 15.4999 1.22399 15.4999 1.49999C15.4999 1.77599 15.7239 1.99999 15.9999 1.99999Z" fill="black"/>
<path fill-rule="evenodd" clip-rule="evenodd" d="M9.99991 5.49999C9.99991 5.22399 10.2239 4.99999 10.4999 4.99999H13.4999C13.7759 4.99999 13.9999 5.22399 13.9999 5.49999V8.49999C13.9999 8.77599 13.7759 8.99999 13.4999 8.99999H10.4999C10.2239 8.99999 9.99991 8.77599 9.99991 8.49999V5.49999ZM10.9999 7.99999H12.9999V5.99999H10.9999V7.99999Z" fill="black"/>
</g>
<defs>
<clipPath id="clip0_344_13277">
<rect width="24" height="24" fill="white"/>
</clipPath>
</defs>
</svg>
