<svg width="24" height="24" viewBox="0 0 24 24" fill="none" xmlns="http://www.w3.org/2000/svg">
<g clip-path="url(#clip0_366_12545)">
<path d="M23.8369 10.631L12.3369 0.131006C12.1469 -0.0439941 11.8539 -0.0439941 11.6629 0.131006L0.16291 10.631C-0.0410898 10.817 -0.0560898 11.133 0.13091 11.337C0.31791 11.542 0.63391 11.556 0.83691 11.369L11.9999 1.17701L23.1629 11.369C23.2589 11.457 23.3789 11.5 23.4999 11.5C23.6349 11.5 23.7709 11.445 23.8689 11.337C24.0559 11.133 24.0409 10.817 23.8369 10.631Z" fill="black"/>
<path fill-rule="evenodd" clip-rule="evenodd" d="M15.565 20.25C14.624 20.25 13.831 19.713 13.2 18.653C12.1412 20.5492 11.586 22.1931 11.35 23H21.4999C21.7761 23 21.9999 23.2239 21.9999 23.5C21.9999 23.7761 21.7761 24 21.4999 24H2.49994C2.2238 24 1.99994 23.7761 1.99994 23.5C1.99994 23.2239 2.2238 23 2.49994 23H9.98835C9.74627 22.4874 9.33829 21.7092 8.77004 20.913C8.14204 21.89 7.36904 22.132 6.77804 22.132C5.98504 22.132 5.11604 21.696 4.39504 20.937C3.19404 19.671 2.50404 16.254 3.44104 14.217C3.50404 14.079 3.62604 13.978 3.77304 13.942C3.91704 13.905 4.07504 13.937 4.19604 14.027C5.06989 14.6864 5.87806 14.896 6.73174 15.1174L6.73804 15.119C7.47704 15.31 8.24104 15.508 8.99604 16.011C9.86404 16.59 10.364 17.387 10.366 18.197C10.367 18.684 10.18 19.374 9.37604 20.051C9.90004 20.742 10.314 21.433 10.609 21.996C10.942 20.997 11.525 19.524 12.467 17.894C11.477 17.335 10.857 16.652 10.669 15.838C10.438 14.841 10.824 13.742 11.817 12.573C12.7436 11.4795 13.9859 11.1064 15.3002 10.7116L15.302 10.711L15.3169 10.7065C16.4643 10.3599 17.6485 10.0022 18.692 9.11802C18.808 9.02102 18.964 8.98002 19.11 9.00902C19.259 9.03802 19.386 9.13302 19.457 9.26702C20.835 11.872 20.187 16.619 18.679 18.396C17.961 19.242 16.838 20.25 15.565 20.25ZM9.36704 18.197C9.36604 17.733 9.02004 17.225 8.44204 16.841C7.83138 16.4342 7.18413 16.2659 6.50028 16.0879L6.48904 16.085C5.77604 15.901 4.98604 15.696 4.15504 15.201C3.73904 16.868 4.28004 19.36 5.12104 20.248C5.64604 20.801 6.26604 21.131 6.77804 21.131C7.30704 21.131 7.74604 20.757 8.09504 20.061C7.51004 19.396 6.81204 18.781 5.99504 18.373C5.74803 18.249 5.64804 17.949 5.77104 17.702C5.89404 17.455 6.19504 17.353 6.44204 17.478C7.34004 17.926 8.09904 18.581 8.73804 19.284C9.07004 19.004 9.36804 18.634 9.36704 18.197ZM18.814 10.283C17.7505 11.0177 16.613 11.3597 15.5924 11.6666L15.591 11.667C14.37 12.034 13.316 12.352 12.58 13.219C12.046 13.849 11.45 14.775 11.644 15.612C11.769 16.152 12.233 16.632 12.992 17.05C13.91 15.607 15.093 14.093 16.649 12.692C16.853 12.509 17.17 12.525 17.355 12.729C17.539 12.936 17.523 13.251 17.318 13.437C15.831 14.776 14.682 16.245 13.802 17.639C14.295 18.701 14.886 19.25 15.565 19.25C16.25 19.25 17.107 18.703 17.917 17.75C19.08 16.378 19.652 12.598 18.814 10.283Z" fill="black"/>
</g>
<defs>
<clipPath id="clip0_366_12545">
<rect width="24" height="24" fill="white"/>
</clipPath>
</defs>
</svg>
