<svg width="24" height="24" viewBox="0 0 24 24" fill="none" xmlns="http://www.w3.org/2000/svg">
<path d="M15.817 9.5C15.817 7.294 14.023 5.5 11.817 5.5C9.611 5.5 7.817 7.294 7.817 9.5C7.817 11.706 9.611 13.5 11.817 13.5C14.023 13.5 15.817 11.706 15.817 9.5ZM8.817 9.5C8.817 7.846 10.163 6.5 11.817 6.5C13.471 6.5 14.817 7.846 14.817 9.5C14.817 11.154 13.471 12.5 11.817 12.5C10.163 12.5 8.817 11.154 8.817 9.5Z" fill="black"/>
<path d="M14.317 9.5C14.317 8.121 13.195 7 11.817 7C10.439 7 9.317 8.121 9.317 9.5C9.317 10.879 10.439 12 11.817 12C13.195 12 14.317 10.879 14.317 9.5ZM10.317 9.5C10.317 8.673 10.99 8 11.817 8C12.644 8 13.317 8.673 13.317 9.5C13.317 10.327 12.644 11 11.817 11C10.99 11 10.317 10.327 10.317 9.5Z" fill="black"/>
<path d="M20.317 18H16.317C15.365 18 14.491 18.438 13.893 19.235L12.317 21.758V17.026C12.956 17.68 13.846 18.089 14.834 18.089C16.764 18.089 18.334 16.519 18.334 14.589C18.334 13.907 18.148 13.27 17.807 12.729C18.652 12.681 19.473 12.418 20.092 11.992C21.013 11.359 21.5 10.392 21.5 9.197C21.5 7.015 19.672 5.697 17.873 5.653C18.162 5.157 18.317 4.596 18.317 4C18.317 2.07 16.747 0.5 14.817 0.5C13.546 0.5 12.43 1.182 11.817 2.199C11.204 1.182 10.088 0.5 8.817 0.5C6.887 0.5 5.317 2.07 5.317 4C5.317 4.6 5.491 5.183 5.811 5.698C3.968 5.8 2.5 7.33 2.5 9.196C2.5 11.268 4.156 12.562 5.873 12.726C5.527 13.277 5.334 13.92 5.334 14.588C5.334 16.518 6.904 18.088 8.834 18.088C9.807 18.088 10.685 17.683 11.317 17.034V21.757L9.716 19.198C9.143 18.438 8.269 18 7.317 18H3.317C3.144 18 2.983 18.09 2.892 18.237C2.801 18.384 2.792 18.568 2.87 18.723L4.918 22.8C5.491 23.562 6.365 24 7.317 24H16.317C17.269 24 18.143 23.562 18.764 22.724L20.764 18.724C20.842 18.569 20.833 18.385 20.742 18.238C20.651 18.091 20.49 18 20.317 18ZM8.834 17.089C7.456 17.089 6.334 15.968 6.334 14.589C6.334 13.705 6.808 12.879 7.57 12.432C7.807 12.292 7.887 11.989 7.75 11.75C7.612 11.512 7.308 11.431 7.069 11.565C6.866 11.68 6.573 11.745 6.243 11.745C5.182 11.745 3.499 11.053 3.499 9.196C3.499 7.816 4.623 6.693 6.005 6.693C6.382 6.693 6.75 6.779 7.097 6.949C7.337 7.065 7.626 6.974 7.754 6.742C7.883 6.509 7.807 6.216 7.581 6.075C6.789 5.584 6.317 4.809 6.317 4C6.317 2.621 7.439 1.5 8.817 1.5C10.195 1.5 11.317 2.621 11.317 4C11.317 4.276 11.541 4.5 11.817 4.5C12.093 4.5 12.317 4.276 12.317 4C12.317 2.621 13.439 1.5 14.817 1.5C16.195 1.5 17.317 2.621 17.317 4C17.317 4.846 16.86 5.6 16.063 6.069C15.83 6.207 15.749 6.505 15.879 6.742C16.009 6.978 16.305 7.071 16.546 6.944C18.047 6.165 20.498 7.083 20.499 9.196C20.499 10.059 20.171 10.722 19.524 11.168C18.998 11.529 18.27 11.736 17.525 11.736C17.052 11.736 16.722 11.65 16.554 11.56C16.312 11.43 16.019 11.523 15.887 11.765C15.755 12.006 15.853 12.315 16.094 12.448C16.881 12.883 17.332 13.663 17.332 14.589C17.332 15.968 16.21 17.089 14.832 17.089C13.444 17.089 12.315 15.968 12.315 14.589C12.315 14.313 12.091 14.089 11.815 14.089C11.539 14.089 11.315 14.313 11.315 14.589C11.317 15.968 10.203 17.089 8.834 17.089ZM7.317 23C6.683 23 6.099 22.708 5.764 22.276L4.126 19H7.317C7.951 19 8.535 19.292 8.893 19.765L10.915 23H7.317ZM17.918 22.199C17.535 22.708 16.951 23 16.317 23H12.719L14.717 19.801C15.099 19.292 15.683 19 16.317 19H19.51L17.918 22.199Z" fill="black"/>
</svg>
