<svg width="24" height="24" viewBox="0 0 24 24" fill="none" xmlns="http://www.w3.org/2000/svg">
<path d="M14.7499 6.25C14.7499 5.01 13.7409 4 12.4999 4C11.2589 4 10.2499 5.01 10.2499 6.25C10.2499 7.49 11.2589 8.5 12.4999 8.5C13.7409 8.5 14.7499 7.49 14.7499 6.25ZM11.2499 6.25C11.2499 5.561 11.8109 5 12.4999 5C13.1889 5 13.7499 5.561 13.7499 6.25C13.7499 6.939 13.1889 7.5 12.4999 7.5C11.8109 7.5 11.2499 6.939 11.2499 6.25Z" fill="black"/>
<path d="M18.8939 15.192C18.7989 15.071 18.6539 15 18.4999 15H11.9379C11.9339 14.309 12.0239 12.871 12.6389 11.141C13.1509 11.649 13.8429 11.958 14.5899 11.958C15.1769 11.958 15.7409 11.775 16.2179 11.429C16.8989 10.935 17.3149 10.169 17.3589 9.327C17.3879 8.773 17.2529 8.235 16.9769 7.77C17.4729 7.555 17.8979 7.2 18.1999 6.735C18.6579 6.03 18.7729 5.166 18.5129 4.365C18.0769 3.023 16.6389 2.199 15.2669 2.513C15.2159 1.972 15.0079 1.455 14.6589 1.025C14.1299 0.374 13.3449 0 12.5049 0C11.6649 0 10.8799 0.374 10.3499 1.026C9.99994 1.456 9.79194 1.973 9.74194 2.513C8.36694 2.207 6.93194 3.025 6.49694 4.366C6.23694 5.166 6.35094 6.03 6.80894 6.736C7.11094 7.2 7.53694 7.557 8.03294 7.771C7.75694 8.235 7.62194 8.774 7.65094 9.327C7.69494 10.168 8.10994 10.933 8.79094 11.429C9.26894 11.777 9.83194 11.959 10.4199 11.959C10.7609 11.959 11.0869 11.885 11.3949 11.768C11.0049 13.196 10.9329 14.358 10.9379 15H5.49994C5.34594 15 5.20094 15.071 5.10594 15.192C5.01094 15.313 4.97794 15.471 5.01494 15.621L7.01494 23.621C7.07094 23.844 7.27094 24 7.49994 24H16.4999C16.7289 24 16.9289 23.844 16.9849 23.621L18.9849 15.621C19.0219 15.472 18.9889 15.313 18.8939 15.192ZM10.4199 10.959C10.0449 10.959 9.68494 10.842 9.37894 10.62C8.94294 10.304 8.67794 9.813 8.64994 9.275C8.62194 8.737 8.83594 8.222 9.23894 7.858C9.38594 7.727 9.44094 7.521 9.37994 7.333C9.31894 7.145 9.15294 7.011 8.95694 6.99C8.41694 6.934 7.93994 6.643 7.64794 6.191C7.35494 5.739 7.28194 5.186 7.44794 4.673C7.68594 3.939 8.36594 3.444 9.13894 3.444C9.45194 3.444 9.75094 3.526 10.0289 3.686C10.1989 3.785 10.4119 3.774 10.5719 3.659C10.7319 3.544 10.8089 3.345 10.7679 3.151C10.6569 2.617 10.7869 2.072 11.1249 1.656C11.8039 0.82 13.2059 0.821 13.8829 1.655C14.2209 2.072 14.3519 2.617 14.2399 3.151C14.1989 3.344 14.2769 3.544 14.4359 3.659C14.5949 3.774 14.8099 3.786 14.9789 3.686C15.9409 3.13 17.2249 3.64 17.5609 4.672C17.7269 5.185 17.6539 5.737 17.3599 6.19C17.0669 6.64 16.5899 6.932 16.0509 6.989C15.8539 7.01 15.6889 7.144 15.6279 7.332C15.5669 7.52 15.6219 7.726 15.7689 7.858C16.1719 8.22 16.3869 8.736 16.3589 9.273C16.3309 9.812 16.0649 10.302 15.6299 10.619C15.3239 10.84 14.9639 10.957 14.5889 10.957C13.8739 10.957 13.2509 10.552 12.9609 9.899C12.9579 9.892 12.9499 9.89 12.9469 9.883C12.8959 9.781 12.8169 9.693 12.7039 9.643C12.4519 9.531 12.1559 9.647 12.0449 9.9V9.901C11.7559 10.555 11.1329 10.959 10.4199 10.959ZM17.8589 16L17.6089 17H6.39094L6.14094 16H17.8589ZM16.1089 23H7.89094L6.64094 18H17.3599L16.1089 23Z" fill="black"/>
</svg>
