<svg width="24" height="24" viewBox="0 0 24 24" fill="none" xmlns="http://www.w3.org/2000/svg">
<path d="M13.8904 18.6876C14.0629 18.9033 14.028 19.2179 13.8123 19.3904C13.5967 19.5629 13.2821 19.528 13.1095 19.3123L12.1095 17.8123C11.9635 17.6297 11.9635 17.3702 12.1095 17.1876L13.1095 15.6876C13.2821 15.472 13.5967 15.437 13.8123 15.6095C14.028 15.7821 14.0629 16.0967 13.8904 16.3123L13.1403 17.5L13.8904 18.6876Z" fill="black"/>
<path d="M15.1877 19.3904C14.972 19.2179 14.9371 18.9033 15.1096 18.6876L15.8597 17.5L15.1096 16.3123C14.9371 16.0967 14.972 15.7821 15.1877 15.6095C15.4033 15.437 15.7179 15.472 15.8905 15.6876L16.8905 17.1876C17.0365 17.3702 17.0365 17.6297 16.8905 17.8123L15.8905 19.3123C15.7179 19.528 15.4033 19.5629 15.1877 19.3904Z" fill="black"/>
<path fill-rule="evenodd" clip-rule="evenodd" d="M11.8357 1.02775C11.9421 0.990749 12.0579 0.990749 12.1643 1.02775L23.6643 5.02775C23.8653 5.09767 24 5.28717 24 5.5V7.5C24 7.77614 23.7761 8 23.5 8H23V23H23.5C23.7761 23 24 23.2239 24 23.5C24 23.7761 23.7761 24 23.5 24H0.5C0.223858 24 0 23.7761 0 23.5C0 23.2239 0.223858 23 0.5 23H1V8H0.5C0.223858 8 0 7.77614 0 7.5V5.5C0 5.28717 0.134725 5.09767 0.33574 5.02775L11.8357 1.02775ZM19 23H10V12H19V23ZM9 17H7.5C7.22386 17 7 17.2239 7 17.5C7 17.7761 7.22386 18 7.5 18H9V23H5V12H9V17ZM19.5 11H4.5C4.22386 11 4 11.2239 4 11.5V23H2V8H22V23H20V11.5C20 11.2239 19.7761 11 19.5 11ZM23 7H1V5.85547L12 2.02938L23 5.85547V7Z" fill="black"/>
</svg>
