<svg width="24" height="24" viewBox="0 0 24 24" fill="none" xmlns="http://www.w3.org/2000/svg">
<path fill-rule="evenodd" clip-rule="evenodd" d="M12.1643 1.02775C12.0579 0.990749 11.9421 0.990749 11.8357 1.02775L0.33574 5.02775C0.134725 5.09767 0 5.28717 0 5.5V7.5C0 7.77614 0.223858 8 0.5 8H1V23H0.5C0.223858 23 0 23.2239 0 23.5C0 23.7761 0.223858 24 0.5 24H23.5C23.7761 24 24 23.7761 24 23.5C24 23.2239 23.7761 23 23.5 23H23V8H23.5C23.7761 8 24 7.77614 24 7.5V5.5C24 5.28717 23.8653 5.09767 23.6643 5.02775L12.1643 1.02775ZM19 18V23H15V12H19V17H17.5C17.2239 17 17 17.2239 17 17.5C17 17.7761 17.2239 18 17.5 18H19ZM20 23H22V8H2V23H4V11.5C4 11.2239 4.22386 11 4.5 11H19.5C19.7761 11 20 11.2239 20 11.5V23ZM14 23V12H10V23H14ZM9 12V23H5V12H9ZM23 7V5.85547L12 2.02938L1 5.85547V7H23Z" fill="black"/>
</svg>
