<svg width="24" height="24" viewBox="0 0 24 24" fill="none" xmlns="http://www.w3.org/2000/svg">
<path d="M8.89042 18.6876C9.06292 18.9033 9.02796 19.2179 8.81233 19.3904C8.5967 19.5629 8.28205 19.528 8.10955 19.3123L7.10955 17.8123C6.96346 17.6297 6.96346 17.3702 7.10955 17.1876L8.10955 15.6876C8.28205 15.472 8.5967 15.437 8.81233 15.6095C9.02796 15.7821 9.06292 16.0967 8.89042 16.3123L8.14029 17.5L8.89042 18.6876Z" fill="black"/>
<path d="M10.1877 19.3904C9.97204 19.2179 9.93708 18.9033 10.1096 18.6876L10.8597 17.5L10.1096 16.3123C9.93708 16.0967 9.97204 15.7821 10.1877 15.6095C10.4033 15.437 10.7179 15.472 10.8905 15.6876L11.8905 17.1876C12.0365 17.3702 12.0365 17.6297 11.8905 17.8123L10.8905 19.3123C10.7179 19.528 10.4033 19.5629 10.1877 19.3904Z" fill="black"/>
<path fill-rule="evenodd" clip-rule="evenodd" d="M11.8357 1.02775C11.9421 0.990749 12.0579 0.990749 12.1643 1.02775L23.6643 5.02775C23.8653 5.09767 24 5.28717 24 5.5V7.5C24 7.77614 23.7761 8 23.5 8H23V23H23.5C23.7761 23 24 23.2239 24 23.5C24 23.7761 23.7761 24 23.5 24H0.5C0.223858 24 0 23.7761 0 23.5C0 23.2239 0.223858 23 0.5 23H1V8H0.5C0.223858 8 0 7.77614 0 7.5V5.5C0 5.28717 0.134725 5.09767 0.33574 5.02775L11.8357 1.02775ZM15 23V18H16.5C16.7761 18 17 17.7761 17 17.5C17 17.2239 16.7761 17 16.5 17H15V12H19V23H15ZM14 12H5V23H14V12ZM19.5 11H4.5C4.22386 11 4 11.2239 4 11.5V23H2V8H22V23H20V11.5C20 11.2239 19.7761 11 19.5 11ZM1 7V5.85547L12 2.02938L23 5.85547V7H1Z" fill="black"/>
</svg>
