<svg width="24" height="24" viewBox="0 0 24 24" fill="none" xmlns="http://www.w3.org/2000/svg">
<path fill-rule="evenodd" clip-rule="evenodd" d="M11.8357 1.02775C11.9421 0.990749 12.0579 0.990749 12.1643 1.02775L23.6643 5.02775C23.8653 5.09767 24 5.28717 24 5.5V7.5C24 7.77614 23.7761 8 23.5 8H23V23H23.5C23.7761 23 24 23.2239 24 23.5C24 23.7761 23.7761 24 23.5 24H0.5C0.223858 24 0 23.7761 0 23.5C0 23.2239 0.223858 23 0.5 23H1V8H0.5C0.223858 8 0 7.77614 0 7.5V5.5C0 5.28717 0.134725 5.09767 0.33574 5.02775L11.8357 1.02775ZM19 12V23H15V18H16.5C16.7761 18 17 17.7761 17 17.5C17 17.2239 16.7761 17 16.5 17H15V12H19ZM14 12H5V23H14V12ZM19.5 11H4.5C4.22386 11 4 11.2239 4 11.5V23H2V8H22V23H20V11.5C20 11.2239 19.7761 11 19.5 11ZM1 7V5.85547L12 2.02938L23 5.85547V7H1Z" fill="black"/>
</svg>
