<svg width="24" height="24" viewBox="0 0 24 24" fill="none" xmlns="http://www.w3.org/2000/svg">
<path d="M13.8123 19.3904C14.028 19.2179 14.0629 18.9033 13.8904 18.6876L13.1403 17.5L13.8904 16.3123C14.0629 16.0967 14.028 15.7821 13.8123 15.6095C13.5967 15.437 13.2821 15.472 13.1095 15.6876L12.1095 17.1876C11.9635 17.3702 11.9635 17.6297 12.1095 17.8123L13.1095 19.3123C13.2821 19.528 13.5967 19.5629 13.8123 19.3904Z" fill="black"/>
<path fill-rule="evenodd" clip-rule="evenodd" d="M12.1643 1.02775C12.0579 0.990749 11.9421 0.990749 11.8357 1.02775L0.33574 5.02775C0.134725 5.09767 0 5.28717 0 5.5V7.5C0 7.77614 0.223858 8 0.5 8H1V23H0.5C0.223858 23 0 23.2239 0 23.5C0 23.7761 0.223858 24 0.5 24H23.5C23.7761 24 24 23.7761 24 23.5C24 23.2239 23.7761 23 23.5 23H23V8H23.5C23.7761 8 24 7.77614 24 7.5V5.5C24 5.28717 23.8653 5.09767 23.6643 5.02775L12.1643 1.02775ZM10 23H19V12H10V23ZM7.5 17H9V12H5V23H9V18H7.5C7.22386 18 7 17.7761 7 17.5C7 17.2239 7.22386 17 7.5 17ZM4.5 11H19.5C19.7761 11 20 11.2239 20 11.5V23H22V8H2V23H4V11.5C4 11.2239 4.22386 11 4.5 11ZM1 7H23V5.85547L12 2.02938L1 5.85547V7Z" fill="black"/>
</svg>
