<svg width="24" height="24" viewBox="0 0 24 24" fill="none" xmlns="http://www.w3.org/2000/svg">
<path d="M12.1877 19.3904C11.972 19.2179 11.9371 18.9033 12.1096 18.6876L12.8597 17.5L12.1096 16.3123C11.9371 16.0967 11.972 15.7821 12.1877 15.6095C12.4033 15.437 12.7179 15.472 12.8905 15.6876L13.8905 17.1876C14.0365 17.3702 14.0365 17.6297 13.8905 17.8123L12.8905 19.3123C12.7179 19.528 12.4033 19.5629 12.1877 19.3904Z" fill="black"/>
<path fill-rule="evenodd" clip-rule="evenodd" d="M12.1643 1.02775C12.0579 0.990749 11.9421 0.990749 11.8357 1.02775L0.33574 5.02775C0.134725 5.09767 0 5.28717 0 5.5V7.5C0 7.77614 0.223858 8 0.5 8H1V23H0.5C0.223858 23 0 23.2239 0 23.5C0 23.7761 0.223858 24 0.5 24H23.5C23.7761 24 24 23.7761 24 23.5C24 23.2239 23.7761 23 23.5 23H23V8H23.5C23.7761 8 24 7.77614 24 7.5V5.5C24 5.28717 23.8653 5.09767 23.6643 5.02775L12.1643 1.02775ZM10 23H19V12H10V23ZM7.5 17H9V12H5V23H9V18H7.5C7.22386 18 7 17.7761 7 17.5C7 17.2239 7.22386 17 7.5 17ZM4.5 11H19.5C19.7761 11 20 11.2239 20 11.5V23H22V8H2V23H4V11.5C4 11.2239 4.22386 11 4.5 11ZM1 7H23V5.85547L12 2.02938L1 5.85547V7Z" fill="black"/>
</svg>
