<svg width="24" height="24" viewBox="0 0 24 24" fill="none" xmlns="http://www.w3.org/2000/svg">
<path d="M6.101 9.73C7.395 7.708 9.601 6.5 12 6.5C12.276 6.5 12.5 6.724 12.5 7C12.5 7.276 12.276 7.5 12 7.5C9.943 7.5 8.053 8.535 6.943 10.27C6.847 10.418 6.686 10.5 6.521 10.5C6.429 10.5 6.336 10.475 6.253 10.421C6.02 10.272 5.953 9.962 6.101 9.73Z" fill="black"/>
<path fill-rule="evenodd" clip-rule="evenodd" d="M23.5 13H21.475C21.241 8.545 17.933 4.899 13.631 4.15C13.861 3.824 14 3.429 14 3C14 1.896 13.103 1 12 1C10.897 1 10 1.896 10 3C10 3.429 10.139 3.824 10.369 4.15C6.067 4.899 2.759 8.545 2.525 13H0.5C0.224 13 0 13.224 0 13.5C0 13.776 0.224 14 0.5 14H1.293L3.147 15.854C3.24 15.947 3.367 16 3.5 16H20.5C20.633 16 20.76 15.947 20.854 15.854L22.708 14H23.5C23.776 14 24 13.776 24 13.5C24 13.224 23.776 13 23.5 13ZM11 3C11 2.449 11.449 2 12 2C12.551 2 13 2.449 13 3C13 3.551 12.551 4 12 4C11.449 4 11 3.551 11 3ZM12 5C16.519 5 20.214 8.546 20.475 13H3.525C3.786 8.546 7.481 5 12 5ZM3.707 15L2.707 14H21.293L20.293 15H3.707Z" fill="black"/>
<path d="M3 21.5C3 21.7761 2.77614 22 2.5 22C2.22386 22 2 21.7761 2 21.5C2 21.2239 2.22386 21 2.5 21C2.77614 21 3 21.2239 3 21.5Z" fill="black"/>
<path fill-rule="evenodd" clip-rule="evenodd" d="M11.214 20H12C17.383 20 20 20.818 20 22.5C20 22.776 19.776 23 19.5 23H5V23.5C5 23.776 4.776 24 4.5 24H0.5C0.224 24 0 23.776 0 23.5V17.5C0 17.224 0.224 17 0.5 17H4.5C4.776 17 5 17.224 5 17.5V18H7C9.332 18 10.589 19.336 11.193 19.978L11.214 20ZM1 18V23H4V18H1ZM5 19V22H18.66C17.881 21.451 15.739 21 12 21H7C6.724 21 6.5 20.776 6.5 20.5C6.5 20.224 6.724 20 7 20H9.771C9.165 19.498 8.289 19 7 19H5Z" fill="black"/>
</svg>
