<svg width="24" height="24" viewBox="0 0 24 24" fill="none" xmlns="http://www.w3.org/2000/svg">
<g clip-path="url(#clip0_344_13345)">
<path d="M23.5 11H22V9.50003C22 9.22403 21.776 9.00003 21.5 9.00003H20.761C20.457 6.01703 18.224 3.57103 15.374 2.96603C15.479 2.75703 15.544 2.52603 15.544 2.27703C15.544 1.42503 14.852 0.733032 14.001 0.733032C13.149 0.733032 12.457 1.42503 12.457 2.27703C12.457 2.52703 12.523 2.76103 12.629 2.97003C9.821 3.58103 7.622 6.02203 7.321 9.00003H6.5C6.224 9.00003 6 9.22403 6 9.50003V11H4.5C4.224 11 4 11.224 4 11.5V16H3V9.50003C3 8.14503 1.855 7.00003 0.5 7.00003C0.224 7.00003 0 7.22403 0 7.50003C0 7.77603 0.224 8.00003 0.5 8.00003C1.313 8.00003 2 8.68703 2 9.50003V16.5C2 16.776 2.224 17 2.5 17H4V21.5C4 21.776 4.224 22 4.5 22H6.051C6.283 23.14 7.293 24 8.5 24C9.707 24 10.717 23.14 10.949 22H17.051C17.283 23.14 18.293 24 19.5 24C20.707 24 21.717 23.14 21.949 22H23.5C23.776 22 24 21.776 24 21.5V11.5C24 11.224 23.776 11 23.5 11ZM13.457 2.27603C13.457 1.97603 13.701 1.73203 14.001 1.73203C14.3 1.73203 14.544 1.97603 14.544 2.27603C14.544 2.57503 14.3 2.81903 14.001 2.81903C13.701 2.81903 13.457 2.57603 13.457 2.27603ZM14 3.81903C16.932 3.81903 19.413 6.10003 19.758 9.00003H8.323C8.665 6.10003 11.111 3.81903 14 3.81903ZM7 10H20.299C20.304 10 20.309 10 20.315 10H21V11H7V10ZM8.5 23C7.849 23 7.299 22.581 7.092 22H9.908C9.701 22.581 9.151 23 8.5 23ZM19.5 23C18.849 23 18.299 22.581 18.092 22H20.908C20.701 22.581 20.151 23 19.5 23ZM23 21H20V16.5C20 16.224 19.776 16 19.5 16C19.224 16 19 16.224 19 16.5V21H14V16.5C14 16.224 13.776 16 13.5 16C13.224 16 13 16.224 13 16.5V21H9V16.5C9 16.224 8.777 16 8.5 16C8.223 16 8 16.224 8 16.5V21H5V12H23V21Z" fill="black"/>
</g>
<defs>
<clipPath id="clip0_344_13345">
<rect width="24" height="24" fill="white"/>
</clipPath>
</defs>
</svg>
