<svg width="24" height="24" viewBox="0 0 24 24" fill="none" xmlns="http://www.w3.org/2000/svg">
<g clip-path="url(#clip0_344_13337)">
<path fill-rule="evenodd" clip-rule="evenodd" d="M23.0286 7.25694L23.7016 8.13093C23.9816 8.40193 24.0786 8.88393 23.9036 9.30693C23.7306 9.72793 23.3236 9.99993 22.8676 9.99993H20.3856V11.0139C20.3856 11.2899 20.1616 11.5139 19.8856 11.5139C19.6096 11.5139 19.3856 11.2899 19.3856 11.0139V9.99993H16.9036C16.4476 9.99993 16.0406 9.72793 15.8656 9.30693C15.6916 8.88493 15.7876 8.40393 16.1106 8.08293L16.7566 7.25494C16.5556 7.12694 16.3926 6.93594 16.2986 6.70694C16.1256 6.28794 16.2226 5.84094 16.5556 5.50994L17.5516 4.24794C17.3396 4.10894 17.1696 3.89994 17.0806 3.64994C16.9226 3.20594 17.0596 2.73894 17.4386 2.43094L19.5186 0.17294C19.6136 0.0719397 19.7466 0.0129395 19.8856 0.0129395L19.9079 0.018136C20.014 0.0427231 20.166 0.0779667 20.2546 0.17494L22.3666 2.47794C22.6936 2.73494 22.8316 3.20294 22.6746 3.64794C22.5876 3.89394 22.4216 4.10094 22.2136 4.24094L23.2666 5.54494C23.5646 5.83194 23.6636 6.28094 23.4916 6.70294C23.3966 6.93594 23.2316 7.12794 23.0286 7.25694ZM22.8676 8.99993C22.8876 8.99993 22.9486 8.99993 22.9796 8.92593C22.9936 8.89093 23.0016 8.83793 22.9546 8.78993L21.6076 7.04894C21.4456 6.83994 21.4756 6.54194 21.6736 6.36794C21.8716 6.19294 22.1696 6.20394 22.3576 6.39094C22.4726 6.43394 22.5396 6.38694 22.5656 6.32494C22.5755 6.30011 22.5862 6.27353 22.5286 6.21794L20.7836 4.06394C20.6176 3.85794 20.6406 3.55794 20.8356 3.37994C21.0316 3.20094 21.3326 3.20694 21.5216 3.39094C21.6386 3.43694 21.7086 3.38194 21.7316 3.31694C21.7416 3.28894 21.7506 3.26194 21.6836 3.20694L19.8846 1.25294L18.1206 3.16094C18.0019 3.26171 18.0116 3.28882 18.0215 3.31675C18.0455 3.38175 18.1146 3.43594 18.1566 3.43594C18.3436 3.24794 18.6826 3.21794 18.8806 3.39394C19.0786 3.56994 19.1426 3.84594 18.9786 4.05394L17.2996 6.17694C17.203 6.27651 17.2135 6.30271 17.2235 6.32762C17.2485 6.38862 17.3156 6.43494 17.3586 6.43494C17.4626 6.32694 17.6166 6.26694 17.7666 6.26694C17.8826 6.26694 17.9976 6.30294 18.0856 6.37894C18.2876 6.55294 18.3546 6.83094 18.1906 7.04094L16.8576 8.74493C16.7696 8.83893 16.7756 8.89093 16.7906 8.92493C16.8106 8.97493 16.8486 8.99993 16.9026 8.99993H22.8676Z" fill="black"/>
<path fill-rule="evenodd" clip-rule="evenodd" d="M16.353 18.0049C16.719 17.8539 17.026 17.5539 17.184 17.1669C17.404 16.6269 17.276 16.0519 16.881 15.6699L15.094 13.4569C15.477 13.2939 15.796 12.9649 15.943 12.5489C16.147 11.9719 15.97 11.3889 15.529 11.0409L12.371 7.55194C12.276 7.44694 12.141 7.38794 12 7.38794C11.858 7.38794 11.724 7.44894 11.629 7.55294L8.53199 10.9989C8.03799 11.3979 7.865 11.9799 8.068 12.5559C8.213 12.9659 8.52599 13.2919 8.90299 13.4569L7.095 15.6399C6.668 16.0679 6.546 16.6429 6.768 17.1769C6.929 17.5649 7.242 17.8649 7.614 18.0119L6.427 19.5329C6.011 19.9449 5.887 20.5619 6.111 21.1059C6.337 21.6559 6.848 21.9979 7.443 21.9979L11.5 22V23.501C11.5 23.777 11.724 24.001 12 24.001C12.276 24.001 12.5 23.777 12.5 23.501V22.001L16.559 21.9999C17.155 21.9999 17.665 21.6569 17.891 21.1049C18.115 20.5579 17.99 19.9399 17.613 19.5749L16.353 18.0049ZM16.965 20.7269C16.931 20.8089 16.824 20.9999 16.559 20.9999L7.443 20.9979C7.176 20.9979 7.069 20.8079 7.036 20.7269C7.01 20.6619 6.938 20.4359 7.173 20.1969L9.19199 17.6159C9.35599 17.4069 9.32699 17.1049 9.12599 16.9309C9.03099 16.8489 8.91499 16.8079 8.79799 16.8079C8.66699 16.8079 8.53599 16.8599 8.43799 16.9609C8.18099 17.2249 7.813 17.0839 7.692 16.7929C7.626 16.6339 7.662 16.4869 7.835 16.3119L10.495 13.1049C10.665 12.8999 10.644 12.5959 10.448 12.4169C10.252 12.2379 9.94699 12.2439 9.75799 12.4319C9.48599 12.7029 9.12099 12.5329 9.01199 12.2229C8.95099 12.0529 8.99999 11.9069 9.21799 11.7229L12.001 8.63294L14.844 11.7669C15.008 11.8989 15.059 12.0459 14.999 12.2169C14.891 12.5229 14.529 12.6939 14.258 12.4279C14.068 12.2429 13.768 12.2379 13.572 12.4149C13.376 12.5939 13.353 12.8939 13.519 13.0999L16.141 16.3419C16.285 16.4829 16.323 16.6289 16.257 16.7889C16.182 16.9739 15.992 17.1129 15.815 17.1129C15.713 17.1129 15.613 17.0649 15.519 16.9699C15.332 16.7819 15.03 16.7729 14.832 16.9509C14.634 17.1279 14.609 17.4289 14.775 17.6359L16.871 20.2429C17.064 20.4339 16.992 20.6609 16.965 20.7269Z" fill="black"/>
<path fill-rule="evenodd" clip-rule="evenodd" d="M8.1226 9.30692C7.9496 9.72792 7.5426 9.99992 7.0866 9.99992H4.6046V11.0139C4.6046 11.2899 4.3806 11.5139 4.1046 11.5139C3.8286 11.5139 3.6046 11.2899 3.6046 11.0139V9.99992H1.1226C0.666597 9.99992 0.259597 9.72792 0.085597 9.30692C-0.088403 8.88492 0.00759697 8.40392 0.330597 8.08292L0.975597 7.25492C0.774597 7.12692 0.611597 6.93592 0.517597 6.70692C0.344597 6.28792 0.441597 5.84092 0.774597 5.50992L1.7706 4.24792C1.5586 4.10892 1.3876 3.89992 1.2986 3.64992C1.1416 3.20692 1.2786 2.73892 1.6576 2.43192L3.7376 0.173916C3.8326 0.072916 3.9656 0.013916 4.1046 0.013916L4.1176 0.0168351C4.22794 0.0415553 4.38128 0.0759098 4.4736 0.175916L6.5856 2.47792C6.9126 2.73492 7.0506 3.20292 6.8936 3.64792C6.8066 3.89392 6.6406 4.10092 6.4326 4.24092L7.4856 5.54492C7.7836 5.83192 7.8826 6.28092 7.7106 6.70292C7.6156 6.93592 7.4506 7.12792 7.2476 7.25692L7.9196 8.13092C8.2006 8.40292 8.2966 8.88392 8.1226 9.30692ZM1.0766 8.74492C0.988597 8.83892 0.994597 8.89092 1.0096 8.92492C1.0306 8.97492 1.0676 8.99992 1.1226 8.99992H7.0866C7.1066 8.99992 7.1676 8.99992 7.1986 8.92592C7.2136 8.89091 7.2206 8.83792 7.1726 8.78992L5.8256 7.04892C5.6646 6.83992 5.6936 6.54192 5.8926 6.36792C6.0906 6.19292 6.3896 6.20492 6.5766 6.39192C6.6916 6.43492 6.75982 6.38737 6.78482 6.32437C6.79475 6.29954 6.80518 6.27349 6.7476 6.21592L5.0026 4.06192C4.8366 3.85592 4.8596 3.55692 5.0546 3.37892C5.2506 3.19992 5.5516 3.20592 5.7406 3.38992C5.8586 3.43592 5.9266 3.38092 5.9506 3.31592C5.9606 3.28792 5.9696 3.26092 5.9026 3.20592L4.1036 1.25192L2.3396 3.15992C2.22087 3.26068 2.23062 3.28798 2.2406 3.31592C2.2646 3.38092 2.3336 3.43492 2.3756 3.43492C2.5646 3.24692 2.9026 3.21692 3.0996 3.39392C3.2976 3.56992 3.3616 3.84592 3.1976 4.05392L1.5186 6.17692C1.42202 6.27648 1.43263 6.30301 1.4426 6.32792C1.4676 6.38892 1.5346 6.43492 1.5776 6.43492C1.6816 6.32692 1.8356 6.26692 1.9856 6.26692C2.1026 6.26692 2.2166 6.30292 2.3046 6.37892C2.5066 6.55292 2.5736 6.83092 2.4096 7.04092L1.0766 8.74492Z" fill="black"/>
</g>
<defs>
<clipPath id="clip0_344_13337">
<rect width="24" height="24" fill="white"/>
</clipPath>
</defs>
</svg>
