<svg width="24" height="24" viewBox="0 0 24 24" fill="none" xmlns="http://www.w3.org/2000/svg">
<g clip-path="url(#clip0_344_13328)">
<path fill-rule="evenodd" clip-rule="evenodd" d="M5.022 0.354952C5.15 -0.0670478 5.851 -0.0670478 5.979 0.354952L10.979 16.855C10.993 16.902 11 16.951 11 17C11 18.103 10.103 19 9 19H6V23.5C6 23.776 5.776 24 5.5 24C5.224 24 5 23.776 5 23.5V19H2C0.897 19 0 18.103 0 17C0 16.951 0.007 16.902 0.022 16.856L1.07 13.397V13.396L5.022 0.354952ZM4.301 10.982C3.934 10.666 3.469 10.509 2.989 10.51L2.23 13.016C3.114 13.067 3.963 13.4 4.639 13.994C4.7436 14.0869 4.83259 14.1913 4.92179 14.2959C4.94772 14.3264 4.97366 14.3568 5 14.387V12.5C5 11.916 4.746 11.362 4.301 10.982ZM6.696 10.983C6.254 11.364 6 11.917 6 12.5V14.387C6.02532 14.3577 6.0503 14.3281 6.07529 14.2985C6.16377 14.1938 6.25228 14.089 6.356 13.997C7.032 13.403 7.882 13.069 8.77 13.017L8.01 10.509C7.532 10.507 7.064 10.666 6.696 10.983ZM7.711 9.52195L5.5 2.22395L3.288 9.52295C3.897 9.58195 4.48 9.81595 4.953 10.222C4.96207 10.23 4.96962 10.2388 4.97706 10.2475C4.98437 10.2561 4.99157 10.2645 5 10.272V7.49995C5 7.22395 5.224 6.99995 5.5 6.99995C5.776 6.99995 6 7.22395 6 7.49995V10.273C6.00857 10.2654 6.01561 10.2571 6.02254 10.2489C6.02935 10.2408 6.03607 10.2329 6.044 10.226C6.518 9.81895 7.102 9.58195 7.711 9.52195ZM1.002 17.066C1.037 17.587 1.471 18 2 18H5V17C5 16.137 4.628 15.315 3.979 14.745C3.409 14.245 2.675 13.996 1.926 14.017L1.002 17.066ZM6 18H9C9.529 18 9.963 17.587 9.998 17.067L9.074 14.018C8.323 14 7.587 14.248 7.018 14.748C6.371 15.317 6 16.139 6 17V18Z" fill="black"/>
<path fill-rule="evenodd" clip-rule="evenodd" d="M11 10.5C11 13.9216 13.6438 16.7257 17 16.9811V23.5C17 23.7761 17.2239 24 17.5 24C17.7761 24 18 23.7761 18 23.5V16.9811C21.3562 16.7257 24 13.9216 24 10.5C24 6.91015 21.0899 4 17.5 4C13.9101 4 11 6.91015 11 10.5ZM17.5511 8.00258C17.5343 8.00087 17.5173 8 17.5 8C17.4659 8 17.4326 8.00341 17.4004 8.00991C17.2046 8.04948 17.0502 8.20354 17.0102 8.39923C17.0035 8.43178 17 8.46548 17 8.5V10.78C16.468 10.301 15.771 10 15 10C14.724 10 14.5 10.224 14.5 10.5C14.5 10.776 14.724 11 15 11C16.103 11 17 11.897 17 13V15.9776C14.1967 15.725 12 13.369 12 10.5C12 7.46243 14.4624 5 17.5 5C20.5376 5 23 7.46243 23 10.5C23 13.369 20.8033 15.725 18 15.9776V15.5C18 14.158 18.924 12.858 20.148 12.478C20.412 12.396 20.559 12.116 20.477 11.852C20.395 11.589 20.117 11.441 19.851 11.523C19.1215 11.7508 18.4889 12.2104 18 12.7998V8.5C18 8.24112 17.8033 8.02819 17.5511 8.00258Z" fill="black"/>
</g>
<defs>
<clipPath id="clip0_344_13328">
<rect width="24" height="24" fill="white"/>
</clipPath>
</defs>
</svg>
