<svg width="24" height="24" viewBox="0 0 24 24" fill="none" xmlns="http://www.w3.org/2000/svg">
<path fill-rule="evenodd" clip-rule="evenodd" d="M4 1.5C4 0.673 4.673 0 5.5 0C6.327 0 7 0.673 7 1.5V23.5C7 23.776 6.776 24 6.5 24H0.5C0.224 24 0 23.776 0 23.5C0 23.224 0.224 23 0.5 23H4V19H1.5C1.224 19 1 18.776 1 18.5C1 18.224 1.224 18 1.5 18H4V1.5ZM5 1.5V23H6V1.5C6 1.224 5.775 1 5.5 1C5.225 1 5 1.224 5 1.5Z" fill="black"/>
<path fill-rule="evenodd" clip-rule="evenodd" d="M22 15.191L23.724 16.053C23.893 16.138 24 16.311 24 16.5V21.5C24 21.776 23.776 22 23.5 22H22.948C22.716 23.14 21.707 24 20.499 24C19.291 24 18.282 23.14 18.05 22H16.648C16.085 23.179 14.89 24 13.5 24C12.11 24 10.915 23.179 10.352 22H8.5C8.224 22 8 21.776 8 21.5V16.5C8 11.262 12.262 7 17.5 7H19.5C20.879 7 22 8.122 22 9.5V15.191ZM9 18.207V21H10.051L10.0479 20.9798C10.0239 20.8216 10 20.664 10 20.5C10 18.639 11.464 17.127 13.299 17.021L15.688 15.11C15.776 15.039 15.887 15 16 15H17.499L18.515 10.881C18.58 10.613 18.843 10.447 19.12 10.515C19.387 10.581 19.551 10.852 19.485 11.12L18.528 15H21V9.5C21 8.673 20.327 8 19.5 8H17.5C12.813 8 9 11.813 9 16.5V16.793L12.293 13.499L12.147 13.353C11.952 13.158 11.952 12.841 12.147 12.646C12.342 12.451 12.659 12.451 12.854 12.646L13.854 13.646C14.049 13.841 14.049 14.158 13.854 14.353C13.756 14.45 13.628 14.499 13.5 14.499C13.372 14.499 13.244 14.451 13.146 14.353L13 14.207L9 18.207ZM11 20.5C11 21.878 12.121 23 13.5 23C14.879 23 16 21.878 16 20.5C16 19.122 14.879 18 13.5 18C12.121 18 11 19.122 11 20.5ZM19 21.5C19 22.327 19.673 23 20.5 23C21.327 23 22 22.327 22 21.5C22 20.673 21.327 20 20.5 20C19.673 20 19 20.673 19 21.5ZM22.949 21H23V16.809L21.382 16H16.176L14.66 17.213C16.019 17.694 17 18.979 17 20.5C17 20.664 16.9761 20.8216 16.9521 20.9798L16.949 21H18.051C18.283 19.86 19.292 19 20.5 19C21.708 19 22.717 19.86 22.949 21Z" fill="black"/>
</svg>
