<svg width="24" height="24" viewBox="0 0 24 24" fill="none" xmlns="http://www.w3.org/2000/svg">
<path fill-rule="evenodd" clip-rule="evenodd" d="M11.5 0C12.327 0 13 0.673 13 1.5C13 2.327 12.327 3 11.5 3C10.673 3 10 2.327 10 1.5C10 0.673 10.673 0 11.5 0ZM11 1.5C11 1.776 11.225 2 11.5 2C11.775 2 12 1.776 12 1.5C12 1.224 11.775 1 11.5 1C11.225 1 11 1.224 11 1.5Z" fill="black"/>
<path fill-rule="evenodd" clip-rule="evenodd" d="M11.5 3H9.50002C7.74102 3 6.29602 4.309 6.05102 6H4.00002C3.79802 6 3.61502 6.122 3.53802 6.309C3.46102 6.496 3.50402 6.71 3.64602 6.854L6.00002 9.207V21.5C6.00002 21.776 6.22402 22 6.50002 22H7.50002L6.60002 23.2C6.43502 23.421 6.48002 23.734 6.70103 23.9C6.79003 23.967 6.89602 24 7.00002 24C7.15102 24 7.30202 23.932 7.40002 23.8L8.75002 22H14.25L15.6 23.8C15.699 23.932 15.849 24 16 24C16.104 24 16.21 23.967 16.3 23.9C16.521 23.734 16.566 23.421 16.401 23.2L15.5 22H16.5C16.776 22 17 21.776 17 21.5V19H17.5C20.532 19 23 16.533 23 13.5C23 10.467 20.532 8 17.5 8H17V6.5C17 4.57 15.43 3 13.5 3H11.5ZM15.95 6C15.718 4.86 14.707 4 13.5 4H9.50002C8.29303 4 7.28202 4.86 7.05002 6H15.95ZM9.00002 7V9H14V7H9.00002ZM5.20702 7L6.85402 8.646C6.94702 8.74 7.00002 8.867 7.00002 9V19H16V7H15V9.5C15 9.776 14.776 10 14.5 10H12V17H15C15.276 17 15.5 17.224 15.5 17.5C15.5 17.776 15.276 18 15 18H8.00002C7.72402 18 7.50002 17.776 7.50002 17.5C7.50002 17.224 7.72402 17 8.00002 17H11V10H8.50002C8.22402 10 8.00002 9.776 8.00002 9.5V7H5.20702ZM7.00002 20V21H16V20H7.00002ZM17 18H17.5C19.981 18 22 15.981 22 13.5C22 11.019 19.981 9 17.5 9H17V18Z" fill="black"/>
</svg>
