<svg width="24" height="24" viewBox="0 0 24 24" fill="none" xmlns="http://www.w3.org/2000/svg">
<path fill-rule="evenodd" clip-rule="evenodd" d="M6 2.5V8.5C6 9.879 7.121 11 8.5 11H16.5C17.879 11 19 9.879 19 8.5V4.5C19 4.224 18.776 4 18.5 4H7V2.5C7 1.121 5.879 0 4.5 0H0.5C0.224 0 0 0.224 0 0.5C0 0.776 0.224 1 0.5 1H4.5C5.327 1 6 1.673 6 2.5ZM7 8.5V5H9V10H8.5C7.673 10 7 9.327 7 8.5ZM12 10H10V5H12V10ZM13 5H15V10H13V5ZM18 8.5C18 9.327 17.327 10 16.5 10H16V5H18V8.5Z" fill="black"/>
<path d="M10 16.5C10 16.776 9.776 17 9.5 17C9.224 17 9 16.776 9 16.5V15.5C9 15.224 9.224 15 9.5 15H15.5C15.776 15 16 15.224 16 15.5V16.5C16 16.776 15.776 17 15.5 17C15.224 17 15 16.776 15 16.5V16H10V16.5Z" fill="black"/>
<path fill-rule="evenodd" clip-rule="evenodd" d="M20.5 12H4.5C4.224 12 4 12.224 4 12.5V20.5C4 21.708 4.86 22.717 6 22.949V23.5C6 23.776 6.224 24 6.5 24C6.776 24 7 23.776 7 23.5V23H18V23.5C18 23.776 18.224 24 18.5 24C18.776 24 19 23.776 19 23.5V22.949C20.14 22.717 21 21.708 21 20.5V12.5C21 12.224 20.776 12 20.5 12ZM20 20.5C20 21.327 19.327 22 18.5 22H6.5C5.673 22 5 21.327 5 20.5V13H20V20.5Z" fill="black"/>
</svg>
