<svg width="24" height="24" viewBox="0 0 24 24" fill="none" xmlns="http://www.w3.org/2000/svg">
<path d="M18.5 11.5C18.233 11.5 17.981 11.395 17.793 11.207C17.403 10.817 17.403 10.183 17.793 9.793C18.17 9.416 18.83 9.416 19.207 9.793C19.597 10.183 19.597 10.817 19.207 11.207C19.019 11.396 18.767 11.5 18.5 11.5Z" fill="black"/>
<path d="M21.207 11.793C20.83 11.416 20.17 11.416 19.793 11.793C19.403 12.183 19.403 12.817 19.793 13.207C19.981 13.395 20.233 13.5 20.5 13.5C20.767 13.5 21.019 13.396 21.207 13.207C21.597 12.817 21.597 12.183 21.207 11.793Z" fill="black"/>
<path d="M15.5 12.502C15.499 12.234 15.604 11.982 15.793 11.793C16.168 11.417 16.827 11.415 17.206 11.792C17.597 12.183 17.597 12.817 17.207 13.207C17.019 13.396 16.767 13.5 16.5 13.5C16.233 13.5 15.981 13.395 15.793 13.207C15.604 13.02 15.5 12.769 15.5 12.502Z" fill="black"/>
<path d="M18.5 15.5C18.767 15.5 19.019 15.396 19.207 15.207C19.597 14.817 19.597 14.183 19.207 13.793C18.83 13.416 18.17 13.416 17.793 13.793C17.403 14.183 17.403 14.817 17.793 15.207C17.981 15.395 18.233 15.5 18.5 15.5Z" fill="black"/>
<path d="M6 12H7.5C7.776 12 8 12.224 8 12.5C8 12.776 7.776 13 7.5 13H6V14.5C6 14.776 5.776 15 5.5 15C5.224 15 5 14.776 5 14.5V13H3.5C3.224 13 3 12.776 3 12.5C3 12.224 3.224 12 3.5 12H5V10.5C5 10.224 5.224 10 5.5 10C5.776 10 6 10.224 6 10.5V12Z" fill="black"/>
<path d="M11 14H10C9.724 14 9.5 14.224 9.5 14.5C9.5 14.776 9.724 15 10 15H11C11.276 15 11.5 14.776 11.5 14.5C11.5 14.224 11.276 14 11 14Z" fill="black"/>
<path d="M12.5 14.5C12.5 14.224 12.724 14 13 14H14C14.276 14 14.5 14.224 14.5 14.5C14.5 14.776 14.276 15 14 15H13C12.724 15 12.5 14.776 12.5 14.5Z" fill="black"/>
<path fill-rule="evenodd" clip-rule="evenodd" d="M14 7H19.5C21.981 7 24 9.019 24 11.5V21.5C24 22.879 22.879 24 21.5 24C20.1589 24 19.9742 23.6634 18.7723 21.4722L18.7523 21.4358C18.2195 20.4661 17.4295 19.0285 16.218 17H7.784C6.565 19.039 5.764 20.483 5.228 21.45C3.947 23.759 3.813 24 2.5 24C1.121 24 0 22.879 0 21.5V11.5C0 9.019 2.019 7 4.5 7H9V5.5C9 5.224 9.224 5 9.5 5H11V3C11 1.897 10.103 1 9 1H4.5C4.224 1 4 0.776 4 0.5C4 0.224 4.224 0 4.5 0H9C10.654 0 12 1.346 12 3V5H13.5C13.776 5 14 5.224 14 5.5V7ZM13 6H10V7H13V6ZM21.5 23C22.327 23 23 22.327 23 21.5V11.5C23 9.57 21.43 8 19.5 8H4.5C2.57 8 1 9.57 1 11.5V21.5C1 22.327 1.673 23 2.5 23C3.225 23 3.225 23 4.352 20.966L4.38671 20.9035C4.94871 19.8914 5.78769 18.3805 7.071 16.243C7.161 16.092 7.324 16 7.5 16H16.5C16.676 16 16.839 16.092 16.929 16.243C18.2437 18.4325 19.0838 19.9634 19.6408 20.9784L19.645 20.986C20.429 22.415 20.6568 22.8301 20.9908 22.9506C21.1276 23 21.2821 23 21.5 23Z" fill="black"/>
</svg>
