<svg width="24" height="24" viewBox="0 0 24 24" fill="none" xmlns="http://www.w3.org/2000/svg">
<path fill-rule="evenodd" clip-rule="evenodd" d="M18 10.5V4.5C18 3.673 17.327 3 16.5 3H7.5C6.673 3 6 3.673 6 4.5V10.5C6 11.327 6.673 12 7.5 12H16.5C17.327 12 18 11.327 18 10.5ZM17 10.5C17 10.775 16.775 11 16.5 11H7.5C7.225 11 7 10.775 7 10.5V4.5C7 4.229 7.229 4 7.5 4H16.5C16.775 4 17 4.225 17 4.5V10.5Z" fill="black"/>
<path d="M19 15C19 15.5523 18.5523 16 18 16C17.4477 16 17 15.5523 17 15C17 14.4477 17.4477 14 18 14C18.5523 14 19 14.4477 19 15Z" fill="black"/>
<path d="M15 17.5C15.5523 17.5 16 17.0523 16 16.5C16 15.9477 15.5523 15.5 15 15.5C14.4477 15.5 14 15.9477 14 16.5C14 17.0523 14.4477 17.5 15 17.5Z" fill="black"/>
<path d="M10 16.5C10 16.776 9.776 17 9.5 17H8V18.5C8 18.776 7.776 19 7.5 19C7.224 19 7 18.776 7 18.5V17H5.5C5.224 17 5 16.776 5 16.5C5 16.224 5.224 16 5.5 16H7V14.5C7 14.224 7.224 14 7.5 14C7.776 14 8 14.224 8 14.5V16H9.5C9.776 16 10 16.224 10 16.5Z" fill="black"/>
<path d="M13.276 20.053L12.276 20.553C12.029 20.677 11.929 20.977 12.052 21.224C12.14 21.399 12.317 21.5 12.499 21.5C12.574 21.5 12.65 21.483 12.723 21.447L13.723 20.947C13.97 20.823 14.07 20.523 13.947 20.276C13.823 20.029 13.524 19.93 13.276 20.053Z" fill="black"/>
<path d="M9.276 20.553L10.276 20.053C10.524 19.93 10.823 20.029 10.948 20.276C11.071 20.523 10.971 20.823 10.724 20.947L9.724 21.447C9.651 21.483 9.575 21.5 9.5 21.5C9.317 21.5 9.141 21.398 9.052 21.224C8.929 20.977 9.029 20.677 9.276 20.553Z" fill="black"/>
<path fill-rule="evenodd" clip-rule="evenodd" d="M18.5 0H5.5C4.121 0 3 1.121 3 2.5V21.5C3 22.879 4.121 24 5.5 24H15.5C16.737 24 18.393 23.314 19.27 22.438L19.44 22.267C20.314 21.394 21 19.738 21 18.5V2.5C21 1.121 19.879 0 18.5 0ZM20 18.5C20 19.473 19.42 20.874 18.731 21.562L18.561 21.733C17.874 22.419 16.472 23 15.5 23H5.5C4.673 23 4 22.327 4 21.5V2.5C4 1.673 4.673 1 5.5 1H18.5C19.327 1 20 1.673 20 2.5V18.5Z" fill="black"/>
</svg>
