<svg width="24" height="24" viewBox="0 0 24 24" fill="none" xmlns="http://www.w3.org/2000/svg">
<path d="M9.81235 17.6096C9.59672 17.4371 9.28207 17.472 9.10957 17.6877C8.93706 17.9033 8.97202 18.2179 9.18765 18.3904L11.6877 20.3904C11.8703 20.5365 12.1297 20.5365 12.3123 20.3904L14.8123 18.3904C15.028 18.2179 15.0629 17.9033 14.8904 17.6877C14.7179 17.472 14.4033 17.4371 14.1877 17.6096L12 19.3597L9.81235 17.6096Z" fill="black"/>
<path fill-rule="evenodd" clip-rule="evenodd" d="M12.1643 1.02775C12.0579 0.990749 11.9421 0.990749 11.8357 1.02775L0.33574 5.02775C0.134725 5.09767 0 5.28717 0 5.5V7.5C0 7.77614 0.223858 8 0.5 8H1V23H0.5C0.223858 23 0 23.2239 0 23.5C0 23.7761 0.223858 24 0.5 24H23.5C23.7761 24 24 23.7761 24 23.5C24 23.2239 23.7761 23 23.5 23H23V8H23.5C23.7761 8 24 7.77614 24 7.5V5.5C24 5.28717 23.8653 5.09767 23.6643 5.02775L12.1643 1.02775ZM5 12H19V14H12.5V13.5C12.5 13.2239 12.2761 13 12 13C11.7239 13 11.5 13.2239 11.5 13.5V14H5V12ZM5 15V23H19V15H5ZM20 11.5V23H22V8H2V23H4V11.5C4 11.2239 4.22386 11 4.5 11H19.5C19.7761 11 20 11.2239 20 11.5ZM23 7V5.85547L12 2.02938L1 5.85547V7H23Z" fill="black"/>
</svg>
