<svg width="24" height="24" viewBox="0 0 24 24" fill="none" xmlns="http://www.w3.org/2000/svg">
<g clip-path="url(#clip0_344_13287)">
<path d="M12.3369 0.131006L23.8369 10.631C24.0409 10.817 24.0559 11.133 23.8689 11.337C23.7709 11.445 23.6349 11.5 23.4999 11.5C23.3789 11.5 23.2589 11.457 23.1629 11.369L11.9999 1.17701L0.83691 11.369C0.63391 11.556 0.31791 11.542 0.13091 11.337C-0.0560898 11.133 -0.0410898 10.817 0.16291 10.631L11.6629 0.131006C11.8539 -0.0439941 12.1469 -0.0439941 12.3369 0.131006Z" fill="black"/>
<path fill-rule="evenodd" clip-rule="evenodd" d="M17.9639 10.314L19.9259 15.219L21.8539 17.146C21.9469 17.24 21.9999 17.367 21.9999 17.5V21.5C21.9999 21.776 21.7759 22 21.4999 22H20.9999V23.5C20.9999 23.776 20.7759 24 20.4999 24H17.4999C17.2239 24 16.9999 23.776 16.9999 23.5V22H6.99991V23.5C6.99991 23.776 6.77591 24 6.49991 24H3.49991C3.22391 24 2.99991 23.776 2.99991 23.5V22H2.49991C2.22391 22 1.99991 21.776 1.99991 21.5V17.5C1.99991 17.367 2.05291 17.24 2.14691 17.146L4.07391 15.219L6.03591 10.314C6.11191 10.125 6.29491 10 6.49991 10H17.4999C17.7049 10 17.8879 10.125 17.9639 10.314ZM17.1609 11H6.83791L5.23791 15H18.7609L17.1609 11ZM3.99991 23H5.99991V22H3.99991V23ZM17.9999 23H19.9999V22H17.9999V23ZM20.9999 21V20H16.9999C16.7239 20 16.4999 19.776 16.4999 19.5C16.4999 19.224 16.7239 19 16.9999 19H20.9999V17.707L19.2929 16H4.70691L2.99991 17.707V19H6.99991C7.27591 19 7.49991 19.224 7.49991 19.5C7.49991 19.776 7.27591 20 6.99991 20H2.99991V21H20.9999Z" fill="black"/>
</g>
<defs>
<clipPath id="clip0_344_13287">
<rect width="24" height="24" fill="white"/>
</clipPath>
</defs>
</svg>
