<svg width="24" height="24" viewBox="0 0 24 24" fill="none" xmlns="http://www.w3.org/2000/svg">
<path d="M9.10957 16.8123C9.28207 17.028 9.59672 17.0629 9.81235 16.8904L12 15.1403L14.1877 16.8904C14.4033 17.0629 14.7179 17.028 14.8904 16.8123C15.0629 16.5967 15.028 16.2821 14.8123 16.1096L12.3123 14.1096C12.1297 13.9635 11.8703 13.9635 11.6877 14.1096L9.18765 16.1096C8.97202 16.2821 8.93706 16.5967 9.10957 16.8123Z" fill="black"/>
<path d="M9.81235 18.1096C9.59672 17.9371 9.28207 17.972 9.10957 18.1877C8.93706 18.4033 8.97202 18.7179 9.18765 18.8904L11.6877 20.8904C11.8703 21.0365 12.1297 21.0365 12.3123 20.8904L14.8123 18.8904C15.028 18.7179 15.0629 18.4033 14.8904 18.1877C14.7179 17.972 14.4033 17.9371 14.1877 18.1096L12 19.8597L9.81235 18.1096Z" fill="black"/>
<path fill-rule="evenodd" clip-rule="evenodd" d="M11.8357 1.02775C11.9421 0.990749 12.0579 0.990749 12.1643 1.02775L23.6643 5.02775C23.8653 5.09767 24 5.28717 24 5.5V7.5C24 7.77614 23.7761 8 23.5 8H23V23H23.5C23.7761 23 24 23.2239 24 23.5C24 23.7761 23.7761 24 23.5 24H0.5C0.223858 24 0 23.7761 0 23.5C0 23.2239 0.223858 23 0.5 23H1V8H0.5C0.223858 8 0 7.77614 0 7.5V5.5C0 5.28717 0.134725 5.09767 0.33574 5.02775L11.8357 1.02775ZM19 23V12H5V23H19ZM20 23V11.5C20 11.2239 19.7761 11 19.5 11H4.5C4.22386 11 4 11.2239 4 11.5V23H2V8H22V23H20ZM23 7H1V5.85547L12 2.02938L23 5.85547V7Z" fill="black"/>
</svg>
