<svg width="24" height="24" viewBox="0 0 24 24" fill="none" xmlns="http://www.w3.org/2000/svg">
<path fill-rule="evenodd" clip-rule="evenodd" d="M16.032 0.095989C18.51 0.665989 20.379 3.04199 20.379 5.62099C20.379 7.48399 18.863 8.99999 17 8.99999C15.137 8.99999 13.621 7.48399 13.622 5.62099C13.622 4.25699 14.392 3.16999 15.737 2.63799C15.879 2.58199 16.044 2.59499 16.177 2.67399C16.311 2.75399 16.398 2.89099 16.417 3.04599C16.424 3.10399 16.437 3.15899 16.458 3.21299C16.56 2.49899 16.38 1.54199 15.624 0.984989C15.433 0.844989 15.366 0.589989 15.466 0.373989C15.564 0.159989 15.797 0.0399891 16.032 0.095989ZM14.621 5.62099C14.621 6.93299 15.688 7.99999 17 7.99999C18.312 7.99999 19.379 6.93299 19.379 5.62099C19.379 4.06299 18.555 2.59699 17.315 1.73999C17.629 2.73699 17.474 3.82599 17.058 4.45699C16.981 4.57499 16.856 4.65499 16.716 4.67599C16.577 4.69899 16.434 4.65999 16.324 4.56899C16.071 4.36299 15.811 4.11799 15.633 3.80299C14.976 4.21399 14.621 4.84499 14.621 5.62099Z" fill="black"/>
<path d="M9 18H15C15.276 18 15.5 18.224 15.5 18.5C15.5 18.776 15.276 19 15 19H9C8.724 19 8.5 18.776 8.5 18.5C8.5 18.224 8.724 18 9 18Z" fill="black"/>
<path fill-rule="evenodd" clip-rule="evenodd" d="M7 12.5C6.173 12.5 5.5 13.173 5.5 14C5.5 14.827 6.173 15.5 7 15.5C7.827 15.5 8.5 14.827 8.5 14C8.5 13.173 7.827 12.5 7 12.5ZM7 14.5C6.725 14.5 6.5 14.275 6.5 14C6.5 13.725 6.725 13.5 7 13.5C7.275 13.5 7.5 13.725 7.5 14C7.5 14.275 7.275 14.5 7 14.5Z" fill="black"/>
<path fill-rule="evenodd" clip-rule="evenodd" d="M15.5 14C15.5 13.173 16.173 12.5 17 12.5C17.827 12.5 18.5 13.173 18.5 14C18.5 14.827 17.827 15.5 17 15.5C16.173 15.5 15.5 14.827 15.5 14ZM16.5 14C16.5 14.275 16.725 14.5 17 14.5C17.275 14.5 17.5 14.275 17.5 14C17.5 13.725 17.275 13.5 17 13.5C16.725 13.5 16.5 13.725 16.5 14Z" fill="black"/>
<path fill-rule="evenodd" clip-rule="evenodd" d="M7 8.99999H10.5C10.776 8.99999 11 9.22399 11 9.49999V11H13V9.49999C13 9.22399 13.224 8.99999 13.5 8.99999H17H20.5C20.776 8.99999 21 9.22399 21 9.49999V11H23.5C23.776 11 24 11.224 24 11.5V23.5C24 23.776 23.776 24 23.5 24H0.5C0.224 24 0 23.776 0 23.5V11.5C0 11.224 0.224 11 0.5 11H3V9.49999C3 9.22399 3.224 8.99999 3.5 8.99999H7ZM20 11V9.99999H14V11H20ZM10 9.99999H4V11H10V9.99999ZM6 17V23H18V17H6ZM19 23H23V12H1V23H5V16.5C5 16.224 5.224 16 5.5 16H18.5C18.776 16 19 16.224 19 16.5V23Z" fill="black"/>
<path fill-rule="evenodd" clip-rule="evenodd" d="M7 8.99999C8.863 8.99999 10.379 7.48399 10.379 5.62099C10.379 3.04199 8.51 0.665989 6.032 0.095989C5.796 0.0399891 5.564 0.159989 5.466 0.373989C5.366 0.589989 5.433 0.844989 5.624 0.984989C6.38 1.54199 6.56 2.49899 6.458 3.21299C6.438 3.15899 6.424 3.10399 6.417 3.04599C6.398 2.89099 6.311 2.75399 6.177 2.67399C6.045 2.59499 5.879 2.58199 5.737 2.63799C4.392 3.16999 3.621 4.25699 3.621 5.62099C3.621 7.48399 5.137 8.99999 7 8.99999ZM7 7.99999C5.688 7.99999 4.621 6.93299 4.621 5.62099C4.621 4.84499 4.976 4.21399 5.633 3.80299C5.811 4.11799 6.071 4.36299 6.324 4.56899C6.434 4.65999 6.576 4.69899 6.716 4.67599C6.856 4.65499 6.981 4.57499 7.058 4.45699C7.474 3.82599 7.629 2.73699 7.315 1.73999C8.555 2.59699 9.379 4.06299 9.379 5.62099C9.379 6.93299 8.312 7.99999 7 7.99999Z" fill="black"/>
</svg>
