<svg width="24" height="24" viewBox="0 0 24 24" fill="none" xmlns="http://www.w3.org/2000/svg">
<path fill-rule="evenodd" clip-rule="evenodd" d="M2 1.5C2 1.22386 1.77614 1 1.5 1C1.22386 1 1 1.22386 1 1.5V23H0.5C0.223858 23 0 23.2239 0 23.5C0 23.7761 0.223858 24 0.5 24H23.5C23.7761 24 24 23.7761 24 23.5C24 23.2239 23.7761 23 23.5 23H23V1.5C23 1.22386 22.7761 1 22.5 1C22.2239 1 22 1.22386 22 1.5V3H17.5C17.2239 3 17 3.22386 17 3.5V23H7V3.5C7 3.22386 6.77614 3 6.5 3H2V1.5ZM18 14H19.5C19.7761 14 20 13.7761 20 13.5C20 13.2239 19.7761 13 19.5 13H18V10H22V17H18V14ZM22 18V23H18V18H22ZM22 9H18V4H22V9ZM4.5 13H6V10H2V17H6V14H4.5C4.22386 14 4 13.7761 4 13.5C4 13.2239 4.22386 13 4.5 13ZM6 4H2V9H6V4ZM2 18V23H6V18H2Z" fill="black"/>
</svg>
