<svg width="24" height="24" viewBox="0 0 24 24" fill="none" xmlns="http://www.w3.org/2000/svg">
<path fill-rule="evenodd" clip-rule="evenodd" d="M22.5 1C22.2239 1 22 1.22386 22 1.5V3H16.5C16.2239 3 16 3.22386 16 3.5V23H2V1.5C2 1.22386 1.77614 1 1.5 1C1.22386 1 1 1.22386 1 1.5V23H0.5C0.223858 23 0 23.2239 0 23.5C0 23.7761 0.223858 24 0.5 24H23.5C23.7761 24 24 23.7761 24 23.5C24 23.2239 23.7761 23 23.5 23H23V1.5C23 1.22386 22.7761 1 22.5 1ZM17 13H18.5C18.7761 13 19 13.2239 19 13.5C19 13.7761 18.7761 14 18.5 14H17V17H22V10H17V13ZM22 4H17V9H22V4ZM22 23V18H17V23H22Z" fill="black"/>
</svg>
