<svg width="24" height="24" viewBox="0 0 24 24" fill="none" xmlns="http://www.w3.org/2000/svg">
<path fill-rule="evenodd" clip-rule="evenodd" d="M2 3.5C2 3.22386 1.77614 3 1.5 3C1.22386 3 1 3.22386 1 3.5V23H0.5C0.223858 23 0 23.2239 0 23.5C0 23.7761 0.223858 24 0.5 24H23.5C23.7761 24 24 23.7761 24 23.5C24 23.2239 23.7761 23 23.5 23H23V3.5C23 3.22386 22.7761 3 22.5 3C22.2239 3 22 3.22386 22 3.5V5H2V3.5ZM22 18V15H15.5C15.2239 15 15 14.7761 15 14.5C15 14.2239 15.2239 14 15.5 14H22V11H12.5V14H13.5C13.7761 14 14 14.2239 14 14.5C14 14.7761 13.7761 15 13.5 15H12.5V18H22ZM12.5 19H22V23H12.5V19ZM11.5 18V15H10.5C10.2239 15 10 14.7761 10 14.5C10 14.2239 10.2239 14 10.5 14H11.5V11H2V14H8.5C8.77614 14 9 14.2239 9 14.5C9 14.7761 8.77614 15 8.5 15H2V18H11.5ZM2 19H11.5V23H2V19ZM22 10H12.5V6H22V10ZM2 6H11.5V10H2V6Z" fill="black"/>
</svg>
