<svg width="24" height="24" viewBox="0 0 24 24" fill="none" xmlns="http://www.w3.org/2000/svg">
<path fill-rule="evenodd" clip-rule="evenodd" d="M1.5 1C1.77614 1 2 1.22386 2 1.5V3H7.5C7.77614 3 8 3.22386 8 3.5V23H22V1.5C22 1.22386 22.2239 1 22.5 1C22.7761 1 23 1.22386 23 1.5V23H23.5C23.7761 23 24 23.2239 24 23.5C24 23.7761 23.7761 24 23.5 24H0.5C0.223858 24 0 23.7761 0 23.5C0 23.2239 0.223858 23 0.5 23H1V1.5C1 1.22386 1.22386 1 1.5 1ZM7 13H5.5C5.22386 13 5 13.2239 5 13.5C5 13.7761 5.22386 14 5.5 14H7V17H2V10H7V13ZM2 4H7V9H2V4ZM2 23V18H7V23H2Z" fill="black"/>
</svg>
