<svg width="24" height="24" viewBox="0 0 24 24" fill="none" xmlns="http://www.w3.org/2000/svg">
<path fill-rule="evenodd" clip-rule="evenodd" d="M22 3.5C22 3.22386 22.2239 3 22.5 3C22.7761 3 23 3.22386 23 3.5V23H23.5C23.7761 23 24 23.2239 24 23.5C24 23.7761 23.7761 24 23.5 24H0.5C0.223858 24 0 23.7761 0 23.5C0 23.2239 0.223858 23 0.5 23H1V3.5C1 3.22386 1.22386 3 1.5 3C1.77614 3 2 3.22386 2 3.5V5H22V3.5ZM2 18V15H3.5C3.77614 15 4 14.7761 4 14.5C4 14.2239 3.77614 14 3.5 14H2V11H22V14H5.5C5.22386 14 5 14.2239 5 14.5C5 14.7761 5.22386 15 5.5 15H22V18H2ZM22 19H2V23H22V19ZM22 6V10H2V6H22Z" fill="black"/>
</svg>
