<svg width="24" height="24" viewBox="0 0 24 24" fill="none" xmlns="http://www.w3.org/2000/svg">
<path fill-rule="evenodd" clip-rule="evenodd" d="M2 3.5C2 3.22386 1.77614 3 1.5 3C1.22386 3 1 3.22386 1 3.5V23H0.5C0.223858 23 0 23.2239 0 23.5C0 23.7761 0.223858 24 0.5 24H23.5C23.7761 24 24 23.7761 24 23.5C24 23.2239 23.7761 23 23.5 23H23V3.5C23 3.22386 22.7761 3 22.5 3C22.2239 3 22 3.22386 22 3.5V5H2V3.5ZM22 18V15H20.5C20.2239 15 20 14.7761 20 14.5C20 14.2239 20.2239 14 20.5 14H22V11H2V14H18.5C18.7761 14 19 14.2239 19 14.5C19 14.7761 18.7761 15 18.5 15H2V18H22ZM2 19H22V23H2V19ZM2 6V10H22V6H2Z" fill="black"/>
</svg>
