<svg width="24" height="24" viewBox="0 0 24 24" fill="none" xmlns="http://www.w3.org/2000/svg">
<path d="M12.5 8.5C12.5 8.776 12.276 9 12 9C11.724 9 11.5 8.776 11.5 8.5V6.5C11.5 6.224 11.724 6 12 6C12.276 6 12.5 6.224 12.5 6.5V8.5Z" fill="black"/>
<path d="M14.679 9.533C14.741 9.559 14.806 9.571 14.87 9.571C15.066 9.571 15.252 9.455 15.332 9.263L16.097 7.415C16.202 7.16 16.081 6.867 15.826 6.762C15.573 6.658 15.278 6.777 15.173 7.033L14.408 8.881C14.303 9.135 14.424 9.427 14.679 9.533Z" fill="black"/>
<path fill-rule="evenodd" clip-rule="evenodd" d="M17.657 9.636C17.852 9.441 18.169 9.441 18.364 9.636C18.56 9.832 18.56 10.148 18.364 10.344L13.717 14.991C13.892 15.288 14 15.63 14 16C14 17.103 13.103 18 12 18C10.897 18 10 17.103 10 16C10 14.897 10.897 14 12 14C12.37 14 12.712 14.107 13.009 14.283L17.657 9.636ZM11 16C11 16.551 11.449 17 12 17C12.551 17 13 16.551 13 16C13 15.449 12.551 15 12 15C11.449 15 11 15.449 11 16Z" fill="black"/>
<path d="M2.5 16H4.5C4.776 16 5 16.224 5 16.5C5 16.776 4.776 17 4.5 17H2.5C2.224 17 2 16.776 2 16.5C2 16.224 2.224 16 2.5 16Z" fill="black"/>
<path d="M19 16.5C19 16.776 19.224 17 19.5 17H21.5C21.776 17 22 16.776 22 16.5C22 16.224 21.776 16 21.5 16H19.5C19.224 16 19 16.224 19 16.5Z" fill="black"/>
<path d="M18.929 13.63C18.733 13.63 18.547 13.513 18.467 13.321C18.361 13.066 18.482 12.774 18.738 12.667L20.586 11.902C20.839 11.798 21.134 11.918 21.239 12.173C21.344 12.429 21.223 12.721 20.968 12.827L19.12 13.592C19.058 13.618 18.993 13.63 18.929 13.63Z" fill="black"/>
<path d="M8.827 7.032C8.721 6.776 8.429 6.657 8.174 6.761C7.919 6.867 7.798 7.159 7.903 7.415L8.668 9.263C8.748 9.455 8.934 9.571 9.13 9.571C9.194 9.571 9.259 9.559 9.321 9.533C9.576 9.428 9.697 9.135 9.592 8.88L8.827 7.032Z" fill="black"/>
<path d="M4.93 8.928C5.125 8.734 5.442 8.732 5.637 8.929L7.049 10.344C7.244 10.54 7.244 10.856 7.048 11.051C6.95 11.148 6.823 11.197 6.695 11.197C6.567 11.197 6.439 11.148 6.341 11.05L4.929 9.635C4.734 9.44 4.734 9.123 4.93 8.928Z" fill="black"/>
<path d="M5.262 12.668L3.415 11.903C3.162 11.799 2.867 11.919 2.762 12.174C2.657 12.429 2.778 12.722 3.033 12.828L4.88 13.593C4.942 13.618 5.007 13.631 5.071 13.631C5.267 13.631 5.453 13.515 5.533 13.322C5.638 13.066 5.517 12.774 5.262 12.668Z" fill="black"/>
<path fill-rule="evenodd" clip-rule="evenodd" d="M0 16C0 9.383 5.383 4 12 4C18.617 4 24 9.383 24 16V20.5C24 20.776 23.776 21 23.5 21H0.5C0.224 21 0 20.776 0 20.5V16ZM1 16V20H23V16C23 9.935 18.065 5 12 5C5.935 5 1 9.935 1 16Z" fill="black"/>
</svg>
