<svg width="24" height="24" viewBox="0 0 24 24" fill="none" xmlns="http://www.w3.org/2000/svg">
<path d="M4.1321 0.162C4.0371 0.266 3.9891 0.404 4.0021 0.544L6.0021 23.544C6.0241 23.802 6.2401 24 6.5001 24H17.5001C17.7601 24 17.9761 23.802 17.9981 23.544L19.9981 0.544C20.0111 0.404 19.9631 0.266 19.8681 0.162C19.7731 0.058 19.6411 0 19.5001 0H4.5001C4.3591 0 4.2271 0.059 4.1321 0.162ZM17.0421 23H6.9581L5.7401 9H18.2601L17.0421 23ZM18.9551 1L18.3471 8H5.6531L5.0451 1H18.9551Z" fill="black"/>
</svg>
