<svg width="24" height="24" viewBox="0 0 24 24" fill="none" xmlns="http://www.w3.org/2000/svg">
<path d="M20.929 4.011C20.889 3.942 20.838 3.88 20.77 3.836C19.345 2.307 17.534 1.144 15.484 0.52C15.471 0.518 15.459 0.513 15.445 0.51C14.353 0.182 13.198 0 12 0C5.383 0 0 5.383 0 12C0 18.617 5.383 24 12 24C18.617 24 24 18.617 24 12C24 8.931 22.832 6.135 20.929 4.011ZM19.947 4.416C19.787 5.035 19.248 6.71 17.927 7.472C16.155 7.126 14.451 8.094 14.083 8.543C13.846 8.832 13.928 9.089 13.974 9.186C14.04 9.326 14.213 9.443 14.379 9.484C14.546 9.672 14.839 10.422 15.015 11.122C15.037 11.209 15.082 11.29 15.146 11.354C15.631 11.839 16.323 11.753 16.775 11.62C16.839 12.155 16.08 13.003 15.334 13.778C14.779 14.356 14.5 14.645 14.5 15C14.5 15.415 14.804 15.679 15.026 15.873C15.101 15.937 15.231 16.044 15.243 16.023C15.243 16.023 15.227 16.065 15.146 16.146C14.498 16.794 13.846 17.024 13.841 17.025C13.638 17.094 13.5 17.285 13.5 17.5C13.5 18.808 12.683 19.48 11.071 19.5C10.734 19.25 10.02 17.868 10 17.5C10 17.368 10.1 17.167 10.197 16.974C10.339 16.69 10.5 16.368 10.5 16C10.5 15.438 9.879 14.696 9.495 14.292C9.464 13.674 9.287 13.221 8.958 12.91C8.394 12.378 7.551 12.426 6.736 12.472C6.496 12.486 6.248 12.5 6 12.5C5.021 12.5 5 11.06 5 11C5 10.969 5.024 7.905 7.098 7.491C8.545 7.201 8.97 7.471 9 7.5C9 7.633 9.053 7.76 9.146 7.854C10.04 8.748 11.396 8.433 12.485 8.179C12.881 8.087 13.254 8 13.5 8C13.749 8 13.96 7.817 13.995 7.571C14.184 6.244 14.274 4.564 13.623 4.095C13.381 3.92 13.073 3.906 12.776 4.053C12.414 4.235 12.075 4.265 11.85 4.139C11.598 3.999 11.519 3.689 11.497 3.453C11.437 2.81 13.445 1.934 15.334 1.519C17.112 2.087 18.689 3.098 19.947 4.416ZM12 23C5.935 23 1 18.066 1 12C1 5.935 5.935 1 12 1C12.425 1 12.842 1.03 13.254 1.077C11.888 1.57 10.394 2.378 10.502 3.546C10.564 4.217 10.871 4.738 11.365 5.013C11.841 5.278 12.45 5.279 13.063 5.021C13.15 5.377 13.147 6.193 13.055 7.039C12.806 7.077 12.537 7.14 12.26 7.205C11.42 7.4 10.477 7.619 9.951 7.23C9.895 7.069 9.786 6.895 9.604 6.746C9.093 6.326 8.209 6.249 6.902 6.51C4.033 7.083 4 10.84 4 11C4 11.865 4.418 13.5 6 13.5C6.267 13.5 6.534 13.485 6.793 13.471C7.424 13.434 8.02 13.4 8.271 13.637C8.423 13.78 8.5 14.071 8.5 14.5C8.5 14.632 8.553 14.76 8.646 14.854C9.07 15.278 9.478 15.829 9.5 16C9.5 16.132 9.4 16.333 9.303 16.526C9.161 16.81 9 17.132 9 17.5C9 18.007 10.025 20.5 11 20.5C13.09 20.5 14.343 19.535 14.486 17.835C14.812 17.677 15.335 17.372 15.853 16.854C16.119 16.588 16.249 16.308 16.239 16.021C16.224 15.589 15.911 15.317 15.682 15.119C15.642 15.084 15.592 15.04 15.554 15.014C15.671 14.87 15.887 14.646 16.054 14.472C16.993 13.495 18.566 11.86 17.353 10.647C17.2 10.494 16.969 10.458 16.776 10.553C16.567 10.658 16.15 10.772 15.938 10.698C15.692 9.769 15.435 9.234 15.205 8.924C15.752 8.612 16.822 8.221 17.879 8.486C17.993 8.516 18.117 8.501 18.224 8.448C19.642 7.739 20.371 6.291 20.718 5.319C22.143 7.172 23 9.486 23 12C23 18.066 18.065 23 12 23Z" fill="black"/>
</svg>
