<svg width="24" height="24" viewBox="0 0 24 24" fill="none" xmlns="http://www.w3.org/2000/svg">
<path d="M19.5 0H3.5C2.121 0 1 1.122 1 2.5V21.5C1 22.878 2.121 24 3.5 24H19.5C20.879 24 22 22.878 22 21.5V2.5C22 1.122 20.879 0 19.5 0ZM16 11H14.047L16 9.438V11ZM12.795 12H16V15H12V12.636L12.795 12ZM11 15H7V10.794L11 12.71V15ZM6 15H2.631L6 11.294V15ZM2 16H6V19H2V16ZM7 16H11V19H7V16ZM11 20V23H7V20H11ZM12 20H16V23H12V20ZM12 19V16H16V19H12ZM17 16H21V19H17V16ZM17 15V12H21V15H17ZM17 11V8.778L21 7.659V11H17ZM3.5 1H19.5C20.327 1 21 1.673 21 2.5V6.621L16.365 7.917C16.301 7.935 16.24 7.966 16.187 8.008L11.432 11.809L6.715 9.549C6.515 9.454 6.279 9.5 6.13 9.664L2 14.207V2.5C2 1.673 2.673 1 3.5 1ZM2 21.5V20H6V23H3.5C2.673 23 2 22.327 2 21.5ZM19.5 23H17V20H21V21.5C21 22.327 20.327 23 19.5 23Z" fill="black"/>
</svg>
