<svg width="24" height="24" viewBox="0 0 24 24" fill="none" xmlns="http://www.w3.org/2000/svg">
<path d="M23.5 22H23V1.5C23 1.224 22.776 1 22.5 1H19.5C19.224 1 19 1.224 19 1.5V22H17V8.5C17 8.224 16.776 8 16.5 8H13.5C13.224 8 13 8.224 13 8.5V22H11V6.5C11 6.224 10.776 6 10.5 6H7.5C7.224 6 7 6.224 7 6.5V22H5V11.5C5 11.224 4.776 11 4.5 11H1.5C1.224 11 1 11.224 1 11.5V22H0.5C0.224 22 0 22.224 0 22.5C0 22.776 0.224 23 0.5 23H23.5C23.776 23 24 22.776 24 22.5C24 22.224 23.776 22 23.5 22ZM20 2H22V22H20V2ZM14 9H16V22H14V9ZM8 7H10V22H8V7ZM2 12H4V22H2V12Z" fill="black"/>
</svg>
