<svg width="24" height="24" viewBox="0 0 24 24" fill="none" xmlns="http://www.w3.org/2000/svg">
<path d="M17.5 5.5V5C18.603 5 19.5 4.103 19.5 3C19.5 1.897 18.603 1 17.5 1H6.5C5.397 1 4.5 1.897 4.5 3C4.5 4.103 5.397 5 6.5 5V5.5C6.5 6.327 7.173 7 8 7H8.397L5.509 23.408C5.458 23.679 5.637 23.941 5.908 23.991C5.939 23.998 5.97 24 6.001 24C6.236 24 6.446 23.833 6.491 23.593L6.978 21H11.5V23.5C11.5 23.776 11.724 24 12 24C12.276 24 12.5 23.776 12.5 23.5V21H17.022L17.508 23.593C17.553 23.833 17.763 24 17.998 24C18.029 24 18.06 23.998 18.091 23.991C18.362 23.94 18.541 23.679 18.49 23.408L15.603 7H16C16.827 7 17.5 6.327 17.5 5.5ZM5.5 3C5.5 2.449 5.948 2 6.5 2H17.5C18.052 2 18.5 2.449 18.5 3C18.5 3.551 18.052 4 17.5 4H6.5C5.948 4 5.5 3.551 5.5 3ZM7.5 5.5V5H16.5V5.5C16.5 5.776 16.275 6 16 6H8C7.725 6 7.5 5.776 7.5 5.5ZM11.5 7V18H7.54L9.415 7H11.5ZM7.165 20L7.353 19H11.5V20H7.165ZM12.5 20V19H16.647L16.835 20H12.5ZM16.46 18H12.5V7H14.585L16.46 18Z" fill="black"/>
</svg>
