<svg width="24" height="24" viewBox="0 0 24 24" fill="none" xmlns="http://www.w3.org/2000/svg">
<path d="M23 7.50006C23 4.47206 20.541 2.00806 17.426 2.00806C17.421 2.00806 17.416 2.00906 17.411 2.00906L6.505 3.99106L1.598 3.01006C1.451 2.98206 1.298 3.01906 1.183 3.11406C1.067 3.20806 1 3.35006 1 3.50006V11.5001C1 11.6501 1.067 11.7921 1.183 11.8871C1.273 11.9601 1.385 12.0001 1.5 12.0001C1.533 12.0001 1.565 11.9971 1.598 11.9901L6.505 11.0091L13.933 12.3601L13.507 14.9191C13.483 15.0641 13.524 15.2121 13.619 15.3241C13.713 15.4361 13.853 15.5001 14 15.5001H15.252L14.422 19.4401C14.281 20.1101 14.422 20.7501 14.819 21.2401C15.218 21.7301 15.814 22.0001 16.5 22.0001H18.774C20.003 22.0001 21.067 21.0831 21.247 19.8661L22.994 8.07306L22.97 8.06906C22.99 7.88306 23 7.69206 23 7.50006ZM2 4.11006L6 4.91006V10.0911L2 10.8901V4.11006ZM7 4.91706L17.5 3.00006C19.981 3.00006 22 5.01906 22 7.50006C22 9.96706 20.005 11.9761 17.544 12.0001L7 10.0831V4.91706ZM14.59 14.5001L14.917 12.5381L15.84 12.7061L15.463 14.5001H14.59ZM20.258 19.7201C20.15 20.4501 19.512 21.0001 18.774 21.0001H16.5C16.122 21.0001 15.801 20.8611 15.597 20.6101C15.393 20.3581 15.323 20.0161 15.401 19.6451L15.537 19.0001H18C18.276 19.0001 18.5 18.7761 18.5 18.5001C18.5 18.2241 18.276 18.0001 18 18.0001H15.748L15.958 17.0001H18.5C18.776 17.0001 19 16.7761 19 16.5001C19 16.2241 18.776 16.0001 18.5 16.0001H16.169L16.825 12.8851L17.411 12.9911C17.44 12.9971 17.47 13.0001 17.5 13.0001C19.083 13.0001 20.509 12.3231 21.513 11.2491L20.258 19.7201Z" fill="black"/>
<path d="M21 7.50006C21 5.84606 19.654 4.50006 18 4.50006C16.346 4.50006 15 5.84606 15 7.50006C15 9.15406 16.346 10.5001 18 10.5001C19.654 10.5001 21 9.15406 21 7.50006ZM16 7.50006C16 6.39606 16.897 5.50006 18 5.50006C19.103 5.50006 20 6.39606 20 7.50006C20 8.60306 19.103 9.50006 18 9.50006C16.897 9.50006 16 8.60306 16 7.50006Z" fill="black"/>
</svg>
