<svg width="24" height="24" viewBox="0 0 24 24" fill="none" xmlns="http://www.w3.org/2000/svg">
<path fill-rule="evenodd" clip-rule="evenodd" d="M2.924 0.234945C2.77764 0.000777125 2.46917 -0.0704095 2.235 0.0759457C2.00083 0.222301 1.92965 0.530776 2.076 0.764944L7 8.64334V19.2098L4.5 20.6384V13.4999C4.5 13.2999 4.3808 13.1192 4.19696 13.0404L0.69696 11.5404C0.542477 11.4742 0.365068 11.49 0.224754 11.5825C0.0844415 11.675 0 11.8319 0 11.9999V23.4999C0 23.6782 0.0948792 23.8429 0.249037 23.9324C0.403194 24.0219 0.593318 24.0225 0.748069 23.9341L7.63278 19.9999H16.3672L23.2519 23.9341C23.4067 24.0225 23.5968 24.0219 23.751 23.9324C23.9051 23.8429 24 23.6782 24 23.4999V12.4999C24 12.343 23.9264 12.1953 23.8011 12.1008C23.6758 12.0063 23.5135 11.9761 23.3626 12.0192L19.8626 13.0192C19.648 13.0805 19.5 13.2767 19.5 13.4999V20.6384L17 19.2098V8.64334L21.924 0.764944C22.0704 0.530776 21.9992 0.222301 21.765 0.0759457C21.5308 -0.0704095 21.2224 0.000777125 21.076 0.234945L16.2229 7.99994H7.77712L2.924 0.234945ZM20.5 18H21C21.2761 18 21.5 17.7761 21.5 17.5C21.5 17.2239 21.2761 17 21 17H20.5V13.8771L23 13.1628V22.6384L20.5 21.2098V18ZM3 17H3.5V13.8296L1 12.7582V22.6384L3.5 21.2098V18H3C2.72386 18 2.5 17.7761 2.5 17.5C2.5 17.2239 2.72386 17 3 17ZM8 18.9999V8.99994H16V18.9999H14V13.4999C14 13.2238 13.7761 12.9999 13.5 12.9999H10.5C10.2239 12.9999 10 13.2238 10 13.4999V18.9999H8ZM13 16H12.5C12.2239 16 12 16.2239 12 16.5C12 16.7761 12.2239 17 12.5 17H13V18.9999H11V13.9999H13V16Z" fill="black"/>
</svg>
