<svg width="24" height="24" viewBox="0 0 24 24" fill="none" xmlns="http://www.w3.org/2000/svg">
<g clip-path="url(#clip0_336_13836)">
<path d="M5.49995 7C5.77595 7 5.99995 6.776 5.99995 6.5C5.99995 2.721 9.10995 1 12 1C14.89 1 18 2.721 18 6.5C18 6.776 18.224 7 18.5 7C18.776 7 19 6.776 19 6.5C19 2.233 15.479 0 12 0C8.52095 0 4.99995 2.233 4.99995 6.5C4.99995 6.776 5.22395 7 5.49995 7Z" fill="black"/>
<path d="M22.997 17.56L21.032 6.429C20.988 6.175 20.769 5.991 20.496 6.018C20.238 6.04 20.04 6.257 20.04 6.516C20.04 7.343 19.367 8.016 18.54 8.016H5.53995C4.71295 8.016 4.03995 7.343 4.03995 6.516C4.03995 6.257 3.84195 6.04 3.58395 6.018C3.30495 5.983 3.09195 6.175 3.04795 6.429L1.08295 17.561C0.800954 19.167 1.23995 20.805 2.28995 22.055C3.33695 23.301 4.87095 24.016 6.49995 24.016H17.58C19.209 24.016 20.744 23.3 21.792 22.053C22.841 20.803 23.28 19.166 22.997 17.56ZM21.026 21.41C20.169 22.431 18.913 23.016 17.58 23.016H6.49995C5.16795 23.016 3.91195 22.431 3.05595 21.411C2.19795 20.388 1.83695 19.048 2.06795 17.734L3.74195 8.251C4.19595 8.723 4.83495 9.016 5.53995 9.016H18.54C19.245 9.016 19.884 8.723 20.339 8.251L22.013 17.734C22.243 19.047 21.884 20.387 21.026 21.41Z" fill="black"/>
<path d="M19 10H5.49995C5.22395 10 4.99995 10.224 4.99995 10.5C4.99995 10.776 5.22395 11 5.49995 11H5.99995V12.5C5.99995 12.776 6.22395 13 6.49995 13C6.77595 13 6.99995 12.776 6.99995 12.5V11H19C19.276 11 19.5 10.776 19.5 10.5C19.5 10.224 19.276 10 19 10Z" fill="black"/>
</g>
<defs>
<clipPath id="clip0_336_13836">
<rect width="24" height="24" fill="white"/>
</clipPath>
</defs>
</svg>
