<svg width="24" height="24" viewBox="0 0 24 24" fill="none" xmlns="http://www.w3.org/2000/svg">
<path fill-rule="evenodd" clip-rule="evenodd" d="M12 0C12.2762 0 12.5 0.223858 12.5 0.5V6H14.5C14.7762 6 15 6.22386 15 6.5V9.27312L22.8293 16.1237C22.986 16.2609 23.0413 16.4809 22.9681 16.6759C22.8948 16.8709 22.7083 17 22.5 17H15.4648C14.7737 18.1948 13.4813 19 12 19C10.5187 19 9.22638 18.1948 8.53526 17H1.50002C1.29172 17 1.10524 16.8709 1.03197 16.6759C0.958705 16.4809 1.01401 16.2609 1.17077 16.1237L9.00002 9.27312V6.5C9.00002 6.22386 9.22388 6 9.50002 6H11.5V0.5C11.5 0.223858 11.7239 0 12 0ZM10 7V9.5C10 9.64418 9.93778 9.78134 9.82928 9.87629L2.83075 16H21.1693L14.1708 9.87629C14.0623 9.78134 14 9.64418 14 9.5V7H10ZM12 18C11.1119 18 10.3134 17.6141 9.7638 17H14.2362C13.6866 17.6141 12.8881 18 12 18Z" fill="black"/>
<path d="M12.004 21.5C12.28 21.5 12.504 21.724 12.504 22V23.5C12.504 23.776 12.28 24 12.004 24C11.728 24 11.504 23.776 11.504 23.5V22C11.504 21.724 11.728 21.5 12.004 21.5Z" fill="black"/>
<path d="M15.937 20.812L16.687 22.111C16.825 22.35 16.743 22.656 16.504 22.794C16.267 22.932 15.959 22.851 15.821 22.611L15.071 21.312C14.933 21.073 15.015 20.767 15.254 20.629C15.493 20.491 15.799 20.573 15.937 20.812Z" fill="black"/>
<path d="M19.615 18.817C19.855 18.955 19.937 19.261 19.798 19.5C19.662 19.739 19.355 19.821 19.115 19.683L17.816 18.933C17.576 18.795 17.494 18.489 17.633 18.25C17.771 18.011 18.079 17.931 18.316 18.067L19.615 18.817Z" fill="black"/>
<path d="M8.75402 20.629C8.99302 20.767 9.07502 21.073 8.93702 21.312L8.18702 22.611C8.04902 22.851 7.74002 22.932 7.50402 22.794C7.26502 22.656 7.18302 22.351 7.32102 22.111L8.07102 20.812C8.20902 20.573 8.51602 20.493 8.75402 20.629Z" fill="black"/>
<path d="M5.69202 18.067C5.92902 17.929 6.23602 18.01 6.37502 18.25C6.51302 18.489 6.43102 18.795 6.19202 18.933L4.89302 19.683C4.65202 19.821 4.34602 19.739 4.21002 19.5C4.07202 19.261 4.15402 18.955 4.39302 18.817L5.69202 18.067Z" fill="black"/>
</svg>
