<svg width="24" height="24" viewBox="0 0 24 24" fill="none" xmlns="http://www.w3.org/2000/svg">
<g clip-path="url(#clip0_344_14626)">
<path fill-rule="evenodd" clip-rule="evenodd" d="M19 0.5C19 1.878 17.879 3 16.5 3H12.5V5H14.5C14.776 5 15 5.224 15 5.5V7H17.5C17.776 7 18 7.224 18 7.5V18.5C18 18.5345 17.9965 18.5682 17.9898 18.6007C17.9498 18.796 17.7959 18.9499 17.6006 18.9899C17.5681 18.9965 17.5345 19 17.5 19H15.4648C14.7736 20.1948 13.4813 21 12 21C10.5187 21 9.22636 20.1948 8.53524 19H6.5C6.48275 19 6.4657 18.9991 6.4489 18.9974C6.23181 18.9753 6.05564 18.8142 6.01097 18.6046C6.00378 18.5709 6 18.5359 6 18.5V7.5C6 7.224 6.224 7 6.5 7H9V5.5C9 5.224 9.224 5 9.5 5H11.5V3H7.5C6.121 3 5 1.878 5 0.5C5 0.224 5.224 0 5.5 0H18.5C18.776 0 19 0.224 19 0.5ZM17 8V18H7V8H17ZM12 20C11.1119 20 10.3134 19.6141 9.76378 19H14.2362C13.6866 19.6141 12.8881 20 12 20ZM10 7H14V6H10V7ZM17.914 1H6.086C6.292 1.582 6.848 2 7.5 2H16.5C17.152 2 17.708 1.582 17.914 1Z" fill="black"/>
<path d="M7.31698 22.1112C7.17891 22.3504 7.26085 22.6562 7.49999 22.7942C7.73914 22.9323 8.04493 22.8504 8.183 22.6112L8.683 21.7452C8.82108 21.5061 8.73914 21.2003 8.49999 21.0622C8.26085 20.9241 7.95505 21.0061 7.81698 21.2452L7.31698 22.1112Z" fill="black"/>
<path d="M16.5 22.7942C16.2608 22.9323 15.955 22.8504 15.817 22.6112L15.317 21.7452C15.1789 21.5061 15.2608 21.2003 15.5 21.0622C15.7391 20.9241 16.0449 21.0061 16.183 21.2452L16.683 22.1112C16.8211 22.3504 16.7391 22.6562 16.5 22.7942Z" fill="black"/>
<path d="M12 24C11.7238 24 11.5 23.7762 11.5 23.5V22.5C11.5 22.2239 11.7238 22 12 22C12.2761 22 12.5 22.2239 12.5 22.5V23.5C12.5 23.7762 12.2761 24 12 24Z" fill="black"/>
</g>
<defs>
<clipPath id="clip0_344_14626">
<rect width="24" height="24" fill="white"/>
</clipPath>
</defs>
</svg>
