<svg width="24" height="24" viewBox="0 0 24 24" fill="none" xmlns="http://www.w3.org/2000/svg">
<path d="M15.5 8.757V8C15.5 6.242 14.191 4.796 12.5 4.551V0.5C12.5 0.224 12.276 0 12 0C11.724 0 11.5 0.224 11.5 0.5V4.551C9.809 4.796 8.5 6.242 8.5 8V8.757C5.451 10.133 3.5 13.136 3.5 16.5C3.5 16.776 3.724 17 4 17H8.561C9.272 18.221 10.584 19 12 19C13.416 19 14.729 18.221 15.439 17H20C20.276 17 20.5 16.776 20.5 16.5C20.5 13.136 18.549 10.133 15.5 8.757ZM12 18C11.13 18 10.331 17.631 9.773 17H14.226C13.669 17.631 12.87 18 12 18ZM4.517 16C4.705 13.139 6.496 10.641 9.188 9.55C9.377 9.474 9.5 9.291 9.5 9.087V8C9.5 6.622 10.621 5.5 12 5.5C13.379 5.5 14.5 6.622 14.5 8V9.087C14.5 9.291 14.623 9.474 14.812 9.55C17.503 10.641 19.295 13.138 19.483 16H4.517Z" fill="black"/>
<path d="M12 21.5C11.724 21.5 11.5 21.724 11.5 22V23.5C11.5 23.776 11.724 24 12 24C12.276 24 12.5 23.776 12.5 23.5V22C12.5 21.724 12.276 21.5 12 21.5Z" fill="black"/>
<path d="M15.933 20.812C15.795 20.572 15.489 20.492 15.25 20.629C15.011 20.767 14.929 21.072 15.067 21.312L15.817 22.611C15.909 22.772 16.078 22.861 16.25 22.861C16.335 22.861 16.421 22.84 16.5 22.794C16.739 22.656 16.821 22.35 16.683 22.111L15.933 20.812Z" fill="black"/>
<path d="M19.611 18.817L18.312 18.067C18.074 17.93 17.767 18.011 17.629 18.25C17.49 18.489 17.572 18.795 17.812 18.933L19.111 19.683C19.19 19.728 19.276 19.75 19.361 19.75C19.533 19.75 19.702 19.661 19.794 19.5C19.933 19.261 19.851 18.955 19.611 18.817Z" fill="black"/>
<path d="M8.75 20.63C8.512 20.492 8.205 20.573 8.067 20.813L7.317 22.112C7.179 22.351 7.261 22.656 7.5 22.794C7.579 22.84 7.665 22.861 7.75 22.861C7.922 22.861 8.091 22.772 8.183 22.611L8.933 21.312C9.071 21.073 8.989 20.768 8.75 20.63Z" fill="black"/>
<path d="M5.688 18.067L4.389 18.817C4.15 18.955 4.068 19.261 4.206 19.5C4.298 19.661 4.467 19.75 4.639 19.75C4.724 19.75 4.81 19.729 4.889 19.683L6.188 18.933C6.427 18.795 6.509 18.489 6.371 18.25C6.232 18.01 5.926 17.93 5.688 18.067Z" fill="black"/>
</svg>
