<svg width="24" height="24" viewBox="0 0 24 24" fill="none" xmlns="http://www.w3.org/2000/svg">
<path fill-rule="evenodd" clip-rule="evenodd" d="M11.1197 8.52581C10.942 8.46642 10.746 8.51131 10.612 8.64213C10.4779 8.77295 10.4282 8.96775 10.4832 9.14682L10.5043 9.21546C10.6783 9.78117 10.9018 10.5076 10.9772 11.2826C11.0304 11.8291 11.0072 12.3762 10.8511 12.8879L10.7627 12.7679C10.6477 12.6112 10.5394 12.4619 10.4597 12.3516L10.3648 12.2198L10.3303 12.1718C10.2362 12.0404 10.084 11.9618 9.92243 11.962C9.76087 11.9622 9.60938 12.0405 9.51572 12.1722L9.51425 12.1742L9.5113 12.1784L9.50111 12.193C9.49248 12.2054 9.48026 12.2231 9.46495 12.2456C9.43435 12.2907 9.39131 12.3552 9.33998 12.4353C9.23761 12.595 9.10073 12.8191 8.96322 13.0762C8.70268 13.5634 8.38513 14.2668 8.38513 14.885C8.38513 16.8729 9.99774 18.5 12.0001 18.5C14.0132 18.5 15.6151 16.8642 15.6151 14.885C15.6151 12.1711 13.7399 9.40176 11.1197 8.52581ZM9.95233 13.3539C9.91705 13.4156 9.88102 13.4805 9.84504 13.5478C9.58658 14.0311 9.38513 14.5392 9.38513 14.885C9.38513 16.3231 10.5525 17.5 12.0001 17.5C13.4551 17.5 14.6151 16.3178 14.6151 14.885C14.6151 12.9217 13.441 10.9131 11.7424 9.90628C11.8407 10.2979 11.9285 10.733 11.9725 11.1857C12.0628 12.113 11.9757 13.1654 11.3853 14.1117C11.3024 14.2446 11.1621 14.3309 11.0061 14.345C10.8501 14.3591 10.6965 14.2992 10.5912 14.1833C10.4591 14.0381 10.181 13.6653 9.95659 13.3597L9.95233 13.3539Z" fill="black"/>
<path fill-rule="evenodd" clip-rule="evenodd" d="M5.62592 1.64648C5.53215 1.55272 5.40497 1.5 5.27237 1.5C5.13976 1.5 5.01258 1.55272 4.91881 1.64648L0.209435 6.35583C0.115667 6.4496 0.0629883 6.57686 0.0629883 6.70947C0.0629883 6.84208 0.115667 6.96922 0.209435 7.06299L1.55497 8.40857C1.75023 8.60383 2.06682 8.60383 2.26208 8.40857L2.58129 8.08936L3.88622 9.39429C2.19568 12.7862 2.76339 17.0174 5.59158 19.8456C9.13088 23.3849 14.8692 23.3849 18.4085 19.8456C21.2367 17.0174 21.8044 12.7862 20.1139 9.39429L21.4188 8.08936L21.738 8.40857C21.8318 8.50234 21.959 8.55493 22.0916 8.55493C22.2242 8.55493 22.3514 8.50234 22.4451 8.40857L23.7907 7.06299C23.9859 6.86773 23.9859 6.5511 23.7907 6.35583L19.0813 1.64648C18.9875 1.55272 18.8603 1.5 18.7277 1.5C18.5951 1.5 18.4679 1.55272 18.3742 1.64648L17.0286 2.99207C16.8334 3.18733 16.8334 3.50383 17.0286 3.6991L17.3479 4.01831L16.0429 5.32324C13.504 4.05776 10.4961 4.05776 7.95717 5.32324L6.65224 4.01831L6.97146 3.6991C7.16672 3.50383 7.16672 3.18733 6.97146 2.99207L5.62592 1.64648ZM1.27009 6.70947L1.90852 7.3479L5.9108 3.34558L5.27237 2.70715L1.27009 6.70947ZM4.40114 8.49487L3.2884 7.3822L5.94513 4.72546L7.05787 5.83826C6.53864 6.17666 6.04674 6.57353 5.59158 7.02869C5.13642 7.48385 4.73954 7.97564 4.40114 8.49487ZM20.7117 7.3822L19.599 8.49487C19.2606 7.97564 18.8637 7.48385 18.4085 7.02869C17.9534 6.57353 17.4615 6.17666 16.9422 5.83826L18.055 4.72546L20.7117 7.3822ZM22.73 6.70947L22.0916 7.3479L18.0893 3.34558L18.7277 2.70715L22.73 6.70947ZM8.10538 6.37463C10.5215 5.04066 13.4786 5.04066 15.8947 6.37463C16.5422 6.7321 17.1513 7.18561 17.7014 7.73572C18.2515 8.28583 18.705 8.89504 19.0625 9.54248C20.7547 12.6073 20.3001 16.5397 17.7014 19.1384C14.5526 22.2872 9.44746 22.2872 6.29869 19.1384C3.69996 16.5397 3.24544 12.6073 4.93759 9.54248C5.29505 8.89504 5.74858 8.28583 6.29869 7.73572C6.8488 7.18561 7.45794 6.7321 8.10538 6.37463Z" fill="black"/>
</svg>
