<svg width="24" height="24" viewBox="0 0 24 24" fill="none" xmlns="http://www.w3.org/2000/svg">
<path fill-rule="evenodd" clip-rule="evenodd" d="M4.49997 17H6.49997C6.77597 17 6.99997 17.224 6.99997 17.5V19.5C6.99997 19.777 6.77597 20 6.49997 20H4.49997C4.22397 20 3.99997 19.777 3.99997 19.5V17.5C3.99997 17.224 4.22397 17 4.49997 17ZM4.99997 19H5.99997V18H4.99997V19Z" fill="black"/>
<path fill-rule="evenodd" clip-rule="evenodd" d="M17.5 20H19.5C19.776 20 20 19.776 20 19.5V17.5C20 17.224 19.776 17 19.5 17H17.5C17.224 17 17 17.224 17 17.5V19.5C17 19.777 17.224 20 17.5 20ZM18 18H19V19H18V18Z" fill="black"/>
<path fill-rule="evenodd" clip-rule="evenodd" d="M23.959 13.304L20.959 6.304C20.881 6.12 20.7 6 20.5 6H20V3H20.5C20.776 3 21 2.777 21 2.5C21 2.223 20.776 2 20.5 2H16.516C16.24 2 16.016 2.224 16.016 2.5C16.016 2.776 16.24 3 16.516 3H17V6H14.59L12.392 3.211C12.203 2.971 11.796 2.971 11.607 3.211L9.40997 6H6.99997V3H7.49997C7.77597 3 7.99997 2.777 7.99997 2.5C7.99997 2.223 7.77597 2 7.49997 2H3.51597C3.23997 2 3.01597 2.224 3.01597 2.5C3.01597 2.776 3.23897 3 3.51597 3H3.99997V6H3.49997C3.29997 6 3.11897 6.12 3.04097 6.304L0.0409739 13.304C-0.0250261 13.458 -0.00902615 13.636 0.0829739 13.776C0.174974 13.916 0.331974 14 0.499974 14H1.99997V23.5C1.99997 23.777 2.22397 24 2.49997 24H21.5C21.776 24 22 23.776 22 23.5V14H23.5C23.668 14 23.825 13.916 23.917 13.775C24.01 13.635 24.026 13.458 23.959 13.304ZM18 3H19V6H18V3ZM12 4.329L16.469 10H7.53097L12 4.329ZM4.99997 3H5.99997V6H4.99997V3ZM3.82997 7H8.62197L6.10797 10.19C5.98897 10.34 5.96697 10.545 6.05097 10.718C6.13397 10.891 6.30897 11 6.49997 11H7.99997V13H1.25797L3.82997 7ZM2.99997 14H7.99997V23H2.99997V14ZM11 23V18H13V23H11ZM14 23V17.5C14 17.224 13.776 17 13.5 17H10.5C10.224 17 9.99997 17.224 9.99997 17.5V23H8.99997V11H15V23H14ZM21 23H16V14H21V23ZM16 13V11H17.52C17.796 11 18.02 10.776 18.02 10.5C18.02 10.338 17.943 10.194 17.823 10.102L15.378 7H20.17L22.741 13H16Z" fill="black"/>
</svg>
