<svg width="24" height="24" viewBox="0 0 24 24" fill="none" xmlns="http://www.w3.org/2000/svg">
<g clip-path="url(#clip0_344_15622)">
<path fill-rule="evenodd" clip-rule="evenodd" d="M12.5 14H17.5C17.776 14 18 14.224 18 14.5V19.5C18 19.776 17.776 20 17.5 20H12.5C12.224 20 12 19.776 12 19.5V14.5C12 14.224 12.224 14 12.5 14ZM13 19H17V15H13V19Z" fill="black"/>
<path fill-rule="evenodd" clip-rule="evenodd" d="M21 23H23.5C23.776 23 24 23.224 24 23.5C24 23.776 23.776 24 23.5 24H0.500049C0.224049 24 4.89159e-05 23.776 4.89159e-05 23.5C4.89159e-05 23.224 0.224049 23 0.500049 23H3.00005V11H0.500049C0.284049 11 0.0930489 10.861 0.0240489 10.656C-0.0429511 10.452 0.0290489 10.226 0.202049 10.098L11.702 1.59801C11.879 1.46701 12.12 1.46701 12.297 1.59801L17 5.07501V3.50001C17 3.22301 17.2241 3.00001 17.5 3.00001H20.5C20.776 3.00001 21 3.22301 21 3.50001V8.03001L23.7971 10.098C23.9711 10.226 24.042 10.451 23.975 10.656C23.907 10.861 23.716 11 23.5 11H21V23ZM20 4.00001H18V5.81301L20 7.29201V4.00001ZM21.982 10L12 2.62201L2.01805 10H21.982ZM6.00005 22V23H10V22H6.00005ZM7.00005 21H9.00005V15H7.00005V21ZM11 21.5V23H20V11H4.00005V23H5.00005V21.5C5.00005 21.224 5.22405 21 5.50005 21H6.00005V14.5C6.00005 14.224 6.22405 14 6.50005 14H9.50005C9.77605 14 10 14.224 10 14.5V21H10.5C10.776 21 11 21.224 11 21.5Z" fill="black"/>
</g>
<defs>
<clipPath id="clip0_344_15622">
<rect width="24" height="24" fill="white"/>
</clipPath>
</defs>
</svg>
