<svg width="24" height="24" viewBox="0 0 24 24" fill="none" xmlns="http://www.w3.org/2000/svg">
<path d="M21.5 1H10.5C10.224 1 9.99999 0.776 9.99999 0.5C9.99999 0.224 10.224 0 10.5 0H21.5C21.776 0 22 0.224 22 0.5C22 0.776 21.776 1 21.5 1Z" fill="black"/>
<path d="M8.62799 8.167C8.81699 7.955 9.18399 7.955 9.37299 8.167L17.872 17.666C18.056 17.873 18.039 18.188 17.833 18.373C17.738 18.458 17.619 18.5 17.5 18.5C17.362 18.5 17.226 18.444 17.127 18.333L8.99999 9.25L0.872992 18.334C0.688992 18.541 0.373992 18.558 0.166992 18.374C-0.0390084 18.189 -0.0560084 17.874 0.127992 17.667L8.62799 8.167Z" fill="black"/>
<path d="M14 18.5C14 18.224 14.224 18 14.5 18C14.776 18 15 18.224 15 18.5V23.5C15 23.776 14.776 24 14.5 24H3.49999C3.22399 24 2.99999 23.776 2.99999 23.5V18.5C2.99999 18.224 3.22399 18 3.49999 18C3.77599 18 3.99999 18.224 3.99999 18.5V23H14V18.5Z" fill="black"/>
<path fill-rule="evenodd" clip-rule="evenodd" d="M10.5 17C10.776 17 11 16.776 11 16.5V13.5C11 13.224 10.776 13 10.5 13H7.49999C7.22399 13 6.99999 13.224 6.99999 13.5V16.5C6.99999 16.776 7.22399 17 7.49999 17H10.5ZM9.99999 14V16H7.99999V14H9.99999Z" fill="black"/>
<path d="M12 2.5C12 2.776 12.224 3 12.5 3H22.5C22.776 3 23 2.776 23 2.5C23 2.224 22.776 2 22.5 2H12.5C12.224 2 12 2.224 12 2.5Z" fill="black"/>
<path d="M14.5 4H23.5C23.776 4 24 4.224 24 4.5C24 4.776 23.776 5 23.5 5H14.5C14.224 5 14 4.776 14 4.5C14 4.224 14.224 4 14.5 4Z" fill="black"/>
<path d="M21.5 6H11.5C11.224 6 11 6.224 11 6.5C11 6.776 11.224 7 11.5 7H21.5C21.776 7 22 6.776 22 6.5C22 6.224 21.776 6 21.5 6Z" fill="black"/>
<path d="M19.5 8C19.776 8 20 8.224 20 8.5C20 8.776 19.776 9 19.5 9H12.5C12.224 9 12 8.776 12 8.5C12 8.224 12.224 8 12.5 8H19.5Z" fill="black"/>
<path d="M15.5 11H21.5C21.776 11 22 10.776 22 10.5C22 10.224 21.776 10 21.5 10H15.5C15.224 10 15 10.224 15 10.5C15 10.776 15.224 11 15.5 11Z" fill="black"/>
<path d="M17 12.5C17 12.224 17.224 12 17.5 12H22.5C22.776 12 23 12.224 23 12.5C23 12.776 22.776 13 22.5 13H17.5C17.224 13 17 12.776 17 12.5Z" fill="black"/>
<path d="M21.5 14H19.5C19.224 14 19 14.224 19 14.5C19 14.776 19.224 15 19.5 15H21.5C21.776 15 22 14.776 22 14.5C22 14.224 21.776 14 21.5 14Z" fill="black"/>
<path d="M20 16H21C21.276 16 21.5 16.224 21.5 16.5C21.5 16.776 21.276 17 21 17H20C19.724 17 19.5 16.776 19.5 16.5C19.5 16.224 19.724 16 20 16Z" fill="black"/>
</svg>
