<svg width="24" height="24" viewBox="0 0 24 24" fill="none" xmlns="http://www.w3.org/2000/svg">
<path d="M22.688 5.97398C22.856 6.04198 22.974 6.19498 22.996 6.37498C23.033 6.67198 23.845 13.676 18.699 15.912C18.634 15.941 18.566 15.954 18.5 15.954C18.307 15.954 18.123 15.841 18.041 15.653C17.93 15.399 18.047 15.105 18.3 14.995C21.801 13.474 22.094 9.15898 22.053 7.33198C21.059 7.90798 19.225 8.68498 17.359 7.99998C17.161 7.92698 17.03 7.73798 17.031 7.52598C17.032 7.37298 17.076 4.05498 18.549 1.10098C16.724 1.37298 14.419 2.41798 13.208 3.96498C12.47 4.90898 12.226 5.91698 12.485 6.96198C12.522 7.11198 12.488 7.26998 12.393 7.39098C12.297 7.51298 12.169 7.54598 11.997 7.58198C10.251 7.57298 8.65599 5.39598 7.93899 4.25498C7.33799 5.09298 6.38199 6.76998 6.96799 8.32298C7.06499 8.58198 6.93399 8.86998 6.67599 8.96798C6.41799 9.06398 6.12899 8.93398 6.03199 8.67598C4.99399 5.92198 7.52499 3.14998 7.63399 3.03398C7.74299 2.91598 7.90499 2.86198 8.06299 2.87798C8.22299 2.89798 8.36299 2.99398 8.43899 3.13698C8.88399 3.95698 10.161 5.89898 11.395 6.44098C11.324 5.36198 11.672 4.30698 12.421 3.34998C14.046 1.27298 17.265 0.0319824 19.437 0.0319824C19.619 0.0319824 19.786 0.129982 19.874 0.287982C19.962 0.445982 19.958 0.639982 19.863 0.793982C18.407 3.15798 18.108 6.13898 18.047 7.16798C20.115 7.67398 22.167 6.06398 22.188 6.04698C22.329 5.93398 22.521 5.90598 22.688 5.97398Z" fill="black"/>
<path d="M8.62799 8.16698C8.81699 7.95498 9.18399 7.95498 9.37299 8.16698L17.872 17.666C18.056 17.873 18.039 18.188 17.833 18.373C17.738 18.458 17.619 18.5 17.5 18.5C17.362 18.5 17.226 18.444 17.127 18.333L8.99999 9.24998L0.872992 18.334C0.688992 18.541 0.372992 18.558 0.166992 18.374C-0.0390084 18.189 -0.0560084 17.874 0.127992 17.667L8.62799 8.16698Z" fill="black"/>
<path d="M14 18.5C14 18.224 14.224 18 14.5 18C14.776 18 15 18.224 15 18.5V23.5C15 23.776 14.776 24 14.5 24H3.49999C3.22399 24 2.99999 23.776 2.99999 23.5V18.5C2.99999 18.224 3.22399 18 3.49999 18C3.77599 18 3.99999 18.224 3.99999 18.5V23H14V18.5Z" fill="black"/>
<path fill-rule="evenodd" clip-rule="evenodd" d="M10.5 17C10.776 17 11 16.776 11 16.5V13.5C11 13.224 10.776 13 10.5 13H7.49999C7.22399 13 6.99999 13.224 6.99999 13.5V16.5C6.99999 16.776 7.22399 17 7.49999 17H10.5ZM9.99999 14V16H7.99999V14H9.99999Z" fill="black"/>
</svg>
