<svg width="24" height="24" viewBox="0 0 24 24" fill="none" xmlns="http://www.w3.org/2000/svg">
<path fill-rule="evenodd" clip-rule="evenodd" d="M14.0005 12.4999C15.1035 12.4999 16.0005 11.6029 16.0005 10.4999C16.0005 9.39684 15.1035 8.49986 14.0005 8.49986C12.8975 8.49986 12.0005 9.39684 12.0005 10.4999C12.0005 11.6029 12.8975 12.4999 14.0005 12.4999ZM14.0005 9.49986C14.5515 9.49986 15.0005 9.94884 15.0005 10.4999C15.0005 11.0509 14.5515 11.4999 14.0005 11.4999C13.4495 11.4999 13.0005 11.0509 13.0005 10.4999C13.0005 9.94884 13.4495 9.49986 14.0005 9.49986Z" fill="black"/>
<path d="M8.50054 14.9999H4.50054C4.22454 14.9999 4.00054 14.7759 4.00054 14.4999C4.00054 14.2239 4.22454 13.9999 4.50054 13.9999H8.50054C8.77654 13.9999 9.00054 14.2239 9.00054 14.4999C9.00054 14.7759 8.77654 14.9999 8.50054 14.9999Z" fill="black"/>
<path fill-rule="evenodd" clip-rule="evenodd" d="M23.5005 22.9999H22.0005V11.1568L23.2365 11.9249C23.3185 11.9758 23.4105 11.9999 23.5005 11.9999C23.6675 11.9999 23.8315 11.9159 23.9255 11.7639C24.0716 11.5299 23.9995 11.2208 23.7645 11.0759L21.0005 9.35985V4.49986C21.0005 4.22289 20.7765 3.99986 20.5005 3.99986H18.5005C18.2245 3.99986 18.0005 4.22289 18.0005 4.49986V7.49791L9.26455 2.07481C9.02953 1.92992 8.72155 2.00182 8.57555 2.23583C8.42953 2.46983 8.50155 2.77892 8.73653 2.92491L10.0005 3.70885V9.16185L0.314535 13.0359C0.0585538 13.1389 -0.0664462 13.4299 0.0355436 13.6859C0.114554 13.8808 0.302542 13.9999 0.50054 13.9999C0.562552 13.9999 0.62554 13.9889 0.686545 13.9639L2.00054 13.4379V22.9999H0.50054C0.224539 22.9999 0.000539915 23.2239 0.000539915 23.4999C0.000539915 23.7759 0.224539 23.9999 0.50054 23.9999H23.5005C23.7765 23.9999 24.0005 23.7759 24.0005 23.4999C24.0005 23.2239 23.7765 22.9999 23.5005 22.9999ZM19.0005 4.99986H20.0005V8.73985L19.0005 8.11888V4.99986ZM21.0005 10.5368V22.9999H20.0005V17.4999C20.0005 17.2239 19.7765 16.9999 19.5005 16.9999H12.5005C12.2245 16.9999 12.0005 17.2239 12.0005 17.4999V22.9999H11.0005V4.32982L21.0005 10.5368ZM3.00054 13.0388L10.0005 10.2389V22.9999H9.00054V17.4999C9.00054 17.2239 8.77654 16.9999 8.50054 16.9999H4.50054C4.22454 16.9999 4.00054 17.2239 4.00054 17.4999V22.9999H3.00054V13.0388ZM5.00054 22.9999V17.9999H8.00054V22.9999H5.00054ZM13.0005 17.9999H16.0005V22.9999H13.0005V17.9999ZM17.0005 22.9999V17.9999H19.0005V22.9999H17.0005Z" fill="black"/>
</svg>
