<svg width="24" height="24" viewBox="0 0 24 24" fill="none" xmlns="http://www.w3.org/2000/svg">
<path d="M23.272 13.33L18.5 10.227V3.99902C18.5 3.81502 18.399 3.64602 18.238 3.56002L12.238 0.309023C12.09 0.229023 11.91 0.229023 11.761 0.309023L5.761 3.56002C5.6 3.64602 5.5 3.81502 5.5 3.99902V10.227L0.727 13.33C0.585 13.422 0.5 13.58 0.5 13.749V20.25C0.5 20.419 0.585 20.577 0.728 20.669L5.728 23.919C5.81 23.973 5.904 24 6 24C6.082 24 6.164 23.98 6.238 23.939L12 20.818L17.762 23.939C17.836 23.98 17.918 24 18 24C18.095 24 18.19 23.973 18.272 23.919L23.272 20.669C23.414 20.577 23.5 20.419 23.5 20.25V13.749C23.5 13.58 23.414 13.422 23.272 13.33ZM12 1.31602L17.5 4.29602V10.2L12 13.18L6.5 10.2V4.29702L12 1.31602ZM6.023 22.919L1.5 19.979V14.021L6.022 11.081L11.5 14.048V19.952L6.023 22.919ZM22.5 19.979L17.977 22.919L12.5 19.952V14.048L17.978 11.08L22.5 14.021V19.979Z" fill="black"/>
</svg>
