<svg width="24" height="24" viewBox="0 0 24 24" fill="none" xmlns="http://www.w3.org/2000/svg">
<path d="M20.5 22H19V18.5C19 15.553 17.167 13.031 14.583 12C17.167 10.969 19 8.447 19 5.5V2H20.5C20.776 2 21 1.776 21 1.5C21 1.224 20.776 1 20.5 1H3.5C3.224 1 3 1.224 3 1.5C3 1.776 3.224 2 3.5 2H5V5.5C5 8.447 6.833 10.969 9.417 12C6.833 13.031 5 15.553 5 18.5V22H3.5C3.224 22 3 22.224 3 22.5C3 22.776 3.224 23 3.5 23H20.5C20.776 23 21 22.776 21 22.5C21 22.224 20.776 22 20.5 22ZM6 2H18V5.5C18 6.807 17.575 8.014 16.863 9H7.137C6.425 8.014 6 6.807 6 5.5V2ZM8.044 10H15.955C14.898 10.931 13.515 11.5 11.999 11.5C10.483 11.5 9.102 10.931 8.044 10ZM12 12.5C15.309 12.5 18 15.191 18 18.5V19H15.207L12.353 16.146C12.158 15.951 11.841 15.951 11.646 16.146L8.793 19H6V18.5C6 15.191 8.691 12.5 12 12.5ZM6 22V20H9C9.133 20 9.26 19.947 9.354 19.854L12 17.207L14.646 19.853C14.74 19.947 14.867 20 15 20H18V22H6Z" fill="black"/>
</svg>
