<svg width="24" height="24" viewBox="0 0 24 24" fill="none" xmlns="http://www.w3.org/2000/svg">
<g clip-path="url(#clip0_344_15813)">
<path d="M12.3359 1.13101L23.8359 11.631C24.0409 11.817 24.0549 12.133 23.8689 12.337C23.7709 12.445 23.6349 12.5 23.4999 12.5C23.3789 12.5 23.2589 12.457 23.1629 12.369L11.9999 2.17701L0.835934 12.369C0.632934 12.556 0.316934 12.542 0.129934 12.337C-0.0570664 12.133 -0.0420664 11.817 0.161934 11.631L11.6619 1.13101C11.8529 0.956006 12.1459 0.956006 12.3359 1.13101Z" fill="black"/>
<path d="M11.4999 23H3.99993V12.5C3.99993 12.224 3.77593 12 3.49993 12C3.22393 12 2.99993 12.224 2.99993 12.5V23.5C2.99993 23.776 3.22293 24 3.49993 24H11.4999C11.7759 24 11.9999 23.776 11.9999 23.5C11.9999 23.224 11.7759 23 11.4999 23Z" fill="black"/>
<path fill-rule="evenodd" clip-rule="evenodd" d="M16.4999 19C16.4999 17.897 17.3969 17 18.4999 17C19.6029 17 20.4999 17.897 20.4999 19C20.4999 20.103 19.6029 21 18.4999 21C17.3969 21 16.4999 20.103 16.4999 19ZM17.4999 19C17.4999 19.551 17.9489 20 18.4999 20C19.0509 20 19.4999 19.551 19.4999 19C19.4999 18.449 19.0509 18 18.4999 18C17.9489 18 17.4999 18.449 17.4999 19Z" fill="black"/>
<path fill-rule="evenodd" clip-rule="evenodd" d="M22.4559 19.554L23.1469 19.952C23.2619 20.018 23.3479 20.128 23.3819 20.256C23.4159 20.384 23.3979 20.52 23.3319 20.635L22.3319 22.367C22.2649 22.482 22.1559 22.566 22.0279 22.6C21.8999 22.633 21.7639 22.615 21.6489 22.55L20.9529 22.148C20.6659 22.369 20.3449 22.552 20.0009 22.691V23.5C20.0009 23.776 19.7769 24 19.5009 24H17.5009C17.2249 24 17.0009 23.776 17.0009 23.5V22.691C16.6549 22.553 16.3359 22.371 16.0479 22.148L15.3539 22.549C15.2379 22.615 15.1009 22.632 14.9739 22.599C14.8459 22.565 14.7359 22.481 14.6699 22.366L13.6699 20.634C13.6029 20.52 13.5859 20.383 13.6199 20.255C13.6539 20.127 13.7379 20.017 13.8529 19.951L14.5439 19.553C14.4859 19.176 14.4859 18.826 14.5439 18.448L13.8539 18.05C13.7389 17.983 13.6549 17.874 13.6209 17.746C13.5869 17.619 13.6049 17.482 13.6709 17.367L14.6709 15.635C14.8089 15.396 15.1129 15.314 15.3539 15.452L16.0469 15.852C16.3349 15.628 16.6539 15.447 16.9999 15.308V14.5C16.9999 14.224 17.2239 14 17.4999 14H19.4999C19.7759 14 19.9999 14.224 19.9999 14.5V15.309C20.3459 15.448 20.6639 15.629 20.9529 15.853L21.6459 15.453C21.8849 15.315 22.1899 15.397 22.3289 15.636L23.3289 17.368C23.3959 17.482 23.4129 17.62 23.3789 17.747C23.3449 17.875 23.2609 17.985 23.1459 18.051L22.4559 18.449C22.5139 18.827 22.5139 19.177 22.4559 19.554ZM21.1459 21.106L21.7139 21.434L22.2149 20.568L21.6479 20.241C21.4569 20.131 21.3609 19.908 21.4109 19.693C21.5299 19.188 21.5299 18.813 21.4109 18.309C21.3609 18.094 21.4569 17.871 21.6479 17.761L22.2139 17.434L21.7139 16.567L21.1479 16.894C20.9559 17.004 20.7159 16.977 20.5549 16.825C20.2199 16.509 19.8159 16.279 19.3559 16.141C19.1449 16.077 18.9999 15.883 18.9999 15.662V15H17.9999V15.662C17.9999 15.883 17.8549 16.077 17.6449 16.141C17.1839 16.279 16.7809 16.509 16.4459 16.825C16.2849 16.977 16.0439 17.004 15.8529 16.894L15.2869 16.567L14.7869 17.434L15.3529 17.761C15.5439 17.871 15.6399 18.094 15.5899 18.309C15.4709 18.814 15.4709 19.189 15.5899 19.693C15.6399 19.908 15.5439 20.131 15.3529 20.241L14.7859 20.568L15.2859 21.434L15.8519 21.106C16.0439 20.997 16.2839 21.024 16.4449 21.175C16.7789 21.489 17.1829 21.72 17.6439 21.859C17.8549 21.923 17.9999 22.117 17.9999 22.338V23H18.9999V22.338C18.9999 22.117 19.1449 21.923 19.3559 21.859C19.8169 21.72 20.2199 21.49 20.5529 21.176C20.7129 21.023 20.9539 20.997 21.1459 21.106Z" fill="black"/>
<path d="M15.9999 3.00001H18.9999V6.00001C18.9999 6.27601 19.2239 6.50001 19.4999 6.50001C19.7759 6.50001 19.9999 6.27601 19.9999 6.00001V2.50001C19.9999 2.22401 19.7759 2.00001 19.4999 2.00001H15.9999C15.7239 2.00001 15.4999 2.22401 15.4999 2.50001C15.4999 2.77601 15.7229 3.00001 15.9999 3.00001Z" fill="black"/>
<path fill-rule="evenodd" clip-rule="evenodd" d="M13.9999 6.50001V9.50001C13.9999 9.77601 13.7759 10 13.4999 10H10.4999C10.2239 10 9.99993 9.77601 9.99993 9.50001V6.50001C9.99993 6.22401 10.2229 6.00001 10.4999 6.00001H13.4999C13.7759 6.00001 13.9999 6.22401 13.9999 6.50001ZM10.9999 9.00001H12.9999V7.00001H10.9999V9.00001Z" fill="black"/>
</g>
<defs>
<clipPath id="clip0_344_15813">
<rect width="24" height="24" fill="white"/>
</clipPath>
</defs>
</svg>
