<svg width="24" height="24" viewBox="0 0 24 24" fill="none" xmlns="http://www.w3.org/2000/svg">
<g clip-path="url(#clip0_344_15752)">
<path d="M23.8361 11.631L12.3361 1.13101C12.1461 0.956006 11.8531 0.956006 11.6621 1.13101L0.162056 11.631C-0.0419443 11.817 -0.0569443 12.133 0.130056 12.337C0.317056 12.542 0.633056 12.556 0.836056 12.369L12.0001 2.17701L23.1631 12.369C23.2591 12.457 23.3791 12.5 23.5001 12.5C23.6351 12.5 23.7711 12.445 23.8691 12.337C24.0551 12.133 24.0411 11.817 23.8361 11.631Z" fill="black"/>
<path d="M14.5001 23H4.00006V12.5C4.00006 12.224 3.77606 12 3.50006 12C3.22406 12 3.00006 12.224 3.00006 12.5V23.5C3.00006 23.776 3.22306 24 3.50006 24H14.5001C14.7761 24 15.0001 23.776 15.0001 23.5C15.0001 23.224 14.7761 23 14.5001 23Z" fill="black"/>
<path d="M19.0001 3.00001H16.0001C15.7231 3.00001 15.5001 2.77601 15.5001 2.50001C15.5001 2.22401 15.7241 2.00001 16.0001 2.00001H19.5001C19.7761 2.00001 20.0001 2.22401 20.0001 2.50001V6.00001C20.0001 6.27601 19.7761 6.50001 19.5001 6.50001C19.2241 6.50001 19.0001 6.27601 19.0001 6.00001V3.00001Z" fill="black"/>
<path fill-rule="evenodd" clip-rule="evenodd" d="M13.5001 10C13.7761 10 14.0001 9.77601 14.0001 9.50001V6.50001C14.0001 6.22401 13.7761 6.00001 13.5001 6.00001H10.5001C10.2231 6.00001 10.0001 6.22401 10.0001 6.50001V9.50001C10.0001 9.77601 10.2241 10 10.5001 10H13.5001ZM13.0001 7.00001V9.00001H11.0001V7.00001H13.0001Z" fill="black"/>
<path fill-rule="evenodd" clip-rule="evenodd" d="M16.0501 16.998C16.2891 15.583 17.5151 14.5 18.9951 14.5C20.6561 14.5 22.0001 15.846 22.0001 17.5C22.0001 18.299 21.6891 19.052 21.1231 19.619C20.5571 20.186 19.8041 20.498 19.0041 20.498H18.9991C17.5171 20.498 16.2901 19.414 16.0501 17.998H14.0001V20.38C14.0001 20.656 13.7761 20.88 13.5001 20.88C13.2241 20.88 13.0001 20.656 13.0001 20.38V17.998H12.0001V21.38C12.0001 21.656 11.7761 21.88 11.5001 21.88C11.2241 21.88 11.0001 21.656 11.0001 21.38V17.998H10.0001C9.72406 17.998 9.50006 17.774 9.50006 17.498C9.50006 17.222 9.72406 16.998 10.0001 16.998H16.0501ZM19.0041 19.498C19.5371 19.498 20.0391 19.29 20.4161 18.912C20.7921 18.535 21.0001 18.033 21.0001 17.5C21.0001 16.397 20.1051 15.5 19.0041 15.5C17.8951 15.5 17.0001 16.396 17.0001 17.498C17.0001 18.602 17.8971 19.498 19.0001 19.498H19.0041Z" fill="black"/>
</g>
<defs>
<clipPath id="clip0_344_15752">
<rect width="24" height="24" fill="white"/>
</clipPath>
</defs>
</svg>
