<svg width="24" height="24" viewBox="0 0 24 24" fill="none" xmlns="http://www.w3.org/2000/svg">
<g clip-path="url(#clip0_344_15692)">
<path d="M23.4999 12.5C23.3789 12.5 23.2589 12.457 23.1629 12.369L11.9999 2.17701L0.83691 12.369C0.63391 12.556 0.31791 12.542 0.13091 12.337C-0.0560898 12.133 -0.0410898 11.817 0.16291 11.631L11.6629 1.13101C11.8539 0.956006 12.1469 0.956006 12.3369 1.13101L23.8369 11.631C24.0409 11.817 24.0559 12.133 23.8689 12.337C23.7709 12.445 23.6349 12.5 23.4999 12.5Z" fill="black"/>
<path d="M12.4999 23H3.99991V12.5C3.99991 12.224 3.77591 12 3.49991 12C3.22391 12 2.99991 12.224 2.99991 12.5V23.5C2.99991 23.776 3.22291 24 3.49991 24H12.4999C12.7759 24 12.9999 23.776 12.9999 23.5C12.9999 23.224 12.7759 23 12.4999 23Z" fill="black"/>
<path d="M20.9999 18C21.2759 18 21.4999 18.224 21.4999 18.5C21.4999 18.776 21.2759 19 20.9999 19H18.9999V21C18.9999 21.276 18.7759 21.5 18.4999 21.5C18.2239 21.5 17.9999 21.276 17.9999 21V19H15.9999C15.7239 19 15.4999 18.776 15.4999 18.5C15.4999 18.224 15.7239 18 15.9999 18H17.9999V16C17.9999 15.724 18.2239 15.5 18.4999 15.5C18.7759 15.5 18.9999 15.724 18.9999 16V18H20.9999Z" fill="black"/>
<path fill-rule="evenodd" clip-rule="evenodd" d="M12.9999 18.5C12.9999 15.467 15.4669 13 18.4999 13C21.5329 13 23.9999 15.467 23.9999 18.5C23.9999 21.533 21.5329 24 18.4999 24C15.4669 24 12.9999 21.533 12.9999 18.5ZM13.9999 18.5C13.9999 20.982 16.0189 23 18.4999 23C20.9809 23 22.9999 20.982 22.9999 18.5C22.9999 16.019 20.9809 14 18.4999 14C16.0189 14 13.9999 16.019 13.9999 18.5Z" fill="black"/>
<path d="M15.9999 3.00001H18.9999V6.00001C18.9999 6.27601 19.2239 6.50001 19.4999 6.50001C19.7759 6.50001 19.9999 6.27601 19.9999 6.00001V2.50001C19.9999 2.22401 19.7759 2.00001 19.4999 2.00001H15.9999C15.7239 2.00001 15.4999 2.22401 15.4999 2.50001C15.4999 2.77601 15.7229 3.00001 15.9999 3.00001Z" fill="black"/>
<path fill-rule="evenodd" clip-rule="evenodd" d="M9.99991 6.50001C9.99991 6.22401 10.2229 6.00001 10.4999 6.00001H13.4999C13.7759 6.00001 13.9999 6.22401 13.9999 6.50001V9.50001C13.9999 9.77601 13.7759 10 13.4999 10H10.4999C10.2239 10 9.99991 9.77601 9.99991 9.50001V6.50001ZM10.9999 7.00001V9.00001H12.9999V7.00001H10.9999Z" fill="black"/>
</g>
<defs>
<clipPath id="clip0_344_15692">
<rect width="24" height="24" fill="white"/>
</clipPath>
</defs>
</svg>
