<svg width="24" height="24" viewBox="0 0 24 24" fill="none" xmlns="http://www.w3.org/2000/svg">
<g clip-path="url(#clip0_344_15751)">
<path d="M23.5 12.5C23.379 12.5 23.259 12.457 23.163 12.369L12 2.17701L0.837032 12.369C0.633032 12.556 0.318032 12.542 0.131032 12.337C-0.0559678 12.133 -0.0409678 11.817 0.163032 11.631L11.663 1.13101C11.854 0.956006 12.147 0.956006 12.337 1.13101L23.837 11.631C24.041 11.817 24.056 12.133 23.869 12.337C23.771 12.445 23.635 12.5 23.5 12.5Z" fill="black"/>
<path d="M12.5 23H4.00003V12.5C4.00003 12.224 3.77603 12 3.50003 12C3.22403 12 3.00003 12.224 3.00003 12.5V23.5C3.00003 23.776 3.22303 24 3.50003 24H12.5C12.776 24 13 23.776 13 23.5C13 23.224 12.776 23 12.5 23Z" fill="black"/>
<path d="M18.5 17C18.224 17 18 17.224 18 17.5V21.5C18 21.776 18.224 22 18.5 22C18.776 22 19 21.776 19 21.5V17.5C19 17.224 18.776 17 18.5 17Z" fill="black"/>
<path d="M19 15.5C19 15.7761 18.7762 16 18.5 16C18.2239 16 18 15.7761 18 15.5C18 15.2239 18.2239 15 18.5 15C18.7762 15 19 15.2239 19 15.5Z" fill="black"/>
<path fill-rule="evenodd" clip-rule="evenodd" d="M18.5 13C15.467 13 13 15.467 13 18.5C13 21.533 15.467 24 18.5 24C21.533 24 24 21.533 24 18.5C24 15.467 21.533 13 18.5 13ZM18.5 23C16.019 23 14 20.982 14 18.5C14 16.019 16.019 14 18.5 14C20.981 14 23 16.019 23 18.5C23 20.982 20.981 23 18.5 23Z" fill="black"/>
<path d="M16 3.00001H19V6.00001C19 6.27601 19.224 6.50001 19.5 6.50001C19.776 6.50001 20 6.27601 20 6.00001V2.50001C20 2.22401 19.776 2.00001 19.5 2.00001H16C15.724 2.00001 15.5 2.22401 15.5 2.50001C15.5 2.77601 15.723 3.00001 16 3.00001Z" fill="black"/>
<path fill-rule="evenodd" clip-rule="evenodd" d="M10 6.50001C10 6.22401 10.223 6.00001 10.5 6.00001H13.5C13.776 6.00001 14 6.22401 14 6.50001V9.50001C14 9.77601 13.776 10 13.5 10H10.5C10.224 10 10 9.77601 10 9.50001V6.50001ZM11 7.00001V9.00001H13V7.00001H11Z" fill="black"/>
</g>
<defs>
<clipPath id="clip0_344_15751">
<rect width="24" height="24" fill="white"/>
</clipPath>
</defs>
</svg>
