<svg width="24" height="24" viewBox="0 0 24 24" fill="none" xmlns="http://www.w3.org/2000/svg">
<g clip-path="url(#clip0_344_15815)">
<path d="M23.4999 12.5C23.3789 12.5 23.2589 12.457 23.1629 12.369L11.9999 2.17701L0.83691 12.369C0.63291 12.556 0.31891 12.542 0.13091 12.337C-0.0560898 12.133 -0.0410898 11.817 0.16291 11.631L11.6629 1.13101C11.8539 0.956006 12.1469 0.956006 12.3369 1.13101L23.8369 11.631C24.0409 11.817 24.0559 12.133 23.8689 12.337C23.7709 12.445 23.6349 12.5 23.4999 12.5Z" fill="black"/>
<path d="M11.4999 23H3.99991V12.5C3.99991 12.224 3.77591 12 3.49991 12C3.22391 12 2.99991 12.224 2.99991 12.5V23.5C2.99991 23.776 3.22291 24 3.49991 24H11.4999C11.7759 24 11.9999 23.776 11.9999 23.5C11.9999 23.224 11.7759 23 11.4999 23Z" fill="black"/>
<path d="M17.9999 17V20C17.9999 20.276 18.2239 20.5 18.4999 20.5C18.7759 20.5 18.9999 20.276 18.9999 20V17C18.9999 16.724 18.7759 16.5 18.4999 16.5C18.2239 16.5 17.9999 16.724 17.9999 17Z" fill="black"/>
<path d="M18.9999 21.5C18.9999 21.7761 18.7761 22 18.4999 22C18.2238 22 17.9999 21.7761 17.9999 21.5C17.9999 21.2239 18.2238 21 18.4999 21C18.7761 21 18.9999 21.2239 18.9999 21.5Z" fill="black"/>
<path fill-rule="evenodd" clip-rule="evenodd" d="M23.8979 23.172L18.9519 12.785C18.7859 12.436 18.2149 12.436 18.0489 12.785L13.0489 23.285C12.9749 23.44 12.9869 23.622 13.0779 23.767C13.1689 23.912 13.3289 24 13.4999 24H23.5199C23.7959 24 24.0199 23.776 24.0199 23.5C24.0199 23.375 23.9739 23.261 23.8979 23.172ZM14.2919 23L18.4999 14.163L22.7079 23H14.2919Z" fill="black"/>
<path d="M15.9999 3.00001H18.9999V6.00001C18.9999 6.27601 19.2239 6.50001 19.4999 6.50001C19.7759 6.50001 19.9999 6.27601 19.9999 6.00001V2.50001C19.9999 2.22401 19.7759 2.00001 19.4999 2.00001H15.9999C15.7239 2.00001 15.4999 2.22401 15.4999 2.50001C15.4999 2.77601 15.7229 3.00001 15.9999 3.00001Z" fill="black"/>
<path fill-rule="evenodd" clip-rule="evenodd" d="M9.99991 6.50001C9.99991 6.22401 10.2229 6.00001 10.4999 6.00001H13.4999C13.7759 6.00001 13.9999 6.22401 13.9999 6.50001V9.50001C13.9999 9.77601 13.7759 10 13.4999 10H10.4999C10.2239 10 9.99991 9.77601 9.99991 9.50001V6.50001ZM10.9999 7.00001V9.00001H12.9999V7.00001H10.9999Z" fill="black"/>
</g>
<defs>
<clipPath id="clip0_344_15815">
<rect width="24" height="24" fill="white"/>
</clipPath>
</defs>
</svg>
