<svg width="24" height="24" viewBox="0 0 24 24" fill="none" xmlns="http://www.w3.org/2000/svg">
<g clip-path="url(#clip0_344_15754)">
<path d="M12.3361 1.13101L23.8361 11.631C24.0411 11.817 24.0551 12.133 23.8691 12.337C23.7711 12.445 23.6351 12.5 23.5001 12.5C23.3791 12.5 23.2591 12.457 23.1631 12.369L12.0001 2.17701L0.836056 12.369C0.632056 12.556 0.317056 12.542 0.130056 12.337C-0.0569443 12.133 -0.0419443 11.817 0.162056 11.631L11.6621 1.13101C11.8531 0.956006 12.1461 0.956006 12.3361 1.13101Z" fill="black"/>
<path d="M4.00006 23H13.5001C13.7761 23 14.0001 23.224 14.0001 23.5C14.0001 23.776 13.7761 24 13.5001 24H3.50006C3.22306 24 3.00006 23.776 3.00006 23.5V12.5C3.00006 12.224 3.22406 12 3.50006 12C3.77606 12 4.00006 12.224 4.00006 12.5V23Z" fill="black"/>
<path d="M16.0001 3.00001H19.0001V6.00001C19.0001 6.27601 19.2241 6.50001 19.5001 6.50001C19.7761 6.50001 20.0001 6.27601 20.0001 6.00001V2.50001C20.0001 2.22401 19.7761 2.00001 19.5001 2.00001H16.0001C15.7241 2.00001 15.5001 2.22401 15.5001 2.50001C15.5001 2.77601 15.7231 3.00001 16.0001 3.00001Z" fill="black"/>
<path fill-rule="evenodd" clip-rule="evenodd" d="M14.0001 9.50001C14.0001 9.77601 13.7761 10 13.5001 10H10.5001C10.2241 10 10.0001 9.77601 10.0001 9.50001V6.50001C10.0001 6.22401 10.2231 6.00001 10.5001 6.00001H13.5001C13.7761 6.00001 14.0001 6.22401 14.0001 6.50001V9.50001ZM13.0001 9.00001V7.00001H11.0001V9.00001H13.0001Z" fill="black"/>
<path fill-rule="evenodd" clip-rule="evenodd" d="M16.0001 16.5C16.0001 15.397 16.8971 14.5 18.0001 14.5C19.1031 14.5 20.0001 15.397 20.0001 16.5C20.0001 17.603 19.1031 18.5 18.0001 18.5C16.8971 18.5 16.0001 17.603 16.0001 16.5ZM17.0001 16.5C17.0001 17.051 17.4491 17.5 18.0001 17.5C18.5511 17.5 19.0001 17.051 19.0001 16.5C19.0001 15.949 18.5511 15.5 18.0001 15.5C17.4491 15.5 17.0001 15.949 17.0001 16.5Z" fill="black"/>
<path fill-rule="evenodd" clip-rule="evenodd" d="M18.0001 12C15.5191 12 13.5001 14.019 13.5001 16.5C13.5001 18.822 17.1951 23.316 17.6161 23.82C17.7101 23.934 17.8511 24 18.0001 24C18.1491 24 18.2891 23.934 18.3841 23.82C18.8051 23.316 22.5001 18.822 22.5001 16.5C22.5001 14.019 20.4811 12 18.0001 12ZM18.0001 22.707C16.7551 21.14 14.5001 17.991 14.5001 16.5C14.5001 14.57 16.0701 13 18.0001 13C19.9301 13 21.5001 14.57 21.5001 16.5C21.5001 17.991 19.2441 21.14 18.0001 22.707Z" fill="black"/>
</g>
<defs>
<clipPath id="clip0_344_15754">
<rect width="24" height="24" fill="white"/>
</clipPath>
</defs>
</svg>
