<svg width="24" height="24" viewBox="0 0 24 24" fill="none" xmlns="http://www.w3.org/2000/svg">
<g clip-path="url(#clip0_366_12746)">
<path d="M11.6629 1.13076C11.8538 0.956414 12.1462 0.956414 12.3371 1.13076L23.8371 11.6308C24.0411 11.817 24.0554 12.1332 23.8692 12.3371C23.6831 12.5411 23.3668 12.5554 23.1629 12.3692L12 2.17706L0.837138 12.3692C0.633211 12.5554 0.316955 12.5411 0.13076 12.3371C-0.0554339 12.1332 -0.0410586 11.817 0.162869 11.6308L11.6629 1.13076Z" fill="black"/>
<path d="M3.5 12C3.77614 12 4 12.2239 4 12.5V23H11.5C11.7761 23 12 23.2239 12 23.5C12 23.7761 11.7761 24 11.5 24H3.5C3.22386 24 3 23.7761 3 23.5V12.5C3 12.2239 3.22386 12 3.5 12Z" fill="black"/>
<path d="M15.5 2.5C15.5 2.22386 15.7239 2 16 2H19.5C19.7761 2 20 2.22386 20 2.5V6C20 6.27614 19.7761 6.5 19.5 6.5C19.2239 6.5 19 6.27614 19 6V3H16C15.7239 3 15.5 2.77614 15.5 2.5Z" fill="black"/>
<path fill-rule="evenodd" clip-rule="evenodd" d="M10 6.5C10 6.22386 10.2239 6 10.5 6H13.5C13.7761 6 14 6.22386 14 6.5V9.5C14 9.77614 13.7761 10 13.5 10H10.5C10.2239 10 10 9.77614 10 9.5V6.5ZM11 7V9H13V7H11Z" fill="black"/>
<path fill-rule="evenodd" clip-rule="evenodd" d="M22 16C22 16.9556 21.5532 17.8069 20.8571 18.3562C22.699 19.0935 24 20.8948 24 23V23.5C24 23.7761 23.7761 24 23.5 24H14.5C14.2239 24 14 23.7761 14 23.5V23C14 20.8948 15.301 19.0935 17.1429 18.3562C16.4468 17.8069 16 16.9556 16 16C16 14.3431 17.3431 13 19 13C20.6569 13 22 14.3431 22 16ZM19 14C17.8954 14 17 14.8954 17 16C17 17.1046 17.8954 18 19 18C20.1046 18 21 17.1046 21 16C21 14.8954 20.1046 14 19 14ZM15 23C15 20.7909 16.7909 19 19 19C21.2091 19 23 20.7909 23 23H15Z" fill="black"/>
</g>
<defs>
<clipPath id="clip0_366_12746">
<rect width="24" height="24" fill="white"/>
</clipPath>
</defs>
</svg>
