<svg width="24" height="24" viewBox="0 0 24 24" fill="none" xmlns="http://www.w3.org/2000/svg">
<g clip-path="url(#clip0_344_15812)">
<path d="M23.4999 12.5C23.3789 12.5 23.2589 12.457 23.1629 12.369L11.9999 2.17701L0.83691 12.369C0.63391 12.556 0.31791 12.542 0.13091 12.337C-0.0560898 12.133 -0.0410898 11.817 0.16291 11.631L11.6629 1.13101C11.8539 0.956006 12.1469 0.956006 12.3369 1.13101L23.8369 11.631C24.0409 11.817 24.0559 12.133 23.8689 12.337C23.7709 12.445 23.6349 12.5 23.4999 12.5Z" fill="black"/>
<path d="M12.4999 23H3.99991V12.5C3.99991 12.224 3.77591 12 3.49991 12C3.22391 12 2.99991 12.224 2.99991 12.5V23.5C2.99991 23.776 3.22291 24 3.49991 24H12.4999C12.7759 24 12.9999 23.776 12.9999 23.5C12.9999 23.224 12.7759 23 12.4999 23Z" fill="black"/>
<path d="M20.3959 15.896C20.5909 15.701 20.9079 15.701 21.1029 15.896C21.2979 16.091 21.2979 16.407 21.1049 16.603L19.2089 18.499L21.1049 20.395C21.2999 20.59 21.2999 20.907 21.1049 21.102C21.0069 21.199 20.8789 21.248 20.7509 21.248C20.6229 21.248 20.4949 21.2 20.3969 21.102L18.5009 19.206L16.6049 21.102C16.5069 21.199 16.3789 21.248 16.2509 21.248C16.1229 21.248 15.9949 21.2 15.8969 21.102C15.7019 20.907 15.7019 20.59 15.8969 20.395L17.7929 18.499L15.8969 16.603C15.7019 16.408 15.7019 16.091 15.8969 15.896C16.0919 15.701 16.4089 15.701 16.6039 15.896L18.4999 17.792L20.3959 15.896Z" fill="black"/>
<path fill-rule="evenodd" clip-rule="evenodd" d="M12.9989 18.499C12.9989 15.466 15.4659 12.999 18.4989 12.999C21.5319 12.999 23.9989 15.466 23.9989 18.499C23.9989 21.531 21.5319 23.999 18.4999 24C15.4669 23.999 12.9989 21.531 12.9989 18.499ZM13.9989 18.499C13.9989 20.98 16.0179 22.999 18.4999 23C20.9799 22.999 22.9989 20.98 22.9989 18.499C22.9989 16.018 20.9799 13.999 18.4989 13.999C16.0179 13.999 13.9989 16.018 13.9989 18.499Z" fill="black"/>
<path d="M15.9999 3.00001H18.9999V6.00001C18.9999 6.27601 19.2239 6.50001 19.4999 6.50001C19.7759 6.50001 19.9999 6.27601 19.9999 6.00001V2.50001C19.9999 2.22401 19.7759 2.00001 19.4999 2.00001H15.9999C15.7239 2.00001 15.4999 2.22401 15.4999 2.50001C15.4999 2.77601 15.7229 3.00001 15.9999 3.00001Z" fill="black"/>
<path fill-rule="evenodd" clip-rule="evenodd" d="M9.99991 6.50001C9.99991 6.22401 10.2229 6.00001 10.4999 6.00001H13.4999C13.7759 6.00001 13.9999 6.22401 13.9999 6.50001V9.50001C13.9999 9.77601 13.7759 10 13.4999 10H10.4999C10.2239 10 9.99991 9.77601 9.99991 9.50001V6.50001ZM10.9999 7.00001V9.00001H12.9999V7.00001H10.9999Z" fill="black"/>
</g>
<defs>
<clipPath id="clip0_344_15812">
<rect width="24" height="24" fill="white"/>
</clipPath>
</defs>
</svg>
