<svg width="24" height="24" viewBox="0 0 24 24" fill="none" xmlns="http://www.w3.org/2000/svg">
<path d="M14.6858 11.7451C14.8212 11.5044 14.7358 11.1996 14.4952 11.0642C14.2545 10.9288 13.9496 11.0142 13.8142 11.2549L9.31424 19.2549C9.17886 19.4955 9.26422 19.8004 9.5049 19.9358C9.74558 20.0712 10.0504 19.9858 10.1858 19.7451L14.6858 11.7451Z" fill="black"/>
<path fill-rule="evenodd" clip-rule="evenodd" d="M13.5393 15.7858C13.8818 15.3291 14.3931 15 15 15C15.6069 15 16.1182 15.3291 16.4607 15.7858C16.803 16.2423 17 16.85 17 17.5C17 18.15 16.803 18.7577 16.4607 19.2142C16.1182 19.6709 15.6069 20 15 20C14.3931 20 13.8818 19.6709 13.5393 19.2142C13.197 18.7577 13 18.15 13 17.5C13 16.85 13.197 16.2423 13.5393 15.7858ZM14.3393 16.3858C14.1388 16.6532 14 17.0454 14 17.5C14 17.9546 14.1388 18.3468 14.3393 18.6142C14.5398 18.8814 14.7785 19 15 19C15.2215 19 15.4602 18.8814 15.6607 18.6142C15.8612 18.3468 16 17.9546 16 17.5C16 17.0454 15.8612 16.6532 15.6607 16.3858C15.4602 16.1186 15.2215 16 15 16C14.7785 16 14.5398 16.1186 14.3393 16.3858Z" fill="black"/>
<path fill-rule="evenodd" clip-rule="evenodd" d="M7.53934 11.7858C7.88182 11.3291 8.39312 11 9 11C9.60688 11 10.1182 11.3291 10.4607 11.7858C10.803 12.2423 11 12.85 11 13.5C11 14.15 10.803 14.7577 10.4607 15.2142C10.1182 15.6709 9.60688 16 9 16C8.39312 16 7.88182 15.6709 7.53934 15.2142C7.19697 14.7577 7 14.15 7 13.5C7 12.85 7.19697 12.2423 7.53934 11.7858ZM8.33934 12.3858C8.13881 12.6532 8 13.0454 8 13.5C8 13.9546 8.13881 14.3468 8.33934 14.6142C8.53975 14.8814 8.77845 15 9 15C9.22155 15 9.46025 14.8814 9.66066 14.6142C9.86119 14.3468 10 13.9546 10 13.5C10 13.0454 9.86119 12.6532 9.66066 12.3858C9.46025 12.1186 9.22155 12 9 12C8.77845 12 8.53975 12.1186 8.33934 12.3858Z" fill="black"/>
<path fill-rule="evenodd" clip-rule="evenodd" d="M12 0.5L12.3988 0.198465L12.4051 0.206787L12.4228 0.230244L12.4907 0.321035C12.55 0.400552 12.6366 0.517379 12.7468 0.667423C12.9671 0.967489 13.2814 1.40054 13.6583 1.93383C14.4119 2.99994 15.4175 4.46885 16.4239 6.07801C17.4293 7.68546 18.4412 9.44187 19.2034 11.0815C19.9568 12.7021 20.5 14.2777 20.5 15.5C20.5 20.1944 16.6944 24 12 24C7.30558 24 3.5 20.1944 3.5 15.5C3.5 14.2777 4.04324 12.7021 4.7966 11.0815C5.55882 9.44187 6.57071 7.68546 7.57609 6.07801C8.58253 4.46885 9.58814 2.99994 10.3417 1.93383C10.7186 1.40054 11.0329 0.967489 11.2532 0.667423C11.3634 0.517379 11.45 0.400552 11.5093 0.321035L11.5772 0.230244L11.5949 0.206787L11.6012 0.198465L12 0.5ZM11.1583 2.51103C11.4986 2.02954 11.7871 1.63097 12 1.3401C12.2129 1.63097 12.5014 2.02954 12.8417 2.51103C13.5881 3.56706 14.5825 5.01972 15.5761 6.60828C16.5707 8.19855 17.5588 9.91599 18.2966 11.5031C19.0432 13.1092 19.5 14.5131 19.5 15.5C19.5 19.6421 16.1421 23 12 23C7.85786 23 4.5 19.6421 4.5 15.5C4.5 14.5131 4.95676 13.1092 5.7034 11.5031C6.44118 9.91599 7.42929 8.19855 8.42391 6.60828C9.41747 5.01972 10.4119 3.56706 11.1583 2.51103Z" fill="black"/>
<path d="M12 0.5C12.3988 0.198465 12.3988 0.198465 12.3988 0.198465C12.3043 0.0734653 12.1567 0 12 0C11.8433 0 11.6957 0.0734653 11.6012 0.198465C11.6012 0.198465 11.6012 0.198465 12 0.5Z" fill="black"/>
</svg>
