<svg width="24" height="24" viewBox="0 0 24 24" fill="none" xmlns="http://www.w3.org/2000/svg">
<path d="M20 1H0.5C0.224 1 0 0.776 0 0.5C0 0.224 0.224 0 0.5 0H20C20.276 0 20.5 0.224 20.5 0.5C20.5 0.776 20.276 1 20 1Z" fill="black"/>
<path d="M23.5 4H5.5C5.224 4 5 3.776 5 3.5C5 3.224 5.224 3 5.5 3H23.5C23.776 3 24 3.224 24 3.5C24 3.776 23.776 4 23.5 4Z" fill="black"/>
<path d="M7.5 7H20.5C20.776 7 21 6.776 21 6.5C21 6.224 20.776 6 20.5 6H7.5C7.224 6 7 6.224 7 6.5C7 6.776 7.224 7 7.5 7Z" fill="black"/>
<path d="M17.5 10H3.5C3.224 10 3 9.776 3 9.5C3 9.224 3.224 9 3.5 9H17.5C17.776 9 18 9.224 18 9.5C18 9.776 17.776 10 17.5 10Z" fill="black"/>
<path d="M8.5 13H19.5C19.776 13 20 12.776 20 12.5C20 12.224 19.776 12 19.5 12H8.5C8.224 12 8 12.224 8 12.5C8 12.776 8.224 13 8.5 13Z" fill="black"/>
<path d="M21.5 16H12.5C12.224 16 12 15.776 12 15.5C12 15.224 12.224 15 12.5 15H21.5C21.776 15 22 15.224 22 15.5C22 15.776 21.776 16 21.5 16Z" fill="black"/>
<path d="M16 18.5C16 18.776 16.224 19 16.5 19H23.5C23.776 19 24 18.776 24 18.5C24 18.224 23.776 18 23.5 18H16.5C16.224 18 16 18.224 16 18.5Z" fill="black"/>
<path d="M21.5 22H17.5C17.224 22 17 21.776 17 21.5C17 21.224 17.224 21 17.5 21H21.5C21.776 21 22 21.224 22 21.5C22 21.776 21.776 22 21.5 22Z" fill="black"/>
<path d="M15.5 24H17.5C17.776 24 18 23.776 18 23.5C18 23.224 17.776 23 17.5 23H15.5C15.224 23 15 23.224 15 23.5C15 23.776 15.224 24 15.5 24Z" fill="black"/>
</svg>
