<svg width="24" height="24" viewBox="0 0 24 24" fill="none" xmlns="http://www.w3.org/2000/svg">
<path fill-rule="evenodd" clip-rule="evenodd" d="M11.5 8C10.6707 8 10 7.32928 10 6.5C10 5.67532 10.6681 5 11.5 5C12.3273 5 13 5.67272 13 6.5C13 7.33189 12.3247 8 11.5 8ZM12 6.5C12 6.22472 11.7753 6 11.5 6C11.4253 6 11.3546 6.01636 11.291 6.04564C11.1197 6.1245 11 6.29743 11 6.5C11 6.77728 11.2227 7 11.5 7C11.7779 7 12 6.77468 12 6.5Z" fill="black"/>
<path d="M10 10C9.72386 10 9.5 10.2239 9.5 10.5C9.5 10.7761 9.72386 11 10 11H11.5V18H9.5C9.22386 18 9 18.2239 9 18.5C9 18.7761 9.22386 19 9.5 19H14.5C14.7761 19 15 18.7761 15 18.5C15 18.2239 14.7761 18 14.5 18H12.5V10.5C12.5 10.2239 12.2761 10 12 10H10Z" fill="black"/>
<path fill-rule="evenodd" clip-rule="evenodd" d="M12 0C5.37258 0 0 5.37258 0 12C0 18.6274 5.37258 24 12 24C18.6274 24 24 18.6274 24 12C24 5.37258 18.6274 0 12 0ZM1 12C1 5.92487 5.92487 1 12 1C18.0751 1 23 5.92487 23 12C23 18.0751 18.0751 23 12 23C5.92487 23 1 18.0751 1 12Z" fill="black"/>
</svg>
