<svg width="24" height="24" viewBox="0 0 24 24" fill="none" xmlns="http://www.w3.org/2000/svg">
<path fill-rule="evenodd" clip-rule="evenodd" d="M17.4236 2.5C15.1092 2.5 12.9244 3.56855 11.5034 5.39545L10.1053 7.19303C9.98808 7.34377 9.96694 7.54813 10.0508 7.71968C10.1347 7.89122 10.309 8 10.5 8H19.5C19.6693 8 19.827 7.91437 19.9192 7.77246C20.0115 7.63054 20.0256 7.4516 19.9569 7.29693L17.9569 2.79693C17.8767 2.61637 17.6976 2.5 17.5 2.5H17.4236ZM12.2928 6.00939C13.4737 4.49108 15.2634 3.57715 17.1771 3.50466L18.7306 7H11.5223L12.2928 6.00939Z" fill="black"/>
<path d="M5.5 10C5.22386 10 5 10.2239 5 10.5C5 10.7761 5.22386 11 5.5 11H20.5C20.7761 11 21 10.7761 21 10.5C21 10.2239 20.7761 10 20.5 10H5.5Z" fill="black"/>
<path fill-rule="evenodd" clip-rule="evenodd" d="M0.801317 10.7793C4.10446 4.17304 10.8566 0 18.2426 0H19.5C19.6976 0 19.8767 0.116367 19.9569 0.296931L21.1583 3H22.5C22.7761 3 23 3.22386 23 3.5C23 3.77614 22.7761 4 22.5 4H21.6027L23.9569 9.29693C24.0076 9.41093 24.0138 9.53976 23.9743 9.65811L22.9743 12.6581C22.9063 12.8623 22.7152 13 22.5 13H0.500001C0.326712 13 0.165778 12.9103 0.0746751 12.7629C-0.0164282 12.6155 -0.0247102 12.4314 0.0527869 12.2764L0.801317 10.7793ZM18.2426 1C11.2354 1 4.8295 4.95904 1.69574 11.2265L1.30902 12H22.1396L22.9643 9.52586L19.1751 1H18.2426Z" fill="black"/>
<path d="M0 14.5C0 14.2239 0.223858 14 0.500001 14H22.5C22.7761 14 23 14.2239 23 14.5C23 14.7761 22.7761 15 22.5 15H0.500001C0.223858 15 0 14.7761 0 14.5Z" fill="black"/>
<path d="M5.38689 17.146C5.58189 16.951 5.89889 16.951 6.09389 17.146C7.20389 18.256 6.65389 19.621 6.21089 20.718C5.75789 21.843 5.50889 22.562 6.09389 23.147C6.28889 23.342 6.28889 23.659 6.09389 23.854C5.99589 23.951 5.86689 24 5.73989 24C5.61289 24 5.48489 23.951 5.38689 23.853C4.30489 22.77 4.84689 21.425 5.28389 20.343C5.74589 19.197 5.99789 18.464 5.38689 17.853C5.19189 17.659 5.19189 17.341 5.38689 17.146Z" fill="black"/>
<path d="M11.3869 17.146C11.5819 16.951 11.8989 16.951 12.0939 17.146C13.2039 18.256 12.6539 19.621 12.2109 20.718C11.7579 21.843 11.5089 22.562 12.0939 23.147C12.2889 23.342 12.2889 23.659 12.0939 23.854C11.9959 23.951 11.8669 24 11.7399 24C11.6129 24 11.4849 23.951 11.3869 23.853C10.3049 22.77 10.8469 21.425 11.2839 20.343C11.7459 19.197 11.9979 18.464 11.3869 17.853C11.1919 17.659 11.1919 17.341 11.3869 17.146Z" fill="black"/>
<path d="M18.5939 17.146C18.3989 16.951 18.0819 16.951 17.8869 17.146C17.6919 17.341 17.6919 17.659 17.8869 17.853C18.4979 18.464 18.2459 19.197 17.7839 20.343C17.3469 21.425 16.8049 22.77 17.8869 23.853C17.9849 23.951 18.1129 24 18.2399 24C18.3669 24 18.4959 23.951 18.5939 23.854C18.7889 23.659 18.7889 23.342 18.5939 23.147C18.0089 22.562 18.2579 21.843 18.7109 20.718C19.1539 19.621 19.7039 18.256 18.5939 17.146Z" fill="black"/>
</svg>
