<svg width="24" height="24" viewBox="0 0 24 24" fill="none" xmlns="http://www.w3.org/2000/svg">
<g clip-path="url(#clip0_344_15833)">
<path fill-rule="evenodd" clip-rule="evenodd" d="M3 18C3 16.346 4.346 15 6 15C7.654 15 9 16.346 9 18C9 19.654 7.654 21 6 21C4.346 21 3 19.654 3 18ZM4 18C4 19.103 4.897 20 6 20C7.103 20 8 19.103 8 18C8 16.897 7.103 16 6 16C4.897 16 4 16.897 4 18Z" fill="black"/>
<path fill-rule="evenodd" clip-rule="evenodd" d="M21.207 5.50002L23.354 7.64602C23.549 7.84202 23.549 8.15902 23.353 8.35402L21.853 9.85402C21.658 10.049 21.341 10.049 21.146 9.85402L19 7.70702L18.207 8.50002L19.853 10.147C20.048 10.342 20.048 10.659 19.853 10.854L18.353 12.354C18.158 12.549 17.841 12.549 17.646 12.354L16 10.708L11.371 15.336C11.784 16.165 12 17.078 12 18C12 21.309 9.309 24 6 24C2.691 24 0 21.309 0 18C0 14.691 2.691 12 6 12C6.922 12 7.835 12.216 8.664 12.629L19.646 1.64602C20.394 0.901022 21.607 0.902022 22.353 1.64602C22.716 2.00902 22.915 2.49002 22.915 3.00202C22.914 3.51302 22.715 3.99302 22.353 4.35402L21.207 5.50002ZM19.354 6.64702L21.5 8.79302L22.293 8.00002L20.146 5.85402C19.951 5.65902 19.951 5.34202 20.146 5.14702L21.646 3.64702C21.819 3.47402 21.914 3.24502 21.914 3.00102C21.914 2.75702 21.819 2.52702 21.646 2.35402C21.29 1.99802 20.71 1.99902 20.353 2.35402L9.108 13.599C8.948 13.76 8.699 13.791 8.504 13.678C7.741 13.234 6.875 13 6 13C3.243 13 1 15.243 1 18C1 20.757 3.243 23 6 23C8.757 23 11 20.757 11 18C11 17.125 10.766 16.26 10.323 15.496C10.209 15.301 10.242 15.053 10.402 14.892L15.647 9.64802C15.842 9.45202 16.159 9.45202 16.354 9.64802L18 11.293L18.793 10.5L17.147 8.85402C16.952 8.65902 16.952 8.34202 17.147 8.14702L18.647 6.64702C18.842 6.45202 19.159 6.45202 19.354 6.64702Z" fill="black"/>
</g>
<defs>
<clipPath id="clip0_344_15833">
<rect width="24" height="24" fill="white"/>
</clipPath>
</defs>
</svg>
