<svg width="24" height="24" viewBox="0 0 24 24" fill="none" xmlns="http://www.w3.org/2000/svg">
<path d="M22.854 18.026L17.658 12.83C18.743 10.558 18.287 7.801 16.49 6.005C15.41 4.925 13.995 4.321 12.501 4.261V2.5C12.5 1.122 11.378 0 10 0C8.622 0 7.5 1.122 7.5 2.5V3.026C4.425 3.281 2 5.86 2 9C2 11.541 3.627 13.812 6 14.652V15.293L5.146 16.146C5.053 16.239 5 16.367 5 16.499C5 16.631 5.053 16.759 5.146 16.853L6 17.707V18.293L5.146 19.147C4.951 19.342 4.951 19.659 5.146 19.854L6 20.707V22C6 22.133 6.053 22.26 6.146 22.354L7.646 23.854C7.744 23.951 7.872 24 8 24C8.128 24 8.256 23.951 8.354 23.854L9.854 22.354C9.947 22.26 10 22.133 10 22V15.805C11.555 16.43 13.326 16.382 14.85 15.648L15.5 16.225V17.5C15.5 17.776 15.724 18 16 18H17.286L17.5 18.225V19.5C17.5 19.776 17.724 20 18 20H19.119L20.036 20.864C20.129 20.951 20.251 21 20.379 21H22.5C22.776 21 23 20.776 23 20.5V18.379C23 18.246 22.947 18.119 22.854 18.026ZM10 1C10.827 1 11.5 1.673 11.5 2.5V4.137C10.641 3.517 9.614 3.119 8.5 3.026V2.5C8.5 1.673 9.173 1 10 1ZM8 7.5C8.276 7.5 8.5 7.276 8.5 7V6.154C8.793 6.328 9 6.635 9 7C9 7.551 8.551 8 8 8C7.449 8 7 7.551 7 7C7 6.635 7.207 6.328 7.5 6.154V7C7.5 7.276 7.724 7.5 8 7.5ZM9 21.793L8 22.793L7 21.793V20.5C7 20.367 6.947 20.24 6.854 20.146L6.207 19.5L6.853 18.854C6.947 18.76 7 18.633 7 18.5V17.5C7 17.368 6.947 17.24 6.854 17.146L6.207 16.5L6.853 15.854C6.947 15.76 7 15.633 7 15.5V14.287C7 14.063 6.852 13.867 6.636 13.807C4.495 13.2 3 11.223 3 9C3 6.415 4.98 4.306 7.5 4.051V5.071C6.64 5.294 6 6.071 6 7C6 8.103 6.897 9 8 9C9.103 9 10 8.103 10 7C10 6.071 9.36 5.294 8.5 5.071V4.051C11.02 4.306 13 6.415 13 9C13 11.223 11.505 13.2 9.364 13.807C9.148 13.867 9 14.063 9 14.287V21.793ZM22 20H20.577L19.66 19.136C19.567 19.049 19.445 19 19.317 19H18.5V18.024C18.5 17.896 18.451 17.772 18.362 17.679L17.862 17.155C17.768 17.056 17.637 17 17.5 17H16.5V16C16.5 15.857 16.439 15.721 16.332 15.626L15.257 14.672C15.098 14.531 14.867 14.507 14.681 14.61C13.233 15.418 11.468 15.441 10 14.703C10 14.703 14 13.259 14 9C14 7.59 13.508 6.294 12.69 5.268C13.848 5.368 14.938 5.867 15.782 6.711C17.355 8.283 17.695 10.738 16.609 12.681C16.5 12.876 16.534 13.12 16.692 13.278L22 18.586V20Z" fill="black"/>
</svg>
