<svg width="24" height="24" viewBox="0 0 24 24" fill="none" xmlns="http://www.w3.org/2000/svg">
<path d="M11 0.5C11 0.224 11.224 0 11.5 0C11.776 0 12 0.224 12 0.5V5.5C12 7.259 10.691 8.704 9 8.949V23.5C9 23.776 8.776 24 8.5 24C8.224 24 8 23.776 8 23.5V8.949C6.309 8.704 5 7.259 5 5.5V0.5C5 0.224 5.224 0 5.5 0C5.776 0 6 0.224 6 0.5V5.5C6 6.708 6.86 7.717 8 7.949V0.5C8 0.224 8.224 0 8.5 0C8.776 0 9 0.224 9 0.5V7.949C10.14 7.717 11 6.708 11 5.5V0.5Z" fill="black"/>
<path fill-rule="evenodd" clip-rule="evenodd" d="M15.5 0C15.58 0 15.652 0.023 15.719 0.056C17.833 0.634 19 9.377 19 15.5C19 15.776 18.776 16 18.5 16H16V23.5C16 23.776 15.776 24 15.5 24C15.224 24 15 23.776 15 23.5V0.544C14.9995 0.536588 14.9976 0.530034 14.9956 0.523444C14.9933 0.515809 14.991 0.508125 14.991 0.499C14.991 0.223 15.224 0 15.5 0ZM16 1.699V15H17.998C17.944 8.328 16.825 3.448 16 1.699Z" fill="black"/>
</svg>
