<svg width="24" height="24" viewBox="0 0 24 24" fill="none" xmlns="http://www.w3.org/2000/svg">
<path fill-rule="evenodd" clip-rule="evenodd" d="M22 8.5C22 13.187 18.187 17 13.5 17H12V19H13.5C15.43 19 17 20.57 17 22.5V23.5C17 23.776 16.776 24 16.5 24H6.5C6.224 24 6 23.776 6 23.5V22.5C6 20.57 7.57 19 9.5 19H11V16.5C11 16.224 11.224 16 11.5 16H13.5C17.636 16 21 12.636 21 8.5C21 4.365 17.636 1 13.5 1H9.5C8.673 1 8 1.673 8 2.5V3.026C10.799 3.279 13 5.636 13 8.5C13 8.776 12.776 9 12.5 9H2.5C2.224 9 2 8.776 2 8.5C2 5.636 4.201 3.279 7 3.026V2.5C7 1.122 8.121 0 9.5 0H13.5C18.187 0 22 3.813 22 8.5ZM7.5 4C5.187 4 3.277 5.753 3.027 8H11.973C11.723 5.753 9.813 4 7.5 4ZM16 23V22.5C16 21.122 14.879 20 13.5 20H9.5C8.121 20 7 21.122 7 22.5V23H16Z" fill="black"/>
<path d="M8 11.5C8 11.776 7.776 12 7.5 12C7.224 12 7 11.776 7 11.5V10.5C7 10.224 7.224 10 7.5 10C7.776 10 8 10.224 8 10.5V11.5Z" fill="black"/>
<path d="M11 11.5C11.075 11.5 11.151 11.483 11.224 11.447C11.471 11.323 11.571 11.023 11.448 10.776L10.948 9.776C10.824 9.528 10.524 9.429 10.277 9.552C10.03 9.676 9.93 9.976 10.053 10.223L10.553 11.223C10.641 11.399 10.817 11.5 11 11.5Z" fill="black"/>
<path d="M4.053 9.776C4.177 9.53 4.478 9.431 4.724 9.553C4.971 9.677 5.07 9.977 4.947 10.224L4.447 11.224C4.359 11.399 4.183 11.5 4 11.5C3.925 11.5 3.849 11.483 3.777 11.447C3.53 11.323 3.43 11.023 3.553 10.776L4.053 9.776Z" fill="black"/>
</svg>
