<svg width="24" height="24" viewBox="0 0 24 24" fill="none" xmlns="http://www.w3.org/2000/svg">
<path d="M9.50097 16C8.94868 16 8.50097 15.5523 8.50097 15C8.50097 14.4477 8.94868 14 9.50097 14C10.0533 14 10.501 14.4477 10.501 15C10.501 15.5523 10.0533 16 9.50097 16Z" fill="black"/>
<path fill-rule="evenodd" clip-rule="evenodd" d="M13.501 11C13.501 12.103 12.604 13 11.501 13C10.398 13 9.50097 12.103 9.50097 11C9.50097 9.897 10.398 9 11.501 9C12.604 9 13.501 9.897 13.501 11ZM12.501 11C12.501 10.448 12.053 10 11.501 10C10.949 10 10.501 10.448 10.501 11C10.501 11.552 10.949 12 11.501 12C12.053 12 12.501 11.552 12.501 11Z" fill="black"/>
<path d="M12.501 5C12.501 5.55228 12.0533 6 11.501 6C10.9487 6 10.501 5.55228 10.501 5C10.501 4.44772 10.9487 4 11.501 4C12.0533 4 12.501 4.44772 12.501 5Z" fill="black"/>
<path d="M13.501 9C14.0533 9 14.501 8.55228 14.501 8C14.501 7.44772 14.0533 7 13.501 7C12.9487 7 12.501 7.44772 12.501 8C12.501 8.55228 12.9487 9 13.501 9Z" fill="black"/>
<path d="M15.501 14C15.501 14.5523 15.0533 15 14.501 15C13.9487 15 13.501 14.5523 13.501 14C13.501 13.4477 13.9487 13 14.501 13C15.0533 13 15.501 13.4477 15.501 14Z" fill="black"/>
<path fill-rule="evenodd" clip-rule="evenodd" d="M18.321 16.883C17.137 17.871 16.525 18.871 16.502 19.856C16.478 20.89 17.096 21.991 18.339 23.132C18.491 23.271 18.542 23.49 18.467 23.682C18.393 23.873 18.207 24 18.001 24H6.00097C5.79097 24 5.60397 23.869 5.53097 23.672C5.45797 23.475 5.51697 23.254 5.67697 23.119C6.92797 22.057 7.56297 21.008 7.56297 20C7.56297 18.992 6.92897 17.943 5.67897 16.88C5.67386 16.8759 5.6711 16.8703 5.66829 16.8645C5.6656 16.859 5.66286 16.8534 5.65797 16.849C5.651 16.842 5.64308 16.8366 5.6352 16.8312C5.625 16.8241 5.61487 16.8172 5.60697 16.807C5.5746 16.7651 5.55764 16.716 5.54056 16.6665L5.53797 16.659C5.53559 16.6514 5.53186 16.6451 5.52817 16.639C5.52409 16.6321 5.52007 16.6254 5.51797 16.617C5.49897 16.539 5.49597 16.459 5.51597 16.379L9.51597 0.379C9.57097 0.156 9.77197 0 10.001 0H14.001C14.23 0 14.431 0.156 14.486 0.378L18.486 16.378C18.505 16.459 18.503 16.54 18.483 16.618C18.4809 16.6264 18.4768 16.6335 18.4727 16.6406C18.469 16.647 18.4653 16.6534 18.463 16.661L18.4582 16.6746C18.442 16.721 18.4259 16.7669 18.395 16.807C18.3866 16.8176 18.3764 16.8245 18.366 16.8314C18.3578 16.8369 18.3495 16.8425 18.342 16.85C18.338 16.8544 18.3355 16.8597 18.3331 16.8649C18.3301 16.8715 18.3271 16.878 18.321 16.883ZM13.611 1H10.392L6.64197 16H9.50097H17.361L13.611 1ZM8.56297 20C8.56297 21.011 8.11797 22.017 7.23697 23H16.819C15.919 21.942 15.477 20.88 15.501 19.833C15.524 18.863 15.947 17.914 16.759 17H7.23697C8.11797 17.983 8.56297 18.989 8.56297 20Z" fill="black"/>
</svg>
