<svg width="24" height="24" viewBox="0 0 24 24" fill="none" xmlns="http://www.w3.org/2000/svg">
<path fill-rule="evenodd" clip-rule="evenodd" d="M12 0C12.2761 0 12.5 0.223858 12.5 0.5V1.00983C18.6066 1.25051 23.5 5.89061 23.5 12.5C23.5 12.7761 23.2761 13 23 13H14.52V15.48C14.52 15.7562 14.2962 15.98 14.02 15.98C13.7439 15.98 13.52 15.7562 13.52 15.48V13H12.52V23H14.98C15.2562 23 15.48 23.2239 15.48 23.5C15.48 23.7761 15.2562 24 14.98 24H9.04004C8.7639 24 8.54004 23.7761 8.54004 23.5C8.54004 23.2239 8.7639 23 9.04004 23H11.52V13H1C0.723858 13 0.5 12.7761 0.5 12.5C0.5 5.89061 5.39153 1.25043 11.5 1.00982V0.5C11.5 0.223858 11.7239 0 12 0ZM22.4898 12C22.2454 6.05984 17.6535 2 12 2C6.34464 2 1.75452 6.05979 1.51023 12H22.4898Z" fill="black"/>
</svg>
