<svg width="24" height="24" viewBox="0 0 24 24" fill="none" xmlns="http://www.w3.org/2000/svg">
<path fill-rule="evenodd" clip-rule="evenodd" d="M8 0C6.34173 0 5 1.34299 5 3V5.17547C2.6349 6.29785 1 8.70581 1 11.5V13.5C1 13.7761 1.22386 14 1.5 14H14.5C14.7761 14 15 13.7761 15 13.5V11.5C15 8.70567 13.3632 6.29791 11 5.17558V4.01446C15.4612 4.27327 19 7.97306 19 12.5V23H14.5C14.2239 23 14 23.2239 14 23.5C14 23.7761 14.2239 24 14.5 24H22.5C22.7761 24 23 23.7761 23 23.5C23 23.2239 22.7761 23 22.5 23H20V12.5C20 7.42057 16.0137 3.27294 11 3.01293V3C11 1.34273 9.65601 0 8 0ZM10 3C10 1.89527 9.10399 1 8 1C6.89427 1 6 1.89501 6 3V5.5C6 5.70186 5.87862 5.88392 5.69228 5.96155C3.52211 6.86563 2 9.00382 2 11.5V13H14V11.5C14 9.00401 12.4761 6.86564 10.3076 5.96149C10.1213 5.88383 10 5.70181 10 5.5V3Z" fill="black"/>
</svg>
