<svg width="24" height="24" viewBox="0 0 24 24" fill="none" xmlns="http://www.w3.org/2000/svg">
<path d="M18.9937 1.424C18.9567 1.18 18.7467 1 18.4997 1H12.4997V0.5C12.4997 0.224 12.2757 0 11.9997 0C11.7237 0 11.4997 0.224 11.4997 0.5V1H5.49973C5.25273 1 5.04273 1.18 5.00573 1.424L3.00573 14.424C2.98373 14.568 3.02573 14.715 3.11973 14.825C3.21573 14.937 3.35373 15 3.49973 15H11.4997V23H8.99973C8.72373 23 8.49973 23.224 8.49973 23.5C8.49973 23.776 8.72373 24 8.99973 24H14.9997C15.2757 24 15.4997 23.776 15.4997 23.5C15.4997 23.224 15.2757 23 14.9997 23H12.4997V15H13.4997V17.5C13.4997 17.776 13.7237 18 13.9997 18C14.2757 18 14.4997 17.776 14.4997 17.5V15H20.4997C20.6457 15 20.7837 14.937 20.8797 14.826C20.9747 14.715 21.0167 14.569 20.9937 14.425L18.9937 1.424ZM4.08273 14L5.92873 2H18.0717L19.9177 14H4.08273Z" fill="black"/>
</svg>
