<svg width="24" height="24" viewBox="0 0 24 24" fill="none" xmlns="http://www.w3.org/2000/svg">
<g clip-path="url(#clip0_338_14278)">
<path d="M23.5001 23H12.0001V3H13.5791L16.2971 5.781L15.1601 6.918C15.0151 7.063 14.9731 7.281 15.0541 7.469L17.1751 12.418C17.2401 12.571 17.3771 12.681 17.5401 12.712C17.5711 12.718 17.6031 12.721 17.6351 12.721C17.7661 12.721 17.8941 12.67 17.9891 12.575L23.6451 6.918C23.7621 6.801 23.8141 6.633 23.7831 6.47C23.7521 6.307 23.6411 6.171 23.4891 6.105L18.5401 3.983C18.3521 3.902 18.1341 3.945 17.9891 4.089L17.0051 5.072L14.1461 2.15C14.0531 2.055 13.9241 2 13.7891 2H12.0001V1C12.0001 0.724 11.7761 0.5 11.5001 0.5C11.2241 0.5 11.0001 0.724 11.0001 1V5H8.85205C8.69805 5 8.55205 5.071 8.45705 5.194L6.53205 7.67L5.47005 6.836C5.30905 6.71 5.08705 6.694 4.91105 6.796L0.250051 9.493C0.106051 9.576 0.0130512 9.725 0.00105121 9.89C-0.0109488 10.056 0.0610512 10.216 0.191051 10.318L6.48205 15.26C6.57105 15.33 6.68005 15.366 6.79105 15.366C6.84205 15.366 6.89405 15.358 6.94305 15.342C7.10105 15.292 7.22305 15.166 7.27005 15.007L8.78605 9.84C8.84405 9.643 8.77605 9.433 8.61505 9.306L7.31805 8.288L9.09705 6H11.0001V23H0.500051C0.224051 23 5.12095e-05 23.224 5.12095e-05 23.5C5.12095e-05 23.776 0.224051 24 0.500051 24H23.5001C23.7761 24 24.0001 23.776 24.0001 23.5C24.0001 23.224 23.7761 23 23.5001 23ZM18.4561 5.036L22.4151 6.733L17.8041 11.345L16.1071 7.386L18.4561 5.036ZM6.52005 14.018L1.39005 9.988L5.11905 7.831L7.73205 9.884L6.52005 14.018Z" fill="black"/>
</g>
<defs>
<clipPath id="clip0_338_14278">
<rect width="24" height="24" fill="white"/>
</clipPath>
</defs>
</svg>
