<svg width="24" height="24" viewBox="0 0 24 24" fill="none" xmlns="http://www.w3.org/2000/svg">
<path d="M13 17C13 17.5523 12.5523 18 12 18C11.4477 18 11 17.5523 11 17C11 16.4477 11.4477 16 12 16C12.5523 16 13 16.4477 13 17Z" fill="black"/>
<path fill-rule="evenodd" clip-rule="evenodd" d="M15 14H21C21.276 14 21.5 14.224 21.5 14.5V23.5C21.5 23.776 21.276 24 21 24H3C2.724 24 2.5 23.776 2.5 23.5V14.5C2.5 14.224 2.724 14 3 14H9C9 12.517 10.084 11.29 11.5 11.051V8H8C7.849 8 7.706 7.932 7.612 7.815C7.517 7.697 7.48 7.543 7.511 7.395L9.011 0.395C9.061 0.165 9.265 0 9.5 0H14.5C14.735 0 14.939 0.165 14.99 0.394L16.49 7.394C16.521 7.543 16.484 7.696 16.389 7.814C16.294 7.932 16.151 8 16 8H15.5V9.5C15.5 9.776 15.276 10 15 10C14.724 10 14.5 9.776 14.5 9.5V8H12.5V11.051C13.916 11.29 15 12.517 15 14ZM14.095 1H9.904L8.618 7H15.381L14.095 1ZM20.5 21V20H3.5V21H20.5ZM14 14C14 12.897 13.103 12 12 12C10.897 12 10 12.897 10 14H14ZM20.5 15H3.5V19H20.5V15ZM3.5 22V23H20.5V22H3.5Z" fill="black"/>
</svg>
