<svg width="24" height="24" viewBox="0 0 24 24" fill="none" xmlns="http://www.w3.org/2000/svg">
<path fill-rule="evenodd" clip-rule="evenodd" d="M8.802 9.943C9.052 10.052 9.349 9.935 9.459 9.682L10.186 8H12.859L13.538 9.673C13.615 9.866 13.803 9.984 14 9.984C14.062 9.984 14.126 9.972 14.188 9.947C14.444 9.843 14.567 9.552 14.462 9.296L12.04 3.327C11.965 3.14 11.784 3.017 11.583 3.015C11.411 2.985 11.198 3.132 11.118 3.317L8.541 9.286C8.432 9.54 8.548 9.834 8.802 9.943ZM11.563 4.81L12.452 7H10.617L11.563 4.81Z" fill="black"/>
<path fill-rule="evenodd" clip-rule="evenodd" d="M8.5 12H14.5C15.879 12 17 10.879 17 9.5V3.5C17 2.121 15.879 1 14.5 1H8.5C7.121 1 6 2.121 6 3.5V9.5C6 10.879 7.121 12 8.5 12ZM7 3.5C7 2.673 7.673 2 8.5 2H14.5C15.327 2 16 2.673 16 3.5V9.5C16 10.327 15.327 11 14.5 11H8.5C7.673 11 7 10.327 7 9.5V3.5Z" fill="black"/>
<path fill-rule="evenodd" clip-rule="evenodd" d="M6 15C7.103 15 8 15.897 8 17C8 17.6 7.729 18.133 7.309 18.5C7.729 18.867 8 19.4 8 20C8 21.103 7.103 22 6 22H3.5C3.224 22 3 21.776 3 21.5V15.5C3 15.224 3.224 15 3.5 15H6ZM6 21C6.552 21 7 20.552 7 20C7 19.448 6.552 19 6 19H4V21H6ZM4 16V18H6C6.552 18 7 17.552 7 17C7 16.448 6.552 16 6 16H4Z" fill="black"/>
<path fill-rule="evenodd" clip-rule="evenodd" d="M2.5 13H8.5C9.879 13 11 14.121 11 15.5V21.5C11 22.879 9.879 24 8.5 24H2.5C1.121 24 0 22.879 0 21.5V15.5C0 14.121 1.121 13 2.5 13ZM8.5 23C9.327 23 10 22.327 10 21.5V15.5C10 14.673 9.327 14 8.5 14H2.5C1.673 14 1 14.673 1 15.5V21.5C1 22.327 1.673 23 2.5 23H8.5Z" fill="black"/>
<path d="M18.939 21C19.607 21 20.234 20.74 20.707 20.268C20.902 20.072 21.219 20.073 21.414 20.268C21.609 20.463 21.609 20.78 21.414 20.975C20.752 21.636 19.874 22 18.939 22C17.009 22 15.439 20.43 15.439 18.5C15.439 16.57 17.009 15 18.939 15C19.827 15 20.673 15.333 21.323 15.938C21.525 16.126 21.535 16.443 21.348 16.645C21.161 16.847 20.844 16.858 20.641 16.67C20.177 16.238 19.573 16 18.939 16C17.56 16 16.439 17.121 16.439 18.5C16.439 19.879 17.56 21 18.939 21Z" fill="black"/>
<path fill-rule="evenodd" clip-rule="evenodd" d="M15.5 13H21.5C22.879 13 24 14.121 24 15.5V21.5C24 22.879 22.879 24 21.5 24H15.5C14.121 24 13 22.879 13 21.5V15.5C13 14.121 14.121 13 15.5 13ZM21.5 23C22.327 23 23 22.327 23 21.5V15.5C23 14.673 22.327 14 21.5 14H15.5C14.673 14 14 14.673 14 15.5V21.5C14 22.327 14.673 23 15.5 23H21.5Z" fill="black"/>
</svg>
