<svg width="24" height="24" viewBox="0 0 24 24" fill="none" xmlns="http://www.w3.org/2000/svg">
<path d="M7.61192 5.018C7.57392 5.027 7.53692 5.031 7.49992 5.031C7.27092 5.031 7.06592 4.875 7.01292 4.644C6.95092 4.374 7.11792 4.106 7.38792 4.044L10.9999 3.211V1.5C10.9999 1.224 11.2239 1 11.4999 1C11.7759 1 11.9999 1.224 11.9999 1.5V3.609C11.9999 3.842 11.8389 4.044 11.6119 4.096L7.61192 5.018Z" fill="black"/>
<path d="M6.99992 8.516C7.04492 8.516 7.09092 8.51 7.13692 8.497L16.1369 5.934C16.4029 5.858 16.5569 5.581 16.4809 5.316C16.4059 5.05 16.1309 4.895 15.8639 4.972L6.86392 7.535C6.59792 7.61 6.44292 7.887 6.51992 8.152C6.58192 8.373 6.78192 8.516 6.99992 8.516Z" fill="black"/>
<path d="M6.86292 10.535L15.8629 7.972C16.1309 7.896 16.4049 8.051 16.4799 8.315C16.5559 8.58 16.4019 8.857 16.1359 8.933L7.13592 11.496C7.08992 11.509 7.04392 11.515 6.99892 11.515C6.78192 11.515 6.58092 11.373 6.51892 11.152C6.44292 10.887 6.59692 10.61 6.86292 10.535Z" fill="black"/>
<path fill-rule="evenodd" clip-rule="evenodd" d="M15.9999 13.766C15.9999 14.042 15.7759 14.266 15.4999 14.266C14.8079 14.266 13.9999 14.593 13.9999 15.515V16.015H15.4999C15.6439 16.015 15.7809 16.077 15.8759 16.185C15.9709 16.294 16.0149 16.437 15.9959 16.58L15.7239 18.67C15.2709 20.494 13.7779 21.768 11.9999 21.974V23.016C11.9999 23.292 11.7759 23.516 11.4999 23.516C11.2239 23.516 10.9999 23.292 10.9999 23.016V21.974C9.22192 21.768 7.72992 20.498 7.28692 18.728L7.00392 16.582C6.98492 16.439 7.02892 16.295 7.12392 16.187C7.21892 16.079 7.35592 16.017 7.49992 16.017H8.99992V15.517C8.99992 14.594 8.19192 14.267 7.49992 14.267C7.25092 14.267 7.03992 14.084 7.00492 13.837C6.96892 13.591 7.12192 13.355 7.36092 13.286L15.3609 10.974C15.6229 10.897 15.9029 11.049 15.9799 11.315C16.0559 11.58 15.9039 11.857 15.6379 11.934L9.18792 13.799C9.69792 14.198 9.99992 14.799 9.99992 15.516V16.016H12.9999V15.516C12.9999 14.191 14.0279 13.266 15.4999 13.266C15.7759 13.266 15.9999 13.49 15.9999 13.766ZM11.4999 21.016C13.0359 21.016 14.3699 19.975 14.7419 18.484L14.9319 17.016H8.06992L8.26892 18.541C8.62992 19.975 9.96392 21.016 11.4999 21.016Z" fill="black"/>
</svg>
