<svg width="24" height="24" viewBox="0 0 24 24" fill="none" xmlns="http://www.w3.org/2000/svg">
<path d="M12.5 0.5C12.5 0.223858 12.2761 0 12 0C11.7239 0 11.5 0.223858 11.5 0.5V2.5C11.5 2.77614 11.7239 3 12 3C12.2761 3 12.5 2.77614 12.5 2.5V0.5Z" fill="black"/>
<path fill-rule="evenodd" clip-rule="evenodd" d="M4.5 11.5C4.5 7.35786 7.85786 4 12 4C16.1421 4 19.5 7.35786 19.5 11.5C19.5 14.7662 17.4126 17.5436 14.5 18.5731V19.5C14.5 19.7761 14.2761 20 14 20H10C9.72386 20 9.5 19.7761 9.5 19.5V18.5731C6.58743 17.5436 4.5 14.7662 4.5 11.5ZM12 5C8.41015 5 5.5 7.91015 5.5 11.5C5.5 14.4438 7.45732 16.9317 10.1426 17.7309C10.3546 17.794 10.5 17.9889 10.5 18.2101V19H11.5V15.4343L10.7774 15.916C10.579 16.0482 10.315 16.0221 10.1464 15.8536L9.14645 14.8536C8.95118 14.6583 8.95118 14.3417 9.14645 14.1464C9.34171 13.9512 9.65829 13.9512 9.85355 14.1464L10.5637 14.8566L11.717 14.0878C11.7975 14.0324 11.8949 14 12 14C12.1051 14 12.2025 14.0324 12.283 14.0878L13.4363 14.8566L14.1464 14.1464C14.3417 13.9512 14.6583 13.9512 14.8536 14.1464C15.0488 14.3417 15.0488 14.6583 14.8536 14.8536L13.8536 15.8536C13.685 16.0221 13.421 16.0482 13.2226 15.916L12.5 15.4343V19H13.5V18.2101C13.5 17.9889 13.6454 17.794 13.8574 17.7309C16.5427 16.9317 18.5 14.4438 18.5 11.5C18.5 7.91015 15.5899 5 12 5Z" fill="black"/>
<path d="M14 21C14.276 21 14.5 21.224 14.5 21.5C14.5 21.776 14.276 22 14 22H10C9.724 22 9.5 21.776 9.5 21.5C9.5 21.224 9.724 21 10 21H14Z" fill="black"/>
<path d="M13 23C13.276 23 13.5 23.224 13.5 23.5C13.5 23.776 13.276 24 13 24H11C10.724 24 10.5 23.776 10.5 23.5C10.5 23.224 10.724 23 11 23H13Z" fill="black"/>
<path d="M20.1317 3.36829C20.3269 3.56355 20.3269 3.88013 20.1317 4.07539L18.7175 5.48961C18.5222 5.68487 18.2056 5.68487 18.0103 5.48961C17.8151 5.29434 17.8151 4.97776 18.0103 4.7825L19.4246 3.36829C19.6198 3.17302 19.9364 3.17302 20.1317 3.36829Z" fill="black"/>
<path d="M23 12C23.2761 12 23.5 11.7761 23.5 11.5C23.5 11.2239 23.2761 11 23 11H21C20.7239 11 20.5 11.2239 20.5 11.5C20.5 11.7761 20.7239 12 21 12H23Z" fill="black"/>
<path d="M20.1317 19.6317C19.9365 19.827 19.6199 19.827 19.4246 19.6317L18.0104 18.2175C17.8151 18.0223 17.8151 17.7057 18.0104 17.5104C18.2057 17.3151 18.5222 17.3151 18.7175 17.5104L20.1317 18.9246C20.327 19.1199 20.327 19.4365 20.1317 19.6317Z" fill="black"/>
<path d="M3.86833 18.9246C3.67307 19.1199 3.67307 19.4365 3.86833 19.6317C4.06359 19.827 4.38018 19.827 4.57544 19.6317L5.98965 18.2175C6.18492 18.0222 6.18492 17.7057 5.98965 17.5104C5.79439 17.3151 5.47781 17.3151 5.28255 17.5104L3.86833 18.9246Z" fill="black"/>
<path d="M0.5 11.5C0.5 11.2239 0.723858 11 1 11H3C3.27614 11 3.5 11.2239 3.5 11.5C3.5 11.7761 3.27614 12 3 12H1C0.723858 12 0.5 11.7761 0.5 11.5Z" fill="black"/>
<path d="M4.57539 3.36827C4.38013 3.17301 4.06355 3.17301 3.86829 3.36827C3.67302 3.56353 3.67302 3.88012 3.86829 4.07538L5.2825 5.48959C5.47776 5.68485 5.79434 5.68485 5.98961 5.48959C6.18487 5.29433 6.18487 4.97775 5.98961 4.78249L4.57539 3.36827Z" fill="black"/>
</svg>
