<svg width="24" height="24" viewBox="0 0 24 24" fill="none" xmlns="http://www.w3.org/2000/svg">
<path d="M17 15H16.5V4C16.5 2.622 15.379 1.5 14 1.5C13.179 1.5 12.456 1.903 12 2.515C11.544 1.903 10.821 1.5 10 1.5C8.621 1.5 7.5 2.622 7.5 4V15H7C6.724 15 6.5 15.224 6.5 15.5V16.5C6.5 19.364 8.701 21.721 11.5 21.975V23.5C11.5 23.776 11.724 24 12 24C12.276 24 12.5 23.776 12.5 23.5V21.975C15.299 21.721 17.5 19.365 17.5 16.5V15.5C17.5 15.224 17.276 15 17 15ZM14 2.5C14.827 2.5 15.5 3.173 15.5 4V15H12.5V4C12.5 3.173 13.173 2.5 14 2.5ZM8.5 4C8.5 3.173 9.173 2.5 10 2.5C10.827 2.5 11.5 3.173 11.5 4V15H8.5V4ZM16.5 16.5C16.5 18.982 14.481 21 12 21C9.519 21 7.5 18.982 7.5 16.5V16H8H16H16.5V16.5Z" fill="black"/>
</svg>
