<svg width="24" height="24" viewBox="0 0 24 24" fill="none" xmlns="http://www.w3.org/2000/svg">
<path d="M6 9.5C6 9.224 6.224 9 6.5 9H16.5C16.776 9 17 9.224 17 9.5C17 9.776 16.776 10 16.5 10H6.5C6.224 10 6 9.776 6 9.5Z" fill="black"/>
<path fill-rule="evenodd" clip-rule="evenodd" d="M2 10C2 4.299 6.084 0 11.5 0C16.916 0 21 4.299 21 10C21 17.173 12.168 23.634 11.793 23.905C11.706 23.969 11.603 24 11.5 24C11.397 24 11.294 23.969 11.207 23.905C10.832 23.634 2 17.173 2 10ZM3 10C3 15.961 9.972 21.69 11.5 22.873C13.028 21.69 20 15.961 20 10C20 4.869 16.346 1 11.5 1C6.654 1 3 4.869 3 10Z" fill="black"/>
</svg>
