<svg width="24" height="24" viewBox="0 0 24 24" fill="none" xmlns="http://www.w3.org/2000/svg">
<path fill-rule="evenodd" clip-rule="evenodd" d="M11.869 3.006L12.127 3C15.434 3 18.125 5.683 18.125 8.979C18.125 12.299 15.426 15 12.109 15C8.81 15 6.125 12.255 6.125 8.881C6.125 5.664 8.594 3.138 11.869 3.006ZM14.809 7H16.708C16.129 5.677 14.984 4.67 13.584 4.241C14.18 5.111 14.588 6.037 14.809 7ZM17.02 10C17.088 9.67 17.125 9.329 17.125 8.979C17.125 8.644 17.089 8.317 17.026 8H14.976C15.037 8.656 15.009 9.325 14.904 10H17.02ZM10.275 8C10.203 8.654 10.228 9.323 10.349 10H13.906C14.027 9.323 14.052 8.654 13.98 8H10.275ZM12.127 13.966C12.836 12.979 13.345 11.984 13.655 11H10.6C10.91 11.984 11.419 12.979 12.127 13.966ZM7.21 8C7.159 8.286 7.125 8.579 7.125 8.881C7.125 9.267 7.174 9.639 7.253 10H9.35C9.245 9.325 9.217 8.656 9.279 8H7.21ZM12.123 4C11.303 4.93 10.751 5.939 10.466 7H13.79C13.505 5.939 12.952 4.929 12.132 4H12.123ZM9.446 7C9.669 6.026 10.085 5.09 10.692 4.211C9.222 4.623 8.054 5.641 7.493 7H9.446ZM9.561 11H7.585C8.196 12.37 9.378 13.404 10.818 13.804C10.243 12.875 9.82 11.936 9.561 11ZM14.693 11C14.436 11.933 14.013 12.871 13.44 13.798C14.896 13.394 16.091 12.364 16.693 11H14.693Z" fill="black"/>
<path fill-rule="evenodd" clip-rule="evenodd" d="M2.5 10C2.5 4.299 6.584 0 12 0C17.416 0 21.5 4.299 21.5 10C21.5 17.173 12.668 23.634 12.293 23.905C12.206 23.969 12.103 24 12 24C11.897 24 11.794 23.969 11.707 23.905C11.332 23.634 2.5 17.173 2.5 10ZM3.5 10C3.5 15.961 10.472 21.69 12 22.873C13.528 21.69 20.5 15.961 20.5 10C20.5 4.869 16.846 1 12 1C7.154 1 3.5 4.869 3.5 10Z" fill="black"/>
</svg>
