<svg width="24" height="24" viewBox="0 0 24 24" fill="none" xmlns="http://www.w3.org/2000/svg">
<path d="M11.5 16.5C12.0523 16.5 12.5 16.0523 12.5 15.5C12.5 14.9477 12.0523 14.5 11.5 14.5C10.9477 14.5 10.5 14.9477 10.5 15.5C10.5 16.0523 10.9477 16.5 11.5 16.5Z" fill="black"/>
<path d="M8 8C8 6.07 9.57 4.5 11.5 4.5C13.43 4.5 15 6.07 15 8C15 9.76 13.694 11.221 12 11.464V12.5C12 12.776 11.776 13 11.5 13C11.224 13 11 12.776 11 12.5V11C11 10.724 11.224 10.5 11.5 10.5C12.878 10.5 14 9.378 14 8C14 6.622 12.878 5.5 11.5 5.5C10.122 5.5 9 6.622 9 8C9 8.276 8.776 8.5 8.5 8.5C8.224 8.5 8 8.276 8 8Z" fill="black"/>
<path fill-rule="evenodd" clip-rule="evenodd" d="M11.5 0C6.084 0 2 4.299 2 10C2 17.173 10.832 23.634 11.207 23.905C11.294 23.969 11.397 24 11.5 24C11.603 24 11.706 23.969 11.793 23.905C12.168 23.634 21 17.173 21 10C21 4.299 16.916 0 11.5 0ZM11.5 22.873C9.972 21.69 3 15.961 3 10C3 4.869 6.654 1 11.5 1C16.346 1 20 4.869 20 10C20 15.961 13.028 21.69 11.5 22.873Z" fill="black"/>
</svg>
