<svg width="24" height="24" viewBox="0 0 24 24" fill="none" xmlns="http://www.w3.org/2000/svg">
<path fill-rule="evenodd" clip-rule="evenodd" d="M6.5 9.5C6.5 6.467 8.967 4 12 4C15.033 4 17.5 6.467 17.5 9.5C17.5 12.533 15.033 15 12 15C8.967 15 6.5 12.533 6.5 9.5ZM7.5 9.5C7.5 11.982 9.519 14 12 14C14.481 14 16.5 11.982 16.5 9.5C16.5 7.019 14.481 5 12 5C9.519 5 7.5 7.019 7.5 9.5Z" fill="black"/>
<path fill-rule="evenodd" clip-rule="evenodd" d="M2.5 10C2.5 4.299 6.584 0 12 0C17.416 0 21.5 4.299 21.5 10C21.5 17.173 12.668 23.634 12.293 23.905C12.206 23.969 12.103 24 12 24C11.897 24 11.794 23.969 11.707 23.905C11.332 23.634 2.5 17.173 2.5 10ZM3.5 10C3.5 15.961 10.472 21.69 12 22.873C13.528 21.69 20.5 15.961 20.5 10C20.5 4.869 16.846 1 12 1C7.154 1 3.5 4.869 3.5 10Z" fill="black"/>
</svg>
