<svg width="24" height="24" viewBox="0 0 24 24" fill="none" xmlns="http://www.w3.org/2000/svg">
<path d="M12.5 9H17C17.276 9 17.5 9.224 17.5 9.5C17.5 9.776 17.276 10 17 10H12.5V14.5C12.5 14.776 12.276 15 12 15C11.724 15 11.5 14.776 11.5 14.5V10H7C6.724 10 6.5 9.776 6.5 9.5C6.5 9.224 6.724 9 7 9H11.5V4.5C11.5 4.224 11.724 4 12 4C12.276 4 12.5 4.224 12.5 4.5V9Z" fill="black"/>
<path fill-rule="evenodd" clip-rule="evenodd" d="M2.5 10C2.5 4.299 6.584 0 12 0C17.416 0 21.5 4.299 21.5 10C21.5 17.173 12.668 23.634 12.293 23.905C12.206 23.969 12.103 24 12 24C11.897 24 11.794 23.969 11.707 23.905C11.332 23.634 2.5 17.173 2.5 10ZM3.5 10C3.5 15.961 10.472 21.69 12 22.873C13.528 21.69 20.5 15.961 20.5 10C20.5 4.869 16.846 1 12 1C7.154 1 3.5 4.869 3.5 10Z" fill="black"/>
</svg>
