<svg width="24" height="24" viewBox="0 0 24 24" fill="none" xmlns="http://www.w3.org/2000/svg">
<path fill-rule="evenodd" clip-rule="evenodd" d="M14.5 7.014C14.5 7.99 14.024 8.851 13.3 9.399C14.843 10.077 15.939 11.59 15.998 13.367C16.012 13.413 16.02 13.463 16.02 13.515C16.02 13.791 15.796 14.015 15.52 14.015H7.5C7.224 14.015 7 13.791 7 13.515C7 11.675 8.112 10.095 9.697 9.397C8.975 8.848 8.5 7.989 8.5 7.014C8.5 5.36 9.846 4.014 11.5 4.014C13.154 4.014 14.5 5.36 14.5 7.014ZM11.5 5.015C10.397 5.015 9.5 5.912 9.5 7.015C9.5 8.118 10.397 9.015 11.5 9.015C12.603 9.015 13.5 8.118 13.5 7.015C13.5 5.912 12.603 5.015 11.5 5.015ZM11.5 10.015C9.74 10.015 8.279 11.321 8.036 13.015H14.964C14.721 11.321 13.26 10.015 11.5 10.015Z" fill="black"/>
<path fill-rule="evenodd" clip-rule="evenodd" d="M2 10C2 4.299 6.084 0 11.5 0C16.916 0 21 4.299 21 10C21 17.173 12.168 23.634 11.793 23.905C11.706 23.969 11.603 24 11.5 24C11.397 24 11.294 23.969 11.207 23.905C10.832 23.634 2 17.173 2 10ZM3 10C3 15.961 9.972 21.69 11.5 22.873C13.028 21.69 20 15.961 20 10C20 4.869 16.346 1 11.5 1C6.654 1 3 4.869 3 10Z" fill="black"/>
</svg>
