<svg width="24" height="24" viewBox="0 0 24 24" fill="none" xmlns="http://www.w3.org/2000/svg">
<path d="M15.147 5.646C15.342 5.451 15.659 5.451 15.854 5.646C16.049 5.842 16.049 6.159 15.853 6.354L12.707 9.5L15.854 12.647C16.049 12.842 16.049 13.159 15.854 13.354C15.756 13.451 15.628 13.5 15.5 13.5C15.372 13.5 15.244 13.451 15.146 13.354L12 10.207L8.854 13.354C8.756 13.451 8.628 13.5 8.5 13.5C8.372 13.5 8.244 13.451 8.147 13.353C7.952 13.158 7.952 12.841 8.147 12.646L11.293 9.5L8.147 6.353C7.952 6.158 7.952 5.841 8.147 5.646C8.342 5.451 8.659 5.451 8.854 5.646L12 8.793L15.147 5.646Z" fill="black"/>
<path fill-rule="evenodd" clip-rule="evenodd" d="M2.5 10C2.5 4.299 6.584 0 12 0C17.416 0 21.5 4.299 21.5 10C21.5 17.173 12.668 23.634 12.293 23.905C12.206 23.969 12.103 24 12 24C11.897 24 11.794 23.969 11.707 23.905C11.332 23.634 2.5 17.173 2.5 10ZM3.5 10C3.5 15.961 10.472 21.69 12 22.873C13.528 21.69 20.5 15.961 20.5 10C20.5 4.869 16.846 1 12 1C7.154 1 3.5 4.869 3.5 10Z" fill="black"/>
</svg>
