<svg width="24" height="24" viewBox="0 0 24 24" fill="none" xmlns="http://www.w3.org/2000/svg">
<g clip-path="url(#clip0_338_14183)">
<path fill-rule="evenodd" clip-rule="evenodd" d="M12.186 6.03601L14.686 7.03601C14.875 7.11201 15 7.29501 15 7.50001V10.5C15 10.776 14.776 11 14.5 11H9.50003C9.22403 11 9.00003 10.776 9.00003 10.5V7.50001C9.00003 7.29501 9.12503 7.11201 9.31503 7.03601L11.815 6.03601C11.934 5.98901 12.067 5.98901 12.186 6.03601ZM10 10H14V7.83801L12 7.03801L10 7.83801V10Z" fill="black"/>
<path fill-rule="evenodd" clip-rule="evenodd" d="M18.931 4.74701L23.931 13.247C24.022 13.401 24.023 13.593 23.934 13.748C23.845 13.904 23.679 14 23.5 14H21V23.5C21 23.776 20.776 24 20.5 24H3.50003C3.22403 24 3.00003 23.776 3.00003 23.5V14H0.500032C0.321032 14 0.155032 13.904 0.0650318 13.748C-0.0239682 13.593 -0.0229682 13.401 0.0680318 13.247L5.06803 4.74701C5.12003 4.65901 5.19703 4.58901 5.29003 4.54601L11.79 1.54601C11.923 1.48401 12.076 1.48401 12.209 1.54601L18.709 4.54601C18.802 4.58901 18.879 4.65901 18.931 4.74701ZM12.752 19.5L16 22.387V16.613L12.752 19.5ZM12 20.169L8.81403 23H15.186L12 20.169ZM8.81403 16L12 18.832L15.185 16H8.81403ZM8.00003 22.387L11.248 19.5L8.00003 16.614V22.387ZM17 15.5V23H20V14H4.00003V23H7.00003V15.5C7.00003 15.4849 7.00405 15.4705 7.00812 15.456C7.01077 15.4465 7.01345 15.4369 7.01503 15.427C7.01586 15.4212 7.01663 15.4155 7.0174 15.4097C7.02129 15.3805 7.02517 15.3514 7.03603 15.323C7.04748 15.2922 7.06591 15.2652 7.08448 15.2381C7.087 15.2344 7.08952 15.2307 7.09203 15.227C7.09812 15.2183 7.10251 15.2092 7.10685 15.2003C7.11247 15.1886 7.118 15.1772 7.12703 15.167C7.12853 15.1655 7.13053 15.1643 7.13253 15.163C7.13453 15.1618 7.13653 15.1605 7.13803 15.159C7.15833 15.1371 7.18259 15.1211 7.20759 15.1046C7.21338 15.1008 7.2192 15.097 7.22503 15.093C7.23201 15.0881 7.23881 15.0829 7.24559 15.0777C7.26215 15.0651 7.27859 15.0525 7.29703 15.044C7.31159 15.0374 7.32746 15.0343 7.34319 15.0312C7.35124 15.0296 7.35925 15.028 7.36703 15.026C7.37102 15.0249 7.37499 15.0238 7.37896 15.0227C7.41482 15.0127 7.45012 15.0029 7.48703 15.002C7.48967 15.002 7.49203 15.0015 7.49426 15.0009C7.49625 15.0005 7.50003 15 7.50003 15H16.5C16.5027 15 16.5054 15.0009 16.508 15.0018L16.512 15.003C16.5473 15.0039 16.581 15.0133 16.6158 15.0231C16.6205 15.0244 16.6253 15.0257 16.63 15.027C16.6393 15.0296 16.6487 15.0315 16.658 15.0334C16.6738 15.0366 16.6892 15.0397 16.703 15.046C16.7203 15.0543 16.7356 15.0659 16.751 15.0775C16.7579 15.0828 16.7649 15.088 16.772 15.093C16.7751 15.095 16.7783 15.097 16.7814 15.0991C16.8096 15.1171 16.8386 15.1357 16.862 15.16L16.8665 15.1631C16.8689 15.1647 16.8712 15.1661 16.873 15.168C16.8826 15.1788 16.8886 15.191 16.8947 15.2034C16.8987 15.2117 16.9028 15.22 16.908 15.228C16.9126 15.2351 16.9173 15.242 16.922 15.249C16.938 15.2726 16.954 15.2962 16.964 15.324C16.9749 15.3524 16.9788 15.3815 16.9827 15.4107C16.9834 15.4165 16.9842 15.4222 16.985 15.428C16.9866 15.4373 16.9892 15.4464 16.9918 15.4556C16.9959 15.4701 17 15.4847 17 15.5ZM22.626 13L18.148 5.38801L12 2.55101L5.85203 5.38801L1.37403 13H22.626Z" fill="black"/>
</g>
<defs>
<clipPath id="clip0_338_14183">
<rect width="24" height="24" fill="white"/>
</clipPath>
</defs>
</svg>
