<svg width="24" height="24" viewBox="0 0 24 24" fill="none" xmlns="http://www.w3.org/2000/svg">
<path fill-rule="evenodd" clip-rule="evenodd" d="M13.823 7H16.993C17.204 7 17.392 7.132 17.464 7.329C17.536 7.528 17.476 7.749 17.314 7.884L14.587 10.154L15.962 13.824C16.039 14.03 15.972 14.262 15.798 14.396C15.708 14.465 15.6 14.5 15.493 14.5C15.391 14.5 15.289 14.469 15.202 14.407L11.993 12.116L8.784 14.407C8.605 14.536 8.363 14.53 8.189 14.397C8.014 14.263 7.948 14.031 8.025 13.825L9.4 10.155L6.673 7.885C6.511 7.75 6.451 7.528 6.523 7.33C6.595 7.132 6.783 7 6.993 7H10.164L11.541 3.803C11.62 3.619 11.8 3.5 12 3.5H12.001C12.201 3.5 12.381 3.62 12.46 3.804L13.823 7ZM13.525 10.173C13.45 9.974 13.509 9.749 13.673 9.613L15.611 8H13.493C13.293 8 13.112 7.88 13.032 7.697L11.997 5.27L10.952 7.698C10.873 7.881 10.693 8 10.493 8H8.375L10.313 9.613C10.476 9.75 10.536 9.974 10.461 10.173L9.536 12.641L11.702 11.095C11.789 11.033 11.891 11.002 11.993 11.002C12.095 11.002 12.197 11.033 12.284 11.095L14.45 12.641L13.525 10.173Z" fill="black"/>
<path fill-rule="evenodd" clip-rule="evenodd" d="M2.5 10C2.5 4.299 6.584 0 12 0C17.416 0 21.5 4.299 21.5 10C21.5 17.173 12.668 23.634 12.293 23.905C12.206 23.969 12.103 24 12 24C11.897 24 11.794 23.969 11.707 23.905C11.332 23.634 2.5 17.173 2.5 10ZM3.5 10C3.5 15.961 10.472 21.69 12 22.873C13.528 21.69 20.5 15.961 20.5 10C20.5 4.869 16.846 1 12 1C7.154 1 3.5 4.869 3.5 10Z" fill="black"/>
</svg>
