<svg width="24" height="24" viewBox="0 0 24 24" fill="none" xmlns="http://www.w3.org/2000/svg">
<path d="M11 15C11 14.449 11.448 14 12 14C12.552 14 13 14.449 13 15C13 15.365 12.793 15.672 12.5 15.847V18.5C12.5 18.776 12.276 19 12 19C11.724 19 11.5 18.776 11.5 18.5V15.847C11.207 15.672 11 15.365 11 15Z" fill="black"/>
<path fill-rule="evenodd" clip-rule="evenodd" d="M21 23.5C21 23.776 20.776 24 20.5 24H3.5C3.224 24 3 23.776 3 23.5V9.5C3 9.224 3.224 9 3.5 9H6V6C6 2.691 8.691 0 12 0C15.309 0 18 2.691 18 6V9H20.5C20.776 9 21 9.224 21 9.5V23.5ZM12 1C9.243 1 7 3.243 7 6V9H17V6C17 3.243 14.757 1 12 1ZM20 23V10H4V23H20Z" fill="black"/>
</svg>
