<svg width="24" height="24" viewBox="0 0 24 24" fill="none" xmlns="http://www.w3.org/2000/svg">
<path d="M6 2H4C3.724 2 3.5 2.224 3.5 2.5C3.5 2.776 3.724 3 4 3H6C6.276 3 6.5 2.776 6.5 2.5C6.5 2.224 6.276 2 6 2Z" fill="black"/>
<path d="M4 4H6C6.276 4 6.5 4.224 6.5 4.5C6.5 4.776 6.276 5 6 5H4C3.724 5 3.5 4.776 3.5 4.5C3.5 4.224 3.724 4 4 4Z" fill="black"/>
<path d="M6 6H4C3.724 6 3.5 6.224 3.5 6.5C3.5 6.776 3.724 7 4 7H6C6.276 7 6.5 6.776 6.5 6.5C6.5 6.224 6.276 6 6 6Z" fill="black"/>
<path d="M4 18H6C6.276 18 6.5 18.224 6.5 18.5C6.5 18.776 6.276 19 6 19H4C3.724 19 3.5 18.776 3.5 18.5C3.5 18.224 3.724 18 4 18Z" fill="black"/>
<path d="M6 20H4C3.724 20 3.5 20.224 3.5 20.5C3.5 20.776 3.724 21 4 21H6C6.276 21 6.5 20.776 6.5 20.5C6.5 20.224 6.276 20 6 20Z" fill="black"/>
<path d="M4 10.5C4 10.7761 3.77614 11 3.5 11C3.22386 11 3 10.7761 3 10.5C3 10.2239 3.22386 10 3.5 10C3.77614 10 4 10.2239 4 10.5Z" fill="black"/>
<path d="M13 2H11C10.724 2 10.5 2.224 10.5 2.5C10.5 2.776 10.724 3 11 3H13C13.276 3 13.5 2.776 13.5 2.5C13.5 2.224 13.276 2 13 2Z" fill="black"/>
<path d="M11 4H13C13.276 4 13.5 4.224 13.5 4.5C13.5 4.776 13.276 5 13 5H11C10.724 5 10.5 4.776 10.5 4.5C10.5 4.224 10.724 4 11 4Z" fill="black"/>
<path d="M13 6H11C10.724 6 10.5 6.224 10.5 6.5C10.5 6.776 10.724 7 11 7H13C13.276 7 13.5 6.776 13.5 6.5C13.5 6.224 13.276 6 13 6Z" fill="black"/>
<path d="M11 18H13C13.276 18 13.5 18.224 13.5 18.5C13.5 18.776 13.276 19 13 19H11C10.724 19 10.5 18.776 10.5 18.5C10.5 18.224 10.724 18 11 18Z" fill="black"/>
<path d="M13 20H11C10.724 20 10.5 20.224 10.5 20.5C10.5 20.776 10.724 21 11 21H13C13.276 21 13.5 20.776 13.5 20.5C13.5 20.224 13.276 20 13 20Z" fill="black"/>
<path d="M11 10.5C11 10.7761 10.7761 11 10.5 11C10.2239 11 10 10.7761 10 10.5C10 10.2239 10.2239 10 10.5 10C10.7761 10 11 10.2239 11 10.5Z" fill="black"/>
<path d="M18 3H20C20.276 3 20.5 2.776 20.5 2.5C20.5 2.224 20.276 2 20 2H18C17.724 2 17.5 2.224 17.5 2.5C17.5 2.776 17.724 3 18 3Z" fill="black"/>
<path d="M20 5H18C17.724 5 17.5 4.776 17.5 4.5C17.5 4.224 17.724 4 18 4H20C20.276 4 20.5 4.224 20.5 4.5C20.5 4.776 20.276 5 20 5Z" fill="black"/>
<path d="M18 7H20C20.276 7 20.5 6.776 20.5 6.5C20.5 6.224 20.276 6 20 6H18C17.724 6 17.5 6.224 17.5 6.5C17.5 6.776 17.724 7 18 7Z" fill="black"/>
<path d="M18 18H20C20.276 18 20.5 18.224 20.5 18.5C20.5 18.776 20.276 19 20 19H18C17.724 19 17.5 18.776 17.5 18.5C17.5 18.224 17.724 18 18 18Z" fill="black"/>
<path d="M20 20H18C17.724 20 17.5 20.224 17.5 20.5C17.5 20.776 17.724 21 18 21H20C20.276 21 20.5 20.776 20.5 20.5C20.5 20.224 20.276 20 20 20Z" fill="black"/>
<path d="M18 10.5C18 10.7761 17.7761 11 17.5 11C17.2239 11 17 10.7761 17 10.5C17 10.2239 17.2239 10 17.5 10C17.7761 10 18 10.2239 18 10.5Z" fill="black"/>
<path fill-rule="evenodd" clip-rule="evenodd" d="M22.5 0H1.5C1.224 0 1 0.224 1 0.5V23.5C1 23.776 1.224 24 1.5 24H22.5C22.776 24 23 23.776 23 23.5V0.5C23 0.224 22.776 0 22.5 0ZM2 1H8V23H2V1ZM9 1H15V23H9V1ZM22 23H16V1H22V23Z" fill="black"/>
</svg>
