<svg width="24" height="24" viewBox="0 0 24 24" fill="none" xmlns="http://www.w3.org/2000/svg">
<path d="M11 16C11 15.449 11.448 15 12 15C12.552 15 13 15.449 13 16C13 16.365 12.793 16.672 12.5 16.847V19.5C12.5 19.776 12.276 20 12 20C11.724 20 11.5 19.776 11.5 19.5V16.847C11.207 16.672 11 16.365 11 16Z" fill="black"/>
<path fill-rule="evenodd" clip-rule="evenodd" d="M12.5 0C15.532 0 18 2.467 18 5.5V10.727C19.24 12.136 20 13.979 20 16C20 20.411 16.411 24 12 24C7.589 24 4 20.411 4 16C4 11.589 7.589 8 12 8C13.892 8 15.629 8.663 17 9.765V5.5C17 3.019 14.981 1 12.5 1C10.019 1 8 3.019 8 5.5C8 5.776 7.776 6 7.5 6C7.224 6 7 5.776 7 5.5C7 2.467 9.468 0 12.5 0ZM5 16C5 19.86 8.141 23 12 23C15.859 23 19 19.86 19 16C19 12.14 15.859 9 12 9C8.141 9 5 12.14 5 16Z" fill="black"/>
</svg>
