<svg width="24" height="24" viewBox="0 0 24 24" fill="none" xmlns="http://www.w3.org/2000/svg">
<path d="M13.647 9.146C13.842 8.951 14.159 8.951 14.354 9.146C14.549 9.342 14.549 9.659 14.353 9.854L12.707 11.5L14.353 13.146C14.548 13.341 14.548 13.658 14.353 13.853C14.158 14.048 13.841 14.048 13.646 13.853L12 12.207L10.354 13.853C10.159 14.048 9.842 14.048 9.647 13.853C9.452 13.658 9.452 13.341 9.647 13.146L11.293 11.5L9.647 9.854C9.452 9.659 9.452 9.342 9.647 9.147C9.842 8.952 10.159 8.952 10.354 9.147L12 10.793L13.647 9.146Z" fill="black"/>
<path d="M7.854 9.146C7.659 8.951 7.342 8.951 7.147 9.146L5.5 10.793L3.854 9.146C3.659 8.951 3.342 8.951 3.147 9.146C2.952 9.341 2.952 9.658 3.147 9.853L4.793 11.5L3.147 13.146C2.952 13.341 2.952 13.658 3.147 13.853C3.342 14.048 3.659 14.048 3.854 13.853L5.5 12.207L7.146 13.853C7.341 14.048 7.658 14.048 7.853 13.853C8.048 13.658 8.048 13.341 7.853 13.146L6.207 11.5L7.853 9.854C8.049 9.659 8.049 9.342 7.854 9.146Z" fill="black"/>
<path d="M16.5 13H20.5C20.776 13 21 13.224 21 13.5C21 13.776 20.776 14 20.5 14H16.5C16.224 14 16 13.776 16 13.5C16 13.224 16.224 13 16.5 13Z" fill="black"/>
<path fill-rule="evenodd" clip-rule="evenodd" d="M2.5 5H21.5C22.878 5 24 6.122 24 7.5V15.5C24 16.878 22.878 18 21.5 18H2.5C1.121 18 0 16.878 0 15.5V7.5C0 6.122 1.121 5 2.5 5ZM21.5 17C22.327 17 23 16.327 23 15.5V7.5C23 6.673 22.327 6 21.5 6H2.5C1.672 6 1 6.673 1 7.5V15.5C1 16.327 1.672 17 2.5 17H21.5Z" fill="black"/>
</svg>
