<svg width="24" height="24" viewBox="0 0 24 24" fill="none" xmlns="http://www.w3.org/2000/svg">
<path d="M10.5 1H23.5C23.776 1 24 1.224 24 1.5V22.5C24 22.776 23.776 23 23.5 23H10.5C10.224 23 10 22.776 10 22.5V19.521C10 19.245 10.224 19.021 10.5 19.021C10.776 19.021 11 19.245 11 19.521V22H23V2H11V5C11 5.276 10.776 5.5 10.5 5.5C10.224 5.5 10 5.276 10 5V1.5C10 1.224 10.224 1 10.5 1Z" fill="black"/>
<path fill-rule="evenodd" clip-rule="evenodd" d="M4 10C2.897 10 2 10.897 2 12C2 13.103 2.897 14 4 14C5.103 14 6 13.103 6 12C6 10.897 5.103 10 4 10ZM4 13C3.449 13 3 12.551 3 12C3 11.449 3.449 11 4 11C4.551 11 5 11.449 5 12C5 12.551 4.551 13 4 13Z" fill="black"/>
<path fill-rule="evenodd" clip-rule="evenodd" d="M11.652 14H12.293L13.147 14.854C13.342 15.049 13.659 15.049 13.854 14.854L14.707 14H15.293L16.147 14.854C16.342 15.049 16.659 15.049 16.854 14.854L17.707 14H19C19.133 14 19.26 13.947 19.354 13.854L20.854 12.354C21.049 12.159 21.049 11.842 20.854 11.647L19.354 10.147C19.26 10.053 19.133 10 19 10H11.652C10.813 7.626 8.541 6 6 6C2.691 6 0 8.691 0 12C0 15.309 2.691 18 6 18C8.541 18 10.812 16.373 11.652 14ZM6 17C3.243 17 1 14.757 1 12C1 9.243 3.243 7 6 7C8.224 7 10.2 8.495 10.806 10.636C10.867 10.852 11.063 11 11.287 11H18.793L19.793 12L18.793 13H17.5C17.367 13 17.24 13.053 17.146 13.146L16.5 13.793L15.854 13.147C15.76 13.053 15.633 13 15.5 13H14.5C14.367 13 14.24 13.053 14.146 13.146L13.5 13.793L12.854 13.147C12.76 13.053 12.633 13 12.5 13H11.287C11.063 13 10.867 13.148 10.806 13.364C10.2 15.505 8.223 17 6 17Z" fill="black"/>
</svg>
