<svg width="24" height="24" viewBox="0 0 24 24" fill="none" xmlns="http://www.w3.org/2000/svg">
<path d="M23.4994 20H22.0285V6.5C22.0285 4.019 20.0068 2 17.5226 2H12.0155V0.5C12.0155 0.224 11.7912 0 11.5149 0C11.2385 0 11.0142 0.224 11.0142 0.5V2H6.50841C4.0242 2 2.00259 4.019 2.00259 6.5V20H0.500647C0.22429 20 0 20.224 0 20.5C0 20.776 0.22429 21 0.500647 21H1.27965C1.10743 21.295 1.00129 21.634 1.00129 22C1.00129 23.103 1.89945 24 3.00388 24C4.10831 24 5.00647 23.103 5.00647 22C5.00647 21.634 4.90033 21.295 4.72811 21H19.3039C19.1307 21.295 19.0246 21.634 19.0246 22C19.0246 23.103 19.9227 24 21.0272 24C22.1316 24 23.0297 23.103 23.0297 22C23.0297 21.634 22.9236 21.295 22.7514 21H23.4994C23.7757 21 24 20.776 24 20.5C24 20.224 23.7757 20 23.4994 20ZM3.00388 6.5C3.00388 4.57 4.57591 3 6.50841 3H11.0142V5H8.52701C8.25066 5 8.02637 5.224 8.02637 5.5C8.02637 5.776 8.24966 6 8.52701 6H14.5188C14.7951 6 15.0194 5.776 15.0194 5.5C15.0194 5.224 14.7951 5 14.5188 5H12.0155V3H17.5226C19.4551 3 21.0272 4.57 21.0272 6.5V20H18.5109C18.8293 19.581 19.0246 19.065 19.0246 18.5V14.5C19.0246 13.122 17.9011 12 16.5213 12H15.0194V11.5C15.0194 10.122 13.8959 9 12.5162 9H11.5149C10.1351 9 9.01164 10.122 9.01164 11.5V12H7.5097C6.12992 12 5.00647 13.122 5.00647 14.5V18.5C5.00647 19.065 5.20172 19.581 5.52013 20H3.00388V6.5ZM10.0129 12V11.5C10.0129 10.673 10.6868 10 11.5149 10H12.5162C13.3442 10 14.0181 10.673 14.0181 11.5V12H10.0129ZM4.00517 22C4.00517 22.551 3.55559 23 3.00388 23C2.45217 23 2.00259 22.551 2.00259 22C2.00259 21.449 2.45217 21 3.00388 21C3.55559 21 4.00517 21.449 4.00517 22ZM7.5097 20C6.68163 20 6.00776 19.327 6.00776 18.5V14.5C6.00776 13.673 6.68163 13 7.5097 13H16.5213C17.3494 13 18.0233 13.673 18.0233 14.5V18.5C18.0233 19.327 17.3494 20 16.5213 20H7.5097ZM21.0272 23C20.4754 23 20.0259 22.551 20.0259 22C20.0259 21.449 20.4754 21 21.0272 21C21.5789 21 22.0285 21.449 22.0285 22C22.0285 22.551 21.5789 23 21.0272 23Z" fill="black"/>
</svg>
