<svg width="24" height="24" viewBox="0 0 24 24" fill="none" xmlns="http://www.w3.org/2000/svg">
<g clip-path="url(#clip0_344_15935)">
<path fill-rule="evenodd" clip-rule="evenodd" d="M16 4H11.5C11.224 4 11 3.776 11 3.5V0.5C11 0.224 11.224 0 11.5 0H16.5C16.776 0 17 0.224 17 0.5V9.5C17 9.776 16.776 10 16.5 10C16.224 10 16 9.776 16 9.5V4ZM16 1H12V3H16V1Z" fill="black"/>
<path fill-rule="evenodd" clip-rule="evenodd" d="M23.5 9C23.647 9 23.787 9.064 23.881 9.177C23.977 9.289 24.018 9.437 23.993 9.582L22.993 15.582C22.953 15.823 22.745 16 22.5 16H21V16.5C21 16.776 20.776 17 20.5 17H12V23.5C12 23.776 11.776 24 11.5 24C11.224 24 11 23.776 11 23.5V17H0.5C0.224 17 0 16.776 0 16.5V10.5C0 8.019 2.019 6 4.5 6H14.5C14.776 6 15 6.224 15 6.5C15 6.776 14.776 7 14.5 7H4.5C2.57 7 1 8.57 1 10.5V16H20V7H18.5C18.224 7 18 6.776 18 6.5C18 6.224 18.224 6 18.5 6H20.5C20.776 6 21 6.224 21 6.5V9H23.5ZM21 15H22.077L22.91 10H21V15Z" fill="black"/>
</g>
<defs>
<clipPath id="clip0_344_15935">
<rect width="24" height="24" fill="white"/>
</clipPath>
</defs>
</svg>
