<svg width="24" height="24" viewBox="0 0 24 24" fill="none" xmlns="http://www.w3.org/2000/svg">
<path d="M2 15.5C2 15.224 2.224 15 2.5 15H4.5C4.776 15 5 15.224 5 15.5C5 15.776 4.776 16 4.5 16H2.5C2.224 16 2 15.776 2 15.5Z" fill="black"/>
<path fill-rule="evenodd" clip-rule="evenodd" d="M5 5H20.5C22.43 5 24 6.57 24 8.5V17.5C24 17.776 23.776 18 23.5 18H14V23.5C14 23.776 13.776 24 13.5 24C13.224 24 13 23.776 13 23.5V18H0.5C0.224 18 0 17.776 0 17.5V8.5C0 6.57 1.57 5 3.5 5H4V0.5C4 0.224 4.224 0 4.5 0H7.5C7.776 0 8 0.224 8 0.5V2.5C8 2.776 7.776 3 7.5 3H5V5ZM7 1H5V2H7V1ZM3.5 6C2.122 6 1 7.122 1 8.5V17H6V8.5C6 7.122 4.878 6 3.5 6ZM7 17H23V8.5C23 7.122 21.878 6 20.5 6H5.941C6.593 6.636 7 7.521 7 8.5V17Z" fill="black"/>
</svg>
