<svg width="24" height="24" viewBox="0 0 24 24" fill="none" xmlns="http://www.w3.org/2000/svg">
<g clip-path="url(#clip0_344_15933)">
<path d="M23.853 7.14898L18.354 1.64898C18.316 1.61098 18.272 1.57998 18.224 1.55498L15.222 0.0549766C15.217 0.0519766 15.212 0.0529766 15.207 0.0509766C15.199 0.0469766 15.191 0.0419766 15.182 0.0389766C15.179 0.0379766 15.176 0.0339766 15.173 0.0329766C15.151 0.0239766 15.127 0.0269766 15.104 0.0219766C15.073 0.0149766 15.043 0.00397656 15.012 0.00397656C15.007 0.00397656 15.003 0.000976562 14.998 0.000976562H8.99798C8.99398 0.000976562 8.98998 0.00397656 8.98598 0.00397656C8.91498 0.00597656 8.84198 0.0199766 8.77498 0.0539766L8.76698 0.0599766L5.77698 1.55598C5.72898 1.57998 5.68498 1.61098 5.64698 1.64898L0.146982 7.14898C-0.0480176 7.34398 -0.0480176 7.66098 0.146982 7.85598L3.14598 10.856C3.32898 11.041 3.62098 11.053 3.81998 10.886L6.13898 8.95298L6.99198 14.496L5.42298 23.415C5.42098 23.429 5.42598 23.441 5.42498 23.454C5.42098 23.496 5.42398 23.536 5.42998 23.576C5.43398 23.603 5.43598 23.629 5.44498 23.655C5.45898 23.698 5.48198 23.736 5.50698 23.774C5.51698 23.79 5.51998 23.808 5.53198 23.823C5.53498 23.827 5.53998 23.829 5.54398 23.832C5.57598 23.868 5.61598 23.894 5.65798 23.92C5.67698 23.932 5.69198 23.948 5.71198 23.957C5.71398 23.958 5.71498 23.96 5.71798 23.961C5.78198 23.989 5.84898 24.002 5.91598 24.002H17.999C18.146 24.002 18.286 23.938 18.38 23.825C18.475 23.713 18.516 23.564 18.492 23.42L17.005 14.5L17.859 8.95298L20.18 10.887C20.378 11.053 20.67 11.041 20.853 10.857L23.853 7.85698C24.048 7.66098 24.048 7.34498 23.853 7.14898ZM14.279 1.00298L12.008 7.10398L9.71998 1.00298H14.279ZM6.67498 7.53498C6.50598 7.47098 6.31598 7.50398 6.17798 7.61898L3.52998 9.82598L1.20798 7.50298L6.29698 2.41398L8.72598 1.19898L11.476 8.53398L9.44098 14.003H7.92798L6.99298 7.92698C6.96498 7.74898 6.84398 7.59898 6.67498 7.53498ZM7.91798 15.003H9.02798L7.15098 19.366L7.91798 15.003ZM17.408 23.003H6.67498L10.116 15.003H11.304L10.024 18.845C9.93698 19.107 10.078 19.39 10.34 19.478C10.603 19.566 10.885 19.422 10.972 19.162L11.998 16.085L13.024 19.162C13.094 19.371 13.289 19.504 13.498 19.504C13.55 19.504 13.603 19.496 13.656 19.479C13.918 19.391 14.059 19.108 13.972 18.846L12.692 15.004H16.075L17.408 23.003ZM20.469 9.82598L17.819 7.61898C17.68 7.50398 17.49 7.47198 17.322 7.53498C17.153 7.59798 17.032 7.74898 17.005 7.92698L16.07 14.003H10.508L15.274 1.19898L17.705 2.41398L22.793 7.50298L20.469 9.82598Z" fill="black"/>
</g>
<defs>
<clipPath id="clip0_344_15933">
<rect width="24" height="24" fill="white"/>
</clipPath>
</defs>
</svg>
