<svg width="24" height="24" viewBox="0 0 24 24" fill="none" xmlns="http://www.w3.org/2000/svg">
<g clip-path="url(#clip0_348_13031)">
<path d="M6.5 9.99304H7.293L10.147 12.847C10.243 12.943 10.371 12.993 10.501 12.993C10.565 12.993 10.63 12.981 10.692 12.955C10.878 12.878 11 12.695 11 12.493V9.99304H17.5C18.327 9.99304 19 9.32004 19 8.49304V1.49304C19 0.666042 18.327 -0.00695801 17.5 -0.00695801H6.5C5.673 -0.00695801 5 0.666042 5 1.49304V8.49304C5 9.32004 5.673 9.99304 6.5 9.99304ZM6 1.49304C6 1.21704 6.224 0.993042 6.5 0.993042H17.5C17.776 0.993042 18 1.21704 18 1.49304V8.49304C18 8.76804 17.776 8.99304 17.5 8.99304H10.5C10.224 8.99304 10 9.21704 10 9.49304V11.286L7.854 9.14004C7.76 9.04604 7.633 8.99304 7.5 8.99304H6.5C6.224 8.99304 6 8.76804 6 8.49304V1.49304Z" fill="black"/>
<path d="M21.303 16.391C22.026 15.843 22.5 14.983 22.5 14.008C22.5 12.354 21.154 11.008 19.5 11.008C17.846 11.008 16.5 12.354 16.5 14.008C16.5 14.983 16.975 15.843 17.697 16.391C16.202 17.048 15.147 18.497 15.03 20.204C14.668 19.871 14.258 19.592 13.802 19.391C14.525 18.843 15 17.983 15 17.008C15 15.354 13.654 14.008 12 14.008C10.346 14.008 9 15.354 9 17.008C9 17.983 9.475 18.843 10.197 19.391C9.741 19.592 9.331 19.871 8.969 20.204C8.852 18.497 7.798 17.048 6.302 16.391C7.025 15.843 7.5 14.983 7.5 14.008C7.5 12.354 6.154 11.008 4.5 11.008C2.846 11.008 1.5 12.354 1.5 14.008C1.5 14.983 1.975 15.843 2.697 16.391C1.112 17.087 0 18.668 0 20.508C0 20.784 0.224 21.008 0.5 21.008H8.262C7.782 21.724 7.5 22.583 7.5 23.508C7.5 23.784 7.724 24.008 8 24.008H16C16.276 24.008 16.5 23.784 16.5 23.508C16.5 22.583 16.218 21.724 15.738 21.008H23.5C23.776 21.008 24 20.784 24 20.508C24 18.668 22.888 17.087 21.303 16.391ZM17.5 14.008C17.5 12.905 18.397 12.008 19.5 12.008C20.603 12.008 21.5 12.905 21.5 14.008C21.5 15.111 20.603 16.008 19.5 16.008C18.397 16.008 17.5 15.111 17.5 14.008ZM10 17.008C10 15.905 10.897 15.008 12 15.008C13.103 15.008 14 15.905 14 17.008C14 18.111 13.103 19.008 12 19.008C10.897 19.008 10 18.111 10 17.008ZM2.5 14.008C2.5 12.905 3.397 12.008 4.5 12.008C5.603 12.008 6.5 12.905 6.5 14.008C6.5 15.111 5.603 16.008 4.5 16.008C3.397 16.008 2.5 15.111 2.5 14.008ZM1.036 20.008C1.279 18.314 2.74 17.008 4.5 17.008C6.26 17.008 7.721 18.314 7.964 20.008H1.036ZM8.536 23.008C8.779 21.314 10.24 20.008 12 20.008C13.76 20.008 15.221 21.314 15.464 23.008H8.536ZM16.036 20.008C16.279 18.314 17.74 17.008 19.5 17.008C21.26 17.008 22.721 18.314 22.964 20.008H16.036Z" fill="black"/>
<path d="M8.5 2.99304H15.469C15.745 2.99304 15.969 2.76904 15.969 2.49304C15.969 2.21704 15.745 1.99304 15.469 1.99304H8.5C8.224 1.99304 8 2.21704 8 2.49304C8 2.76904 8.224 2.99304 8.5 2.99304Z" fill="black"/>
<path d="M8.5 4.99304H15.469C15.745 4.99304 15.969 4.76904 15.969 4.49304C15.969 4.21704 15.745 3.99304 15.469 3.99304H8.5C8.224 3.99304 8 4.21704 8 4.49304C8 4.76904 8.224 4.99304 8.5 4.99304Z" fill="black"/>
<path d="M8.5 6.99304H15.469C15.745 6.99304 15.969 6.76904 15.969 6.49304C15.969 6.21704 15.745 5.99304 15.469 5.99304H8.5C8.224 5.99304 8 6.21704 8 6.49304C8 6.76904 8.224 6.99304 8.5 6.99304Z" fill="black"/>
</g>
<defs>
<clipPath id="clip0_348_13031">
<rect width="24" height="24" fill="white"/>
</clipPath>
</defs>
</svg>
