<svg width="24" height="24" viewBox="0 0 24 24" fill="none" xmlns="http://www.w3.org/2000/svg">
<path d="M22 7.99995V2.49995C22 2.14295 21.632 1.89395 21.293 2.04495C16.843 4.08295 13.193 5.99995 4.5 5.99995H3.5C1.57 5.99995 0 7.56995 0 9.49995V11.5C0 13.43 1.57 15 3.5 15H4.5C5.388 15 6.214 15.023 7.002 15.062C7.016 17.997 8.649 20.633 11.276 21.948C11.521 22.07 11.822 21.973 11.947 21.724C12.07 21.477 11.97 21.177 11.723 21.053C9.455 19.918 8.041 17.652 8.006 15.123C14.253 15.57 17.445 17.192 21.292 18.955C21.622 19.105 22 18.865 22 18.5V13C23.103 13 24 12.103 24 11V9.99995C24 8.89595 23.103 7.99995 22 7.99995ZM3.5 14C2.121 14 1 12.878 1 11.5V9.49995C1 8.12195 2.121 6.99995 3.5 6.99995H4.5C5.386 6.99995 6.21 6.97695 7 6.93895V14.06C6.21 14.023 5.386 14 4.5 14H3.5ZM21 17.721C17.509 16.12 14.216 14.549 8 14.119V6.88095C14.189 6.45295 17.485 4.89295 21 3.27795V17.721ZM23 11C23 11.551 22.552 12 22 12V8.99995C22.552 8.99995 23 9.44895 23 9.99995V11Z" fill="black"/>
</svg>
