<svg width="24" height="24" viewBox="0 0 24 24" fill="none" xmlns="http://www.w3.org/2000/svg">
<path d="M4.5 9C4.22386 9 4 9.22386 4 9.5C4 9.77614 4.22386 10 4.5 10H5.5C5.77614 10 6 9.77614 6 9.5C6 9.22386 5.77614 9 5.5 9H4.5Z" fill="black"/>
<path d="M8.5 9C8.22386 9 8 9.22386 8 9.5C8 9.77614 8.22386 10 8.5 10H9.5C9.77614 10 10 9.77614 10 9.5C10 9.22386 9.77614 9 9.5 9H8.5Z" fill="black"/>
<path d="M10.5 6C10.7761 6 11 5.77614 11 5.5C11 5.22386 10.7761 5 10.5 5C10.2239 5 10 5.22386 10 5.5C10 5.77614 10.2239 6 10.5 6Z" fill="black"/>
<path fill-rule="evenodd" clip-rule="evenodd" d="M7 22C8.65685 22 10 20.6569 10 19C10 17.3431 8.65685 16 7 16C5.34315 16 4 17.3431 4 19C4 20.6569 5.34315 22 7 22ZM7 21C8.10457 21 9 20.1046 9 19C9 17.8954 8.10457 17 7 17C5.89543 17 5 17.8954 5 19C5 20.1046 5.89543 21 7 21Z" fill="black"/>
<path fill-rule="evenodd" clip-rule="evenodd" d="M2.5 0C1.11929 0 0 1.11929 0 2.5V21.5C0 22.8807 1.11929 24 2.5 24H11.5C12.8807 24 14 22.8807 14 21.5V4H15.5C16.3284 4 17 4.67157 17 5.5V20C17 21.6569 18.3431 23 20 23C21.6569 23 23 21.6569 23 20V17H23.5C23.7761 17 24 16.7761 24 16.5V8.5C24 8.22386 23.7761 8 23.5 8H23V1.5C23 1.22386 22.7761 1 22.5 1C22.2239 1 22 1.22386 22 1.5V8H21.5C21.2239 8 21 8.22386 21 8.5V16.5C21 16.7761 21.2239 17 21.5 17H22V20C22 21.1046 21.1046 22 20 22C18.8954 22 18 21.1046 18 20V5.5C18 4.11929 16.8807 3 15.5 3H14V2.5C14 1.11929 12.8807 0 11.5 0H2.5ZM13 2.5V14H1V2.5C1 1.67157 1.67157 1 2.5 1H11.5C12.3284 1 13 1.67157 13 2.5ZM1 15H13V21.5C13 22.3284 12.3284 23 11.5 23H2.5C1.67157 23 1 22.3284 1 21.5V15ZM22 9V16H23V9H22Z" fill="black"/>
</svg>
