<svg width="24" height="24" viewBox="0 0 24 24" fill="none" xmlns="http://www.w3.org/2000/svg">
<path fill-rule="evenodd" clip-rule="evenodd" d="M16 18C16 16.346 17.346 15 19 15C20.654 15 22 16.346 22 18C22 19.654 20.654 21 19 21C17.346 21 16 19.654 16 18ZM17 18C17 19.103 17.897 20 19 20C20.103 20 21 19.103 21 18C21 16.897 20.103 16 19 16C17.897 16 17 16.897 17 18Z" fill="black"/>
<path fill-rule="evenodd" clip-rule="evenodd" d="M7.5 0H22C23.103 0 24 0.897 24 2V23.5C24 23.776 23.776 24 23.5 24H2C0.897 24 0 23.103 0 22C0 20.897 0.897 20 2 20H10.5C12.43 20 14 18.43 14 16.5V8H9V10.293L11.353 12.647C11.471 12.765 11.523 12.935 11.49 13.098C11.446 13.318 10.377 18.5 7.5 18.5C4.623 18.5 3.554 13.318 3.509 13.098C3.476 12.935 3.528 12.765 3.646 12.647L6 10.293V8H3.5C3.224 8 3 7.776 3 7.5V4.5C3 2.019 5.019 0 7.5 0ZM6.707 11L4.547 13.16C4.842 14.424 5.684 16.878 7 17.396V11H6.707ZM8 11V17.397C9.319 16.879 10.159 14.424 10.453 13.16L8.293 11H8ZM7 8V10H8V8H7ZM2 23H23V2C23 1.448 22.552 1 22 1H20V4.5C20 4.776 19.776 5 19.5 5C19.224 5 19 4.776 19 4.5V1H17V4.5C17 4.776 16.776 5 16.5 5C16.224 5 16 4.776 16 4.5V1H14V4.5C14 4.776 13.776 5 13.5 5C13.224 5 13 4.776 13 4.5V1H7.5C5.57 1 4 2.57 4 4.5V7H14.5C14.776 7 15 7.224 15 7.5V16.5C15 18.981 12.981 21 10.5 21H2C1.448 21 1 21.448 1 22C1 22.552 1.448 23 2 23Z" fill="black"/>
</svg>
