<svg width="24" height="24" viewBox="0 0 24 24" fill="none" xmlns="http://www.w3.org/2000/svg">
<path d="M6.91202 6.22012C6.78794 6.03964 6.56085 5.96092 6.35169 6.02588C6.14254 6.09084 6 6.28437 6 6.50338V17.5034C6 17.7795 6.22386 18.0034 6.5 18.0034C6.77614 18.0034 7 17.7795 7 17.5034V8.11322L11.588 14.7866C11.6813 14.9223 11.8354 15.0034 12 15.0034C12.1646 15.0034 12.3187 14.9223 12.412 14.7866L17 8.11322V17.5034C17 17.7795 17.2239 18.0034 17.5 18.0034C17.7761 18.0034 18 17.7795 18 17.5034V6.50338C18 6.28437 17.8575 6.09084 17.6483 6.02588C17.4391 5.96092 17.2121 6.03964 17.088 6.22012L12 13.6208L6.91202 6.22012Z" fill="black"/>
<path fill-rule="evenodd" clip-rule="evenodd" d="M0 12C0 5.383 5.383 0 12 0C18.617 0 24 5.383 24 12C24 18.617 18.617 24 12 24C5.383 24 0 18.617 0 12ZM1 12C1 18.066 5.935 23 12 23C18.065 23 23 18.066 23 12C23 5.935 18.065 1 12 1C5.935 1 1 5.935 1 12Z" fill="black"/>
</svg>
