<svg width="24" height="24" viewBox="0 0 24 24" fill="none" xmlns="http://www.w3.org/2000/svg">
<path fill-rule="evenodd" clip-rule="evenodd" d="M2.35315 1.02209C2.56304 0.957599 2.79045 1.03759 2.91374 1.21929L12 14.6096L21.0863 1.21929C21.2096 1.03759 21.437 0.957599 21.6469 1.02209C21.8567 1.08658 22 1.28046 22 1.50004V22.5C22 22.7762 21.7761 23 21.5 23C21.2239 23 21 22.7762 21 22.5V3.12735L12.4137 15.7808C12.3207 15.9179 12.1657 16 12 16C11.8343 16 11.6793 15.9179 11.5863 15.7808L3 3.12735V22.5C3 22.7762 2.77614 23 2.5 23C2.22386 23 2 22.7762 2 22.5V1.50004C2 1.28046 2.14326 1.08658 2.35315 1.02209Z" fill="black"/>
</svg>
