<svg width="24" height="24" viewBox="0 0 24 24" fill="none" xmlns="http://www.w3.org/2000/svg">
<path d="M11.2929 17.7929C11.4804 17.6054 11.7348 17.5 12 17.5C12.2652 17.5 12.5196 17.6054 12.7071 17.7929C12.8946 17.9804 13 18.2348 13 18.5C13 18.7652 12.8946 19.0196 12.7071 19.2071C12.5196 19.3946 12.2652 19.5 12 19.5C11.7348 19.5 11.4804 19.3946 11.2929 19.2071C11.1054 19.0196 11 18.7652 11 18.5C11 18.2348 11.1054 17.9804 11.2929 17.7929Z" fill="black"/>
<path fill-rule="evenodd" clip-rule="evenodd" d="M12.5 21H22C23.1317 21 24 20.0378 24 18.912V4.088C24 2.96223 23.1317 2 22 2H2C0.869468 2 0 2.96201 0 4.088V18.912C0 20.038 0.869468 21 2 21H11.5V22H5C4.72386 22 4.5 22.2239 4.5 22.5C4.5 22.7761 4.72386 23 5 23H19C19.2761 23 19.5 22.7761 19.5 22.5C19.5 22.2239 19.2761 22 19 22H12.5V21ZM2 3C1.47453 3 1 3.45999 1 4.088V16H23V4.088C23 3.45977 22.5263 3 22 3H2ZM23 17H1V18.912C1 19.54 1.47453 20 2 20H22C22.5263 20 23 19.5402 23 18.912V17Z" fill="black"/>
</svg>
