<svg width="24" height="24" viewBox="0 0 24 24" fill="none" xmlns="http://www.w3.org/2000/svg">
<path d="M18.112 16.393C18.21 16.491 18.338 16.541 18.467 16.541C18.594 16.541 18.721 16.493 18.818 16.396C19.873 15.351 20.659 14.052 21.092 12.639C21.138 12.486 21.109 12.319 21.012 12.191C20.915 12.062 20.753 11.998 20.602 11.993C18.037 12.059 15.683 10.9 14.116 8.832C12.543 6.757 12.078 4.139 12.839 1.653C12.886 1.5 12.857 1.334 12.761 1.206C12.665 1.079 12.501 0.985995 12.354 1.007C9.207 1.053 6.366 2.698 4.757 5.406C3.145 8.119 3.055 11.4 4.519 14.184C4.647 14.427 4.95 14.524 5.194 14.394C5.438 14.266 5.532 13.963 5.404 13.719C4.105 11.245 4.185 8.32899 5.618 5.917C6.933 3.703 9.175 2.288 11.703 2.044C11.12 4.632 11.695 7.291 13.32 9.437C14.937 11.571 17.309 12.837 19.912 12.982C19.507 13.992 18.893 14.916 18.116 15.686C17.92 15.88 17.918 16.197 18.112 16.393Z" fill="black"/>
<path fill-rule="evenodd" clip-rule="evenodd" d="M9.5 22C9.224 22 9 21.776 9 21.5V17H7C6.792 17 6.606 16.872 6.533 16.678C6.46 16.484 6.513 16.265 6.668 16.126L11.168 12.126C11.357 11.958 11.643 11.958 11.832 12.126L16.332 16.126C16.487 16.265 16.541 16.483 16.467 16.678C16.393 16.873 16.208 17 16 17H14V21.5C14 21.776 13.776 22 13.5 22H9.5ZM13 21V16.5C13 16.224 13.224 16 13.5 16H14.685L11.5 13.169L8.315 16H9.5C9.776 16 10 16.224 10 16.5V21H13Z" fill="black"/>
<path d="M22.488 24H0.5C0.224 24 0 23.776 0 23.5C0 23.224 0.224 23 0.5 23H22.488C22.764 23 22.988 23.224 22.988 23.5C22.988 23.776 22.765 24 22.488 24Z" fill="black"/>
</svg>
