<svg width="24" height="24" viewBox="0 0 24 24" fill="none" xmlns="http://www.w3.org/2000/svg">
<path d="M21.437 7H17.983C17.966 6.978 17.956 6.951 17.938 6.93C17.676 6.605 17.34 6.365 16.969 6.207V5C16.969 2.243 14.726 0 11.969 0C9.212 0 6.969 2.243 6.969 5V6.207C6.597 6.365 6.261 6.605 5.998 6.93C5.981 6.951 5.97 6.978 5.953 7H2.5C2.224 7 2 7.224 2 7.5C2 7.776 2.223 8 2.5 8H5.5C5.432 8.334 5.425 8.68 5.498 9.023L7.665 19.137C7.897 20.217 8.865 21 9.969 21V22C9.969 23.103 10.866 24 11.969 24C13.072 24 13.969 23.103 13.969 22V21C15.072 21 16.041 20.217 16.272 19.138L18.439 9.024C18.513 8.68 18.505 8.334 18.438 8H21.438C21.714 8 21.938 7.776 21.938 7.5C21.938 7.224 21.714 7 21.437 7ZM17.461 8.814L17.065 10.663L12.758 13.387L13.407 10.807L17.424 8.07C17.496 8.309 17.515 8.562 17.461 8.814ZM6.476 8.813C6.422 8.562 6.441 8.308 6.513 8.068L10.53 10.806L11.183 13.405L6.891 10.752L6.476 8.813ZM15.995 7C16.299 7 16.585 7.098 16.83 7.264L12.686 10.087C12.585 10.155 12.513 10.26 12.483 10.378L11.969 12.428L11.454 10.378C11.424 10.26 11.352 10.156 11.251 10.087L7.108 7.264C7.353 7.098 7.639 7 7.943 7H15.995ZM11.969 1C14.175 1 15.969 2.794 15.969 5V6H7.969V5C7.969 2.794 9.763 1 11.969 1ZM12.969 22C12.969 22.552 12.52 23 11.969 23C11.418 23 10.969 22.552 10.969 22V18C10.969 17.448 11.418 17 11.969 17C12.52 17 12.969 17.448 12.969 18V22ZM15.294 18.929C15.161 19.549 14.603 20 13.969 20V18C13.969 16.897 13.072 16 11.969 16C10.866 16 9.969 16.897 9.969 18V20C9.334 20 8.777 19.549 8.643 18.929L7.181 12.106L11.705 14.904C11.786 14.955 11.877 14.979 11.968 14.979C12.061 14.979 12.154 14.954 12.235 14.902L16.771 12.033L15.294 18.929Z" fill="black"/>
</svg>
