<svg width="24" height="24" viewBox="0 0 24 24" fill="none" xmlns="http://www.w3.org/2000/svg">
<path d="M19.779 0.584962C19.64 0.490962 19.466 0.474962 19.311 0.536962L8.311 5.03696C8.123 5.11396 8 5.29696 8 5.49996V17H5.5C3.57 17 2 18.57 2 20.5C2 22.43 3.57 24 5.5 24C7.364 24 9 22.364 9 20.5V17.5V9.33596L19 5.24496V13H16.5C14.57 13 13 14.57 13 16.5C13 18.43 14.57 20 16.5 20C18.364 20 20 18.364 20 16.5V13.5V0.999962C20 0.832962 19.917 0.677962 19.779 0.584962ZM8 20.5C8 21.68 6.931 23 5.5 23C4.122 23 3 21.879 3 20.5C3 19.121 4.122 18 5.5 18H8V20.5ZM9 8.25496V5.83596L19 1.74496V4.16396L9 8.25496ZM19 16.5C19 17.68 17.931 19 16.5 19C15.122 19 14 17.879 14 16.5C14 15.121 15.122 14 16.5 14H19V16.5Z" fill="black"/>
</svg>
