<svg width="24" height="24" viewBox="0 0 24 24" fill="none" xmlns="http://www.w3.org/2000/svg">
<path d="M14.277 4.084C13.37 3.479 13 2.73 13 1.5C13 1.224 12.776 1 12.5 1C12.224 1 12 1.224 12 1.5V15H9.5C7.57 15 6 16.57 6 18.5C6 20.43 7.57 22 9.5 22C11.364 22 13 20.364 13 18.5V15.5V4.319C13.207 4.534 13.447 4.732 13.723 4.916C17.917 7.713 16.558 11.198 15.359 14.273L15.147 14.821C15.048 15.079 15.177 15.368 15.435 15.467C15.693 15.566 15.982 15.438 16.081 15.179L16.291 14.637C17.494 11.552 19.141 7.327 14.277 4.084ZM12 18.5C12 19.68 10.931 21 9.5 21C8.122 21 7 19.879 7 18.5C7 17.121 8.122 16 9.5 16H12V18.5Z" fill="black"/>
</svg>
