<svg width="24" height="24" viewBox="0 0 24 24" fill="none" xmlns="http://www.w3.org/2000/svg">
<path fill-rule="evenodd" clip-rule="evenodd" d="M1 5C1 4.72386 1.22386 4.5 1.5 4.5H22.5C22.7761 4.5 23 4.72386 23 5C23 5.27614 22.7761 5.5 22.5 5.5H1.5C1.22386 5.5 1 5.27614 1 5ZM1 12C1 11.7239 1.22386 11.5 1.5 11.5H22.5C22.7761 11.5 23 11.7239 23 12C23 12.2761 22.7761 12.5 22.5 12.5H1.5C1.22386 12.5 1 12.2761 1 12ZM1 19C1 18.7239 1.22386 18.5 1.5 18.5H22.5C22.7761 18.5 23 18.7239 23 19C23 19.2761 22.7761 19.5 22.5 19.5H1.5C1.22386 19.5 1 19.2761 1 19Z" fill="black"/>
</svg>
