<svg width="24" height="24" viewBox="0 0 24 24" fill="none" xmlns="http://www.w3.org/2000/svg">
<path fill-rule="evenodd" clip-rule="evenodd" d="M16.5 17H14.5C14.224 17 14 16.776 14 16.5V7.5C14 7.224 14.224 7 14.5 7H16.5C16.776 7 17 7.224 17 7.5V16.5C17 16.776 16.776 17 16.5 17ZM15 16H16V8H15V16Z" fill="black"/>
<path fill-rule="evenodd" clip-rule="evenodd" d="M7.296 16.957C7.362 16.985 7.431 17 7.5 17C7.621 17 7.741 16.956 7.834 16.872L12.834 12.372C12.94 12.276 13 12.142 13 12C13 11.858 12.94 11.724 12.834 11.628L7.834 7.128C7.687 6.996 7.477 6.965 7.296 7.043C7.116 7.124 7 7.303 7 7.5V16.5C7 16.697 7.116 16.876 7.296 16.957ZM11.752 12L8 15.377V8.623L11.752 12Z" fill="black"/>
<path fill-rule="evenodd" clip-rule="evenodd" d="M12 24C5.383 24 0 18.617 0 12C0 5.383 5.383 0 12 0C18.617 0 24 5.383 24 12C24 18.617 18.617 24 12 24ZM12 1C5.935 1 1 5.935 1 12C1 18.065 5.935 23 12 23C18.065 23 23 18.065 23 12C23 5.935 18.065 1 12 1Z" fill="black"/>
</svg>
