<svg width="24" height="24" viewBox="0 0 24 24" fill="none" xmlns="http://www.w3.org/2000/svg">
<g clip-path="url(#clip0_366_12698)">
<path d="M11.6629 1.13076C11.8538 0.956414 12.1462 0.956414 12.3371 1.13076L23.8371 11.6308C24.0411 11.817 24.0554 12.1332 23.8692 12.3371C23.6831 12.5411 23.3668 12.5554 23.1629 12.3692L12 2.17706L0.837138 12.3692C0.633211 12.5554 0.316955 12.5411 0.13076 12.3371C-0.0554339 12.1332 -0.0410586 11.817 0.162869 11.6308L11.6629 1.13076Z" fill="black"/>
<path d="M3.5 12C3.77614 12 4 12.2239 4 12.5V23H12.5C12.7761 23 13 23.2239 13 23.5C13 23.7761 12.7761 24 12.5 24H3.5C3.22386 24 3 23.7761 3 23.5V12.5C3 12.2239 3.22386 12 3.5 12Z" fill="black"/>
<path d="M16 2C15.7239 2 15.5 2.22386 15.5 2.5C15.5 2.77614 15.7239 3 16 3H19V6C19 6.27614 19.2239 6.5 19.5 6.5C19.7761 6.5 20 6.27614 20 6V2.5C20 2.22386 19.7761 2 19.5 2H16Z" fill="black"/>
<path fill-rule="evenodd" clip-rule="evenodd" d="M10 6.5C10 6.22386 10.2239 6 10.5 6H13.5C13.7761 6 14 6.22386 14 6.5V9.5C14 9.77614 13.7761 10 13.5 10H10.5C10.2239 10 10 9.77614 10 9.5V6.5ZM11 7V9H13V7H11Z" fill="black"/>
<path fill-rule="evenodd" clip-rule="evenodd" d="M17.8746 16.67C17.9316 16.5124 17.9059 16.3368 17.806 16.2022C17.7062 16.0676 17.5456 15.9919 17.3782 16.0007C15.2289 16.1134 13.5 17.8479 13.5 19.9974C13.5 22.221 15.3495 24 17.6015 24C19.3817 24 20.9055 22.8915 21.4702 21.3298C21.5272 21.1722 21.5014 20.9966 21.4016 20.862C21.3018 20.7273 21.1412 20.6517 20.9738 20.6605C20.9173 20.6634 20.8603 20.6649 20.8029 20.6649C19.0767 20.6649 17.7014 19.3076 17.7014 17.6624C17.7014 17.3139 17.7625 16.9802 17.8746 16.67ZM14.5 19.9974C14.5 18.6376 15.4392 17.4747 16.7399 17.1119C16.7145 17.292 16.7014 17.4758 16.7014 17.6624C16.7014 19.6871 18.2349 21.3432 20.2095 21.6232C19.659 22.4486 18.6997 23 17.6015 23C15.8754 23 14.5 21.6427 14.5 19.9974Z" fill="black"/>
<path d="M20.5 13C20.7761 13 21 13.2239 21 13.5V14H21.5C21.7761 14 22 14.2239 22 14.5C22 14.7761 21.7761 15 21.5 15H21V15.5C21 15.7761 20.7761 16 20.5 16C20.2239 16 20 15.7761 20 15.5V15H19.5C19.2239 15 19 14.7761 19 14.5C19 14.2239 19.2239 14 19.5 14H20V13.5C20 13.2239 20.2239 13 20.5 13Z" fill="black"/>
<path d="M23 17.5C23 17.2239 22.7761 17 22.5 17C22.2239 17 22 17.2239 22 17.5V18H21.5C21.2239 18 21 18.2239 21 18.5C21 18.7761 21.2239 19 21.5 19H22V19.5C22 19.7761 22.2239 20 22.5 20C22.7761 20 23 19.7761 23 19.5V19H23.5C23.7761 19 24 18.7761 24 18.5C24 18.2239 23.7761 18 23.5 18H23V17.5Z" fill="black"/>
</g>
<defs>
<clipPath id="clip0_366_12698">
<rect width="24" height="24" fill="white"/>
</clipPath>
</defs>
</svg>
