<svg width="24" height="24" viewBox="0 0 24 24" fill="none" xmlns="http://www.w3.org/2000/svg">
<path d="M0.853553 0.146447C0.658291 -0.0488155 0.341709 -0.0488155 0.146447 0.146447C-0.0488155 0.341709 -0.0488155 0.658291 0.146447 0.853553L23.1464 23.8536C23.3417 24.0488 23.6583 24.0488 23.8536 23.8536C24.0488 23.6583 24.0488 23.3417 23.8536 23.1464L0.853553 0.146447Z" fill="black"/>
<path d="M12.5 0.5C12.5 0.223858 12.2761 7.45058e-09 12 7.45058e-09C11.7239 7.45058e-09 11.5 0.223858 11.5 0.5V2.5C11.5 2.77614 11.7239 3 12 3C12.2761 3 12.5 2.77614 12.5 2.5V0.5Z" fill="black"/>
<path d="M19 16.8787V12C19 8.13401 15.866 5 12 5C10.6099 5 9.31442 5.40521 8.22527 6.10395L7.50357 5.38225C8.78498 4.5099 10.3329 4 12 4C16.4183 4 20 7.58172 20 12V17.8787L19 16.8787Z" fill="black"/>
<path d="M5.38225 7.50357C4.5099 8.78498 4 10.3329 4 12V20.05C2.85888 20.2816 2 21.2905 2 22.5V23.5C2 23.7761 2.22386 24 2.5 24H21.5C21.6071 24 21.7063 23.9663 21.7877 23.909L20.8787 23H3V22.5C3 21.6716 3.67157 21 4.5 21H18.8787L17.8787 20H12.5V15.937C12.8228 15.8539 13.1141 15.6922 13.3523 15.4736L12.6439 14.7652C12.4699 14.9117 12.2453 15 12 15C11.4477 15 11 14.5523 11 14C11 13.7547 11.0883 13.5301 11.2348 13.3561L10.5264 12.6477C10.1995 13.0038 10 13.4786 10 14C10 14.9319 10.6374 15.715 11.5 15.937V20H5V12C5 10.6099 5.40521 9.31442 6.10395 8.22527L5.38225 7.50357Z" fill="black"/>
<path d="M18 1.6077C18.2391 1.74577 18.3211 2.05156 18.183 2.29071L17.183 4.02276C17.0449 4.26191 16.7391 4.34384 16.5 4.20577C16.2609 4.0677 16.1789 3.76191 16.317 3.52276L17.317 1.79071C17.4551 1.55156 17.7609 1.46963 18 1.6077Z" fill="black"/>
<path d="M22.2093 6.68301C22.4484 6.54494 22.5304 6.23914 22.3923 6C22.2542 5.76085 21.9484 5.67892 21.7093 5.81699L19.9772 6.81699C19.7381 6.95506 19.6562 7.26085 19.7942 7.5C19.9323 7.73914 20.2381 7.82108 20.4772 7.68301L22.2093 6.68301Z" fill="black"/>
<path d="M23.5 11.5C23.7761 11.5 24 11.7239 24 12C24 12.2761 23.7761 12.5 23.5 12.5H21.5C21.2239 12.5 21 12.2761 21 12C21 11.7239 21.2239 11.5 21.5 11.5H23.5Z" fill="black"/>
<path d="M0.5 11.5C0.223858 11.5 7.45058e-09 11.7239 7.45058e-09 12C7.45058e-09 12.2761 0.223858 12.5 0.5 12.5H2.5C2.77614 12.5 3 12.2761 3 12C3 11.7239 2.77614 11.5 2.5 11.5H0.5Z" fill="black"/>
<path d="M1.6077 6C1.74577 5.76086 2.05156 5.67892 2.29071 5.81699L4.02276 6.81699C4.26191 6.95506 4.34384 7.26086 4.20577 7.5C4.0677 7.73915 3.76191 7.82108 3.52276 7.68301L1.79071 6.68301C1.55156 6.54494 1.46963 6.23915 1.6077 6Z" fill="black"/>
<path d="M6.68301 1.79071C6.54494 1.55156 6.23914 1.46963 6 1.6077C5.76085 1.74577 5.67892 2.05156 5.81699 2.29071L6.81699 4.02276C6.95506 4.26191 7.26085 4.34384 7.5 4.20577C7.73914 4.0677 7.82108 3.76191 7.68301 3.52276L6.68301 1.79071Z" fill="black"/>
</svg>
