<svg width="24" height="24" viewBox="0 0 24 24" fill="none" xmlns="http://www.w3.org/2000/svg">
<path d="M0.853553 0.146447C0.658291 -0.0488155 0.341709 -0.0488155 0.146447 0.146447C-0.0488155 0.341709 -0.0488155 0.658291 0.146447 0.853553L23.1464 23.8536C23.3417 24.0488 23.6583 24.0488 23.8536 23.8536C24.0488 23.6583 24.0488 23.3417 23.8536 23.1464L0.853553 0.146447Z" fill="black"/>
<path d="M12 7.45058e-09C12.2761 7.45058e-09 12.5 0.223858 12.5 0.5V2.5C12.5 2.77614 12.2761 3 12 3C11.7239 3 11.5 2.77614 11.5 2.5V0.5C11.5 0.223858 11.7239 7.45058e-09 12 7.45058e-09Z" fill="black"/>
<path d="M19 16.8787V12C19 8.13401 15.866 5 12 5C10.6099 5 9.31442 5.40521 8.22527 6.10395L7.50357 5.38225C8.78498 4.5099 10.3329 4 12 4C16.4183 4 20 7.58172 20 12V17.8787L19 16.8787Z" fill="black"/>
<path d="M8.95205 6.83073L9.68722 7.5659C10.3788 7.20441 11.1655 7 12 7C12.2761 7 12.5 6.77614 12.5 6.5C12.5 6.22386 12.2761 6 12 6C10.8873 6 9.84532 6.30289 8.95205 6.83073Z" fill="black"/>
<path d="M5.38225 7.50357C4.5099 8.78498 4 10.3329 4 12V20.05C2.85888 20.2816 2 21.2905 2 22.5V23.5C2 23.7761 2.22386 24 2.5 24H21.5C21.6071 24 21.7063 23.9663 21.7877 23.909L20.8787 23H3V22.5C3 21.6716 3.67157 21 4.5 21H18.8787L17.8787 20H5V12C5 10.6099 5.40521 9.31442 6.10395 8.22527L5.38225 7.50357Z" fill="black"/>
<path d="M6.83073 8.95205C6.30289 9.84532 6 10.8873 6 12C6 12.2761 6.22386 12.5 6.5 12.5C6.77614 12.5 7 12.2761 7 12C7 11.1655 7.20441 10.3788 7.5659 9.68722L6.83073 8.95205Z" fill="black"/>
<path d="M18.183 2.29071C18.3211 2.05156 18.2391 1.74577 18 1.6077C17.7609 1.46963 17.4551 1.55156 17.317 1.79071L16.317 3.52276C16.1789 3.76191 16.2609 4.0677 16.5 4.20577C16.7391 4.34384 17.0449 4.26191 17.183 4.02276L18.183 2.29071Z" fill="black"/>
<path d="M22.3923 6C22.5304 6.23914 22.4484 6.54494 22.2093 6.68301L20.4772 7.68301C20.2381 7.82108 19.9323 7.73914 19.7942 7.5C19.6562 7.26085 19.7381 6.95506 19.9772 6.81699L21.7093 5.81699C21.9484 5.67892 22.2542 5.76085 22.3923 6Z" fill="black"/>
<path d="M21.5 12.5H23.5C23.7761 12.5 24 12.2761 24 12C24 11.7239 23.7761 11.5 23.5 11.5H21.5C21.2239 11.5 21 11.7239 21 12C21 12.2761 21.2239 12.5 21.5 12.5Z" fill="black"/>
<path d="M7.45058e-09 12C7.45058e-09 11.7239 0.223858 11.5 0.5 11.5H2.5C2.77614 11.5 3 11.7239 3 12C3 12.2761 2.77614 12.5 2.5 12.5H0.5C0.223858 12.5 7.45058e-09 12.2761 7.45058e-09 12Z" fill="black"/>
<path d="M2.29071 5.81699C2.05156 5.67892 1.74577 5.76086 1.6077 6C1.46963 6.23915 1.55156 6.54494 1.79071 6.68301L3.52276 7.68301C3.76191 7.82108 4.0677 7.73915 4.20577 7.5C4.34384 7.26086 4.26191 6.95506 4.02276 6.81699L2.29071 5.81699Z" fill="black"/>
<path d="M6 1.6077C6.23914 1.46963 6.54494 1.55156 6.68301 1.79071L7.68301 3.52276C7.82108 3.76191 7.73914 4.0677 7.5 4.20577C7.26085 4.34384 6.95506 4.26191 6.81699 4.02276L5.81699 2.29071C5.67892 2.05156 5.76085 1.74577 6 1.6077Z" fill="black"/>
</svg>
