<svg width="24" height="24" viewBox="0 0 24 24" fill="none" xmlns="http://www.w3.org/2000/svg">
<path d="M4.66961 6.79093C4.23897 7.7732 4 8.85865 4 10L4.00012 14.2929L2.14657 16.1464C2.0528 16.2402 2.00012 16.3674 2.00012 16.5V19.5C2.00012 19.7761 2.22398 20 2.50012 20H17.8787L16.8787 19H3.00012V16.7071L4.85368 14.8536C4.94744 14.7598 5.00012 14.6326 5.00012 14.5L5 10C5 9.14145 5.1546 8.31893 5.43748 7.5588L4.66961 6.79093Z" fill="black"/>
<path d="M21.0001 16.7071V18.8788L21.9091 19.7878C21.9664 19.7064 22.0001 19.6071 22.0001 19.5V16.5C22.0001 16.3674 21.9474 16.2402 21.8537 16.1464L20.0001 14.2929L20 10C20 6.27194 17.4504 3.14042 14 2.25216V2C14 0.895431 13.1046 2.64208e-10 12 2.64208e-10C10.8954 2.64208e-10 10 0.895431 10 2V2.25216C8.62298 2.60666 7.38943 3.31844 6.40416 4.28284L7.11125 4.98993C8.05475 4.06904 9.25737 3.41246 10.5995 3.14003C10.8325 3.09273 11 2.88783 11 2.65003V2C11 1.44772 11.4477 1 12 1C12.5523 1 13 1.44772 13 2V2.65003C13 2.88783 13.1675 3.09273 13.4005 3.14003C16.5955 3.78857 19 6.61404 19 10L19.0001 14.5C19.0001 14.6326 19.0528 14.7598 19.1466 14.8536L21.0001 16.7071Z" fill="black"/>
<path d="M10.0001 21C10.2763 21 10.5001 21.2239 10.5001 21.5C10.5001 22.3284 11.1717 23 12.0001 23C12.8285 23 13.5001 22.3284 13.5001 21.5C13.5001 21.2239 13.724 21 14.0001 21C14.2763 21 14.5001 21.2239 14.5001 21.5C14.5001 22.8807 13.3808 24 12.0001 24C10.6194 24 9.50012 22.8807 9.50012 21.5C9.50012 21.2239 9.72398 21 10.0001 21Z" fill="black"/>
<path d="M1.14645 1.14645C1.34171 0.951184 1.65829 0.951184 1.85355 1.14645L22.8536 22.1464C23.0488 22.3417 23.0488 22.6583 22.8536 22.8536C22.6583 23.0488 22.3417 23.0488 22.1464 22.8536L1.14645 1.85355C0.951184 1.65829 0.951184 1.34171 1.14645 1.14645Z" fill="black"/>
</svg>
