<svg width="24" height="24" viewBox="0 0 24 24" fill="none" xmlns="http://www.w3.org/2000/svg">
<g clip-path="url(#clip0_360_13164)">
<path d="M0.853553 0.146447C0.658291 -0.0488155 0.341709 -0.0488155 0.146447 0.146447C-0.0488155 0.341709 -0.0488155 0.658291 0.146447 0.853553L23.1464 23.8536C23.3417 24.0488 23.6583 24.0488 23.8536 23.8536C24.0488 23.6583 24.0488 23.3417 23.8536 23.1464L0.853553 0.146447Z" fill="black"/>
<path d="M16 12C16 12.5547 15.8873 13.0825 15.6836 13.5623L16.434 14.3127C16.7955 13.6209 17 12.8339 17 12C17 11.041 16.7296 10.1442 16.2611 9.38286C17.39 8.76647 18.7023 8.20506 19.9128 7.74166C21.4183 7.16537 23 8.30346 23 9.97719V13.3746C23 14.9545 21.5782 16.0839 20.1131 15.6719C18.9672 15.3497 17.7101 14.9452 16.594 14.4727L18.2841 16.1628C18.8152 16.3362 19.3417 16.4938 19.8424 16.6346C22.0006 17.2415 24 15.5586 24 13.3746V9.97719C24 7.66465 21.7727 5.95894 19.5553 6.80774C18.2808 7.29565 16.865 7.90151 15.647 8.57953C15.5145 8.43833 15.3739 8.30483 15.226 8.17977C15.7972 6.9115 16.2716 5.44845 16.6346 4.15759C17.2415 1.99938 15.5586 7.45058e-09 13.3746 7.45058e-09H9.97719C7.66465 7.45058e-09 5.95894 2.2273 6.80774 4.44467C6.85764 4.57501 6.90877 4.70683 6.96108 4.83976L8.88259 6.76127C8.46198 5.88842 8.07627 4.96129 7.74166 4.08717C7.16537 2.5817 8.30346 1 9.97719 1H13.3746C14.9545 1 16.0839 2.42178 15.6719 3.88687C15.3303 5.10166 14.8963 6.44133 14.3868 7.6055C13.6773 7.21941 12.8638 7 12 7C11.166 7 10.3791 7.20451 9.6873 7.56598L10.4377 8.31643C10.9175 8.11266 11.4454 8 12 8C12.8635 8 13.6617 8.27301 14.3149 8.73748C14.6278 8.95994 14.9074 9.22634 15.1447 9.52762C15.6806 10.2082 16 11.0661 16 12Z" fill="black"/>
<path d="M4.15759 7.36541C4.65827 7.50621 5.18484 7.66377 5.71591 7.83723L7.406 9.52732C6.28994 9.05479 5.03284 8.65034 3.88687 8.32807C2.42178 7.91607 1 9.04551 1 10.6254V14.0228C1 15.6965 2.5817 16.8346 4.08717 16.2583C5.29774 15.7949 6.60997 15.2335 7.73892 14.6171C7.2704 13.8558 7 12.959 7 12C7 11.1661 7.20447 10.3791 7.56598 9.6873L8.31643 10.4377C8.11268 10.9175 8 11.4453 8 12C8 12.9339 8.31943 13.7918 8.85534 14.4724C9.09259 14.7737 9.37219 15.0401 9.68508 15.2625C10.3383 15.727 11.1365 16 12 16C12.5546 16 13.0825 15.8873 13.5623 15.6836L14.3127 16.434C13.6209 16.7955 12.834 17 12 17C11.1362 17 10.3227 16.7806 9.61319 16.3945C9.10367 17.5587 8.66969 18.8983 8.32807 20.1131C7.91607 21.5782 9.04551 23 10.6254 23H14.0228C15.6965 23 16.8346 21.4183 16.2583 19.9128C15.9237 19.0387 15.538 18.1116 15.1174 17.2387L17.0389 19.1602C17.0912 19.2932 17.1424 19.425 17.1923 19.5553C18.0411 21.7727 16.3354 24 14.0228 24H10.6254C8.44137 24 6.75849 22.0006 7.36541 19.8424C7.72843 18.5516 8.20284 17.0885 8.77404 15.8202C8.62608 15.6952 8.48549 15.5617 8.35302 15.4205C7.13498 16.0985 5.71924 16.7044 4.44467 17.1923C2.2273 18.0411 7.45058e-09 16.3354 7.45058e-09 14.0228V10.6254C7.45058e-09 8.44137 1.99938 6.75849 4.15759 7.36541Z" fill="black"/>
<path d="M9.5 12C9.5 11.8799 9.50847 11.7618 9.52485 11.6462L12.3538 14.4752C12.2382 14.4915 12.1201 14.5 12 14.5C10.6193 14.5 9.5 13.3807 9.5 12Z" fill="black"/>
<path d="M11.6462 9.52485C11.7618 9.50847 11.8799 9.5 12 9.5C13.3807 9.5 14.5 10.6193 14.5 12C14.5 12.1201 14.4915 12.2382 14.4752 12.3538L11.6462 9.52485Z" fill="black"/>
</g>
<defs>
<clipPath id="clip0_360_13164">
<rect width="24" height="24" fill="white"/>
</clipPath>
</defs>
</svg>
