<svg width="24" height="24" viewBox="0 0 24 24" fill="none" xmlns="http://www.w3.org/2000/svg">
<g clip-path="url(#clip0_676_340)">
<path d="M22.5 5.02135C22.5 10.0396 22.239 14.4639 20.1016 17.9802L19.3765 17.2551C21.2222 14.0802 21.487 10.088 21.499 5.40035C20.002 4.97135 14.477 3.29135 12.001 1.17235C10.627 2.34672 8.31627 3.38674 6.2748 4.15348L5.49415 3.37283C7.72044 2.56445 10.3795 1.40941 11.64 0.147348C11.828 -0.0406523 12.175 -0.0406523 12.363 0.147348C14.72 2.51135 21.9954 4.50153 22.1287 4.53799L22.13 4.53835C22.349 4.59735 22.5 4.79435 22.5 5.02135Z" fill="black"/>
<path d="M1.87136 4.53797C1.88985 4.53292 2.04169 4.49139 2.29609 4.41741L3.10207 5.22339C2.86231 5.29572 2.65917 5.35502 2.501 5.40035C2.522 13.6023 3.317 19.6753 12 22.9663C14.385 22.0624 16.1749 20.9486 17.517 19.6384L18.2228 20.3441C16.7581 21.7788 14.7971 22.998 12.174 23.9693C12.117 23.9903 12.059 24.0003 12 24.0003C11.941 24.0003 11.883 23.9903 11.826 23.9693C2.261 20.4273 1.5 13.5903 1.5 5.02135C1.5 4.79435 1.651 4.59735 1.87 4.53835L1.87136 4.53797Z" fill="black"/>
<path d="M1.85355 1.14645C1.65829 0.951184 1.34171 0.951184 1.14645 1.14645C0.951184 1.34171 0.951184 1.65829 1.14645 1.85355L22.1464 22.8536C22.3417 23.0488 22.6583 23.0488 22.8536 22.8536C23.0488 22.6583 23.0488 22.3417 22.8536 22.1464L1.85355 1.14645Z" fill="black"/>
</g>
<defs>
<clipPath id="clip0_676_340">
<rect width="24" height="24" fill="white"/>
</clipPath>
</defs>
</svg>
