<svg width="24" height="24" viewBox="0 0 24 24" fill="none" xmlns="http://www.w3.org/2000/svg">
<path d="M12.5 0.5C12.5 0.223858 12.2761 0 12 0C11.7239 0 11.5 0.223858 11.5 0.5V9.5C11.5 9.77614 11.7239 10 12 10C12.2761 10 12.5 9.77614 12.5 9.5V0.5Z" fill="black"/>
<path d="M8.67502 4.59837C8.93369 4.50171 9.06503 4.21366 8.96837 3.95499C8.87171 3.69631 8.58365 3.56498 8.32498 3.66164C4.33926 5.15102 1.5 8.99351 1.5 13.5004C1.5 19.2994 6.20101 24.0004 12 24.0004C17.799 24.0004 22.5 19.2994 22.5 13.5004C22.5 8.99351 19.6607 5.15102 15.675 3.66164C15.4163 3.56498 15.1283 3.69631 15.0316 3.95499C14.935 4.21366 15.0663 4.50171 15.325 4.59837C18.9326 5.94646 21.5 9.42423 21.5 13.5004C21.5 18.7471 17.2467 23.0004 12 23.0004C6.75329 23.0004 2.5 18.7471 2.5 13.5004C2.5 9.42423 5.06741 5.94646 8.67502 4.59837Z" fill="black"/>
</svg>
