<svg width="24" height="24" viewBox="0 0 24 24" fill="none" xmlns="http://www.w3.org/2000/svg">
<path d="M12.3536 5.14645C12.1583 4.95118 11.8417 4.95118 11.6464 5.14645L3.14645 13.6464C2.95118 13.8417 2.95118 14.1583 3.14645 14.3536C3.34171 14.5488 3.65829 14.5488 3.85355 14.3536L12 6.20711L20.1464 14.3536C20.3417 14.5488 20.6583 14.5488 20.8536 14.3536C21.0488 14.1583 21.0488 13.8417 20.8536 13.6464L12.3536 5.14645Z" fill="black"/>
<path d="M1.5 18C1.22386 18 1 18.2239 1 18.5C1 18.7761 1.22386 19 1.5 19H22.5C22.7761 19 23 18.7761 23 18.5C23 18.2239 22.7761 18 22.5 18H1.5Z" fill="black"/>
</svg>
