<svg width="24" height="24" viewBox="0 0 24 24" fill="none" xmlns="http://www.w3.org/2000/svg">
<path fill-rule="evenodd" clip-rule="evenodd" d="M3.52874 15.5C3.11355 15.5 2.73816 15.2506 2.57855 14.8664C2.41883 14.482 2.50732 14.0397 2.80187 13.7461L11.2732 5.3003C11.6748 4.8999 12.3253 4.8999 12.7269 5.3003L21.1982 13.7461C21.4928 14.0397 21.5813 14.482 21.4216 14.8664C21.2619 15.2506 20.8865 15.5 20.4714 15.5H3.52874ZM3.50202 14.4828C3.50607 14.4925 3.51625 14.5 3.52874 14.5H20.4714C20.4838 14.5 20.494 14.4925 20.4981 14.4828C20.502 14.4733 20.5001 14.4621 20.4922 14.4542L12.0209 6.00848C12.0095 5.99717 11.9905 5.99718 11.9792 6.00847L3.50791 14.4542C3.50004 14.4621 3.49806 14.4733 3.50202 14.4828Z" fill="black"/>
<path d="M1.5 18C1.22386 18 1 18.2239 1 18.5C1 18.7761 1.22386 19 1.5 19H22.5C22.7761 19 23 18.7761 23 18.5C23 18.2239 22.7761 18 22.5 18H1.5Z" fill="black"/>
</svg>
