<svg width="24" height="24" viewBox="0 0 24 24" fill="none" xmlns="http://www.w3.org/2000/svg">
<path fill-rule="evenodd" clip-rule="evenodd" d="M17 5.5C17 6.327 16.327 7 15.5 7C14.673 7 14 6.327 14 5.5C14 4.673 14.673 4 15.5 4C16.327 4 17 4.673 17 5.5ZM16 5.5C16 5.225 15.775 5 15.5 5C15.225 5 15 5.225 15 5.5C15 5.775 15.225 6 15.5 6C15.775 6 16 5.775 16 5.5Z" fill="black"/>
<path d="M18 12.5C18 12.224 17.776 12 17.5 12H6.5C6.224 12 6 12.224 6 12.5C6 12.776 6.224 13 6.5 13H17.5C17.776 13 18 12.776 18 12.5Z" fill="black"/>
<path fill-rule="evenodd" clip-rule="evenodd" d="M3.5 21C3.224 21 3 20.776 3 20.5V9.5C3 9.224 3.224 9 3.5 9H20.5C20.776 9 21 9.224 21 9.5V20.5C21 20.776 20.776 21 20.5 21H3.5ZM4 10V20H20V10H4Z" fill="black"/>
<path fill-rule="evenodd" clip-rule="evenodd" d="M19.5 7C20.327 7 21 6.327 21 5.5C21 4.673 20.327 4 19.5 4C18.673 4 18 4.673 18 5.5C18 6.327 18.673 7 19.5 7ZM19.5 5C19.775 5 20 5.225 20 5.5C20 5.775 19.775 6 19.5 6C19.225 6 19 5.775 19 5.5C19 5.225 19.225 5 19.5 5Z" fill="black"/>
<path fill-rule="evenodd" clip-rule="evenodd" d="M3.5 7H12.5C12.776 7 13 6.776 13 6.5V4.5C13 4.224 12.776 4 12.5 4H3.5C3.224 4 3 4.224 3 4.5V6.5C3 6.776 3.224 7 3.5 7ZM4 5H12V6H4V5Z" fill="black"/>
<path fill-rule="evenodd" clip-rule="evenodd" d="M23.5 3C23.776 3 24 2.776 24 2.5V0.5C24 0.224 23.776 0 23.5 0H0.5C0.224 0 0 0.224 0 0.5V2.5C0 2.776 0.224 3 0.5 3H1V23H0.5C0.223858 23 0 23.2239 0 23.5C0 23.7587 0.196875 23.9718 0.448901 23.9974C0.465703 23.9991 0.48275 24 0.5 24H23.5C23.5345 24 23.5681 23.9965 23.6006 23.9899C23.8122 23.9466 23.9752 23.7696 23.9974 23.5511C23.9991 23.5343 24 23.5173 24 23.5C24 23.4655 23.9965 23.4319 23.9899 23.3994C23.9499 23.2041 23.796 23.0502 23.6007 23.0102C23.5682 23.0035 23.5345 23 23.5 23H23V3H23.5ZM22 23V3H2V23H22ZM1 1H23V2H1V1Z" fill="black"/>
</svg>
