<svg width="24" height="24" viewBox="0 0 24 24" fill="none" xmlns="http://www.w3.org/2000/svg">
<g clip-path="url(#clip0_368_12845)">
<path fill-rule="evenodd" clip-rule="evenodd" d="M11.5 14.0001H10.041L13.391 18.1881C13.511 18.3381 13.534 18.5441 13.451 18.7171C13.367 18.8901 13.192 19.0001 13 19.0001H6.99999V23.5001C6.99999 23.7761 6.77599 24.0001 6.49999 24.0001C6.22399 24.0001 5.99999 23.7761 5.99999 23.5001V19.0001H0.499992C0.307992 19.0001 0.132992 18.8901 0.0489918 18.7171C-0.0340082 18.5441 -0.0110082 18.3381 0.108992 18.1881L3.45899 14.0001H1.99999C1.81299 14.0001 1.64299 13.8961 1.55599 13.7311C1.46999 13.5661 1.48299 13.3671 1.58999 13.2141L4.53999 9.00007H3.99999C3.82699 9.00007 3.66599 8.91107 3.57499 8.76307C3.48299 8.61507 3.47499 8.43107 3.55299 8.27607L6.05299 3.27607C6.13399 3.11307 6.29799 3.00707 6.48099 3.00007C6.66699 2.98607 6.83499 3.08707 6.92899 3.24307L9.92899 8.24307C10.021 8.39807 10.024 8.59107 9.93499 8.74707C9.84599 8.90307 9.67999 9.00007 9.49999 9.00007H8.95999L11.909 13.2141C12.016 13.3671 12.029 13.5661 11.943 13.7311C11.857 13.8961 11.687 14.0001 11.5 14.0001ZM4.89099 13.8121L1.54099 18.0001H11.959L8.60899 13.8121C8.48899 13.6621 8.46599 13.4561 8.54899 13.2831C8.63299 13.1101 8.80799 13.0001 8.99999 13.0001H10.54L7.58999 8.78707C7.48299 8.63407 7.46999 8.43507 7.55699 8.26907C7.64299 8.10407 7.81299 8.00007 7.99999 8.00007H8.61699L6.53999 4.53807L4.80899 8.00007H5.49999C5.68699 8.00007 5.85699 8.10407 5.94399 8.26907C6.02999 8.43507 6.01699 8.63407 5.90999 8.78707L2.95999 13.0001H4.49999C4.69199 13.0001 4.86699 13.1101 4.95099 13.2831C5.03399 13.4561 5.01099 13.6621 4.89099 13.8121Z" fill="black"/>
<path fill-rule="evenodd" clip-rule="evenodd" d="M15.5 15.0001H23.5C23.776 15.0001 24 15.2241 24 15.5001V21.5001C24 21.7761 23.776 22.0001 23.5 22.0001H23V23.5001C23 23.7761 22.776 24.0001 22.5 24.0001C22.224 24.0001 22 23.7761 22 23.5001V22.0001H17V23.5001C17 23.7761 16.776 24.0001 16.5 24.0001C16.224 24.0001 16 23.7761 16 23.5001V22.0001H15.5C15.224 22.0001 15 21.7761 15 21.5001V15.5001C15 15.2241 15.224 15.0001 15.5 15.0001ZM22 19.0001H23V16.0001H22V19.0001ZM18 16.0001V19.0001H19V16.0001H18ZM21 16.0001H20V19.0001H21V16.0001ZM17 19.0001V16.0001H16V19.0001H17ZM16 20.0001V21.0001H23V20.0001H16Z" fill="black"/>
</g>
<defs>
<clipPath id="clip0_368_12845">
<rect width="24" height="24" fill="white"/>
</clipPath>
</defs>
</svg>
