<svg width="24" height="24" viewBox="0 0 24 24" fill="none" xmlns="http://www.w3.org/2000/svg">
<path d="M20.4629 23.311L18.6179 18.815L16.8399 14.482L15.0629 10.149L13.7429 6.931C13.9279 6.975 14.1039 7 14.2659 7C14.2659 7 14.2659 7 14.2669 7C14.7289 7 15.0089 6.817 15.1629 6.663C15.7679 6.059 15.5489 4.891 14.5839 3.5C15.5489 2.109 15.7689 0.94 15.1629 0.337C15.0089 0.183 14.7289 0 14.2659 0C13.6519 0 12.8569 0.323 11.9999 0.916C11.1429 0.323 10.3469 0 9.73295 0C9.27095 0 8.98995 0.183 8.83595 0.337C8.23095 0.941 8.45095 2.109 9.41595 3.5C8.45095 4.891 8.23095 6.059 8.83595 6.663C8.98995 6.817 9.27095 7 9.73295 7C9.92095 7 10.1289 6.96 10.3469 6.901L8.24495 12.365L5.99795 18.208L4.03295 23.32C3.97395 23.474 3.99395 23.647 4.08795 23.783C4.18095 23.919 4.33495 24 4.49995 24H6.16695H19.9999C20.1669 24 20.3219 23.917 20.4149 23.778C20.5079 23.639 20.5249 23.465 20.4629 23.311ZM9.54295 5.956C9.41995 5.833 9.49995 5.037 10.4329 3.801C10.5669 3.623 10.5669 3.377 10.4329 3.199C9.49995 1.963 9.41995 1.167 9.54295 1.044C9.67695 0.912 10.5479 1.065 11.6989 1.933C11.8769 2.068 12.1229 2.068 12.3009 1.933C13.4519 1.066 14.3239 0.912 14.4559 1.044C14.5799 1.168 14.4999 1.963 13.5669 3.199C13.4329 3.377 13.4329 3.623 13.5669 3.801C14.4999 5.037 14.5799 5.832 14.4559 5.956C14.4289 5.983 14.3569 6 14.2669 6C14.2659 6 14.2659 6 14.2659 6C13.9139 6 13.2139 5.755 12.3009 5.067C12.2119 5 12.1049 4.967 11.9999 4.967C11.8949 4.967 11.7879 5 11.6989 5.067C10.5479 5.935 9.67695 6.088 9.54295 5.956ZM11.9999 6.084C12.1439 6.184 12.2819 6.264 12.4219 6.348L13.9419 10.051L9.57995 11.687L11.6449 6.317L11.6339 6.313C11.7559 6.238 11.8759 6.17 11.9999 6.084ZM9.09995 12.934L14.3209 10.977L15.7189 14.384L7.33195 17.53L9.09995 12.934ZM6.85295 18.776L16.0989 15.308L17.4969 18.716L6.07695 23H5.22695L6.85295 18.776ZM8.92295 23L17.8769 19.643L19.2549 23H8.92295Z" fill="black"/>
</svg>
