<svg width="24" height="24" viewBox="0 0 24 24" fill="none" xmlns="http://www.w3.org/2000/svg">
<g clip-path="url(#clip0_366_12671)">
<path d="M11.6629 1.13076C11.8538 0.956414 12.1462 0.956414 12.3371 1.13076L23.8371 11.6308C24.0411 11.817 24.0554 12.1332 23.8692 12.3371C23.6831 12.5411 23.3668 12.5554 23.1629 12.3692L12 2.17706L0.837138 12.3692C0.633211 12.5554 0.316955 12.5411 0.13076 12.3371C-0.0554339 12.1332 -0.0410586 11.817 0.162869 11.6308L11.6629 1.13076Z" fill="black"/>
<path d="M3.5 12C3.77614 12 4 12.2239 4 12.5V23H12.5C12.7761 23 13 23.2239 13 23.5C13 23.7761 12.7761 24 12.5 24H3.5C3.22386 24 3 23.7761 3 23.5V12.5C3 12.2239 3.22386 12 3.5 12Z" fill="black"/>
<path d="M16 2C15.7239 2 15.5 2.22386 15.5 2.5C15.5 2.77614 15.7239 3 16 3H19V6C19 6.27614 19.2239 6.5 19.5 6.5C19.7761 6.5 20 6.27614 20 6V2.5C20 2.22386 19.7761 2 19.5 2H16Z" fill="black"/>
<path fill-rule="evenodd" clip-rule="evenodd" d="M10 6.5C10 6.22386 10.2239 6 10.5 6H13.5C13.7761 6 14 6.22386 14 6.5V9.5C14 9.77614 13.7761 10 13.5 10H10.5C10.2239 10 10 9.77614 10 9.5V6.5ZM11 7V9H13V7H11Z" fill="black"/>
<path fill-rule="evenodd" clip-rule="evenodd" d="M14 12.5C15.4865 12.5 16.7205 13.5811 16.9585 15H19.191L20.0528 13.2764C20.1375 13.107 20.3106 13 20.5 13H21.5C21.7761 13 22 13.2239 22 13.5C22 13.7761 21.7761 14 21.5 14H20.809L20.309 15H21.5C21.7022 15 21.8845 15.1218 21.9619 15.3087C22.0393 15.4955 21.9966 15.7106 21.8536 15.8536L18 19.7071V23H19.5C19.7761 23 20 23.2239 20 23.5C20 23.7761 19.7761 24 19.5 24H15.5C15.2239 24 15 23.7761 15 23.5C15 23.2239 15.2239 23 15.5 23H17V19.7071L15.4304 18.1375C15.0051 18.3686 14.5175 18.5 14 18.5C12.3431 18.5 11 17.1569 11 15.5C11 13.8431 12.3431 12.5 14 12.5ZM12 15.5C12 14.3954 12.8954 13.5 14 13.5C14.9319 13.5 15.715 14.1374 15.937 15H13.5C13.2978 15 13.1155 15.1218 13.0381 15.3087C12.9607 15.4955 13.0034 15.7106 13.1464 15.8536L14.6759 17.383C14.465 17.4588 14.2375 17.5 14 17.5C12.8954 17.5 12 16.6046 12 15.5ZM20.2929 16L17.5 18.7929L14.7071 16H20.2929Z" fill="black"/>
</g>
<defs>
<clipPath id="clip0_366_12671">
<rect width="24" height="24" fill="white"/>
</clipPath>
</defs>
</svg>
