<svg width="24" height="24" viewBox="0 0 24 24" fill="none" xmlns="http://www.w3.org/2000/svg">
<path fill-rule="evenodd" clip-rule="evenodd" d="M10.5 17H7.5C7.224 17 7 16.776 7 16.5V7.5C7 7.224 7.224 7 7.5 7H10.5C10.776 7 11 7.224 11 7.5V16.5C11 16.776 10.776 17 10.5 17ZM8 16H10V8H8V16Z" fill="black"/>
<path fill-rule="evenodd" clip-rule="evenodd" d="M13.5 17H16.5C16.776 17 17 16.776 17 16.5V7.5C17 7.224 16.776 7 16.5 7H13.5C13.224 7 13 7.224 13 7.5V16.5C13 16.776 13.224 17 13.5 17ZM16 16H14V8H16V16Z" fill="black"/>
<path fill-rule="evenodd" clip-rule="evenodd" d="M12 24C5.383 24 0 18.617 0 12C0 5.383 5.383 0 12 0C18.617 0 24 5.383 24 12C24 18.617 18.617 24 12 24ZM12 1C5.935 1 1 5.935 1 12C1 18.065 5.935 23 12 23C18.065 23 23 18.065 23 12C23 5.935 18.065 1 12 1Z" fill="black"/>
</svg>
