<svg width="24" height="24" viewBox="0 0 24 24" fill="none" xmlns="http://www.w3.org/2000/svg">
<path d="M19.677 16.3181L15 14.6471V11.941C16.503 10.779 17.5 8.776 17.5 6.5C17.5 2.916 15.033 0 12 0C8.967 0 6.5 2.917 6.5 6.501C6.5 8.777 7.497 10.78 9 11.942V14.6481L4.322 16.3191C2.933 16.8151 2 18.1391 2 19.6141V22.5001C2 22.7761 2.224 23.0001 2.5 23.0001H21.5C21.776 23.0001 22 22.7761 22 22.5001V19.6141C22 18.1391 21.066 16.8151 19.677 16.3181ZM12 1.001C14.204 1.001 16.039 2.948 16.423 5.508C16.416 5.509 16.412 5.509 16.405 5.51C14.952 5.79 14.053 5.318 13.199 3.823C13.109 3.664 12.97 3.578 12.755 3.571C12.572 3.574 12.406 3.677 12.321 3.84C11.861 4.725 10.308 5.501 9 5.501C8.491 5.501 8.054 5.417 7.624 5.241C8.092 2.814 9.874 1.001 12 1.001ZM7.5 6.501C7.5 6.42 7.507 6.341 7.51 6.261C7.979 6.419 8.464 6.501 9 6.501C10.374 6.501 11.881 5.848 12.735 4.951C13.532 6.06 14.472 6.586 15.666 6.586C15.93 6.586 16.211 6.552 16.5 6.501C16.5 9.534 14.481 12.001 12 12.001C9.519 12.001 7.5 9.534 7.5 6.501ZM21 22.0001H3V19.6141C3 18.5611 3.667 17.6151 4.659 17.2601L9.668 15.4711C9.867 15.4001 10 15.2111 10 15.0001V12.55C10.621 12.838 11.294 13.001 12 13.001C12.706 13.001 13.379 12.837 14 12.55V15.0001C14 15.2111 14.133 15.4001 14.332 15.4711L19.34 17.2601C20.333 17.6151 21 18.5611 21 19.6141V22.0001Z" fill="black"/>
</svg>
