<svg width="24" height="24" viewBox="0 0 24 24" fill="none" xmlns="http://www.w3.org/2000/svg">
<g clip-path="url(#clip0_344_16173)">
<path d="M8.27345 4.1143C8.39608 4.85472 7.97429 5.49578 7.32099 5.74046C6.6445 5.99381 5.91575 5.73912 5.67836 5.02607C5.55188 4.64785 5.47126 4.60562 5.29761 4.68841C4.99481 4.83276 4.6251 5.29538 4.37132 5.9003C3.75 7.38132 4.0058 8.90461 5.28738 9.78032L5.34097 9.81501L13.3265 9.81509C14.7739 9.81509 16.0915 9.02239 16.7765 7.77214L16.8745 7.58121L16.9588 7.39279L18.5943 3.46982C18.7536 3.08771 19.2682 3.06197 19.4762 3.39056L19.5185 3.47268L20.566 6.02907L20.8419 6.20184L22.1671 7.00578L22.4804 7.20381L22.7362 7.37631C22.8524 7.45817 22.9531 7.53491 23.0474 7.61324C23.7498 8.19633 23.991 8.81778 23.991 9.96803C23.991 10.999 23.194 11.8428 22.1822 11.9174L22.0363 11.9228L21.028 11.9221L19.603 14.77L21.6698 19.9352L21.8166 20.282C22.4587 21.7452 20.4417 22.501 19.4974 21.2942L19.4192 21.186L18.359 19.595L18.0873 20.6826C17.9324 21.3033 17.4275 21.7641 16.815 21.8759L16.6718 21.8955L16.5255 21.9021C15.8288 21.9021 15.2563 21.3657 15.1958 20.6869L15.1905 20.558L15.1905 19.9223L15.1782 19.3535L15.1611 19.0096L15.1494 18.8479L15.1191 18.5441C14.962 17.2483 14.4979 16.7082 13.2458 16.4924L13.0615 16.4637L12.7495 16.4269L12.5829 16.412L12.2278 16.3885L11.8424 16.3724L11.4256 16.3628L10.7386 16.358C10.3402 16.358 9.96598 16.3647 9.61379 16.3789L10.0167 20.6614C10.1319 21.8916 8.49328 22.3685 7.9075 21.3476L7.85077 21.2366L5.96574 17.0957C4.95466 17.5834 4.24688 18.3449 3.5466 19.4727L3.385 19.7395L2.58346 21.1173C2.1876 21.7803 1.47594 22.0462 0.836102 21.8375C0.167313 21.6193 -0.194329 20.9464 0.0873213 20.2488L0.321216 19.6695L1.23112 17.3913L1.66426 16.2903L2.27639 14.7099L2.6541 13.7159L3.00323 12.7792L3.17401 12.3091L2.94352 12.1643C1.64632 11.2922 0.951286 9.94509 0.833021 8.12061L0.819137 7.82857L0.814806 7.54306C0.814806 4.89761 2.17614 2.70074 4.08114 1.84302C6.0381 0.961913 7.89235 1.83256 8.27345 4.1143ZM19.165 16.372L18.686 18.285L20.2513 20.6313C20.5511 21.081 21.0052 20.9214 20.9009 20.6837L20.3566 19.3554L19.165 16.372ZM4.49169 2.75486C2.95246 3.44789 1.81481 5.2838 1.81481 7.54306C1.81481 9.59188 2.52239 10.8941 4.0119 11.6285C4.21137 11.7269 4.3185 11.9425 4.2847 12.1551L4.26144 12.2458L3.94246 13.1225L3.5914 14.0645L3.2119 15.0633L2.59722 16.6503L1.93893 18.3191L1.01448 20.6235C0.960198 20.7579 1.00464 20.8406 1.14624 20.8868C1.31786 20.9428 1.51258 20.885 1.66325 20.6944L1.72493 20.6046L2.64892 19.0233C4.27024 16.378 6.0234 15.4079 10.3885 15.3599L10.7386 15.358L11.2429 15.3617L11.7162 15.3734L12.1594 15.3938L12.5735 15.4237L12.9594 15.4639C15.1799 15.7365 15.9428 16.6028 16.1364 18.821L16.1539 19.0474L16.1791 19.5514L16.1904 20.0973L16.1905 20.5652C16.1892 20.7491 16.3408 20.9021 16.5255 20.9021C16.7739 20.9021 16.9947 20.7513 17.0882 20.5275L17.1171 20.4403L18.5765 14.6068L18.5986 14.5468L20.2718 11.1992C20.3424 11.058 20.4743 10.9602 20.626 10.9315L20.719 10.9228H22.0363C22.564 10.9228 22.991 10.4958 22.991 9.96803C22.991 9.15676 22.8783 8.80843 22.5006 8.46264L22.3797 8.3597L22.1221 8.18041L21.6332 7.86401L20.8592 7.379L19.9093 6.79713L19.8356 6.74537L19.7816 6.69033L19.7368 6.62764L19.7019 6.55837L19.051 4.97107L17.8818 7.77744C17.1746 9.47555 15.5894 10.627 13.7825 10.7941L13.5555 10.8098L13.3265 10.8151H5.19564C5.10501 10.8151 5.01607 10.7904 4.93836 10.7438C3.03475 9.60142 2.62685 7.47361 3.44918 5.51344C3.78953 4.70219 4.30936 4.05172 4.86727 3.78574C5.62006 3.42685 6.32078 3.794 6.62695 4.70956C6.66811 4.83321 6.78403 4.87372 6.97026 4.80398C7.19693 4.71909 7.3272 4.52109 7.28711 4.27904C7.01849 2.67076 5.87304 2.13292 4.49169 2.75486ZM8.61653 16.4446C7.96613 16.507 7.40239 16.605 6.90455 16.7452L8.76128 20.8231C8.81551 20.9428 8.98443 20.9148 9.01647 20.806L9.02108 20.7547L8.61653 16.4446ZM20.4595 8.65187C20.7656 8.65187 21.0139 8.90024 21.0139 9.20628C21.0139 9.51231 20.7656 9.76068 20.4595 9.76068C20.1535 9.76068 19.9051 9.51231 19.9051 9.20628C19.9051 8.90024 20.1535 8.65187 20.4595 8.65187Z" fill="black"/>
</g>
<defs>
<clipPath id="clip0_344_16173">
<rect width="24" height="24" fill="white"/>
</clipPath>
</defs>
</svg>
