<svg width="24" height="24" viewBox="0 0 24 24" fill="none" xmlns="http://www.w3.org/2000/svg">
<g clip-path="url(#clip0_344_16170)">
<path d="M19 9.49997C19 9.77611 18.7761 9.99997 18.5 9.99997C18.2239 9.99997 18 9.77611 18 9.49997C18 9.22383 18.2239 8.99997 18.5 8.99997C18.7761 8.99997 19 9.22383 19 9.49997Z" fill="black"/>
<path fill-rule="evenodd" clip-rule="evenodd" d="M21.021 7.42197C21.199 7.77797 21.557 7.99997 21.955 7.99997C23.083 7.99997 24 8.91697 24 10.045C24 11.675 22.675 13 21.045 13C19.819 13 18.794 13.88 18.607 15.092C18.47 15.979 18.363 16.648 18.279 17.172C18.1161 18.1905 18.0429 18.6486 18.0118 19.1095C17.9863 19.4862 17.9891 19.8649 17.994 20.553C17.997 20.929 18 21.396 18 22C18 23.103 17.103 24 16 24C14.897 24 14 23.103 14 22V21.423C14 19.279 12.505 18 10 18L8.951 18.002C8.722 18.002 8.534 18.001 8.486 18L8.354 17.998C6.176 17.998 5 19.735 5 21.37V22C5 23.103 4.103 24 3 24C1.897 24 1 23.103 1 22C1 19.576 2.017 14.943 2.601 13.309C1.294 12.488 0.5 11.067 0.5 9.49997C0.5 7.01897 2.519 4.99997 5 4.99997C5.202 4.99997 5.385 5.12197 5.462 5.30897C5.54 5.49497 5.497 5.71097 5.354 5.85297C3.901 7.30597 3.248 8.80997 3.649 9.77997C3.975 10.566 4.987 11 6.5 11H11.792C12.391 11 12.956 10.844 13.456 10.573L5.61 0.812969C5.438 0.597969 5.472 0.282969 5.687 0.109969C5.903 -0.0630308 6.216 -0.0290308 6.39 0.186969L14.26 9.97497C14.589 9.64597 14.861 9.25197 15.042 8.79897C15.785 6.94097 17.022 5.99997 18.719 5.99997C19.699 5.99997 20.581 6.54497 21.021 7.42197ZM17.5925 15.1103C17.6011 15.0549 17.61 14.9983 17.619 14.939C17.664 14.646 17.755 14.373 17.866 14.112L14.689 10.936C14.6522 10.9674 14.613 10.9977 14.5742 11.0277C14.5624 11.0368 14.5506 11.0459 14.539 11.055C14.5348 11.0592 14.5315 11.0639 14.5282 11.0686C14.5236 11.0752 14.519 11.0818 14.512 11.087C14.5035 11.0932 14.4947 11.0975 14.4858 11.1018C14.4789 11.1052 14.472 11.1086 14.465 11.113C14.247 11.274 14.019 11.423 13.774 11.542L17.559 15.328C17.5698 15.255 17.581 15.1837 17.5925 15.1103ZM17 22C17 21.398 16.997 20.935 16.994 20.56C16.982 18.961 16.985 18.928 17.292 17.014C17.3045 16.9329 17.3182 16.8477 17.3325 16.759C17.3435 16.6912 17.3547 16.6214 17.366 16.55L12.712 11.895C12.412 11.957 12.107 12 11.792 12H6.5C3.877 12 3.009 10.849 2.725 10.163C2.268 9.05997 2.614 7.68097 3.674 6.26097C2.399 6.78397 1.5 8.03897 1.5 9.49997C1.5 10.843 2.249 12.046 3.454 12.641C3.578 12.702 3.67 12.811 3.711 12.943C3.752 13.075 3.736 13.218 3.668 13.337C3.272 14.031 2 19.382 2 22C2 22.552 2.449 23 3 23C3.551 23 4 22.552 4 22V21.37C4 19.251 5.526 16.998 8.355 16.998L8.516 17C8.56 17.001 8.737 17.002 8.952 17.002L9.999 17C13.038 17 15 18.736 15 21.423V22C15 22.552 15.449 23 16 23C16.551 23 17 22.552 17 22ZM18.396 13.228C19.034 12.471 19.984 12 21.045 12C22.123 12 23 11.123 23 10.045C23 9.46897 22.531 8.99997 21.955 8.99997C21.175 8.99997 20.474 8.56597 20.126 7.86897C19.858 7.33297 19.319 6.99997 18.719 6.99997C17.436 6.99997 16.562 7.68897 15.969 9.16997C15.817 9.54997 15.612 9.89397 15.376 10.208L18.396 13.228Z" fill="black"/>
</g>
<defs>
<clipPath id="clip0_344_16170">
<rect width="24" height="24" fill="white"/>
</clipPath>
</defs>
</svg>
