<svg width="24" height="24" viewBox="0 0 24 24" fill="none" xmlns="http://www.w3.org/2000/svg">
<path fill-rule="evenodd" clip-rule="evenodd" d="M7.104 16.853C6.909 16.658 6.909 16.341 7.104 16.146C7.38 15.87 7.633 15.61 7.869 15.366L7.89224 15.342C8.00601 15.2245 8.11638 15.1105 8.225 15C8.109 14.882 7.99 14.76 7.869 14.634C7.633 14.39 7.381 14.13 7.105 13.854C6.91 13.659 6.91 13.342 7.105 13.147C7.3 12.952 7.617 12.952 7.812 13.147C8.092 13.427 8.348 13.691 8.587 13.938C8.709 14.065 8.826 14.186 8.939 14.301C9.823 13.491 10.66 13 11.958 13C14.636 13 15.389 14.733 15.419 14.808C15.468 14.925 15.47 15.057 15.426 15.176C15.398 15.25 14.71 17 11.958 17C10.66 17 9.823 16.509 8.939 15.7C8.826 15.815 8.709 15.936 8.587 16.063C8.348 16.31 8.092 16.574 7.812 16.854C7.714 16.951 7.586 17 7.458 17C7.33 17 7.202 16.951 7.104 16.853ZM14.384 15.007C14.144 14.671 13.473 14 11.958 14C11.011 14 10.379 14.348 9.656 15C10.379 15.652 11.011 16 11.958 16C13.502 16 14.153 15.342 14.384 15.007Z" fill="black"/>
<path fill-rule="evenodd" clip-rule="evenodd" d="M23.967 8.337C23.985 8.389 24 8.442 24 8.5C24 8.52343 23.9942 8.54461 23.9882 8.56626C23.9853 8.57695 23.9823 8.58776 23.98 8.599C23.9817 8.65572 23.9856 8.71245 23.9895 8.76933C23.9947 8.84581 24 8.92258 24 9C24 15.617 18.617 21 12 21C5.383 21 0 15.617 0 9C0 8.92257 0.00526274 8.84581 0.0105062 8.76932C0.0144055 8.71244 0.0182941 8.65572 0.02 8.599C0.0176857 8.58776 0.0147155 8.57695 0.0117761 8.56626C0.00582493 8.54462 0 8.52343 0 8.5C0 8.442 0.015 8.389 0.033 8.337C0.108 6.944 0.408 5.588 0.955 4.304C1.034 4.12 1.215 4 1.415 4H22.585C22.785 4 22.966 4.12 23.045 4.304C23.592 5.588 23.892 6.943 23.967 8.337ZM22.249 5H1.751C1.374 5.965 1.139 6.97 1.046 8H22.954C22.861 6.97 22.626 5.965 22.249 5ZM1 9C1 15.065 5.935 20 12 20C18.065 20 23 15.065 23 9H1Z" fill="black"/>
</svg>
