<svg width="24" height="24" viewBox="0 0 24 24" fill="none" xmlns="http://www.w3.org/2000/svg">
<path d="M20 23.5C20 23.7761 20.2239 24 20.5 24H23.5C23.7761 24 24 23.7761 24 23.5V22.5C24 22.2239 23.7761 22 23.5 22C23.2239 22 23 22.2239 23 22.5V23H21V22.5C21 22.2239 20.7761 22 20.5 22C20.2239 22 20 22.2239 20 22.5V23.5Z" fill="black"/>
<path d="M20.5 21C20.7761 21 21 20.7761 21 20.5V18.5C21 18.2239 20.7761 18 20.5 18C20.2239 18 20 18.2239 20 18.5V20.5C20 20.7761 20.2239 21 20.5 21Z" fill="black"/>
<path d="M23.5 21C23.7761 21 24 20.7761 24 20.5V18.5C24 18.2239 23.7761 18 23.5 18C23.2239 18 23 18.2239 23 18.5V20.5C23 20.7761 23.2239 21 23.5 21Z" fill="black"/>
<path d="M23.5 17C23.7761 17 24 16.7761 24 16.5V14.5C24 14.2239 23.7761 14 23.5 14C23.2239 14 23 14.2239 23 14.5V16.5C23 16.7761 23.2239 17 23.5 17Z" fill="black"/>
<path d="M20.5 17C20.7761 17 21 16.7761 21 16.5V14.5C21 14.2239 20.7761 14 20.5 14C20.2239 14 20 14.2239 20 14.5V16.5C20 16.7761 20.2239 17 20.5 17Z" fill="black"/>
<path d="M20.5 13C20.7761 13 21 12.7761 21 12.5V10.5C21 10.2239 20.7761 10 20.5 10C20.2239 10 20 10.2239 20 10.5V12.5C20 12.7761 20.2239 13 20.5 13Z" fill="black"/>
<path d="M23.5 13C23.7761 13 24 12.7761 24 12.5V10.5C24 10.2239 23.7761 10 23.5 10C23.2239 10 23 10.2239 23 10.5V12.5C23 12.7761 23.2239 13 23.5 13Z" fill="black"/>
<path d="M20.5 9C20.7761 9 21 8.77614 21 8.5V6.5C21 6.22386 20.7761 6 20.5 6C20.2239 6 20 6.22386 20 6.5V8.5C20 8.77614 20.2239 9 20.5 9Z" fill="black"/>
<path d="M23.5 9C23.7761 9 24 8.77614 24 8.5V6.5C24 6.22386 23.7761 6 23.5 6C23.2239 6 23 6.22386 23 6.5V8.5C23 8.77614 23.2239 9 23.5 9Z" fill="black"/>
<path d="M20.5 5C20.7761 5 21 4.77614 21 4.5V4H23V4.5C23 4.77614 23.2239 5 23.5 5C23.7761 5 24 4.77614 24 4.5V3.5C24 3.22386 23.7761 3 23.5 3H20.5C20.2239 3 20 3.22386 20 3.5V4.5C20 4.77614 20.2239 5 20.5 5Z" fill="black"/>
<path fill-rule="evenodd" clip-rule="evenodd" d="M15 7.5C15 7.22386 15.2239 7 15.5 7H18.5C18.7761 7 19 7.22386 19 7.5V23.5C19 23.7761 18.7761 24 18.5 24H15.5C15.2239 24 15 23.7761 15 23.5V7.5ZM16 23H18V8H16V23Z" fill="black"/>
<path fill-rule="evenodd" clip-rule="evenodd" d="M5 15.5C5 15.2239 5.22386 15 5.5 15H8.5C8.77614 15 9 15.2239 9 15.5V23.5C9 23.7761 8.77614 24 8.5 24H5.5C5.22386 24 5 23.7761 5 23.5V15.5ZM6 23H8V16H6V23Z" fill="black"/>
<path fill-rule="evenodd" clip-rule="evenodd" d="M0 19.5C0 19.2239 0.223858 19 0.5 19H3.5C3.77614 19 4 19.2239 4 19.5V23.5C4 23.7761 3.77614 24 3.5 24H0.5C0.223858 24 0 23.7761 0 23.5V19.5ZM1 20V23H3V20H1Z" fill="black"/>
<path fill-rule="evenodd" clip-rule="evenodd" d="M10 11.5C10 11.2239 10.2239 11 10.5 11H13.5C13.7761 11 14 11.2239 14 11.5V23.5C14 23.7761 13.7761 24 13.5 24H10.5C10.2239 24 10 23.7761 10 23.5V11.5ZM11 12V23H13V12H11Z" fill="black"/>
</svg>
