<svg width="24" height="24" viewBox="0 0 24 24" fill="none" xmlns="http://www.w3.org/2000/svg">
<g clip-path="url(#clip0_344_16239)">
<path d="M2.61492 0.855245C3.70868 -0.23852 5.45575 -0.28227 6.60172 0.723929L6.74174 0.855173L9.30764 3.42002C10.4001 4.51374 10.4438 6.26054 9.43818 7.40706L9.30701 7.54716L8.77507 8.07699L8.98113 8.32547C10.8065 10.4878 12.8785 12.5906 15.0274 14.4644L15.6742 15.0194L15.9221 15.225L16.454 14.6944C17.5033 13.6452 19.1518 13.5612 20.2949 14.4426L20.4411 14.563L20.5809 14.6944L23.1455 17.2589C24.2393 18.3527 24.283 20.0998 23.2768 21.2458L23.1455 21.3858L21.7386 22.7928C20.3544 24.1794 18.1822 24.3966 16.5453 23.3145C10.3104 19.1906 4.81019 13.6903 0.686179 7.45525C-0.356671 5.87722 -0.193954 3.80959 1.0593 2.41883L1.20874 2.26143L2.61492 0.855245ZM6.03471 1.56235C5.32749 0.855139 4.2044 0.815849 3.45098 1.44448L3.32202 1.56235L1.91584 2.96853C0.863694 4.02068 0.699285 5.66132 1.52035 6.90375C5.57007 13.0265 10.9743 18.4307 17.0969 22.4803C18.2835 23.2648 19.8407 23.1484 20.8912 22.2179L21.0312 22.086L22.4384 20.6787C23.1456 19.9715 23.1849 18.8484 22.5563 18.095L22.4384 17.9661L19.8734 15.4011C19.1672 14.6933 18.0445 14.654 17.2903 15.2835L17.1611 15.4015L16.307 16.2556C16.1252 16.4374 15.8353 16.4517 15.6365 16.2888C12.7979 13.963 10.0365 11.2013 7.71186 8.3631C7.56926 8.18899 7.56259 7.94507 7.68514 7.76512L7.74556 7.6923L8.60014 6.83981C9.30661 6.13256 9.34586 5.0092 8.71811 4.25593L8.60041 4.12701L6.03471 1.56235Z" fill="black"/>
</g>
<defs>
<clipPath id="clip0_344_16239">
<rect width="24" height="24" fill="white"/>
</clipPath>
</defs>
</svg>
