<svg width="24" height="24" viewBox="0 0 24 24" fill="none" xmlns="http://www.w3.org/2000/svg">
<path d="M20.5 24C20.2239 24 20 23.7761 20 23.5V22.5C20 22.2239 20.2239 22 20.5 22C20.7761 22 21 22.2239 21 22.5V23H23V22.5C23 22.2239 23.2239 22 23.5 22C23.7761 22 24 22.2239 24 22.5V23.5C24 23.7761 23.7761 24 23.5 24H20.5Z" fill="black"/>
<path d="M21 20.5C21 20.7761 20.7761 21 20.5 21C20.2239 21 20 20.7761 20 20.5V18.5C20 18.2239 20.2239 18 20.5 18C20.7761 18 21 18.2239 21 18.5V20.5Z" fill="black"/>
<path d="M24 20.5C24 20.7761 23.7761 21 23.5 21C23.2239 21 23 20.7761 23 20.5V18.5C23 18.2239 23.2239 18 23.5 18C23.7761 18 24 18.2239 24 18.5V20.5Z" fill="black"/>
<path d="M24 16.5C24 16.7761 23.7761 17 23.5 17C23.2239 17 23 16.7761 23 16.5V14.5C23 14.2239 23.2239 14 23.5 14C23.7761 14 24 14.2239 24 14.5V16.5Z" fill="black"/>
<path d="M21 16.5C21 16.7761 20.7761 17 20.5 17C20.2239 17 20 16.7761 20 16.5V14.5C20 14.2239 20.2239 14 20.5 14C20.7761 14 21 14.2239 21 14.5V16.5Z" fill="black"/>
<path d="M21 12.5C21 12.7761 20.7761 13 20.5 13C20.2239 13 20 12.7761 20 12.5V10.5C20 10.2239 20.2239 10 20.5 10C20.7761 10 21 10.2239 21 10.5V12.5Z" fill="black"/>
<path d="M24 12.5C24 12.7761 23.7761 13 23.5 13C23.2239 13 23 12.7761 23 12.5V10.5C23 10.2239 23.2239 10 23.5 10C23.7761 10 24 10.2239 24 10.5V12.5Z" fill="black"/>
<path d="M21 8.5C21 8.77614 20.7761 9 20.5 9C20.2239 9 20 8.77614 20 8.5V6.5C20 6.22386 20.2239 6 20.5 6C20.7761 6 21 6.22386 21 6.5V8.5Z" fill="black"/>
<path d="M24 8.5C24 8.77614 23.7761 9 23.5 9C23.2239 9 23 8.77614 23 8.5V6.5C23 6.22386 23.2239 6 23.5 6C23.7761 6 24 6.22386 24 6.5V8.5Z" fill="black"/>
<path d="M21 4.5C21 4.77614 20.7761 5 20.5 5C20.2239 5 20 4.77614 20 4.5V3.5C20 3.22386 20.2239 3 20.5 3H23.5C23.7761 3 24 3.22386 24 3.5V4.5C24 4.77614 23.7761 5 23.5 5C23.2239 5 23 4.77614 23 4.5V4H21V4.5Z" fill="black"/>
<path d="M15 7.5C15 7.22386 15.2239 7 15.5 7H18.5C18.7761 7 19 7.22386 19 7.5V8.5C19 8.77614 18.7761 9 18.5 9C18.2239 9 18 8.77614 18 8.5V8H16V8.5C16 8.77614 15.7761 9 15.5 9C15.2239 9 15 8.77614 15 8.5V7.5Z" fill="black"/>
<path d="M15.5 10C15.7761 10 16 10.2239 16 10.5V12.5C16 12.7761 15.7761 13 15.5 13C15.2239 13 15 12.7761 15 12.5V10.5C15 10.2239 15.2239 10 15.5 10Z" fill="black"/>
<path d="M18.5 10C18.7761 10 19 10.2239 19 10.5V12.5C19 12.7761 18.7761 13 18.5 13C18.2239 13 18 12.7761 18 12.5V10.5C18 10.2239 18.2239 10 18.5 10Z" fill="black"/>
<path d="M15.5 14C15.7761 14 16 14.2239 16 14.5V16.5C16 16.7761 15.7761 17 15.5 17C15.2239 17 15 16.7761 15 16.5V14.5C15 14.2239 15.2239 14 15.5 14Z" fill="black"/>
<path d="M18.5 14C18.7761 14 19 14.2239 19 14.5V16.5C19 16.7761 18.7761 17 18.5 17C18.2239 17 18 16.7761 18 16.5V14.5C18 14.2239 18.2239 14 18.5 14Z" fill="black"/>
<path d="M15.5 18C15.7761 18 16 18.2239 16 18.5V20.5C16 20.7761 15.7761 21 15.5 21C15.2239 21 15 20.7761 15 20.5V18.5C15 18.2239 15.2239 18 15.5 18Z" fill="black"/>
<path d="M18.5 18C18.7761 18 19 18.2239 19 18.5V20.5C19 20.7761 18.7761 21 18.5 21C18.2239 21 18 20.7761 18 20.5V18.5C18 18.2239 18.2239 18 18.5 18Z" fill="black"/>
<path d="M15.5 22C15.7761 22 16 22.2239 16 22.5V23H18V22.5C18 22.2239 18.2239 22 18.5 22C18.7761 22 19 22.2239 19 22.5V23.5C19 23.7761 18.7761 24 18.5 24H15.5C15.2239 24 15 23.7761 15 23.5V22.5C15 22.2239 15.2239 22 15.5 22Z" fill="black"/>
<path fill-rule="evenodd" clip-rule="evenodd" d="M5 15.5C5 15.2239 5.22386 15 5.5 15H8.5C8.77614 15 9 15.2239 9 15.5V23.5C9 23.7761 8.77614 24 8.5 24H5.5C5.22386 24 5 23.7761 5 23.5V15.5ZM6 16V23H8V16H6Z" fill="black"/>
<path fill-rule="evenodd" clip-rule="evenodd" d="M0 19.5C0 19.2239 0.223858 19 0.5 19H3.5C3.77614 19 4 19.2239 4 19.5V23.5C4 23.7761 3.77614 24 3.5 24H0.5C0.223858 24 0 23.7761 0 23.5V19.5ZM1 20V23H3V20H1Z" fill="black"/>
<path d="M10 11.5C10 11.2239 10.2239 11 10.5 11H13.5C13.7761 11 14 11.2239 14 11.5V12.5C14 12.7761 13.7761 13 13.5 13C13.2239 13 13 12.7761 13 12.5V12H11V12.5C11 12.7761 10.7761 13 10.5 13C10.2239 13 10 12.7761 10 12.5V11.5Z" fill="black"/>
<path d="M10.5 14C10.7761 14 11 14.2239 11 14.5V16.5C11 16.7761 10.7761 17 10.5 17C10.2239 17 10 16.7761 10 16.5V14.5C10 14.2239 10.2239 14 10.5 14Z" fill="black"/>
<path d="M13.5 14C13.7761 14 14 14.2239 14 14.5V16.5C14 16.7761 13.7761 17 13.5 17C13.2239 17 13 16.7761 13 16.5V14.5C13 14.2239 13.2239 14 13.5 14Z" fill="black"/>
<path d="M10.5 18C10.7761 18 11 18.2239 11 18.5V20.5C11 20.7761 10.7761 21 10.5 21C10.2239 21 10 20.7761 10 20.5V18.5C10 18.2239 10.2239 18 10.5 18Z" fill="black"/>
<path d="M13.5 18C13.7761 18 14 18.2239 14 18.5V20.5C14 20.7761 13.7761 21 13.5 21C13.2239 21 13 20.7761 13 20.5V18.5C13 18.2239 13.2239 18 13.5 18Z" fill="black"/>
<path d="M10.5 22C10.7761 22 11 22.2239 11 22.5V23H13V22.5C13 22.2239 13.2239 22 13.5 22C13.7761 22 14 22.2239 14 22.5V23.5C14 23.7761 13.7761 24 13.5 24H10.5C10.2239 24 10 23.7761 10 23.5V22.5C10 22.2239 10.2239 22 10.5 22Z" fill="black"/>
</svg>
