<svg width="24" height="24" viewBox="0 0 24 24" fill="none" xmlns="http://www.w3.org/2000/svg">
<path fill-rule="evenodd" clip-rule="evenodd" d="M19.5 8H13.5C13.224 8 13 8.224 13 8.5V10.5C13 10.776 13.224 11 13.5 11H19.5C19.776 11 20 10.776 20 10.5V8.5C20 8.224 19.776 8 19.5 8ZM19 10H14V9H19V10Z" fill="black"/>
<path d="M13 14V13H14V14H13Z" fill="black"/>
<path d="M17 13H16V14H17V13Z" fill="black"/>
<path d="M19 14V13H20V14H19Z" fill="black"/>
<path d="M13 15V16H14V15H13Z" fill="black"/>
<path d="M16 15H17V16H16V15Z" fill="black"/>
<path d="M19 15V16H20V15H19Z" fill="black"/>
<path d="M13 18V17H14V18H13Z" fill="black"/>
<path d="M17 17H16V18H17V17Z" fill="black"/>
<path d="M19 18V17H20V18H19Z" fill="black"/>
<path fill-rule="evenodd" clip-rule="evenodd" d="M21.5 6H11V5.5C11 4.121 9.878 3 8.5 3H6V0.5C6 0.224 5.776 0 5.5 0C5.224 0 5 0.224 5 0.5V3.051C3.86 3.283 3 4.292 3 5.5V6H2.5C1.673 6 1 6.673 1 7.5V20.5C1 21.327 1.673 22 2.5 22H3.051C3.283 23.14 4.293 24 5.5 24H8.5C9.707 24 10.717 23.14 10.949 22H21.5C22.327 22 23 21.327 23 20.5V7.5C23 6.673 22.327 6 21.5 6ZM2 20.5V7.5C2 7.225 2.224 7 2.5 7H3V21H2.5C2.224 21 2 20.775 2 20.5ZM10 21.5C10 22.327 9.327 23 8.5 23H5.5C4.673 23 4 22.327 4 21.5V5.5C4 4.673 4.673 4 5.5 4H8.5C9.327 4 10 4.673 10 5.5V21.5ZM22 20.5C22 20.775 21.776 21 21.5 21H11V7H21.5C21.776 7 22 7.225 22 7.5V20.5Z" fill="black"/>
</svg>
