<svg width="24" height="24" viewBox="0 0 24 24" fill="none" xmlns="http://www.w3.org/2000/svg">
<path d="M2.78192 8.48035C1.16106 8.81132 0 10.231 0 11.8845V13.5161C0 14.8875 1.11239 15.9999 2.48389 15.9999L5.45993 16.0005L5.62314 15.9952C6.91816 15.9104 7.94318 14.8328 7.94391 13.5169L7.94272 12.9824L8.29755 12.9507C10.7273 12.7552 13.2713 12.7551 15.7017 12.9503L16.0557 12.9814L16.0567 13.5161C16.0567 14.8889 17.1693 16.0015 18.5411 15.9999H21.5161C22.8876 15.9999 24 14.8875 24 13.5161V11.8833C24.0014 10.2336 22.8372 8.81069 21.2181 8.48035C15.1969 7.2533 8.80311 7.2533 2.78192 8.48035ZM21.0183 9.46014C22.1719 9.69551 23.001 10.7088 23 11.8829V13.5161C23 14.3353 22.3353 14.9999 21.5161 14.9999H18.5406C17.7212 15.0008 17.0567 14.3364 17.0567 13.5161V12.525C17.0567 12.268 16.8619 12.0529 16.6061 12.0275C13.6042 11.7294 10.3942 11.7295 7.39319 12.0281C7.13725 12.0535 6.94237 12.269 6.94269 12.5262L6.94391 13.5173C6.94345 14.3352 6.27857 15.0001 5.45975 15.0005L2.48398 14.9999C1.66467 14.9999 1 14.3353 1 13.5161V11.8845C1 10.7065 1.82632 9.69608 2.98178 9.46014C8.63544 8.30799 14.6289 8.26188 20.3099 9.3219L21.0183 9.46014Z" fill="black"/>
</svg>
