<svg width="24" height="24" viewBox="0 0 24 24" fill="none" xmlns="http://www.w3.org/2000/svg">
<path fill-rule="evenodd" clip-rule="evenodd" d="M20 3.5C20 3.22386 20.2239 3 20.5 3H23.5C23.7761 3 24 3.22386 24 3.5V23.5C24 23.7761 23.7761 24 23.5 24H20.5C20.2239 24 20 23.7761 20 23.5V3.5ZM21 4V23H23V4H21ZM15 6.5C15 6.22386 15.2239 6 15.5 6H18.5C18.7761 6 19 6.22386 19 6.5V23.5C19 23.7761 18.7761 24 18.5 24H15.5C15.2239 24 15 23.7761 15 23.5V6.5ZM16 7V23H18V7H16ZM10 9.5C10 9.22386 10.2239 9 10.5 9H13.5C13.7761 9 14 9.22386 14 9.5V23.5C14 23.7761 13.7761 24 13.5 24H10.5C10.2239 24 10 23.7761 10 23.5V9.5ZM11 10V23H13V10H11ZM5 12.5C5 12.2239 5.22386 12 5.5 12H8.5C8.77614 12 9 12.2239 9 12.5V23.5C9 23.7761 8.77614 24 8.5 24H5.5C5.22386 24 5 23.7761 5 23.5V12.5ZM6 13V23H8V13H6ZM0 15.5C0 15.2239 0.223858 15 0.5 15H3.5C3.77614 15 4 15.2239 4 15.5V23.5C4 23.7761 3.77614 24 3.5 24H0.5C0.223858 24 0 23.7761 0 23.5V15.5ZM1 16V23H3V16H1Z" fill="black"/>
</svg>
