<svg width="24" height="24" viewBox="0 0 24 24" fill="none" xmlns="http://www.w3.org/2000/svg">
<g clip-path="url(#clip0_344_16014)">
<path d="M4 7.5001C4 7.77624 3.77614 8.0001 3.5 8.0001C3.22386 8.0001 3 7.77624 3 7.5001C3 7.22396 3.22386 7.0001 3.5 7.0001C3.77614 7.0001 4 7.22396 4 7.5001Z" fill="black"/>
<path fill-rule="evenodd" clip-rule="evenodd" d="M3.5 11.0001H14.5C14.776 11.0001 15 11.2241 15 11.5001V14.5001C15 14.7761 14.776 15.0001 14.5 15.0001H3.5C3.224 15.0001 3 14.7761 3 14.5001V11.5001C3 11.2241 3.224 11.0001 3.5 11.0001ZM4 14.0001H14V12.0001H4V14.0001Z" fill="black"/>
<path fill-rule="evenodd" clip-rule="evenodd" d="M14.5 17.0001H3.5C3.224 17.0001 3 17.2241 3 17.5001V20.5001C3 20.7761 3.224 21.0001 3.5 21.0001H14.5C14.776 21.0001 15 20.7761 15 20.5001V17.5001C15 17.2241 14.776 17.0001 14.5 17.0001ZM14 20.0001H4V18.0001H14V20.0001Z" fill="black"/>
<path fill-rule="evenodd" clip-rule="evenodd" d="M17 19.5641L22.888 15.1621C23.109 14.9971 23.422 15.0421 23.588 15.2631C23.754 15.4841 23.708 15.7981 23.487 15.9631L17 20.8131V22.5001C17 22.7761 16.776 23.0001 16.5 23.0001H16V23.5001C16 23.7761 15.776 24.0001 15.5 24.0001C15.224 24.0001 15 23.7761 15 23.5001V23.0001H3V23.5001C3 23.7761 2.776 24.0001 2.5 24.0001C2.224 24.0001 2 23.7761 2 23.5001V23.0001H1.5C1.224 23.0001 1 22.7761 1 22.5001V5.5001C1 5.48728 1.0034 5.47514 1.00682 5.46288C1.00928 5.45411 1.01175 5.44528 1.013 5.4361L1.01517 5.41996C1.01911 5.39012 1.02281 5.36211 1.033 5.3341C1.04185 5.30917 1.05458 5.28747 1.06755 5.26536L1.077 5.2491L1.08189 5.24081C1.09615 5.2166 1.11025 5.19264 1.13 5.1711C1.153 5.1451 1.18 5.1251 1.209 5.1051C1.21662 5.0996 1.22334 5.09302 1.23007 5.08643C1.23926 5.07745 1.24846 5.06844 1.26 5.0621L10.26 0.124099C10.503 -0.00790069 10.806 0.0810993 10.939 0.322099C11.072 0.564099 10.983 0.868099 10.741 1.0011L3.451 5.0001H16.5C16.776 5.0001 17 5.2241 17 5.5001V12.5021L22.888 8.0991C23.109 7.9321 23.422 7.9781 23.588 8.2001C23.754 8.4211 23.708 8.7341 23.487 8.9001L17 13.7501V19.5641ZM2 9.0001H16V6.0001H2V9.0001ZM2 10.0001V22.0001H16V10.0001H2Z" fill="black"/>
</g>
<defs>
<clipPath id="clip0_344_16014">
<rect width="24" height="24" fill="white"/>
</clipPath>
</defs>
</svg>
