<svg width="24" height="24" viewBox="0 0 24 24" fill="none" xmlns="http://www.w3.org/2000/svg">
<g clip-path="url(#clip0_368_12846)">
<path d="M11.952 0.604014C11.757 0.409014 11.44 0.409014 11.245 0.604014C9.41199 2.43701 10.45 3.81401 11.209 4.81901C11.9609 5.81485 12.4579 6.47313 11.287 7.64401C11.092 7.83901 11.092 8.15601 11.287 8.35101C11.385 8.44901 11.513 8.49701 11.641 8.49701C11.769 8.49701 11.897 8.44801 11.995 8.35101C13.78 6.56601 12.756 5.20701 12.008 4.21601C11.241 3.20001 10.736 2.52801 11.953 1.31101C12.147 1.11601 12.147 0.800014 11.952 0.604014Z" fill="black"/>
<path d="M5.95399 3.64601C5.75899 3.45101 5.44199 3.45101 5.24699 3.64601C4.06393 4.82907 4.77785 5.7765 5.20596 6.34465L5.20699 6.34601C5.64699 6.92901 5.81199 7.14801 5.27099 7.68901C5.07599 7.88401 5.07599 8.20101 5.27099 8.39601C5.36899 8.49401 5.49699 8.54201 5.62499 8.54201C5.75299 8.54201 5.88099 8.49301 5.97899 8.39601C7.13499 7.24001 6.42799 6.30301 6.00499 5.74401C5.56706 5.1631 5.38603 4.92297 5.95399 4.35401C6.14899 4.15801 6.14899 3.84201 5.95399 3.64601Z" fill="black"/>
<path d="M17.573 8.54201C17.445 8.54201 17.317 8.49401 17.219 8.39601C16.062 7.23901 16.77 6.30301 17.193 5.74401C17.631 5.16301 17.812 4.92201 17.244 4.35401C17.049 4.15901 17.049 3.84201 17.244 3.64701C17.439 3.45201 17.756 3.45201 17.951 3.64701C19.135 4.83001 18.419 5.77901 17.991 6.34601C17.551 6.92901 17.386 7.14801 17.927 7.68901C18.122 7.88401 18.122 8.20101 17.927 8.39601C17.829 8.49301 17.701 8.54201 17.573 8.54201Z" fill="black"/>
<path d="M11.119 14.5C11.119 14.776 11.343 15 11.619 15C11.895 15 12.119 14.776 12.119 14.5C12.119 14.224 11.619 12.984 11.619 12.984C11.619 12.984 11.119 14.224 11.119 14.5Z" fill="black"/>
<path d="M7.39899 14.262C7.27799 14.53 7.39599 14.846 7.66399 14.967C7.73499 14.999 7.80999 15.015 7.88399 15.015C8.08599 15.015 8.27999 14.9 8.36799 14.703C8.48999 14.435 8.55199 13.015 8.55199 13.015C8.55199 13.015 7.52099 13.994 7.39899 14.262Z" fill="black"/>
<path d="M14.886 14.659C14.775 14.405 14.735 13.068 14.735 13.068C14.735 13.068 15.691 14.004 15.801 14.257C15.912 14.51 15.797 14.805 15.545 14.916C15.48 14.944 15.411 14.958 15.345 14.958C15.152 14.958 14.968 14.846 14.886 14.659Z" fill="black"/>
<path fill-rule="evenodd" clip-rule="evenodd" d="M11.614 10.016C17.259 10.016 21.774 13.296 23.118 18.372C23.145 18.472 23.14 18.576 23.103 18.672C23.058 18.796 22.63 19.769 20.74 19.984L18.761 22.992C18.553 23.59 17.983 24 17.345 24H5.85299C5.21399 24 4.64299 23.589 4.43499 22.991L2.47299 19.99C0.519989 19.792 0.0769886 18.798 0.0309886 18.673C-0.00501137 18.576 -0.0100114 18.472 0.0159886 18.372C1.35899 13.296 5.91099 10.016 11.614 10.016ZM17.826 22.637C17.839 22.588 17.861 22.542 17.888 22.5L19.522 20.017C18.437 19.947 17.83 19.637 17.333 19.381L17.33 19.3795C16.9015 19.1593 16.5917 19 16.037 19C15.438 19 14.9387 19.1973 14.3617 19.4254L14.35 19.43L14.349 19.4304C13.6193 19.7193 12.7915 20.047 11.599 20.047C10.4062 20.047 9.57225 19.7191 8.83734 19.4302C8.25034 19.1992 7.74399 19 7.13999 19C6.58099 19 6.24699 19.169 5.82499 19.383C5.32899 19.633 4.72699 19.935 3.68299 20.012L5.31099 22.501C5.33899 22.543 5.35899 22.589 5.37399 22.638C5.43399 22.851 5.63099 23 5.85299 23H17.345C17.566 23 17.764 22.851 17.826 22.637ZM17.7907 18.4924C18.3054 18.7572 18.8375 19.031 19.974 19.031C21.367 19.031 21.911 18.618 22.093 18.417C20.801 13.913 16.712 11.016 11.614 11.016C6.45799 11.016 2.33199 13.915 1.04099 18.42C1.21499 18.611 1.75599 19.031 3.16099 19.031C4.29999 19.031 4.84599 18.756 5.37199 18.49C5.84999 18.249 6.34399 18 7.13999 18C7.93108 18 8.57488 18.2528 9.19748 18.4972L9.20199 18.499C9.88699 18.769 10.595 19.047 11.598 19.047C12.6 19.047 13.302 18.769 13.981 18.5C14.601 18.254 15.242 18 16.036 18C16.8345 18 17.3193 18.2497 17.7891 18.4915L17.7907 18.4924Z" fill="black"/>
</g>
<defs>
<clipPath id="clip0_368_12846">
<rect width="24" height="24" fill="white"/>
</clipPath>
</defs>
</svg>
