<svg width="24" height="24" viewBox="0 0 24 24" fill="none" xmlns="http://www.w3.org/2000/svg">
<path fill-rule="evenodd" clip-rule="evenodd" d="M8.49404 3.50293C8.49404 5.15693 7.14804 6.50293 5.49404 6.50293C3.84003 6.50293 2.49404 5.15693 2.49404 3.50293C2.49404 1.84893 3.84003 0.50293 5.49404 0.50293C7.14804 0.50293 8.49404 1.84893 8.49404 3.50293ZM7.49404 3.50293C7.49404 2.39993 6.59704 1.50293 5.49404 1.50293C4.39104 1.50293 3.49404 2.39993 3.49404 3.50293C3.49404 4.60593 4.39104 5.50293 5.49404 5.50293C6.59704 5.50293 7.49404 4.60593 7.49404 3.50293Z" fill="black"/>
<path fill-rule="evenodd" clip-rule="evenodd" d="M9.80304 1.86893C13.508 -0.23807 18.2 0.39593 21.217 3.41293C23.011 5.20693 24 7.59293 24 10.1299C24 12.6679 23.011 15.0539 21.217 16.8489C18.335 19.7309 13.877 20.4339 10.251 18.6229L5.66104 23.2119C5.18903 23.6839 4.56104 23.9439 3.89303 23.9439C3.22503 23.9439 2.59704 23.6849 2.12504 23.2119L1.41804 22.5049C0.946035 22.0329 0.686035 21.4049 0.686035 20.7369C0.686035 20.0699 0.946035 19.4419 1.41804 18.9689L6.00804 14.3789C4.99504 12.3589 4.73604 10.0529 5.28004 7.84293C5.34604 7.57393 5.61703 7.41093 5.88404 7.47693C6.15204 7.54193 6.31604 7.81293 6.25004 8.08093C6.19104 8.32193 6.14504 8.56593 6.10704 8.80993L15.807 18.5089C17.549 18.2389 19.209 17.4419 20.51 16.1409C22.116 14.5349 23 12.4009 23 10.1299C23 7.85893 22.115 5.72593 20.51 4.11993C17.811 1.42093 13.61 0.85193 10.298 2.73893C10.058 2.87293 9.75304 2.79093 9.61604 2.55093C9.47904 2.31093 9.56304 2.00593 9.80304 1.86893ZM9.80404 17.6539C9.96103 17.4959 10.203 17.4619 10.399 17.5699C11.68 18.2759 13.09 18.6089 14.492 18.6059L6.01004 10.1249C6.01004 11.5509 6.35904 12.9599 7.05904 14.2289C7.16704 14.4239 7.13304 14.6669 6.97504 14.8239L2.12504 19.6749C1.84204 19.9589 1.68604 20.3359 1.68604 20.7359C1.68604 21.1379 1.84104 21.5139 2.12504 21.7969L2.83204 22.5039C3.40004 23.0699 4.38704 23.0699 4.95304 22.5039L9.80404 17.6539Z" fill="black"/>
</svg>
