<svg width="24" height="24" viewBox="0 0 24 24" fill="none" xmlns="http://www.w3.org/2000/svg">
<path d="M17.2649 15.9491C18.1529 15.9491 19.1269 15.4591 19.9369 14.6041C21.2819 13.1861 22.0469 9.24312 21.0159 6.99712C20.9529 6.85912 20.8299 6.75812 20.6829 6.72212C20.5389 6.68512 20.3819 6.71712 20.2599 6.80712C19.2459 7.57312 18.2699 7.82612 17.3259 8.07012C16.4869 8.28712 15.6189 8.51012 14.7669 9.07912C13.7939 9.72812 13.2349 10.6181 13.2319 11.5201C13.2309 12.0711 13.4489 12.8571 14.3919 13.6281C13.7279 14.4951 13.2139 15.3671 12.8679 16.0481C12.4969 14.9021 11.8109 13.1321 10.6699 11.1641C11.8319 10.5281 12.5289 9.73712 12.7449 8.80712C13.0039 7.69012 12.5669 6.45412 11.4469 5.13612C10.3999 3.90112 8.98895 3.47812 7.49495 3.02712C6.17095 2.63012 4.80295 2.21812 3.59295 1.19412C3.47695 1.09612 3.32095 1.05812 3.17495 1.08512C3.02595 1.11412 2.89895 1.20912 2.82795 1.34312C1.26295 4.30012 1.99795 9.68712 3.70895 11.7021C4.85495 13.0541 6.10095 13.7981 7.21595 13.7981C8.29695 13.7981 9.20395 13.1551 9.92095 11.8941C11.1839 14.1271 11.8349 16.0631 12.1069 17.0001H8.52495C8.36395 17.0001 8.21295 17.0771 8.11895 17.2081C8.02495 17.3381 7.99895 17.5061 8.05095 17.6581L10.0509 23.6581C10.1189 23.8621 10.3099 24.0001 10.5249 24.0001H15.5249C15.7399 24.0001 15.9309 23.8621 15.9989 23.6581L17.9989 17.6581C18.0499 17.5061 18.0239 17.3381 17.9309 17.2081C17.8369 17.0771 17.6859 17.0001 17.5249 17.0001H13.5199C13.8049 16.3941 14.2979 15.4571 14.9899 14.5021C15.7019 15.6691 16.5909 15.9491 17.2649 15.9491ZM15.1649 23.0001H10.8859L9.21895 18.0001H16.8309L15.1649 23.0001ZM14.2329 11.5221C14.2339 10.9661 14.6419 10.3641 15.3219 9.91012C16.0329 9.43512 16.7829 9.24212 17.5759 9.03712C18.4089 8.82112 19.3369 8.58212 20.3089 7.98312C20.8309 9.91312 20.2009 12.8731 19.2109 13.9171C18.5979 14.5631 17.8699 14.9491 17.2639 14.9491C16.6179 14.9491 16.0889 14.4921 15.6719 13.6411C16.3529 12.8601 17.1699 12.1341 18.1259 11.6571C18.3729 11.5341 18.4729 11.2331 18.3499 10.9861C18.2269 10.7391 17.9269 10.6371 17.6789 10.7621C16.6399 11.2811 15.7639 12.0421 15.0309 12.8591C14.6189 12.5251 14.2309 12.0711 14.2329 11.5221ZM7.21695 12.7981C6.41195 12.7981 5.41195 12.1631 4.47195 11.0561C3.08295 9.41912 2.42595 5.04812 3.46395 2.35812C4.69395 3.22912 6.01995 3.62812 7.20695 3.98512C8.61395 4.40812 9.82895 4.77412 10.6849 5.78312C11.3059 6.51512 11.9999 7.59412 11.7709 8.58112C11.6199 9.23212 11.0549 9.80612 10.1349 10.3011C9.08295 8.64112 7.72295 6.89312 5.92895 5.27912C5.72395 5.09412 5.40695 5.11112 5.22295 5.31512C5.03795 5.52112 5.05495 5.83712 5.25995 6.02212C6.97895 7.57012 8.30495 9.27012 9.31795 10.8801C8.73695 12.1501 8.03095 12.7981 7.21695 12.7981Z" fill="black"/>
</svg>
