<svg width="24" height="24" viewBox="0 0 24 24" fill="none" xmlns="http://www.w3.org/2000/svg">
<path fill-rule="evenodd" clip-rule="evenodd" d="M6.5 12C5.11929 12 4 13.1193 4 14.5C4 15.8807 5.11929 17 6.5 17C7.88071 17 9 15.8807 9 14.5V6.80902L14 4.30902V10H12.5C11.1193 10 10 11.1193 10 12.5C10 13.8807 11.1193 15 12.5 15C13.8807 15 15 13.8807 15 12.5V3.5C15 3.32671 14.9103 3.16578 14.7629 3.07468C14.6155 2.98357 14.4314 2.97529 14.2764 3.05279L8.27639 6.05279C8.107 6.13748 8 6.31061 8 6.5V12H6.5ZM8 13H6.5C5.67157 13 5 13.6716 5 14.5C5 15.3284 5.67157 16 6.5 16C7.32843 16 8 15.3284 8 14.5V13ZM12.5 11H14V12.5C14 13.3284 13.3284 14 12.5 14C11.6716 14 11 13.3284 11 12.5C11 11.6716 11.6716 11 12.5 11Z" fill="black"/>
<path fill-rule="evenodd" clip-rule="evenodd" d="M21 20.5V0.5C21 0.224 20.776 0 20.5 0H0.5C0.224 0 0 0.224 0 0.5V20.5C0 20.776 0.224 21 0.5 21H20.5C20.776 21 21 20.776 21 20.5ZM20 20H1V1H20V20Z" fill="black"/>
<path d="M23.5 3H22.5C22.224 3 22 3.224 22 3.5C22 3.776 22.224 4 22.5 4H23V23H4V22.5C4 22.224 3.776 22 3.5 22C3.224 22 3 22.224 3 22.5V23.5C3 23.776 3.224 24 3.5 24H23.5C23.776 24 24 23.776 24 23.5V3.5C24 3.224 23.776 3 23.5 3Z" fill="black"/>
</svg>
