<svg width="24" height="24" viewBox="0 0 24 24" fill="none" xmlns="http://www.w3.org/2000/svg">
<path fill-rule="evenodd" clip-rule="evenodd" d="M6 16.5C6 15.1193 7.11929 14 8.5 14H10V8.5C10 8.31061 10.107 8.13748 10.2764 8.05279L16.2764 5.05279C16.4314 4.97529 16.6155 4.98357 16.7629 5.07467C16.9103 5.16578 17 5.32671 17 5.5V14.5C17 15.8807 15.8807 17 14.5 17C13.1193 17 12 15.8807 12 14.5C12 13.1193 13.1193 12 14.5 12H16V6.30902L11 8.80902V16.5C11 17.8807 9.88071 19 8.5 19C7.11929 19 6 17.8807 6 16.5ZM8.5 15H10V16.5C10 17.3284 9.32843 18 8.5 18C7.67157 18 7 17.3284 7 16.5C7 15.6716 7.67157 15 8.5 15ZM16 13H14.5C13.6716 13 13 13.6716 13 14.5C13 15.3284 13.6716 16 14.5 16C15.3284 16 16 15.3284 16 14.5V13Z" fill="black"/>
<path fill-rule="evenodd" clip-rule="evenodd" d="M22 4H23.5C23.776 4 24 4.224 24 4.5V19.5C24 19.776 23.776 20 23.5 20H22V21.5C22 21.776 21.776 22 21.5 22H2.5C2.224 22 2 21.776 2 21.5V20H0.5C0.224 20 0 19.776 0 19.5V4.5C0 4.224 0.224 4 0.5 4H2V2.5C2 2.224 2.224 2 2.5 2H21.5C21.776 2 22 2.224 22 2.5V4ZM1 5V19H2V5H1ZM3 21H21V3H3V21ZM22 19H23V5H22V19Z" fill="black"/>
</svg>
