<svg width="24" height="24" viewBox="0 0 24 24" fill="none" xmlns="http://www.w3.org/2000/svg">
<path fill-rule="evenodd" clip-rule="evenodd" d="M6.29658 7.04325C6.47696 6.96292 6.68772 6.99626 6.83448 7.12835L11.8345 11.6284C11.9398 11.7232 12 11.8583 12 12C12 12.1417 11.9398 12.2768 11.8345 12.3716L6.83448 16.8716C6.68772 17.0037 6.47696 17.0371 6.29658 16.9567C6.11621 16.8764 6 16.6975 6 16.5V7.5C6 7.30254 6.11621 7.12358 6.29658 7.04325ZM7 15.3773L10.7526 12L7 8.62268V15.3773Z" fill="black"/>
<path d="M14.5 7C14.7761 7 15 7.22386 15 7.5V16.5C15 16.7761 14.7761 17 14.5 17C14.2239 17 14 16.7761 14 16.5V7.5C14 7.22386 14.2239 7 14.5 7Z" fill="black"/>
<path d="M18 7.5C18 7.22386 17.7761 7 17.5 7C17.2239 7 17 7.22386 17 7.5V16.5C17 16.7761 17.2239 17 17.5 17C17.7761 17 18 16.7761 18 16.5V7.5Z" fill="black"/>
<path fill-rule="evenodd" clip-rule="evenodd" d="M0 12C0 5.37258 5.37258 0 12 0C18.6274 0 24 5.37258 24 12C24 18.6274 18.6274 24 12 24C5.37258 24 0 18.6274 0 12ZM12 1C5.92487 1 1 5.92487 1 12C1 18.0751 5.92487 23 12 23C18.0751 23 23 18.0751 23 12C23 5.92487 18.0751 1 12 1Z" fill="black"/>
</svg>
