<svg width="24" height="24" viewBox="0 0 24 24" fill="none" xmlns="http://www.w3.org/2000/svg">
<path fill-rule="evenodd" clip-rule="evenodd" d="M8.237 16.926C8.317 16.975 8.409 17 8.5 17C8.577 17 8.653 16.982 8.724 16.947L17.724 12.447C17.893 12.362 18 12.189 18 12C18 11.811 17.893 11.638 17.723 11.553L8.723 7.053C8.569 6.975 8.384 6.983 8.237 7.074C8.09 7.166 8 7.327 8 7.5V16.5C8 16.673 8.09 16.834 8.237 16.926ZM9 15.692V8.309L16.382 12L9 15.692Z" fill="black"/>
<path fill-rule="evenodd" clip-rule="evenodd" d="M0 12C0 18.617 5.383 24 12 24C18.617 24 24 18.617 24 12C24 5.383 18.617 0 12 0C5.383 0 0 5.383 0 12ZM1 12C1 5.935 5.935 1 12 1C18.065 1 23 5.935 23 12C23 18.065 18.065 23 12 23C5.935 23 1 18.065 1 12Z" fill="black"/>
</svg>
