<svg width="24" height="24" viewBox="0 0 24 24" fill="none" xmlns="http://www.w3.org/2000/svg">
<path d="M19.061 9.33898L13.405 3.68198C13.21 3.48698 12.893 3.48698 12.698 3.68198C12.503 3.87698 12.503 4.19398 12.698 4.38898L18.354 10.046C18.452 10.144 18.58 10.192 18.708 10.192C18.836 10.192 18.964 10.143 19.062 10.046C19.256 9.85098 19.256 9.53398 19.061 9.33898Z" fill="black"/>
<path fill-rule="evenodd" clip-rule="evenodd" d="M10.698 10.045C10.698 9.51098 10.906 9.00898 11.284 8.63198C12.063 7.85298 13.332 7.85298 14.111 8.63198C14.489 9.00898 14.697 9.51098 14.697 10.045C14.697 10.579 14.489 11.081 14.112 11.46C13.722 11.85 13.21 12.045 12.698 12.045C12.186 12.045 11.674 11.85 11.284 11.46C10.906 11.081 10.698 10.579 10.698 10.045ZM11.99 10.753C12.379 11.144 13.014 11.144 13.404 10.753C13.593 10.563 13.697 10.312 13.697 10.045C13.697 9.77798 13.593 9.52698 13.405 9.33898C13.209 9.14498 12.953 9.04698 12.697 9.04698C12.441 9.04698 12.185 9.14398 11.99 9.33898C11.801 9.52698 11.697 9.77798 11.697 10.045C11.697 10.313 11.801 10.564 11.99 10.753Z" fill="black"/>
<path fill-rule="evenodd" clip-rule="evenodd" d="M22.597 4.38898C22.402 4.19398 22.085 4.19398 21.89 4.38898L19.415 6.86498L15.879 3.32898L18.354 0.853982C18.549 0.658982 18.549 0.341982 18.354 0.146982C18.159 -0.0480176 17.842 -0.0480176 17.647 0.146982L15.172 2.62198L13.404 0.853982C13.209 0.658982 12.892 0.658982 12.697 0.853982L8.80902 4.74198C7.67302 5.87698 7.08802 7.42798 7.16202 9.10998C7.20502 10.109 7.48302 11.078 7.95602 11.958L5.97902 13.936C5.78402 14.131 5.78402 14.448 5.97902 14.643L6.68602 15.35L2.44402 19.592C1.46902 20.567 1.46902 22.153 2.44402 23.127C3.38802 24.072 5.03502 24.072 5.98002 23.127L9.16202 19.945C9.55302 19.554 10.187 19.554 10.577 19.945C10.967 20.335 10.967 20.969 10.577 21.359L8.89402 23.041C8.69902 23.236 8.69902 23.553 8.89402 23.748C8.99202 23.846 9.12002 23.894 9.24802 23.894C9.37602 23.894 9.50402 23.845 9.60202 23.748L11.285 22.066C12.063 21.286 12.063 20.018 11.285 19.238C10.505 18.459 9.23602 18.459 8.45602 19.238L5.27202 22.42C4.70602 22.986 3.71802 22.986 3.15102 22.42C2.56602 21.835 2.56602 20.884 3.15102 20.299L7.39302 16.057L8.10002 16.764C8.19802 16.862 8.32602 16.91 8.45402 16.91C8.58202 16.91 8.71002 16.861 8.80802 16.764L10.783 14.79C11.769 15.322 12.847 15.592 13.907 15.592C15.42 15.592 16.893 15.044 18.001 13.936L21.891 10.046C22.086 9.85098 22.086 9.53398 21.891 9.33898L20.122 7.56998L22.597 5.09498C22.792 4.89998 22.792 4.58398 22.597 4.38898ZM8.45402 15.703L7.04002 14.289L8.50902 12.818C8.70902 13.085 8.92302 13.342 9.16202 13.582C9.40302 13.823 9.66102 14.035 9.92502 14.232L8.45402 15.703ZM17.293 13.229C15.344 15.179 12.015 15.02 9.86902 12.875C8.82902 11.835 8.22202 10.482 8.16102 9.06698C8.10002 7.66798 8.58102 6.38398 9.51602 5.44898L13.051 1.91398L20.829 9.69198L17.293 13.229Z" fill="black"/>
</svg>
