<svg width="24" height="24" viewBox="0 0 24 24" fill="none" xmlns="http://www.w3.org/2000/svg">
<path d="M13.8123 13.8905C14.028 13.7179 14.0629 13.4033 13.8904 13.1877L13.1403 12L13.8904 10.8124C14.0629 10.5967 14.028 10.2821 13.8123 10.1096C13.5967 9.93708 13.2821 9.97204 13.1096 10.1877L12.1096 11.6877C11.9635 11.8703 11.9635 12.1298 12.1096 12.3124L13.1096 13.8124C13.2821 14.028 13.5967 14.063 13.8123 13.8905Z" fill="black"/>
<path d="M15.1877 13.8905C14.972 13.7179 14.9371 13.4033 15.1096 13.1877L15.8597 12L15.1096 10.8124C14.9371 10.5967 14.972 10.2821 15.1877 10.1096C15.4033 9.93708 15.7179 9.97204 15.8904 10.1877L16.8904 11.6877C17.0365 11.8703 17.0365 12.1298 16.8904 12.3124L15.8904 13.8124C15.7179 14.028 15.4033 14.063 15.1877 13.8905Z" fill="black"/>
<path fill-rule="evenodd" clip-rule="evenodd" d="M10 20.777C10.6432 20.9229 11.3126 21 12 21C16.9706 21 21 16.9706 21 12C21 7.02944 16.9706 3 12 3C7.02944 3 3 7.02944 3 12C3 14.6655 4.15875 17.0604 6 18.7083C6.31424 18.9896 6.64837 19.2492 7 19.4846C7.61701 19.8976 8.28794 20.2362 9 20.4879C9.32516 20.6028 9.6589 20.6996 10 20.777ZM10 19.748C10.6392 19.9125 11.3094 20 12 20C16.4183 20 20 16.4183 20 12C20 7.58172 16.4183 4 12 4C11.3094 4 10.6392 4.08751 10 4.25204V19.748ZM9 4.58152C8.27433 4.87526 7.60158 5.27238 7 5.75463V18.2454C7.60158 18.7276 8.27433 19.1247 9 19.4185V4.58152ZM6 6.70835C4.75527 8.11862 4 9.97111 4 12C4 14.0289 4.75527 15.8814 6 17.2916V6.70835Z" fill="black"/>
<path fill-rule="evenodd" clip-rule="evenodd" d="M0 12C0 5.37258 5.37258 0 12 0C18.6274 0 24 5.37258 24 12C24 18.6274 18.6274 24 12 24C5.37258 24 0 18.6274 0 12ZM12 1C5.92487 1 1 5.92487 1 12C1 18.0751 5.92487 23 12 23C18.0751 23 23 18.0751 23 12C23 5.92487 18.0751 1 12 1Z" fill="black"/>
</svg>
