<svg width="24" height="24" viewBox="0 0 24 24" fill="none" xmlns="http://www.w3.org/2000/svg">
<path d="M13.8904 13.1877C14.0629 13.4033 14.028 13.7179 13.8123 13.8905C13.5967 14.063 13.2821 14.028 13.1096 13.8124L12.1096 12.3124C11.9635 12.1298 11.9635 11.8703 12.1096 11.6877L13.1096 10.1877C13.2821 9.97204 13.5967 9.93708 13.8123 10.1096C14.028 10.2821 14.0629 10.5967 13.8904 10.8124L13.1403 12L13.8904 13.1877Z" fill="black"/>
<path fill-rule="evenodd" clip-rule="evenodd" d="M21 5H3V19H21V5ZM4 18V6H6V18H4ZM7 18V6H9V18H7ZM10 18V6H20V18H10Z" fill="black"/>
<path fill-rule="evenodd" clip-rule="evenodd" d="M0.5 2C0.223858 2 0 2.22386 0 2.5V21.5C0 21.7761 0.223858 22 0.5 22H23.5C23.7761 22 24 21.7761 24 21.5V2.5C24 2.22386 23.7761 2 23.5 2H0.5ZM1 21V3H23V21H1Z" fill="black"/>
</svg>
