<svg width="24" height="24" viewBox="0 0 24 24" fill="none" xmlns="http://www.w3.org/2000/svg">
<path d="M14.3123 13.8905C14.528 13.7179 14.5629 13.4033 14.3904 13.1877L13.6403 12L14.3904 10.8124C14.5629 10.5967 14.528 10.2821 14.3123 10.1096C14.0967 9.93708 13.7821 9.97204 13.6096 10.1877L12.6096 11.6877C12.4635 11.8703 12.4635 12.1298 12.6096 12.3124L13.6096 13.8124C13.7821 14.028 14.0967 14.063 14.3123 13.8905Z" fill="black"/>
<path d="M15.6096 13.1877C15.4371 13.4033 15.472 13.7179 15.6877 13.8905C15.9033 14.063 16.2179 14.028 16.3904 13.8124L17.3904 12.3124C17.5365 12.1298 17.5365 11.8703 17.3904 11.6877L16.3904 10.1877C16.2179 9.97204 15.9033 9.93708 15.6877 10.1096C15.472 10.2821 15.4371 10.5967 15.6096 10.8124L16.3597 12L15.6096 13.1877Z" fill="black"/>
<path fill-rule="evenodd" clip-rule="evenodd" d="M3 5H21V19H3V5ZM7 18H9V6H7V18ZM6 6H4V18H6V6ZM10 6V18H20V6H10Z" fill="black"/>
<path fill-rule="evenodd" clip-rule="evenodd" d="M0 2.5C0 2.22386 0.223858 2 0.5 2H23.5C23.7761 2 24 2.22386 24 2.5V21.5C24 21.7761 23.7761 22 23.5 22H0.5C0.223858 22 0 21.7761 0 21.5V2.5ZM1 3V21H23V3H1Z" fill="black"/>
</svg>
