<svg width="24" height="24" viewBox="0 0 24 24" fill="none" xmlns="http://www.w3.org/2000/svg">
<path fill-rule="evenodd" clip-rule="evenodd" d="M18 3C18 1.346 19.346 0 21 0C22.655 0 24 1.346 24 3V4C24 4.276 23.775 4.5 23.499 4.5C23.223 4.5 22.999 4.276 22.999 4V3C22.999 1.896 22.102 1 20.999 1C19.896 1 18.999 1.896 18.999 3V17.281C19.419 17.816 20.269 17.558 20.269 16.5C20.269 13.874 23.498 13.874 23.498 16.5C23.498 16.776 23.274 17 22.998 17C22.722 17 22.498 16.776 22.498 16.5C22.498 16.064 22.372 15.822 22.266 15.696C21.937 15.304 21.268 15.485 21.268 16.5C21.267 18.536 19.214 18.969 18.292 17.977C18.215 17.894 18.136 17.781 18.061 17.653C18.0574 17.6459 18.0536 17.6393 18.0498 17.6327C18.0439 17.6227 18.0382 17.6129 18.034 17.602C17.888 17.334 17.768 16.981 17.768 16.5C17.768 16.166 17.68 15.895 17.513 15.717C17.121 15.3 16.268 15.462 16.268 16.5C16.269 17.252 15.986 17.717 15.747 17.974C15.426 18.322 14.991 18.514 14.524 18.514H14.522C13.654 18.515 12.775 17.824 12.773 16.503C12.772 15.81 12.394 15.5 12.02 15.5C11.647 15.5 11.27 15.81 11.27 16.5C11.269 18.536 9.216 18.969 8.294 17.977C8.055 17.719 7.77 17.254 7.77 16.5C7.77 16.166 7.682 15.895 7.515 15.717C7.122 15.3 6.27 15.462 6.27 16.5C6.27 17.834 5.39 18.531 4.52 18.531C4.057 18.531 3.61 18.333 3.292 17.987C2.951 17.615 2.77 17.101 2.77 16.5C2.77 16.067 2.642 15.825 2.535 15.699C2.201 15.307 1.5 15.48 1.5 16.5C1.5 16.776 1.276 17 1 17C0.724 17 0.5 16.776 0.5 16.5C0.5 13.874 3.771 13.874 3.771 16.5C3.771 17.925 5.271 17.925 5.271 16.5C5.271 13.874 8.771 13.874 8.771 16.5C8.771 17.903 10.271 17.903 10.271 16.5C10.271 15.732 10.576 15.185 11 14.857V3C11 1.346 12.346 0 14 0C15.654 0 17 1.346 17 3V4C17 4.276 16.776 4.5 16.5 4.5C16.224 4.5 16 4.276 16 4V3C16 1.896 15.103 1 14 1C12.897 1 12 1.896 12 3V6H18V3ZM18 10H12V12H18V10ZM18 9V7H12V9H18ZM14.525 17.513C14.897 17.513 15.272 17.199 15.271 16.5C15.271 14.668 16.97 14.118 18 14.841V13H12V14.502C12.0035 14.502 12.007 14.5015 12.0105 14.501C12.014 14.5005 12.0175 14.5 12.021 14.5H12.022C12.892 14.5 13.773 15.186 13.775 16.502C13.776 17.201 14.152 17.513 14.525 17.513Z" fill="black"/>
<path d="M18.771 21.5C18.771 22.903 20.271 22.903 20.271 21.5C20.271 18.874 23.5 18.874 23.498 21.5C23.498 21.776 23.274 22 22.998 22C22.722 22 22.498 21.776 22.498 21.5C22.498 21.064 22.372 20.822 22.266 20.696C21.937 20.303 21.268 20.485 21.268 21.5C21.267 23.536 19.214 23.969 18.292 22.977C18.053 22.719 17.768 22.254 17.768 21.5C17.768 21.166 17.68 20.895 17.513 20.717C17.121 20.3 16.268 20.462 16.268 21.5C16.269 22.252 15.986 22.717 15.747 22.974C15.426 23.322 14.991 23.514 14.524 23.514H14.522C13.654 23.515 12.775 22.824 12.773 21.503C12.772 20.81 12.394 20.5 12.02 20.5C11.647 20.5 11.27 20.81 11.27 21.5C11.269 23.536 9.216 23.969 8.294 22.977C8.055 22.719 7.77 22.254 7.77 21.5C7.77 21.166 7.682 20.895 7.515 20.717C7.122 20.3 6.27 20.462 6.27 21.5C6.27 22.834 5.39 23.531 4.52 23.531C4.057 23.531 3.61 23.333 3.292 22.987C2.951 22.615 2.77 22.101 2.77 21.5C2.77 21.067 2.642 20.825 2.535 20.699C2.201 20.308 1.5 20.48 1.5 21.5C1.5 21.776 1.276 22 1 22C0.724 22 0.5 21.776 0.5 21.5C0.5 18.874 3.771 18.874 3.771 21.5C3.771 22.925 5.271 22.925 5.271 21.5C5.271 18.874 8.771 18.874 8.771 21.5C8.771 22.903 10.271 22.903 10.271 21.5C10.271 20.188 11.151 19.5 12.021 19.5H12.022C12.892 19.5 13.773 20.186 13.775 21.502C13.776 22.201 14.151 22.513 14.524 22.513C14.896 22.513 15.272 22.199 15.271 21.5C15.271 18.874 18.771 18.874 18.771 21.5Z" fill="black"/>
</svg>
