<svg width="24" height="24" viewBox="0 0 24 24" fill="none" xmlns="http://www.w3.org/2000/svg">
<path d="M12.1096 13.1877C11.9371 13.4033 11.972 13.7179 12.1877 13.8905C12.4033 14.063 12.7179 14.028 12.8904 13.8124L13.8904 12.3124C14.0365 12.1298 14.0365 11.8703 13.8904 11.6877L12.8904 10.1877C12.7179 9.97204 12.4033 9.93708 12.1877 10.1096C11.972 10.2821 11.9371 10.5967 12.1096 10.8124L12.8597 12L12.1096 13.1877Z" fill="black"/>
<path fill-rule="evenodd" clip-rule="evenodd" d="M21 5H3V19H21V5ZM9 18H7V6H9V18ZM4 6H6V18H4V6ZM10 18V6H20V18H10Z" fill="black"/>
<path fill-rule="evenodd" clip-rule="evenodd" d="M0.5 2C0.223858 2 0 2.22386 0 2.5V21.5C0 21.7761 0.223858 22 0.5 22H23.5C23.7761 22 24 21.7761 24 21.5V2.5C24 2.22386 23.7761 2 23.5 2H0.5ZM1 21V3H23V21H1Z" fill="black"/>
</svg>
