<svg width="24" height="24" viewBox="0 0 24 24" fill="none" xmlns="http://www.w3.org/2000/svg">
<path d="M13.8904 13.1877C14.0629 13.4033 14.028 13.7179 13.8123 13.8905C13.5967 14.063 13.2821 14.028 13.1096 13.8124L12.1096 12.3124C11.9635 12.1298 11.9635 11.8703 12.1096 11.6877L13.1096 10.1877C13.2821 9.97204 13.5967 9.93708 13.8123 10.1096C14.028 10.2821 14.0629 10.5967 13.8904 10.8124L13.1403 12L13.8904 13.1877Z" fill="black"/>
<path fill-rule="evenodd" clip-rule="evenodd" d="M12 21C11.3126 21 10.6432 20.9229 10 20.777C9.6589 20.6996 9.32516 20.6028 9 20.4879C8.28794 20.2362 7.61701 19.8976 7 19.4846C6.64837 19.2492 6.31424 18.9896 6 18.7083C4.15875 17.0604 3 14.6655 3 12C3 7.02944 7.02944 3 12 3C16.9706 3 21 7.02944 21 12C21 16.9706 16.9706 21 12 21ZM12 20C11.3094 20 10.6392 19.9125 10 19.748V4.25204C10.6392 4.08751 11.3094 4 12 4C16.4183 4 20 7.58172 20 12C20 16.4183 16.4183 20 12 20ZM7 5.75463C7.60158 5.27238 8.27433 4.87526 9 4.58152V19.4185C8.27433 19.1247 7.60158 18.7276 7 18.2454V5.75463ZM4 12C4 9.97111 4.75527 8.11862 6 6.70835V17.2916C4.75527 15.8814 4 14.0289 4 12Z" fill="black"/>
<path fill-rule="evenodd" clip-rule="evenodd" d="M12 0C5.37258 0 0 5.37258 0 12C0 18.6274 5.37258 24 12 24C18.6274 24 24 18.6274 24 12C24 5.37258 18.6274 0 12 0ZM1 12C1 5.92487 5.92487 1 12 1C18.0751 1 23 5.92487 23 12C23 18.0751 18.0751 23 12 23C5.92487 23 1 18.0751 1 12Z" fill="black"/>
</svg>
