<svg width="24" height="24" viewBox="0 0 24 24" fill="none" xmlns="http://www.w3.org/2000/svg">
<path d="M8.14281 14C8.02672 14 7.84033 13.9394 7.58063 13.6598C7.39273 13.4574 7.07637 13.4457 6.87401 13.6336C6.67165 13.8215 6.65994 14.1379 6.84784 14.3402C7.20719 14.7272 7.63985 15 8.14281 15C8.64576 15 9.07842 14.7272 9.43777 14.3402C9.69747 14.0606 9.88386 14 9.99995 14C10.116 14 10.3024 14.0606 10.5621 14.3402C10.9215 14.7272 11.3541 15 11.8571 15C12.36 15 12.7927 14.7272 13.1521 14.3402C13.4118 14.0606 13.5981 14 13.7142 14C13.8303 14 14.0167 14.0606 14.2764 14.3402C14.4643 14.5426 14.7807 14.5543 14.983 14.3664C15.1854 14.1785 15.1971 13.8621 15.0092 13.6598C14.6499 13.2728 14.2172 13 13.7142 13C13.2113 13 12.7786 13.2728 12.4193 13.6598C12.1596 13.9394 11.9732 14 11.8571 14C11.741 14 11.5546 13.9394 11.2949 13.6598C10.9356 13.2728 10.5029 13 9.99995 13C9.49699 13 9.06433 13.2728 8.70498 13.6598C8.44529 13.9394 8.2589 14 8.14281 14Z" fill="black"/>
<path d="M11.5807 9.65977C11.8404 9.93945 12.0268 10 12.1429 10C12.259 10 12.4454 9.93945 12.7051 9.65977C13.0644 9.27278 13.4971 9 14 9C14.503 9 14.9357 9.27278 15.295 9.65977C15.5547 9.93945 15.7411 10 15.8572 10C15.9733 10 16.1597 9.93945 16.4194 9.65977C16.6073 9.45742 16.9236 9.4457 17.126 9.6336C17.3283 9.8215 17.34 10.1379 17.1521 10.3402C16.7928 10.7272 16.3601 11 15.8572 11C15.3542 11 14.9216 10.7272 14.5622 10.3402C14.3025 10.0606 14.1161 10 14 10C13.8839 10 13.6976 10.0606 13.4379 10.3402C13.0785 10.7272 12.6459 11 12.1429 11C11.6399 11 11.2073 10.7272 10.8479 10.3402C10.5882 10.0606 10.4018 10 10.2858 10C10.1697 10 9.98327 10.0606 9.72358 10.3402C9.53568 10.5426 9.21931 10.5543 9.01695 10.3664C8.8146 10.1785 8.80288 9.86213 8.99078 9.65977C9.35013 9.27278 9.7828 9 10.2858 9C10.7887 9 11.2214 9.27278 11.5807 9.65977Z" fill="black"/>
<path fill-rule="evenodd" clip-rule="evenodd" d="M12 0C11.47 0 10.9477 0.0343944 10.4354 0.101129C4.54705 0.868162 0 5.90267 0 12C0 18.6274 5.37258 24 12 24C18.6274 24 24 18.6274 24 12C24 5.90267 19.4529 0.868162 13.5646 0.101129C13.0523 0.0343944 12.53 0 12 0ZM11 3.05493V1.04481C11.3293 1.01516 11.6628 1 12 1C12.3372 1 12.6707 1.01516 13 1.04481V3.05493C12.6717 3.01863 12.338 3 12 3C11.662 3 11.3283 3.01863 11 3.05493ZM10 4.25204V5C10 5.27614 10.2239 5.5 10.5 5.5C10.7761 5.5 11 5.27614 11 5V4.06189C11.3276 4.02104 11.6613 4 12 4C12.3387 4 12.6724 4.02104 13 4.06189V5C13 5.27614 13.2239 5.5 13.5 5.5C13.7761 5.5 14 5.27614 14 5V4.25204C17.4505 5.14012 20 8.27232 20 12C20 16.4183 16.4183 20 12 20C7.58172 20 4 16.4183 4 12C4 8.27232 6.54955 5.14012 10 4.25204ZM10 3.22302V1.18129C4.87994 2.12154 1 6.60804 1 12C1 18.0751 5.92487 23 12 23C18.0751 23 23 18.0751 23 12C23 6.60804 19.1201 2.12154 14 1.18129V3.22302C18.008 4.13247 21 7.71683 21 12C21 16.9706 16.9706 21 12 21C7.02944 21 3 16.9706 3 12C3 7.71683 5.99202 4.13247 10 3.22302Z" fill="black"/>
</svg>
