<svg width="24" height="24" viewBox="0 0 24 24" fill="none" xmlns="http://www.w3.org/2000/svg">
<path fill-rule="evenodd" clip-rule="evenodd" d="M4.5 0C4.34811 0 4.20446 0.0690449 4.10957 0.187652L0.10957 5.18765C-0.0104977 5.33774 -0.0339069 5.54336 0.0493531 5.71659C0.132613 5.88983 0.307802 6 0.500005 6H4V19H2.5C2.22386 19 2 19.2239 2 19.5V21H0.500005C0.223862 21 4.68635e-06 21.2239 4.68635e-06 21.5V23.5C4.68635e-06 23.7761 0.223862 24 0.500005 24H23.5C23.7761 24 24 23.7761 24 23.5V21.5C24 21.2239 23.7761 21 23.5 21H22V19.5C22 19.2239 21.7761 19 21.5 19H20V6H23.5C23.6922 6 23.8674 5.88983 23.9507 5.71659C24.0339 5.54336 24.0105 5.33774 23.8904 5.18765L19.8904 0.187652C19.7956 0.0690449 19.6519 0 19.5 0H4.5ZM5 19V6H19V19H16V9.5C16 9.22386 15.7761 9 15.5 9H8.5C8.22386 9 8 9.22386 8 9.5V19H5ZM15 14H14.5C14.2239 14 14 14.2239 14 14.5C14 14.7761 14.2239 15 14.5 15H15V19H9V10H15V14ZM22.4597 5L19.2597 1H4.74032L1.54032 5H22.4597ZM21 21H3V20H21V21ZM1 23V22H23V23H1Z" fill="black"/>
</svg>
