<svg width="24" height="24" viewBox="0 0 24 24" fill="none" xmlns="http://www.w3.org/2000/svg">
<path fill-rule="evenodd" clip-rule="evenodd" d="M12.0001 0C12.2209 0 12.4156 0.144834 12.479 0.356326L13.8721 5H20.5001C20.7763 5 21.0001 5.22386 21.0001 5.5C21.0001 5.77614 20.7763 6 20.5001 6H14.1721L14.7721 8H19.5001C19.7763 8 20.0001 8.22386 20.0001 8.5C20.0001 8.77614 19.7763 9 19.5001 9H15.0721L16.9666 15.315L20.9473 23.2764C21.0708 23.5234 20.9707 23.8237 20.7237 23.9472C20.4767 24.0707 20.1764 23.9706 20.0529 23.7236L19.5523 22.7224L12.0001 19.5425L4.44794 22.7224L3.94732 23.7236C3.82383 23.9706 3.52349 24.0707 3.2765 23.9472C3.02951 23.8237 2.9294 23.5234 3.0529 23.2764L7.0336 15.315L8.92809 9H4.50011C4.22397 9 4.00011 8.77614 4.00011 8.5C4.00011 8.22386 4.22397 8 4.50011 8H9.22809L9.82809 6H3.50011C3.22397 6 3.00011 5.77614 3.00011 5.5C3.00011 5.22386 3.22397 5 3.50011 5H10.1281L11.5212 0.356326C11.5846 0.144834 11.7793 0 12.0001 0ZM10.8721 6L10.2721 8H13.7281L13.1281 6H10.8721ZM12.8281 5H11.1721L12.0001 2.24005L12.8281 5ZM14.0281 9H9.97213L9.81135 9.5359L12.0001 10.4575L14.1889 9.5359L14.0281 9ZM14.4779 10.4992L13.2886 11L14.8218 11.6455L14.4779 10.4992ZM14.8679 12.75L12.0001 11.5425L9.13233 12.75L12.0001 13.9575L14.8679 12.75ZM10.7116 14.5L8.59011 13.6067L7.97902 15.6437C7.97823 15.6463 7.97741 15.649 7.97657 15.6516L10.7116 14.5ZM7.07478 17.4687L5.13512 21.348L10.7116 19L7.07478 17.4687ZM13.2886 19L18.8651 21.348L16.9254 17.4687L13.2886 19ZM16.0236 15.6516L13.2886 14.5L15.4101 13.6067L16.0212 15.6437C16.022 15.6463 16.0228 15.649 16.0236 15.6516ZM16.0554 16.75L12.0001 15.0425L7.94483 16.75L12.0001 18.4575L16.0554 16.75ZM9.17846 11.6455L9.52235 10.4992L10.7116 11L9.17846 11.6455Z" fill="black"/>
</svg>
