<svg width="24" height="24" viewBox="0 0 24 24" fill="none" xmlns="http://www.w3.org/2000/svg">
<path fill-rule="evenodd" clip-rule="evenodd" d="M15.5 3.5C15.5 5.43 13.93 7 12 7C10.07 7 8.5 5.43 8.5 3.5C8.5 1.57 10.07 0 12 0C13.93 0 15.5 1.57 15.5 3.5ZM14.5 3.5C14.5 2.122 13.378 1 12 1C10.622 1 9.5 2.122 9.5 3.5C9.5 4.878 10.622 6 12 6C13.378 6 14.5 4.878 14.5 3.5Z" fill="black"/>
<path fill-rule="evenodd" clip-rule="evenodd" d="M10 18.5V14.534C8.048 13.6 7 10.798 7 8.5C7 8.224 7.224 8 7.5 8H16.5C16.776 8 17 8.224 17 8.5C17 10.799 15.952 13.6 14 14.534V18.5C14 18.776 13.776 19 13.5 19H10.5C10.224 19 10 18.776 10 18.5ZM13.335 13.729C14.851 13.198 15.835 10.963 15.981 9H8.019C8.166 10.963 9.149 13.198 10.665 13.728C10.866 13.798 11 13.988 11 14.2V18H13V14.2C13 13.988 13.134 13.798 13.335 13.729Z" fill="black"/>
<path d="M12 20.5C7.985 20.5 5.634 19.679 5.499 19.261C5.534 19.15 6.074 18.659 8.08 18.308C8.352 18.261 8.534 18.001 8.486 17.728C8.438 17.457 8.18 17.276 7.907 17.322C5.646 17.719 4.5 18.367 4.5 19.25C4.5 21.026 9.214 21.5 12 21.5C14.786 21.5 19.5 21.026 19.5 19.25C19.5 18.368 18.358 17.72 16.106 17.324C15.835 17.278 15.575 17.458 15.527 17.73C15.48 18.002 15.661 18.261 15.933 18.309C17.93 18.661 18.467 19.149 18.501 19.239C18.366 19.679 16.015 20.5 12 20.5Z" fill="black"/>
<path d="M15.507 15.685C15.543 15.41 15.793 15.225 16.067 15.252C19.902 15.748 24 17.124 24 19.5C24 22.423 17.817 24 12 24C6.183 24 0 22.423 0 19.5C0 17.124 4.099 15.748 7.935 15.252C8.206 15.22 8.459 15.411 8.495 15.685C8.53 15.958 8.337 16.209 8.063 16.245C3.426 16.843 1 18.335 1 19.5C1 21.155 5.518 23 12 23C18.482 23 23 21.155 23 19.5C23 18.335 20.575 16.843 15.939 16.245C15.665 16.209 15.472 15.958 15.507 15.685Z" fill="black"/>
</svg>
