<svg width="24" height="24" viewBox="0 0 24 24" fill="none" xmlns="http://www.w3.org/2000/svg">
<path fill-rule="evenodd" clip-rule="evenodd" d="M6.642 15.3482C6.493 15.1962 6.458 14.9662 6.553 14.7762L7.504 12.8792C6.611 12.0432 6.125 10.9782 6.125 9.84221C6.125 7.31621 8.593 5.26221 11.625 5.26221C14.657 5.26221 17.125 7.31721 17.125 9.84221C17.125 12.3662 14.657 14.4202 11.625 14.4202C11.039 14.4202 10.465 14.3452 9.915 14.1972L7.211 15.4542C7.144 15.4852 7.071 15.5002 7 15.5002C6.868 15.5002 6.737 15.4482 6.642 15.3482ZM11.625 6.26121C9.144 6.26121 7.125 7.86721 7.125 9.84121C7.125 10.7922 7.591 11.6882 8.437 12.3632C8.622 12.5112 8.678 12.7672 8.573 12.9782L8.09 13.9422L9.663 13.2102C9.773 13.1582 9.9 13.1492 10.019 13.1852C10.53 13.3402 11.07 13.4192 11.625 13.4192C14.106 13.4192 16.125 11.8142 16.125 9.84121C16.125 7.86721 14.106 6.26121 11.625 6.26121Z" fill="black"/>
<path fill-rule="evenodd" clip-rule="evenodd" d="M23 3.5C23 3.776 22.776 4 22.5 4H21V17H22.479C22.755 17 22.979 17.224 22.979 17.5C22.979 17.776 22.755 18 22.479 18H12V20.071C12.86 20.294 13.5 21.071 13.5 22C13.5 23.103 12.603 24 11.5 24C10.397 24 9.5 23.103 9.5 22C9.5 21.071 10.14 20.294 11 20.071V18H0.521C0.245 18 0.021 17.776 0.021 17.5C0.021 17.224 0.245 17 0.521 17H2V4H0.5C0.224 4 0 3.776 0 3.5V0.5C0 0.224 0.224 0 0.5 0H22.5C22.776 0 23 0.224 23 0.5V3.5ZM11.5 23C12.052 23 12.5 22.551 12.5 22C12.5 21.449 12.052 21 11.5 21C10.948 21 10.5 21.449 10.5 22C10.5 22.551 10.948 23 11.5 23ZM22 1H1V3H22V1ZM3 17H20V4H3V17Z" fill="black"/>
</svg>
