<svg width="24" height="24" viewBox="0 0 24 24" fill="none" xmlns="http://www.w3.org/2000/svg">
<path fill-rule="evenodd" clip-rule="evenodd" d="M9.5 17H7.5C7.224 17 7 16.776 7 16.5V7.5C7 7.224 7.224 7 7.5 7H9.5C9.776 7 10 7.224 10 7.5V16.5C10 16.776 9.776 17 9.5 17ZM8 16H9V8H8V16Z" fill="black"/>
<path fill-rule="evenodd" clip-rule="evenodd" d="M16.166 16.872C16.259 16.956 16.379 17 16.5 17C16.569 17 16.638 16.985 16.704 16.957C16.884 16.876 17 16.697 17 16.5V7.5C17 7.303 16.884 7.124 16.704 7.043C16.524 6.966 16.313 6.996 16.166 7.128L11.166 11.628C11.06 11.724 11 11.858 11 12C11 12.142 11.06 12.276 11.166 12.372L16.166 16.872ZM16 15.377L12.248 12L16 8.623V15.377Z" fill="black"/>
<path fill-rule="evenodd" clip-rule="evenodd" d="M12 24C5.383 24 0 18.617 0 12C0 5.383 5.383 0 12 0C18.617 0 24 5.383 24 12C24 18.617 18.617 24 12 24ZM12 1C5.935 1 1 5.935 1 12C1 18.065 5.935 23 12 23C18.065 23 23 18.065 23 12C23 5.935 18.065 1 12 1Z" fill="black"/>
</svg>
