<svg width="24" height="24" viewBox="0 0 24 24" fill="none" xmlns="http://www.w3.org/2000/svg">
<path fill-rule="evenodd" clip-rule="evenodd" d="M6 5.5C6 5.776 5.776 6 5.5 6C5.224 6 5 5.776 5 5.5V1.5C5 1.224 5.224 1 5.5 1H15.5C15.567 1 15.632 1.014 15.692 1.039C15.753 1.065 15.808 1.101 15.854 1.147L18.853 4.146C18.899 4.192 18.936 4.247 18.961 4.308C18.986 4.368 19 4.433 19 4.5V5.5C19 5.776 18.776 6 18.5 6C18.224 6 18 5.776 18 5.5V5H15.5C15.224 5 15 4.776 15 4.5V2H6V5.5ZM17.293 4L16 2.707V4H17.293Z" fill="black"/>
<path d="M7.5 16H16.5C16.776 16 17 16.224 17 16.5C17 16.776 16.776 17 16.5 17H7.5C7.224 17 7 16.776 7 16.5C7 16.224 7.224 16 7.5 16Z" fill="black"/>
<path d="M16.5 18H7.5C7.224 18 7 18.224 7 18.5C7 18.776 7.224 19 7.5 19H16.5C16.776 19 17 18.776 17 18.5C17 18.224 16.776 18 16.5 18Z" fill="black"/>
<path d="M7.5 20H16.5C16.776 20 17 20.224 17 20.5C17 20.776 16.776 21 16.5 21H7.5C7.224 21 7 20.776 7 20.5C7 20.224 7.224 20 7.5 20Z" fill="black"/>
<path fill-rule="evenodd" clip-rule="evenodd" d="M3.5 9C2.673 9 2 9.673 2 10.5C2 11.327 2.673 12 3.5 12C4.327 12 5 11.327 5 10.5C5 9.673 4.327 9 3.5 9ZM3.5 11C3.224 11 3 10.776 3 10.5C3 10.224 3.224 10 3.5 10C3.776 10 4 10.224 4 10.5C4 10.776 3.776 11 3.5 11Z" fill="black"/>
<path fill-rule="evenodd" clip-rule="evenodd" d="M2.5 7H21.5C22.878 7 24 8.122 24 9.5V15.5C24 16.878 22.878 18 21.5 18H19V22.5C19 22.776 18.776 23 18.5 23H5.5C5.224 23 5 22.776 5 22.5V18H2.5C1.122 18 0 16.878 0 15.5V9.5C0 8.122 1.122 7 2.5 7ZM6 22H18V15H6V22ZM21.5 17C22.327 17 23 16.327 23 15.5V9.5C23 8.673 22.327 8 21.5 8H2.5C1.673 8 1 8.673 1 9.5V15.5C1 16.327 1.673 17 2.5 17H5V14.5C5 14.224 5.224 14 5.5 14H18.5C18.776 14 19 14.224 19 14.5V17H21.5Z" fill="black"/>
</svg>
