<svg width="24" height="24" viewBox="0 0 24 24" fill="none" xmlns="http://www.w3.org/2000/svg">
<path d="M13 8.5C13 8.776 12.776 9 12.5 9C12.224 9 12 8.776 12 8.5C12 6.846 13.346 5.5 15 5.5C15.276 5.5 15.5 5.724 15.5 6C15.5 6.276 15.276 6.5 15 6.5C13.897 6.5 13 7.397 13 8.5Z" fill="black"/>
<path d="M2.5 12C2.224 12 2 12.224 2 12.5V16C2 16.276 2.224 16.5 2.5 16.5C2.776 16.5 3 16.276 3 16V12.5C3 12.224 2.776 12 2.5 12Z" fill="black"/>
<path d="M4 12.5C4 12.224 4.224 12 4.5 12C4.776 12 5 12.224 5 12.5V16C5 16.276 4.776 16.5 4.5 16.5C4.224 16.5 4 16.276 4 16V12.5Z" fill="black"/>
<path d="M6.5 12C6.224 12 6 12.224 6 12.5V16C6 16.276 6.224 16.5 6.5 16.5C6.776 16.5 7 16.276 7 16V12.5C7 12.224 6.776 12 6.5 12Z" fill="black"/>
<path fill-rule="evenodd" clip-rule="evenodd" d="M23.5 8H20.975C20.719 4.925 18.14 2.5 15 2.5C11.86 2.5 9.281 4.925 9.025 8H0.5C0.224 8 0 8.224 0 8.5V18.5C0 18.776 0.224 19 0.5 19H2V21.5C2 21.776 2.224 22 2.5 22C2.776 22 3 21.776 3 21.5V19H21V21.5C21 21.776 21.224 22 21.5 22C21.776 22 22 21.776 22 21.5V19H23.5C23.776 19 24 18.776 24 18.5V8.5C24 8.224 23.776 8 23.5 8ZM15 3.5C17.757 3.5 20 5.743 20 8.5C20 11.257 17.757 13.5 15 13.5C12.243 13.5 10 11.257 10 8.5C10 5.743 12.243 3.5 15 3.5ZM23 9V18H1V9H9.025C9.28 12.075 11.86 14.5 15 14.5C18.14 14.5 20.719 12.075 20.975 9H23Z" fill="black"/>
</svg>
