<svg width="24" height="24" viewBox="0 0 24 24" fill="none" xmlns="http://www.w3.org/2000/svg">
<path fill-rule="evenodd" clip-rule="evenodd" d="M11.541 1.583C10.714 1.583 10.041 2.256 10.041 3.083C10.041 3.91 10.714 4.583 11.541 4.583C12.368 4.583 13.041 3.91 13.041 3.083C13.041 2.256 12.368 1.583 11.541 1.583ZM11.541 3.583C11.265 3.583 11.041 3.359 11.041 3.083C11.041 2.807 11.265 2.583 11.541 2.583C11.817 2.583 12.041 2.807 12.041 3.083C12.041 3.359 11.817 3.583 11.541 3.583Z" fill="black"/>
<path d="M14 20.5C14 20.776 13.776 21 13.5 21C13.224 21 13 20.776 13 20.5V18.5C13 18.224 13.224 18 13.5 18C13.776 18 14 18.224 14 18.5V20.5Z" fill="black"/>
<path d="M15.5 21C15.776 21 16 20.776 16 20.5V18.5C16 18.224 15.776 18 15.5 18C15.224 18 15 18.224 15 18.5V20.5C15 20.776 15.224 21 15.5 21Z" fill="black"/>
<path d="M17.5 21C17.776 21 18 20.776 18 20.5V18.5C18 18.224 17.776 18 17.5 18C17.224 18 17 18.224 17 18.5V20.5C17 20.776 17.224 21 17.5 21Z" fill="black"/>
<path fill-rule="evenodd" clip-rule="evenodd" d="M20 13H20.5C20.776 13 21 13.224 21 13.5V16.5C21 16.776 20.776 17 20.5 17H20V22.5C20 22.776 19.776 23 19.5 23H19V23.5C19 23.776 18.776 24 18.5 24C18.224 24 18 23.776 18 23.5V23H6V23.5C6 23.776 5.776 24 5.5 24C5.224 24 5 23.776 5 23.5V23H4.5C4.224 23 4 22.776 4 22.5V17H3.5C3.224 17 3 16.776 3 16.5V13.5C3 13.224 3.224 13 3.5 13H19V6H16V7.5C16 7.776 15.776 8 15.5 8H7.5C7.224 8 7 7.776 7 7.5V5.5C7 5.224 7.224 5 7.5 5H8V0.5C8 0.224 8.224 0 8.5 0H14.5C14.776 0 15 0.224 15 0.5V5H19.5C19.776 5 20 5.224 20 5.5V13ZM14 1H9V5H14V1ZM8 7H15V6H8V7ZM5 22H19V17H5V22ZM20 16V14H4V16H20Z" fill="black"/>
</svg>
