<svg width="24" height="24" viewBox="0 0 24 24" fill="none" xmlns="http://www.w3.org/2000/svg">
<path fill-rule="evenodd" clip-rule="evenodd" d="M3 24C4.04349 24 4.96254 23.4672 5.5 22.6589C6.03746 23.4672 6.95651 24 8 24C9.04349 24 9.96254 23.4672 10.5 22.6589C11.0375 23.4672 11.9565 24 13 24C14.0435 24 14.9625 23.4672 15.5 22.6589C16.0375 23.4672 16.9565 24 18 24C19.6569 24 21 22.6569 21 21V7.73206C21.3015 7.90609 21.6459 8 22 8C22.5304 8 23.0391 7.78929 23.4142 7.41421C23.7893 7.03914 24 6.53043 24 6C24 5.46957 23.7893 4.96086 23.4142 4.58579C23.0391 4.21071 22.5304 4 22 4C21.6459 4 21.3015 4.09391 21 4.26794V3C21 1.34315 19.6569 0 18 0C16.9565 0 16.0375 0.532756 15.5 1.34111C14.9625 0.532756 14.0435 0 13 0C11.9565 0 11.0375 0.532756 10.5 1.34111C9.96254 0.532756 9.04349 0 8 0C6.95651 0 6.03746 0.532755 5.5 1.3411C4.96254 0.532755 4.04349 0 3 0C1.34315 0 0 1.34315 0 3V21C0 22.6569 1.34315 24 3 24ZM3 1C1.89543 1 1 1.89543 1 3V21C1 22.1046 1.89543 23 3 23C4.10457 23 5 22.1046 5 21V3C5 1.89543 4.10457 1 3 1ZM20 3C20 1.89543 19.1046 1 18 1C16.8954 1 16 1.89543 16 3V21C16 22.1046 16.8954 23 18 23C19.1046 23 20 22.1046 20 21V3ZM21 6C21 6.26522 21.1054 6.51957 21.2929 6.70711C21.4804 6.89464 21.7348 7 22 7C22.2652 7 22.5196 6.89464 22.7071 6.70711C22.8946 6.51957 23 6.26522 23 6C23 5.73478 22.8946 5.48043 22.7071 5.29289C22.5196 5.10536 22.2652 5 22 5C21.7348 5 21.4804 5.10536 21.2929 5.29289C21.1054 5.48043 21 5.73478 21 6ZM15 3V21C15 22.1046 14.1046 23 13 23C11.8954 23 11 22.1046 11 21V3C11 1.89543 11.8954 1 13 1C14.1046 1 15 1.89543 15 3ZM10 3C10 1.89543 9.10457 1 8 1C6.89543 1 6 1.89543 6 3V21C6 22.1046 6.89543 23 8 23C9.10457 23 10 22.1046 10 21V3Z" fill="black"/>
</svg>
