<svg width="24" height="24" viewBox="0 0 24 24" fill="none" xmlns="http://www.w3.org/2000/svg">
<path fill-rule="evenodd" clip-rule="evenodd" d="M19 11H23.5C23.777 11 24 11.224 24 11.5V18.5C24 18.776 23.776 19 23.5 19H21V23.5C21 23.535 20.9964 23.5691 20.9896 23.602C20.9458 23.8129 20.7691 23.9753 20.5511 23.9974C20.5343 23.9991 20.5173 24 20.5 24H3.5C3.46554 24 3.43189 23.9965 3.39939 23.9899C3.2041 23.9499 3.05016 23.796 3.01016 23.6007C3.0035 23.5682 3 23.5345 3 23.5V19H0.5C0.224 19 0 18.776 0 18.5V11.5C0 11.224 0.224 11 0.5 11H6C6 10.085 6.512 9.397 7.441 9.065L10.501 8.13V7.168C9.659 6.445 9.106 5.286 9.106 3.974C9.106 1.783 10.628 0 12.5 0C14.372 0 15.895 1.783 15.895 3.974C15.895 5.286 15.341 6.444 14.5 7.168V8.13L17.537 9.058C18.488 9.397 19 10.085 19 11ZM4 23H20V19H4V23ZM10.756 4.184C10.53 4.184 10.321 4.155 10.117 4.111C10.176 5.686 11.218 6.947 12.501 6.948C13.756 6.948 14.778 5.737 14.876 4.208C14.8461 4.21005 14.8151 4.21395 14.7843 4.21784C14.7399 4.22343 14.6957 4.229 14.655 4.229C13.937 4.229 13.369 3.955 12.897 3.392C12.315 3.896 11.451 4.184 10.756 4.184ZM14.804 3.207C14.53 1.94 13.605 1 12.5 1C11.425 1 10.523 1.892 10.223 3.106C10.39 3.154 10.563 3.184 10.757 3.184C11.421 3.184 12.265 2.771 12.493 2.335C12.578 2.172 12.744 2.069 12.927 2.066C13.125 2.079 13.279 2.159 13.37 2.318C13.778 3.032 14.179 3.271 14.804 3.207ZM11.147 8.978L7.756 10.014C7.081 10.256 7 10.693 7 11H18C18 10.693 17.92 10.256 17.222 10.007L13.854 8.978C13.644 8.914 13.5 8.72 13.5 8.5V7.751C13.182 7.867 12.85 7.947 12.5 7.947C12.15 7.947 11.818 7.867 11.5 7.751V8.5C11.5 8.72 11.357 8.914 11.147 8.978ZM1 18H23V12H1V18Z" fill="black"/>
</svg>
