<svg width="24" height="24" viewBox="0 0 24 24" fill="none" xmlns="http://www.w3.org/2000/svg">
<g clip-path="url(#clip0_345_12982)">
<path fill-rule="evenodd" clip-rule="evenodd" d="M11.2641 0.0591635C11.4267 -0.027846 11.6239 -0.0183098 11.7774 0.0839756L14.7773 2.08398C14.9164 2.17671 15 2.33282 15 2.5C15 2.66718 14.9164 2.82329 14.7773 2.91603L11.7774 4.91603C11.6239 5.01831 11.4267 5.02785 11.2641 4.94084C11.1015 4.85383 11 4.6844 11 4.5V3H6.5C5.121 3 4 4.121 4 5.5V18.5C4 19.879 5.121 21 6.5 21C6.776 21 7 21.224 7 21.5C7 21.776 6.776 22 6.5 22C4.57 22 3 20.43 3 18.5V5.5C3 3.57 4.57 2 6.5 2H11V0.500001C11 0.315603 11.1015 0.146173 11.2641 0.0591635ZM12 3.56574L13.5986 2.5L12 1.43426V3.56574Z" fill="black"/>
<path fill-rule="evenodd" clip-rule="evenodd" d="M12.7359 19.0592C12.8985 19.1462 13 19.3156 13 19.5V21H17.5C18.878 21 20 19.879 20 18.5V5.5C20 4.121 18.878 3 17.5 3C17.223 3 17 2.776 17 2.5C17 2.224 17.223 2 17.5 2C19.429 2 21 3.57 21 5.5V18.5C21 20.43 19.43 22 17.5 22H13V23.5C13 23.6844 12.8985 23.8538 12.7359 23.9408C12.5733 24.0278 12.3761 24.0183 12.2226 23.916L9.22265 21.916C9.08355 21.8233 9 21.6672 9 21.5C9 21.3328 9.08355 21.1767 9.22265 21.084L12.2226 19.084C12.3761 18.9817 12.5733 18.9722 12.7359 19.0592ZM10.4014 21.5L12 22.5657V20.4343L10.4014 21.5Z" fill="black"/>
<path d="M12.8536 10.8536C13.0488 10.6583 13.0488 10.3417 12.8536 10.1464C12.6583 9.95118 12.3417 9.95118 12.1465 10.1464L10.1465 12.1464C10.0035 12.2894 9.96068 12.5045 10.0381 12.6913C10.1155 12.8782 10.2978 13 10.5 13H12.2929L11.1465 14.1464C10.9512 14.3417 10.9512 14.6583 11.1465 14.8536C11.3417 15.0488 11.6583 15.0488 11.8536 14.8536L13.8536 12.8536C13.9966 12.7106 14.0393 12.4955 13.962 12.3087C13.8846 12.1218 13.7022 12 13.5 12H11.7071L12.8536 10.8536Z" fill="black"/>
<path fill-rule="evenodd" clip-rule="evenodd" d="M15.5 18C15.776 18 16 17.776 16 17.5V8.5C16 8.224 15.776 8 15.5 8H14V6.5C14 6.224 13.776 6 13.5 6H10.5C10.223 6 10 6.224 10 6.5V8H8.5C8.223 8 8 8.224 8 8.5V17.5C8 17.776 8.223 18 8.5 18H15.5ZM15 17H9V9H10.5C10.776 9 11 8.776 11 8.5V7H13V8.5C13 8.776 13.223 9 13.5 9H15V17Z" fill="black"/>
</g>
<defs>
<clipPath id="clip0_345_12982">
<rect width="24" height="24" fill="white"/>
</clipPath>
</defs>
</svg>
