<svg width="24" height="24" viewBox="0 0 24 24" fill="none" xmlns="http://www.w3.org/2000/svg">
<path d="M7 3H6V6H7V3Z" fill="black"/>
<path d="M6 10H7V16H6V10Z" fill="black"/>
<path fill-rule="evenodd" clip-rule="evenodd" d="M18.5 0H5.5C4.121 0 3 1.121 3 2.5V20.5C3 21.879 4.121 23 5.5 23H6V24H7V23H17V24H18V23H18.5C19.879 23 21 21.879 21 20.5V2.5C21 1.121 19.879 0 18.5 0ZM5.5 1H18.5C19.327 1 20 1.673 20 2.5V8H4V2.5C4 1.673 4.673 1 5.5 1ZM18.5 22H5.5C4.673 22 4 21.327 4 20.5V9H20V20.5C20 21.327 19.327 22 18.5 22Z" fill="black"/>
</svg>
