<svg width="24" height="24" viewBox="0 0 24 24" fill="none" xmlns="http://www.w3.org/2000/svg">
<path fill-rule="evenodd" clip-rule="evenodd" d="M23.7427 4.36902C23.9023 4.45759 24.0009 4.62606 24 4.80854L23.9692 11.3277C23.9684 11.4986 23.8803 11.6573 23.7356 11.7484C23.5909 11.8395 23.4098 11.8504 23.2553 11.7772L17.3628 8.98824C17.1978 8.91017 17.0885 8.74843 17.0776 8.56627C17.0666 8.38411 17.1558 8.21046 17.3102 8.11321L19.8377 6.5216C18.854 5.12806 17.5112 4.02234 15.948 3.3247C14.2322 2.55898 12.3278 2.31925 10.4758 2.63582C8.62371 2.9524 6.90712 3.81107 5.54307 5.10325C4.17902 6.39542 3.22877 8.06307 2.8125 9.8953C2.39623 11.7275 2.53262 13.642 3.20444 15.3968C3.87625 17.1515 5.05331 18.6676 6.58677 19.7533C8.12023 20.8391 9.94121 21.4457 11.8194 21.4965C13.6977 21.5474 15.5488 21.0401 17.1387 20.0388C17.3724 19.8917 17.6811 19.9618 17.8283 20.1955C17.9754 20.4292 17.9053 20.7379 17.6716 20.885C15.9143 21.9917 13.8683 22.5523 11.7924 22.4962C9.71645 22.44 7.70379 21.7695 6.00891 20.5695C4.31404 19.3694 3.01307 17.6937 2.27054 15.7543C1.52801 13.8149 1.37726 11.6988 1.83735 9.67375C2.29744 7.64865 3.34771 5.80546 4.85534 4.37727C6.36298 2.94908 8.26026 2.00002 10.3073 1.65012C12.3543 1.30022 14.4591 1.56518 16.3555 2.41151C18.0994 3.18977 19.5951 4.42751 20.6849 5.98805L23.2336 4.38308C23.388 4.28584 23.5831 4.28045 23.7427 4.36902ZM20.8061 7.09351L20.8048 7.09434L20.8035 7.09517L18.6139 8.47404L22.9729 10.5372L22.9957 5.71464L20.8061 7.09351Z" fill="black"/>
</svg>
