<svg width="24" height="24" viewBox="0 0 24 24" fill="none" xmlns="http://www.w3.org/2000/svg">
<path d="M2 0H22C23.103 0 24 0.897 24 2V15C24 16.103 23.103 17 22 17H20.5C20.224 17 20 16.776 20 16.5C20 16.224 20.224 16 20.5 16H22C22.551 16 23 15.552 23 15V2C23 1.448 22.551 1 22 1H2C1.449 1 1 1.448 1 2V15C1 15.552 1.449 16 2 16H8.5C8.776 16 9 16.224 9 16.5C9 16.776 8.776 17 8.5 17H2C0.897 17 0 16.103 0 15V2C0 0.897 0.897 0 2 0Z" fill="black"/>
<path d="M14 15.5C14 15.7761 13.7761 16 13.5 16C13.2239 16 13 15.7761 13 15.5C13 15.2239 13.2239 15 13.5 15C13.7761 15 14 15.2239 14 15.5Z" fill="black"/>
<path d="M15.5 16C15.7761 16 16 15.7761 16 15.5C16 15.2239 15.7761 15 15.5 15C15.2239 15 15 15.2239 15 15.5C15 15.7761 15.2239 16 15.5 16Z" fill="black"/>
<path d="M14 17.5C14 17.7761 13.7761 18 13.5 18C13.2239 18 13 17.7761 13 17.5C13 17.2239 13.2239 17 13.5 17C13.7761 17 14 17.2239 14 17.5Z" fill="black"/>
<path d="M15.5 18C15.7761 18 16 17.7761 16 17.5C16 17.2239 15.7761 17 15.5 17C15.2239 17 15 17.2239 15 17.5C15 17.7761 15.2239 18 15.5 18Z" fill="black"/>
<path d="M14 19.5C14 19.7761 13.7761 20 13.5 20C13.2239 20 13 19.7761 13 19.5C13 19.2239 13.2239 19 13.5 19C13.7761 19 14 19.2239 14 19.5Z" fill="black"/>
<path d="M15.5 20C15.7761 20 16 19.7761 16 19.5C16 19.2239 15.7761 19 15.5 19C15.2239 19 15 19.2239 15 19.5C15 19.7761 15.2239 20 15.5 20Z" fill="black"/>
<path fill-rule="evenodd" clip-rule="evenodd" d="M17.5 13H11.5C11.224 13 11 13.224 11 13.5V23.5C11 23.776 11.224 24 11.5 24H17.5C17.776 24 18 23.776 18 23.5V13.5C18 13.224 17.776 13 17.5 13ZM17 23H12V14H17V23Z" fill="black"/>
<path d="M11.101 7.38598C13.305 6.15998 16.007 6.21898 18.154 7.53698C18.39 7.68198 18.463 7.98898 18.318 8.22498C18.223 8.37798 18.059 8.46298 17.891 8.46298C17.802 8.46298 17.712 8.43999 17.63 8.38898C15.79 7.25998 13.475 7.20898 11.587 8.25898C11.345 8.39398 11.041 8.30598 10.907 8.06598C10.773 7.82398 10.86 7.51998 11.101 7.38598Z" fill="black"/>
<path d="M16.849 10.1661C17.017 10.1661 17.182 10.0811 17.276 9.92811C17.421 9.69311 17.346 9.38411 17.111 9.24011C15.577 8.29911 13.647 8.25611 12.073 9.13111C11.831 9.26611 11.744 9.57011 11.879 9.81211C12.013 10.0521 12.318 10.1391 12.559 10.0061C13.818 9.30611 15.362 9.34011 16.589 10.0921C16.67 10.1431 16.76 10.1661 16.849 10.1661Z" fill="black"/>
<path d="M12.854 11.567C12.719 11.325 12.807 11.021 13.048 10.887C13.994 10.363 15.149 10.387 16.064 10.948C16.3 11.093 16.374 11.401 16.229 11.636C16.134 11.789 15.97 11.874 15.802 11.874C15.713 11.874 15.623 11.851 15.541 11.8C14.933 11.426 14.163 11.41 13.534 11.762C13.292 11.895 12.988 11.809 12.854 11.567Z" fill="black"/>
</svg>
