<svg width="24" height="24" viewBox="0 0 24 24" fill="none" xmlns="http://www.w3.org/2000/svg">
<path d="M11.5 6.5V13.5C11.5 13.7761 11.7239 14 12 14C12.2761 14 12.5 13.7761 12.5 13.5V6.5C12.5 6.22386 12.2761 6 12 6C11.7239 6 11.5 6.22386 11.5 6.5Z" fill="black"/>
<path d="M12 18C12.5523 18 13 17.5523 13 17C13 16.4477 12.5523 16 12 16C11.4477 16 11 16.4477 11 17C11 17.5523 11.4477 18 12 18Z" fill="black"/>
<path fill-rule="evenodd" clip-rule="evenodd" d="M12.3536 0.146447C12.1583 -0.0488155 11.8417 -0.0488155 11.6464 0.146447L0.146447 11.6464C-0.0488155 11.8417 -0.0488155 12.1583 0.146447 12.3536L11.6464 23.8536C11.8417 24.0488 12.1583 24.0488 12.3536 23.8536L23.8536 12.3536C24.0488 12.1583 24.0488 11.8417 23.8536 11.6464L12.3536 0.146447ZM12 22.7929L1.20711 12L12 1.20711L22.7929 12L12 22.7929Z" fill="black"/>
</svg>
