<svg width="24" height="24" viewBox="0 0 24 24" fill="none" xmlns="http://www.w3.org/2000/svg">
<path fill-rule="evenodd" clip-rule="evenodd" d="M0.33374 4.36902C0.174185 4.45759 0.0755583 4.62606 0.0764216 4.80854L0.107281 11.3277C0.10809 11.4986 0.196181 11.6573 0.340837 11.7484C0.485494 11.8395 0.666666 11.8504 0.821182 11.7772L6.71368 8.98824C6.87862 8.91017 6.98794 8.74843 6.99887 8.56627C7.00981 8.38411 6.92063 8.21046 6.76621 8.11321L4.23877 6.5216C5.2224 5.12806 6.56519 4.02234 8.12845 3.3247C9.84427 2.55898 11.7486 2.31925 13.6007 2.63582C15.4527 2.9524 17.1693 3.81107 18.5334 5.10325C19.8974 6.39542 20.8477 8.06307 21.2639 9.8953C21.6802 11.7275 21.5438 13.642 20.872 15.3968C20.2002 17.1515 19.0231 18.6676 17.4897 19.7533C15.9562 20.8391 14.1352 21.4457 12.257 21.4965C10.3788 21.5474 8.52763 21.0401 6.9377 20.0388C6.70403 19.8917 6.39531 19.9618 6.24817 20.1955C6.10102 20.4292 6.17115 20.7379 6.40482 20.885C8.16212 21.9917 10.2081 22.5523 12.284 22.4962C14.36 22.44 16.3727 21.7695 18.0675 20.5695C19.7624 19.3694 21.0634 17.6937 21.8059 15.7543C22.5484 13.8149 22.6992 11.6988 22.2391 9.67375C21.779 7.64865 20.7287 5.80546 19.2211 4.37727C17.7135 2.94908 15.8162 2.00002 13.7692 1.65012C11.7221 1.30022 9.61735 1.56518 7.72092 2.41151C5.97701 3.18977 4.48133 4.42751 3.39151 5.98805L0.842853 4.38308C0.688431 4.28584 0.493295 4.28045 0.33374 4.36902ZM3.27033 7.09351L3.27165 7.09434L3.27298 7.09517L5.46259 8.47404L1.10355 10.5372L1.08072 5.71464L3.27033 7.09351Z" fill="black"/>
</svg>
