<svg width="24" height="24" viewBox="0 0 24 24" fill="none" xmlns="http://www.w3.org/2000/svg">
<path fill-rule="evenodd" clip-rule="evenodd" d="M10.684 16.887C10.774 16.962 10.887 17 11 17C11.073 17 11.146 16.984 11.214 16.952C11.389 16.869 11.5 16.693 11.5 16.5V14.435L15.223 16.916C15.376 17.017 15.574 17.028 15.736 16.94C15.898 16.854 16 16.685 16 16.5V7.49997C16 7.31497 15.898 7.14597 15.736 7.05997C15.574 6.97197 15.376 6.98097 15.223 7.08397L11.5 9.56497V7.49997C11.5 7.30697 11.389 7.13097 11.215 7.04797C11.039 6.96497 10.832 6.98897 10.684 7.11297L5.184 11.613C5.067 11.708 5 11.85 5 12C5 12.15 5.067 12.292 5.184 12.387L10.684 16.887ZM11.277 13.084C11.194 13.028 11.097 13 11 13C10.919 13 10.838 13.02 10.764 13.06C10.602 13.146 10.5 13.315 10.5 13.5V15.445L6.29 12L10.5 8.55497V10.5C10.5 10.684 10.601 10.853 10.764 10.94C10.925 11.029 11.124 11.018 11.277 10.916L15 8.43497V15.565L11.277 13.084Z" fill="black"/>
<path fill-rule="evenodd" clip-rule="evenodd" d="M0 12C0 18.617 5.383 24 12 24C18.617 24 24 18.617 24 12C24 5.383 18.617 0 12 0C5.383 0 0 5.383 0 12ZM1 12C1 5.935 5.935 1 12 1C18.065 1 23 5.935 23 12C23 18.065 18.065 23 12 23C5.935 23 1 18.065 1 12Z" fill="black"/>
</svg>
