<svg width="24" height="24" viewBox="0 0 24 24" fill="none" xmlns="http://www.w3.org/2000/svg">
<path d="M10.4 5.75C10.4 6.026 10.176 6.25 9.9 6.25C9.624 6.25 9.4 6.026 9.4 5.75C9.4 4.208 11.201 3 13.5 3C13.776 3 14 3.224 14 3.5C14 3.776 13.776 4 13.5 4C11.82 4 10.4 4.802 10.4 5.75Z" fill="black"/>
<path d="M8.034 12.394C8.034 12.67 7.81 12.894 7.534 12.894C7.258 12.894 7.034 12.67 7.034 12.394C7.034 11.402 7.907 10.54 9.37 10.091C9.635 10.006 9.914 10.157 9.995 10.422C10.076 10.686 9.928 10.965 9.664 11.046C8.674 11.351 8.034 11.88 8.034 12.394Z" fill="black"/>
<path d="M3.23 18.865C3.23 17.63 4.476 16.545 6.482 16.033C6.749 15.964 7.022 16.127 7.09 16.394C7.158 16.661 6.997 16.934 6.729 17.002C5.234 17.384 4.23 18.133 4.23 18.865C4.23 19.141 4.006 19.365 3.73 19.365C3.454 19.365 3.23 19.141 3.23 18.865Z" fill="black"/>
<path fill-rule="evenodd" clip-rule="evenodd" d="M19.258 15.766C20.948 14.902 22 13.659 22 12.25C22 10.695 20.74 9.308 18.582 8.426C19.471 7.699 20 6.773 20 5.75C20 3.367 17.145 1.5 13.5 1.5C9.855 1.5 7 3.367 7 5.75C7 6.773 7.529 7.699 8.417 8.425C6.26 9.307 5 10.695 5 12.25C5 12.977 5.286 13.657 5.787 14.268C2.822 15.205 1 16.877 1 18.75C1 21.694 5.393 24 11 24C16.607 24 21 21.694 21 18.75C21 17.665 20.383 16.63 19.258 15.766ZM8 5.75C8 3.988 10.519 2.5 13.5 2.5C16.481 2.5 19 3.988 19 5.75C19 7.512 16.481 9 13.5 9C10.519 9 8 7.512 8 5.75ZM9.477 9.106C10.577 9.666 11.966 10 13.5 10C15.033 10 16.423 9.666 17.523 9.106C19.669 9.807 21 10.999 21 12.25C21 14.282 17.565 16 13.5 16C9.435 16 6 14.282 6 12.25C6 10.999 7.331 9.807 9.477 9.106ZM11 23C6.122 23 2 21.054 2 18.75C2 17.254 3.808 15.82 6.614 15.06C8.146 16.241 10.632 17 13.5 17C15.245 17 16.849 16.718 18.185 16.232C19.354 16.973 20 17.858 20 18.75C20 21.054 15.878 23 11 23Z" fill="black"/>
</svg>
