<svg width="24" height="24" viewBox="0 0 24 24" fill="none" xmlns="http://www.w3.org/2000/svg">
<g clip-path="url(#clip0_368_13021)">
<path d="M8.21965 6.96383C8.47565 6.86083 8.59965 6.56983 8.49665 6.31383C8.05106 5.20684 8.26027 4.43024 8.50299 3.52928L8.50365 3.52683C8.74665 2.62983 9.01965 1.61283 8.49665 0.312834C8.39265 0.0568336 8.10065 -0.0661664 7.84565 0.0358336C7.58965 0.139834 7.46565 0.430834 7.56865 0.686834C7.96635 1.67607 7.76796 2.4127 7.53818 3.26587L7.53718 3.26958C7.2843 4.20815 6.99801 5.27071 7.56865 6.68683C7.64765 6.88183 7.83465 6.99983 8.03265 6.99983C8.09465 6.99983 8.15765 6.98883 8.21965 6.96383Z" fill="black"/>
<path d="M12.4967 6.31383C12.5997 6.56983 12.4757 6.86083 12.2197 6.96383C12.1577 6.98883 12.0947 6.99983 12.0327 6.99983C11.8347 6.99983 11.6477 6.88183 11.5687 6.68683C10.998 5.27071 11.2843 4.20815 11.5372 3.26957L11.5382 3.26587C11.768 2.4127 11.9663 1.67607 11.5687 0.686834C11.4657 0.430834 11.5897 0.139834 11.8457 0.0358336C12.1007 -0.0661664 12.3927 0.0568336 12.4967 0.312834C13.0197 1.61283 12.7467 2.62983 12.5037 3.52683L12.503 3.52929C12.2603 4.43025 12.0511 5.20684 12.4967 6.31383Z" fill="black"/>
<path d="M16.4967 6.31383C16.5997 6.56983 16.4757 6.86083 16.2197 6.96383C16.1577 6.98883 16.0947 6.99983 16.0327 6.99983C15.8347 6.99983 15.6477 6.88183 15.5687 6.68683C14.998 5.27071 15.2843 4.20815 15.5372 3.26958L15.5377 3.26783L15.5382 3.26587C15.768 2.4127 15.9663 1.67607 15.5687 0.686834C15.4657 0.430834 15.5897 0.139834 15.8457 0.0358336C16.1017 -0.0661664 16.3927 0.0568336 16.4967 0.312834C17.0197 1.61283 16.7467 2.62983 16.5037 3.52683L16.503 3.52929C16.2603 4.43024 16.0511 5.20684 16.4967 6.31383Z" fill="black"/>
<path d="M13.5 15C13.7761 15 14 15.2239 14 15.5V19.5C14 19.7761 13.7761 20 13.5 20C13.2239 20 13 19.7761 13 19.5V15.5C13 15.2239 13.2239 15 13.5 15Z" fill="black"/>
<path d="M17 15.5C17 15.2239 16.7761 15 16.5 15C16.2239 15 16 15.2239 16 15.5V19.5C16 19.7761 16.2239 20 16.5 20C16.7761 20 17 19.7761 17 19.5V15.5Z" fill="black"/>
<path d="M10.5 15C10.7761 15 11 15.2239 11 15.5V19.5C11 19.7761 10.7761 20 10.5 20C10.2239 20 10 19.7761 10 19.5V15.5C10 15.2239 10.2239 15 10.5 15Z" fill="black"/>
<path d="M8 15.5C8 15.2239 7.77614 15 7.5 15C7.22386 15 7 15.2239 7 15.5V19.5C7 19.7761 7.22386 20 7.5 20C7.77614 20 8 19.7761 8 19.5V15.5Z" fill="black"/>
<path fill-rule="evenodd" clip-rule="evenodd" d="M6.66436 10.5186C5.33093 10.667 4.26135 11.6894 4.04148 13H3.5C3.22386 13 3 13.2239 3 13.5V21.5C3 21.7761 3.22386 22 3.5 22H6V23.5C6 23.7761 6.22386 24 6.5 24H17.5C17.7761 24 18 23.7761 18 23.5V22H20.5C20.7761 22 21 21.7761 21 21.5V13.5C21 13.2239 20.7761 13 20.5 13H19.9585C19.7387 11.6894 18.6691 10.667 17.3356 10.5186C16.929 9.34372 15.8135 8.5 14.5 8.5C13.4562 8.5 12.5373 9.03286 12 9.84131C11.4627 9.03286 10.5438 8.5 9.5 8.5C8.1865 8.5 7.07099 9.34372 6.66436 10.5186ZM17 22V23H7V22H17ZM20 21V14H4V21H20ZM7.71994 10.587C8.45908 10.769 9.09037 11.225 9.5 11.8411C9.90963 11.225 10.5409 10.769 11.2801 10.587C10.9483 9.94151 10.2753 9.5 9.5 9.5C8.72467 9.5 8.05174 9.94151 7.71994 10.587ZM12.7199 10.587C13.4591 10.769 14.0904 11.225 14.5 11.8411C14.9096 11.225 15.5409 10.769 16.2801 10.587C15.9483 9.94151 15.2753 9.5 14.5 9.5C13.7247 9.5 13.0517 9.94151 12.7199 10.587ZM13.937 13C13.7181 12.1498 12.9542 11.5183 12.0401 11.5004C12.0268 11.5001 12.0134 11.5 12 11.5C11.9866 11.5 11.9732 11.5001 11.9599 11.5004C11.0458 11.5183 10.2819 12.1498 10.063 13H13.937ZM8.93699 13C8.71814 12.1498 7.95424 11.5183 7.04012 11.5004C7.02679 11.5001 7.01341 11.5 7 11.5C6.06808 11.5 5.28503 12.1374 5.06301 13H8.93699ZM18.937 13C18.715 12.1374 17.9319 11.5 17 11.5C16.9866 11.5 16.9732 11.5001 16.9599 11.5004C16.0458 11.5183 15.2819 12.1498 15.063 13H18.937Z" fill="black"/>
</g>
<defs>
<clipPath id="clip0_368_13021">
<rect width="24" height="24" fill="white"/>
</clipPath>
</defs>
</svg>
