<svg width="24" height="24" viewBox="0 0 24 24" fill="none" xmlns="http://www.w3.org/2000/svg">
<g clip-path="url(#clip0_345_12925)">
<path d="M17.001 16.156C17.021 16.437 17.243 16.761 17.662 17.12C17.871 17.3 17.896 17.615 17.717 17.825C17.618 17.94 17.477 18 17.337 18C17.222 18 17.106 17.96 17.012 17.88C16.374 17.334 16.044 16.793 16.004 16.227C15.9461 15.4138 16.5019 14.7833 16.9926 14.2267L16.994 14.225L16.9963 14.2224C17.3965 13.7674 17.773 13.3392 17.744 12.933C17.723 12.637 17.491 12.298 17.053 11.923C16.843 11.743 16.819 11.428 16.998 11.218C17.177 11.008 17.494 10.986 17.703 11.163C18.361 11.726 18.701 12.282 18.742 12.862C18.8 13.6871 18.2402 14.3227 17.7456 14.8842L17.7408 14.8897C17.346 15.3373 16.9731 15.7601 17.001 16.156Z" fill="black"/>
<path d="M14.662 17.12C14.243 16.761 14.021 16.437 14.001 16.156C13.9731 15.7601 14.346 15.3373 14.7407 14.8897L14.7456 14.8842C15.2402 14.3227 15.8 13.6871 15.742 12.862C15.701 12.282 15.361 11.726 14.703 11.163C14.493 10.986 14.178 11.008 13.998 11.218C13.819 11.428 13.843 11.743 14.053 11.923C14.491 12.298 14.723 12.637 14.744 12.933C14.773 13.3392 14.3965 13.7674 13.9963 14.2224L13.994 14.225L13.9926 14.2267C13.5019 14.7833 12.9461 15.4138 13.004 16.227C13.044 16.793 13.374 17.334 14.012 17.88C14.106 17.96 14.222 18 14.337 18C14.477 18 14.618 17.94 14.717 17.825C14.896 17.615 14.871 17.3 14.662 17.12Z" fill="black"/>
<path fill-rule="evenodd" clip-rule="evenodd" d="M23.202 12.902C23.354 13.014 23.556 13.031 23.725 12.946C23.894 12.861 24 12.688 24 12.5V9.00001C24 8.84101 23.925 8.69201 23.797 8.59801L12.297 0.0980059C12.12 -0.0329941 11.879 -0.0329941 11.702 0.0980059L0.202 8.59801C0.075 8.69201 0 8.84101 0 9.00001V12.5C0 12.688 0.106 12.861 0.274 12.946C0.346 12.982 0.423 13 0.5 13C0.605 13 0.709 12.967 0.797 12.902L2 12.016V23H0.5C0.224 23 0 23.224 0 23.5C0 23.776 0.224 24 0.5 24H23.5C23.776 24 24 23.776 24 23.5C24 23.224 23.776 23 23.5 23H22V12.011L23.202 12.902ZM1 9.25201L12 1.12201L23 9.25201V11.507L12.328 3.59801C12.151 3.46701 11.91 3.46701 11.733 3.59801L1 11.511V9.25201ZM3 23V22H12.484C12.76 22 12.984 21.776 12.984 21.5C12.984 21.224 12.76 21 12.484 21H3V20H12.484C12.76 20 12.984 19.776 12.984 19.5C12.984 19.224 12.76 19 12.484 19H3V18H6.5C6.776 18 7 17.776 7 17.5C7 17.224 6.776 17 6.5 17H3V16H6.5C6.776 16 7 15.776 7 15.5C7 15.224 6.776 15 6.5 15H3V14H6.5C6.776 14 7 13.776 7 13.5C7 13.224 6.776 13 6.5 13H3V11.278L12.029 4.62101L21 11.27V23H3Z" fill="black"/>
</g>
<defs>
<clipPath id="clip0_345_12925">
<rect width="24" height="24" fill="white"/>
</clipPath>
</defs>
</svg>
