<svg width="24" height="24" viewBox="0 0 24 24" fill="none" xmlns="http://www.w3.org/2000/svg">
<path d="M19 7H9C8.724 7 8.5 6.776 8.5 6.5C8.5 6.224 8.724 6 9 6H19C19.276 6 19.5 6.224 19.5 6.5C19.5 6.776 19.276 7 19 7Z" fill="black"/>
<path d="M9 5H19C19.276 5 19.5 4.776 19.5 4.5C19.5 4.224 19.276 4 19 4H9C8.724 4 8.5 4.224 8.5 4.5C8.5 4.776 8.724 5 9 5Z" fill="black"/>
<path fill-rule="evenodd" clip-rule="evenodd" d="M6.5 5C6.5 5.827 5.827 6.5 5 6.5C4.173 6.5 3.5 5.827 3.5 5C3.5 4.173 4.173 3.5 5 3.5C5.827 3.5 6.5 4.173 6.5 5ZM5.5 5C5.5 4.725 5.275 4.5 5 4.5C4.725 4.5 4.5 4.725 4.5 5C4.5 5.275 4.725 5.5 5 5.5C5.275 5.5 5.5 5.275 5.5 5Z" fill="black"/>
<path d="M9 14H19C19.276 14 19.5 13.776 19.5 13.5C19.5 13.224 19.276 13 19 13H9C8.724 13 8.5 13.224 8.5 13.5C8.5 13.776 8.724 14 9 14Z" fill="black"/>
<path d="M19 12H9C8.724 12 8.5 11.776 8.5 11.5C8.5 11.224 8.724 11 9 11H19C19.276 11 19.5 11.224 19.5 11.5C19.5 11.776 19.276 12 19 12Z" fill="black"/>
<path fill-rule="evenodd" clip-rule="evenodd" d="M5 13.5C5.827 13.5 6.5 12.827 6.5 12C6.5 11.173 5.827 10.5 5 10.5C4.173 10.5 3.5 11.173 3.5 12C3.5 12.827 4.173 13.5 5 13.5ZM5 11.5C5.275 11.5 5.5 11.725 5.5 12C5.5 12.275 5.275 12.5 5 12.5C4.725 12.5 4.5 12.275 4.5 12C4.5 11.725 4.725 11.5 5 11.5Z" fill="black"/>
<path d="M9 20H19C19.276 20 19.5 20.224 19.5 20.5C19.5 20.776 19.276 21 19 21H9C8.724 21 8.5 20.776 8.5 20.5C8.5 20.224 8.724 20 9 20Z" fill="black"/>
<path d="M19 18H9C8.724 18 8.5 18.224 8.5 18.5C8.5 18.776 8.724 19 9 19H19C19.276 19 19.5 18.776 19.5 18.5C19.5 18.224 19.276 18 19 18Z" fill="black"/>
<path fill-rule="evenodd" clip-rule="evenodd" d="M3.5 19C3.5 18.173 4.173 17.5 5 17.5C5.827 17.5 6.5 18.173 6.5 19C6.5 19.827 5.827 20.5 5 20.5C4.173 20.5 3.5 19.827 3.5 19ZM4.5 19C4.5 19.275 4.725 19.5 5 19.5C5.275 19.5 5.5 19.275 5.5 19C5.5 18.725 5.275 18.5 5 18.5C4.725 18.5 4.5 18.725 4.5 19Z" fill="black"/>
<path fill-rule="evenodd" clip-rule="evenodd" d="M21.5 1C22.327 1 23 1.673 23 2.5V7.5C23 7.886 22.85 8.234 22.61 8.5C22.85 8.766 23 9.114 23 9.5V14.5C23 14.886 22.849 15.234 22.61 15.5C22.85 15.766 23 16.114 23 16.5V21.5C23 22.327 22.327 23 21.5 23H2.5C1.673 23 1 22.327 1 21.5V16.5C1 16.114 1.15 15.766 1.391 15.5C1.15 15.234 1 14.886 1 14.5V9.5C1 9.114 1.15 8.766 1.391 8.5C1.15 8.234 1 7.886 1 7.5V2.5C1 1.673 1.673 1 2.5 1H21.5ZM2.5 2C2.225 2 2 2.225 2 2.5V7.5C2 7.775 2.225 8 2.5 8H21.5C21.775 8 22 7.775 22 7.5V2.5C22 2.225 21.775 2 21.5 2H2.5ZM21.5 15C21.775 15 22 14.775 22 14.5V9.5C22 9.225 21.775 9 21.5 9H2.5C2.225 9 2 9.225 2 9.5V14.5C2 14.775 2.225 15 2.5 15H21.5ZM21.5 22C21.775 22 22 21.775 22 21.5V16.5C22 16.225 21.775 16 21.5 16H2.5C2.225 16 2 16.225 2 16.5V21.5C2 21.775 2.225 22 2.5 22H21.5Z" fill="black"/>
</svg>
