<svg width="24" height="24" viewBox="0 0 24 24" fill="none" xmlns="http://www.w3.org/2000/svg">
<path fill-rule="evenodd" clip-rule="evenodd" d="M10.5 12.5C10.5 12.776 10.276 13 10 13C5.985 13 2.603 11.984 1 10.482V13C1 14.655 4.696 16.5 10 16.5C10.276 16.5 10.5 16.724 10.5 17C10.5 17.276 10.276 17.5 10 17.5C5.985 17.5 2.603 16.484 1 14.982V17.5C1 19.155 4.696 21 10 21C10.276 21 10.5 21.224 10.5 21.5C10.5 21.776 10.276 22 10 22C4.393 22 0 20.023 0 17.5V4.5C0 1.977 4.393 0 10 0C15.607 0 20 1.977 20 4.5V9.5C20 9.776 19.776 10 19.5 10C19.224 10 19 9.776 19 9.5V6.482C17.397 7.984 14.016 9 10 9C5.985 9 2.603 7.984 1 6.482V8.5C1 10.155 4.696 12 10 12C10.276 12 10.5 12.224 10.5 12.5ZM19 4.5C19 2.845 15.304 1 10 1C4.696 1 1 2.845 1 4.5C1 6.155 4.696 8 10 8C15.304 8 19 6.155 19 4.5Z" fill="black"/>
<path fill-rule="evenodd" clip-rule="evenodd" d="M17.5 15C16.121 15 15 16.121 15 17.5C15 18.879 16.121 20 17.5 20C18.879 20 20 18.879 20 17.5C20 16.121 18.879 15 17.5 15ZM17.5 19C16.673 19 16 18.327 16 17.5C16 16.673 16.673 16 17.5 16C18.327 16 19 16.673 19 17.5C19 18.327 18.327 19 17.5 19Z" fill="black"/>
<path fill-rule="evenodd" clip-rule="evenodd" d="M23.695 18.768L22.932 18.329C23.022 17.767 23.022 17.236 22.932 16.674L23.697 16.233C23.932 16.097 24.02 15.795 23.88 15.55L22.38 12.952C22.242 12.712 21.936 12.631 21.697 12.769L20.922 13.216C20.495 12.876 20.02 12.604 19.5 12.401V11.501C19.5 11.225 19.276 11.001 19 11.001H16C15.724 11.001 15.5 11.225 15.5 11.501V12.401C14.98 12.604 14.505 12.877 14.078 13.216L13.303 12.769C13.065 12.631 12.758 12.712 12.62 12.952L11.12 15.55C10.979 15.794 11.067 16.097 11.303 16.233L12.068 16.674C11.978 17.236 11.978 17.768 12.068 18.329L11.305 18.768C11.068 18.906 10.982 19.208 11.122 19.452L12.622 22.05C12.759 22.289 13.064 22.368 13.305 22.234L14.078 21.788C14.505 22.128 14.981 22.4 15.5 22.602V23.5C15.5 23.776 15.724 24 16 24H19C19.276 24 19.5 23.776 19.5 23.5V22.601C20.019 22.399 20.495 22.126 20.922 21.787L21.695 22.233C21.935 22.37 22.241 22.29 22.378 22.049L23.878 19.451C24.019 19.208 23.933 18.905 23.695 18.768ZM21.887 18.476C21.84 18.689 21.937 18.909 22.125 19.018L22.762 19.385L21.762 21.116L21.116 20.743C20.928 20.635 20.689 20.661 20.528 20.807C20.051 21.244 19.486 21.568 18.848 21.77C18.641 21.835 18.499 22.029 18.499 22.247V23H16.499V22.247C16.499 22.029 16.357 21.836 16.15 21.77C15.512 21.568 14.947 21.244 14.47 20.807C14.309 20.661 14.071 20.634 13.882 20.743L13.236 21.116L12.236 19.385L12.873 19.018C13.061 18.909 13.158 18.689 13.111 18.476C12.96 17.793 12.96 17.21 13.111 16.527C13.158 16.314 13.062 16.094 12.873 15.986L12.233 15.617L13.233 13.885L13.881 14.259C14.069 14.367 14.308 14.342 14.469 14.196C14.946 13.759 15.51 13.435 16.149 13.232C16.357 13.166 16.498 12.973 16.498 12.755V12H18.498V12.754C18.498 12.972 18.639 13.164 18.847 13.231C19.486 13.434 20.05 13.758 20.527 14.195C20.688 14.341 20.926 14.367 21.115 14.258L21.763 13.884L22.763 15.616L22.123 15.985C21.934 16.093 21.838 16.313 21.885 16.526C22.038 17.21 22.038 17.793 21.887 18.476Z" fill="black"/>
</svg>
