<svg width="24" height="24" viewBox="0 0 24 24" fill="none" xmlns="http://www.w3.org/2000/svg">
<path d="M22 5.5C22 2.977 17.607 1 12 1C6.40002 1 2.01402 2.971 2.00102 5.489C2.00102 5.493 1.99902 5.496 1.99902 5.5V18.5C1.99902 21.023 6.39202 23 11.999 23C17.606 23 21.999 21.023 21.999 18.5V5.509C21.999 5.506 22 5.503 22 5.5ZM20.999 14C20.999 15.655 17.303 17.5 11.999 17.5C6.69502 17.5 2.99902 15.655 2.99902 14V11.482C4.60202 12.984 7.98402 14 11.999 14C16.015 14 19.396 12.984 20.999 11.482V14ZM20.999 9.5C20.999 11.155 17.303 13 11.999 13C6.69502 13 2.99902 11.155 2.99902 9.5V7.48C4.60202 8.983 7.98402 10 12 10C16.015 10 19.396 8.984 20.999 7.482V9.5ZM20.999 5.507C20.988 7.16 17.296 9 12 9C6.69602 9 3.00002 7.155 3.00002 5.5C3.00002 3.845 6.69602 2 12 2C17.301 2 20.995 3.853 20.999 5.507ZM11.999 22C6.69502 22 2.99902 20.155 2.99902 18.5V15.982C4.60202 17.484 7.98402 18.5 11.999 18.5C16.015 18.5 19.396 17.484 20.999 15.982V18.5C20.999 20.155 17.303 22 11.999 22Z" fill="black"/>
</svg>
