<svg width="24" height="24" viewBox="0 0 24 24" fill="none" xmlns="http://www.w3.org/2000/svg">
<g clip-path="url(#clip0_345_13029)">
<path fill-rule="evenodd" clip-rule="evenodd" d="M10.5 17C10.5 17.276 10.276 17.5 10 17.5C5.985 17.5 2.603 16.484 1 14.982V17.5C1 19.155 4.696 21 10 21C10.276 21 10.5 21.224 10.5 21.5C10.5 21.776 10.276 22 10 22C4.393 22 0 20.023 0 17.5V4.5C0 1.977 4.393 0 10 0C15.607 0 20 1.977 20 4.5V10C20 10.276 19.776 10.5 19.5 10.5C19.224 10.5 19 10.276 19 10V6.482C17.397 7.984 14.016 9 10 9C5.985 9 2.603 7.984 1 6.482V8.5C1 10.155 4.696 12 10 12C10.498 12 10.988 11.982 11.466 11.95C11.73 11.932 11.979 12.14 11.999 12.415C12.017 12.69 11.809 12.929 11.534 12.948C11.033 12.982 10.521 13 10 13C5.985 13 2.603 11.984 1 10.482V13C1 14.655 4.696 16.5 10 16.5C10.276 16.5 10.5 16.724 10.5 17ZM19 4.5C19 2.845 15.304 1 10 1C4.696 1 1 2.845 1 4.5C1 6.155 4.696 8 10 8C15.304 8 19 6.155 19 4.5Z" fill="black"/>
<path d="M17 20V16.5C17 16.224 17.224 16 17.5 16C17.776 16 18 16.224 18 16.5V20C18 20.276 17.776 20.5 17.5 20.5C17.224 20.5 17 20.276 17 20Z" fill="black"/>
<path d="M17.5 22C17.7761 22 18 21.7761 18 21.5C18 21.2239 17.7761 21 17.5 21C17.2239 21 17 21.2239 17 21.5C17 21.7761 17.2239 22 17.5 22Z" fill="black"/>
<path fill-rule="evenodd" clip-rule="evenodd" d="M17.947 11.276L23.947 23.276C24.114 23.612 23.869 24 23.5 24H11.5C11.131 24 10.886 23.612 11.052 23.276L17.052 11.276C17.222 10.938 17.777 10.938 17.947 11.276ZM17.5 12.618L12.309 23H22.691L17.5 12.618Z" fill="black"/>
</g>
<defs>
<clipPath id="clip0_345_13029">
<rect width="24" height="24" fill="white"/>
</clipPath>
</defs>
</svg>
