<svg width="24" height="24" viewBox="0 0 24 24" fill="none" xmlns="http://www.w3.org/2000/svg">
<path fill-rule="evenodd" clip-rule="evenodd" d="M1 8.5C1 10.155 4.696 12 10 12C10.276 12 10.5 12.224 10.5 12.5C10.5 12.776 10.276 13 10 13C5.985 13 2.603 11.984 1 10.482V13C1 14.652 4.309 16.168 8.533 16.451C8.809 16.469 9.018 16.708 8.999 16.983C8.981 17.268 8.729 17.47 8.467 17.449C5.07 17.222 2.375 16.299 1 15.012V17.5C1 19.003 4.067 20.76 9.022 20.979C9.298 20.991 9.512 21.225 9.499 21.501C9.489 21.753 9.293 21.979 8.978 21.979C3.775 21.748 0 19.865 0 17.5V4.5C0 1.977 4.393 0 10 0C15.607 0 20 1.977 20 4.5V9C20 9.276 19.776 9.5 19.5 9.5C19.224 9.5 19 9.276 19 9V6.482C17.397 7.984 14.016 9 10 9C5.985 9 2.603 7.984 1 6.482V8.5ZM19 4.5C19 2.845 15.304 1 10 1C4.696 1 1 2.845 1 4.5C1 6.155 4.696 8 10 8C15.304 8 19 6.155 19 4.5Z" fill="black"/>
<path d="M20.5 18.5C20.5 18.224 20.276 18 20 18H18V15C18 14.724 17.776 14.5 17.5 14.5C17.224 14.5 17 14.724 17 15V18.5C17 18.776 17.224 19 17.5 19H20C20.276 19 20.5 18.776 20.5 18.5Z" fill="black"/>
<path fill-rule="evenodd" clip-rule="evenodd" d="M17.5 11C13.916 11 11 13.916 11 17.5C11 21.084 13.916 24 17.5 24C21.084 24 24 21.084 24 17.5C24 13.916 21.084 11 17.5 11ZM17.5 23C14.468 23 12 20.532 12 17.5C12 14.468 14.468 12 17.5 12C20.532 12 23 14.468 23 17.5C23 20.532 20.532 23 17.5 23Z" fill="black"/>
</svg>
