<svg width="24" height="24" viewBox="0 0 24 24" fill="none" xmlns="http://www.w3.org/2000/svg">
<g clip-path="url(#clip0_345_12922)">
<path fill-rule="evenodd" clip-rule="evenodd" d="M10 12C10.498 12 10.988 11.982 11.466 11.95C11.728 11.917 11.979 12.14 11.999 12.415C12.017 12.69 11.809 12.929 11.534 12.948C11.033 12.982 10.521 13 10 13C5.985 13 2.603 11.984 1 10.482V13C1 14.655 4.696 16.5 10 16.5C10.276 16.5 10.5 16.724 10.5 17C10.5 17.276 10.276 17.5 10 17.5C5.985 17.5 2.603 16.484 1 14.982V17.5C1 19.155 4.696 21 10 21C10.276 21 10.5 21.224 10.5 21.5C10.5 21.776 10.276 22 10 22C4.393 22 0 20.023 0 17.5V4.5C0 1.977 4.393 0 10 0C15.607 0 20 1.977 20 4.5V10C20 10.276 19.776 10.5 19.5 10.5C19.224 10.5 19 10.276 19 10V6.482C17.397 7.984 14.016 9 10 9C5.985 9 2.603 7.984 1 6.482V8.5C1 10.155 4.696 12 10 12ZM19 4.5C19 2.845 15.304 1 10 1C4.696 1 1 2.845 1 4.5C1 6.155 4.696 8 10 8C15.304 8 19 6.155 19 4.5Z" fill="black"/>
<path d="M23.5 14.5C23.224 14.5 23 14.724 23 15V15.77C22.013 14.695 20.538 14 19 14C16.802 14 14.711 15.402 14.028 17.333C13.936 17.594 14.073 17.879 14.333 17.972C14.597 18.066 14.879 17.928 14.972 17.667C15.509 16.146 17.24 15 19 15C20.489 15 21.95 15.826 22.692 17H21C20.724 17 20.5 17.224 20.5 17.5C20.5 17.776 20.724 18 21 18H23.5C23.776 18 24 17.776 24 17.5V15C24 14.724 23.776 14.5 23.5 14.5Z" fill="black"/>
<path d="M23.666 20.028C23.41 19.938 23.12 20.073 23.028 20.334C22.492 21.854 20.76 23 19 23C17.51 23 16.048 22.174 15.307 21H17C17.276 21 17.5 20.776 17.5 20.5C17.5 20.224 17.276 20 17 20H14.5C14.224 20 14 20.224 14 20.5V23C14 23.276 14.224 23.5 14.5 23.5C14.776 23.5 15 23.276 15 23V22.23C15.987 23.304 17.462 24 19 24C21.198 24 23.289 22.598 23.972 20.666C24.063 20.406 23.927 20.12 23.666 20.028Z" fill="black"/>
</g>
<defs>
<clipPath id="clip0_345_12922">
<rect width="24" height="24" fill="white"/>
</clipPath>
</defs>
</svg>
