<svg width="24" height="24" viewBox="0 0 24 24" fill="none" xmlns="http://www.w3.org/2000/svg">
<path fill-rule="evenodd" clip-rule="evenodd" d="M1 8.525C1 10.18 4.696 12.025 10 12.025C10.276 12.025 10.5 12.249 10.5 12.525C10.5 12.801 10.276 13.025 10 13.025C5.985 13.025 2.603 12.009 1 10.506V13.025C1 14.677 4.309 16.191 8.533 16.475C8.809 16.493 9.018 16.732 8.999 17.007C8.98 17.295 8.724 17.496 8.467 17.473C5.07 17.245 2.375 16.323 1 15.036V17.525C1 19.028 4.067 20.785 9.021 21C9.298 21.013 9.512 21.246 9.5 21.521C9.49 21.774 9.292 22 8.979 22C3.776 21.773 0 19.892 0 17.525V4.5C0 4.49359 0.00169961 4.48785 0.00331517 4.4824C0.00447059 4.47851 0.00558303 4.47475 0.006 4.471C0.069 1.959 4.434 0 10 0C15.566 0 19.931 1.959 19.994 4.471C19.9944 4.47475 19.9955 4.47851 19.9967 4.4824C19.9983 4.48785 20 4.49359 20 4.5V9C20 9.276 19.776 9.5 19.5 9.5C19.224 9.5 19 9.276 19 9V6.507C17.397 8.01 14.016 9.026 10 9.026C5.985 9.026 2.603 8.01 1 6.507V8.525ZM19 4.525C19 2.858 15.304 1 10 1C4.696 1 1 2.858 1 4.525C1 6.18 4.696 8.025 10 8.025C15.304 8.025 19 6.18 19 4.525Z" fill="black"/>
<path d="M20.354 14.646C20.159 14.451 19.842 14.451 19.647 14.646L17.5 16.793L15.354 14.647C15.159 14.452 14.842 14.452 14.647 14.647C14.452 14.842 14.452 15.159 14.647 15.354L16.793 17.5L14.647 19.646C14.452 19.841 14.452 20.158 14.647 20.353C14.842 20.548 15.159 20.548 15.354 20.353L17.5 18.207L19.646 20.353C19.841 20.548 20.158 20.548 20.353 20.353C20.548 20.158 20.548 19.841 20.353 19.646L18.207 17.5L20.353 15.354C20.549 15.158 20.549 14.842 20.354 14.646Z" fill="black"/>
<path fill-rule="evenodd" clip-rule="evenodd" d="M17.5 11C13.916 11 11 13.916 11 17.5C11 21.084 13.916 24 17.5 24C21.084 24 24 21.084 24 17.5C24 13.916 21.084 11 17.5 11ZM17.5 23C14.468 23 12 20.532 12 17.5C12 14.468 14.468 12 17.5 12C20.532 12 23 14.468 23 17.5C23 20.532 20.532 23 17.5 23Z" fill="black"/>
</svg>
