<svg width="24" height="24" viewBox="0 0 24 24" fill="none" xmlns="http://www.w3.org/2000/svg">
<path fill-rule="evenodd" clip-rule="evenodd" d="M6.5 21H17.5C19.43 21 21 19.43 21 17.5C21 15.57 19.43 14 17.5 14H6.5C4.57 14 3 15.57 3 17.5C3 19.43 4.57 21 6.5 21ZM20 17.5C20 18.878 18.878 20 17.5 20C16.122 20 15 18.878 15 17.5C15 16.122 16.122 15 17.5 15C18.878 15 20 16.122 20 17.5ZM6.5 15H15.059C14.407 15.636 14 16.521 14 17.5C14 18.479 14.407 19.365 15.059 20H6.5C5.122 20 4 18.878 4 17.5C4 16.122 5.122 15 6.5 15Z" fill="black"/>
<path fill-rule="evenodd" clip-rule="evenodd" d="M17.5 10H6.5C4.57 10 3 8.43 3 6.5C3 4.57 4.57 3 6.5 3H17.5C19.43 3 21 4.57 21 6.5C21 8.43 19.43 10 17.5 10ZM20 6.5C20 5.122 18.878 4 17.5 4H8.941C9.593 4.636 10 5.521 10 6.5C10 7.479 9.593 8.365 8.941 9H17.5C18.878 9 20 7.878 20 6.5ZM9 6.5C9 5.122 7.878 4 6.5 4C5.122 4 4 5.122 4 6.5C4 7.878 5.122 9 6.5 9C7.878 9 9 7.878 9 6.5Z" fill="black"/>
<path fill-rule="evenodd" clip-rule="evenodd" d="M23.5 0H0.5C0.224 0 0 0.224 0 0.5V23.5C0 23.776 0.224 24 0.5 24H23.5C23.776 24 24 23.776 24 23.5V0.5C24 0.224 23.776 0 23.5 0ZM23 23H1V1H23V23Z" fill="black"/>
</svg>
