<svg width="24" height="24" viewBox="0 0 24 24" fill="none" xmlns="http://www.w3.org/2000/svg">
<path d="M8 4C7.72386 4 7.5 4.22386 7.5 4.5C7.5 4.77614 7.72386 5 8 5H16C16.2761 5 16.5 4.77614 16.5 4.5C16.5 4.22386 16.2761 4 16 4H8Z" fill="black"/>
<path d="M5 7C4.72386 7 4.5 7.22386 4.5 7.5C4.5 7.77614 4.72386 8 5 8H19C19.2761 8 19.5 7.77614 19.5 7.5C19.5 7.22386 19.2761 7 19 7H5Z" fill="black"/>
<path d="M3.5 10C3.22386 10 3 10.2239 3 10.5C3 10.7761 3.22386 11 3.5 11H20.5C20.7761 11 21 10.7761 21 10.5C21 10.2239 20.7761 10 20.5 10H3.5Z" fill="black"/>
<path d="M3.5 13C3.22386 13 3 13.2239 3 13.5C3 13.7761 3.22386 14 3.5 14H20.5C20.7761 14 21 13.7761 21 13.5C21 13.2239 20.7761 13 20.5 13H3.5Z" fill="black"/>
<path d="M5 16C4.72386 16 4.5 16.2239 4.5 16.5C4.5 16.7761 4.72386 17 5 17H19C19.2761 17 19.5 16.7761 19.5 16.5C19.5 16.2239 19.2761 16 19 16H5Z" fill="black"/>
<path d="M8 19C7.72386 19 7.5 19.2239 7.5 19.5C7.5 19.7761 7.72386 20 8 20H16C16.2761 20 16.5 19.7761 16.5 19.5C16.5 19.2239 16.2761 19 16 19H8Z" fill="black"/>
<path fill-rule="evenodd" clip-rule="evenodd" d="M0 12C0 5.383 5.383 0 12 0C18.617 0 24 5.383 24 12C24 18.617 18.617 24 12 24C5.383 24 0 18.617 0 12ZM1 12C1 18.066 5.935 23 12 23C18.065 23 23 18.066 23 12C23 5.935 18.065 1 12 1C5.935 1 1 5.935 1 12Z" fill="black"/>
</svg>
