<svg width="24" height="24" viewBox="0 0 24 24" fill="none" xmlns="http://www.w3.org/2000/svg">
<g clip-path="url(#clip0_360_12910)">
<path d="M12.5 7.69995C12.5 7.42381 12.2761 7.19995 12 7.19995C11.7239 7.19995 11.5 7.42381 11.5 7.69995V8.76569L10.7774 8.28393C10.5476 8.13075 10.2372 8.19284 10.084 8.4226C9.9308 8.65237 9.99289 8.9628 10.2227 9.11598L11.5 9.96754V11.5116L10.0314 11.0345L9.61619 9.55647C9.54152 9.29062 9.26546 9.13564 8.99961 9.21032C8.73376 9.285 8.57878 9.56105 8.65346 9.8269L8.88833 10.6631L7.87475 10.3337C7.61212 10.2484 7.33005 10.3921 7.24471 10.6547C7.15938 10.9174 7.30311 11.1995 7.56573 11.2848L8.57932 11.6141L7.89782 12.1525C7.68114 12.3237 7.64425 12.6381 7.81544 12.8548C7.98662 13.0715 8.30105 13.1084 8.51773 12.9372L9.72234 11.9855L11.191 12.4627L10.2833 13.7121L8.74939 13.6502C8.47347 13.6391 8.24077 13.8537 8.22964 14.1296C8.21851 14.4056 8.43316 14.6383 8.70908 14.6494L9.57689 14.6844L8.95047 15.5466C8.78815 15.77 8.83768 16.0827 9.06108 16.245C9.28449 16.4073 9.59717 16.3578 9.75948 16.1344L10.3859 15.2722L10.6874 16.0867C10.7832 16.3457 11.0709 16.4779 11.3298 16.3821C11.5888 16.2862 11.721 15.9986 11.6252 15.7396L11.0923 14.2999L12 13.0505L12.9077 14.2998L12.3748 15.7395C12.279 15.9985 12.4112 16.2861 12.6702 16.382C12.9291 16.4778 13.2168 16.3456 13.3126 16.0866L13.6141 15.2721L14.2405 16.1343C14.4028 16.3577 14.7155 16.4072 14.9389 16.2449C15.1623 16.0826 15.2119 15.7699 15.0495 15.5465L14.4231 14.6843L15.2909 14.6493C15.5668 14.6382 15.7815 14.4055 15.7704 14.1296C15.7592 13.8537 15.5265 13.639 15.2506 13.6501L13.7167 13.712L12.8091 12.4628L14.2777 11.9857L15.4823 12.9373C15.6989 13.1085 16.0134 13.0716 16.1846 12.855C16.3557 12.6383 16.3189 12.3238 16.1022 12.1527L15.4207 11.6143L16.4343 11.2849C16.6969 11.1996 16.8406 10.9175 16.7553 10.6549C16.6699 10.3923 16.3879 10.2485 16.1252 10.3339L15.1117 10.6632L15.3465 9.82705C15.4212 9.56119 15.2662 9.28514 15.0004 9.21046C14.7345 9.13578 14.4585 9.29076 14.3838 9.55661L13.9686 11.0346L12.5 11.5118V9.96754L13.7774 9.11598C14.0071 8.9628 14.0692 8.65237 13.916 8.4226C13.7629 8.19284 13.4524 8.13075 13.2227 8.28393L12.5 8.76569V7.69995Z" fill="black"/>
<path fill-rule="evenodd" clip-rule="evenodd" d="M1.87136 4.53773L1.87 4.5381C1.651 4.5971 1.5 4.7941 1.5 5.0211C1.5 13.5901 2.261 20.4271 11.826 23.9691C11.883 23.9901 11.941 24.0001 12 24.0001C12.059 24.0001 12.117 23.9901 12.174 23.9691C21.739 20.4271 22.5 13.5901 22.5 5.0211C22.5 4.7941 22.349 4.5971 22.13 4.5381L22.1287 4.53775C21.9954 4.50128 14.72 2.51111 12.363 0.147104C12.175 -0.0408965 11.828 -0.0408965 11.64 0.147104C9.27832 2.51177 2.00663 4.50073 1.87136 4.53773ZM21.499 5.4001C21.478 13.6021 20.683 19.6751 12 22.9661C3.317 19.6751 2.522 13.6021 2.501 5.4001C3.998 4.9711 9.523 3.2901 12.001 1.1721C14.477 3.2911 20.002 4.9711 21.499 5.4001Z" fill="black"/>
</g>
<defs>
<clipPath id="clip0_360_12910">
<rect width="24" height="24" fill="white"/>
</clipPath>
</defs>
</svg>
