<svg width="24" height="24" viewBox="0 0 24 24" fill="none" xmlns="http://www.w3.org/2000/svg">
<g clip-path="url(#clip0_676_345)">
<path d="M9.35355 9.14645C9.15829 8.95118 8.84171 8.95118 8.64645 9.14645C8.45118 9.34171 8.45118 9.65829 8.64645 9.85355L11.2929 12.5L8.64645 15.1464C8.45118 15.3417 8.45118 15.6583 8.64645 15.8536C8.84171 16.0488 9.15829 16.0488 9.35355 15.8536L12 13.2071L14.6464 15.8536C14.8417 16.0488 15.1583 16.0488 15.3536 15.8536C15.5488 15.6583 15.5488 15.3417 15.3536 15.1464L12.7071 12.5L15.3536 9.85355C15.5488 9.65829 15.5488 9.34171 15.3536 9.14645C15.1583 8.95118 14.8417 8.95118 14.6464 9.14645L12 11.7929L9.35355 9.14645Z" fill="black"/>
<path fill-rule="evenodd" clip-rule="evenodd" d="M1.87 4.53835L1.87136 4.53797C2.00663 4.50098 9.27832 2.51202 11.64 0.147348C11.828 -0.0406523 12.175 -0.0406523 12.363 0.147348C14.72 2.51135 21.9954 4.50153 22.1287 4.53799L22.13 4.53835C22.349 4.59735 22.5 4.79435 22.5 5.02135C22.5 13.5903 21.739 20.4273 12.174 23.9693C12.117 23.9903 12.059 24.0003 12 24.0003C11.941 24.0003 11.883 23.9903 11.826 23.9693C2.261 20.4273 1.5 13.5903 1.5 5.02135C1.5 4.79435 1.651 4.59735 1.87 4.53835ZM12 22.9663C20.683 19.6753 21.478 13.6023 21.499 5.40035C20.002 4.97135 14.477 3.29135 12.001 1.17235C9.523 3.29035 3.998 4.97135 2.501 5.40035C2.522 13.6023 3.317 19.6753 12 22.9663Z" fill="black"/>
</g>
<defs>
<clipPath id="clip0_676_345">
<rect width="24" height="24" fill="white"/>
</clipPath>
</defs>
</svg>
