<svg width="24" height="24" viewBox="0 0 24 24" fill="none" xmlns="http://www.w3.org/2000/svg">
<g clip-path="url(#clip0_676_342)">
<path d="M12.363 0.147348C12.6881 0.473439 13.1068 0.792416 13.5875 1.10013C13.2833 1.2865 12.9934 1.49395 12.7199 1.72045C12.4599 1.54151 12.2187 1.35862 12.001 1.17235C9.523 3.29035 3.998 4.97135 2.501 5.40035C2.522 13.6023 3.317 19.6753 12 22.9663C17.1415 21.0176 19.5173 18.0934 20.6044 14.3294C21.0263 14.1373 21.4273 13.9072 21.803 13.6436C20.7688 18.1463 18.2444 21.7214 12.174 23.9693C12.117 23.9903 12.059 24.0003 12 24.0003C11.941 24.0003 11.883 23.9903 11.826 23.9693C2.261 20.4273 1.5 13.5903 1.5 5.02135C1.5 4.79435 1.651 4.59735 1.87 4.53835L1.87136 4.53798C2.00663 4.50098 9.27832 2.51202 11.64 0.147348C11.828 -0.0406523 12.175 -0.0406523 12.363 0.147348Z" fill="black"/>
<path d="M20.3796 6.32541C20.5593 6.11574 20.5351 5.80009 20.3254 5.62038C20.1157 5.44067 19.8001 5.46495 19.6204 5.67461L16.9718 8.76466L15.3536 7.14646C15.1583 6.95119 14.8417 6.95119 14.6464 7.14646C14.4512 7.34172 14.4512 7.6583 14.6464 7.85356L16.6464 9.85356C16.7449 9.95204 16.88 10.005 17.0192 9.99964C17.1584 9.9943 17.289 9.93115 17.3796 9.82541L20.3796 6.32541Z" fill="black"/>
<path fill-rule="evenodd" clip-rule="evenodd" d="M17.5 1C15.7761 1 14.1228 1.68482 12.9038 2.90381C11.6848 4.12279 11 5.77609 11 7.5C11 9.22391 11.6848 10.8772 12.9038 12.0962C14.1228 13.3152 15.7761 14 17.5 14C19.2239 14 20.8772 13.3152 22.0962 12.0962C23.3152 10.8772 24 9.22391 24 7.5C24 5.77609 23.3152 4.12279 22.0962 2.90381C20.8772 1.68482 19.2239 1 17.5 1ZM13.6109 3.61091C14.6424 2.57946 16.0413 2 17.5 2C18.9587 2 20.3576 2.57946 21.3891 3.61091C22.4205 4.64236 23 6.04131 23 7.5C23 8.95869 22.4205 10.3576 21.3891 11.3891C20.3576 12.4205 18.9587 13 17.5 13C16.0413 13 14.6424 12.4205 13.6109 11.3891C12.5795 10.3576 12 8.95869 12 7.5C12 6.04131 12.5795 4.64236 13.6109 3.61091Z" fill="black"/>
</g>
<defs>
<clipPath id="clip0_676_342">
<rect width="24" height="24" fill="white"/>
</clipPath>
</defs>
</svg>
