<svg width="24" height="24" viewBox="0 0 24 24" fill="none" xmlns="http://www.w3.org/2000/svg">
<g clip-path="url(#clip0_360_12912)">
<path fill-rule="evenodd" clip-rule="evenodd" d="M10.5 7C10.2239 7 10 7.22386 10 7.5V10H7.5C7.22386 10 7 10.2239 7 10.5V13.5C7 13.7761 7.22386 14 7.5 14H10V16.5C10 16.7761 10.2239 17 10.5 17H13.5C13.7761 17 14 16.7761 14 16.5V14H16.5C16.7761 14 17 13.7761 17 13.5V10.5C17 10.2239 16.7761 10 16.5 10H14V7.5C14 7.22386 13.7761 7 13.5 7H10.5ZM11 10.5V8H13V10.5C13 10.7761 13.2239 11 13.5 11H16V13H13.5C13.2239 13 13 13.2239 13 13.5V16H11V13.5C11 13.2239 10.7761 13 10.5 13H8V11H10.5C10.7761 11 11 10.7761 11 10.5Z" fill="black"/>
<path fill-rule="evenodd" clip-rule="evenodd" d="M1.87136 4.53773L1.87 4.5381C1.651 4.5971 1.5 4.7941 1.5 5.0211C1.5 13.5901 2.261 20.4271 11.826 23.9691C11.883 23.9901 11.941 24.0001 12 24.0001C12.059 24.0001 12.117 23.9901 12.174 23.9691C21.739 20.4271 22.5 13.5901 22.5 5.0211C22.5 4.7941 22.349 4.5971 22.13 4.5381L22.1287 4.53775C21.9954 4.50128 14.72 2.51111 12.363 0.147104C12.175 -0.0408965 11.828 -0.0408965 11.64 0.147104C9.27832 2.51177 2.00663 4.50073 1.87136 4.53773ZM21.499 5.4001C21.478 13.6021 20.683 19.6751 12 22.9661C3.317 19.6751 2.522 13.6021 2.501 5.4001C3.998 4.9711 9.523 3.2901 12.001 1.1721C14.477 3.2911 20.002 4.9711 21.499 5.4001Z" fill="black"/>
</g>
<defs>
<clipPath id="clip0_360_12912">
<rect width="24" height="24" fill="white"/>
</clipPath>
</defs>
</svg>
