<svg width="24" height="24" viewBox="0 0 24 24" fill="none" xmlns="http://www.w3.org/2000/svg">
<g clip-path="url(#clip0_676_343)">
<path fill-rule="evenodd" clip-rule="evenodd" d="M1.87136 4.53797L1.87 4.53835C1.651 4.59735 1.5 4.79435 1.5 5.02135C1.5 13.5903 2.261 20.4273 11.826 23.9693C11.883 23.9903 11.941 24.0003 12 24.0003C12.059 24.0003 12.117 23.9903 12.174 23.9693C21.739 20.4273 22.5 13.5903 22.5 5.02135C22.5 4.79435 22.349 4.59735 22.13 4.53835L22.1287 4.53799C21.9954 4.50153 14.72 2.51135 12.363 0.147348C12.175 -0.0406523 11.828 -0.0406523 11.64 0.147348C9.27832 2.51202 2.00663 4.50098 1.87136 4.53797ZM21.499 5.40035C21.478 13.6023 20.683 19.6753 12 22.9663C3.317 19.6753 2.522 13.6023 2.501 5.40035C3.998 4.97135 9.523 3.29035 12.001 1.17235C14.477 3.29135 20.002 4.97135 21.499 5.40035Z" fill="black"/>
</g>
<defs>
<clipPath id="clip0_676_343">
<rect width="24" height="24" fill="white"/>
</clipPath>
</defs>
</svg>
