<svg width="24" height="24" viewBox="0 0 24 24" fill="none" xmlns="http://www.w3.org/2000/svg">
<path fill-rule="evenodd" clip-rule="evenodd" d="M12.3595 3.64199C12.2657 3.54796 12.1384 3.49512 12.0056 3.49512C11.8727 3.49512 11.7454 3.54796 11.6516 3.64199C11.2731 4.02137 10.6757 4.407 9.95716 4.77535C9.24606 5.13987 8.44891 5.4712 7.69698 5.75191C6.94624 6.03217 6.24781 6.25931 5.73677 6.41642C5.48147 6.4949 5.2735 6.55574 5.12983 6.59683C5.05801 6.61737 5.00229 6.63296 4.96481 6.64335L4.92254 6.65498L4.91216 6.6578L4.90975 6.65846C4.69143 6.71721 4.53912 6.91533 4.53912 7.14143C4.53912 10.2148 4.63922 13.2152 5.94267 15.7077C6.0164 15.8487 6.15285 15.9462 6.31014 15.9703C6.46743 15.9943 6.62678 15.9421 6.73929 15.8296L16.1308 6.43802C16.2503 6.31856 16.3014 6.14685 16.2666 5.98153C16.2318 5.8162 16.1159 5.67962 15.9584 5.61842C15.2546 5.34489 14.5311 5.03103 13.89 4.69068C13.2428 4.3471 12.708 3.99124 12.3595 3.64199ZM6.53447 14.6202C5.6753 12.5913 5.54934 10.187 5.53977 7.51932C5.67341 7.48039 5.83925 7.4311 6.03062 7.37227C6.55475 7.21113 7.27268 6.97772 8.04672 6.68876C8.81956 6.40024 9.65561 6.05367 10.4133 5.66524C10.9979 5.3656 11.5562 5.0309 12.0055 4.66591C12.4104 4.99497 12.9027 5.29875 13.4211 5.57393C13.8879 5.82171 14.3891 6.05328 14.89 6.26468L6.53447 14.6202Z" fill="black"/>
<path fill-rule="evenodd" clip-rule="evenodd" d="M19.4609 7.14143C19.4609 6.9392 19.339 6.75688 19.1522 6.67949C18.9654 6.6021 18.7503 6.64488 18.6073 6.78788C16.5157 8.87952 13.8377 11.558 11.6826 13.7136L7.89656 17.5007L7.89567 17.5016C7.89562 17.5017 7.89537 17.5019 8.24898 17.8554L7.89567 17.5016C7.79827 17.599 7.74509 17.7327 7.74921 17.8704C7.75333 18.0081 7.81409 18.138 7.91715 18.2294C8.9173 19.1168 10.1972 19.8705 11.8263 20.474C11.9384 20.5155 12.0616 20.5155 12.1737 20.474C15.5953 19.2065 17.4497 17.2839 18.4225 14.9233C19.3789 12.6025 19.4609 9.90341 19.4609 7.14143ZM12 19.4708C10.7709 18.9992 9.7841 18.4439 8.9895 17.8219L12.3898 14.4206C14.2586 12.5514 16.5207 10.2888 18.4526 8.35683C18.4166 10.6544 18.24 12.7416 17.4979 14.5423C16.6592 16.5778 15.0768 18.2904 12 19.4708Z" fill="black"/>
<path fill-rule="evenodd" clip-rule="evenodd" d="M12.362 0.146872C12.2682 0.0528436 12.1408 0 12.008 0C11.8752 0 11.7478 0.0528436 11.654 0.146872C11.0862 0.716043 10.2041 1.28243 9.16485 1.81515C8.1331 2.34404 6.97942 2.82335 5.89463 3.22833C4.81103 3.63285 3.8034 3.96052 3.06638 4.18711C2.6981 4.30033 2.39794 4.38814 2.19034 4.44751C2.08654 4.4772 2.00592 4.49976 1.95152 4.51483L1.88999 4.53177L1.8747 4.53593L1.87008 4.53717C1.65174 4.59592 1.5 4.79389 1.5 5.02C1.5 8.99171 1.61995 12.8275 2.97521 16.1163C4.34689 19.4448 6.96109 22.1667 11.8263 23.9689C11.9384 24.0104 12.0616 24.0104 12.1737 23.9689C17.0389 22.1667 19.6531 19.4448 21.0248 16.1163C22.38 12.8275 22.5 8.99171 22.5 5.02C22.5 4.79398 22.3474 4.59582 22.1292 4.53698L22.1256 4.536L22.1103 4.53184L22.0489 4.5149C21.9946 4.49984 21.9142 4.47727 21.8106 4.44759C21.6034 4.38822 21.3039 4.30041 20.9364 4.18719C20.2009 3.96061 19.1952 3.63295 18.1137 3.22843C17.0309 2.82347 15.8792 2.34417 14.8489 1.81528C13.8112 1.28259 12.9299 0.716175 12.362 0.146872ZM3.89979 15.7352C2.67036 12.7518 2.50941 9.24015 2.50043 5.3989C2.71156 5.3383 3.0051 5.25214 3.36024 5.14296C4.11035 4.91235 5.13747 4.5784 6.24437 4.16517C7.35008 3.7524 8.54265 3.25783 9.62103 2.70504C10.5181 2.24517 11.3597 1.73328 12.008 1.1796C12.6558 1.73317 13.4964 2.24503 14.3922 2.70491C15.4691 3.25771 16.6596 3.75228 17.7633 4.16507C18.8683 4.5783 19.8934 4.91226 20.642 5.14287C20.9961 5.25197 21.2889 5.33809 21.4996 5.39868C21.4906 9.24001 21.3297 12.7518 20.1002 15.7352C18.8626 18.7384 16.5209 21.2505 12 22.966C7.47912 21.2505 5.13736 18.7384 3.89979 15.7352Z" fill="black"/>
</svg>
