<svg width="24" height="24" viewBox="0 0 24 24" fill="none" xmlns="http://www.w3.org/2000/svg">
<g clip-path="url(#clip0_676_341)">
<path d="M12.363 0.147348C12.6881 0.473439 13.1068 0.792415 13.5875 1.10013C13.2833 1.2865 12.9934 1.49395 12.7199 1.72045C12.4599 1.54151 12.2187 1.35862 12.001 1.17235C9.523 3.29035 3.998 4.97135 2.501 5.40035C2.522 13.6023 3.317 19.6753 12 22.9663C17.1415 21.0176 19.5173 18.0934 20.6044 14.3294C21.0263 14.1373 21.4273 13.9072 21.803 13.6436C20.7688 18.1463 18.2444 21.7214 12.174 23.9693C12.117 23.9903 12.059 24.0003 12 24.0003C11.941 24.0003 11.883 23.9903 11.826 23.9693C2.261 20.4273 1.5 13.5903 1.5 5.02135C1.5 4.79435 1.651 4.59735 1.87 4.53835L1.87136 4.53797C2.00663 4.50098 9.27832 2.51202 11.64 0.147348C11.828 -0.0406523 12.175 -0.0406523 12.363 0.147348Z" fill="black"/>
<path d="M17.5 5C17.5 4.72386 17.2761 4.5 17 4.5C16.7239 4.5 16.5 4.72386 16.5 5V8.5C16.5 8.77614 16.7239 9 17 9H19.5C19.7761 9 20 8.77614 20 8.5C20 8.22386 19.7761 8 19.5 8H17.5V5Z" fill="black"/>
<path fill-rule="evenodd" clip-rule="evenodd" d="M17.5 1C15.7761 1 14.1228 1.68482 12.9038 2.90381C11.6848 4.12279 11 5.77609 11 7.5C11 9.22391 11.6848 10.8772 12.9038 12.0962C14.1228 13.3152 15.7761 14 17.5 14C19.2239 14 20.8772 13.3152 22.0962 12.0962C23.3152 10.8772 24 9.22391 24 7.5C24 5.77609 23.3152 4.12279 22.0962 2.90381C20.8772 1.68482 19.2239 1 17.5 1ZM13.6109 3.61091C14.6424 2.57946 16.0413 2 17.5 2C18.9587 2 20.3576 2.57946 21.3891 3.61091C22.4205 4.64236 23 6.04131 23 7.5C23 8.95869 22.4205 10.3576 21.3891 11.3891C20.3576 12.4205 18.9587 13 17.5 13C16.0413 13 14.6424 12.4205 13.6109 11.3891C12.5795 10.3576 12 8.95869 12 7.5C12 6.04131 12.5795 4.64236 13.6109 3.61091Z" fill="black"/>
</g>
<defs>
<clipPath id="clip0_676_341">
<rect width="24" height="24" fill="white"/>
</clipPath>
</defs>
</svg>
