<svg width="24" height="24" viewBox="0 0 24 24" fill="none" xmlns="http://www.w3.org/2000/svg">
<g clip-path="url(#clip0_360_12909)">
<path d="M16.8379 9.86858C17.0414 9.68198 17.0552 9.3657 16.8686 9.16214C16.682 8.95858 16.3657 8.94483 16.1621 9.13142L10.515 14.3079L7.85355 11.6464C7.65829 11.4512 7.34171 11.4512 7.14645 11.6464C6.95118 11.8417 6.95118 12.1583 7.14645 12.3536L10.1464 15.3536C10.3357 15.5428 10.6405 15.5495 10.8379 15.3686L16.8379 9.86858Z" fill="black"/>
<path fill-rule="evenodd" clip-rule="evenodd" d="M1.87136 4.53773L1.87 4.5381C1.651 4.5971 1.5 4.7941 1.5 5.0211C1.5 13.5901 2.261 20.4271 11.826 23.9691C11.883 23.9901 11.941 24.0001 12 24.0001C12.059 24.0001 12.117 23.9901 12.174 23.9691C21.739 20.4271 22.5 13.5901 22.5 5.0211C22.5 4.7941 22.349 4.5971 22.13 4.5381L22.1287 4.53775C21.9954 4.50128 14.72 2.51111 12.363 0.147104C12.175 -0.0408965 11.828 -0.0408965 11.64 0.147104C9.27832 2.51177 2.00663 4.50073 1.87136 4.53773ZM21.499 5.4001C21.478 13.6021 20.683 19.6751 12 22.9661C3.317 19.6751 2.522 13.6021 2.501 5.4001C3.998 4.9711 9.523 3.2901 12.001 1.1721C14.477 3.2911 20.002 4.9711 21.499 5.4001Z" fill="black"/>
</g>
<defs>
<clipPath id="clip0_360_12909">
<rect width="24" height="24" fill="white"/>
</clipPath>
</defs>
</svg>
