<svg width="24" height="24" viewBox="0 0 24 24" fill="none" xmlns="http://www.w3.org/2000/svg">
<g clip-path="url(#clip0_360_12908)">
<path d="M10.5834 6.66992C9.52481 6.66992 8.66669 7.52804 8.66669 8.58659C8.66669 8.86273 8.89054 9.08659 9.16669 9.08659C9.44283 9.08659 9.66669 8.86273 9.66669 8.58659C9.66669 8.08033 10.0771 7.66992 10.5834 7.66992C11.0896 7.66992 11.5 8.08033 11.5 8.58659C11.5 9.07735 11.1144 9.47803 10.6296 9.50211C10.6143 9.50071 10.5989 9.5 10.5833 9.5H7.75C7.47386 9.5 7.25 9.72386 7.25 10C7.25 10.2761 7.47386 10.5 7.75 10.5H10.526C10.5448 10.5022 10.564 10.5033 10.5834 10.5033C11.6419 10.5033 12.5 9.64513 12.5 8.58659C12.5 7.52804 11.6419 6.66992 10.5834 6.66992Z" fill="black"/>
<path d="M7.25 14C7.25 13.7239 7.47386 13.5 7.75 13.5H13.33L13.3317 13.5L13.3333 13.5C14.3919 13.5 15.25 14.3581 15.25 15.4167C15.25 16.4752 14.3919 17.3333 13.3333 17.3333C12.2748 17.3333 11.4167 16.4752 11.4167 15.4167C11.4167 15.1405 11.6405 14.9167 11.9167 14.9167C12.1928 14.9167 12.4167 15.1405 12.4167 15.4167C12.4167 15.9229 12.8271 16.3333 13.3333 16.3333C13.8396 16.3333 14.25 15.9229 14.25 15.4167C14.25 14.9104 13.8396 14.5 13.3333 14.5L13.3317 14.5L13.33 14.5H7.75C7.47386 14.5 7.25 14.2761 7.25 14Z" fill="black"/>
<path d="M7.75 11.5C7.47386 11.5 7.25 11.7239 7.25 12C7.25 12.2761 7.47386 12.5 7.75 12.5H15.1093C15.1281 12.5021 15.1473 12.5033 15.1667 12.5033C16.2252 12.5033 17.0833 11.6451 17.0833 10.5866C17.0833 9.52804 16.2252 8.66992 15.1667 8.66992C14.1081 8.66992 13.25 9.52804 13.25 10.5866C13.25 10.8627 13.4739 11.0866 13.75 11.0866C14.0261 11.0866 14.25 10.8627 14.25 10.5866C14.25 10.0803 14.6604 9.66992 15.1667 9.66992C15.6729 9.66992 16.0833 10.0803 16.0833 10.5866C16.0833 11.0788 15.6953 11.4805 15.2085 11.5023C15.1925 11.5008 15.1764 11.5 15.16 11.5H7.75Z" fill="black"/>
<path fill-rule="evenodd" clip-rule="evenodd" d="M1.87136 4.53773L1.87 4.5381C1.651 4.5971 1.5 4.7941 1.5 5.0211C1.5 13.5901 2.261 20.4271 11.826 23.9691C11.883 23.9901 11.941 24.0001 12 24.0001C12.059 24.0001 12.117 23.9901 12.174 23.9691C21.739 20.4271 22.5 13.5901 22.5 5.0211C22.5 4.7941 22.349 4.5971 22.13 4.5381L22.1287 4.53775C21.9954 4.50128 14.72 2.51111 12.363 0.147104C12.175 -0.0408965 11.828 -0.0408965 11.64 0.147104C9.27832 2.51177 2.00663 4.50073 1.87136 4.53773ZM21.499 5.4001C21.478 13.6021 20.683 19.6751 12 22.9661C3.317 19.6751 2.522 13.6021 2.501 5.4001C3.998 4.9711 9.523 3.2901 12.001 1.1721C14.477 3.2911 20.002 4.9711 21.499 5.4001Z" fill="black"/>
</g>
<defs>
<clipPath id="clip0_360_12908">
<rect width="24" height="24" fill="white"/>
</clipPath>
</defs>
</svg>
