<svg width="24" height="24" viewBox="0 0 24 24" fill="none" xmlns="http://www.w3.org/2000/svg">
<g clip-path="url(#clip0_360_12911)">
<path fill-rule="evenodd" clip-rule="evenodd" d="M10.472 6.67951C10.606 6.54851 10.791 6.45851 10.966 6.51951C13.792 7.46451 15.923 10.4795 15.923 13.5325C15.923 15.7165 14.146 17.4935 11.962 17.4935C9.777 17.4935 8 15.7165 8 13.5325C8 12.3375 9.119 10.7295 9.247 10.5505C9.341 10.4195 9.492 10.3405 9.653 10.3405H9.655C9.816 10.3405 9.967 10.4185 10.061 10.5495C10.239 10.7965 10.486 11.1365 10.706 11.4335C11.2019 9.97669 10.6863 8.29883 10.3591 7.23446L10.357 7.22751C10.301 7.04851 10.338 6.81051 10.472 6.67951ZM9 13.5325C9 15.1655 10.329 16.4935 11.962 16.4935C13.595 16.4935 14.923 15.1655 14.923 13.5325C14.923 11.2405 13.542 8.97651 11.586 7.88351C11.947 9.27151 12.197 11.0985 11.232 12.6435C11.149 12.7765 11.009 12.8635 10.853 12.8765C10.697 12.8895 10.543 12.8295 10.438 12.7145C10.292 12.5545 9.959 12.1085 9.681 11.7285C9.359 12.2805 9 13.0235 9 13.5325Z" fill="black"/>
<path fill-rule="evenodd" clip-rule="evenodd" d="M1.87136 4.53773L1.87 4.5381C1.651 4.5971 1.5 4.7941 1.5 5.0211C1.5 13.5901 2.261 20.4271 11.826 23.9691C11.883 23.9901 11.941 24.0001 12 24.0001C12.059 24.0001 12.117 23.9901 12.174 23.9691C21.739 20.4271 22.5 13.5901 22.5 5.0211C22.5 4.7941 22.349 4.5971 22.13 4.5381L22.1287 4.53775C21.9954 4.50128 14.72 2.51111 12.363 0.147104C12.175 -0.0408965 11.828 -0.0408965 11.64 0.147104C9.27832 2.51177 2.00664 4.50073 1.87136 4.53773ZM21.499 5.4001C21.478 13.6021 20.683 19.6751 12 22.9661C3.317 19.6751 2.522 13.6021 2.501 5.4001C3.998 4.9711 9.523 3.2901 12.001 1.1721C14.477 3.2911 20.002 4.9711 21.499 5.4001Z" fill="black"/>
</g>
<defs>
<clipPath id="clip0_360_12911">
<rect width="24" height="24" fill="white"/>
</clipPath>
</defs>
</svg>
