<svg width="24" height="24" viewBox="0 0 24 24" fill="none" xmlns="http://www.w3.org/2000/svg">
<g clip-path="url(#clip0_360_12907)">
<path fill-rule="evenodd" clip-rule="evenodd" d="M9.27841 9.92097L11.4955 7.71542C11.6316 7.57051 11.8247 7.49257 12.0228 7.50056C12.2209 7.50056 12.411 7.57951 12.55 7.72141L14.7181 9.92397C16.2109 11.423 16.2049 13.8464 14.7061 15.3394C13.2074 16.8324 10.7812 16.8314 9.28441 15.3364C7.78766 13.8414 7.78466 11.419 9.27841 9.92097ZM14.0047 10.6246L14.0088 10.6287C15.1118 11.7364 15.1079 13.5278 13.9996 14.6318C12.8915 15.7357 11.0981 15.7347 9.99187 14.6298C8.88559 13.5248 8.88312 11.7351 9.98581 10.6277L9.98729 10.6262L12.0179 8.6062L14.0047 10.6246Z" fill="black"/>
<path fill-rule="evenodd" clip-rule="evenodd" d="M1.87136 4.53773L1.87 4.5381C1.651 4.5971 1.5 4.7941 1.5 5.0211C1.5 13.5901 2.261 20.4271 11.826 23.9691C11.883 23.9901 11.941 24.0001 12 24.0001C12.059 24.0001 12.117 23.9901 12.174 23.9691C21.739 20.4271 22.5 13.5901 22.5 5.0211C22.5 4.7941 22.349 4.5971 22.13 4.5381L22.1287 4.53775C21.9954 4.50128 14.72 2.51111 12.363 0.147104C12.175 -0.0408965 11.828 -0.0408965 11.64 0.147104C9.27832 2.51177 2.00664 4.50073 1.87136 4.53773ZM21.499 5.4001C21.478 13.6021 20.683 19.6751 12 22.9661C3.317 19.6751 2.522 13.6021 2.501 5.4001C3.998 4.9711 9.523 3.2901 12.001 1.1721C14.477 3.2911 20.002 4.9711 21.499 5.4001Z" fill="black"/>
</g>
<defs>
<clipPath id="clip0_360_12907">
<rect width="24" height="24" fill="white"/>
</clipPath>
</defs>
</svg>
