<svg width="24" height="24" viewBox="0 0 24 24" fill="none" xmlns="http://www.w3.org/2000/svg">
<g clip-path="url(#clip0_360_12913)">
<path d="M13.4069 7.79062C13.5674 7.56591 13.5153 7.25364 13.2906 7.09313C13.0659 6.93263 12.7536 6.98467 12.5931 7.20938L10.0931 10.7094C9.98427 10.8618 9.96971 11.0623 10.0554 11.2288C10.1411 11.3953 10.3127 11.5 10.5 11.5H13.0892L10.7462 15.1817L10.4903 13.9019C10.4361 13.6312 10.1727 13.4556 9.90194 13.5097C9.63116 13.5639 9.45555 13.8273 9.50971 14.0981L10.0097 16.5981C10.0639 16.8688 10.3273 17.0444 10.5981 16.9903L13.0981 16.4903C13.3688 16.4361 13.5444 16.1727 13.4903 15.9019C13.4361 15.6312 13.1727 15.4556 12.9019 15.5097L11.5509 15.7799L14.4218 11.2684C14.5198 11.1145 14.5261 10.9194 14.4383 10.7594C14.3505 10.5994 14.1825 10.5 14 10.5H11.4716L13.4069 7.79062Z" fill="black"/>
<path fill-rule="evenodd" clip-rule="evenodd" d="M1.87136 4.53773L1.87 4.5381C1.651 4.5971 1.5 4.7941 1.5 5.0211C1.5 13.5901 2.261 20.4271 11.826 23.9691C11.883 23.9901 11.941 24.0001 12 24.0001C12.059 24.0001 12.117 23.9901 12.174 23.9691C21.739 20.4271 22.5 13.5901 22.5 5.0211C22.5 4.7941 22.349 4.5971 22.13 4.5381L22.1287 4.53775C21.9954 4.50128 14.72 2.51111 12.363 0.147104C12.175 -0.0408965 11.828 -0.0408965 11.64 0.147104C9.27832 2.51177 2.00663 4.50073 1.87136 4.53773ZM21.499 5.4001C21.478 13.6021 20.683 19.6751 12 22.9661C3.317 19.6751 2.522 13.6021 2.501 5.4001C3.998 4.9711 9.523 3.2901 12.001 1.1721C14.477 3.2911 20.002 4.9711 21.499 5.4001Z" fill="black"/>
</g>
<defs>
<clipPath id="clip0_360_12913">
<rect width="24" height="24" fill="white"/>
</clipPath>
</defs>
</svg>
