<svg width="24" height="24" viewBox="0 0 24 24" fill="none" xmlns="http://www.w3.org/2000/svg">
<path fill-rule="evenodd" clip-rule="evenodd" d="M14.5 9.5H18.5C18.776 9.5 19 9.724 19 10V13C19 13.189 18.893 13.362 18.724 13.447L16.724 14.447C16.653 14.482 16.577 14.5 16.5 14.5C16.423 14.5 16.346 14.482 16.276 14.447L14.276 13.447C14.107 13.362 14 13.189 14 13V10C14 9.724 14.224 9.5 14.5 9.5ZM16.5 13.441L18 12.691V10.5H15V12.691L16.5 13.441Z" fill="black"/>
<path fill-rule="evenodd" clip-rule="evenodd" d="M17.262 3.054L19.187 3.605C20.254 3.91 21 4.898 21 6.009V21.5C21 22.879 19.879 24 18.5 24H6.5C5.121 24 4 22.879 4 21.5V6.009C4 4.898 4.745 3.91 5.812 3.605L7.737 3.055L9.081 1.711C9.276 1.294 10.074 0 12.5 0C14.927 0 15.723 1.295 15.918 1.71L17.262 3.054ZM13.999 5.793L16.292 3.5L15.499 2.707L13.206 5L13.999 5.793ZM14.881 1.911C14.627 1.571 13.98 1 12.5 1C11.022 1 10.375 1.569 10.118 1.912L12.499 4.293L14.881 1.911ZM11.792 5L9.499 2.707L8.706 3.5L10.999 5.793L11.792 5ZM5 6.009V21.5C5 22.327 5.673 23 6.5 23H12V6.206L11.353 6.854C11.255 6.951 11.127 7 10.999 7C10.871 7 10.743 6.951 10.646 6.853L7.854 4.061L6.088 4.566C5.447 4.75 5 5.343 5 6.009ZM18.5 23C19.327 23 20 22.327 20 21.5V6.009C20 5.343 19.553 4.75 18.913 4.567L17.145 4.062L14.353 6.854C14.255 6.951 14.127 7 13.999 7C13.871 7 13.743 6.951 13.646 6.854L13 6.208V23H18.5Z" fill="black"/>
</svg>
