<svg width="24" height="24" viewBox="0 0 24 24" fill="none" xmlns="http://www.w3.org/2000/svg">
<g clip-path="url(#clip0_345_13049)">
<path d="M22.8701 8.16498L17.8701 2.66498C17.7751 2.56098 17.6411 2.50098 17.5001 2.50098H16.2061L14.8521 1.14698C14.8361 1.12998 14.8151 1.12498 14.7981 1.11098C14.7791 1.09698 14.7631 1.08698 14.7431 1.07498C14.6661 1.03098 14.5841 1.00098 14.4981 1.00098H8.49811C8.41211 1.00098 8.33011 1.03098 8.25311 1.07498C8.23411 1.08698 8.21811 1.09798 8.20011 1.11098C8.18211 1.12398 8.16111 1.13098 8.14511 1.14698L6.79211 2.50098H5.50011C5.35911 2.50098 5.22511 2.56098 5.13011 2.66498L0.130114 8.16498C-0.0378857 8.34998 -0.0438857 8.62898 0.116114 8.82098L2.61611 11.821C2.70611 11.928 2.83711 11.994 2.97711 12C3.12311 12.028 3.25411 11.954 3.35311 11.854L5.00011 10.208V23.501C5.00011 23.777 5.22411 24.001 5.50011 24.001H17.5001C17.7761 24.001 18.0001 23.777 18.0001 23.501V10.208L19.6461 11.854C19.7461 11.954 19.8901 12.029 20.0221 12C20.1631 11.994 20.2931 11.929 20.3831 11.821L22.8831 8.82098C23.0441 8.62898 23.0381 8.34998 22.8701 8.16498ZM15.2921 3.00098L12.9991 5.29398L12.2061 4.50098L14.4991 2.20798L15.2921 3.00098ZM13.2921 2.00098L11.4991 3.79398L9.70611 2.00098H13.2921ZM8.49911 2.20798L10.7921 4.50098L9.99911 5.29398L7.70611 3.00098L8.49911 2.20798ZM19.9671 10.761L17.8541 8.64798C17.7101 8.50498 17.4961 8.46398 17.3091 8.53998C17.1221 8.61598 17.0001 8.79898 17.0001 9.00098V23.001H6.00011V9.00098C6.00011 8.79898 5.87811 8.61598 5.69111 8.53898C5.50611 8.46298 5.28911 8.50398 5.14611 8.64698L3.03311 10.76L1.16311 8.51498L5.72111 3.49998H6.79211L9.64611 6.35398C9.74411 6.45198 9.87211 6.49998 10.0001 6.49998C10.1281 6.49998 10.2561 6.45098 10.3541 6.35398L11.0001 5.70798V9.50098C11.0001 9.77698 11.2241 10.001 11.5001 10.001C11.7761 10.001 12.0001 9.77698 12.0001 9.50098L11.9991 5.70898L12.6451 6.35498C12.7431 6.45298 12.8711 6.50098 12.9991 6.50098C13.1271 6.50098 13.2551 6.45198 13.3531 6.35498L16.2071 3.50098H17.2801L21.8381 8.51598L19.9671 10.761Z" fill="black"/>
</g>
<defs>
<clipPath id="clip0_345_13049">
<rect width="24" height="24" fill="white"/>
</clipPath>
</defs>
</svg>
