<svg width="24" height="24" viewBox="0 0 24 24" fill="none" xmlns="http://www.w3.org/2000/svg">
<path fill-rule="evenodd" clip-rule="evenodd" d="M6.5 3.5C5.67157 3.5 5 4.17157 5 5C5 5.82843 5.67157 6.5 6.5 6.5H7.5C8.32843 6.5 9 5.82843 9 5C9 4.17157 8.32843 3.5 7.5 3.5H6.5ZM6 5C6 4.72386 6.22386 4.5 6.5 4.5H7.5C7.77614 4.5 8 4.72386 8 5C8 5.27614 7.77614 5.5 7.5 5.5H6.5C6.22386 5.5 6 5.27614 6 5Z" fill="black"/>
<path fill-rule="evenodd" clip-rule="evenodd" d="M6.98296 7.5C5.88891 7.5 4.98562 8.3754 4.98363 9.48171C4.98276 9.96362 4.98639 10.5059 5.00018 11.0136C5.09596 14.5396 6.01819 19.2567 6.37148 20.9522C6.50038 21.5709 7.04559 22 7.6671 22C8.40324 22 9 21.4032 9 20.6671V9.51704C9 8.40306 8.09694 7.5 6.98296 7.5ZM5.98362 9.48351C5.9846 8.94101 6.42819 8.5 6.98296 8.5C7.54466 8.5 8 8.95534 8 9.51704V20.6671C8 20.851 7.85096 21 7.6671 21C7.50879 21 7.38062 20.893 7.35045 20.7483C6.99633 19.0487 6.09287 14.4123 5.99982 10.9864C5.98638 10.4919 5.98276 9.96008 5.98362 9.48351Z" fill="black"/>
<path fill-rule="evenodd" clip-rule="evenodd" d="M7.09499 0C6.67569 0 6.16201 0.0425327 5.70346 0.320072C4.60008 0.987891 2.75 2.8944 2.75 8C2.75 12.7243 3.85283 18.4572 4.51618 21.482C4.8438 22.976 6.17352 24 7.68553 24C9.51574 24 11 22.5178 11 20.6869V7.5C11 4.91644 10.5368 3.2098 9.93372 2.08157C9.327 0.946568 8.59069 0.420141 8.09533 0.18384C7.74514 0.0167891 7.37683 0 7.09499 0ZM6.22125 1.17558C6.4389 1.04385 6.72388 1 7.09499 1C7.35224 1 7.52841 1.02135 7.66478 1.08641C7.97673 1.23521 8.55039 1.61496 9.05181 2.55299C9.55686 3.49779 10 5.03103 10 7.5V20.6869C10 21.9649 8.9641 23 7.68553 23C6.62569 23 5.71625 22.286 5.49297 21.2678C4.83133 18.2507 3.75 12.6083 3.75 8C3.75 3.167 5.47788 1.6255 6.22125 1.17558Z" fill="black"/>
<path fill-rule="evenodd" clip-rule="evenodd" d="M17.5 3.5C18.3284 3.5 19 4.17157 19 5C19 5.82843 18.3284 6.5 17.5 6.5H16.5C15.6716 6.5 15 5.82843 15 5C15 4.17157 15.6716 3.5 16.5 3.5H17.5ZM18 5C18 4.72386 17.7761 4.5 17.5 4.5H16.5C16.2239 4.5 16 4.72386 16 5C16 5.27614 16.2239 5.5 16.5 5.5H17.5C17.7761 5.5 18 5.27614 18 5Z" fill="black"/>
<path fill-rule="evenodd" clip-rule="evenodd" d="M17.017 7.5C18.1111 7.5 19.0144 8.3754 19.0164 9.48171C19.0172 9.96362 19.0136 10.5059 18.9998 11.0136C18.904 14.5396 17.9818 19.2567 17.6285 20.9522C17.4996 21.5709 16.9544 22 16.3329 22C15.5968 22 15 21.4032 15 20.6671V9.51704C15 8.40306 15.9031 7.5 17.017 7.5ZM18.0164 9.48351C18.0154 8.94101 17.5718 8.5 17.017 8.5C16.4553 8.5 16 8.95534 16 9.51704V20.6671C16 20.851 16.149 21 16.3329 21C16.4912 21 16.6194 20.893 16.6495 20.7483C17.0037 19.0487 17.9071 14.4123 18.0002 10.9864C18.0136 10.4919 18.0172 9.96008 18.0164 9.48351Z" fill="black"/>
<path fill-rule="evenodd" clip-rule="evenodd" d="M16.905 0C17.3243 0 17.838 0.0425327 18.2965 0.320072C19.3999 0.987891 21.25 2.8944 21.25 8C21.25 12.7243 20.1472 18.4572 19.4838 21.482C19.1562 22.976 17.8265 24 16.3145 24C14.4843 24 13 22.5178 13 20.6869V7.5C13 4.91644 13.4632 3.2098 14.0663 2.08157C14.673 0.946568 15.4093 0.420141 15.9047 0.18384C16.2549 0.0167891 16.6232 0 16.905 0ZM17.7787 1.17558C17.5611 1.04385 17.2761 1 16.905 1C16.6478 1 16.4716 1.02135 16.3352 1.08641C16.0233 1.23521 15.4496 1.61496 14.9482 2.55299C14.4431 3.49779 14 5.03103 14 7.5V20.6869C14 21.9649 15.0359 23 16.3145 23C17.3743 23 18.2838 22.286 18.507 21.2678C19.1687 18.2507 20.25 12.6083 20.25 8C20.25 3.167 18.5221 1.6255 17.7787 1.17558Z" fill="black"/>
</svg>
