<svg width="24" height="24" viewBox="0 0 24 24" fill="none" xmlns="http://www.w3.org/2000/svg">
<path d="M4.62125 8.98512C5.54967 8.75299 6.49027 8.75095 7.20844 8.81081C7.56542 8.84056 7.86226 8.88515 8.06832 8.92195C8.17123 8.94032 8.25115 8.9567 8.30424 8.9682C8.33077 8.97395 8.35057 8.97848 8.36315 8.98142L8.37653 8.9846L8.37869 8.98512C8.64642 9.05177 8.9181 8.88906 8.98504 8.62133C9.05202 8.35344 8.88915 8.08197 8.62125 8.01499L8.5011 8.49553C8.62125 8.01499 8.62138 8.01502 8.62125 8.01499L8.61999 8.01467L8.61799 8.01418L8.61182 8.01267L8.5909 8.0077C8.5732 8.00356 8.54807 7.99783 8.51601 7.99088C8.45191 7.97699 8.35997 7.95821 8.24412 7.93752C8.01268 7.89619 7.68452 7.84702 7.2915 7.81426C6.50967 7.7491 5.45027 7.74706 4.37869 8.01499C4.11079 8.08197 3.94792 8.35344 4.0149 8.62133C4.08188 8.88923 4.35335 9.0521 4.62125 8.98512Z" fill="black"/>
<path d="M8.5011 10.4955C8.62125 10.015 8.62113 10.015 8.621 10.0149L8.61999 10.0147L8.61799 10.0142L8.61182 10.0127L8.5909 10.0077C8.5732 10.0036 8.54807 9.99783 8.51601 9.99088C8.45191 9.97699 8.35997 9.95821 8.24412 9.93752C8.01268 9.89619 7.68452 9.84702 7.2915 9.81426C6.50967 9.7491 5.45027 9.74706 4.37869 10.015C4.11079 10.082 3.94792 10.3534 4.0149 10.6213C4.08188 10.8892 4.35335 11.0521 4.62125 10.9851C5.54967 10.753 6.49027 10.751 7.20844 10.8108C7.56542 10.8406 7.86226 10.8851 8.06832 10.9219C8.17123 10.9403 8.25115 10.9567 8.30424 10.9682C8.33077 10.974 8.35057 10.9785 8.36315 10.9814L8.37653 10.9846L8.37869 10.9851C8.64642 11.0518 8.9181 10.8891 8.98504 10.6213C9.05202 10.3534 8.8889 10.0819 8.621 10.0149L8.5011 10.4955Z" fill="black"/>
<path fill-rule="evenodd" clip-rule="evenodd" d="M6.5073 12.5C5.57165 12.5 4.74556 13.1723 4.6204 14.1281C4.57244 14.4944 4.52873 14.8967 4.51381 15.2391C4.4478 16.7543 4.63287 18.8028 4.76444 20.0116C4.85779 20.8693 5.58533 21.5 6.43542 21.5C7.25162 21.5 7.96317 20.9177 8.09103 20.0951C8.2776 18.8947 8.55613 16.7927 8.48998 15.2396C8.47714 14.938 8.45204 14.585 8.42457 14.2503C8.3423 13.2479 7.49758 12.5 6.5073 12.5ZM5.61194 14.258C5.66826 13.8278 6.04514 13.5 6.5073 13.5C6.99263 13.5 7.3895 13.8639 7.42792 14.3321C7.45495 14.6614 7.47885 14.9996 7.49089 15.2821C7.55238 16.7259 7.28966 18.7399 7.10289 19.9415C7.05324 20.261 6.77504 20.5 6.43542 20.5C6.08308 20.5 5.79533 20.2412 5.75857 19.9034C5.62701 18.6947 5.45051 16.7139 5.51286 15.2826C5.52591 14.983 5.56532 14.614 5.61194 14.258Z" fill="black"/>
<path fill-rule="evenodd" clip-rule="evenodd" d="M3.83071 1.58155C4.35218 0.574935 5.3981 0 6.50038 0C7.60216 0 8.64773 0.574411 9.16931 1.58047C9.53208 2.28021 9.96915 3.19196 10.3248 4.13965C10.6775 5.07948 10.9642 6.09104 10.9996 6.98011C11.17 11.2614 10.6801 17.0955 10.3277 20.5688C10.1281 22.5355 8.46413 24 6.49914 24C4.53499 24 2.87139 22.5368 2.67119 20.5708C2.31751 17.0975 1.82607 11.2614 2.00041 6.97966C2.03659 6.09103 2.32341 5.07991 2.67599 4.14032C3.03152 3.19288 3.46822 2.28131 3.83071 1.58155ZM6.50038 1C5.73981 1 5.05405 1.39407 4.71865 2.04153C4.36666 2.721 3.94896 3.59433 3.61225 4.49165C3.27259 5.3968 3.02931 6.2903 2.99958 7.02034C2.82844 11.2235 3.31237 16.9962 3.66605 20.4695C3.81306 21.9132 5.03602 23 6.49914 23C7.96285 23 9.18621 21.9122 9.33277 20.4678C9.68517 16.9946 10.1677 11.2234 10.0004 7.01989C9.97133 6.28987 9.72828 5.39631 9.38854 4.491C9.05176 3.59356 8.63376 2.72014 8.28152 2.04073C7.94609 1.39371 7.26062 1 6.50038 1Z" fill="black"/>
<path d="M16.7902 8.81081C17.5084 8.75095 18.449 8.75299 19.3774 8.98512C19.6453 9.0521 19.9168 8.88923 19.9838 8.62133C20.0507 8.35344 19.8879 8.08197 19.62 8.01499C18.5484 7.74706 17.489 7.7491 16.7072 7.81426C16.3141 7.84702 15.986 7.89619 15.7545 7.93752C15.6387 7.95821 15.5467 7.97699 15.4826 7.99088C15.4506 7.99783 15.4255 8.00356 15.4078 8.0077L15.3868 8.01267L15.3807 8.01418L15.3787 8.01467L15.3777 8.01493C15.3775 8.01496 15.3774 8.01499 15.4976 8.49553L15.3777 8.01493C15.1098 8.08191 14.9466 8.35344 15.0136 8.62133C15.0806 8.88906 15.3517 9.0519 15.6195 8.98525L15.6221 8.9846L15.6355 8.98142C15.6481 8.97848 15.6679 8.97395 15.6944 8.9682C15.7475 8.9567 15.8274 8.94032 15.9303 8.92195C16.1364 8.88515 16.4332 8.84056 16.7902 8.81081Z" fill="black"/>
<path d="M15.4976 10.4955C15.3774 10.015 15.3775 10.015 15.3777 10.0149L15.3787 10.0147L15.3807 10.0142L15.3868 10.0127L15.4078 10.0077C15.4255 10.0036 15.4506 9.99783 15.4826 9.99088C15.5467 9.97699 15.6387 9.95821 15.7545 9.93752C15.986 9.89619 16.3141 9.84702 16.7072 9.81426C17.489 9.7491 18.5484 9.74706 19.62 10.015C19.8879 10.082 20.0507 10.3534 19.9838 10.6213C19.9168 10.8892 19.6453 11.0521 19.3774 10.9851C18.449 10.753 17.5084 10.751 16.7902 10.8108C16.4332 10.8406 16.1364 10.8851 15.9303 10.9219C15.8274 10.9403 15.7475 10.9567 15.6944 10.9682C15.6679 10.974 15.6481 10.9785 15.6355 10.9814L15.6221 10.9846L15.62 10.9851C15.3522 11.0518 15.0806 10.8891 15.0136 10.6213C14.9466 10.3534 15.1098 10.0819 15.3777 10.0149L15.4976 10.4955Z" fill="black"/>
<path fill-rule="evenodd" clip-rule="evenodd" d="M17.4926 12.5C18.4283 12.5 19.2544 13.1723 19.3795 14.1281C19.4275 14.4944 19.4712 14.8967 19.4861 15.2391C19.5521 16.7543 19.3671 18.8028 19.2355 20.0116C19.1422 20.8693 18.4146 21.5 17.5645 21.5C16.7483 21.5 16.0368 20.9177 15.9089 20.0951C15.7223 18.8947 15.4438 16.7927 15.51 15.2396C15.5228 14.938 15.5479 14.585 15.5754 14.2503C15.6576 13.2479 16.5024 12.5 17.4926 12.5ZM18.388 14.258C18.3317 13.8278 17.9548 13.5 17.4926 13.5C17.0073 13.5 16.6104 13.8639 16.572 14.3321C16.545 14.6614 16.5211 14.9996 16.5091 15.2821C16.4476 16.7259 16.7103 18.7399 16.897 19.9415C16.9467 20.261 17.2249 20.5 17.5645 20.5C17.9169 20.5 18.2046 20.2412 18.2414 19.9034C18.3729 18.6947 18.5494 16.7139 18.4871 15.2826C18.474 14.983 18.4346 14.614 18.388 14.258Z" fill="black"/>
<path fill-rule="evenodd" clip-rule="evenodd" d="M20.1679 1.58155C19.6465 0.574935 18.6006 0 17.4983 0C16.3965 0 15.3509 0.574411 14.8293 1.58047C14.4666 2.28021 14.0295 3.19196 13.6739 4.13965C13.3212 5.07948 13.0345 6.09104 12.9991 6.98011C12.8286 11.2614 13.3186 17.0955 13.671 20.5688C13.8706 22.5355 15.5345 24 17.4995 24C19.4637 24 21.1273 22.5368 21.3275 20.5708C21.6812 17.0975 22.1726 11.2614 21.9982 6.97966C21.9621 6.09103 21.6752 5.07991 21.3227 4.14032C20.9671 3.19288 20.5304 2.28131 20.1679 1.58155ZM17.4983 1C18.2588 1 18.9446 1.39407 19.28 2.04153C19.632 2.721 20.0497 3.59433 20.3864 4.49165C20.7261 5.3968 20.9694 6.2903 20.9991 7.02034C21.1702 11.2235 20.6863 16.9962 20.3326 20.4695C20.1856 21.9132 18.9626 23 17.4995 23C16.0358 23 14.8124 21.9122 14.6659 20.4678C14.3135 16.9946 13.8309 11.2234 13.9983 7.01989C14.0273 6.28987 14.2704 5.39631 14.6101 4.491C14.9469 3.59356 15.3649 2.72014 15.7171 2.04073C16.0526 1.39371 16.738 1 17.4983 1Z" fill="black"/>
</svg>
