<svg width="24" height="24" viewBox="0 0 24 24" fill="none" xmlns="http://www.w3.org/2000/svg">
<path fill-rule="evenodd" clip-rule="evenodd" d="M15 0C11.691 0 9 2.691 9 6V6.051C6.756 6.303 5 8.189 5 10.5V11.5C5 11.776 5.224 12 5.5 12H13.5C13.776 12 14 11.776 14 11.5V10.5C14 8.189 12.244 6.303 10 6.051V6C10 3.243 12.243 1 15 1C17.757 1 20 3.243 20 6V24H21V6C21 2.691 18.309 0 15 0ZM13 10.5V11H6V10.5C6 8.57 7.57 7 9.5 7C11.43 7 13 8.57 13 10.5Z" fill="black"/>
<path d="M9.5 14.5C9.224 14.5 9 14.724 9 15V17C9 17.276 9.224 17.5 9.5 17.5C9.776 17.5 10 17.276 10 17V15C10 14.724 9.776 14.5 9.5 14.5Z" fill="black"/>
<path d="M9 21C9 20.724 9.224 20.5 9.5 20.5C9.776 20.5 10 20.724 10 21V23C10 23.276 9.776 23.5 9.5 23.5C9.224 23.5 9 23.276 9 23V21Z" fill="black"/>
<path d="M13.678 16.947L13.362 14.971C13.319 14.699 13.065 14.513 12.789 14.557C12.517 14.6 12.331 14.856 12.374 15.129L12.69 17.105C12.729 17.351 12.941 17.526 13.183 17.526C13.209 17.526 13.236 17.524 13.263 17.52C13.536 17.477 13.722 17.22 13.678 16.947Z" fill="black"/>
<path d="M13.323 21.054C13.28 20.781 13.465 20.525 13.738 20.482C14.009 20.436 14.267 20.625 14.31 20.895L14.625 22.872C14.668 23.144 14.483 23.401 14.21 23.444C14.184 23.448 14.157 23.45 14.131 23.45C13.889 23.45 13.677 23.276 13.638 23.029L13.323 21.054Z" fill="black"/>
<path d="M6.128 14.558C5.854 14.513 5.599 14.7 5.555 14.972L5.239 16.948C5.195 17.22 5.381 17.477 5.654 17.521C5.68099 17.525 5.707 17.527 5.734 17.527C5.975 17.527 6.188 17.352 6.227 17.106L6.543 15.13C6.586 14.857 6.4 14.601 6.128 14.558Z" fill="black"/>
<path d="M4.607 20.896C4.651 20.624 4.909 20.439 5.18 20.482C5.45299 20.525 5.638 20.782 5.595 21.054L5.279 23.03C5.24 23.276 5.028 23.451 4.786 23.451C4.759 23.451 4.733 23.449 4.706 23.445C4.43299 23.401 4.24799 23.144 4.291 22.872L4.607 20.896Z" fill="black"/>
</svg>
