<svg width="24" height="24" viewBox="0 0 24 24" fill="none" xmlns="http://www.w3.org/2000/svg">
<path fill-rule="evenodd" clip-rule="evenodd" d="M20.5037 9.092L21.3107 10.101C21.4317 10.192 21.5107 10.337 21.5097 10.5C21.5097 10.776 21.2857 11 21.0097 11H2.98965C2.79765 11 2.62265 10.89 2.53965 10.717C2.45665 10.544 2.47965 10.338 2.59965 10.188L3.47465 9.092C5.05365 7.118 7.22365 5.788 9.63365 5.259L10.5347 3.292C10.6167 3.114 10.7937 3 10.9897 3H11.4897V1.5C11.4897 1.224 11.7127 1 11.9897 1C12.2667 1 12.4897 1.224 12.4897 1.5V3H12.9897C13.1857 3 13.3637 3.114 13.4437 3.292L14.3447 5.259C16.7547 5.788 18.9247 7.118 20.5037 9.092ZM13.1567 5.065L12.6687 4H11.3107L10.8227 5.065C11.2077 5.024 11.5957 5 11.9897 5C12.3837 5 12.7717 5.024 13.1567 5.065ZM4.25765 9.717L4.03065 10H19.9497L19.7227 9.717C17.8337 7.354 15.0137 6 11.9897 6C8.96565 6 6.14665 7.354 4.25765 9.717Z" fill="black"/>
<path d="M11.4897 13.5C11.4897 13.224 11.7137 13 11.9897 13C12.2667 13 12.4897 13.224 12.4897 13.5V15C12.4897 15.276 12.2657 15.5 11.9897 15.5C11.7137 15.5 11.4897 15.276 11.4897 15V13.5Z" fill="black"/>
<path d="M11.4897 17C11.4897 16.724 11.7137 16.5 11.9897 16.5C12.2667 16.5 12.4897 16.724 12.4897 17V18.5C12.4897 18.776 12.2657 19 11.9897 19C11.7137 19 11.4897 18.776 11.4897 18.5V17Z" fill="black"/>
<path d="M11.9897 20C11.7137 20 11.4897 20.224 11.4897 20.5V22C11.4897 22.276 11.7137 22.5 11.9897 22.5C12.2657 22.5 12.4897 22.276 12.4897 22V20.5C12.4897 20.224 12.2667 20 11.9897 20Z" fill="black"/>
<path d="M16.4427 13.289L17.0767 14.648C17.1937 14.898 17.0857 15.196 16.8347 15.313C16.7667 15.344 16.6947 15.36 16.6237 15.36C16.4347 15.36 16.2547 15.253 16.1697 15.071L15.5357 13.711C15.4197 13.461 15.5277 13.164 15.7777 13.047C16.0287 12.931 16.3257 13.039 16.4427 13.289Z" fill="black"/>
<path d="M18.5567 17.82L17.9227 16.46C17.8057 16.21 17.5097 16.102 17.2577 16.218C17.0077 16.334 16.8997 16.632 17.0157 16.883L17.6497 18.243C17.7347 18.425 17.9147 18.532 18.1037 18.532C18.1737 18.532 18.2467 18.517 18.3147 18.485C18.5647 18.368 18.6737 18.071 18.5567 17.82Z" fill="black"/>
<path d="M18.7367 19.391C18.9867 19.275 19.2847 19.383 19.4017 19.633L20.0357 20.994C20.1517 21.245 20.0437 21.542 19.7937 21.659C19.7257 21.69 19.6537 21.705 19.5827 21.705C19.3937 21.705 19.2137 21.598 19.1287 21.416L18.4947 20.056C18.3787 19.805 18.4867 19.508 18.7367 19.391Z" fill="black"/>
<path d="M8.20165 13.047C7.95165 12.932 7.65465 13.039 7.53665 13.289L6.90265 14.648C6.78565 14.898 6.89465 15.196 7.14465 15.312C7.21265 15.343 7.28465 15.359 7.35565 15.359C7.54365 15.359 7.72465 15.252 7.80965 15.07L8.44365 13.71C8.55965 13.461 8.45165 13.164 8.20165 13.047Z" fill="black"/>
<path d="M6.05665 16.461C6.17365 16.211 6.46965 16.103 6.72165 16.219C6.97165 16.335 7.08065 16.633 6.96365 16.884L6.32965 18.244C6.24465 18.426 6.06365 18.533 5.87565 18.533C5.80465 18.533 5.73265 18.518 5.66465 18.486C5.41465 18.369 5.30565 18.071 5.42265 17.821L6.05665 16.461Z" fill="black"/>
<path d="M5.24365 19.391C4.99365 19.277 4.69665 19.383 4.57865 19.633L3.94465 20.992C3.82765 21.243 3.93665 21.54 4.18665 21.657C4.25465 21.688 4.32665 21.703 4.39765 21.703C4.58565 21.703 4.76665 21.596 4.85165 21.414L5.48565 20.054C5.60165 19.805 5.49365 19.507 5.24365 19.391Z" fill="black"/>
<path d="M14.5867 14.88C14.6457 15.151 14.4767 15.417 14.2067 15.477C14.1707 15.484 14.1337 15.488 14.0977 15.489C13.8677 15.489 13.6617 15.33 13.6097 15.097L13.2847 13.632C13.2257 13.361 13.3947 13.095 13.6647 13.035C13.9337 12.977 14.2017 13.145 14.2617 13.415L14.5867 14.88Z" fill="black"/>
<path d="M14.9647 18.894C15.2347 18.834 15.4037 18.567 15.3447 18.297L15.0197 16.833C14.9597 16.563 14.6937 16.392 14.4227 16.454C14.1527 16.514 13.9837 16.781 14.0427 17.05L14.3677 18.514C14.4197 18.747 14.6257 18.906 14.8557 18.906C14.8907 18.905 14.9277 18.901 14.9647 18.894Z" fill="black"/>
<path d="M15.1817 19.869C15.4497 19.809 15.7177 19.98 15.7777 20.25L16.1017 21.714C16.1617 21.984 15.9917 22.25 15.7217 22.31C15.6857 22.318 15.6497 22.322 15.6137 22.322C15.3837 22.322 15.1777 22.163 15.1257 21.93L14.8017 20.465C14.7417 20.196 14.9117 19.929 15.1817 19.869Z" fill="black"/>
<path d="M10.3147 13.035C10.0417 12.977 9.77765 13.145 9.71765 13.415L9.39365 14.88C9.33365 15.151 9.50365 15.417 9.77365 15.477C9.81065 15.485 9.84665 15.489 9.88265 15.489C10.1117 15.489 10.3187 15.33 10.3707 15.097L10.6957 13.632C10.7547 13.361 10.5847 13.095 10.3147 13.035Z" fill="black"/>
<path d="M8.96065 16.832C9.02065 16.563 9.28365 16.392 9.55765 16.453C9.82665 16.513 9.99665 16.78 9.93765 17.049L9.61265 18.513C9.56065 18.746 9.35365 18.905 9.12465 18.905C9.08865 18.905 9.05265 18.901 9.01565 18.893C8.74565 18.833 8.57565 18.566 8.63565 18.296L8.96065 16.832Z" fill="black"/>
<path d="M8.79965 19.869C8.53165 19.809 8.26265 19.98 8.20365 20.25L7.87965 21.715C7.81965 21.985 7.99065 22.251 8.25965 22.311C8.29565 22.319 8.33265 22.323 8.36765 22.323C8.59665 22.323 8.80365 22.164 8.85565 21.931L9.17965 20.466C9.23965 20.196 9.06865 19.929 8.79965 19.869Z" fill="black"/>
</svg>
