<svg width="24" height="24" viewBox="0 0 24 24" fill="none" xmlns="http://www.w3.org/2000/svg">
<path d="M11.5 0H12.5V24H11.5V0Z" fill="black"/>
<path fill-rule="evenodd" clip-rule="evenodd" d="M9 4.5C9 6.43 7.43 8 5.5 8C3.57 8 2 6.43 2 4.5C2 2.57 3.57 1 5.5 1C7.43 1 9 2.57 9 4.5ZM8 4.5C8 3.122 6.878 2 5.5 2C4.122 2 3 3.122 3 4.5C3 5.878 4.122 7 5.5 7C6.878 7 8 5.878 8 4.5Z" fill="black"/>
<path fill-rule="evenodd" clip-rule="evenodd" d="M18.5 8C20.43 8 22 6.43 22 4.5C22 2.57 20.43 1 18.5 1C16.57 1 15 2.57 15 4.5C15 6.43 16.57 8 18.5 8ZM18.5 2C19.878 2 21 3.122 21 4.5C21 5.878 19.878 7 18.5 7C17.122 7 16 5.878 16 4.5C16 3.122 17.122 2 18.5 2Z" fill="black"/>
<path fill-rule="evenodd" clip-rule="evenodd" d="M14 9C13.724 9 13.5 9.224 13.5 9.5C13.5 13.485 14.482 16.038 16.5 17.288V23.5C16.5 23.776 16.724 24 17 24H20C20.276 24 20.5 23.776 20.5 23.5V17.291C22.518 16.062 23.5 13.509 23.5 9.5C23.5 9.224 23.276 9 23 9H14ZM19.766 16.558C19.603 16.645 19.5 16.815 19.5 17V23H17.5V17C17.5 16.816 17.399 16.648 17.238 16.561C15.479 15.609 14.583 13.46 14.505 10H22.494C22.418 13.48 21.523 15.629 19.766 16.558Z" fill="black"/>
<path fill-rule="evenodd" clip-rule="evenodd" d="M5.5 8.5C1.81 8.5 0.5 13.887 0.5 18.5C0.5 18.776 0.724 19 1 19H3.5V23.5C3.5 23.776 3.724 24 4 24H7C7.276 24 7.5 23.776 7.5 23.5V19H10C10.276 19 10.5 18.776 10.5 18.5C10.5 13.887 9.19 8.5 5.5 8.5ZM7 18C6.724 18 6.5 18.224 6.5 18.5V23H4.5V18.5C4.5 18.224 4.276 18 4 18H1.505C1.594 13.69 2.84 9.5 5.5 9.5C8.16 9.5 9.406 13.69 9.495 18H7Z" fill="black"/>
</svg>
