<svg width="24" height="24" viewBox="0 0 24 24" fill="none" xmlns="http://www.w3.org/2000/svg">
<path fill-rule="evenodd" clip-rule="evenodd" d="M10 4C10 6.206 8.206 8 6 8C3.795 8 2 6.206 2 4C2 1.794 3.794 0 6 0C8.206 0 10 1.794 10 4ZM9 4C9 2.346 7.654 1 6 1C4.346 1 3 2.346 3 4C3 5.654 4.346 7 6 7C7.654 7 9 5.654 9 4Z" fill="black"/>
<path fill-rule="evenodd" clip-rule="evenodd" d="M0 9.5C0 9.224 0.224 9 0.5 9H11.5C11.777 9 12 9.224 12 9.5C12 13.053 10.729 15.869 8.5 17.283V23.5C8.5 23.776 8.277 24 8 24H4C3.724 24 3.5 23.776 3.5 23.5V17.283C1.271 15.87 0 13.055 0 9.5ZM7.5 17C7.5 16.82 7.597 16.654 7.753 16.565C9.712 15.451 10.878 13.074 10.991 10H1.01C1.123 13.075 2.289 15.452 4.247 16.565C4.403 16.654 4.5 16.82 4.5 17V23H7.5V17Z" fill="black"/>
<path fill-rule="evenodd" clip-rule="evenodd" d="M18 8C20.206 8 22 6.206 22 4C22 1.794 20.206 0 18 0C15.794 0 14 1.794 14 4C14 6.206 15.795 8 18 8ZM18 1C19.654 1 21 2.346 21 4C21 5.654 19.654 7 18 7C16.346 7 15 5.654 15 4C15 2.346 16.346 1 18 1Z" fill="black"/>
<path fill-rule="evenodd" clip-rule="evenodd" d="M12 18.5C12 13.08 14.748 8.5 18 8.5C21.253 8.5 24 13.08 24 18.5C24 18.776 23.776 19 23.5 19H20.5V23.5C20.5 23.776 20.276 24 20 24H16C15.724 24 15.5 23.776 15.5 23.5V19H12.5C12.224 19 12 18.776 12 18.5ZM19.5 18.5C19.5 18.224 19.724 18 20 18H22.992C22.836 13.417 20.571 9.5 18 9.5C15.429 9.5 13.163 13.417 13.008 18H16C16.276 18 16.5 18.224 16.5 18.5V23H19.5V18.5Z" fill="black"/>
</svg>
