<svg width="24" height="24" viewBox="0 0 24 24" fill="none" xmlns="http://www.w3.org/2000/svg">
<path fill-rule="evenodd" clip-rule="evenodd" d="M14.588 8.367L15.397 11.292C15.434 11.36 15.458 11.435 15.459 11.517L15.694 12.368C15.767 12.633 15.611 12.909 15.345 12.982C15.083 13.058 14.804 12.9 14.73 12.633L14.561 12.023H13.65L13.481 12.634C13.42 12.854 13.219 13 13 13C12.956 13 12.911 12.994 12.867 12.981C12.601 12.908 12.444 12.633 12.518 12.366L12.755 11.511C12.757 11.432 12.78 11.359 12.815 11.293L13.625 8.366C13.685 8.15 13.882 8 14.107 8C14.332 8 14.529 8.15 14.588 8.367ZM14.107 10.376L13.928 11.022H14.286L14.107 10.376Z" fill="black"/>
<path d="M5.51799 10.004C5.13499 9.902 4.99999 9.771 4.99999 9.499C4.99999 9.224 5.19599 9 5.43799 9C5.66699 9 5.85899 9.204 5.87499 9.466C5.88999 9.741 6.12699 9.954 6.40299 9.935C6.67899 9.918 6.88899 9.682 6.87199 9.406C6.82499 8.617 6.19499 8 5.43799 8C4.64499 8 3.99999 8.673 3.99999 9.499C3.99999 10.018 4.21899 10.694 5.35599 10.996C5.73799 11.094 5.87299 11.225 5.87299 11.499C5.87299 11.775 5.67699 12 5.43699 12C5.20799 12 5.01499 11.795 4.99899 11.533C4.98299 11.257 4.73599 11.033 4.46999 11.063C4.19499 11.08 3.98399 11.316 4.00099 11.591C4.04799 12.382 4.67899 13 5.43699 13C6.22899 13 6.87399 12.326 6.87399 11.499C6.87299 11.071 6.70799 10.311 5.51799 10.004Z" fill="black"/>
<path fill-rule="evenodd" clip-rule="evenodd" d="M8.49999 8H9.74999C10.715 8 11.5 8.785 11.5 9.75C11.5 10.715 10.715 11.5 9.74999 11.5H8.99999V12.5C8.99999 12.776 8.77599 13 8.49999 13C8.22399 13 7.99999 12.776 7.99999 12.5V8.5C7.99999 8.224 8.22399 8 8.49999 8ZM8.99999 10.5H9.74999C10.164 10.5 10.5 10.163 10.5 9.75C10.5 9.337 10.164 9 9.74999 9H8.99999V10.5Z" fill="black"/>
<path fill-rule="evenodd" clip-rule="evenodd" d="M1.43799 0H22.5C22.776 0 23 0.224 23 0.5V23.5C23 23.776 22.776 24 22.5 24C22.224 24 22 23.776 22 23.5V1H16V4H16.5C17.878 4 19 5.121 19 6.5V14.5C19 15.879 17.878 17 16.5 17H3.49999C2.12199 17 0.999988 15.879 0.999988 14.5V6.5C0.999988 5.121 2.12199 4 3.49999 4H3.99999V1H1.43799C1.16099 1 0.937988 0.776 0.937988 0.5C0.937988 0.224 1.16199 0 1.43799 0ZM16.5 16C17.327 16 18 15.327 18 14.5V6.5C18 5.673 17.327 5 16.5 5H3.49999C2.67299 5 1.99999 5.673 1.99999 6.5V14.5C1.99999 15.327 2.67299 16 3.49999 16H16.5ZM4.99999 4H15V1H4.99999V4Z" fill="black"/>
</svg>
