<svg width="24" height="24" viewBox="0 0 24 24" fill="none" xmlns="http://www.w3.org/2000/svg">
<path fill-rule="evenodd" clip-rule="evenodd" d="M12.9999 5.504C12.9869 4.1 12.3909 3.5 11.0049 3.5C10.7299 3.5 10.5049 3.278 10.5029 3.003C10.5009 2.729 10.7179 2.504 10.9929 2.5C12.3759 2.48 12.9949 1.863 12.9999 0.498C13.0009 0.223 13.2249 0 13.4999 0H13.5019C13.7779 0.001 14.0009 0.226 13.9999 0.502C13.9949 1.854 14.6149 2.471 16.0109 2.5C16.2849 2.506 16.5029 2.733 16.4999 3.007C16.4969 3.28 16.2739 3.5 15.9999 3.5H15.9989C14.6819 3.5 14.0699 4.125 13.9999 5.525C13.9859 5.792 13.7659 6 13.4999 6H13.4899C13.2189 5.994 13.0019 5.775 12.9999 5.504ZM14.1419 3C13.8849 2.831 13.6699 2.621 13.4989 2.371C13.3329 2.614 13.1279 2.819 12.8849 2.986C13.1429 3.158 13.3569 3.375 13.5259 3.637C13.6929 3.383 13.8989 3.17 14.1419 3Z" fill="black"/>
<path fill-rule="evenodd" clip-rule="evenodd" d="M21.9966 20.9618C21.997 20.9585 21.9975 20.955 21.9969 20.952L19.9969 0.452C19.9759 0.239 19.8229 0.063 19.6149 0.014C19.4099 -0.035 19.1919 0.052 19.0769 0.233L14.6389 7.233C14.4909 7.466 14.5599 7.775 14.7939 7.923C15.0259 8.07 15.3359 8.002 15.4839 7.768L19.1439 1.997L20.8389 19.371C19.5439 18.581 17.3249 18.127 14.9999 18.025V15.707L15.7069 16.415C16.0989 16.807 16.5789 17.002 17.0599 17.002C17.5409 17.002 18.0219 16.806 18.4139 16.415C19.1979 15.63 19.1979 14.492 18.4139 13.708L14.0279 9.321C14.0315 9.28246 14.0368 9.24431 14.0421 9.20613C14.0515 9.1383 14.0609 9.07038 14.0609 9C14.0609 7.07 12.4909 5.5 10.5609 5.5C8.63094 5.5 7.06094 7.07 7.06094 9C7.06094 9.96 7.45094 10.831 8.07894 11.464C8.07985 11.4649 8.08058 11.466 8.08123 11.4672C8.08165 11.4679 8.08205 11.4687 8.08244 11.4695C8.08344 11.4715 8.08444 11.4735 8.08594 11.475C8.08724 11.4763 8.0889 11.4772 8.09061 11.4782C8.09228 11.4791 8.09399 11.48 8.09546 11.4814C8.09599 11.4819 8.09649 11.4824 8.09694 11.483C8.72994 12.11 9.60094 12.5 10.5609 12.5C10.9329 12.5 11.2839 12.427 11.6199 12.318L13.9999 14.704V18C12.0139 18 10.0149 18.257 8.51194 18.761L11.3619 14.268C11.5099 14.035 11.4409 13.726 11.2079 13.578C10.9739 13.431 10.6659 13.499 10.5179 13.733L6.76794 19.644C6.28394 20.03 5.99994 20.482 5.99994 21C5.99994 22.97 10.0239 24 13.9999 24C17.9759 24 21.9999 22.97 21.9999 21C21.9999 20.9945 21.9989 20.9892 21.9979 20.984C21.9969 20.9787 21.9959 20.9735 21.9959 20.968C21.9959 20.966 21.9963 20.9639 21.9966 20.9618ZM10.5609 6.5C11.0699 6.5 11.5419 6.654 11.9369 6.917L8.47694 10.377C8.21494 9.981 8.06094 9.509 8.06094 9C8.06094 7.622 9.18194 6.5 10.5609 6.5ZM9.18394 11.084L12.6439 7.624C12.9059 8.019 13.0609 8.491 13.0609 9C13.0609 10.378 11.9389 11.5 10.5609 11.5C10.0519 11.5 9.57894 11.346 9.18394 11.084ZM13.7389 10.446L17.7069 14.415C18.0999 14.808 18.0999 15.315 17.7069 15.708C17.3129 16.1 16.8059 16.1 16.4139 15.708L12.5699 11.855C13.0759 11.5 13.4789 11.014 13.7389 10.446ZM13.9999 23C9.72694 23 6.99994 21.815 6.99994 21C6.99994 20.185 9.72694 19 13.9999 19V20H12.9999C12.7239 20 12.4999 20.224 12.4999 20.5C12.4999 20.776 12.7239 21 12.9999 21H15.9999C16.2759 21 16.4999 20.776 16.4999 20.5C16.4999 20.224 16.2759 20 15.9999 20H14.9999V19.025C18.6569 19.19 20.9529 20.23 20.9959 20.979L20.9989 21.008C20.9819 21.823 18.2599 23 13.9999 23Z" fill="black"/>
<path fill-rule="evenodd" clip-rule="evenodd" d="M6.49994 5.5C6.77294 5.5 6.99694 5.28 6.99994 5.007C7.00294 4.732 6.78494 4.506 6.51094 4.5C5.11494 4.471 4.49494 3.854 4.49994 2.502C4.50094 2.226 4.27794 2.001 4.00194 2H3.99994C3.72494 2 3.50094 2.223 3.49994 2.498C3.49494 3.863 2.87594 4.48 1.49294 4.5C1.21794 4.504 1.00094 4.729 1.00294 5.003C1.00494 5.278 1.22994 5.5 1.50494 5.5C2.89094 5.5 3.48694 6.1 3.49994 7.504C3.50194 7.775 3.71894 7.994 3.98994 8H3.99994C4.26594 8 4.48594 7.792 4.49994 7.525C4.56894 6.125 5.18194 5.5 6.49794 5.5H6.49994ZM4.02494 5.637C3.85594 5.375 3.64194 5.158 3.38494 4.985C3.62894 4.819 3.83394 4.613 3.99894 4.371C4.16994 4.621 4.38494 4.831 4.64194 5C4.39794 5.17 4.19194 5.383 4.02494 5.637Z" fill="black"/>
</svg>
