<svg width="24" height="24" viewBox="0 0 24 24" fill="none" xmlns="http://www.w3.org/2000/svg">
<path fill-rule="evenodd" clip-rule="evenodd" d="M11.9999 0C12.276 0 12.4999 0.223858 12.4999 0.5V3.79289L14.1463 2.14645C14.3416 1.95118 14.6582 1.95118 14.8535 2.14645C15.0487 2.34171 15.0487 2.65829 14.8535 2.85355L12.4999 5.20711V7H13.4999C13.776 7 13.9999 7.22386 13.9999 7.5C13.9999 7.77614 13.776 8 13.4999 8H12.4999V11.5C12.4999 11.7761 12.276 12 11.9999 12C11.7238 12 11.4999 11.7761 11.4999 11.5V8H10.4999C10.2238 8 9.9999 7.77614 9.9999 7.5C9.9999 7.22386 10.2238 7 10.4999 7H11.4999V5.20711L9.14635 2.85355C8.95109 2.65829 8.95109 2.34171 9.14635 2.14645C9.34161 1.95118 9.65819 1.95118 9.85345 2.14645L11.4999 3.79289V0.5C11.4999 0.223858 11.7238 0 11.9999 0Z" fill="black"/>
<path fill-rule="evenodd" clip-rule="evenodd" d="M22.3922 6.00028C22.5303 6.23943 22.4483 6.54522 22.2092 6.6833L19.3575 8.32974L21.6066 8.93238C21.8733 9.00385 22.0316 9.27802 21.9601 9.54476C21.8886 9.81149 21.6145 9.96978 21.3477 9.89831L18.1327 9.03685L16.58 9.9333L17.08 10.7993C17.2181 11.0385 17.1362 11.3443 16.897 11.4823C16.6579 11.6204 16.3521 11.5385 16.214 11.2993L15.714 10.4333L12.6829 12.1833C12.4438 12.3214 12.138 12.2391 11.9999 12C11.8618 11.7609 11.9438 11.4553 12.1829 11.3173L15.214 9.56727L14.714 8.70125C14.5759 8.4621 14.6579 8.1563 14.897 8.01823C15.1362 7.88016 15.442 7.9621 15.58 8.20125L16.08 9.06727L17.6327 8.17082L18.4942 4.95581C18.5656 4.68908 18.8398 4.53079 19.1066 4.60226C19.3733 4.67373 19.5316 4.9479 19.4601 5.21463L18.8575 7.46372L21.7092 5.81727C21.9483 5.6792 22.2541 5.76114 22.3922 6.00028Z" fill="black"/>
<path fill-rule="evenodd" clip-rule="evenodd" d="M22.3922 18.0003C22.2541 18.2394 21.9483 18.3214 21.7092 18.1833L18.8575 16.5368L19.4601 18.7859C19.5316 19.0527 19.3733 19.3268 19.1066 19.3983C18.8398 19.4698 18.5656 19.3115 18.4942 19.0448L17.6327 15.8297L16.08 14.9333L15.58 15.7993C15.442 16.0385 15.1362 16.1204 14.897 15.9823C14.6579 15.8443 14.5759 15.5385 14.714 15.2993L15.214 14.4333L12.1829 12.6833C11.9438 12.5452 11.8618 12.2391 11.9999 12C12.138 11.7609 12.4438 11.6792 12.6829 11.8173L15.714 13.5673L16.214 12.7012C16.3521 12.4621 16.6579 12.3802 16.897 12.5182C17.1362 12.6563 17.2181 12.9621 17.08 13.2012L16.58 14.0673L18.1327 14.9637L21.3477 14.1023C21.6145 14.0308 21.8886 14.1891 21.9601 14.4558C22.0316 14.7225 21.8733 14.9967 21.6066 15.0682L19.3575 15.6708L22.2092 17.3173C22.4483 17.4553 22.5303 17.7611 22.3922 18.0003Z" fill="black"/>
<path fill-rule="evenodd" clip-rule="evenodd" d="M11.9999 24.0001C11.7238 24.0001 11.4999 23.7762 11.4999 23.5001V20.2072L9.85345 21.8537C9.65819 22.0489 9.34161 22.0489 9.14635 21.8537C8.95109 21.6584 8.95109 21.3418 9.14635 21.1466L11.4999 18.793V17.0001H10.4999C10.2238 17.0001 9.9999 16.7762 9.9999 16.5001C9.9999 16.224 10.2238 16.0001 10.4999 16.0001H11.4999V12.5001C11.4999 12.224 11.7238 12 11.9999 12C12.276 12 12.4999 12.224 12.4999 12.5001V16.0001H13.4999C13.776 16.0001 13.9999 16.224 13.9999 16.5001C13.9999 16.7762 13.776 17.0001 13.4999 17.0001H12.4999V18.793L14.8535 21.1466C15.0487 21.3418 15.0487 21.6584 14.8535 21.8537C14.6582 22.0489 14.3416 22.0489 14.1463 21.8537L12.4999 20.2072V23.5001C12.4999 23.7762 12.276 24.0001 11.9999 24.0001Z" fill="black"/>
<path fill-rule="evenodd" clip-rule="evenodd" d="M1.6076 17.9999C1.46953 17.7608 1.55146 17.455 1.79061 17.3169L4.64234 15.6705L2.39325 15.0678C2.12652 14.9964 1.96823 14.7222 2.0397 14.4555C2.11117 14.1887 2.38534 14.0304 2.65207 14.1019L5.86708 14.9634L7.41978 14.0669L6.91978 13.2009C6.7817 12.9617 6.86364 12.656 7.10279 12.5179C7.34194 12.3798 7.64773 12.4617 7.7858 12.7009L8.2858 13.5669L11.3169 11.8169C11.556 11.6788 11.8618 11.7609 11.9999 12C12.138 12.2391 12.056 12.5449 11.8169 12.6829L8.7858 14.4329L9.2858 15.299C9.42387 15.5381 9.34194 15.8439 9.10279 15.982C8.86364 16.1201 8.55785 16.0381 8.41978 15.799L7.91978 14.9329L6.36708 15.8294L5.50562 19.0444C5.43415 19.3111 5.15999 19.4694 4.89325 19.398C4.62652 19.3265 4.46823 19.0523 4.5397 18.7856L5.14234 16.5365L2.29061 18.1829C2.05146 18.321 1.74567 18.2391 1.6076 17.9999Z" fill="black"/>
<path fill-rule="evenodd" clip-rule="evenodd" d="M1.6076 5.99993C1.74567 5.76078 2.05146 5.67885 2.29061 5.81692L5.14234 7.46337L4.5397 5.21428C4.46823 4.94754 4.62652 4.67338 4.89325 4.6019C5.15999 4.53043 5.43415 4.68872 5.50562 4.95546L6.36708 8.17047L7.91978 9.06692L8.41978 8.20089C8.55785 7.96175 8.86364 7.87981 9.10279 8.01788C9.34194 8.15595 9.42387 8.46175 9.2858 8.70089L8.7858 9.56692L11.8169 11.3169C12.056 11.455 12.138 11.7609 11.9999 12C11.8618 12.2391 11.556 12.321 11.3169 12.1829L8.2858 10.4329L7.7858 11.299C7.64773 11.5381 7.34194 11.6201 7.10279 11.482C6.86364 11.3439 6.7817 11.0381 6.91978 10.799L7.41978 9.93294L5.86708 9.0365L2.65207 9.89796C2.38534 9.96943 2.11117 9.81114 2.0397 9.5444C1.96823 9.27767 2.12652 9.0035 2.39325 8.93203L4.64234 8.32939L1.79061 6.68294C1.55146 6.54487 1.46953 6.23908 1.6076 5.99993Z" fill="black"/>
</svg>
