<svg width="24" height="24" viewBox="0 0 24 24" fill="none" xmlns="http://www.w3.org/2000/svg">
<path fill-rule="evenodd" clip-rule="evenodd" d="M17.5 4C19.9853 4 22 6.01472 22 8.5V9.55011C23.1411 9.78199 24 10.7901 24 12V16.5C24 17.7095 23.1411 18.7184 22 18.95V20.5C22 20.7761 21.7761 21 21.5 21C21.2239 21 21 20.7761 21 20.5V19H3V20.5C3 20.7761 2.77614 21 2.5 21C2.22386 21 2 20.7761 2 20.5V18.95C0.85888 18.7184 0 17.7095 0 16.5V12C0 10.7901 0.85893 9.78199 2 9.55011V8.5C2 6.01472 4.01472 4 6.5 4H17.5ZM3 9.55001V8.5C3 6.567 4.567 5 6.5 5H11.5V13H5V12C5 10.7905 4.14112 9.78164 3 9.55001ZM12.5 5V13H19V12C19 10.7905 19.8589 9.78164 21 9.55001V8.5C21 6.567 19.433 5 17.5 5H12.5ZM21.5 10.5C20.6716 10.5 20 11.1716 20 12V13.5C20 13.7761 19.7761 14 19.5 14H4.5C4.22386 14 4 13.7761 4 13.5V12C4 11.1716 3.32843 10.5 2.5 10.5C2.39734 10.5 2.29758 10.5102 2.20152 10.5296C1.51604 10.6677 1 11.2742 1 12V16.5C1 17.3284 1.67157 18 2.5 18H21.5C22.3284 18 23 17.3284 23 16.5V12C23 11.2742 22.484 10.6677 21.7985 10.5296C21.7024 10.5102 21.6027 10.5 21.5 10.5Z" fill="black"/>
</svg>
