<svg width="24" height="24" viewBox="0 0 24 24" fill="none" xmlns="http://www.w3.org/2000/svg">
<path d="M8.5 8C8.5 8.27614 8.27614 8.5 8 8.5C7.72386 8.5 7.5 8.27614 7.5 8C7.5 7.72386 7.72386 7.5 8 7.5C8.27614 7.5 8.5 7.72386 8.5 8Z" fill="black"/>
<path d="M12.5 8C12.5 8.27614 12.2761 8.5 12 8.5C11.7239 8.5 11.5 8.27614 11.5 8C11.5 7.72386 11.7239 7.5 12 7.5C12.2761 7.5 12.5 7.72386 12.5 8Z" fill="black"/>
<path d="M16 8.5C16.2761 8.5 16.5 8.27614 16.5 8C16.5 7.72386 16.2761 7.5 16 7.5C15.7239 7.5 15.5 7.72386 15.5 8C15.5 8.27614 15.7239 8.5 16 8.5Z" fill="black"/>
<path d="M16.5 11C16.5 11.2761 16.2761 11.5 16 11.5C15.7239 11.5 15.5 11.2761 15.5 11C15.5 10.7239 15.7239 10.5 16 10.5C16.2761 10.5 16.5 10.7239 16.5 11Z" fill="black"/>
<path d="M12 11.5C12.2761 11.5 12.5 11.2761 12.5 11C12.5 10.7239 12.2761 10.5 12 10.5C11.7239 10.5 11.5 10.7239 11.5 11C11.5 11.2761 11.7239 11.5 12 11.5Z" fill="black"/>
<path d="M8.5 11C8.5 11.2761 8.27614 11.5 8 11.5C7.72386 11.5 7.5 11.2761 7.5 11C7.5 10.7239 7.72386 10.5 8 10.5C8.27614 10.5 8.5 10.7239 8.5 11Z" fill="black"/>
<path fill-rule="evenodd" clip-rule="evenodd" d="M2.50167 7.0412C2.50056 7.02761 2.5 7.01387 2.5 7V6.5C2.5 5.11929 3.61929 4 5 4H19C20.3807 4 21.5 5.11929 21.5 6.5V7C21.5 7.01387 21.4994 7.02762 21.4983 7.0412C22.918 7.27855 24 8.51291 24 10V17.5001C24 17.7295 23.8439 17.9295 23.6213 17.9852L20.226 18.834L20.9472 20.2764C21.0707 20.5234 20.9706 20.8237 20.7236 20.9472C20.4766 21.0707 20.1763 20.9706 20.0528 20.7236L19.191 19.0001H4.80901L3.94721 20.7236C3.82371 20.9706 3.52337 21.0707 3.27638 20.9472C3.0294 20.8237 2.92929 20.5234 3.05279 20.2764L3.77402 18.834L0.378732 17.9852C0.156149 17.9295 0 17.7295 0 17.5001V10C0 8.51292 1.08199 7.27855 2.50167 7.0412ZM3.5 6.5C3.5 5.67157 4.17157 5 5 5H19C19.8284 5 20.5 5.67157 20.5 6.5V7C20.5 7.01387 20.5006 7.02762 20.5017 7.0412C19.082 7.27855 18 8.51291 18 10C18 11.4865 19.0811 12.7205 20.5 12.9585V14.0001H3.5V12.9585C4.91886 12.7205 6 11.4865 6 10C6 8.51292 4.91801 7.27855 3.49833 7.0412C3.49944 7.02761 3.5 7.01387 3.5 7V6.5ZM19.4384 18.0001L23 17.1097V10C23 8.89543 22.1046 8 21 8C19.8954 8 19 8.89543 19 10C19 11.1046 19.8954 12 21 12C21.2761 12 21.5 12.2239 21.5 12.5V14.5001C21.5 14.7762 21.2761 15.0001 21 15.0001H3C2.72386 15.0001 2.5 14.7762 2.5 14.5001V12.5C2.5 12.2239 2.72386 12 3 12C4.10457 12 5 11.1046 5 10C5 8.89543 4.10457 8 3 8C1.89543 8 1 8.89543 1 10V17.1097L4.56155 18.0001H19.4384Z" fill="black"/>
</svg>
