<svg width="24" height="24" viewBox="0 0 24 24" fill="none" xmlns="http://www.w3.org/2000/svg">
<path d="M8 7.5C8.27614 7.5 8.5 7.27614 8.5 7C8.5 6.72386 8.27614 6.5 8 6.5C7.72386 6.5 7.5 6.72386 7.5 7C7.5 7.27614 7.72386 7.5 8 7.5Z" fill="black"/>
<path d="M12 7.5C12.2761 7.5 12.5 7.27614 12.5 7C12.5 6.72386 12.2761 6.5 12 6.5C11.7239 6.5 11.5 6.72386 11.5 7C11.5 7.27614 11.7239 7.5 12 7.5Z" fill="black"/>
<path d="M16.5 7C16.5 7.27614 16.2761 7.5 16 7.5C15.7239 7.5 15.5 7.27614 15.5 7C15.5 6.72386 15.7239 6.5 16 6.5C16.2761 6.5 16.5 6.72386 16.5 7Z" fill="black"/>
<path d="M16 10.5C16.2761 10.5 16.5 10.2761 16.5 10C16.5 9.72386 16.2761 9.5 16 9.5C15.7239 9.5 15.5 9.72386 15.5 10C15.5 10.2761 15.7239 10.5 16 10.5Z" fill="black"/>
<path d="M12.5 10C12.5 10.2761 12.2761 10.5 12 10.5C11.7239 10.5 11.5 10.2761 11.5 10C11.5 9.72386 11.7239 9.5 12 9.5C12.2761 9.5 12.5 9.72386 12.5 10Z" fill="black"/>
<path d="M8 10.5C8.27614 10.5 8.5 10.2761 8.5 10C8.5 9.72386 8.27614 9.5 8 9.5C7.72386 9.5 7.5 9.72386 7.5 10C7.5 10.2761 7.72386 10.5 8 10.5Z" fill="black"/>
<path fill-rule="evenodd" clip-rule="evenodd" d="M2 5.5V9H1.5C0.671573 9 0 9.67157 0 10.5V17.5C0 18.3284 0.671573 19 1.5 19H22.5C23.3284 19 24 18.3284 24 17.5V10.5C24 9.67157 23.3284 9 22.5 9H22V5.5C22 4.11929 20.8807 3 19.5 3H4.5C3.11929 3 2 4.11929 2 5.5ZM4.5 4C3.67157 4 3 4.67157 3 5.5V9H3.5C4.32843 9 5 9.67157 5 10.5V13H19V10.5C19 9.67157 19.6716 9 20.5 9H21V5.5C21 4.67157 20.3284 4 19.5 4H4.5ZM20 10.5C20 10.2239 20.2239 10 20.5 10H22.5C22.7761 10 23 10.2239 23 10.5V17.5C23 17.7761 22.7761 18 22.5 18H1.5C1.22386 18 1 17.7761 1 17.5V10.5C1 10.2239 1.22386 10 1.5 10H3.5C3.77614 10 4 10.2239 4 10.5V13.5C4 13.7761 4.22386 14 4.5 14H19.5C19.7761 14 20 13.7761 20 13.5V10.5Z" fill="black"/>
<path d="M18 20.5C18 20.2239 18.2239 20 18.5 20H21.5C21.7761 20 22 20.2239 22 20.5C22 20.7761 21.7761 21 21.5 21H18.5C18.2239 21 18 20.7761 18 20.5Z" fill="black"/>
<path d="M2.5 20C2.22386 20 2 20.2239 2 20.5C2 20.7761 2.22386 21 2.5 21H5.5C5.77614 21 6 20.7761 6 20.5C6 20.2239 5.77614 20 5.5 20H2.5Z" fill="black"/>
</svg>
