<svg width="24" height="24" viewBox="0 0 24 24" fill="none" xmlns="http://www.w3.org/2000/svg">
<g clip-path="url(#clip0_339_13676)">
<path d="M10 1.5C10 1.776 9.776 2 9.5 2C9.224 2 9 1.776 9 1.5V0.5C9 0.224 9.224 0 9.5 0C9.776 0 10 0.224 10 0.5V1.5Z" fill="black"/>
<path d="M3.5 4.002C3.372 4.002 3.244 3.953 3.146 3.855L2.147 2.856C1.952 2.661 1.952 2.344 2.147 2.149C2.342 1.954 2.659 1.954 2.854 2.149L3.854 3.149C4.049 3.344 4.049 3.661 3.854 3.856C3.756 3.953 3.628 4.002 3.5 4.002Z" fill="black"/>
<path d="M15.5 4C15.628 4 15.756 3.951 15.854 3.854L16.854 2.854C17.049 2.659 17.049 2.342 16.854 2.147C16.659 1.952 16.342 1.952 16.147 2.147L15.147 3.147C14.952 3.342 14.952 3.659 15.147 3.854C15.244 3.951 15.372 4 15.5 4Z" fill="black"/>
<path d="M0.5 9H1.5C1.776 9 2 9.224 2 9.5C2 9.776 1.776 10 1.5 10H0.5C0.224 10 0 9.776 0 9.5C0 9.224 0.224 9 0.5 9Z" fill="black"/>
<path d="M3.363 11.625C3.436 11.831 3.629 11.959 3.835 11.959C3.89 11.959 3.946 11.95 4.002 11.931C4.262 11.839 4.399 11.553 4.307 11.293C4.103 10.718 4 10.114 4 9.5C4 6.468 6.467 4 9.5 4C11.067 4 12.566 4.676 13.612 5.855C13.795 6.062 14.112 6.079 14.318 5.897C14.525 5.713 14.543 5.398 14.36 5.191C13.125 3.799 11.353 3 9.5 3C5.916 3 3 5.916 3 9.5C3 10.228 3.122 10.943 3.363 11.625Z" fill="black"/>
<path fill-rule="evenodd" clip-rule="evenodd" d="M18.937 9.256L23.878 18.151C23.966 18.241 24.02 18.364 24.02 18.5C24.02 18.776 23.796 19 23.52 19H15V23.5C15 23.776 14.776 24 14.5 24H11.5C11.224 24 11 23.776 11 23.5V19H2.5C2.323 19 2.159 18.906 2.069 18.754C1.979 18.601 1.977 18.412 2.063 18.257L7.063 9.257C7.151 9.099 7.318 9 7.5 9H18.5C18.682 9 18.849 9.099 18.937 9.256ZM16.376 18L15.932 16H10.068L9.624 18H16.376ZM10.734 13L10.29 15H15.709L15.265 13H10.734ZM5.017 15H9.266L9.71 13H6.128L5.017 15ZM15.043 12L14.599 10H11.401L10.957 12H15.043ZM19.872 13H16.29L16.734 15H20.983L19.872 13ZM16.068 12H19.317L18.206 10H15.624L16.068 12ZM10.376 10H7.794L6.683 12H9.932L10.376 10ZM9.043 16H4.461L3.35 18H8.599L9.043 16ZM12 23H14V19H12V23ZM16.957 16L17.401 18H22.65L21.539 16H16.957Z" fill="black"/>
</g>
<defs>
<clipPath id="clip0_339_13676">
<rect width="24" height="24" fill="white"/>
</clipPath>
</defs>
</svg>
