<svg width="24" height="24" viewBox="0 0 24 24" fill="none" xmlns="http://www.w3.org/2000/svg">
<path fill-rule="evenodd" clip-rule="evenodd" d="M9.5 8H4.5C4.224 8 4 7.776 4 7.5V5.5C4 5.224 4.224 5 4.5 5H9.5C9.776 5 10 5.224 10 5.5V7.5C10 7.776 9.776 8 9.5 8ZM9 6H5V7H9V6Z" fill="black"/>
<path fill-rule="evenodd" clip-rule="evenodd" d="M8.5 15H7V11C7 10.724 6.776 10.5 6.5 10.5C6.224 10.5 6 10.724 6 11V15H4.5C4.224 15 4 15.224 4 15.5V17.5C4 17.776 4.224 18 4.5 18H6V19C6 19.276 6.224 19.5 6.5 19.5C6.776 19.5 7 19.276 7 19V18H8.5C8.776 18 9 17.776 9 17.5V15.5C9 15.224 8.776 15 8.5 15ZM5 17V16H8V17H5Z" fill="black"/>
<path fill-rule="evenodd" clip-rule="evenodd" d="M13.5 12C13.776 12 14 12.224 14 12.5V14.5C14 14.776 13.776 15 13.5 15H12V19C12 19.276 11.776 19.5 11.5 19.5C11.224 19.5 11 19.276 11 19V15H9.5C9.224 15 9 14.776 9 14.5V12.5C9 12.224 9.224 12 9.5 12H11V11C11 10.724 11.224 10.5 11.5 10.5C11.776 10.5 12 10.724 12 11V12H13.5ZM10 13V14H13V13H10Z" fill="black"/>
<path fill-rule="evenodd" clip-rule="evenodd" d="M18.5 15H17V11C17 10.724 16.776 10.5 16.5 10.5C16.224 10.5 16 10.724 16 11V15H14.5C14.224 15 14 15.224 14 15.5V17.5C14 17.776 14.224 18 14.5 18H16V19C16 19.276 16.224 19.5 16.5 19.5C16.776 19.5 17 19.276 17 19V18H18.5C18.776 18 19 17.776 19 17.5V15.5C19 15.224 18.776 15 18.5 15ZM15 17V16H18V17H15Z" fill="black"/>
<path d="M12.5 7H11.5C11.224 7 11 6.776 11 6.5C11 6.224 11.224 6 11.5 6H12.5C12.776 6 13 6.224 13 6.5C13 6.776 12.776 7 12.5 7Z" fill="black"/>
<path d="M14.5 7H15.5C15.776 7 16 6.776 16 6.5C16 6.224 15.776 6 15.5 6H14.5C14.224 6 14 6.224 14 6.5C14 6.776 14.224 7 14.5 7Z" fill="black"/>
<path d="M18.5 7H17.5C17.224 7 17 6.776 17 6.5C17 6.224 17.224 6 17.5 6H18.5C18.776 6 19 6.224 19 6.5C19 6.776 18.776 7 18.5 7Z" fill="black"/>
<path fill-rule="evenodd" clip-rule="evenodd" d="M20.5 1H22.5C22.776 1 23 1.224 23 1.5V22.5C23 22.776 22.776 23 22.5 23H20.5C20.224 23 20 22.776 20 22.5V22H3V22.5C3 22.776 2.776 23 2.5 23H0.5C0.224 23 0 22.776 0 22.5V1.5C0 1.224 0.224 1 0.5 1H2.5C2.776 1 3 1.224 3 1.5V2H20V1.5C20 1.224 20.224 1 20.5 1ZM1 22H2V2H1V22ZM3 3V21H20V3H3ZM21 22H22V2H21V22Z" fill="black"/>
</svg>
