<svg width="24" height="24" viewBox="0 0 24 24" fill="none" xmlns="http://www.w3.org/2000/svg">
<path fill-rule="evenodd" clip-rule="evenodd" d="M11.7471 8C13.9531 8 15.7471 6.206 15.7471 4C15.7471 1.794 13.9531 0 11.7471 0C9.54113 0 7.74713 1.794 7.74713 4C7.74713 6.206 9.54113 8 11.7471 8ZM11.7471 1C13.4011 1 14.7471 2.346 14.7471 4C14.7471 5.654 13.4011 7 11.7471 7C10.0931 7 8.74713 5.654 8.74713 4C8.74713 2.346 10.0931 1 11.7471 1Z" fill="black"/>
<path fill-rule="evenodd" clip-rule="evenodd" d="M5.74713 9.5C5.74713 13.504 6.72113 14.21 8.74713 15.299V20.5C8.74713 20.776 8.97213 21 9.24713 21H14.2471C14.3801 21 14.5071 20.947 14.6011 20.854C14.6951 20.761 14.7471 20.633 14.7471 20.5V15.299C16.7731 14.209 17.7471 13.504 17.7471 9.5C17.7471 9.224 17.5231 9 17.2471 9H6.24713C5.97113 9 5.74713 9.224 5.74713 9.5ZM16.7421 10C16.6701 13.13 15.8881 13.551 14.2671 14.421L14.0091 14.561C13.8481 14.647 13.7471 14.816 13.7471 15V20H9.74713V15C9.74713 14.816 9.64613 14.647 9.48513 14.561L9.22913 14.422C7.60713 13.552 6.82513 13.131 6.75213 10H16.7421Z" fill="black"/>
<path d="M5.16216 6.62002C4.74316 6.26102 4.52116 5.93702 4.50116 5.65602C4.47316 5.26002 4.84716 4.83502 5.24516 4.38402C5.74016 3.82302 6.30116 3.18602 6.24316 2.36102C6.20216 1.78102 5.86216 1.22502 5.20416 0.662024C4.99516 0.483024 4.68016 0.508024 4.49916 0.717024C4.32016 0.927024 4.34416 1.24202 4.55416 1.42202C4.99216 1.79702 5.22416 2.13702 5.24516 2.43102C5.27409 2.83907 4.89693 3.26702 4.49697 3.72084L4.49082 3.72782C4.00064 4.28489 3.44629 4.91487 3.50416 5.72702C3.54416 6.29302 3.87316 6.83402 4.51216 7.38002C4.60616 7.46102 4.72216 7.50002 4.83716 7.50002C4.97716 7.50002 5.11816 7.44002 5.21716 7.32502C5.39616 7.11502 5.37116 6.80002 5.16216 6.62002Z" fill="black"/>
<path d="M1.49318 3.72402L1.496 3.72083C1.89595 3.26702 2.27312 2.83907 2.24418 2.43102C2.22318 2.13702 1.99118 1.79702 1.55318 1.42202C1.34318 1.24202 1.31918 0.927024 1.49818 0.717024C1.67818 0.508024 1.99318 0.483024 2.20318 0.662024C2.86118 1.22502 3.20118 1.78102 3.24218 2.36102C3.30018 3.18602 2.73918 3.82302 2.24418 4.38402L2.24105 4.38759C1.8462 4.83627 1.47326 5.26007 1.50118 5.65502C1.52118 5.93602 1.74318 6.26002 2.16218 6.61902C2.37118 6.79902 2.39618 7.11402 2.21718 7.32402C2.11818 7.44002 1.97718 7.50002 1.83718 7.50002C1.72218 7.50002 1.60618 7.46102 1.51218 7.38002C0.873183 6.83402 0.544184 6.29302 0.504184 5.72702C0.446184 4.91202 1.00218 4.28102 1.49318 3.72402Z" fill="black"/>
<path d="M22.4082 6.62002C21.9892 6.26202 21.7662 5.93802 21.7472 5.65602C21.7192 5.26002 22.0932 4.83502 22.4902 4.38502L22.4917 4.38327C22.9863 3.8217 23.5461 3.18616 23.4882 2.36102C23.4472 1.78102 23.1072 1.22602 22.4492 0.662024C22.2392 0.483024 21.9242 0.508024 21.7442 0.717024C21.5652 0.927024 21.5892 1.24202 21.7992 1.42202C22.2372 1.79702 22.4692 2.13702 22.4902 2.43102C22.519 2.83809 22.1437 3.26496 21.7458 3.71756L21.7368 3.72783C21.2466 4.28489 20.6923 4.91488 20.7502 5.72702C20.7902 6.29302 21.1192 6.83402 21.7582 7.38002C21.8522 7.46102 21.9682 7.50002 22.0832 7.50002C22.2242 7.50002 22.3642 7.44002 22.4632 7.32502C22.6422 7.11502 22.6182 6.80002 22.4082 6.62002Z" fill="black"/>
<path d="M18.7472 5.65602C18.7662 5.93802 18.9892 6.26202 19.4082 6.62002C19.6182 6.80002 19.6422 7.11502 19.4632 7.32502C19.3642 7.44002 19.2242 7.50002 19.0832 7.50002C18.9682 7.50002 18.8522 7.46102 18.7582 7.38002C18.1192 6.83402 17.7902 6.29302 17.7502 5.72702C17.6923 4.91488 18.2466 4.2849 18.7368 3.72784L18.7458 3.71756C19.1437 3.26496 19.519 2.83809 19.4902 2.43102C19.4692 2.13702 19.2372 1.79702 18.7992 1.42202C18.5892 1.24202 18.5652 0.927024 18.7442 0.717024C18.9242 0.508024 19.2402 0.483024 19.4492 0.662024C20.1072 1.22602 20.4472 1.78102 20.4882 2.36102C20.5461 3.18616 19.9863 3.8217 19.4917 4.38327L19.4902 4.38502C19.0932 4.83502 18.7192 5.26002 18.7472 5.65602Z" fill="black"/>
<path d="M18.5211 13.7849C18.6441 13.5379 18.9411 13.4379 19.1911 13.5589C21.4841 14.6979 22.7471 16.2749 22.7471 17.9999C22.7471 21.3639 17.9151 23.9999 11.7471 23.9999C5.57913 23.9999 0.747125 21.3639 0.747125 17.9999C0.747125 16.2749 2.00912 14.6989 4.30113 13.5599C4.54913 13.4389 4.84812 13.5389 4.97113 13.7859C5.09413 14.0339 4.99313 14.3339 4.74513 14.4569C2.84013 15.4019 1.74713 16.6939 1.74713 17.9999C1.74713 20.7099 6.32713 22.9999 11.7471 22.9999C17.1671 22.9999 21.7471 20.7099 21.7471 17.9999C21.7471 16.6939 20.6531 15.4019 18.7461 14.4559C18.4991 14.3329 18.3981 14.0319 18.5211 13.7849Z" fill="black"/>
</svg>
