<svg width="24" height="24" viewBox="0 0 24 24" fill="none" xmlns="http://www.w3.org/2000/svg">
<path fill-rule="evenodd" clip-rule="evenodd" d="M9.5 10C9.5 8.621 10.622 7.5 12 7.5C13.378 7.5 14.5 8.621 14.5 10C14.5 11.379 13.378 12.5 12 12.5C10.622 12.5 9.5 11.379 9.5 10ZM10.5 10C10.5 10.827 11.173 11.5 12 11.5C12.827 11.5 13.5 10.827 13.5 10C13.5 9.173 12.827 8.5 12 8.5C11.173 8.5 10.5 9.173 10.5 10Z" fill="black"/>
<path fill-rule="evenodd" clip-rule="evenodd" d="M12 5C9.243 5 7 7.243 7 10C7 12.757 9.243 15 12 15C14.757 15 17 12.757 17 10C17 7.243 14.757 5 12 5ZM12 14C9.794 14 8 12.206 8 10C8 7.794 9.794 6 12 6C14.206 6 16 7.794 16 10C16 12.206 14.206 14 12 14Z" fill="black"/>
<path d="M16.5 4C17.0523 4 17.5 3.55228 17.5 3C17.5 2.44772 17.0523 2 16.5 2C15.9477 2 15.5 2.44772 15.5 3C15.5 3.55228 15.9477 4 16.5 4Z" fill="black"/>
<path d="M8.5 3C8.5 3.55228 8.05228 4 7.5 4C6.94772 4 6.5 3.55228 6.5 3C6.5 2.44772 6.94772 2 7.5 2C8.05228 2 8.5 2.44772 8.5 3Z" fill="black"/>
<path fill-rule="evenodd" clip-rule="evenodd" d="M18 0H6C4.622 0 3.5 1.121 3.5 2.5V14.5C3.5 15.879 4.622 17 6 17H11.5V19.775L7.686 23.124C7.478 23.307 7.458 23.622 7.64 23.83C7.739 23.942 7.877 24 8.016 24C8.133 24 8.251 23.959 8.346 23.876L11.985 20.682L15.624 23.876C15.718 23.959 15.836 24 15.953 24C16.092 24 16.23 23.942 16.329 23.83C16.511 23.622 16.491 23.307 16.283 23.124L12.5 19.803V17H18C19.378 17 20.5 15.879 20.5 14.5V2.5C20.5 1.121 19.378 0 18 0ZM19.5 14.5C19.5 15.327 18.827 16 18 16H6C5.173 16 4.5 15.327 4.5 14.5V2.5C4.5 1.673 5.173 1 6 1H18C18.827 1 19.5 1.673 19.5 2.5V14.5Z" fill="black"/>
</svg>
