<svg width="24" height="24" viewBox="0 0 24 24" fill="none" xmlns="http://www.w3.org/2000/svg">
<g clip-path="url(#clip0_339_13664)">
<path fill-rule="evenodd" clip-rule="evenodd" d="M9.99 5.997C9.99 7.1 10.887 7.997 11.99 7.997C13.093 7.997 13.99 7.1 13.99 5.997C13.99 4.894 13.093 3.997 11.99 3.997C10.887 3.997 9.99 4.894 9.99 5.997ZM10.99 5.997C10.99 5.445 11.439 4.997 11.99 4.997C12.542 4.997 12.99 5.445 12.99 5.997C12.99 6.549 12.541 6.997 11.99 6.997C11.439 6.997 10.99 6.549 10.99 5.997Z" fill="black"/>
<path fill-rule="evenodd" clip-rule="evenodd" d="M11.99 17.497C10.612 17.497 9.49 16.376 9.49 14.997C9.49 13.618 10.612 12.497 11.99 12.497C13.368 12.497 14.49 13.618 14.49 14.997C14.49 16.376 13.369 17.497 11.99 17.497ZM11.99 13.497C11.163 13.497 10.49 14.17 10.49 14.997C10.49 15.824 11.163 16.497 11.99 16.497C12.817 16.497 13.49 15.824 13.49 14.997C13.49 14.17 12.817 13.497 11.99 13.497Z" fill="black"/>
<path fill-rule="evenodd" clip-rule="evenodd" d="M5.99 14.997C5.99 18.306 8.681 20.997 11.99 20.997C15.299 20.997 17.99 18.306 17.99 14.997C17.99 11.688 15.299 8.997 11.99 8.997C8.681 8.997 5.99 11.688 5.99 14.997ZM6.99 14.997C6.99 12.24 9.233 9.997 11.99 9.997C14.747 9.997 16.99 12.24 16.99 14.997C16.99 17.754 14.747 19.997 11.99 19.997C9.233 19.997 6.99 17.754 6.99 14.997Z" fill="black"/>
<path d="M6 4C6.55228 4 7 3.55228 7 3C7 2.44772 6.55228 2 6 2C5.44772 2 5 2.44772 5 3C5 3.55228 5.44772 4 6 4Z" fill="black"/>
<path d="M19 3C19 3.55228 18.5523 4 18 4C17.4477 4 17 3.55228 17 3C17 2.44772 17.4477 2 18 2C18.5523 2 19 2.44772 19 3Z" fill="black"/>
<path d="M18 22C18.5523 22 19 21.5523 19 21C19 20.4477 18.5523 20 18 20C17.4477 20 17 20.4477 17 21C17 21.5523 17.4477 22 18 22Z" fill="black"/>
<path d="M7 21C7 21.5523 6.55228 22 6 22C5.44772 22 5 21.5523 5 21C5 20.4477 5.44772 20 6 20C6.55228 20 7 20.4477 7 21Z" fill="black"/>
<path fill-rule="evenodd" clip-rule="evenodd" d="M3 21.528C3 22.904 4.12 24.023 5.497 24.023H5.501L18.501 24C19.879 23.998 21 22.875 21 21.497V2.497C21 1.12 19.88 0 18.499 0L5.499 0.023C4.121 0.025 3 1.149 3 2.528V21.528ZM5.501 1.023L18.503 1C19.329 1 20 1.672 20 2.497V21.497C20 22.324 19.327 22.998 18.499 23L5.499 23.023L5.497 23.523V23.023C4.671 23.023 4 22.352 4 21.528V2.528C4 1.7 4.673 1.025 5.501 1.023Z" fill="black"/>
</g>
<defs>
<clipPath id="clip0_339_13664">
<rect width="24" height="24" fill="white"/>
</clipPath>
</defs>
</svg>
