<svg width="24" height="24" viewBox="0 0 24 24" fill="none" xmlns="http://www.w3.org/2000/svg">
<path fill-rule="evenodd" clip-rule="evenodd" d="M4.5 1H0.5C0.224 1 0 1.224 0 1.5V22.5C0 22.776 0.224 23 0.5 23H4.5C4.776 23 5 22.776 5 22.5V1.5C5 1.224 4.776 1 4.5 1ZM4 2V13H1V2H4ZM1 22V14H4V22H1Z" fill="black"/>
<path fill-rule="evenodd" clip-rule="evenodd" d="M12 21C13.654 21 15 19.654 15 18C15 16.346 13.654 15 12 15C10.346 15 9 16.346 9 18C9 19.654 10.346 21 12 21ZM12 16C13.103 16 14 16.896 14 18C14 19.103 13.103 20 12 20C10.897 20 10 19.103 10 18C10 16.896 10.897 16 12 16Z" fill="black"/>
<path d="M15 10.5C15 10.7761 14.7761 11 14.5 11C14.2239 11 14 10.7761 14 10.5C14 10.2239 14.2239 10 14.5 10C14.7761 10 15 10.2239 15 10.5Z" fill="black"/>
<path d="M9.5 11C9.77614 11 10 10.7761 10 10.5C10 10.2239 9.77614 10 9.5 10C9.22386 10 9 10.2239 9 10.5C9 10.7761 9.22386 11 9.5 11Z" fill="black"/>
<path fill-rule="evenodd" clip-rule="evenodd" d="M13.5 12C13.5 12.827 12.827 13.5 12 13.5C11.173 13.5 10.5 12.827 10.5 12C10.5 11.173 11.173 10.5 12 10.5C12.827 10.5 13.5 11.173 13.5 12ZM12.5 12C12.5 11.724 12.276 11.5 12 11.5C11.724 11.5 11.5 11.724 11.5 12C11.5 12.276 11.724 12.5 12 12.5C12.276 12.5 12.5 12.276 12.5 12Z" fill="black"/>
<path fill-rule="evenodd" clip-rule="evenodd" d="M16.5 8H7.5C7.224 8 7 8.224 7 8.5V22.5C7 22.776 7.224 23 7.5 23H16.5C16.776 23 17 22.776 17 22.5V8.5C17 8.224 16.776 8 16.5 8ZM8 22V9H16V22H8Z" fill="black"/>
<path fill-rule="evenodd" clip-rule="evenodd" d="M19.5 1H23.5C23.776 1 24 1.224 24 1.5V22.5C24 22.776 23.776 23 23.5 23H19.5C19.224 23 19 22.776 19 22.5V1.5C19 1.224 19.224 1 19.5 1ZM23 13V2H20V13H23ZM20 22H23V14H20V22Z" fill="black"/>
</svg>
