<svg width="24" height="24" viewBox="0 0 24 24" fill="none" xmlns="http://www.w3.org/2000/svg">
<g clip-path="url(#clip0_757_897)">
<path fill-rule="evenodd" clip-rule="evenodd" d="M17.964 7.314L19.917 12.196C19.981 12.281 20.02 12.386 20.02 12.5C20.02 12.776 19.796 13 19.52 13C19.515 13 19.508 13.001 19.5 13H8.50001C8.35101 13 8.20801 12.933 8.11401 12.817C8.01901 12.701 7.98101 12.548 8.01001 12.402L9.01001 7.402C9.05701 7.168 9.26201 7 9.50001 7H17.5C17.704 7 17.889 7.125 17.964 7.314ZM9.91001 8L9.11001 12H18.762L17.161 8H9.91001Z" fill="black"/>
<path fill-rule="evenodd" clip-rule="evenodd" d="M23.878 14.151C23.966 14.241 24.02 14.365 24.02 14.5C24.02 14.5236 24.0141 14.5444 24.0081 14.5656C24.0052 14.5759 24.0023 14.5862 24 14.597V16.5C24 16.776 23.776 17 23.5 17H13V23H14.5C14.776 23 15 23.224 15 23.5C15 23.776 14.776 24 14.5 24H10.5C10.224 24 10 23.776 10 23.5C10 23.224 10.224 23 10.5 23H12V17H0.5C0.224 17 0 16.776 0 16.5V14.5C0 14.419 0.023 14.347 0.056 14.278C0.0580222 14.275 0.0585109 14.2714 0.0590167 14.2678C0.0595113 14.2642 0.0600222 14.2605 0.062 14.257L5.062 5.257C5.151 5.099 5.318 5 5.5 5H6V1.5C6 0.673 6.673 0 7.5 0C8.188 0 9.049 0.341 9.501 0.794L9.857 1.15C10.053 1.057 10.27 1 10.5 1C11.327 1 12 1.673 12 2.5C12 3.327 11.327 4 10.5 4C9.673 4 9 3.327 9 2.5C9 2.269 9.057 2.053 9.15 1.858L8.794 1.5C8.532 1.239 7.915 1 7.5 1C7.225 1 7 1.224 7 1.5V5H18.5C18.682 5 18.849 5.099 18.938 5.257L23.878 14.151ZM10.5 3C10.775 3 11 2.776 11 2.5C11 2.224 10.775 2 10.5 2C10.363 2 10.24 2.056 10.15 2.145L10.1491 2.14669L10.147 2.15L10.144 2.151C10.056 2.242 10 2.365 10 2.5C10 2.776 10.225 3 10.5 3ZM6 6H5.794L1.35 14H22.65L18.206 6H7V7.5C7 7.776 6.776 8 6.5 8C6.224 8 6 7.776 6 7.5V6ZM1 15V16H23V15H1Z" fill="black"/>
</g>
<defs>
<clipPath id="clip0_757_897">
<rect width="24" height="24" fill="white"/>
</clipPath>
</defs>
</svg>
