<svg width="24" height="24" viewBox="0 0 24 24" fill="none" xmlns="http://www.w3.org/2000/svg">
<path fill-rule="evenodd" clip-rule="evenodd" d="M16 4C16 6.206 14.206 8 12 8C9.794 8 8 6.206 8 4C8 1.794 9.794 0 12 0C14.206 0 16 1.794 16 4ZM15 4C15 2.346 13.654 1 12 1C10.346 1 9 2.346 9 4C9 5.654 10.346 7 12 7C13.654 7 15 5.654 15 4Z" fill="black"/>
<path fill-rule="evenodd" clip-rule="evenodd" d="M7.504 13.969C7.758 13.861 7.876 13.567 7.767 13.312C7.342 12.32 7.075 11.138 7.014 10H10.959L10.683 13.46C10.672 13.599 10.72 13.736 10.814 13.839C10.908 13.942 11.041 14 11.181 14H12.82C12.96 14 13.092 13.942 13.187 13.839C13.282 13.736 13.329 13.599 13.318 13.46L13.042 10H16.987C16.925 11.138 16.658 12.32 16.233 13.312C16.124 13.566 16.241 13.86 16.495 13.969C16.559 13.996 16.626 14.009 16.692 14.009C16.886 14.009 17.07 13.896 17.151 13.706C17.69 12.448 18 10.916 18 9.5C18 9.224 17.776 9 17.5 9H6.5C6.224 9 6 9.224 6 9.5C6 10.915 6.309 12.448 6.848 13.706C6.957 13.96 7.251 14.078 7.504 13.969ZM12.038 10L12.278 13H11.722L11.962 10H12.038Z" fill="black"/>
<path fill-rule="evenodd" clip-rule="evenodd" d="M22 15.5C22 15.224 21.776 15 21.5 15H2.5C2.224 15 2 15.224 2 15.5C2 15.776 2.224 16 2.5 16H8.059L9.004 23.562C9.035 23.812 9.248 24 9.5 24H14.5C14.752 24 14.965 23.812 14.996 23.562L15.941 16H21.5C21.776 16 22 15.776 22 15.5ZM14.933 16L14.059 23H9.941L9.066 16H14.933Z" fill="black"/>
</svg>
