<svg width="24" height="24" viewBox="0 0 24 24" fill="none" xmlns="http://www.w3.org/2000/svg">
<path d="M17 3.99997C17.059 3.99997 17.117 3.98997 17.175 3.96897L21.112 2.49997C21.371 2.40397 21.503 2.11597 21.406 1.85697C21.309 1.59797 21.02 1.46697 20.762 1.56397L16.824 3.03297C16.565 3.12897 16.433 3.41697 16.53 3.67597C16.606 3.87597 16.797 3.99997 17 3.99997Z" fill="black"/>
<path d="M17.5 4.99997H21.5C21.776 4.99997 22 5.22397 22 5.49997C22 5.77597 21.776 5.99997 21.5 5.99997H17.5C17.224 5.99997 17 5.77597 17 5.49997C17 5.22397 17.224 4.99997 17.5 4.99997Z" fill="black"/>
<path d="M17.244 7.06397L21.213 9.28297C21.454 9.41697 21.54 9.72197 21.405 9.96197C21.313 10.126 21.143 10.218 20.968 10.218C20.885 10.218 20.801 10.198 20.724 10.155L16.755 7.93597C16.514 7.80097 16.428 7.49697 16.563 7.25597C16.698 7.01497 17.003 6.92997 17.244 7.06397Z" fill="black"/>
<path fill-rule="evenodd" clip-rule="evenodd" d="M14 3.99997H14.5C14.776 3.99997 15 4.22397 15 4.49997V5.49997C15 5.77597 14.776 5.99997 14.5 5.99997H14V6.99997C14 7.12497 13.953 7.24597 13.868 7.33797L12.493 8.83797C12.398 8.94197 12.266 8.99997 12.125 8.99997H11.593C11.578 9.84897 11.773 11.686 13.707 12.007C13.979 12.053 14.163 12.31 14.118 12.582C14.077 12.827 13.865 13 13.626 13C13.599 13 13.57 12.998 13.542 12.993C11.131 12.592 10.559 10.452 10.585 8.99997H9.02202L13.531 20.594C13.829 21.365 13.73 22.23 13.264 22.912C12.799 23.593 12.028 24 11.201 24H3.55102C2.80302 24 2.10002 23.668 1.62202 23.09C1.14702 22.512 0.955016 21.759 1.09702 21.023L4.38702 8.99997H1.00002C0.830016 8.99997 0.672016 8.91297 0.580016 8.77097C0.488016 8.62897 0.475016 8.44997 0.544016 8.29497L2.79402 3.29497C2.87502 3.11497 3.05402 2.99997 3.25002 2.99997H13.5C13.776 2.99997 14 3.22397 14 3.49997V3.99997ZM12.439 22.349C12.719 21.939 12.779 21.418 12.6 20.956L7.95002 8.99997H5.42402L2.07102 21.249C1.99402 21.655 2.10902 22.107 2.39402 22.454C2.68102 22.801 3.10302 23 3.55102 23H11.201C11.697 23 12.16 22.756 12.439 22.349ZM11.905 7.99997L13 6.80597V3.99997H3.57302L1.77302 7.99997H11.905Z" fill="black"/>
</svg>
