<svg width="24" height="24" viewBox="0 0 24 24" fill="none" xmlns="http://www.w3.org/2000/svg">
<path d="M12 2C12.2761 2 12.5 1.77614 12.5 1.5C12.5 1.22386 12.2761 1 12 1C11.7239 1 11.5 1.22386 11.5 1.5C11.5 1.77614 11.7239 2 12 2Z" fill="black"/>
<path d="M12.5 4.5C12.5 4.77614 12.2761 5 12 5C11.7239 5 11.5 4.77614 11.5 4.5C11.5 4.22386 11.7239 4 12 4C12.2761 4 12.5 4.22386 12.5 4.5Z" fill="black"/>
<path d="M12 8C12.2761 8 12.5 7.77614 12.5 7.5C12.5 7.22386 12.2761 7 12 7C11.7239 7 11.5 7.22386 11.5 7.5C11.5 7.77614 11.7239 8 12 8Z" fill="black"/>
<path d="M19.7782 5.22179C19.9734 5.41706 20.29 5.41706 20.4853 5.22179C20.6805 5.02653 20.6805 4.70995 20.4853 4.51469C20.29 4.31942 19.9734 4.31942 19.7782 4.51469C19.5829 4.70995 19.5829 5.02653 19.7782 5.22179Z" fill="black"/>
<path d="M17.6568 7.34311C17.8521 7.53838 18.1687 7.53838 18.3639 7.34311C18.5592 7.14785 18.5592 6.83127 18.3639 6.63601C18.1687 6.44074 17.8521 6.44074 17.6568 6.63601C17.4616 6.83127 17.4616 7.14785 17.6568 7.34311Z" fill="black"/>
<path d="M16.2426 9.46443C16.0474 9.6597 15.7308 9.6597 15.5355 9.46443C15.3403 9.26917 15.3403 8.95259 15.5355 8.75733C15.7308 8.56207 16.0474 8.56207 16.2426 8.75733C16.4379 8.95259 16.4379 9.26917 16.2426 9.46443Z" fill="black"/>
<path d="M23.5 13.5C23.2239 13.5 23 13.2761 23 13C23 12.7239 23.2239 12.5 23.5 12.5C23.7761 12.5 24 12.7239 24 13C24 13.2761 23.7761 13.5 23.5 13.5Z" fill="black"/>
<path d="M20.5 13.5C20.2239 13.5 20 13.2761 20 13C20 12.7239 20.2239 12.5 20.5 12.5C20.7761 12.5 21 12.7239 21 13C21 13.2761 20.7761 13.5 20.5 13.5Z" fill="black"/>
<path d="M17 13C17 13.2761 17.2239 13.5 17.5 13.5C17.7761 13.5 18 13.2761 18 13C18 12.7239 17.7761 12.5 17.5 12.5C17.2239 12.5 17 12.7239 17 13Z" fill="black"/>
<path d="M1 13C1 12.7239 0.776142 12.5 0.5 12.5C0.223858 12.5 0 12.7239 0 13C0 13.2761 0.223858 13.5 0.5 13.5C0.776142 13.5 1 13.2761 1 13Z" fill="black"/>
<path d="M4 13C4 12.7239 3.77614 12.5 3.5 12.5C3.22386 12.5 3 12.7239 3 13C3 13.2761 3.22386 13.5 3.5 13.5C3.77614 13.5 4 13.2761 4 13Z" fill="black"/>
<path d="M6.5 12.5C6.77614 12.5 7 12.7239 7 13C7 13.2761 6.77614 13.5 6.5 13.5C6.22386 13.5 6 13.2761 6 13C6 12.7239 6.22386 12.5 6.5 12.5Z" fill="black"/>
<path d="M4.22185 4.51461C4.41712 4.70987 4.41712 5.02646 4.22185 5.22172C4.02659 5.41698 3.71001 5.41698 3.51475 5.22172C3.31948 5.02646 3.31949 4.70987 3.51475 4.51461C3.71001 4.31935 4.02659 4.31935 4.22185 4.51461Z" fill="black"/>
<path d="M6.34317 6.63593C6.53844 6.83119 6.53844 7.14778 6.34317 7.34304C6.14791 7.5383 5.83133 7.5383 5.63607 7.34304C5.44081 7.14778 5.44081 6.83119 5.63607 6.63593C5.83133 6.44067 6.14791 6.44067 6.34317 6.63593Z" fill="black"/>
<path d="M8.46449 9.46436C8.65976 9.2691 8.65976 8.95251 8.46449 8.75725C8.26923 8.56199 7.95265 8.56199 7.75739 8.75725C7.56213 8.95251 7.56213 9.2691 7.75739 9.46436C7.95265 9.65962 8.26923 9.65962 8.46449 9.46436Z" fill="black"/>
<path fill-rule="evenodd" clip-rule="evenodd" d="M15 15C15 13.3431 13.6569 12 12 12C10.3431 12 9 13.3431 9 15H8.5C8.22386 15 8 15.2239 8 15.5V17.5C8 17.7761 8.22386 18 8.5 18H10V23H0.5C0.223858 23 0 23.2239 0 23.5C0 23.7761 0.223858 24 0.5 24H23.5C23.7761 24 24 23.7761 24 23.5C24 23.2239 23.7761 23 23.5 23H14V18H15.5C15.7761 18 16 17.7761 16 17.5V15.5C16 15.2239 15.7761 15 15.5 15H15ZM12 13C10.8954 13 10 13.8954 10 15H14C14 13.8954 13.1046 13 12 13ZM13 17.5V23H11V17.5C11 17.2239 10.7761 17 10.5 17H9V16H15V17H13.5C13.2239 17 13 17.2239 13 17.5Z" fill="black"/>
</svg>
