<svg width="24" height="24" viewBox="0 0 24 24" fill="none" xmlns="http://www.w3.org/2000/svg">
<path fill-rule="evenodd" clip-rule="evenodd" d="M9.5 2.5C9.5 3.878 8.378 5 7 5C5.622 5 4.5 3.878 4.5 2.5C4.5 1.122 5.621 0 7 0C8.379 0 9.5 1.122 9.5 2.5ZM8.5 2.5C8.5 1.673 7.827 1 7 1C6.173 1 5.5 1.673 5.5 2.5C5.5 3.327 6.172 4 7 4C7.828 4 8.5 3.327 8.5 2.5Z" fill="black"/>
<path d="M11 18C11 18.276 11.224 18.5 11.5 18.5C11.776 18.5 12 18.276 12 18V16C12 15.901 11.971 15.805 11.916 15.723L10 12.849V11.207L11.146 12.353C11.306 12.512 11.55 12.545 11.748 12.434L14.388 10.925C14.73 10.73 14.978 10.4 15.069 10.016C15.159 9.633 15.086 9.226 14.868 8.9C14.471 8.303 13.688 8.095 13.048 8.417L12.172 8.855L11.01 7.113C10.545 6.416 9.768 6 8.93 6H4.329C3.661 6 3.033 6.261 2.561 6.732L0.147 9.146C0.053 9.24 0 9.367 0 9.5V12.5C0 13.327 0.673 14 1.5 14C2.327 14 3 13.327 3 12.5V10.825L4.002 10.032L4.007 12.715L2.507 21.415C2.482 21.561 2.522 21.71 2.617 21.822C2.713 21.936 2.853 22 3 22H5C5.223 22 5.419 21.852 5.481 21.637L7.164 15.745L8 17.139V18.5C8 18.776 8.224 19 8.5 19C8.776 19 9 18.776 9 18.5V17C9 16.909 8.976 16.82 8.929 16.743L7.429 14.243C7.326 14.072 7.132 13.976 6.935 14.004C6.738 14.03 6.574 14.171 6.519 14.362L4.624 21H3.594L5 12.8V9C5 8.808 4.89 8.633 4.718 8.55C4.545 8.467 4.34 8.488 4.19 8.608L2.19 10.191C2.07 10.286 2 10.431 2 10.583V12.5C2 12.776 1.776 13 1.5 13C1.224 13 1 12.776 1 12.5V9.707L3.268 7.439C3.547 7.16 3.934 7 4.329 7H8.93C9.432 7 9.899 7.25 10.178 7.668L11.584 9.777C11.724 9.987 11.998 10.06 12.224 9.947L13.495 9.311C13.684 9.215 13.917 9.277 14.036 9.455C14.101 9.552 14.122 9.673 14.096 9.786C14.069 9.9 13.996 9.998 13.894 10.056L11.584 11.376L9.854 9.646C9.711 9.503 9.497 9.46 9.309 9.538C9.122 9.615 9 9.798 9 10V13C9 13.099 9.029 13.195 9.084 13.277L11 16.151V18Z" fill="black"/>
<path d="M20 12V15.5C20 15.777 19.777 16 19.5 16H16V19.5C16 19.776 15.776 20 15.5 20H12V23.5C12 23.776 11.776 24 11.5 24C11.224 24 11 23.776 11 23.5V19.5C11 19.224 11.224 19 11.5 19H15V15.5C15 15.224 15.224 15 15.5 15H19V11.5C19 11.224 19.224 11 19.5 11H23.5C23.777 11 24 11.224 24 11.5C24 11.776 23.776 12 23.5 12H20Z" fill="black"/>
<path d="M23.5 17C23.565 17 23.63 17.014 23.691 17.039C23.814 17.09 23.911 17.187 23.961 17.309C23.987 17.37 24 17.435 24 17.5V20.5C24 20.776 23.776 21 23.5 21C23.224 21 23 20.776 23 20.5V18.708L17.854 23.853C17.756 23.951 17.627 24 17.5 24C17.373 24 17.245 23.952 17.147 23.853C16.952 23.659 16.952 23.342 17.147 23.146L22.293 18H20.5C20.224 18 20 17.776 20 17.5C20 17.224 20.224 17 20.5 17H23.5Z" fill="black"/>
</svg>
