<svg width="24" height="24" viewBox="0 0 24 24" fill="none" xmlns="http://www.w3.org/2000/svg">
<path d="M13.8536 0.853554C14.0488 0.658291 14.0488 0.341709 13.8536 0.146447C13.6583 -0.0488155 13.3417 -0.0488155 13.1464 0.146447L0.146447 13.1464C-0.0488155 13.3417 -0.0488155 13.6583 0.146447 13.8536C0.341709 14.0488 0.658291 14.0488 0.853554 13.8536L13.8536 0.853554Z" fill="black"/>
<path fill-rule="evenodd" clip-rule="evenodd" d="M15 2.5C15 2.22386 15.2239 2 15.5 2H22.5C22.7761 2 23 2.22386 23 2.5V22.5C23 22.7761 22.7761 23 22.5 23H2.5C2.22386 23 2 22.7761 2 22.5V18H1.5C1.22386 18 1 17.7761 1 17.5C1 17.2239 1.22386 17 1.5 17H7V13H6.5C6.22386 13 6 12.7761 6 12.5C6 12.2239 6.22386 12 6.5 12H12V8H11.5C11.2239 8 11 7.77614 11 7.5C11 7.22386 11.2239 7 11.5 7H16V3H15.5C15.2239 3 15 2.77614 15 2.5ZM17 3V7.5C17 7.77614 16.7761 8 16.5 8H13V12.5C13 12.7761 12.7761 13 12.5 13H8V17.5C8 17.7761 7.77614 18 7.5 18H3V22H22V3H17Z" fill="black"/>
</svg>
