<svg width="24" height="24" viewBox="0 0 24 24" fill="none" xmlns="http://www.w3.org/2000/svg">
<path fill-rule="evenodd" clip-rule="evenodd" d="M19 2.5C19 2.22386 19.2239 2 19.5 2H23.5C23.7761 2 24 2.22386 24 2.5V22.5C24 22.7761 23.7761 23 23.5 23H0.5C0.223858 23 0 22.7761 0 22.5C0 22.2239 0.223858 22 0.5 22H3V18.5C3 18.2239 3.22386 18 3.5 18H7V14.5C7 14.2239 7.22386 14 7.5 14H11V10.5C11 10.2239 11.2239 10 11.5 10H15V6.5C15 6.22386 15.2239 6 15.5 6H19V2.5ZM4 22H23V3H20V6.5C20 6.77614 19.7761 7 19.5 7H16V10.5C16 10.7761 15.7761 11 15.5 11H12V14.5C12 14.7761 11.7761 15 11.5 15H8V18.5C8 18.7761 7.77614 19 7.5 19H4V22Z" fill="black"/>
</svg>
