<svg width="24" height="24" viewBox="0 0 24 24" fill="none" xmlns="http://www.w3.org/2000/svg">
<path fill-rule="evenodd" clip-rule="evenodd" d="M11 2.5C11 3.878 9.879 5 8.5 5C7.122 5 6 3.878 6 2.5C6 1.122 7.121 0 8.5 0C9.879 0 11 1.122 11 2.5ZM10 2.5C10 1.673 9.328 1 8.5 1C7.673 1 7 1.673 7 2.5C7 3.327 7.672 4 8.5 4C9.328 4 10 3.327 10 2.5Z" fill="black"/>
<path d="M20 12V15.5C20 15.776 19.777 16 19.5 16H16V19.5C16 19.776 15.776 20 15.5 20H12V23.5C12 23.776 11.776 24 11.5 24C11.224 24 11 23.776 11 23.5V19.5C11 19.224 11.224 19 11.5 19H15V15.5C15 15.224 15.224 15 15.5 15H19V11.5C19 11.224 19.224 11 19.5 11H23.5C23.777 11 24 11.224 24 11.5C24 11.776 23.776 12 23.5 12H20Z" fill="black"/>
<path d="M23.147 17.146L18 22.293V20.5C18 20.224 17.776 20 17.5 20C17.224 20 17 20.224 17 20.5V23.5C17 23.565 17.013 23.63 17.039 23.691C17.09 23.814 17.187 23.911 17.31 23.962C17.371 23.987 17.436 24 17.5 24H20.5C20.776 24 21 23.776 21 23.5C21 23.224 20.777 23 20.5 23H18.707L23.853 17.854C24.048 17.659 24.048 17.342 23.853 17.147C23.658 16.952 23.342 16.951 23.147 17.146Z" fill="black"/>
<path d="M8.955 15.502C9.131 15.484 9.296 15.56 9.4 15.7L10.9 17.702C11.066 17.923 11.021 18.236 10.8 18.402C10.578 18.566 10.265 18.523 10.1 18.301L9.085 16.948L6.447 22.224C6.362 22.394 6.189 22.5 6 22.5H4C3.838 22.5 3.686 22.421 3.592 22.288C3.498 22.155 3.475 21.985 3.53 21.832L6 14.914V10.707L4.353 12.354C4.299 12.409 4.232 12.451 4.158 12.475L2.483 13.034C2.024 13.186 1.518 13.109 1.125 12.826C0.734 12.543 0.5 12.086 0.5 11.603C0.5 11.046 0.805 10.538 1.296 10.275L2.64 9.555L3.989 7.24C4.436 6.476 5.263 6 6.149 6H10.614C11.65 6 12.591 6.652 12.955 7.622L13.569 9.26C13.877 10.081 13.728 11.016 13.18 11.7L12 13.175V13.882L13.448 16.777C13.571 17.024 13.471 17.324 13.224 17.448C12.977 17.57 12.677 17.471 12.553 17.224L11.053 14.224C11.018 14.154 11 14.078 11 14V13C11 12.887 11.039 12.776 11.11 12.688L12.4 11.076C12.729 10.666 12.818 10.104 12.633 9.612L12.019 7.974C11.801 7.392 11.236 7 10.614 7H6.149C5.618 7 5.121 7.285 4.852 7.744L3.432 10.181C3.385 10.261 3.318 10.326 3.236 10.37L1.767 11.157C1.603 11.246 1.5 11.416 1.5 11.603C1.5 11.766 1.579 11.919 1.711 12.014C1.842 12.11 2.014 12.133 2.167 12.084L3.73 11.562L6.147 9.146C6.29 9.003 6.505 8.96 6.691 9.038C6.878 9.115 7 9.298 7 9.5V15C7 15.058 6.991 15.114 6.971 15.168L4.71 21.5H5.691L8.553 15.776C8.63 15.622 8.783 15.518 8.955 15.502Z" fill="black"/>
</svg>
