<svg width="24" height="24" viewBox="0 0 24 24" fill="none" xmlns="http://www.w3.org/2000/svg">
<path d="M0.854 11.854C0.756 11.951 0.628 12 0.5 12C0.373 12 0.245 11.951 0.147 11.853C-0.048 11.658 -0.048 11.341 0.147 11.146L10.293 1H6.5C6.224 1 6 0.776 6 0.5C6 0.224 6.224 0 6.5 0H11.5C11.565 0 11.63 0.013 11.69 0.039C11.813 0.089 11.91 0.187 11.961 0.31C11.987 0.37 12 0.436 12 0.5V5.5C12 5.776 11.776 6 11.5 6C11.224 6 11 5.776 11 5.5V1.707L0.854 11.854Z" fill="black"/>
<path d="M5 23H23.5C23.777 23 24 23.224 24 23.5C24 23.776 23.776 24 23.5 24H0.5C0.224 24 0 23.776 0 23.5C0 23.224 0.224 23 0.5 23H4V19.5C4 19.224 4.224 19 4.5 19H8V15.5C8 15.224 8.224 15 8.5 15H12V11.5C12 11.224 12.224 11 12.5 11H16V7.5C16 7.224 16.224 7 16.5 7H23.5C23.777 7 24 7.224 24 7.5C24 7.776 23.777 8 23.5 8H17V11.5C17 11.776 16.776 12 16.5 12H13V15.5C13 15.776 12.776 16 12.5 16H9V19.5C9 19.776 8.777 20 8.5 20H5V23Z" fill="black"/>
</svg>
