<svg width="24" height="24" viewBox="0 0 24 24" fill="none" xmlns="http://www.w3.org/2000/svg">
<g clip-path="url(#clip0_368_12849)">
<path d="M23 6.50001C23 6.22401 23.224 6.00001 23.5 6.00001C23.777 6.00001 24 6.22401 24 6.50001V11.5C24 11.565 23.987 11.63 23.962 11.691C23.911 11.814 23.814 11.911 23.691 11.962C23.63 11.987 23.565 12 23.5 12H18.5C18.224 12 18 11.776 18 11.5C18 11.224 18.224 11 18.5 11H22.293L12.147 0.853006C11.952 0.658006 11.952 0.341006 12.147 0.146006C12.342 -0.0489941 12.659 -0.0489941 12.854 0.146006L23 10.293V6.50001Z" fill="black"/>
<path d="M20 23H23.5C23.777 23 24 23.224 24 23.5C24 23.776 23.776 24 23.5 24H0.5C0.224 24 0 23.776 0 23.5C0 23.224 0.224 23 0.5 23H19V20H15.5C15.224 20 15 19.776 15 19.5V16H11.5C11.224 16 11 15.776 11 15.5V12H7.5C7.224 12 7 11.776 7 11.5V8.00001H0.5C0.224 8.00001 0 7.77601 0 7.50001C0 7.22401 0.224 7.00001 0.5 7.00001H7.5C7.777 7.00001 8 7.22401 8 7.50001V11H11.5C11.776 11 12 11.224 12 11.5V15H15.5C15.776 15 16 15.224 16 15.5V19H19.5C19.776 19 20 19.224 20 19.5V23Z" fill="black"/>
</g>
<defs>
<clipPath id="clip0_368_12849">
<rect width="24" height="24" fill="white"/>
</clipPath>
</defs>
</svg>
