<svg width="24" height="24" viewBox="0 0 24 24" fill="none" xmlns="http://www.w3.org/2000/svg">
<g clip-path="url(#clip0_714_266)">
<path fill-rule="evenodd" clip-rule="evenodd" d="M12 0C12.2084 0 12.395 0.129286 12.4682 0.324438L15.3465 8H23.5C23.7093 8 23.8964 8.13029 23.969 8.32653C24.0416 8.52277 23.9843 8.74346 23.8254 8.87963L17.0807 14.6608L19.9744 23.3419C20.0432 23.5484 19.9705 23.7758 19.7946 23.904C19.6186 24.0323 19.3799 24.032 19.2043 23.9032L12 18.62L4.79571 23.9032C4.62013 24.032 4.38143 24.0323 4.20549 23.904C4.02955 23.7758 3.95683 23.5484 4.02568 23.3419L6.91937 14.6608L0.174628 8.87963C0.0157628 8.74346 -0.041513 8.52277 0.0310814 8.32653C0.103676 8.13029 0.290786 8 0.500024 8H8.65352L11.5319 0.324438C11.605 0.129286 11.7916 0 12 0ZM12 1.924L9.46819 8.67556C9.39501 8.87071 9.20845 9 9.00002 9H1.85165L7.82542 14.1204C7.97977 14.2527 8.03865 14.4653 7.97437 14.6581L5.47113 22.1678L11.7043 17.5968C11.8803 17.4677 12.1197 17.4677 12.2957 17.5968L18.5289 22.1678L16.0257 14.6581C15.9614 14.4653 16.0203 14.2527 16.1746 14.1204L22.1484 9H15C14.7916 9 14.605 8.87071 14.5319 8.67556L12 1.924Z" fill="black"/>
</g>
<defs>
<clipPath id="clip0_714_266">
<rect width="24" height="24" fill="white"/>
</clipPath>
</defs>
</svg>
