<svg width="24" height="24" viewBox="0 0 24 24" fill="none" xmlns="http://www.w3.org/2000/svg">
<path fill-rule="evenodd" clip-rule="evenodd" d="M7 16.5C7 16.776 7.224 17 7.5 17H16.5C16.776 17 17 16.776 17 16.5V7.5C17 7.224 16.776 7 16.5 7H7.5C7.224 7 7 7.224 7 7.5V16.5ZM16 16H8V8H16V16Z" fill="black"/>
<path fill-rule="evenodd" clip-rule="evenodd" d="M0 12C0 18.617 5.383 24 12 24C18.617 24 24 18.617 24 12C24 5.383 18.617 0 12 0C5.383 0 0 5.383 0 12ZM1 12C1 5.935 5.935 1 12 1C18.065 1 23 5.935 23 12C23 18.065 18.065 23 12 23C5.935 23 1 18.065 1 12Z" fill="black"/>
</svg>
