<svg width="24" height="24" viewBox="0 0 24 24" fill="none" xmlns="http://www.w3.org/2000/svg">
<g clip-path="url(#clip0_345_13243)">
<path d="M18.002 18.5C18.002 18.7761 17.7781 19 17.502 19C17.2258 19 17.002 18.7761 17.002 18.5C17.002 18.2239 17.2258 18 17.502 18C17.7781 18 18.002 18.2239 18.002 18.5Z" fill="black"/>
<path fill-rule="evenodd" clip-rule="evenodd" d="M12.502 13H4.50195C4.22595 13 4.00195 13.224 4.00195 13.5V19.5C4.00195 19.776 4.22595 20 4.50195 20H12.502C12.778 20 13.002 19.776 13.002 19.5V13.5C13.002 13.224 12.778 13 12.502 13ZM12.002 19H5.00195V14H12.002V19Z" fill="black"/>
<path fill-rule="evenodd" clip-rule="evenodd" d="M23.952 5.29C23.951 5.288 23.9507 5.28575 23.9505 5.2835C23.9502 5.28125 23.95 5.279 23.949 5.277L21.949 1.277C21.864 1.107 21.691 1 21.502 1H2.50195C2.31195 1 2.13995 1.107 2.05495 1.276L0.0549531 5.276C0.0539531 5.2785 0.0537031 5.28075 0.0534531 5.283C0.0532031 5.28525 0.0529531 5.2875 0.0519531 5.29C0.0219531 5.354 0.00195312 5.425 0.00195312 5.5V6.5C0.00195312 7.39 0.360953 8.277 0.987953 8.936C1.28595 9.248 1.63095 9.489 2.00195 9.659V22.5C2.00195 22.776 2.22595 23 2.50195 23H21.502C21.778 23 22.002 22.776 22.002 22.5V9.674C23.166 9.121 24.002 7.893 24.002 6.5V5.5C24.002 5.424 23.982 5.354 23.952 5.29ZM22.693 5H18.892L18.142 2H21.193L22.693 5ZM18.002 8.341C17.301 9.376 16.177 9.994 14.961 9.994C14.024 9.994 13.162 9.608 12.502 8.925V6H18.002V8.341ZM6.00195 6H11.502V8.926C10.842 9.609 9.98295 9.995 9.05095 9.995C7.84995 9.995 6.69695 9.362 6.00195 8.341V6ZM11.502 2V5H6.14295L6.89295 2H11.502ZM17.111 2L17.861 5H12.502V2H17.111ZM2.81095 2H5.86195L5.11195 5H1.31095L2.81095 2ZM1.00195 6.5V6H5.00195V8.27C3.94195 9.206 2.59495 9.171 1.71195 8.245C1.26095 7.772 1.00195 7.135 1.00195 6.5ZM15.002 22V14H19.002V22H15.002ZM21.002 22H20.002V13.5C20.002 13.224 19.778 13 19.502 13H14.502C14.226 13 14.002 13.224 14.002 13.5V22H3.00195V9.929C3.82495 10.019 4.68695 9.802 5.41795 9.239C6.31095 10.334 7.65695 10.995 9.05095 10.995C10.155 10.995 11.186 10.593 12.002 9.852C12.82 10.592 13.854 10.994 14.961 10.994C16.375 10.994 17.693 10.348 18.587 9.24C19.226 9.731 19.931 9.988 20.655 9.988C20.7379 9.988 20.8184 9.97613 20.8992 9.96422C20.9334 9.95919 20.9675 9.95415 21.002 9.95V22ZM23.002 6.5C23.002 7.825 21.905 8.987 20.655 8.987C20.084 8.987 19.518 8.733 19.002 8.271V6H23.002V6.5Z" fill="black"/>
</g>
<defs>
<clipPath id="clip0_345_13243">
<rect width="24" height="24" fill="white"/>
</clipPath>
</defs>
</svg>
