<svg width="24" height="24" viewBox="0 0 24 24" fill="none" xmlns="http://www.w3.org/2000/svg">
<path d="M17 20.5C17 20.7761 16.7761 21 16.5 21C16.2239 21 16 20.7761 16 20.5C16 20.2239 16.2239 20 16.5 20C16.7761 20 17 20.2239 17 20.5Z" fill="black"/>
<path d="M13.5 21C13.7761 21 14 20.7761 14 20.5C14 20.2239 13.7761 20 13.5 20C13.2239 20 13 20.2239 13 20.5C13 20.7761 13.2239 21 13.5 21Z" fill="black"/>
<path d="M11 20.5C11 20.7761 10.7761 21 10.5 21C10.2239 21 10 20.7761 10 20.5C10 20.2239 10.2239 20 10.5 20C10.7761 20 11 20.2239 11 20.5Z" fill="black"/>
<path d="M7.5 21C7.77614 21 8 20.7761 8 20.5C8 20.2239 7.77614 20 7.5 20C7.22386 20 7 20.2239 7 20.5C7 20.7761 7.22386 21 7.5 21Z" fill="black"/>
<path fill-rule="evenodd" clip-rule="evenodd" d="M14 7C14 5.34315 15.3431 4 17 4C18.6569 4 20 5.34315 20 7C20 8.65685 18.6569 10 17 10C15.3431 10 14 8.65685 14 7ZM17 5C15.8954 5 15 5.89543 15 7C15 8.10457 15.8954 9 17 9C18.1046 9 19 8.10457 19 7C19 5.89543 18.1046 5 17 5Z" fill="black"/>
<path fill-rule="evenodd" clip-rule="evenodd" d="M17 12C15.3431 12 14 13.3431 14 15C14 16.6569 15.3431 18 17 18C18.6569 18 20 16.6569 20 15C20 13.3431 18.6569 12 17 12ZM15 15C15 13.8954 15.8954 13 17 13C18.1046 13 19 13.8954 19 15C19 16.1046 18.1046 17 17 17C15.8954 17 15 16.1046 15 15Z" fill="black"/>
<path fill-rule="evenodd" clip-rule="evenodd" d="M4 15C4 13.3431 5.34315 12 7 12C8.65685 12 10 13.3431 10 15C10 16.6569 8.65685 18 7 18C5.34315 18 4 16.6569 4 15ZM7 13C5.89543 13 5 13.8954 5 15C5 16.1046 5.89543 17 7 17C8.10457 17 9 16.1046 9 15C9 13.8954 8.10457 13 7 13Z" fill="black"/>
<path fill-rule="evenodd" clip-rule="evenodd" d="M9 4H7C5.34315 4 4 5.34315 4 7C4 8.65685 5.34315 10 7 10H9C10.6569 10 12 8.65685 12 7C12 5.34315 10.6569 4 9 4ZM5 7C5 5.89543 5.89543 5 7 5C8.10457 5 9 5.89543 9 7C9 8.10457 8.10457 9 7 9C5.89543 9 5 8.10457 5 7ZM10 7C10 6.23908 9.71671 5.54433 9.24984 5.01545C10.2365 5.13841 11 5.98004 11 7C11 8.01996 10.2365 8.86159 9.24984 8.98455C9.71671 8.45567 10 7.76092 10 7Z" fill="black"/>
<path fill-rule="evenodd" clip-rule="evenodd" d="M1 1.97727C1 1.43754 1.43754 1 1.97727 1H22.0227C22.5625 1 23 1.43754 23 1.97727V22.0227C23 22.5625 22.5625 23 22.0227 23H1.97727C1.43754 23 1 22.5625 1 22.0227V1.97727ZM2 2V22H22V2H2Z" fill="black"/>
</svg>
