<svg width="24" height="24" viewBox="0 0 24 24" fill="none" xmlns="http://www.w3.org/2000/svg">
<path d="M13.9994 15.001C14.2756 15.001 14.4994 14.7771 14.4994 14.501C14.4994 14.2249 14.2756 14.001 13.9994 14.001C13.7233 14.001 13.4994 14.2249 13.4994 14.501C13.4994 14.7771 13.7233 15.001 13.9994 15.001Z" fill="black"/>
<path d="M13.9994 17.001C14.2756 17.001 14.4994 16.7771 14.4994 16.501C14.4994 16.2249 14.2756 16.001 13.9994 16.001C13.7233 16.001 13.4994 16.2249 13.4994 16.501C13.4994 16.7771 13.7233 17.001 13.9994 17.001Z" fill="black"/>
<path d="M9.99941 15.001C10.2756 15.001 10.4994 14.7771 10.4994 14.501C10.4994 14.2249 10.2756 14.001 9.99941 14.001C9.72327 14.001 9.49941 14.2249 9.49941 14.501C9.49941 14.7771 9.72327 15.001 9.99941 15.001Z" fill="black"/>
<path d="M9.99941 17.001C10.2756 17.001 10.4994 16.7771 10.4994 16.501C10.4994 16.2249 10.2756 16.001 9.99941 16.001C9.72327 16.001 9.49941 16.2249 9.49941 16.501C9.49941 16.7771 9.72327 17.001 9.99941 17.001Z" fill="black"/>
<path d="M20.9874 3.895C20.9534 3.737 20.8434 3.605 20.6944 3.541C20.3504 3.395 17.5064 2.2 16.2034 2.024L15.2334 1.132C15.1414 1.047 15.0204 1 14.8954 1H9.06241C8.93541 1 8.81242 1.049 8.71941 1.136L7.78541 2.016C6.38441 2.16 3.62141 3.396 3.29341 3.546C3.14841 3.61 3.04441 3.74 3.01141 3.895L0.511414 16.395C0.479414 16.543 0.515414 16.698 0.610414 16.815C0.706414 16.933 0.848414 17.002 1.00041 17.002H4.00041C4.21941 17.002 4.41241 16.86 4.47841 16.651L6.83241 9.099C6.83741 9.055 6.87341 9.022 6.91641 9.022C6.96641 9.022 7.00541 9.059 7.00541 9.043L5.50541 21.437C5.48641 21.58 5.53041 21.724 5.62541 21.833C5.72041 21.94 5.85741 22.003 6.00141 22.003H10.5634C10.7694 22.003 10.9554 21.876 11.0294 21.684C11.0374 21.664 11.5944 19.113 12.0144 17.946L13.0534 21.681C13.1274 21.875 13.3134 22.003 13.5214 22.003H17.9994C18.1434 22.003 18.2794 21.941 18.3744 21.834C18.4694 21.726 18.5134 21.583 18.4954 21.44L17.0834 9.023L19.5224 16.654C19.5884 16.862 19.7814 17.003 19.9994 17.003H22.9994C23.1504 17.003 23.2934 16.935 23.3894 16.816C23.4844 16.699 23.5204 16.545 23.4884 16.396L20.9874 3.895ZM9.26141 2.001H14.7004L15.3344 2.584C14.7824 3.439 13.3314 6.717 11.9664 9.058C10.5434 6.914 9.13141 3.477 8.62841 2.596L9.26141 2.001ZM10.2104 21.001H6.56941L7.99941 9.107C7.99941 8.508 7.51341 8.021 6.91441 8.021C6.36141 8.021 5.89741 8.436 5.85541 8.893L3.63141 16H1.61941L3.93441 4.354C4.86541 3.945 6.74141 3.184 7.72741 3.033C8.23941 3.932 9.90441 7.814 11.4994 10.154V16.414C11.3404 16.857 10.5204 20.141 10.2104 21.001ZM20.3644 16.001L18.1064 8.924C18.0404 8.409 17.6004 8.022 17.0834 8.022C16.5154 8.022 16.0524 8.485 16.0564 9.116L17.4324 21.002H13.8654L12.4994 16.408V10.136C13.9964 7.526 15.7024 3.859 16.2324 3.037C17.0944 3.198 18.8784 3.868 20.0654 4.361L22.3784 16.001H20.3644Z" fill="black"/>
</svg>
