<svg width="24" height="24" viewBox="0 0 24 24" fill="none" xmlns="http://www.w3.org/2000/svg">
<g clip-path="url(#clip0_338_14304)">
<path d="M7.01611 2C7.01611 2.276 6.79211 2.5 6.51611 2.5C6.23911 2.5 6.01611 2.276 6.01611 2V1C6.01611 0.724 6.24011 0.5 6.51611 0.5C6.79211 0.5 7.01611 0.724 7.01611 1V2Z" fill="black"/>
<path fill-rule="evenodd" clip-rule="evenodd" d="M23.3031 13.465L16.4931 19.562C16.2391 19.831 15.8431 20 15.4341 20H14.4721L16.8721 23.2C17.0381 23.421 16.9931 23.734 16.7721 23.9C16.6821 23.967 16.5771 24 16.4731 24C16.3211 24 16.1711 23.932 16.0731 23.8L13.2231 20H7.76511L4.91511 23.8C4.81711 23.932 4.66711 24 4.51511 24C4.41111 24 4.30611 23.967 4.21611 23.9C3.99511 23.734 3.95011 23.421 4.11611 23.2L6.51611 20H2.51611C1.13811 20 0.0161133 18.878 0.0161133 17.5C0.0161133 16.122 1.13811 15 2.51611 15H13.7321C13.8711 15 14.0031 14.942 14.0981 14.841L19.6511 9.962C20.5211 9.021 22.2951 8.958 23.2671 9.94C24.2371 10.918 24.2531 12.466 23.3031 13.465ZM2.51611 16C1.68911 16 1.01611 16.673 1.01611 17.5C1.01611 18.327 1.68811 19 2.51611 19H15.4361C15.5721 19 15.7041 18.943 15.7981 18.845L22.6071 12.748C23.1521 12.172 23.1421 11.236 22.5561 10.643C21.9641 10.046 20.9201 10.063 20.3471 10.679L14.7941 15.558C14.5471 15.826 14.1481 16 13.7331 16H2.51611Z" fill="black"/>
<path d="M9.67111 3.82C9.79911 3.82 9.92711 3.771 10.0251 3.674L10.7321 2.967C10.9271 2.771 10.9271 2.454 10.7321 2.259C10.5371 2.063 10.2201 2.063 10.0251 2.259L9.31711 2.967C9.12211 3.162 9.12211 3.479 9.31711 3.674C9.41511 3.771 9.54311 3.82 9.67111 3.82Z" fill="black"/>
<path d="M11.0161 7C10.7401 7 10.5161 6.776 10.5161 6.5C10.5161 6.224 10.7391 6 11.0161 6H12.0161C12.2921 6 12.5161 6.224 12.5161 6.5C12.5161 6.776 12.2921 7 12.0161 7H11.0161Z" fill="black"/>
<path d="M9.31711 9.331C9.12211 9.526 9.12211 9.843 9.31711 10.038L10.0241 10.746C10.1221 10.844 10.2501 10.892 10.3781 10.892C10.5061 10.892 10.6341 10.843 10.7321 10.746C10.9271 10.552 10.9271 10.234 10.7321 10.039L10.0251 9.331C9.82911 9.135 9.51311 9.135 9.31711 9.331Z" fill="black"/>
<path d="M6.01611 12V11C6.01611 10.724 6.24011 10.5 6.51611 10.5C6.79211 10.5 7.01611 10.724 7.01611 11V12C7.01611 12.276 6.79211 12.5 6.51611 12.5C6.24011 12.5 6.01611 12.276 6.01611 12Z" fill="black"/>
<path d="M2.95311 9.331L2.24611 10.039C2.05111 10.234 2.05111 10.552 2.24611 10.746C2.34411 10.844 2.47211 10.892 2.60011 10.892C2.72811 10.892 2.85611 10.843 2.95411 10.746L3.66111 10.038C3.85611 9.843 3.85611 9.526 3.66111 9.331C3.46511 9.135 3.14811 9.135 2.95311 9.331Z" fill="black"/>
<path d="M2.01611 7H1.01611C0.739113 7 0.516113 6.776 0.516113 6.5C0.516113 6.224 0.740113 6 1.01611 6H2.01611C2.29211 6 2.51611 6.224 2.51611 6.5C2.51611 6.776 2.29211 7 2.01611 7Z" fill="black"/>
<path d="M2.95311 3.674C3.05111 3.771 3.17911 3.82 3.30711 3.82C3.43511 3.82 3.56211 3.771 3.66011 3.674C3.85511 3.479 3.85511 3.162 3.66011 2.967L2.95311 2.259C2.75811 2.063 2.44111 2.063 2.24611 2.259C2.05111 2.454 2.05111 2.77 2.24611 2.967L2.95311 3.674Z" fill="black"/>
<path fill-rule="evenodd" clip-rule="evenodd" d="M9.51611 6.518C9.51611 8.173 8.17011 9.518 6.51611 9.518C4.86111 9.518 3.51611 8.173 3.51611 6.518C3.51611 4.864 4.86211 3.518 6.51611 3.518C8.17011 3.518 9.51611 4.864 9.51611 6.518ZM8.51611 6.518C8.51611 5.415 7.61911 4.518 6.51611 4.518C5.41311 4.518 4.51611 5.415 4.51611 6.518C4.51611 7.621 5.41311 8.518 6.51611 8.518C7.61911 8.518 8.51611 7.621 8.51611 6.518Z" fill="black"/>
</g>
<defs>
<clipPath id="clip0_338_14304">
<rect width="24" height="24" fill="white"/>
</clipPath>
</defs>
</svg>
