<svg width="24" height="24" viewBox="0 0 24 24" fill="none" xmlns="http://www.w3.org/2000/svg">
<g clip-path="url(#clip0_338_14469)">
<path d="M12 0C12.2761 0 12.5 0.223858 12.5 0.5V2.5C12.5 2.77614 12.2761 3 12 3C11.7239 3 11.5 2.77614 11.5 2.5V0.5C11.5 0.223858 11.7239 0 12 0Z" fill="black"/>
<path fill-rule="evenodd" clip-rule="evenodd" d="M12 20C16.4183 20 20 16.4183 20 12C20 7.58172 16.4183 4 12 4C7.58172 4 4 7.58172 4 12C4 16.4183 7.58172 20 12 20ZM12 19C15.866 19 19 15.866 19 12C19 8.13401 15.866 5 12 5C8.13401 5 5 8.13401 5 12C5 15.866 8.13401 19 12 19Z" fill="black"/>
<path d="M20.4853 4.22187C20.6805 4.02661 20.6805 3.71002 20.4853 3.51476C20.29 3.3195 19.9734 3.3195 19.7782 3.51476L18.3639 4.92898C18.1687 5.12424 18.1687 5.44082 18.3639 5.63608C18.5592 5.83134 18.8758 5.83134 19.0711 5.63608L20.4853 4.22187Z" fill="black"/>
<path d="M24 12.0001C24 12.2762 23.7761 12.5001 23.5 12.5001H21.5C21.2239 12.5001 21 12.2762 21 12.0001C21 11.7239 21.2239 11.5001 21.5 11.5001H23.5C23.7761 11.5001 24 11.7239 24 12.0001Z" fill="black"/>
<path d="M19.7782 20.4855C19.9735 20.6807 20.2901 20.6807 20.4853 20.4855C20.6806 20.2902 20.6806 19.9736 20.4853 19.7784L19.0711 18.3641C18.8758 18.1689 18.5593 18.1689 18.364 18.3641C18.1687 18.5594 18.1687 18.876 18.364 19.0713L19.7782 20.4855Z" fill="black"/>
<path d="M12 24.0001C11.7239 24.0001 11.5 23.7762 11.5 23.5001V21.5001C11.5 21.2239 11.7239 21.0001 12 21.0001C12.2761 21.0001 12.5 21.2239 12.5 21.5001V23.5001C12.5 23.7762 12.2761 24.0001 12 24.0001Z" fill="black"/>
<path d="M3.51473 19.7783C3.31947 19.9735 3.31947 20.2901 3.51473 20.4854C3.71 20.6807 4.02658 20.6807 4.22184 20.4854L5.63605 19.0712C5.83132 18.8759 5.83132 18.5593 5.63605 18.3641C5.44079 18.1688 5.12421 18.1688 4.92895 18.3641L3.51473 19.7783Z" fill="black"/>
<path d="M0 12.0001C0 11.7239 0.223858 11.5001 0.5 11.5001H2.5C2.77614 11.5001 3 11.7239 3 12.0001C3 12.2762 2.77614 12.5001 2.5 12.5001H0.5C0.223858 12.5001 0 12.2762 0 12.0001Z" fill="black"/>
<path d="M4.22179 3.51469C4.02653 3.31942 3.70995 3.31942 3.51469 3.51469C3.31942 3.70995 3.31942 4.02653 3.51469 4.22179L4.9289 5.63601C5.12416 5.83127 5.44074 5.83127 5.63601 5.63601C5.83127 5.44074 5.83127 5.12416 5.63601 4.9289L4.22179 3.51469Z" fill="black"/>
</g>
<defs>
<clipPath id="clip0_338_14469">
<rect width="24" height="24" fill="white"/>
</clipPath>
</defs>
</svg>
