<svg width="24" height="24" viewBox="0 0 24 24" fill="none" xmlns="http://www.w3.org/2000/svg">
<g clip-path="url(#clip0_338_14319)">
<path d="M11.488 2.98411C11.212 2.98411 10.988 2.76011 10.988 2.48411V0.516113C10.988 0.240113 11.212 0.0161133 11.488 0.0161133C11.764 0.0161133 11.988 0.240113 11.988 0.516113V2.48511C11.988 2.76111 11.765 2.98411 11.488 2.98411Z" fill="black"/>
<path d="M4.986 15.2411C5.079 15.4021 5.247 15.4921 5.42 15.4921C5.505 15.4921 5.591 15.4711 5.669 15.4261C5.908 15.2881 5.991 14.9821 5.853 14.7431C5.29 13.7651 4.993 12.6471 4.993 11.5091C4.993 7.92511 7.909 5.00911 11.493 5.00911C15.077 5.00911 17.993 7.92511 17.993 11.5091C17.993 12.6451 17.696 13.7631 17.133 14.7421C16.995 14.9821 17.078 15.2871 17.317 15.4251C17.556 15.5611 17.862 15.4791 18 15.2401C18.65 14.1111 18.993 12.8211 18.993 11.5091C18.993 7.37311 15.629 4.00911 11.493 4.00911C7.357 4.00911 3.993 7.37311 3.993 11.5091C3.993 12.8211 4.336 14.1111 4.986 15.2411Z" fill="black"/>
<path fill-rule="evenodd" clip-rule="evenodd" d="M9 21.5001C9 21.7761 9.224 22.0001 9.5 22.0001H13.5C13.776 22.0001 14 21.7761 14 21.5001V17.0001H15.988C16.196 17.0001 16.382 16.8721 16.456 16.6781C16.529 16.4841 16.476 16.2651 16.321 16.1271L11.833 12.1271C11.644 11.9571 11.358 11.9581 11.168 12.1261L6.668 16.1261C6.513 16.2651 6.46 16.4841 6.533 16.6781C6.606 16.8721 6.792 17.0001 7 17.0001H9V21.5001ZM13 16.5001V21.0001H10V16.5001C10 16.2241 9.776 16.0001 9.5 16.0001H8.315L11.5 13.1691L14.676 16.0001H13.5C13.224 16.0001 13 16.2241 13 16.5001Z" fill="black"/>
<path d="M17.517 5.47811C17.615 5.57511 17.743 5.62411 17.871 5.62411C17.999 5.62411 18.127 5.57511 18.224 5.47811L19.616 4.08611C19.811 3.89111 19.811 3.57411 19.616 3.37911C19.421 3.18411 19.104 3.18411 18.909 3.37911L17.517 4.77111C17.322 4.96611 17.322 5.28311 17.517 5.47811Z" fill="black"/>
<path d="M22.486 12.0041H20.517C20.241 12.0041 20.017 11.7801 20.017 11.5041C20.017 11.2281 20.241 11.0041 20.517 11.0041H22.486C22.762 11.0041 22.986 11.2281 22.986 11.5041C22.986 11.7801 22.763 12.0041 22.486 12.0041Z" fill="black"/>
<path d="M18.917 19.6331C19.015 19.7301 19.143 19.7791 19.271 19.7791C19.398 19.7791 19.526 19.7301 19.624 19.6331C19.819 19.4381 19.819 19.1211 19.624 18.9261L18.231 17.5331C18.036 17.3381 17.719 17.3381 17.524 17.5331C17.329 17.7281 17.329 18.0451 17.524 18.2401L18.917 19.6331Z" fill="black"/>
<path d="M3.724 19.7861C3.596 19.7861 3.468 19.7371 3.37 19.6401C3.175 19.4451 3.175 19.1281 3.37 18.9331L4.762 17.5401C4.957 17.3451 5.274 17.3451 5.469 17.5401C5.664 17.7351 5.664 18.0521 5.469 18.2471L4.077 19.6401C3.979 19.7371 3.852 19.7861 3.724 19.7861Z" fill="black"/>
<path d="M0.5 12.0141H2.469C2.745 12.0141 2.969 11.7901 2.969 11.5141C2.969 11.2381 2.745 11.0141 2.469 11.0141H0.5C0.224 11.0141 0 11.2381 0 11.5141C0 11.7901 0.224 12.0141 0.5 12.0141Z" fill="black"/>
<path d="M5.108 5.63111C4.98 5.63111 4.852 5.58211 4.754 5.48511L3.363 4.09211C3.168 3.89711 3.168 3.58011 3.363 3.38511C3.558 3.19011 3.875 3.19011 4.07 3.38511L5.462 4.77811C5.657 4.97311 5.657 5.29011 5.462 5.48511C5.364 5.58211 5.236 5.63111 5.108 5.63111Z" fill="black"/>
<path d="M0.5 24.0001H22.488C22.765 24.0001 22.988 23.7761 22.988 23.5001C22.988 23.2241 22.764 23.0001 22.488 23.0001H0.5C0.224 23.0001 0 23.2241 0 23.5001C0 23.7761 0.224 24.0001 0.5 24.0001Z" fill="black"/>
</g>
<defs>
<clipPath id="clip0_338_14319">
<rect width="24" height="24" fill="white"/>
</clipPath>
</defs>
</svg>
