<svg width="24" height="24" viewBox="0 0 24 24" fill="none" xmlns="http://www.w3.org/2000/svg">
<path d="M12.5 1.5C12.5 1.22386 12.2761 1 12 1C11.7239 1 11.5 1.22386 11.5 1.5V3.5C11.5 3.77614 11.7239 4 12 4C12.2761 4 12.5 3.77614 12.5 3.5V1.5Z" fill="black"/>
<path d="M20.1317 5.07537C20.327 4.88011 20.327 4.56353 20.1317 4.36826C19.9364 4.173 19.6199 4.173 19.4246 4.36826L18.0104 5.78248C17.8151 5.97774 17.8151 6.29432 18.0104 6.48958C18.2056 6.68485 18.5222 6.68485 18.7175 6.48958L20.1317 5.07537Z" fill="black"/>
<path d="M23 13C23.2761 13 23.5 12.7761 23.5 12.5C23.5 12.2239 23.2761 12 23 12H21C20.7239 12 20.5 12.2239 20.5 12.5C20.5 12.7761 20.7239 13 21 13H23Z" fill="black"/>
<path d="M1 12C0.723858 12 0.5 12.2239 0.5 12.5C0.5 12.7761 0.723858 13 1 13H3C3.27614 13 3.5 12.7761 3.5 12.5C3.5 12.2239 3.27614 12 3 12H1Z" fill="black"/>
<path d="M4.57543 4.36829C4.38017 4.17303 4.06359 4.17303 3.86832 4.36829C3.67306 4.56356 3.67306 4.88014 3.86832 5.0754L5.28254 6.48962C5.4778 6.68488 5.79438 6.68488 5.98964 6.48962C6.18491 6.29435 6.18491 5.97777 5.98964 5.78251L4.57543 4.36829Z" fill="black"/>
<path d="M0 16.5C0 16.2239 0.223858 16 0.5 16H23.5C23.7761 16 24 16.2239 24 16.5C24 16.7761 23.7761 17 23.5 17H0.5C0.223858 17 0 16.7761 0 16.5Z" fill="black"/>
<path d="M3 19.5C3 19.2239 3.22386 19 3.5 19H20.5C20.7761 19 21 19.2239 21 19.5C21 19.7761 20.7761 20 20.5 20H3.5C3.22386 20 3 19.7761 3 19.5Z" fill="black"/>
<path d="M6 22.5C6 22.2239 6.22386 22 6.5 22H17.5C17.7761 22 18 22.2239 18 22.5C18 22.7761 17.7761 23 17.5 23H6.5C6.22386 23 6 22.7761 6 22.5Z" fill="black"/>
<path d="M18.5 12.5C18.5 13.0163 18.4398 13.5185 18.3261 14H19.35C19.4484 13.5153 19.5 13.0137 19.5 12.5C19.5 8.35786 16.1421 5 12 5C7.85786 5 4.5 8.35786 4.5 12.5C4.5 13.0137 4.55165 13.5153 4.65003 14H5.67393C5.56019 13.5185 5.5 13.0163 5.5 12.5C5.5 8.91015 8.41015 6 12 6C15.5899 6 18.5 8.91015 18.5 12.5Z" fill="black"/>
</svg>
