<svg width="24" height="24" viewBox="0 0 24 24" fill="none" xmlns="http://www.w3.org/2000/svg">
<path d="M11.488 2.98387C11.212 2.98387 10.988 2.75987 10.988 2.48387V0.515869C10.988 0.239869 11.212 0.0158691 11.488 0.0158691C11.764 0.0158691 11.988 0.239869 11.988 0.515869V2.48487C11.988 2.76087 11.765 2.98387 11.488 2.98387Z" fill="black"/>
<path d="M4.98598 15.2408C5.07898 15.4018 5.24698 15.4918 5.41998 15.4918C5.50498 15.4918 5.59098 15.4708 5.66898 15.4258C5.90798 15.2878 5.99098 14.9818 5.85298 14.7428C5.28998 13.7648 4.99298 12.6468 4.99298 11.5088C4.99298 7.92479 7.90898 5.00879 11.493 5.00879C15.077 5.00879 17.993 7.92479 17.993 11.5088C17.993 12.6448 17.696 13.7628 17.133 14.7418C16.995 14.9818 17.078 15.2868 17.317 15.4248C17.557 15.5608 17.861 15.4788 18 15.2398C18.65 14.1108 18.993 12.8208 18.993 11.5088C18.993 7.37279 15.629 4.00879 11.493 4.00879C7.35698 4.00879 3.99298 7.37279 3.99298 11.5088C3.99298 12.8208 4.33598 14.1108 4.98598 15.2408Z" fill="black"/>
<path fill-rule="evenodd" clip-rule="evenodd" d="M11.16 21.8728C11.255 21.9578 11.374 21.9998 11.493 21.9998C11.612 21.9998 11.73 21.9578 11.825 21.8738L16.332 17.8738C16.487 17.7358 16.54 17.5158 16.467 17.3218C16.394 17.1278 16.208 16.9998 16 16.9998H14V12.4998C14 12.2238 13.776 11.9998 13.5 11.9998H9.50002C9.22402 11.9998 9.00002 12.2238 9.00002 12.4998V16.9998H7.00002C6.79202 16.9998 6.60602 17.1278 6.53202 17.3218C6.45902 17.5158 6.51202 17.7348 6.66702 17.8728L11.16 21.8728ZM11.493 20.8308L8.31302 17.9998H9.50002C9.77602 17.9998 10 17.7758 10 17.4998V12.9998H13V17.4998C13 17.7758 13.224 17.9998 13.5 17.9998H14.684L11.493 20.8308Z" fill="black"/>
<path d="M17.517 5.47792C17.615 5.57492 17.743 5.62392 17.871 5.62392C17.999 5.62392 18.127 5.57492 18.224 5.47792L19.616 4.08592C19.811 3.89092 19.811 3.57392 19.616 3.37892C19.421 3.18392 19.104 3.18392 18.909 3.37892L17.517 4.77092C17.322 4.96592 17.322 5.28292 17.517 5.47792Z" fill="black"/>
<path d="M22.486 12.0039H20.517C20.241 12.0039 20.017 11.7799 20.017 11.5039C20.017 11.2279 20.241 11.0039 20.517 11.0039H22.486C22.762 11.0039 22.986 11.2279 22.986 11.5039C22.986 11.7799 22.763 12.0039 22.486 12.0039Z" fill="black"/>
<path d="M18.917 19.633C19.015 19.73 19.143 19.779 19.271 19.779C19.398 19.779 19.526 19.73 19.624 19.633C19.819 19.438 19.819 19.121 19.624 18.926L18.231 17.533C18.036 17.338 17.719 17.338 17.524 17.533C17.329 17.728 17.329 18.045 17.524 18.24L18.917 19.633Z" fill="black"/>
<path d="M3.724 19.7858C3.596 19.7858 3.468 19.7368 3.37 19.6398C3.175 19.4448 3.175 19.1278 3.37 18.9328L4.762 17.5398C4.95701 17.3448 5.274 17.3448 5.469 17.5398C5.664 17.7348 5.664 18.0518 5.469 18.2468L4.07701 19.6398C3.97901 19.7368 3.85201 19.7858 3.724 19.7858Z" fill="black"/>
<path d="M0.5 12.0139H2.469C2.745 12.0139 2.969 11.7899 2.969 11.5139C2.969 11.2379 2.745 11.0139 2.469 11.0139H0.5C0.224 11.0139 0 11.2379 0 11.5139C0 11.7899 0.224 12.0139 0.5 12.0139Z" fill="black"/>
<path d="M5.10799 5.63078C4.97999 5.63078 4.85199 5.58178 4.75399 5.48478L3.36299 4.09178C3.16799 3.89678 3.16799 3.57978 3.36299 3.38478C3.55799 3.18978 3.87499 3.18978 4.06999 3.38478L5.46199 4.77778C5.65699 4.97278 5.65699 5.28978 5.46199 5.48478C5.36399 5.58178 5.23599 5.63078 5.10799 5.63078Z" fill="black"/>
<path d="M0.5 23.9998H22.488C22.765 23.9998 22.988 23.7758 22.988 23.4998C22.988 23.2238 22.764 22.9998 22.488 22.9998H0.5C0.224 22.9998 0 23.2238 0 23.4998C0 23.7758 0.224 23.9998 0.5 23.9998Z" fill="black"/>
</svg>
