<svg width="24" height="24" viewBox="0 0 24 24" fill="none" xmlns="http://www.w3.org/2000/svg">
<g clip-path="url(#clip0_345_13190)">
<path d="M23.8542 6.646L19.8183 2.611C18.7943 1.587 17.3773 1 15.9283 1H8.07025C6.60125 1 5.22025 1.572 4.18125 2.611L0.14625 6.646C-0.04875 6.841 -0.04875 7.158 0.14625 7.353L3.14625 10.353C3.32825 10.537 3.62025 10.549 3.82025 10.383L6.00025 8.567V22.5C6.00025 22.776 6.22425 23 6.50025 23H17.5002C17.7762 23 18.0002 22.776 18.0002 22.5V8.567L20.1803 10.383C20.3792 10.55 20.6723 10.537 20.8542 10.353L23.8542 7.353C23.9473 7.26 24.0002 7.133 24.0002 7C24.0002 6.867 23.9473 6.74 23.8542 6.646ZM14.4493 2C14.2172 3.14 13.2083 4 12.0002 4C10.7922 4 9.78325 3.14 9.55125 2H14.4493ZM20.4702 9.323L17.8202 7.116C17.6712 6.991 17.4643 6.967 17.2882 7.047C17.1122 7.13 17.0002 7.306 17.0002 7.5V22H7.00025V7.5C7.00025 7.306 6.88825 7.13 6.71225 7.047C6.53725 6.966 6.32925 6.99 6.18025 7.116L3.53025 9.323L1.20725 7L4.88925 3.318C5.74025 2.467 6.86925 2 8.07125 2H8.55125C8.79625 3.691 10.2413 5 12.0002 5C13.7592 5 15.2043 3.691 15.4493 2H15.9283C17.1133 2 18.2733 2.48 19.1112 3.318L22.7943 7L20.4702 9.323Z" fill="black"/>
</g>
<defs>
<clipPath id="clip0_345_13190">
<rect width="24" height="24" fill="white"/>
</clipPath>
</defs>
</svg>
