<svg width="24" height="24" viewBox="0 0 24 24" fill="none" xmlns="http://www.w3.org/2000/svg">
<path d="M19.854 8.646C18.485 7.278 18 5.408 18 1.5C18 1.224 17.776 1 17.5 1H15.5C15.224 1 15 1.224 15 1.5V5.3C14.469 5.78 13.362 6 12.5 6C11.638 6 10.531 5.78 10 5.3V1.5C10 1.224 9.776 1 9.5 1H7.5C7.224 1 7 1.224 7 1.5C7 5.408 6.515 7.278 5.146 8.646C5.053 8.74 5 8.867 5 9V22.5C5 22.776 5.224 23 5.5 23H19.5C19.776 23 20 22.776 20 22.5V9C20 8.867 19.947 8.74 19.854 8.646ZM19 22H6V9.202C7.412 7.703 7.954 5.752 7.997 2H9V5.5C9 5.617 9.041 5.73 9.116 5.82C10.051 6.943 12.099 7 12.5 7C12.901 7 14.949 6.943 15.884 5.82C15.959 5.73 16 5.617 16 5.5V2H17.003C17.046 5.752 17.588 7.703 19 9.202V22Z" fill="black"/>
</svg>
