<svg width="24" height="24" viewBox="0 0 24 24" fill="none" xmlns="http://www.w3.org/2000/svg">
<path d="M12 8C12.5523 8 13 7.55228 13 7C13 6.44772 12.5523 6 12 6C11.4477 6 11 6.44772 11 7C11 7.55228 11.4477 8 12 8Z" fill="black"/>
<path d="M9.99999 3.5C9.99999 3.77614 9.77613 4 9.49999 4C9.22385 4 8.99999 3.77614 8.99999 3.5C8.99999 3.22386 9.22385 3 9.49999 3C9.77613 3 9.99999 3.22386 9.99999 3.5Z" fill="black"/>
<path d="M14.5 4C14.7761 4 15 3.77614 15 3.5C15 3.22386 14.7761 3 14.5 3C14.2238 3 14 3.22386 14 3.5C14 3.77614 14.2238 4 14.5 4Z" fill="black"/>
<path d="M12 13.5C10.48 13.5 9.26399 14.284 8.47899 15.767C8.34999 16.011 8.44399 16.314 8.68799 16.443C8.92899 16.57 9.23399 16.479 9.36399 16.234C9.97999 15.067 10.843 14.5 12 14.5C13.159 14.5 14.022 15.068 14.64 16.238C14.73 16.408 14.904 16.505 15.082 16.505C15.161 16.505 15.241 16.486 15.315 16.447C15.559 16.318 15.653 16.015 15.524 15.771C14.74 14.285 13.521 13.5 12 13.5Z" fill="black"/>
<path fill-rule="evenodd" clip-rule="evenodd" d="M21.571 8.866C22.222 9.018 22.773 9.416 23.125 9.983C23.478 10.551 23.587 11.222 23.434 11.872C23.282 12.522 22.884 13.073 22.317 13.425L17.979 16.001C18.006 16.351 17.999 16.675 17.975 17.002C17.9789 17.002 17.9828 17.0015 17.9867 17.001C17.991 17.0005 17.9954 17 18 17C19.93 17 21.5 18.57 21.5 20.5C21.5 22.43 19.93 24 18 24C16.671 24 15.526 23.246 14.934 22.152C14.039 22.698 13.04 23 12 23C10.961 23 9.96199 22.697 9.06599 22.151C8.47499 23.246 7.32899 24 5.99999 24C4.06999 24 2.49999 22.43 2.49999 20.5C2.49999 18.57 4.06999 17 5.99999 17C6.00393 17 6.00787 17.0006 6.01172 17.0011C6.01668 17.0019 6.02149 17.0026 6.02599 17.002C6.00099 16.673 5.99499 16.347 6.02199 16L1.69199 13.429C0.512989 12.699 0.148989 11.155 0.874989 9.983C1.22699 9.416 1.77899 9.018 2.42899 8.866C3.07799 8.716 3.74899 8.823 4.31699 9.175L8.42299 11.39C8.54799 11.278 8.67699 11.174 8.80599 11.07C7.12299 10.006 5.99999 8.134 5.99999 6C5.99999 5.83 6.01199 5.663 6.02499 5.496C6.02111 5.496 6.01722 5.49694 6.01323 5.49791C6.00899 5.49894 6.00462 5.5 5.99999 5.5C4.62099 5.5 3.49999 4.379 3.49999 3C3.49999 1.621 4.62099 0.5 5.99999 0.5C6.81299 0.5 7.55599 0.893 8.01799 1.524C9.07799 0.58 10.471 0 12 0C13.531 0 14.926 0.581 15.987 1.528C16.451 0.897 17.196 0.5 18 0.5C19.379 0.5 20.5 1.621 20.5 3C20.5 4.379 19.379 5.5 18 5.5C17.9954 5.5 17.991 5.49894 17.9867 5.49791C17.9828 5.49694 17.9789 5.496 17.975 5.496C17.988 5.663 18 5.83 18 6C18 8.136 16.876 10.009 15.191 11.072C15.323 11.177 15.457 11.284 15.576 11.39L19.709 9.159C20.251 8.822 20.924 8.71 21.571 8.866ZM9.24999 8.25C9.24999 9.577 10.194 10.688 11.446 10.944C11.4993 10.9501 11.5523 10.9573 11.6051 10.9645C11.7356 10.9823 11.8655 11 12 11C12.1345 11 12.2644 10.9823 12.3948 10.9645C12.4477 10.9573 12.5006 10.9501 12.554 10.944C13.806 10.688 14.75 9.577 14.75 8.25C14.75 6.733 13.517 5.5 12 5.5C10.483 5.5 9.24999 6.733 9.24999 8.25ZM19.5 3C19.5 2.173 18.827 1.5 18 1.5C17.453 1.5 16.963 1.813 16.701 2.284C17.207 2.922 17.582 3.665 17.796 4.475C18.669 4.585 19.5 3.895 19.5 3ZM4.49999 3C4.49999 3.827 5.17299 4.5 5.99999 4.5C6.04711 4.5 6.09287 4.49184 6.13818 4.48377C6.16019 4.47985 6.18209 4.47594 6.20399 4.473C6.41799 3.664 6.79299 2.922 7.29899 2.283C7.03799 1.812 6.55399 1.5 5.99999 1.5C5.17299 1.5 4.49999 2.173 4.49999 3ZM12 1C9.24299 1 6.99999 3.243 6.99999 6C6.99999 7.394 7.57599 8.653 8.49999 9.562C8.34599 9.151 8.24999 8.713 8.24999 8.25C8.24999 6.183 9.93299 4.5 12 4.5C14.067 4.5 15.75 6.183 15.75 8.25C15.75 8.713 15.654 9.152 15.5 9.562C16.424 8.653 17 7.394 17 6C17 3.243 14.757 1 12 1ZM3.49999 20.5C3.49999 21.879 4.62099 23 5.99999 23C7.37899 23 8.49999 21.879 8.49999 20.5C8.49999 19.121 7.37899 18 5.99999 18C4.62099 18 3.49999 19.121 3.49999 20.5ZM18 23C19.379 23 20.5 21.879 20.5 20.5C20.5 19.121 19.379 18 18 18C16.621 18 15.5 19.121 15.5 20.5C15.5 21.879 16.621 23 18 23ZM21.798 12.571C22.13 12.364 22.368 12.033 22.46 11.643C22.552 11.253 22.486 10.851 22.276 10.51C22.064 10.169 21.733 9.931 21.343 9.839C20.949 9.746 20.55 9.813 20.21 10.024L15.737 12.44C15.55 12.541 15.313 12.51 15.157 12.364C14.9 12.122 14.539 11.802 14.189 11.581C13.51 11.848 12.773 12 12 12C11.224 12 10.483 11.847 9.79999 11.577C9.48599 11.778 9.15499 12.068 8.84199 12.364C8.68599 12.51 8.44999 12.541 8.26199 12.44L3.81599 10.04C3.44999 9.813 3.04799 9.746 2.65699 9.84C2.26799 9.932 1.93599 10.17 1.72499 10.511C1.28999 11.213 1.50799 12.139 2.21099 12.575L6.80599 15.304C6.97599 15.404 7.06999 15.596 7.04799 15.791C6.98799 16.297 6.99599 16.721 7.04899 17.178C8.46399 17.627 9.49999 18.938 9.49999 20.5C9.49999 20.74 9.47599 20.975 9.42799 21.201C10.989 22.227 13.011 22.222 14.57 21.199C14.524 20.974 14.5 20.739 14.5 20.5C14.5 18.938 15.536 17.627 16.951 17.178C17.004 16.723 17.012 16.299 16.952 15.791C16.929 15.596 17.024 15.405 17.194 15.304L21.798 12.571Z" fill="black"/>
</svg>
