<svg width="24" height="24" viewBox="0 0 24 24" fill="none" xmlns="http://www.w3.org/2000/svg">
<path fill-rule="evenodd" clip-rule="evenodd" d="M2.5 18H10.5C10.776 18 11 17.776 11 17.5V14.5C11 14.224 10.776 14 10.5 14H2.5C2.224 14 2 14.224 2 14.5V17.5C2 17.776 2.224 18 2.5 18ZM3 15H10V17H3V15Z" fill="black"/>
<path fill-rule="evenodd" clip-rule="evenodd" d="M20.5 18H12.5C12.224 18 12 17.776 12 17.5V14.5C12 14.224 12.224 14 12.5 14H20.5C20.776 14 21 14.224 21 14.5V17.5C21 17.776 20.776 18 20.5 18ZM20 15H13V17H20V15Z" fill="black"/>
<path fill-rule="evenodd" clip-rule="evenodd" d="M22.5 12H15C15.276 12 15.5 11.776 15.5 11.5C15.5 11.224 15.276 11 15 11H12V10H18.5C18.776 10 19 9.776 19 9.5V0.5C19 0.224 18.776 0 18.5 0H4.5C4.224 0 4 0.224 4 0.5V9.5C4 9.776 4.224 10 4.5 10H11V11H8C7.724 11 7.5 11.224 7.5 11.5C7.5 11.776 7.724 12 8 12H0.5C0.224 12 0 12.224 0 12.5V23.5C0 23.776 0.224 24 0.5 24H4C4.188 24 4.361 23.894 4.446 23.726L6.328 20H16.694L18.596 23.728C18.682 23.895 18.854 24 19.042 24H22.5C22.776 24 23 23.776 23 23.5V12.5C23 12.224 22.776 12 22.5 12ZM5 1H18V9H5V1ZM22 23H19.348L17.446 19.272C17.36 19.106 17.188 19 17 19H6.021C5.833 19 5.66 19.106 5.575 19.274L3.692 23H1V13H22V23Z" fill="black"/>
</svg>
