<svg width="24" height="24" viewBox="0 0 24 24" fill="none" xmlns="http://www.w3.org/2000/svg">
<g clip-path="url(#clip0_366_12630)">
<path d="M13 20C13 20.5523 12.5523 21 12 21C11.4477 21 11 20.5523 11 20C11 19.4477 11.4477 19 12 19C12.5523 19 13 19.4477 13 20Z" fill="black"/>
<path fill-rule="evenodd" clip-rule="evenodd" d="M12 0C10.8954 0 10 0.895431 10 2V16.5353C8.80519 17.2265 8 18.5188 8 20.0001C8 22.2092 9.79086 24.0001 12 24.0001C14.2091 24.0001 16 22.2092 16 20.0001C16 18.5188 15.1948 17.2265 14 16.5353V2C14 0.895431 13.1046 0 12 0ZM11 2C11 1.44772 11.4477 1 12 1C12.5523 1 13 1.44772 13 2V16.8369C13 17.0299 13.1111 17.2057 13.2855 17.2885C14.3002 17.7706 15 18.8041 15 20.0001C15 21.6569 13.6569 23.0001 12 23.0001C10.3431 23.0001 9 21.6569 9 20.0001C9 18.8041 9.69984 17.7706 10.7145 17.2885C10.8889 17.2057 11 17.0299 11 16.8369V2Z" fill="black"/>
<path d="M20 6V3.5C20 3.224 20.224 3 20.5 3C20.776 3 21 3.224 21 3.5V6H23.5C23.776 6 24 6.224 24 6.5C24 6.776 23.776 7 23.5 7H21V9.5C21 9.776 20.776 10 20.5 10C20.224 10 20 9.776 20 9.5V7H17.5C17.224 7 17 6.776 17 6.5C17 6.224 17.224 6 17.5 6H20Z" fill="black"/>
<path d="M0.5 6C0.223858 6 0 6.22386 0 6.5C0 6.77614 0.223858 7 0.5 7H6.5C6.77614 7 7 6.77614 7 6.5C7 6.22386 6.77614 6 6.5 6H0.5Z" fill="black"/>
</g>
<defs>
<clipPath id="clip0_366_12630">
<rect width="24" height="24" fill="white"/>
</clipPath>
</defs>
</svg>
