<svg width="24" height="24" viewBox="0 0 24 24" fill="none" xmlns="http://www.w3.org/2000/svg">
<g clip-path="url(#clip0_346_12990)">
<path d="M6 21C6.55229 21 7 20.5523 7 20C7 19.4477 6.55229 19 6 19C5.44771 19 5 19.4477 5 20C5 20.5523 5.44771 21 6 21Z" fill="black"/>
<path fill-rule="evenodd" clip-rule="evenodd" d="M4 2C4 0.895431 4.89543 0 6 0C7.10457 0 8 0.895431 8 2V16.5353C9.19481 17.2265 10 18.5188 10 20.0001C10 22.2092 8.20914 24.0001 6 24.0001C3.79086 24.0001 2 22.2092 2 20.0001C2 18.5188 2.80519 17.2265 4 16.5353V2ZM6 1C5.44772 1 5 1.44772 5 2V16.8369C5 17.0299 4.8889 17.2057 4.71455 17.2885C3.69984 17.7706 3 18.8041 3 20.0001C3 21.6569 4.34315 23.0001 6 23.0001C7.65685 23.0001 9 21.6569 9 20.0001C9 18.8041 8.30016 17.7706 7.28545 17.2885C7.1111 17.2057 7 17.0299 7 16.8369V2C7 1.44772 6.55228 1 6 1Z" fill="black"/>
<path d="M9.5 4H11.5C11.776 4 12 3.776 12 3.5C12 3.224 11.776 3 11.5 3H9.5C9.224 3 9 3.224 9 3.5C9 3.776 9.224 4 9.5 4Z" fill="black"/>
<path d="M11.5 8H9.5C9.224 8 9 8.224 9 8.5C9 8.776 9.224 9 9.5 9H11.5C11.776 9 12 8.776 12 8.5C12 8.224 11.776 8 11.5 8Z" fill="black"/>
<path d="M9.5 13H11.5C11.776 13 12 13.224 12 13.5C12 13.776 11.776 14 11.5 14H9.5C9.224 14 9 13.776 9 13.5C9 13.224 9.224 13 9.5 13Z" fill="black"/>
<path d="M18.854 16.8547L21.854 13.8547C22.049 13.6588 22.049 13.3427 21.854 13.1467C21.756 13.0498 21.628 13.0007 21.5 13.0007C21.372 13.0007 21.244 13.0498 21.146 13.1477L19 15.2937V3.50073C19 3.22473 18.776 3.00073 18.5 3.00073C18.224 3.00073 18 3.22473 18 3.50073V15.2937L15.853 13.1477C15.658 12.9528 15.341 12.9528 15.146 13.1477C14.951 13.3427 14.951 13.6597 15.146 13.8547L18.146 16.8547C18.192 16.8997 18.247 16.9368 18.309 16.9618C18.431 17.0128 18.569 17.0128 18.691 16.9618C18.752 16.9368 18.808 16.9007 18.854 16.8547Z" fill="black"/>
</g>
<defs>
<clipPath id="clip0_346_12990">
<rect width="24" height="24" fill="white"/>
</clipPath>
</defs>
</svg>
