<svg width="24" height="24" viewBox="0 0 24 24" fill="none" xmlns="http://www.w3.org/2000/svg">
<g clip-path="url(#clip0_346_13025)">
<path d="M8 20C8 20.5523 7.55229 21 7 21C6.44771 21 6 20.5523 6 20C6 19.4477 6.44771 19 7 19C7.55229 19 8 19.4477 8 20Z" fill="black"/>
<path fill-rule="evenodd" clip-rule="evenodd" d="M7 0C5.89543 0 5 0.895431 5 2V16.5353C3.80519 17.2265 3 18.5188 3 20.0001C3 22.2092 4.79086 24.0001 7 24.0001C9.20914 24.0001 11 22.2092 11 20.0001C11 18.5188 10.1948 17.2265 9 16.5353V2C9 0.895431 8.10457 0 7 0ZM6 2C6 1.44772 6.44772 1 7 1C7.55228 1 8 1.44772 8 2V16.8369C8 17.0299 8.1111 17.2057 8.28545 17.2885C9.30016 17.7706 10 18.8041 10 20.0001C10 21.6569 8.65685 23.0001 7 23.0001C5.34315 23.0001 4 21.6569 4 20.0001C4 18.8041 4.69984 17.7706 5.71455 17.2885C5.8889 17.2057 6 17.0299 6 16.8369V2Z" fill="black"/>
<path d="M16 2.5V6H12.5C12.224 6 12 6.224 12 6.5C12 6.776 12.224 7 12.5 7H16V10.5C16 10.776 16.224 11 16.5 11C16.776 11 17 10.776 17 10.5V7H20.5C20.776 7 21 6.776 21 6.5C21 6.224 20.776 6 20.5 6H17V2.5C17 2.224 16.776 2 16.5 2C16.224 2 16 2.224 16 2.5Z" fill="black"/>
</g>
<defs>
<clipPath id="clip0_346_13025">
<rect width="24" height="24" fill="white"/>
</clipPath>
</defs>
</svg>
