<svg width="24" height="24" viewBox="0 0 24 24" fill="none" xmlns="http://www.w3.org/2000/svg">
<g clip-path="url(#clip0_346_12969)">
<path d="M6 20C6 20.5523 5.55229 21 5 21C4.44771 21 4 20.5523 4 20C4 19.4477 4.44771 19 5 19C5.55229 19 6 19.4477 6 20Z" fill="black"/>
<path fill-rule="evenodd" clip-rule="evenodd" d="M5 0C3.89543 0 3 0.895431 3 2V16.5353C1.80519 17.2265 1 18.5188 1 20.0001C1 22.2092 2.79086 24.0001 5 24.0001C7.20914 24.0001 9 22.2092 9 20.0001C9 18.5188 8.19481 17.2265 7 16.5353V2C7 0.895431 6.10457 0 5 0ZM4 2C4 1.44772 4.44772 1 5 1C5.55228 1 6 1.44772 6 2V16.8369C6 17.0299 6.1111 17.2057 6.28545 17.2885C7.30016 17.7706 8 18.8041 8 20.0001C8 21.6569 6.65685 23.0001 5 23.0001C3.34315 23.0001 2 21.6569 2 20.0001C2 18.8041 2.69984 17.7706 3.71455 17.2885C3.8889 17.2057 4 17.0299 4 16.8369V2Z" fill="black"/>
<path d="M12.5 3C12.776 3 13 2.776 13 2.5V0.5C13 0.224 12.776 0 12.5 0C12.224 0 12 0.224 12 0.5V2.5C12 2.776 12.224 3 12.5 3Z" fill="black"/>
<path d="M12.5 4.5C11.782 4.5 11.074 4.608 10.396 4.822C10.133 4.905 9.98703 5.186 10.07 5.449C10.153 5.712 10.436 5.859 10.697 5.775C11.277 5.593 11.884 5.5 12.5 5.5C15.809 5.5 18.5 8.191 18.5 11.5C18.5 14.809 15.809 17.5 12.5 17.5C12.04 17.5 11.585 17.448 11.149 17.347C10.881 17.283 10.611 17.452 10.549 17.721C10.486 17.99 10.653 18.259 10.923 18.322C11.433 18.44 11.964 18.501 12.5 18.501C16.36 18.501 19.5 15.36 19.5 11.501C19.5 7.642 16.36 4.5 12.5 4.5Z" fill="black"/>
<path d="M21.5 11H23.5C23.776 11 24 11.224 24 11.5C24 11.776 23.776 12 23.5 12H21.5C21.224 12 21 11.776 21 11.5C21 11.224 21.224 11 21.5 11Z" fill="black"/>
<path d="M19.217 17.51C19.022 17.315 18.705 17.315 18.51 17.51C18.315 17.705 18.315 18.022 18.51 18.217L19.924 19.631C20.022 19.729 20.15 19.777 20.278 19.777C20.406 19.777 20.534 19.728 20.632 19.631C20.827 19.436 20.827 19.119 20.632 18.924L19.217 17.51Z" fill="black"/>
<path d="M19.217 5.49088C19.119 5.58788 18.991 5.63688 18.863 5.63688C18.735 5.63688 18.607 5.58788 18.51 5.48988C18.315 5.29488 18.315 4.97788 18.51 4.78288L19.924 3.36988C20.119 3.17488 20.436 3.17488 20.631 3.36988C20.826 3.56488 20.826 3.88188 20.631 4.07688L19.217 5.49088Z" fill="black"/>
<path d="M12.5 20C12.224 20 12 20.224 12 20.5V22.5C12 22.776 12.224 23 12.5 23C12.776 23 13 22.776 13 22.5V20.5C13 20.224 12.776 20 12.5 20Z" fill="black"/>
</g>
<defs>
<clipPath id="clip0_346_12969">
<rect width="24" height="24" fill="white"/>
</clipPath>
</defs>
</svg>
