<svg width="24" height="24" viewBox="0 0 24 24" fill="none" xmlns="http://www.w3.org/2000/svg">
<g clip-path="url(#clip0_330_14026)">
<path d="M11 21C11.5523 21 12 20.5523 12 20C12 19.4477 11.5523 19 11 19C10.4477 19 10 19.4477 10 20C10 20.5523 10.4477 21 11 21Z" fill="black"/>
<path fill-rule="evenodd" clip-rule="evenodd" d="M9 2C9 0.895431 9.89543 0 11 0C12.1046 0 13 0.895431 13 2V16.5353C14.1948 17.2265 15 18.5188 15 20.0001C15 22.2092 13.2091 24.0001 11 24.0001C8.79086 24.0001 7 22.2092 7 20.0001C7 18.5188 7.80519 17.2265 9 16.5353V2ZM11 1C10.4477 1 10 1.44772 10 2V16.8369C10 17.0299 9.8889 17.2057 9.71455 17.2885C8.69984 17.7706 8 18.8041 8 20.0001C8 21.6569 9.34315 23.0001 11 23.0001C12.6569 23.0001 14 21.6569 14 20.0001C14 18.8041 13.3002 17.7706 12.2855 17.2885C12.1111 17.2057 12 17.0299 12 16.8369V2C12 1.44772 11.5523 1 11 1Z" fill="black"/>
<path d="M16.5 4H14.5C14.224 4 14 3.776 14 3.5C14 3.224 14.224 3 14.5 3H16.5C16.776 3 17 3.224 17 3.5C17 3.776 16.776 4 16.5 4Z" fill="black"/>
<path d="M16.5 8H14.5C14.224 8 14 8.224 14 8.5C14 8.776 14.224 9 14.5 9H16.5C16.776 9 17 8.776 17 8.5C17 8.224 16.776 8 16.5 8Z" fill="black"/>
<path d="M16.5 13H14.5C14.224 13 14 13.224 14 13.5C14 13.776 14.224 14 14.5 14H16.5C16.776 14 17 13.776 17 13.5C17 13.224 16.776 13 16.5 13Z" fill="black"/>
</g>
<defs>
<clipPath id="clip0_330_14026">
<rect width="24" height="24" fill="white"/>
</clipPath>
</defs>
</svg>
