<svg width="24" height="24" viewBox="0 0 24 24" fill="none" xmlns="http://www.w3.org/2000/svg">
<g clip-path="url(#clip0_346_12966)">
<path d="M5 21C5.55229 21 6 20.5523 6 20C6 19.4477 5.55229 19 5 19C4.44771 19 4 19.4477 4 20C4 20.5523 4.44771 21 5 21Z" fill="black"/>
<path fill-rule="evenodd" clip-rule="evenodd" d="M3 2C3 0.895431 3.89543 0 5 0C6.10457 0 7 0.895431 7 2V16.5353C8.19481 17.2265 9 18.5188 9 20.0001C9 22.2092 7.20914 24.0001 5 24.0001C2.79086 24.0001 1 22.2092 1 20.0001C1 18.5188 1.80519 17.2265 3 16.5353V2ZM5 1C4.44772 1 4 1.44772 4 2V16.8369C4 17.0299 3.8889 17.2057 3.71455 17.2885C2.69984 17.7706 2 18.8041 2 20.0001C2 21.6569 3.34315 23.0001 5 23.0001C6.65685 23.0001 8 21.6569 8 20.0001C8 18.8041 7.30016 17.7706 6.28545 17.2885C6.1111 17.2057 6 17.0299 6 16.8369V2C6 1.44772 5.55228 1 5 1Z" fill="black"/>
<path fill-rule="evenodd" clip-rule="evenodd" d="M14 6.72289V5.30902L15.7236 4.44721C15.9706 4.32372 16.0707 4.02338 15.9472 3.77639C15.8237 3.5294 15.5234 3.42929 15.2764 3.55279L14 4.19098V2.80902L15.7236 1.94721C15.9706 1.82372 16.0707 1.52338 15.9472 1.27639C15.8237 1.0294 15.5234 0.929292 15.2764 1.05279L14 1.69098V0.5C14 0.223858 13.7762 0 13.5 0C13.2239 0 13 0.223858 13 0.5V1.69098L11.7236 1.05279C11.4766 0.929292 11.1763 1.0294 11.0528 1.27639C10.9293 1.52338 11.0294 1.82372 11.2764 1.94721L13 2.80902V4.19098L11.7236 3.55279C11.4766 3.42929 11.1763 3.5294 11.0528 3.77639C10.9293 4.02338 11.0294 4.32372 11.2764 4.44721L13 5.30902V6.72286L9.235 9.076C9.08881 9.16737 9 9.32761 9 9.5V13.5C9 13.6724 9.08881 13.8326 9.235 13.924L13 16.2771V17.691L11.2764 18.5528C11.0294 18.6763 10.9293 18.9766 11.0528 19.2236C11.1763 19.4706 11.4766 19.5707 11.7236 19.4472L13 18.809V20.191L11.2764 21.0528C11.0294 21.1763 10.9293 21.4766 11.0528 21.7236C11.1763 21.9706 11.4766 22.0707 11.7236 21.9472L13 21.309V22.5C13 22.7761 13.2238 23 13.5 23C13.7761 23 14 22.7761 14 22.5V21.309L15.2764 21.9472C15.5234 22.0707 15.8237 21.9706 15.9472 21.7236C16.0707 21.4766 15.9706 21.1763 15.7236 21.0528L14 20.191V18.809L15.2764 19.4472C15.5234 19.5707 15.8237 19.4706 15.9472 19.2236C16.0707 18.9766 15.9706 18.6763 15.7236 18.5528L14 17.691V16.2771L17.2528 14.2441L18.6116 15.0286L18.4961 16.9522C18.4796 17.2279 18.6896 17.4647 18.9653 17.4813C19.2409 17.4978 19.4778 17.2878 19.4943 17.0121L19.5798 15.5876L20.7766 16.2786L20.6612 18.2022C20.6446 18.4779 20.8547 18.7147 21.1303 18.7313C21.406 18.7478 21.6428 18.5378 21.6594 18.2621L21.7449 16.8376L22.7763 17.4331C23.0155 17.5712 23.3213 17.4893 23.4593 17.2501C23.5974 17.011 23.5155 16.7052 23.2763 16.5671L22.2449 15.9716L23.4358 15.1853C23.6662 15.0332 23.7297 14.723 23.5775 14.4926C23.4254 14.2621 23.1152 14.1987 22.8848 14.3508L21.2766 15.4126L20.0798 14.7216L21.2707 13.9353C21.5012 13.7832 21.5646 13.473 21.4125 13.2426C21.2603 13.0121 20.9502 12.9487 20.7197 13.1008L19.1116 14.1626L17.9996 13.5206C17.9999 13.5137 18 13.5069 18 13.5V9.5C18 9.4932 17.9999 9.48641 17.9996 9.47965L19.1116 8.83764L20.7197 9.89943C20.9502 10.0516 21.2603 9.98811 21.4125 9.75766C21.5646 9.52722 21.5012 9.21707 21.2707 9.06491L20.0798 8.27862L21.2766 7.58764L22.8848 8.64943C23.1152 8.80158 23.4254 8.73811 23.5775 8.50766C23.7297 8.27722 23.6662 7.96707 23.4358 7.81491L22.2449 7.02862L23.2763 6.43313C23.5155 6.29506 23.5974 5.98927 23.4593 5.75012C23.3212 5.51097 23.0155 5.42904 22.7763 5.56711L21.7449 6.1626L21.6594 4.73811C21.6428 4.46246 21.406 4.25242 21.1303 4.26897C20.8547 4.28551 20.6446 4.52238 20.6612 4.79803L20.7766 6.72161L19.5798 7.4126L19.4943 5.98811C19.4778 5.71246 19.2409 5.50242 18.9653 5.51897C18.6896 5.53551 18.4796 5.77238 18.4961 6.04803L18.6116 7.97162L17.253 8.75599L14 6.72289ZM10 9.77712V13.2229L13.5 15.4104L17 13.2229V9.77712L13.5 7.58962L10 9.77712Z" fill="black"/>
</g>
<defs>
<clipPath id="clip0_346_12966">
<rect width="24" height="24" fill="white"/>
</clipPath>
</defs>
</svg>
