<svg width="24" height="24" viewBox="0 0 24 24" fill="none" xmlns="http://www.w3.org/2000/svg">
<g clip-path="url(#clip0_339_13855)">
<path fill-rule="evenodd" clip-rule="evenodd" d="M13.04 17.624C13.122 17.676 13.215 17.701 13.307 17.701C13.443 17.701 13.578 17.646 13.677 17.538L23.459 6.837C23.592 6.692 23.627 6.48 23.547 6.299C23.466 6.117 23.287 6 23.089 6H19.325L22.575 0.764C22.67 0.61 22.675 0.416 22.587 0.257C22.499 0.099 22.332 0 22.15 0H17.611C17.428 0 17.259 0.101 17.172 0.262L12.282 9.262C12.198 9.416 12.202 9.605 12.292 9.756C12.382 9.907 12.546 10 12.722 10H15.704L12.844 17.013C12.752 17.236 12.835 17.494 13.04 17.624ZM16.447 9H13.562L17.908 1H21.251L18.001 6.236C17.906 6.39 17.901 6.584 17.989 6.743C18.077 6.901 18.244 7 18.426 7H21.955L14.827 14.797L16.91 9.689C16.973 9.534 16.955 9.36 16.862 9.221C16.769 9.083 16.614 9 16.447 9Z" fill="black"/>
<path d="M0.500006 13.5C0.372006 13.5 0.244006 13.451 0.146006 13.354C-0.0489941 13.159 -0.0489941 12.842 0.146006 12.647L11.646 1.147C11.841 0.952 12.158 0.952 12.353 1.147L13.916 2.709C14.111 2.904 14.111 3.221 13.916 3.416C13.721 3.611 13.404 3.611 13.209 3.416L12 2.207L0.854006 13.354C0.756006 13.451 0.628006 13.5 0.500006 13.5Z" fill="black"/>
<path d="M23.146 13.354C23.244 13.451 23.372 13.5 23.5 13.5C23.628 13.5 23.756 13.451 23.853 13.354C24.048 13.159 24.048 12.842 23.853 12.647L21.884 10.678C21.689 10.483 21.372 10.483 21.177 10.678C20.982 10.873 20.982 11.19 21.177 11.385L23.146 13.354Z" fill="black"/>
<path d="M14.5 24H20.5C20.776 24 21 23.776 21 23.5V14C21 13.724 20.776 13.5 20.5 13.5C20.224 13.5 20 13.724 20 14V23H15V18.5C15 18.224 14.776 18 14.5 18H9.50001C9.22401 18 9.00001 18.224 9.00001 18.5V23H4.00001V13.5C4.00001 13.224 3.77601 13 3.50001 13C3.22401 13 3.00001 13.224 3.00001 13.5V23.5C3.00001 23.776 3.22401 24 3.50001 24H9.50001C9.77601 24 10 23.776 10 23.5V19H14V23.5C14 23.776 14.224 24 14.5 24Z" fill="black"/>
</g>
<defs>
<clipPath id="clip0_339_13855">
<rect width="24" height="24" fill="white"/>
</clipPath>
</defs>
</svg>
