<svg width="24" height="24" viewBox="0 0 24 24" fill="none" xmlns="http://www.w3.org/2000/svg">
<g clip-path="url(#clip0_675_258)">
<path d="M1.10684 13.531C0.31258 7.87954 3.96334 2.62845 9.39596 1.31185L9.40742 1.30922C9.75409 1.22562 10.1081 1.158 10.4689 1.1073C10.8296 1.05661 11.1885 1.02402 11.5448 1.00883C11.8207 0.997069 12.0348 0.763879 12.0231 0.487987C12.0113 0.212095 11.7781 -0.00202347 11.5022 0.00973972C11.3254 0.0172794 11.148 0.0287461 10.9702 0.044208L10.9561 0.0452524C10.7479 0.0636021 10.539 0.0874305 10.3297 0.116846C3.76679 1.0392 -0.80579 7.10722 0.116568 13.6701C1.03893 20.2331 7.10694 24.8056 13.6699 23.8833C16.5275 23.4817 19.008 22.104 20.8214 20.1355L20.8297 20.1267C21.3615 19.5483 21.8358 18.9189 22.2453 18.2482C22.3892 18.0125 22.3148 17.7048 22.0791 17.5609C21.8434 17.417 21.5357 17.4914 21.3918 17.7271C21.3433 17.8065 21.2938 17.8853 21.2434 17.9635L21.2384 17.9709C19.5645 20.5584 16.8206 22.4306 13.5307 22.893C7.51468 23.7385 1.95233 19.547 1.10684 13.531Z" fill="black"/>
<path d="M13.2807 0.558006C13.3232 0.285155 13.5788 0.098426 13.8517 0.140935C14.6355 0.263052 15.3979 0.462055 16.1297 0.730913C16.3889 0.826148 16.5218 1.11347 16.4265 1.37268C16.3313 1.63188 16.044 1.7648 15.7848 1.66956C15.1142 1.42317 14.4157 1.24087 13.6977 1.12902C13.4249 1.08651 13.2381 0.830857 13.2807 0.558006Z" fill="black"/>
<path d="M17.5604 1.92089C17.7043 1.68521 18.012 1.61081 18.2477 1.75471C18.9184 2.16419 19.5478 2.63848 20.1262 3.17028C20.3295 3.35717 20.3428 3.67348 20.1559 3.87677C19.969 4.08006 19.6527 4.09335 19.4495 3.90647C18.9189 3.41874 18.3417 2.98374 17.7266 2.6082C17.4909 2.46429 17.4165 2.15658 17.5604 1.92089Z" fill="black"/>
<path d="M20.9955 4.81559C21.2184 4.6526 21.5312 4.70117 21.6942 4.92408C22.1543 5.55337 22.5558 6.23142 22.8892 6.95121C23.0053 7.20178 22.8963 7.49899 22.6457 7.61506C22.3951 7.73113 22.0979 7.62211 21.9818 7.37154C21.6764 6.71223 21.3087 6.09103 20.887 5.51432C20.724 5.29142 20.7725 4.97858 20.9955 4.81559Z" fill="black"/>
<path d="M23.0596 8.80464C23.3281 8.7399 23.5982 8.90503 23.6629 9.17348C23.7541 9.55154 23.8278 9.93736 23.883 10.3302C23.9382 10.723 23.9737 11.1142 23.9903 11.5027C24.002 11.7786 23.7879 12.0118 23.512 12.0236C23.2361 12.0353 23.0029 11.8212 22.9912 11.5453C22.976 11.189 22.9434 10.8301 22.8927 10.4693C22.842 10.1086 22.7744 9.75458 22.6908 9.40792C22.6261 9.13947 22.7912 8.86937 23.0596 8.80464Z" fill="black"/>
<path d="M23.442 13.2811C23.7149 13.3237 23.9016 13.5793 23.8591 13.8522C23.737 14.636 23.538 15.3984 23.2691 16.1302C23.1739 16.3894 22.8865 16.5223 22.6273 16.427C22.3681 16.3318 22.2352 16.0445 22.3305 15.7853C22.5768 15.1147 22.7591 14.4162 22.871 13.6982C22.9135 13.4254 23.1692 13.2386 23.442 13.2811Z" fill="black"/>
<path fill-rule="evenodd" clip-rule="evenodd" d="M12.5 4.49981C12.5 4.22367 12.2761 3.99981 12 3.99981C11.7238 3.99981 11.5 4.22367 11.5 4.49981V10.0628C10.6373 10.2848 9.99996 11.0679 9.99996 11.9998C9.99996 13.1044 10.8954 13.9998 12 13.9998C12.5389 13.9998 13.0278 13.7864 13.3871 13.4405L18.2379 16.4256C18.4731 16.5704 18.7811 16.497 18.9258 16.2619C19.0705 16.0267 18.9972 15.7187 18.762 15.574L13.9116 12.5891C13.969 12.4026 14 12.2046 14 11.9998C14 11.0679 13.3626 10.2848 12.5 10.0628V4.49981ZM11 11.9998C11 11.4475 11.4477 10.9998 12 10.9998C12.5522 10.9998 13 11.4475 13 11.9998C13 12.1928 12.9458 12.3716 12.852 12.5236C12.6752 12.8104 12.3595 12.9998 12 12.9998C11.4477 12.9998 11 12.5521 11 11.9998Z" fill="black"/>
</g>
<defs>
<clipPath id="clip0_675_258">
<rect width="24" height="24" fill="white"/>
</clipPath>
</defs>
</svg>
