<svg width="24" height="24" viewBox="0 0 24 24" fill="none" xmlns="http://www.w3.org/2000/svg">
<g clip-path="url(#clip0_686_277)">
<path d="M12 0C11.7239 0 11.5 0.223858 11.5 0.5V4C11.5 4.27614 11.7239 4.5 12 4.5C12.2762 4.5 12.5 4.27614 12.5 4V1.01116C14.4641 1.09902 16.2941 1.70191 17.8582 2.68801C17.8667 2.69416 17.8754 2.70009 17.8844 2.70578C18.1853 2.89708 18.4799 3.10477 18.7669 3.32904C19.054 3.55332 19.3268 3.78889 19.5852 4.03463C19.5921 4.04114 19.5991 4.04743 19.6062 4.05348C20.1132 4.53889 20.5738 5.07234 20.9807 5.64652C20.9851 5.65334 20.9896 5.6601 20.9943 5.66678C21.4126 6.26094 21.7666 6.89004 22.0552 7.54358C22.0641 7.56374 22.0742 7.58302 22.0853 7.60137C22.3519 8.2117 22.5647 8.85089 22.7177 9.51296C22.7193 9.5393 22.723 9.56585 22.7289 9.59243C22.7492 9.68325 22.7684 9.77431 22.7864 9.86558L22.788 9.87439C23.3813 12.8984 22.708 16.1513 20.6627 18.7693C17.0529 23.3895 10.4881 24.3413 5.73091 21.0399C2.8718 19.0534 1.00004 15.7453 1.00004 12C1.00004 11.9741 0.998065 11.9486 0.994259 11.9237C1.00618 9.91889 1.56397 7.90406 2.69686 6.11732L2.70328 6.10747C2.89458 5.80651 3.10227 5.51194 3.32655 5.22489C3.55082 4.93783 3.78639 4.66504 4.03213 4.40662C4.22242 4.20651 4.21445 3.89003 4.01434 3.69974C3.81423 3.50945 3.49775 3.51741 3.30746 3.71753C3.18549 3.84579 3.06586 3.97726 2.94867 4.11192L2.93927 4.12245C2.80223 4.2803 2.66855 4.44251 2.53842 4.60907C-1.54182 9.83155 -0.615861 17.3729 4.60661 21.4531C4.75907 21.5723 4.91351 21.6871 5.06977 21.7977C7.02719 23.1848 9.41841 24 12 24C18.6275 24 24 18.6274 24 12C24 6.9038 20.8233 2.54958 16.342 0.809593C16.3349 0.806494 16.3278 0.803541 16.3205 0.800739C15.5807 0.514584 14.8209 0.305709 14.0527 0.172674C14.0367 0.16989 14.0206 0.167906 14.0047 0.166696C13.3528 0.0570678 12.6831 0 12 0Z" fill="black"/>
<path fill-rule="evenodd" clip-rule="evenodd" d="M14 12C14 13.1046 13.1046 14 12 14C10.8955 14 10 13.1046 10 12C10 11.6291 10.101 11.2818 10.2769 10.984L6.34322 7.05033C6.14795 6.85507 6.14795 6.53849 6.34322 6.34322C6.53848 6.14796 6.85506 6.14796 7.05032 6.34322L10.984 10.2769C11.2818 10.101 11.6291 10 12 10C13.1046 10 14 10.8954 14 12ZM11.2878 11.298C11.2896 11.2964 11.2913 11.2947 11.293 11.293C11.2947 11.2913 11.2964 11.2895 11.298 11.2878C11.4786 11.1098 11.7265 11 12 11C12.5523 11 13 11.4477 13 12C13 12.5523 12.5523 13 12 13C11.4478 13 11 12.5523 11 12C11 11.7265 11.1099 11.4786 11.2878 11.298Z" fill="black"/>
</g>
<defs>
<clipPath id="clip0_686_277">
<rect width="24" height="24" fill="white"/>
</clipPath>
</defs>
</svg>
