<svg width="24" height="24" viewBox="0 0 24 24" fill="none" xmlns="http://www.w3.org/2000/svg">
<g clip-path="url(#clip0_339_13849)">
<path fill-rule="evenodd" clip-rule="evenodd" d="M12 5.00002C12 6.31302 9.987 7.00002 8 7.00002C6.013 7.00002 4 6.31302 4 5.00002C4 2.37402 12 2.37402 12 5.00002ZM11 5.00002C11 4.64802 9.861 4.00002 8 4.00002C6.139 4.00002 5 4.64802 5 5.00002C5 5.35302 6.139 6.00002 8 6.00002C9.861 6.00002 11 5.35302 11 5.00002Z" fill="black"/>
<path fill-rule="evenodd" clip-rule="evenodd" d="M23.928 15.78L22.584 18.001L23.929 20.244C24.022 20.398 24.024 20.59 23.936 20.747C23.847 20.903 23.68 21 23.5 21H15.748C14.88 22.743 11.792 24 8 24C3.514 24 0 22.243 0 20V5C0 2.757 3.514 1 8 1C11.792 1 14.88 2.257 15.748 4H23.5C23.68 4 23.847 4.097 23.936 4.254C24.024 4.41 24.022 4.602 23.929 4.757L22.582 7.002L23.931 9.288C24.018 9.434 24.024 9.615 23.947 9.767L22.56 12.522L23.948 15.298C24.025 15.45 24.017 15.633 23.928 15.78ZM15 5C15 3.582 12.125 2 8 2C3.875 2 1 3.582 1 5C1 6.419 3.875 8 8 8C12.125 8 15 6.419 15 5ZM1 20C1 21.419 3.875 23 8 23C12.125 23 15 21.419 15 20V6.962C13.647 8.187 11.051 9 8 9C4.949 9 2.353 8.187 1 6.962V20ZM16 5V20H22.617L21.571 18.257C21.475 18.098 21.476 17.9 21.572 17.741L22.929 15.497L21.552 12.745C21.482 12.604 21.482 12.437 21.553 12.296L22.93 9.561L21.569 7.254C21.476 7.096 21.476 6.9 21.571 6.743L22.617 5H16Z" fill="black"/>
</g>
<defs>
<clipPath id="clip0_339_13849">
<rect width="24" height="24" fill="white"/>
</clipPath>
</defs>
</svg>
