<svg width="24" height="24" viewBox="0 0 24 24" fill="none" xmlns="http://www.w3.org/2000/svg">
<path fill-rule="evenodd" clip-rule="evenodd" d="M20.5 20H15.5C15.224 20 15 19.776 15 19.5V13.5C15 13.224 15.224 13 15.5 13H20.5C20.776 13 21 13.224 21 13.5V19.5C21 19.776 20.776 20 20.5 20ZM20 17.707L18.707 19H20V17.707ZM17.293 19L20 16.293V14H18.707L16 16.707V19H17.293ZM16 15.293L17.293 14H16V15.293Z" fill="black"/>
<path d="M7.5 14C7.77614 14 8 13.7761 8 13.5C8 13.2239 7.77614 13 7.5 13C7.22386 13 7 13.2239 7 13.5C7 13.7761 7.22386 14 7.5 14Z" fill="black"/>
<path fill-rule="evenodd" clip-rule="evenodd" d="M22.5 11H12.294C13.325 10.175 14 8.921 14 7.5C14 7.224 13.776 7 13.5 7H9V3C9 2.449 9.448 2 10 2C10.552 2 11 2.449 11 3C11 3.276 11.224 3.5 11.5 3.5C11.776 3.5 12 3.276 12 3C12 1.897 11.103 1 10 1C8.897 1 8 1.897 8 3V7H3.5C3.224 7 3 7.224 3 7.5C3 8.921 3.675 10.175 4.706 11H1.5C1.224 11 1 11.224 1 11.5V23.5C1 23.776 1.224 24 1.5 24C1.776 24 2 23.776 2 23.5V22H22V23.5C22 23.776 22.224 24 22.5 24C22.776 24 23 23.776 23 23.5V11.5C23 11.224 22.776 11 22.5 11ZM22 21H14V12H22V21ZM4.035 8H12.965C12.721 9.694 11.26 11 9.5 11H7.5C5.74 11 4.279 9.694 4.035 8ZM13 12V15H2V12H13ZM13 16V21H2V16H13Z" fill="black"/>
</svg>
