<svg width="24" height="24" viewBox="0 0 24 24" fill="none" xmlns="http://www.w3.org/2000/svg">
<path fill-rule="evenodd" clip-rule="evenodd" d="M20.5 4C20.5 4.827 19.827 5.5 19 5.5C18.173 5.5 17.5 4.827 17.5 4C17.5 3.173 18.173 2.5 19 2.5C19.827 2.5 20.5 3.173 20.5 4ZM19.5 4C19.5 3.724 19.276 3.5 19 3.5C18.724 3.5 18.5 3.724 18.5 4C18.5 4.276 18.724 4.5 19 4.5C19.276 4.5 19.5 4.276 19.5 4Z" fill="black"/>
<path fill-rule="evenodd" clip-rule="evenodd" d="M17.5 0H19.5C20.878 0 22 1.122 22 2.5V12.5C22 13.151 21.581 13.701 21 13.908V15.5C21 15.668 20.917 15.823 20.778 15.916L18 17.766V23.5C18 23.776 17.776 24 17.5 24H7.5C7.354 24 7.216 23.937 7.121 23.825C7.026 23.715 6.984 23.569 7.005 23.425L7.674 18.967C5.439 18.715 3.271 16.985 3.044 14H2.5C2.224 14 2 13.776 2 13.5V11.5C2 11.224 2.224 11 2.5 11H15V2.5C15 1.122 16.122 0 17.5 0ZM17.5 1C16.673 1 16 1.673 16 2.5V13H20.5C20.776 13 21 12.776 21 12.5V2.5C21 1.673 20.327 1 19.5 1H17.5ZM15 12H3V13H15V12ZM17.222 17.082L20 15.232V14H4.022C4.256 16.603 6.311 18 8.25 18C8.396 18 8.534 18.063 8.629 18.174C8.724 18.284 8.766 18.43 8.745 18.574L8.081 23H17V17.498C17 17.331 17.083 17.175 17.222 17.082Z" fill="black"/>
</svg>
