<svg width="24" height="24" viewBox="0 0 24 24" fill="none" xmlns="http://www.w3.org/2000/svg">
<path fill-rule="evenodd" clip-rule="evenodd" d="M2.86597 2.5C2.86597 1.11986 3.98582 0 5.36597 0H18.366C19.7461 0 20.866 1.11986 20.866 2.5V3.5C20.866 3.77614 20.6421 4 20.366 4H19.3355L18.871 10.5039C19.4753 10.9604 19.866 11.6848 19.866 12.5V13.5C19.866 13.7761 19.6421 14 19.366 14H19.3435C19.1412 16.2437 17.59 18.093 15.5085 18.7436L16.3579 23.4105C16.3844 23.5564 16.3449 23.7065 16.2499 23.8203C16.1549 23.9342 16.0142 24 15.866 24H7.86597C7.71769 24 7.57706 23.9342 7.48206 23.8203C7.38706 23.7065 7.3475 23.5564 7.37405 23.4105L8.2234 18.7436C6.1428 18.0929 4.59088 16.2437 4.38841 14H4.36597C4.08982 14 3.86597 13.7761 3.86597 13.5V12.5C3.86597 11.6814 4.25996 10.9543 4.86857 10.4982L4.40441 4H3.36597C3.08982 4 2.86597 3.77614 2.86597 3.5V2.5ZM5.36597 1C4.53811 1 3.86597 1.67214 3.86597 2.5V3H19.866V2.5C19.866 1.67214 19.1938 1 18.366 1H5.36597ZM4.86597 13H18.866V12.5C18.866 11.6721 18.1938 11 17.366 11H6.36597C5.53811 11 4.86597 11.6721 4.86597 12.5V13ZM5.3935 14C5.60703 15.9266 7.04011 17.4839 8.9045 17.8905C9.16771 17.9479 9.33812 18.2035 9.28989 18.4685L8.46518 23H15.2668L14.442 18.4685C14.3938 18.2035 14.5642 17.9478 14.8275 17.8905C16.6927 17.4839 18.125 15.9267 18.3385 14H5.3935ZM5.40696 4H18.333L17.9003 10.0573C17.7281 10.0198 17.5494 10 17.366 10H6.36597C6.18538 10 6.00925 10.0192 5.8395 10.0556L5.40696 4Z" fill="black"/>
</svg>
