<svg width="24" height="24" viewBox="0 0 24 24" fill="none" xmlns="http://www.w3.org/2000/svg">
<path d="M3.18186 18.1781L4.59586 16.7631C4.78286 16.5761 5.11486 16.5761 5.30286 16.7631L7.77886 19.2391C7.94086 19.4011 7.97186 19.6531 7.85386 19.8501L6.79286 21.6181C6.69886 21.7751 6.53286 21.8611 6.36386 21.8611C6.27586 21.8611 6.18686 21.8381 6.10686 21.7901C5.86986 21.6471 5.79286 21.3401 5.93686 21.1031L6.79586 19.6701L4.94986 17.8241L3.88886 18.8851C3.69386 19.0801 3.37686 19.0801 3.18186 18.8851C2.98686 18.6901 2.98686 18.3731 3.18186 18.1781Z" fill="black"/>
<path fill-rule="evenodd" clip-rule="evenodd" d="M21.6899 2.827L22.4779 5.352C22.5199 5.486 22.5019 5.633 22.4309 5.755C22.3599 5.877 22.2389 5.963 22.0999 5.991L19.2399 6.566V9.691C19.2399 9.946 19.0489 10.16 18.7959 10.189L16.1099 10.487L16.4089 13.171C16.4399 13.446 16.2419 13.693 15.9679 13.724L13.2299 14.028V17.116C13.2299 17.393 13.0059 17.616 12.7299 17.616H10.4779L10.7499 19.521C10.7504 19.5239 10.7489 19.5276 10.7489 19.5276L10.7479 19.532C10.7599 19.622 10.7409 19.713 10.7019 19.798C10.6997 19.8025 10.6978 19.8069 10.6959 19.8112C10.6916 19.821 10.6874 19.8302 10.6819 19.84C10.6785 19.8459 10.676 19.852 10.6735 19.8581C10.6701 19.8665 10.6667 19.8749 10.6609 19.883L8.49787 22.912C8.02887 23.567 7.26787 23.958 6.46187 23.958C5.79487 23.958 5.16787 23.698 4.69487 23.226L1.76787 20.3C0.792871 19.325 0.792871 17.74 1.76787 16.764L18.3839 0.146C18.4779 0.053 18.6049 0 18.7379 0C18.8709 0 18.9979 0.053 19.0909 0.147L21.5659 2.622C21.6239 2.679 21.6659 2.749 21.6899 2.827ZM5.40187 22.518C6.03387 23.15 7.16587 23.054 7.68387 22.33L9.59987 19.645L4.94987 14.996L2.47487 17.47C1.88987 18.055 1.88987 19.007 2.47487 19.592L5.40187 22.518ZM18.2389 6.157C18.2389 5.919 18.4069 5.714 18.6399 5.667L21.3569 5.119L20.7719 3.242L18.7379 1.207L5.65587 14.29L9.54587 18.179L9.40387 17.188C9.38287 17.044 9.42587 16.899 9.52087 16.79C9.61587 16.68 9.75387 16.617 9.89887 16.617H12.2289V13.582C12.2289 13.328 12.4199 13.113 12.6729 13.085L15.3599 12.786L15.0609 10.102C15.0299 9.827 15.2279 9.58 15.5019 9.549L18.2389 9.245V6.157Z" fill="black"/>
</svg>
