<svg width="24" height="24" viewBox="0 0 24 24" fill="none" xmlns="http://www.w3.org/2000/svg">
<path fill-rule="evenodd" clip-rule="evenodd" d="M19 1.5V10.5C21.207 10.5 23 12.294 23 14.5V22.5C23 23.327 22.327 24 21.5 24C20.673 24 20 23.327 20 22.5V16H19V22.5C19 23.327 18.327 24 17.5 24C16.673 24 16 23.327 16 22.5V16H15V22.5C15 23.327 14.327 24 13.5 24C12.673 24 12 23.327 12 22.5V14.5C12 12.294 13.794 10.5 16 10.5V1.5C16 0.673 16.673 0 17.5 0C18.327 0 19 0.673 19 1.5ZM17.5 1C17.225 1 17 1.224 17 1.5V12.5H18V1.5C18 1.224 17.775 1 17.5 1ZM21.5 23C21.775 23 22 22.776 22 22.5V14.5C22 12.846 20.654 11.5 19 11.5V13C19 13.277 18.776 13.5 18.5 13.5H16.5C16.224 13.5 16 13.277 16 13V11.5H15.999C14.346 11.5 13 12.846 13 14.5V22.5C13 22.776 13.225 23 13.5 23C13.775 23 14 22.776 14 22.5V15.5C14 15.224 14.224 15 14.5 15H16.5C16.776 15 17 15.224 17 15.5V22.5C17 22.776 17.225 23 17.5 23C17.775 23 18 22.776 18 22.5V15.5C18 15.224 18.224 15 18.5 15H20.5C20.776 15 21 15.224 21 15.5V22.5C21 22.776 21.225 23 21.5 23Z" fill="black"/>
<path fill-rule="evenodd" clip-rule="evenodd" d="M0 12.933C0 7.63 1.785 3.202 5.164 0.13C5.354 -0.043 5.646 -0.043 5.836 0.13C9.166 3.159 11 7.729 11 13V15.5C11 15.776 10.776 16 10.5 16H7V22.5C7 23.327 6.327 24 5.5 24C4.673 24 4 23.327 4 22.5V16H0.5C0.224 16 0 15.776 0 15.5V12.933ZM5.5 23C5.775 23 6 22.776 6 22.5V14H5V22.5C5 22.776 5.225 23 5.5 23ZM7 15H10V13C10 8.196 8.405 4.021 5.5 1.187C1.792 4.787 1 9.537 1 12.933V15H4V13.5C4 13.224 4.224 13 4.5 13H6.5C6.776 13 7 13.224 7 13.5V15Z" fill="black"/>
</svg>
