<svg width="24" height="24" viewBox="0 0 24 24" fill="none" xmlns="http://www.w3.org/2000/svg">
<path fill-rule="evenodd" clip-rule="evenodd" d="M20.224 12.789C20.13 12.921 19.978 13 19.816 13H17.685L17.078 13.519L17.676 14H19.816C19.979 14 20.131 14.079 20.224 14.211C20.317 14.344 20.341 14.515 20.286 14.668C19.791 16.062 18.47 17 16.999 17C15.649 17 14.424 16.21 13.85 15H10.149C9.575 16.21 8.351 17 7 17C5.474 17 4.195 15.838 3.721 14.691C3.658 14.537 3.674 14.361 3.767 14.223C3.86 14.083 4.016 14 4.183 14H6.323L6.921 13.519L6.316 13H4.184C4.017 13 3.861 12.916 3.768 12.778C3.675 12.64 3.659 12.464 3.722 12.31C4.195 11.162 5.474 10 7 10C8.35 10 9.575 10.791 10.15 12H13.85C14.425 10.791 15.649 10 17 10C18.471 10 19.792 10.938 20.286 12.332C20.341 12.486 20.318 12.656 20.224 12.789ZM15.972 13.151L17.175 12.12C17.266 12.042 17.381 12 17.5 12H18.987C18.524 11.383 17.792 11 17 11C15.951 11 15.009 11.67 14.654 12.668C14.583 12.867 14.395 13 14.183 13H9.816C9.604 13 9.416 12.867 9.346 12.668C8.991 11.67 8.049 11 7 11C6.218 11 5.522 11.44 5.064 12H6.5C6.619 12 6.734 12.042 6.825 12.12L8.028 13.151C8.141 13.247 8.205 13.389 8.203 13.538C8.201 13.687 8.132 13.827 8.016 13.92L6.813 14.889C6.725 14.961 6.614 15 6.5 15H5.064C5.522 15.56 6.218 16 7 16C8.049 16 8.991 15.33 9.345 14.333C9.416 14.133 9.604 14 9.816 14H14.184C14.396 14 14.584 14.133 14.654 14.333C15.009 15.33 15.951 16 17 16C17.792 16 18.524 15.617 18.987 15H17.5C17.386 15 17.275 14.961 17.187 14.889L15.984 13.92C15.867 13.827 15.799 13.686 15.797 13.538C15.795 13.39 15.859 13.248 15.972 13.151Z" fill="black"/>
<path fill-rule="evenodd" clip-rule="evenodd" d="M16 5H20.5C22.43 5 24 6.57 24 8.5V18.5C24 20.43 22.43 22 20.5 22H3.5C1.57 22 0 20.43 0 18.5V8.5C0 6.57 1.57 5 3.5 5H8V3.5C8 2.122 9.121 1 10.5 1H13.5C14.879 1 16 2.122 16 3.5V5ZM10.5 2C9.673 2 9 2.673 9 3.5V5H15V3.5C15 2.673 14.327 2 13.5 2H10.5ZM20.5 21C21.879 21 23 19.878 23 18.5V8.5C23 7.122 21.879 6 20.5 6H3.5C2.121 6 1 7.122 1 8.5V18.5C1 19.878 2.121 21 3.5 21H20.5Z" fill="black"/>
</svg>
