<svg width="24" height="24" viewBox="0 0 24 24" fill="none" xmlns="http://www.w3.org/2000/svg">
<path d="M24 8C24 5.243 21.757 3 19 3H10C8.897 3 8 3.897 8 5H5.5C5.224 5 5 5.224 5 5.5V8H0.5C0.224 8 0 8.224 0 8.5C0 8.776 0.224 9 0.5 9H5V10.5C5 10.776 5.224 11 5.5 11H8.046C8.258 12.136 9.253 13 10.449 13H13V14.5C13 14.776 13.224 15 13.5 15H15.543L16.877 21H14.5C14.224 21 14 21.224 14 21.5C14 21.776 14.224 22 14.5 22H17.5H20.5C20.507 22 20.515 22 20.52 22C20.796 22 21.02 21.776 21.02 21.5C21.02 21.413 20.999 21.332 20.959 21.261L19.121 12.989C21.82 12.922 24 10.715 24 8ZM6 6H8V10H6V6ZM9 10.549V10.5V5.5V5C9 4.449 9.448 4 10 4H13V12H10.449C9.65 12 9 11.349 9 10.549ZM14 14V13H15.099L15.322 14H14ZM17.901 21L16.123 13H18.099L19.877 21H17.901ZM19 12H18.5H15.5H14V4H19C21.206 4 23 5.794 23 8C23 10.206 21.206 12 19 12Z" fill="black"/>
</svg>
