<svg width="24" height="24" viewBox="0 0 24 24" fill="none" xmlns="http://www.w3.org/2000/svg">
<path d="M23.5 5H16.449C16.197 2.756 14.311 1 12 1C9.689 1 7.803 2.756 7.551 5H0.5C0.224 5 0 5.224 0 5.5V20.5C0 20.776 0.224 21 0.5 21H23.5C23.776 21 24 20.776 24 20.5V5.5C24 5.224 23.776 5 23.5 5ZM12 2C13.759 2 15.204 3.309 15.449 5H8.551C8.796 3.309 10.241 2 12 2ZM23 6V10H14V9.5C14 9.224 13.776 9 13.5 9H10.5C10.224 9 10 9.224 10 9.5V10H1V6H23ZM11 10H13V13H11V10ZM1 20V11H10V13.5C10 13.776 10.224 14 10.5 14H13.5C13.776 14 14 13.776 14 13.5V11H23V20H1Z" fill="black"/>
</svg>
