<svg width="24" height="24" viewBox="0 0 24 24" fill="none" xmlns="http://www.w3.org/2000/svg">
<path d="M15.5001 7.266V7H21.0001C21.2101 7 21.3981 6.868 21.4701 6.67C21.5421 6.472 21.4821 6.25 21.3201 6.115L15.3201 1.115C15.3091 1.106 15.2961 1.104 15.2851 1.096C15.2751 1.089 15.2681 1.077 15.2571 1.07C15.2471 1.065 15.2361 1.065 15.2251 1.059C15.2061 1.049 15.1881 1.04 15.1671 1.034C15.1471 1.026 15.1271 1.022 15.1061 1.017C15.0811 1.012 15.0571 1.008 15.0311 1.006C15.0211 1.006 15.0121 1 15.0001 1H9.00009C8.98809 1 8.97909 1.006 8.96809 1.006C8.94309 1.008 8.91809 1.012 8.89309 1.017C8.87209 1.022 8.85309 1.026 8.83209 1.034C8.81109 1.042 8.79409 1.05 8.77409 1.06C8.76409 1.066 8.75309 1.066 8.74209 1.071C8.73109 1.078 8.72509 1.09 8.71409 1.097C8.70309 1.104 8.69009 1.107 8.68009 1.116L2.68009 6.116C2.51809 6.25 2.45809 6.472 2.53009 6.67C2.60209 6.868 2.79009 7 3.00009 7H8.50009V7.266L2.68009 12.116C2.51809 12.251 2.45809 12.472 2.53009 12.671C2.60209 12.868 2.79009 13 3.00009 13H7.84609L4.03709 22.311C3.93309 22.567 4.05509 22.859 4.31009 22.963C4.56509 23.067 4.85809 22.945 4.96209 22.69L5.71309 20.853L11.9991 17.396L18.2851 20.853L19.0361 22.69C19.1161 22.883 19.3031 23 19.5001 23C19.5631 23 19.6271 22.988 19.6891 22.963C19.9441 22.859 20.0671 22.567 19.9621 22.311L16.1541 13H21.0001C21.2101 13 21.3981 12.868 21.4701 12.67C21.5421 12.472 21.4821 12.25 21.3201 12.115L15.5001 7.266ZM14.5001 9.695L12.5831 6.5L14.5001 3.305V9.695ZM12.0001 5.528L9.88309 2H14.1171L12.0001 5.528ZM11.4171 6.5L9.50009 9.695V3.305L11.4171 6.5ZM9.44909 11.724L12.0001 7.472L14.5511 11.724L14.6641 12H9.33609L9.44909 11.724ZM15.5001 6V2.568L19.6191 6H15.5001ZM4.38109 6L8.50009 2.568V6H4.38109ZM4.38109 12L8.50009 8.568V11.402L8.25509 12H4.38109ZM6.31609 19.38L8.02309 15.208L10.9621 16.825L6.31609 19.38ZM13.0371 16.825L15.9761 15.208L17.6831 19.38L13.0371 16.825ZM15.5961 14.277L12.0001 16.254L8.40509 14.277L8.92709 13H15.0731L15.5961 14.277ZM15.7451 12L15.5001 11.402V8.568L19.6191 12H15.7451Z" fill="black"/>
</svg>
