<svg width="24" height="24" viewBox="0 0 24 24" fill="none" xmlns="http://www.w3.org/2000/svg">
<path d="M18.853 8.146L15.854 5.147C15.659 4.952 15.342 4.952 15.147 5.147C14.952 5.342 14.952 5.659 15.147 5.854L17.293 8H10.5C10.224 8 10 8.224 10 8.5C10 8.776 10.224 9 10.5 9H17.293L15.147 11.146C14.952 11.341 14.952 11.658 15.147 11.853C15.342 12.048 15.659 12.048 15.854 11.853L18.853 8.853C19.048 8.66 19.049 8.341 18.853 8.146Z" fill="black"/>
<path d="M13.5 15H6.707L8.853 12.854C9.048 12.659 9.048 12.342 8.853 12.147C8.658 11.952 8.341 11.952 8.146 12.147L5.147 15.146C4.951 15.341 4.952 15.661 5.147 15.854L8.146 18.854C8.341 19.049 8.658 19.049 8.853 18.854C9.048 18.659 9.048 18.342 8.853 18.147L6.707 16H13.5C13.776 16 14 15.776 14 15.5C14 15.224 13.776 15 13.5 15Z" fill="black"/>
<path fill-rule="evenodd" clip-rule="evenodd" d="M0 12C0 5.383 5.383 0 12 0C18.617 0 24 5.383 24 12C24 18.617 18.617 24 12 24C5.383 24 0 18.617 0 12ZM1 12C1 18.065 5.935 23 12 23C18.065 23 23 18.065 23 12C23 5.935 18.065 1 12 1C5.935 1 1 5.935 1 12Z" fill="black"/>
</svg>
