<svg width="24" height="24" viewBox="0 0 24 24" fill="none" xmlns="http://www.w3.org/2000/svg">
<path d="M19.512 4.99425C19.25 4.99425 18.988 5.01625 18.729 5.06327C17.875 2.05651 15.162 0 11.963 0C9.62 0 7.548 1.10428 6.228 3.04476C5.981 3.01275 5.734 2.99575 5.489 2.99575C2.462 2.99575 0 5.46337 0 8.49613C0 11.895 2.867 14.0005 5.523 14.0005C6.598 14.0005 7.633 13.6824 8.538 13.0773C9.301 13.5134 10.142 13.7704 11 13.8895V23.4999C11 23.7759 11.224 24 11.5 24C11.776 24 12 23.7759 12 23.4999V20.2061L13.99 18.2156C14.288 18.3916 14.63 18.4986 15 18.4986C16.103 18.4986 17 17.6014 17 16.4981C17 15.3948 16.103 14.4976 15 14.4976C13.897 14.4976 13 15.3948 13 16.4981C13 16.8672 13.108 17.2103 13.283 17.5084L12 18.7917V13.9565C13.504 13.9515 15.006 13.4964 16.22 12.5751C17.067 13.4944 18.199 13.9955 19.459 13.9955C20.606 13.9955 21.745 13.5544 22.583 12.7852C23.497 11.947 24 10.7787 24 9.49638C24 7.01375 21.986 4.99425 19.512 4.99425ZM15 15.4979C15.551 15.4979 16 15.946 16 16.4981C16 17.0503 15.551 17.4984 15 17.4984C14.449 17.4984 14 17.0503 14 16.4981C14 15.946 14.449 15.4979 15 15.4979ZM21.907 12.048C21.251 12.6502 20.359 12.9952 19.459 12.9952C18.351 12.9952 17.367 12.4911 16.69 11.5759C16.607 11.4639 16.48 11.3908 16.341 11.3768C16.203 11.3618 16.064 11.4059 15.958 11.4989C13.997 13.2223 10.982 13.4574 8.784 12.058C8.608 11.948 8.381 11.955 8.213 12.081C7.421 12.6822 6.49 13.0003 5.523 13.0003C3.348 13.0003 1 11.2778 1 8.49613C1 6.0155 3.014 3.996 5.489 3.996C5.782 3.996 6.08 4.02501 6.375 4.08202C6.58 4.11803 6.786 4.03001 6.895 3.85296C8.015 2.03951 9.862 0.99925 11.962 0.99925C14.33 0.99925 17.189 2.48962 17.872 5.76444C17.9 5.90248 17.985 6.02051 18.105 6.09252C18.226 6.16354 18.37 6.18255 18.504 6.14254C18.835 6.04351 19.174 5.9945 19.512 5.9945C21.435 5.9945 23 7.56489 23 9.49638C23 10.7767 22.406 11.5909 21.907 12.048Z" fill="black"/>
</svg>
