<svg width="24" height="24" viewBox="0 0 24 24" fill="none" xmlns="http://www.w3.org/2000/svg">
<path d="M18.134 7.008L17.995 6.824C17.909 5.332 16.726 4.129 15.242 4.01C15.118 2.054 13.487 0.5 11.5 0.5C9.513 0.5 7.882 2.054 7.758 4.01C6.216 4.133 5 5.423 5.008 6.913L5.004 6.93C3.778 7.574 3 8.849 3 10.25C3 11.673 3.793 12.953 5.044 13.591L5.048 13.622C5.354 15.579 7.016 17 9 17C9.708 17 10.395 16.804 11 16.453V23.5C11 23.776 11.224 24 11.5 24C11.776 24 12 23.776 12 23.5V16.453C12.606 16.804 13.294 17 14 17C15.952 17 17.651 15.548 17.949 13.64L17.958 13.59C19.208 12.951 20 11.669 20 10.25C20 8.91 19.288 7.678 18.134 7.008ZM17.321 12.785C17.167 12.849 17.056 12.987 17.025 13.151L16.964 13.468C16.738 14.912 15.464 16 14 16C13.299 16 12.616 15.753 12.078 15.304C12.056 15.285 12.024 15.288 12 15.274V13.45C14.244 13.198 16 11.311 16 9.001C16 8.725 15.776 8.501 15.5 8.501C15.224 8.501 15 8.724 15 9C15 10.759 13.691 12.204 12 12.449V7.5C12 7.224 11.776 7 11.5 7C11.224 7 11 7.224 11 7.5V10.449C9.86 10.217 9 9.207 9 8C9 7.724 8.776 7.5 8.5 7.5C8.224 7.5 8 7.724 8 8C8 9.759 9.309 11.204 11 11.449V15.253C10.979 15.266 10.956 15.274 10.937 15.29C10.397 15.748 9.709 16 9 16C7.536 16 6.262 14.911 6.038 13.479L5.999 13.186C5.976 13.009 5.86 12.859 5.695 12.79C4.665 12.363 4 11.366 4 10.25C4 9.154 4.648 8.164 5.651 7.729C5.805 7.662 5.915 7.522 5.944 7.357L6 7C6 5.897 6.897 5 8 5C8.133 5 8.26 4.947 8.354 4.854L8.604 4.604C8.697 4.51 8.75 4.383 8.75 4.25C8.75 2.733 9.983 1.5 11.5 1.5C13.017 1.5 14.25 2.733 14.25 4.25C14.25 4.383 14.303 4.51 14.396 4.604L14.646 4.854C14.74 4.947 14.867 5 15 5C16.103 5 17 5.897 17 7C17 7.109 17.036 7.216 17.102 7.303L17.401 7.696C17.444 7.753 17.498 7.8 17.561 7.833C18.448 8.313 19 9.24 19 10.25C19 11.357 18.341 12.353 17.321 12.785Z" fill="black"/>
</svg>
