<svg width="24" height="24" viewBox="0 0 24 24" fill="none" xmlns="http://www.w3.org/2000/svg">
<path d="M18.6961 12.2979L14.4191 2.84888C14.1161 1.72888 13.1691 1.00488 12.0061 1.00488C10.8391 1.00488 9.86513 1.76088 9.61013 2.80288L5.34113 12.2439C4.88713 13.0239 4.88613 13.9599 5.33913 14.7469C5.79213 15.5309 6.60113 15.9999 7.50513 15.9999H11.5051V23.4999C11.5051 23.7759 11.7291 23.9999 12.0051 23.9999C12.2811 23.9999 12.5051 23.7759 12.5051 23.4999V19.4489C14.3071 19.2199 15.7261 17.8029 15.9541 15.9999H16.5051C17.4051 15.9999 18.2131 15.5349 18.6651 14.7559C19.1191 13.9739 19.1221 13.0389 18.6961 12.2979ZM12.5051 18.4489V15.9999H14.9541C14.7421 17.2519 13.7571 18.2369 12.5051 18.4489ZM17.7991 14.2539C17.5291 14.7209 17.0451 14.9999 16.5051 14.9999H12.5051V7.99988C12.5051 7.72388 12.2811 7.49988 12.0051 7.49988C11.7291 7.49988 11.5051 7.72388 11.5051 7.99988V11.9289C10.6451 11.7049 10.0051 10.9289 10.0051 9.99988C10.0051 9.72388 9.78113 9.49988 9.50513 9.49988C9.22913 9.49988 9.00513 9.72388 9.00513 9.99988C9.00513 11.4829 10.0891 12.7099 11.5051 12.9489V14.9999H7.50513C6.96313 14.9999 6.47813 14.7189 6.20713 14.2489C5.93513 13.7749 5.93513 13.2139 6.23013 12.7019L10.5511 3.13088C10.7601 2.29988 11.4661 2.00488 12.0061 2.00488C12.5611 2.00488 13.2331 2.29488 13.4811 3.18588L17.8061 12.7519C18.0751 13.2219 18.0721 13.7829 17.7991 14.2539Z" fill="black"/>
</svg>
