<svg width="24" height="24" viewBox="0 0 24 24" fill="none" xmlns="http://www.w3.org/2000/svg">
<path d="M4.49999 12C4.42499 12 4.34899 11.983 4.27599 11.947C4.02899 11.824 3.92999 11.523 4.05299 11.276L5.55299 8.276C5.63799 8.107 5.81099 8 5.99999 8H7.49999C7.77599 8 7.99999 8.224 7.99999 8.5C7.99999 8.776 7.77599 9 7.49999 9H6.30899L4.94699 11.724C4.85899 11.899 4.68299 12 4.49999 12Z" fill="black"/>
<path fill-rule="evenodd" clip-rule="evenodd" d="M9.5 3H23.5C23.776 3 24 3.224 24 3.5V18.5C24 18.776 23.776 19 23.5 19H21.449C21.217 20.14 20.208 21 19 21C17.792 21 16.783 20.14 16.551 19H7.449C7.217 20.14 6.208 21 5 21C3.792 21 2.783 20.14 2.551 19H0.5C0.224 19 0 18.776 0 18.5V13C0 12.867 0.053 12.74 0.146 12.646L2.096 10.696L4.562 6.257C4.651 6.099 4.818 6 5 6H9V3.5C9 3.224 9.224 3 9.5 3ZM23 4H10V16H23V4ZM7.449 18H16.551C16.626 17.628 16.792 17.292 17.012 17H6.987C7.208 17.292 7.374 17.628 7.449 18ZM2.938 11.243C2.915 11.284 2.887 11.321 2.854 11.354L1 13.207V16H9V7H5.294L2.938 11.243ZM3.013 17H1V18H2.551C2.626 17.628 2.792 17.292 3.013 17ZM3.5 18.5C3.5 19.327 4.173 20 5 20C5.827 20 6.5 19.327 6.5 18.5C6.5 17.673 5.827 17 5 17C4.173 17 3.5 17.673 3.5 18.5ZM17.5 18.5C17.5 19.327 18.173 20 19 20C19.827 20 20.5 19.327 20.5 18.5C20.5 17.673 19.827 17 19 17C18.173 17 17.5 17.673 17.5 18.5ZM20.987 17C21.208 17.292 21.374 17.628 21.449 18H23V17H20.987Z" fill="black"/>
</svg>
