<svg width="24" height="24" viewBox="0 0 24 24" fill="none" xmlns="http://www.w3.org/2000/svg">
<path d="M10 20C10.799 20 11.584 19.866 12.332 19.603C12.591 19.513 12.877 19.647 12.97 19.908C13.061 20.169 12.925 20.454 12.664 20.546C11.809 20.848 10.913 21 10 21C5.589 21 2 17.411 2 13C2 8.589 5.589 5 10 5C13.416 5 16.456 7.168 17.566 10.395C17.656 10.657 17.517 10.941 17.256 11.031C16.995 11.121 16.711 10.982 16.621 10.721C15.649 7.897 12.989 6 10 6C6.14 6 3 9.14 3 13C3 16.86 6.14 20 10 20Z" fill="black"/>
<path d="M11 13C11 13.5523 10.5523 14 10 14C9.44771 14 9 13.5523 9 13C9 12.4477 9.44771 12 10 12C10.5523 12 11 12.4477 11 13Z" fill="black"/>
<path fill-rule="evenodd" clip-rule="evenodd" d="M10 10C8.346 10 7 11.346 7 13C7 14.654 8.346 16 10 16C11.654 16 13 14.654 13 13C13 11.346 11.654 10 10 10ZM10 15C8.897 15 8 14.103 8 13C8 11.896 8.897 11 10 11C11.103 11 12 11.896 12 13C12 14.103 11.103 15 10 15Z" fill="black"/>
<path fill-rule="evenodd" clip-rule="evenodd" d="M22 3H23.5C23.776 3 24 3.224 24 3.5V22.5C24 22.776 23.776 23 23.5 23H0.5C0.224 23 0 22.776 0 22.5V3.5C0 3.224 0.224 3 0.5 3H17V2.5C17 1.122 18.122 0 19.5 0C20.878 0 22 1.122 22 2.5V3ZM19.5 1C18.673 1 18 1.673 18 2.5V5H21V2.5C21 1.673 20.327 1 19.5 1ZM1 22H23V4H22V5.5C22 5.776 21.776 6 21.5 6H20V12C20 12.117 19.959 12.23 19.883 12.319L17.403 15.289L18.068 15.954C18.161 16.048 18.214 16.175 18.214 16.308C18.214 16.441 18.162 16.568 18.068 16.662L16.701 18.029C16.439 18.308 15.862 18.921 15.058 18.921C14.597 18.921 14.159 18.723 13.756 18.332C13.368 17.955 13.162 17.505 13.158 17.029C13.152 16.238 13.701 15.603 13.937 15.367L15.355 13.949C15.55 13.754 15.867 13.754 16.062 13.949L16.694 14.581L19 11.819V6H17.5C17.224 6 17 5.776 17 5.5V4H1V22ZM15.928 17.392L17.008 16.31L15.709 15.011L14.645 16.075C14.531 16.189 14.156 16.597 14.159 17.022C14.161 17.23 14.257 17.423 14.453 17.614C14.662 17.818 14.867 17.921 15.058 17.921C15.429 17.921 15.779 17.55 15.928 17.392Z" fill="black"/>
</svg>
