<svg width="24" height="24" viewBox="0 0 24 24" fill="none" xmlns="http://www.w3.org/2000/svg">
<path fill-rule="evenodd" clip-rule="evenodd" d="M2.5 5C2.22386 5 2 5.22386 2 5.5V18.5C2 18.7761 2.22386 19 2.5 19H21.5C21.7761 19 22 18.7761 22 18.5V5.5C22 5.22386 21.7761 5 21.5 5H2.5ZM3 18V6H21V18H3Z" fill="black"/>
<path fill-rule="evenodd" clip-rule="evenodd" d="M0 3.5C0 3.22386 0.223858 3 0.5 3H23.5C23.7761 3 24 3.22386 24 3.5V20.5C24 20.7761 23.7761 21 23.5 21H0.5C0.223858 21 0 20.7761 0 20.5V3.5ZM1 4V20H23V4H1Z" fill="black"/>
<path d="M6 22.5C6 22.2239 6.22386 22 6.5 22H17.5C17.7761 22 18 22.2239 18 22.5C18 22.7761 17.7761 23 17.5 23H6.5C6.22386 23 6 22.7761 6 22.5Z" fill="black"/>
</svg>
