<svg width="24" height="24" viewBox="0 0 24 24" fill="none" xmlns="http://www.w3.org/2000/svg">
<path fill-rule="evenodd" clip-rule="evenodd" d="M0 2.5C0 2.22386 0.223858 2 0.5 2H23.5C23.7761 2 24 2.22386 24 2.5V19.5C24 19.7761 23.7761 20 23.5 20H0.5C0.223858 20 0 19.7761 0 19.5V2.5ZM1 17V19H23V17H1ZM23 16H1V3H23V16Z" fill="black"/>
<path d="M6 21.5C6 21.2239 6.22386 21 6.5 21H17.5C17.7761 21 18 21.2239 18 21.5C18 21.7761 17.7761 22 17.5 22H6.5C6.22386 22 6 21.7761 6 21.5Z" fill="black"/>
</svg>
