<svg width="24" height="24" viewBox="0 0 24 24" fill="none" xmlns="http://www.w3.org/2000/svg">
<path fill-rule="evenodd" clip-rule="evenodd" d="M0 3.5C0 3.22386 0.223858 3 0.5 3H23.5C23.7761 3 24 3.22386 24 3.5V19.5C24 19.7761 23.7761 20 23.5 20H18.4343L19.916 22.2227C20.0692 22.4524 20.0071 22.7628 19.7773 22.916C19.5476 23.0692 19.2372 23.0071 19.084 22.7773L17.2324 20H6.76759L4.91603 22.7773C4.76285 23.0071 4.45241 23.0692 4.22265 22.916C3.99289 22.7628 3.9308 22.4524 4.08397 22.2227L5.56574 20H0.5C0.223858 20 0 19.7761 0 19.5V3.5ZM1 4V19H23V4H1Z" fill="black"/>
</svg>
