<svg width="24" height="24" viewBox="0 0 24 24" fill="none" xmlns="http://www.w3.org/2000/svg">
<path d="M20.2074 5.6545C18.1824 3.5385 15.4584 2.3345 12.4984 2.2115V0.6875C12.4984 0.4115 12.2744 0.1875 11.9984 0.1875C11.7224 0.1875 11.4984 0.4115 11.4984 0.6875V2.2115C8.54039 2.3355 5.81739 3.5395 3.79239 5.6545C1.54839 7.9995 0.348393 11.3005 0.498393 14.7095C0.510393 14.9815 0.708393 15.2195 1.01039 15.1875C1.28339 15.1805 1.50039 14.9575 1.49839 14.6845C1.49639 14.3155 1.62039 14.0015 1.86839 13.7525C2.22639 13.3925 2.83339 13.1775 3.49239 13.1775C4.45439 13.1775 5.49239 13.6515 5.50039 14.6915C5.50239 14.9435 5.69139 15.1545 5.94139 15.1835C6.19139 15.2225 6.42439 15.0535 6.48539 14.8085C6.76639 13.6875 7.95039 13.1855 9.00039 13.1855C10.0344 13.1855 11.1954 13.6755 11.4984 14.7625V22.1875C11.4984 23.2535 12.3784 23.8125 13.2484 23.8125C14.1184 23.8125 14.9984 23.2535 14.9984 22.1875C14.9984 21.9115 14.7744 21.6875 14.4984 21.6875C14.2224 21.6875 13.9984 21.9115 13.9984 22.1875C13.9984 22.7945 13.3254 22.8125 13.2484 22.8125C13.1714 22.8125 12.4984 22.7945 12.4984 22.1875V14.7735C12.7964 13.6785 13.9624 13.1855 15.0004 13.1855C16.0504 13.1855 17.2344 13.6875 17.5154 14.8085C17.5714 15.0335 17.7734 15.1875 17.9994 15.1875C18.0194 15.1875 18.0394 15.1865 18.0594 15.1835C18.3094 15.1545 18.4984 14.9435 18.5004 14.6915C18.5084 13.6515 19.5464 13.1775 20.5084 13.1775C21.1674 13.1775 21.7744 13.3925 22.1324 13.7525C22.3804 14.0015 22.5044 14.3145 22.5024 14.6845C22.5004 14.9565 22.7174 15.1805 22.9894 15.1875C23.2964 15.2125 23.4894 14.9815 23.5014 14.7095C23.6524 11.3005 22.4524 7.9995 20.2074 5.6545ZM17.8874 13.3985C17.1784 12.5685 16.0384 12.1855 15.0004 12.1855C13.9054 12.1855 12.6964 12.6115 12.0004 13.5395C11.3044 12.6105 10.0954 12.1855 9.00039 12.1855C7.96239 12.1855 6.82339 12.5685 6.11339 13.3985C5.18539 12.0255 2.83139 11.8775 1.56539 12.7165C1.84639 10.2875 2.86239 8.0735 4.51539 6.3455C6.46439 4.3095 9.12239 3.1875 12.0004 3.1875C14.8784 3.1875 17.5364 4.3095 19.4854 6.3455C21.1384 8.0745 22.1544 10.2865 22.4354 12.7165C21.1674 11.8775 18.8144 12.0255 17.8874 13.3985Z" fill="black"/>
</svg>
