<svg width="24" height="24" viewBox="0 0 24 24" fill="none" xmlns="http://www.w3.org/2000/svg">
<path d="M18.834 17.269C18.834 16.103 19.302 15.097 19.753 14.124C20.739 12.001 21.748 9.80398 18 6.28898V0.500977C18 0.224977 17.776 0.000976562 17.5 0.000976562C17.224 0.000976562 17 0.224977 17 0.500977V6.43298C16.998 6.45198 16.984 6.46698 16.984 6.48598C16.984 9.78898 7.01903 9.78898 7.01903 6.48598C7.02003 6.46098 7.00303 6.44298 7.00003 6.41998V0.500977C7.00003 0.224977 6.77603 0.000976562 6.50003 0.000976562C6.22403 0.000976562 6.00003 0.224977 6.00003 0.500977V6.29298C2.27003 9.79498 3.31103 11.978 4.32803 14.086C4.80003 15.062 5.28703 16.071 5.28703 17.245C5.28703 18.961 4.90203 20.525 4.11103 22.029C3.90103 22.432 3.91603 22.942 4.14803 23.326C4.39103 23.732 4.81303 23.985 5.24803 23.985H18.873C19.364 23.985 19.763 23.618 19.975 23.271C20.204 22.887 20.219 22.363 20.011 21.965C19.463 20.923 18.834 19.447 18.834 17.269ZM19.118 22.755C19.03 22.9 18.912 22.982 18.872 22.985H5.24803C5.17003 22.985 5.06603 22.911 5.00603 22.81C4.95403 22.725 4.95103 22.582 4.99703 22.493C5.86503 20.844 6.28703 19.127 6.28703 17.245C6.28703 15.842 5.72503 14.678 5.22803 13.65C4.30103 11.73 3.55503 10.185 6.21203 7.47298C6.93403 9.20198 9.54703 9.99998 12.001 9.99998C14.455 9.99998 17.069 9.20098 17.79 7.47198C20.472 10.204 19.747 11.763 18.846 13.701C18.371 14.722 17.833 15.88 17.833 17.267C17.833 19.664 18.523 21.286 19.124 22.428C19.172 22.519 19.167 22.672 19.118 22.755Z" fill="black"/>
</svg>
