<svg width="24" height="24" viewBox="0 0 24 24" fill="none" xmlns="http://www.w3.org/2000/svg">
<path d="M22.975 22.342L21.975 19.342C21.906 19.138 21.715 19 21.5 19H19V5.5C19 2.467 16.532 0 13.5 0C10.468 0 8.00002 2.467 8.00002 5.5V7H6.50002C6.22402 7 6.00002 7.224 6.00002 7.5V9.079C4.67302 9.307 3.49502 10.072 2.62902 11.305C0.764016 13.961 0.611016 18.209 2.22102 22.67C2.29302 22.868 2.48002 23 2.69102 23H8.01202C8.47002 23.604 9.18702 24 10 24C11.379 24 12.5 22.878 12.5 21.5C12.5 20.478 11.882 19.599 11 19.212V9.5V7.5C11 7.224 10.776 7 10.5 7H9.00002V5.5C9.00002 3.019 11.019 1 13.5 1C15.981 1 18 3.019 18 5.5V19H15.5C15.285 19 15.094 19.138 15.025 19.342L14.025 22.342C13.974 22.494 14 22.662 14.094 22.793C14.188 22.923 14.339 23 14.5 23H22.5C22.661 23 22.812 22.923 22.905 22.792C23 22.662 23.025 22.494 22.975 22.342ZM6.83302 10H10V13H2.83502C3.01102 12.602 3.20802 12.221 3.44702 11.88C4.29902 10.667 5.50102 10 6.83302 10ZM11.5 21.5C11.5 22.327 10.827 23 10 23C9.17302 23 8.50002 22.327 8.50002 21.5C8.50002 20.673 9.17302 20 10 20C10.827 20 11.5 20.673 11.5 21.5ZM7.50002 21.5C7.50002 21.671 7.51802 21.838 7.55102 22H3.04602C2.03102 19.031 1.85002 16.211 2.47402 14H10V19C8.62102 19 7.50002 20.122 7.50002 21.5ZM10 9H7.00002V8H10V9ZM15.193 22L15.86 20H21.139L21.806 22H15.193Z" fill="black"/>
</svg>
