<svg width="24" height="24" viewBox="0 0 24 24" fill="none" xmlns="http://www.w3.org/2000/svg">
<path d="M10.5 3C10.7761 3 11 3.22386 11 3.5V8.5C11 8.77614 10.7761 9 10.5 9C10.2239 9 10 8.77614 10 8.5V3.5C10 3.22386 10.2239 3 10.5 3Z" fill="black"/>
<path d="M14 3.5C14 3.22386 13.7761 3 13.5 3C13.2239 3 13 3.22386 13 3.5V8.5C13 8.77614 13.2239 9 13.5 9C13.7761 9 14 8.77614 14 8.5V3.5Z" fill="black"/>
<path fill-rule="evenodd" clip-rule="evenodd" d="M7 0.5C7 0.223858 7.22386 0 7.5 0H16.5C16.7761 0 17 0.223858 17 0.5V12.5C17 12.7761 16.7761 13 16.5 13H15.809L14.9472 14.7236C14.8625 14.893 14.6894 15 14.5 15H14V18H20V16.5C20 16.2239 20.2239 16 20.5 16H23.5C23.7761 16 24 16.2239 24 16.5V23.5C24 23.7761 23.7761 24 23.5 24H20.5C20.2239 24 20 23.7761 20 23.5V22H4V23.5C4 23.7761 3.77614 24 3.5 24H0.5C0.223858 24 0 23.7761 0 23.5V16.5C0 16.2239 0.223858 16 0.5 16H3.5C3.77614 16 4 16.2239 4 16.5V18H10V15H9.5C9.31061 15 9.13748 14.893 9.05279 14.7236L8.19098 13H7.5C7.22386 13 7 12.7761 7 12.5V0.5ZM20 21V19H13.5C13.2239 19 13 18.7761 13 18.5V15H11V18.5C11 18.7761 10.7761 19 10.5 19H4V21H20ZM21 23H23V17H21V23ZM3 17V23H1V17H3ZM16 12V1H8V12H16ZM9.30902 13L9.80902 14H14.191L14.691 13H9.30902Z" fill="black"/>
</svg>
