<svg width="24" height="24" viewBox="0 0 24 24" fill="none" xmlns="http://www.w3.org/2000/svg">
<path d="M10.5 9C10.2239 9 10 9.22386 10 9.5C10 9.77614 10.2239 10 10.5 10H20.5C20.7761 10 21 9.77614 21 9.5C21 9.22386 20.7761 9 20.5 9H10.5Z" fill="black"/>
<path d="M10 14.5C10 14.2239 10.2239 14 10.5 14H20.5C20.7761 14 21 14.2239 21 14.5C21 14.7761 20.7761 15 20.5 15H10.5C10.2239 15 10 14.7761 10 14.5Z" fill="black"/>
<path fill-rule="evenodd" clip-rule="evenodd" d="M3.5 4C3.22386 4 3 4.22386 3 4.5V6.13962L0.341886 7.02566C0.137715 7.09372 0 7.28478 0 7.5V16.5C0 16.7152 0.137715 16.9063 0.341886 16.9743L3 17.8604V19.5C3 19.7761 3.22386 20 3.5 20H6.5C6.50979 20 6.51958 19.9997 6.52936 19.9991L23.5294 18.9991C23.7936 18.9836 24 18.7647 24 18.5V5.5C24 5.23526 23.7936 5.01641 23.5294 5.00086L6.52936 4.00086C6.51958 4.00029 6.50979 4 6.5 4H3.5ZM3 16.8063V7.19371L1 7.86038V16.1396L3 16.8063ZM4 19H6V5H4V19ZM23 5.97145L7 5.03028V18.9697L23 18.0285V5.97145Z" fill="black"/>
</svg>
