<svg width="24" height="24" viewBox="0 0 24 24" fill="none" xmlns="http://www.w3.org/2000/svg">
<path fill-rule="evenodd" clip-rule="evenodd" d="M10 4C10 2.897 10.897 2 12 2C13.103 2 14 2.897 14 4C14 5.103 13.103 6 12 6C10.897 6 10 5.103 10 4ZM11 4C11 4.552 11.449 5 12 5C12.551 5 13 4.552 13 4C13 3.448 12.551 3 12 3C11.449 3 11 3.448 11 4Z" fill="black"/>
<path fill-rule="evenodd" clip-rule="evenodd" d="M16.305 2H20.5C20.776 2 21 2.224 21 2.5C21 2.776 20.776 3 20.5 3H16.822C16.927 3.321 17 3.652 17 4C17 5.498 15.954 6.789 14.428 7.475C16.812 8.439 18.5 10.774 18.5 13.5V17.5C18.5 19.826 16.72 21.723 14.454 21.954C14.239 23.116 13.223 24 12 24C10.777 24 9.761 23.116 9.546 21.954C7.28 21.723 5.5 19.826 5.5 17.5V13.5C5.5 10.774 7.188 8.439 9.572 7.475C8.046 6.789 7 5.498 7 4C7 3.652 7.073 3.321 7.178 3H3.5C3.223 3 3 2.776 3 2.5C3 2.224 3.223 2 3.5 2H7.695C8.562 0.811 10.157 0 12 0C13.843 0 15.438 0.811 16.305 2ZM12.5 12V8.025C12.335 8.01 12.169 8 12 8C11.831 8 11.665 8.01 11.5 8.025V12H12.5ZM10.5 21.5C10.5 22.327 11.173 23 12 23C12.827 23 13.5 22.327 13.5 21.5V17.5C13.5 16.673 12.827 16 12 16C11.173 16 10.5 16.673 10.5 17.5V21.5ZM17.5 17.5V13.5C17.5 10.988 15.805 8.869 13.5 8.213V12.5C13.5 12.776 13.276 13 13 13H11C10.724 13 10.5 12.776 10.5 12.5V8.213C8.195 8.869 6.5 10.988 6.5 13.5V17.5C6.5 19.259 7.809 20.704 9.5 20.949V17.5C9.5 16.121 10.622 15 12 15C13.378 15 14.5 16.121 14.5 17.5V20.949C16.191 20.704 17.5 19.259 17.5 17.5ZM8 4C8 5.654 9.794 7 12 7C14.206 7 16 5.654 16 4C16 2.346 14.206 1 12 1C9.794 1 8 2.346 8 4Z" fill="black"/>
</svg>
