<svg width="24" height="24" viewBox="0 0 24 24" fill="none" xmlns="http://www.w3.org/2000/svg">
<path fill-rule="evenodd" clip-rule="evenodd" d="M21 10.5C21 11.879 19.878 13 18.5 13H5.5C4.122 13 3 11.879 3 10.5V2.5C3 1.121 4.122 0 5.5 0H18.5C19.878 0 21 1.121 21 2.5V10.5ZM13.675 6.001C13.181 5.928 12.744 5.712 12.418 5.388C11.523 6.011 10.393 6.118 9.507 5.852C9.547 7.342 10.646 8.543 12 8.543C13.314 8.543 14.384 7.408 14.48 5.978C14.336 6.007 14.188 6.027 14.032 6.027C13.915 6.027 13.795 6.019 13.675 6.001ZM12 3C10.916 3 10 3.773 9.654 4.845C10.325 5.106 11.417 5.048 12.147 4.318C12.259 4.205 12.416 4.156 12.573 4.176C12.73 4.2 12.866 4.295 12.941 4.435C13.168 4.858 13.59 4.978 13.822 5.012C14.038 5.045 14.233 5.021 14.382 4.973C14.07 3.836 13.126 3 12 3ZM11 9.367V10C11 10.224 10.852 10.419 10.638 10.48L8.099 11.206C7.786 11.296 7.501 11.675 7.501 12H16.501C16.501 11.675 16.215 11.296 15.901 11.206L13.363 10.48C13.148 10.419 13 10.224 13 10V9.367C12.681 9.471 12.35 9.543 12 9.543C11.65 9.543 11.319 9.471 11 9.367ZM5.5 1C4.673 1 4 1.673 4 2.5V10.5C4 11.327 4.673 12 5.5 12H6.5C6.5 11.229 7.081 10.457 7.823 10.246L10 9.624V8.859C9.096 8.176 8.5 7.048 8.5 5.771C8.5 3.691 10.07 2 12 2C13.93 2 15.5 3.691 15.5 5.77C15.5 7.047 14.904 8.175 14 8.858V9.623L16.175 10.245C16.918 10.457 17.5 11.229 17.5 12H18.5C19.327 12 20 11.327 20 10.5V2.5C20 1.673 19.327 1 18.5 1H5.5Z" fill="black"/>
<path fill-rule="evenodd" clip-rule="evenodd" d="M22.5 17.015C22.5 17.998 22.018 18.864 21.285 19.412C22.85 20.132 24 21.732 24 23.5C24 23.776 23.776 24 23.5 24H0.5C0.224 24 0 23.776 0 23.5C0 21.732 1.15 20.132 2.715 19.412C1.982 18.865 1.5 17.998 1.5 17.015C1.5 15.361 2.846 14.015 4.5 14.015C6.154 14.015 7.5 15.361 7.5 17.015C7.5 17.99 7.024 18.851 6.301 19.399C7.088 19.75 7.772 20.318 8.251 21.051C8.731 20.319 9.414 19.752 10.203 19.402C9.477 18.854 9 17.993 9 17.015C9 15.361 10.346 14.015 12 14.015C13.654 14.015 15 15.361 15 17.015C15 17.992 14.523 18.854 13.798 19.402C14.586 19.751 15.271 20.318 15.75 21.049C16.229 20.317 16.912 19.75 17.699 19.399C16.975 18.85 16.5 17.991 16.5 17.015C16.5 15.361 17.846 14.015 19.5 14.015C21.154 14.015 22.5 15.361 22.5 17.015ZM19.5 15.015C18.397 15.015 17.5 15.912 17.5 17.015C17.5 18.101 18.372 18.984 19.453 19.01C19.461 19.01 19.4688 19.0093 19.4765 19.0085C19.4842 19.0077 19.492 19.007 19.5 19.007C19.5065 19.007 19.5125 19.008 19.5185 19.009C19.5245 19.01 19.5305 19.011 19.537 19.011C20.623 18.991 21.5 18.105 21.5 17.015C21.5 15.912 20.603 15.015 19.5 15.015ZM12 15.015C10.897 15.015 10 15.912 10 17.015C10 18.113 10.891 19.007 11.988 19.014C11.988 19.014 11.992 19.0138 11.994 19.0135C11.996 19.0133 12 19.013 12 19.013C12.0023 19.013 12.0046 19.0133 12.0069 19.0136L12.012 19.014C13.109 19.007 14 18.114 14 17.015C14 15.912 13.103 15.015 12 15.015ZM4.5 15.015C3.397 15.015 2.5 15.912 2.5 17.015C2.5 18.104 3.377 18.99 4.463 19.011C4.4695 19.011 4.4755 19.01 4.4815 19.009C4.4875 19.008 4.4935 19.007 4.5 19.007C4.508 19.007 4.51575 19.0077 4.5235 19.0085C4.53125 19.0093 4.539 19.01 4.547 19.01C5.628 18.985 6.5 18.101 6.5 17.015C6.5 15.912 5.603 15.015 4.5 15.015ZM4.462 20.011C2.679 20.032 1.303 21.511 1.044 23H22.956C22.697 21.511 21.321 20.032 19.538 20.011C19.5315 20.011 19.5252 20.012 19.519 20.013C19.5128 20.014 19.5065 20.015 19.5 20.015C19.4925 20.015 19.4855 20.014 19.4785 20.013C19.4715 20.012 19.4645 20.011 19.457 20.011C18.013 20.028 16.716 20.954 16.22 22.331C16.078 22.727 15.423 22.727 15.28 22.331C14.781 20.949 13.469 20.019 12.011 20.014L12 20.015C11.996 20.015 11.993 20.014 11.989 20.014C10.532 20.019 9.22 20.949 8.72 22.333C8.578 22.729 7.923 22.729 7.78 22.333C7.283 20.955 5.986 20.029 4.543 20.011C4.5355 20.011 4.5285 20.012 4.5215 20.013C4.5145 20.014 4.5075 20.015 4.5 20.015C4.4935 20.015 4.48725 20.014 4.481 20.013C4.47475 20.012 4.4685 20.011 4.462 20.011Z" fill="black"/>
</svg>
