<svg width="24" height="24" viewBox="0 0 24 24" fill="none" xmlns="http://www.w3.org/2000/svg">
<path fill-rule="evenodd" clip-rule="evenodd" d="M23.277 2.053C23.431 1.975 23.616 1.983 23.763 2.074C23.91 2.166 24 2.327 24 2.5V7.5C24 7.673 23.91 7.834 23.762 7.927C23.615 8.016 23.431 8.024 23.276 7.948L21 6.809V8.5C21 8.776 20.776 9 20.5 9H13.5C13.224 9 13 8.776 13 8.5V1.5C13 1.224 13.224 1 13.5 1H20.5C20.776 1 21 1.224 21 1.5V3.191L23.277 2.053ZM20.724 5.552L23 6.691V3.309L20.723 4.447C20.568 4.524 20.384 4.515 20.237 4.426C20.09 4.334 20 4.173 20 4V2H14V8H20V6C20 5.827 20.09 5.666 20.238 5.573C20.386 5.484 20.569 5.475 20.724 5.552Z" fill="black"/>
<path fill-rule="evenodd" clip-rule="evenodd" d="M21 19H21.5C21.776 19 22 19.224 22 19.5V21.5C22 22.327 21.327 23 20.5 23H1.5C0.673 23 0 22.327 0 21.5V19.5C0 19.224 0.224 19 0.5 19H1V9C1 7.897 1.897 7 3 7H11.5C11.776 7 12 7.224 12 7.5C12 7.776 11.776 8 11.5 8H3C2.449 8 2 8.448 2 9V19H5.5C5.5 18.229 6.081 17.457 6.823 17.246L9 16.624V15.859C8.096 15.176 7.5 14.048 7.5 12.771C7.5 10.691 9.07 9 11 9C12.72 9 14.146 10.346 14.438 12.11C14.448 12.156 14.454 12.202 14.451 12.249C14.4533 12.2661 14.4556 12.2831 14.4579 12.3002C14.4789 12.4542 14.5 12.6088 14.5 12.77C14.5 14.047 13.904 15.175 13 15.858V16.623L15.175 17.245C15.918 17.457 16.5 18.229 16.5 19H20V10.5C20 10.224 20.224 10 20.5 10C20.776 10 21 10.224 21 10.5V19ZM13.382 11.973C13.07 10.836 12.126 10 11 10C9.916 10 9 10.773 8.655 11.845C9.326 12.107 10.417 12.047 11.147 11.318C11.259 11.205 11.416 11.156 11.573 11.176C11.73 11.2 11.866 11.295 11.941 11.435C12.168 11.858 12.59 11.978 12.822 12.012C13.039 12.044 13.233 12.02 13.382 11.973ZM11.418 12.388C10.524 13.011 9.392 13.12 8.507 12.852C8.547 14.342 9.646 15.543 10.999 15.542C12.313 15.542 13.383 14.408 13.48 12.978C13.336 13.007 13.188 13.027 13.032 13.027C12.915 13.027 12.795 13.019 12.675 13.001C12.181 12.928 11.744 12.712 11.418 12.388ZM9.637 17.48L7.098 18.206C6.785 18.296 6.5 18.675 6.5 19H8.5C8.776 19 9 19.224 9 19.5V20H13.001V19.5C13.001 19.224 13.225 19 13.501 19H15.501C15.501 18.675 15.215 18.296 14.901 18.206L12.363 17.48C12.148 17.419 12 17.224 12 17V16.367C11.681 16.471 11.35 16.543 11 16.543C10.65 16.543 10.319 16.471 10 16.367V17C10 17.224 9.852 17.419 9.637 17.48ZM20.5 22C20.776 22 21 21.775 21 21.5V20H14V20.5C14 20.776 13.776 21 13.5 21H8.5C8.224 21 8 20.776 8 20.5V20H1V21.5C1 21.775 1.224 22 1.5 22H20.5Z" fill="black"/>
</svg>
