<svg width="24" height="24" viewBox="0 0 24 24" fill="none" xmlns="http://www.w3.org/2000/svg">
<path fill-rule="evenodd" clip-rule="evenodd" d="M1.5 1H22.5C23.327 1 24 1.673 24 2.5V6.5C24 6.776 23.776 7 23.5 7H0.5C0.224 7 0 6.776 0 6.5V2.5C0 1.673 0.673 1 1.5 1ZM19.293 6L22.965 2.328C22.895 2.138 22.715 2 22.5 2H20.707L16.708 6H19.293ZM11.293 2H8.707L4.707 6H7.293L11.293 2ZM1.208 6H3.293L7.293 2H5.208L1.208 6ZM15.293 2H12.707L8.707 6H11.293L15.293 2ZM19.293 2H16.707L12.707 6H15.294L19.293 2ZM3.794 2H1.5C1.224 2 1 2.224 1 2.5V4.794L3.794 2ZM23 3.707L20.707 6H23V3.707Z" fill="black"/>
<path fill-rule="evenodd" clip-rule="evenodd" d="M8.5 20C8.577 20 8.653 19.982 8.724 19.947L16.724 15.947C16.893 15.862 17 15.689 17 15.5C17 15.311 16.893 15.138 16.724 15.053L8.724 11.053C8.569 10.976 8.385 10.984 8.238 11.075C8.09 11.166 8 11.327 8 11.5V19.5C8 19.673 8.09 19.834 8.237 19.925C8.317 19.976 8.409 20 8.5 20ZM9 12.31L15.382 15.5L9 18.691V12.31Z" fill="black"/>
<path fill-rule="evenodd" clip-rule="evenodd" d="M23.5 8H0.5C0.224 8 0 8.224 0 8.5V21.1C0 22.147 0.869 23 1.938 23H22.063C23.131 23 24 22.147 24 21.1V8.5C24 8.224 23.776 8 23.5 8ZM23 21.1C23 21.597 22.58 22 22.062 22H1.938C1.42 22 1 21.596 1 21.1V9H23V21.1Z" fill="black"/>
</svg>
