<svg width="24" height="24" viewBox="0 0 24 24" fill="none" xmlns="http://www.w3.org/2000/svg">
<path fill-rule="evenodd" clip-rule="evenodd" d="M1.5 5H14.5C15.327 5 16 5.673 16 6.5V17.5C16 18.327 15.327 19 14.5 19H1.5C0.673 19 0 18.327 0 17.5V6.5C0 5.673 0.673 5 1.5 5ZM14.5 18C14.776 18 15 17.775 15 17.5V6.5C15 6.225 14.776 6 14.5 6H1.5C1.224 6 1 6.225 1 6.5V17.5C1 17.775 1.224 18 1.5 18H14.5Z" fill="black"/>
<path fill-rule="evenodd" clip-rule="evenodd" d="M23.277 6.053C23.431 5.975 23.616 5.984 23.763 6.074C23.91 6.166 24 6.327 24 6.5V17.5C24 17.673 23.91 17.834 23.763 17.926C23.683 17.975 23.591 18 23.5 18C23.423 18 23.347 17.982 23.276 17.947L17.276 14.947C17.107 14.862 17 14.689 17 14.5V9.5C17 9.311 17.107 9.138 17.277 9.053L23.277 6.053ZM18 14.191L23 16.691V7.309L18 9.809V14.191Z" fill="black"/>
</svg>
