<svg width="24" height="24" viewBox="0 0 24 24" fill="none" xmlns="http://www.w3.org/2000/svg">
<path fill-rule="evenodd" clip-rule="evenodd" d="M13 2.10791C13 1.24679 11.9841 0.788335 11.3384 1.35807L3.81095 7.99994H1C0.447715 7.99994 0 8.44765 0 8.99994V14.9999C0 15.5522 0.447715 15.9999 1 15.9999H3.81095L11.3384 22.6418C11.9841 23.2115 13 22.7531 13 21.8919V2.10791ZM4.47257 8.74977L12 2.10791V21.8919L4.47257 15.2501C4.28987 15.0889 4.0546 14.9999 3.81095 14.9999H1V8.99994H3.81095C4.0546 8.99994 4.28987 8.91098 4.47257 8.74977Z" fill="black"/>
<path d="M20 7.99992C20 7.72378 19.7761 7.49992 19.5 7.49992C19.2239 7.49992 19 7.72378 19 7.99992V11.4999H15.5C15.2239 11.4999 15 11.7238 15 11.9999C15 12.2761 15.2239 12.4999 15.5 12.4999H19V15.9999C19 16.2761 19.2239 16.4999 19.5 16.4999C19.7761 16.4999 20 16.2761 20 15.9999V12.4999H23.5C23.7761 12.4999 24 12.2761 24 11.9999C24 11.7238 23.7761 11.4999 23.5 11.4999H20V7.99992Z" fill="black"/>
</svg>
