<svg width="24" height="24" viewBox="0 0 24 24" fill="none" xmlns="http://www.w3.org/2000/svg">
<path fill-rule="evenodd" clip-rule="evenodd" d="M15 2.10791C15 1.24679 13.9841 0.788335 13.3384 1.35807L5.81095 7.99994H3C2.44772 7.99994 2 8.44765 2 8.99994V14.9999C2 15.5522 2.44772 15.9999 3 15.9999H5.81095L13.3384 22.6418C13.9841 23.2115 15 22.7531 15 21.8919V2.10791ZM6.47257 8.74977L14 2.10791V21.8919L6.47257 15.2501C6.28987 15.0889 6.0546 14.9999 5.81095 14.9999H3V8.99994H5.81095C6.0546 8.99994 6.28987 8.91098 6.47257 8.74977Z" fill="black"/>
<path d="M19.0954 8.20604C19.2584 7.98404 19.5714 7.93404 19.7944 8.09604C22.7434 10.24 22.7344 13.769 19.7944 15.903C19.5754 16.065 19.2604 16.019 19.0954 15.793C18.9334 15.57 18.9824 15.257 19.2064 15.095C21.5794 13.371 21.6344 10.672 19.2064 8.90404C18.9824 8.74204 18.9334 8.43004 19.0954 8.20604Z" fill="black"/>
</svg>
