<svg width="24" height="24" viewBox="0 0 24 24" fill="none" xmlns="http://www.w3.org/2000/svg">
<path fill-rule="evenodd" clip-rule="evenodd" d="M13 2.10791C13 1.24679 11.9841 0.788335 11.3384 1.35807L3.81095 7.99994H1C0.447715 7.99994 0 8.44765 0 8.99994V14.9999C0 15.5522 0.447715 15.9999 1 15.9999H3.81095L11.3384 22.6418C11.9841 23.2115 13 22.7531 13 21.8919V2.10791ZM4.47257 8.74977L12 2.10791V21.8919L4.47257 15.2501C4.28987 15.0889 4.0546 14.9999 3.81095 14.9999H1V8.99994H3.81095C4.0546 8.99994 4.28987 8.91098 4.47257 8.74977Z" fill="black"/>
<path d="M16.8536 8.14637C16.6583 7.9511 16.3417 7.9511 16.1464 8.14637C15.9512 8.34163 15.9512 8.65821 16.1464 8.85347L19.2929 11.9999L16.1464 15.1464C15.9512 15.3416 15.9512 15.6582 16.1464 15.8535C16.3417 16.0487 16.6583 16.0487 16.8536 15.8535L20 12.707L23.1464 15.8535C23.3417 16.0487 23.6583 16.0487 23.8536 15.8535C24.0488 15.6582 24.0488 15.3416 23.8536 15.1464L20.7071 11.9999L23.8536 8.85347C24.0488 8.65821 24.0488 8.34163 23.8536 8.14637C23.6583 7.9511 23.3417 7.9511 23.1464 8.14637L20 11.2928L16.8536 8.14637Z" fill="black"/>
</svg>
