<svg width="24" height="24" viewBox="0 0 24 24" fill="none" xmlns="http://www.w3.org/2000/svg">
<path fill-rule="evenodd" clip-rule="evenodd" d="M13 2.10791C13 1.24679 11.9841 0.788335 11.3384 1.35807L3.81095 7.99994H1C0.447715 7.99994 0 8.44765 0 8.99994V14.9999C0 15.5522 0.447715 15.9999 1 15.9999H3.81095L11.3384 22.6418C11.9841 23.2115 13 22.7531 13 21.8919V2.10791ZM4.47257 8.74977L12 2.10791V21.8919L4.47257 15.2501C4.28987 15.0889 4.0546 14.9999 3.81095 14.9999H1V8.99994H3.81095C4.0546 8.99994 4.28987 8.91098 4.47257 8.74977Z" fill="black"/>
<path d="M20.3289 3.62402C20.1209 3.44202 19.8049 3.46302 19.6229 3.67102C19.4409 3.87902 19.4619 4.19502 19.6699 4.37702C24.1069 8.25502 24.1129 15.74 19.6699 19.624C19.4619 19.806 19.4409 20.121 19.6229 20.329C19.8059 20.539 20.1239 20.557 20.3289 20.377C25.2289 16.093 25.2199 7.89802 20.3289 3.62402Z" fill="black"/>
<path d="M17.8179 5.61402C17.6059 5.43902 17.2899 5.46902 17.1139 5.68102C16.9379 5.89402 16.9679 6.20902 17.1809 6.38502C20.8979 9.45202 20.9109 14.525 17.1809 17.614C16.9679 17.79 16.9389 18.105 17.1149 18.318C17.2899 18.53 17.6069 18.559 17.8189 18.384C22.0389 14.893 22.0079 9.07202 17.8179 5.61402Z" fill="black"/>
<path d="M15.0949 8.20602C15.2579 7.98402 15.5709 7.93402 15.7939 8.09602C18.7429 10.24 18.7339 13.769 15.7939 15.903C15.5749 16.065 15.2599 16.019 15.0949 15.793C14.9329 15.57 14.9819 15.257 15.2059 15.095C17.5789 13.371 17.6339 10.672 15.2059 8.90402C14.9819 8.74202 14.9329 8.43002 15.0949 8.20602Z" fill="black"/>
</svg>
