<svg width="24" height="24" viewBox="0 0 24 24" fill="none" xmlns="http://www.w3.org/2000/svg">
<g clip-path="url(#clip0_368_12853)">
<path d="M23.5 17H13V15.969C13.549 15.93 14.07 15.823 14.562 15.654L18 15.5C18.952 15.5 19.826 15.062 20.447 14.224L22.447 10.224C22.525 10.069 22.516 9.88495 22.425 9.73795C22.334 9.59095 22.173 9.49995 22 9.49995H18C17.048 9.49995 16.174 9.93795 15.601 10.699C15.571 10.739 15.547 10.783 15.53 10.83L14.113 14.7559C13.775 14.8629 13.398 14.927 13 14.962V10.225L15.62 7.87895C16.293 7.20595 16.602 6.27795 16.448 5.24595L15.034 1.00295C14.979 0.83895 14.844 0.71395 14.675 0.67495C14.508 0.63095 14.329 0.68595 14.207 0.80795L11.379 3.63695C10.706 4.30895 10.397 5.23595 10.53 6.18195C10.535 6.21795 10.545 6.25395 10.558 6.28895L12 10.092V13.474C11.432 13.44 10.891 13.348 10.379 13.202L8.97 9.32895C8.953 9.28195 8.929 9.23895 8.9 9.19895C8.326 8.43795 7.452 7.99995 6.5 7.99995H2.5C2.327 7.99995 2.166 8.08995 2.075 8.23695C1.984 8.38395 1.975 8.56795 2.053 8.72295L4.101 12.8C4.674 13.562 5.548 14 6.482 14L9.953 14.119C10.595 14.316 11.28 14.4349 12 14.4729V17H0.5C0.224 17 0 17.224 0 17.5V23.5C0 23.776 0.224 24 0.5 24H23.5C23.776 24 24 23.776 24 23.5V17.5C24 17.224 23.776 17 23.5 17ZM16.443 11.244C16.826 10.771 17.39 10.5 18 10.5H21.193L19.601 13.699C19.218 14.208 18.635 14.5 17.978 14.501L16.448 14.568C17.014 14.08 17.518 13.479 17.941 12.751C18.08 12.512 17.998 12.206 17.759 12.067C17.519 11.927 17.214 12.009 17.075 12.249C16.706 12.8849 16.167 13.58 15.408 14.113L16.443 11.244ZM6.5 13C5.866 13 5.282 12.708 4.947 12.276L3.309 8.99995H6.5C7.111 8.99995 7.674 9.27095 8.057 9.74495L9.136 12.707C8.248 12.238 7.491 11.574 6.914 10.72C6.761 10.492 6.448 10.43 6.22 10.586C5.991 10.74 5.931 11.051 6.086 11.28C6.559 11.98 7.139 12.564 7.794 13.044L6.5 13ZM12.085 4.34395L14.342 2.08595L15.478 5.47495C15.567 6.10495 15.361 6.72395 14.933 7.15295L13.053 8.83495C13.152 7.65095 13.397 6.31195 13.854 5.85495C14.049 5.65995 14.049 5.34295 13.854 5.14795C13.659 4.95295 13.342 4.95295 13.147 5.14795C12.611 5.68395 12.327 6.73995 12.174 7.73295L11.513 5.99095C11.442 5.37595 11.649 4.77895 12.085 4.34395ZM23 20H18.5V18H23V20ZM8.5 21V23H4V21H8.5ZM12 20H6.5V18H12V20ZM9.5 21H14.5V23H9.5V21ZM13 20V18H17.5V20H13ZM5.5 18V20H1V18H5.5ZM1 21H3V23H1V21ZM15.5 23V21H19.5V23H15.5ZM20.5 23V21H23V23H20.5Z" fill="black"/>
</g>
<defs>
<clipPath id="clip0_368_12853">
<rect width="24" height="24" fill="white"/>
</clipPath>
</defs>
</svg>
