<svg width="24" height="24" viewBox="0 0 24 24" fill="none" xmlns="http://www.w3.org/2000/svg">
<path d="M19 2.5C19 2.77614 18.7761 3 18.5 3C18.2239 3 18 2.77614 18 2.5C18 2.22386 18.2239 2 18.5 2C18.7761 2 19 2.22386 19 2.5Z" fill="black"/>
<path d="M16.5 3C16.7761 3 17 2.77614 17 2.5C17 2.22386 16.7761 2 16.5 2C16.2239 2 16 2.22386 16 2.5C16 2.77614 16.2239 3 16.5 3Z" fill="black"/>
<path d="M15 2.5C15 2.77614 14.7761 3 14.5 3C14.2239 3 14 2.77614 14 2.5C14 2.22386 14.2239 2 14.5 2C14.7761 2 15 2.22386 15 2.5Z" fill="black"/>
<path d="M14.5 5C14.7761 5 15 4.77614 15 4.5C15 4.22386 14.7761 4 14.5 4C14.2239 4 14 4.22386 14 4.5C14 4.77614 14.2239 5 14.5 5Z" fill="black"/>
<path d="M17 4.5C17 4.77614 16.7761 5 16.5 5C16.2239 5 16 4.77614 16 4.5C16 4.22386 16.2239 4 16.5 4C16.7761 4 17 4.22386 17 4.5Z" fill="black"/>
<path d="M18.5 5C18.7761 5 19 4.77614 19 4.5C19 4.22386 18.7761 4 18.5 4C18.2239 4 18 4.22386 18 4.5C18 4.77614 18.2239 5 18.5 5Z" fill="black"/>
<path fill-rule="evenodd" clip-rule="evenodd" d="M6 5C5.811 5 5.638 4.894 5.553 4.724L4.553 2.724C4.476 2.569 4.483 2.385 4.574 2.237C4.666 2.09 4.827 2 5 2H11C11.173 2 11.334 2.09 11.426 2.238C11.516 2.385 11.524 2.569 11.447 2.724L10.447 4.724C10.362 4.894 10.189 5 10 5H6ZM9.691 4L10.191 3H5.809L6.309 4H9.691Z" fill="black"/>
<path fill-rule="evenodd" clip-rule="evenodd" d="M12 9C8.691 9 6 11.691 6 15C6 18.309 8.691 21 12 21C15.309 21 18 18.309 18 15C18 11.691 15.309 9 12 9ZM11 10.102V12.712C10.118 13.099 9.5 13.978 9.5 15C9.5 15.374 9.588 15.726 9.736 16.046L7.726 17.557C7.275 16.807 7 15.938 7 15C7 12.586 8.721 10.566 11 10.102ZM12 16.5C11.173 16.5 10.5 15.827 10.5 15C10.5 14.173 11.173 13.5 12 13.5C12.827 13.5 13.5 14.173 13.5 15C13.5 15.827 12.827 16.5 12 16.5ZM12 20C10.541 20 9.237 19.36 8.322 18.36L10.332 16.849C10.775 17.249 11.356 17.5 12 17.5C12.644 17.5 13.225 17.249 13.668 16.849L15.677 18.361C14.762 19.361 13.459 20 12 20ZM16.272 17.558L14.263 16.046C14.411 15.727 14.5 15.375 14.5 15C14.5 13.622 13.379 12.5 12 12.5V10C14.757 10 17 12.243 17 15C17 15.938 16.725 16.807 16.272 17.558Z" fill="black"/>
<path fill-rule="evenodd" clip-rule="evenodd" d="M19.5 0H4.5C3.121 0 2 1.122 2 2.5V21.5C2 22.878 3.121 24 4.5 24H19.5C20.879 24 22 22.878 22 21.5V2.5C22 1.122 20.879 0 19.5 0ZM4.5 1H19.5C20.327 1 21 1.673 21 2.5V6H3V2.5C3 1.673 3.673 1 4.5 1ZM4.5 23C3.673 23 3 22.327 3 21.5V7H21V21.5C21 22.327 20.327 23 19.5 23H4.5Z" fill="black"/>
</svg>
