<svg width="24" height="24" viewBox="0 0 24 24" fill="none" xmlns="http://www.w3.org/2000/svg">
<path d="M12 0.5L12.4172 0.224467C12.3247 0.0843196 12.1679 0 12 0C11.8321 0 11.6753 0.0843196 11.5828 0.224467L12 0.5Z" fill="black"/>
<path d="M10.4876 9.7326C10.6161 9.48816 10.522 9.18586 10.2776 9.0574C10.0332 8.92894 9.73086 9.02295 9.6024 9.2674C8.99226 10.4284 8.34822 11.7306 7.85544 12.918C7.37348 14.0792 7 15.2124 7 16C7 17.4833 7.64516 18.814 8.66882 19.7288C8.87471 19.9128 9.1908 19.8951 9.37481 19.6892C9.55882 19.4833 9.54108 19.1672 9.33518 18.9832C8.51484 18.25 8 17.1867 8 16C8 15.4366 8.29202 14.4748 8.77906 13.3013C9.25528 12.1539 9.88374 10.8816 10.4876 9.7326Z" fill="black"/>
<path fill-rule="evenodd" clip-rule="evenodd" d="M12 0.5C12.4172 0.224467 12.4172 0.224346 12.4172 0.224467L12.423 0.233269L12.4395 0.258298L12.503 0.35534C12.5584 0.440349 12.6396 0.565243 12.7427 0.725484C12.949 1.04594 13.2433 1.50789 13.5963 2.07502C14.3022 3.20885 15.244 4.76505 16.1865 6.45257C17.1281 8.13848 18.0751 9.96372 18.788 11.634C19.4919 13.2831 20 14.8528 20 16C20 20.4192 16.4181 24 12 24C7.57981 24 4 20.4191 4 16C4 14.8528 4.50815 13.2831 5.21201 11.634C5.92494 9.96372 6.87186 8.13848 7.81347 6.45257C8.75597 4.76505 9.69781 3.20885 10.4037 2.07502C10.7567 1.50789 11.051 1.04594 11.2573 0.725484C11.3604 0.565243 11.4416 0.440349 11.497 0.35534L11.5605 0.258298L11.577 0.233269L11.5828 0.224467C11.5828 0.224346 11.5828 0.224467 12 0.5ZM11.2526 2.60351C11.5498 2.12602 11.805 1.72399 12 1.41958C12.195 1.72399 12.4502 2.12602 12.7474 2.60351C13.4478 3.72859 14.381 5.27057 15.3135 6.94018C16.2469 8.61139 17.1749 10.4022 17.8683 12.0266C18.5706 13.6722 19 15.0757 19 16C19 19.8668 15.8659 23 12 23C8.13219 23 5 19.8669 5 16C5 15.0757 5.42935 13.6722 6.13174 12.0266C6.82506 10.4022 7.75314 8.61139 8.68653 6.94018C9.61903 5.27057 10.5522 3.72859 11.2526 2.60351Z" fill="black"/>
</svg>
