<svg width="24" height="24" viewBox="0 0 24 24" fill="none" xmlns="http://www.w3.org/2000/svg">
<path fill-rule="evenodd" clip-rule="evenodd" d="M23 14.5V16.5C23 16.776 22.776 17 22.5 17H18.5C18.224 17 18 16.776 18 16.5V14.5C18 13.673 17.327 13 16.5 13H13.964C13.721 14.694 12.26 16 10.5 16H7.5C5.74 16 4.279 14.694 4.036 13H0.5C0.223 13 0 12.776 0 12.5V7.5C0 7.224 0.223 7 0.5 7H4.035C4.255 5.47 5.47 4.268 7 4.046V3H2C1.723 3 1.5 2.776 1.5 2.5C1.5 2.224 1.723 2 2 2H7V0.5C7 0.224 7.223 0 7.5 0H10.5C10.776 0 11 0.224 11 0.5V1.98L16.001 2C16.278 2.001 16.5 2.226 16.5 2.502C16.499 2.777 16.275 3 16 3H15.998L11 2.98V4.046C12.531 4.268 13.748 5.475 13.965 7.007C18.418 7.137 23 9.156 23 14.5ZM10 1H8V4H10V1ZM4 8H1V12H4V8ZM7.5 15H10.5C11.878 15 13 13.879 13 12.5V7.5C13 6.121 11.878 5 10.5 5H7.5C6.121 5 5 6.121 5 7.5V12.5C5 13.879 6.121 15 7.5 15ZM19 16H22V14.5C22 8.902 16.399 8.098 14 8.011V12H16.5C17.878 12 19 13.121 19 14.5V16Z" fill="black"/>
<path fill-rule="evenodd" clip-rule="evenodd" d="M20.585 18.3249C20.765 18.0219 21.261 18.0219 21.442 18.3249C21.708 18.7679 23.031 21.0209 23.032 21.9509C23.032 23.0639 22.127 23.9689 21.014 23.9689C19.901 23.9689 18.996 23.0629 18.996 21.9509C18.996 21.0209 20.319 18.7669 20.585 18.3249ZM19.996 21.9509C19.996 22.5129 20.453 22.9689 21.014 22.9689C21.575 22.9689 22.031 22.5129 22.032 21.9509C22.032 21.6089 21.557 20.5779 21.014 19.5879C20.47 20.5779 19.996 21.6079 19.996 21.9509Z" fill="black"/>
</svg>
