<svg width="24" height="24" viewBox="0 0 24 24" fill="none" xmlns="http://www.w3.org/2000/svg">
<path fill-rule="evenodd" clip-rule="evenodd" d="M10 2.5C10 2.22386 10.2239 2 10.5 2H14.5C14.7761 2 15 2.22386 15 2.5C15 2.77614 14.7761 3 14.5 3H13V5H16.5C16.7761 5 17 5.22386 17 5.5V6H19.5C21.433 6 23 7.567 23 9.5V12.5C23 12.7761 22.7761 13 22.5 13H19.5C19.2239 13 19 12.7761 19 12.5V10.5C19 10.2239 18.7761 10 18.5 10H17V10.5C17 10.7761 16.7761 11 16.5 11H8.5C8.22386 11 8 10.7761 8 10.5V10H5.5C5.22386 10 5 10.2239 5 10.5V21.5C5 21.7761 4.77614 22 4.5 22H1.5C1.22386 22 1 21.7761 1 21.5V9.5C1 7.567 2.567 6 4.5 6H8V5.5C8 5.22386 8.22386 5 8.5 5H12V3H10.5C10.2239 3 10 2.77614 10 2.5ZM9 6H16V10H9V6ZM17 7V9H18.5C19.3284 9 20 9.67157 20 10.5V12H22V9.5C22 8.11929 20.8807 7 19.5 7H17ZM8 7H4.5C3.11929 7 2 8.11929 2 9.5V21H4V10.5C4 9.67157 4.67157 9 5.5 9H8V7Z" fill="black"/>
<path fill-rule="evenodd" clip-rule="evenodd" d="M21.4202 15.2322C21.2408 14.9226 20.7492 14.9226 20.5708 15.2322C20.3072 15.6839 18.996 17.9874 18.996 18.9377C18.996 20.0741 19.8929 21 20.996 21C22.099 21 22.996 20.0752 22.996 18.9377C22.995 17.9874 21.6838 15.6849 21.4202 15.2322ZM20.996 19.9781C20.44 19.9781 19.9871 19.5121 19.9871 18.9377C19.9871 18.5872 20.4568 17.5346 20.996 16.5229C21.5341 17.5346 22.0049 18.5882 22.0049 18.9377C22.0039 19.5121 21.552 19.9781 20.996 19.9781Z" fill="black"/>
</svg>
