<svg width="24" height="24" viewBox="0 0 24 24" fill="none" xmlns="http://www.w3.org/2000/svg">
<path fill-rule="evenodd" clip-rule="evenodd" d="M17 10C17 6.68629 14.3137 4 11 4C7.68629 4 5 6.68629 5 10C5 13.3137 7.68629 16 11 16C14.3137 16 17 13.3137 17 10ZM6 10C6 7.23858 8.23858 5 11 5C13.7614 5 16 7.23858 16 10C16 12.7614 13.7614 15 11 15C8.23858 15 6 12.7614 6 10Z" fill="black"/>
<path fill-rule="evenodd" clip-rule="evenodd" d="M19 10C19 5.58172 15.4183 2 11 2C6.58172 2 3 5.58172 3 10C3 14.4183 6.58172 18 11 18C15.4183 18 19 14.4183 19 10ZM4 10C4 6.13401 7.13401 3 11 3C14.866 3 18 6.13401 18 10C18 13.866 14.866 17 11 17C7.13401 17 4 13.866 4 10Z" fill="black"/>
<path fill-rule="evenodd" clip-rule="evenodd" d="M20.0017 14.3607L20.0003 19H18.5C18.2239 19 18 19.2239 18 19.5C18 19.7761 18.2239 20 18.5 20H18.6535L20.0318 23.6756C20.105 23.8707 20.2916 24 20.5 24C20.7084 24 20.895 23.8707 20.9682 23.6756L22.3465 20H22.5C22.7761 20 23 19.7761 23 19.5C23 19.2239 22.7761 19 22.5 19H21V10C21 4.47715 16.5229 0 11 0C5.47715 0 1 4.47715 1 10C1 15.5228 5.47715 20 11 20L11.2799 19.9962C15.1204 19.8906 18.4199 17.6198 20.0017 14.3607ZM2 10C2 5.02944 6.02944 1 11 1C15.9706 1 20 5.02944 20 10C20 14.9706 15.9706 19 11 19C6.02944 19 2 14.9706 2 10ZM20.5 22.076L19.7215 20H21.2785L20.5 22.076Z" fill="black"/>
</svg>
