<svg width="24" height="24" viewBox="0 0 24 24" fill="none" xmlns="http://www.w3.org/2000/svg">
<path fill-rule="evenodd" clip-rule="evenodd" d="M22.1748 4.12872L22.1707 4.12462L20.1839 2.1062L18.1533 4.1262L18.1519 4.12768C17.0492 5.23513 17.0516 7.02477 18.1579 8.12978C19.2641 9.23468 21.0576 9.23568 22.1657 8.13183C23.2739 7.0278 23.2779 5.23641 22.1748 4.12872ZM19.6616 1.21542L17.4445 3.42097C15.9507 4.91899 15.9537 7.3414 17.4505 8.83642C18.9472 10.3314 21.3734 10.3324 22.8722 8.83942C24.3709 7.3464 24.3769 4.92299 22.8842 3.42397L20.7161 1.22141C20.577 1.07951 20.3869 1.00056 20.1888 1.00056C19.9907 0.992565 19.7976 1.07051 19.6616 1.21542ZM15.5777 13.6956L12.1604 10.2263L8.67058 13.6969L8.66922 13.6983C6.77306 15.6012 6.77763 18.6787 8.67973 20.5761C10.5815 22.4741 13.6639 22.4758 15.5672 20.5788C17.4708 18.6815 17.4773 15.6038 15.5814 13.6993L15.5777 13.6956ZM7.96173 12.9917L11.6396 9.33409C11.7806 9.19618 11.9697 9.11923 12.1668 9.11923C12.3639 9.11923 12.554 9.19818 12.6911 9.34009L16.2909 12.9947C18.576 15.2902 18.568 18.9998 16.2739 21.2862C13.9797 23.5727 10.2649 23.5707 7.97274 21.2833C5.67959 18.9958 5.67459 15.2852 7.96173 12.9917ZM5.84809 4.1251L3.85791 2.10607L1.82586 4.12753C0.723059 5.23492 0.725484 7.0255 1.83254 8.13054C2.93872 9.23545 4.73342 9.23668 5.84151 8.13283C6.95007 7.02924 6.95428 5.23744 5.85121 4.12825L5.84809 4.1251ZM3.33542 1.21542L1.11831 3.42097C-0.375434 4.91899 -0.372433 7.3424 1.12532 8.83742C2.62206 10.3324 5.04927 10.3334 6.54802 8.84042C8.04777 7.34739 8.05278 4.92399 6.56103 3.42397L4.38995 1.22141C4.25188 1.08051 4.06278 1.00056 3.86568 1.00056C3.66658 0.993564 3.47349 1.07151 3.33542 1.21542Z" fill="black"/>
</svg>
