<svg width="24" height="24" viewBox="0 0 24 24" fill="none" xmlns="http://www.w3.org/2000/svg">
<g clip-path="url(#clip0_323_13856)">
<path d="M8.14592 8.854C8.19192 8.9 8.24792 8.936 8.30892 8.961C8.36992 8.986 8.43492 9 8.49992 9C8.56492 9 8.62992 8.986 8.69092 8.961C8.75292 8.936 8.80792 8.899 8.85392 8.854L11.3539 6.354C11.5489 6.159 11.5489 5.842 11.3539 5.647C11.1589 5.452 10.8419 5.452 10.6469 5.647L8.99992 7.293V0.5C8.99992 0.224 8.77592 0 8.49992 0C8.22392 0 7.99992 0.224 7.99992 0.5V7.293L6.35392 5.647C6.15892 5.452 5.84192 5.452 5.64692 5.647C5.45192 5.842 5.45192 6.159 5.64692 6.354L8.14592 8.854Z" fill="black"/>
<path fill-rule="evenodd" clip-rule="evenodd" d="M23.9979 16.459C23.9979 16.308 23.9309 16.165 23.8139 16.07C23.6969 15.975 23.5439 15.937 23.3969 15.968C21.2689 16.409 19.9189 14.303 19.8629 14.213C19.6769 13.917 19.1779 13.925 19.0019 14.228C18.3759 15.314 17.1809 16.002 15.8819 16.025C14.5439 15.997 13.3539 15.387 12.6229 14.213C12.4369 13.914 11.9359 13.924 11.7619 14.228C11.1369 15.314 9.94192 16.002 8.64492 16.025C7.30792 16.048 6.11492 15.388 5.38392 14.213C5.21292 13.938 4.76592 13.913 4.56392 14.167C4.54592 14.19 2.71492 16.456 0.60492 16.01C0.45792 15.983 0.30392 16.017 0.18692 16.111C0.0679199 16.206 -8.00779e-05 16.349 -8.00779e-05 16.499L-0.00708008 20.478H0.00491992C0.00453937 20.4803 0.00372437 20.4827 0.00286069 20.4853C0.0014548 20.4895 -8.00779e-05 20.494 -8.00779e-05 20.499L-0.00708008 23.478C-0.00708008 23.611 0.0449199 23.738 0.13892 23.832C0.23292 23.926 0.35992 23.978 0.49292 23.978H23.4929C23.7689 23.978 23.9929 23.754 23.9929 23.479L23.9979 20.458C23.9979 20.4533 23.9966 20.4493 23.9952 20.4454C23.9943 20.4426 23.9933 20.4399 23.9929 20.437L23.9979 16.459ZM0.99892 17.067C2.75792 17.132 4.21692 15.963 4.91092 15.269C5.83692 16.404 7.20092 17.027 8.66092 17.025C10.0529 17.001 11.3529 16.369 12.2049 15.336C13.1289 16.429 14.4709 17.009 15.8979 17.025C17.2949 17.001 18.6019 16.364 19.4539 15.324C20.0669 16.031 21.2889 17.108 22.9959 17.026L22.9919 20.01C22.9669 20.0117 22.9416 20.0154 22.9162 20.019C22.8818 20.024 22.8473 20.029 22.8139 20.029C21.0594 20.029 19.92 18.3035 19.8631 18.2172L19.8609 18.214C19.6749 17.918 19.1759 17.927 18.9999 18.229C18.3609 19.337 17.1409 20.026 15.8149 20.026C14.5029 20.026 13.3379 19.366 12.6209 18.214C12.4349 17.916 11.9339 17.925 11.7599 18.229C11.1219 19.337 9.90192 20.026 8.57792 20.027C7.26392 20.027 6.09892 19.367 5.38192 18.215C5.21092 17.941 4.76392 17.915 4.56192 18.169C4.54692 18.189 3.03092 20.071 1.16892 20.071C1.13494 20.071 1.1013 20.066 1.06761 20.061C1.04282 20.0574 1.01791 20.0537 0.99292 20.052L0.99892 17.067ZM22.9939 22.979H0.99392L0.99792 21.067C2.74892 21.161 4.21492 19.964 4.90892 19.271C5.81892 20.394 7.12492 21.027 8.57792 21.027C10.0019 21.026 11.3339 20.394 12.2039 19.339C13.1109 20.42 14.3929 21.027 15.8159 21.027C17.2479 21.027 18.5849 20.389 19.4549 19.326C20.0669 20.03 21.3309 21.102 22.9959 21.026L22.9939 22.979Z" fill="black"/>
<path d="M15.3089 8.961C15.2479 8.936 15.1919 8.9 15.1459 8.854L12.6469 6.354C12.4519 6.159 12.4519 5.842 12.6469 5.647C12.8419 5.452 13.1589 5.452 13.3539 5.647L14.9999 7.293V0.5C14.9999 0.224 15.2239 0 15.4999 0C15.7759 0 15.9999 0.224 15.9999 0.5V7.293L17.6469 5.647C17.8419 5.452 18.1589 5.452 18.3539 5.647C18.5489 5.842 18.5489 6.159 18.3539 6.354L15.8539 8.854C15.8079 8.899 15.7529 8.936 15.6909 8.961C15.6299 8.986 15.5649 9 15.4999 9C15.4349 9 15.3699 8.986 15.3089 8.961Z" fill="black"/>
</g>
<defs>
<clipPath id="clip0_323_13856">
<rect width="24" height="24" fill="white"/>
</clipPath>
</defs>
</svg>
