<svg width="24" height="24" viewBox="0 0 24 24" fill="none" xmlns="http://www.w3.org/2000/svg">
<g clip-path="url(#clip0_323_13865)">
<path d="M6.35394 3.35398L7.99994 1.70698V8.49998C7.99994 8.77598 8.22394 8.99998 8.49994 8.99998C8.77594 8.99998 8.99994 8.77598 8.99994 8.49998V1.70698L10.6459 3.35298C10.7439 3.45098 10.8719 3.49998 10.9999 3.49998C11.1279 3.49998 11.2559 3.45098 11.3539 3.35398C11.5489 3.15898 11.5489 2.84198 11.3539 2.64698L8.85394 0.146982C8.80795 0.100982 8.75194 0.0639824 8.69094 0.0389824C8.56894 -0.0120176 8.43095 -0.0120176 8.30894 0.0389824C8.24794 0.0639824 8.19195 0.100982 8.14594 0.145982L5.64594 2.64598C5.45094 2.84098 5.45094 3.15798 5.64594 3.35298C5.84094 3.54798 6.15795 3.54898 6.35394 3.35398Z" fill="black"/>
<path fill-rule="evenodd" clip-rule="evenodd" d="M23.9929 16.4381L23.9979 12.4591C23.9979 12.3081 23.9309 12.1651 23.8139 12.0701C23.6969 11.9751 23.5439 11.9381 23.3969 11.9681C21.2659 12.4091 19.9189 10.3031 19.8629 10.2131C19.6769 9.91708 19.1779 9.92508 19.0019 10.2281C18.3759 11.3141 17.1809 12.0021 15.8819 12.0251H15.8149C14.5029 12.0251 13.3419 11.3681 12.6229 10.2131C12.4369 9.91508 11.9359 9.92408 11.7619 10.2281C11.1369 11.3141 9.94192 12.0021 8.64492 12.0251C7.31292 12.0391 6.11492 11.3871 5.38392 10.2131C5.21192 9.93808 4.76592 9.91408 4.56392 10.1671C4.54592 10.1901 2.71292 12.4551 0.60492 12.0101C0.45792 11.9821 0.30392 12.0171 0.18692 12.1111C0.0679199 12.2061 -8.00779e-05 12.3491 -8.00779e-05 12.4991L-0.00708008 16.4781H0.00491992C0.00453928 16.4804 0.00372396 16.4828 0.00286004 16.4854C0.00145479 16.4896 -8.00779e-05 16.4941 -8.00779e-05 16.4991L-0.00708008 20.4781H0.00491992C0.00453928 20.4804 0.00372396 20.4828 0.00286004 20.4854C0.00145479 20.4896 -8.00779e-05 20.4941 -8.00779e-05 20.4991L-0.00708008 23.4781C-0.00708008 23.6111 0.0449199 23.7381 0.13892 23.8321C0.23292 23.9261 0.35992 23.9781 0.49292 23.9781H23.4929C23.7689 23.9781 23.9929 23.7541 23.9929 23.4791L23.9979 20.4581C23.9979 20.4534 23.9966 20.4494 23.9952 20.4455C23.9943 20.4427 23.9933 20.44 23.9929 20.4371L23.9979 16.4581C23.9979 16.4541 23.9966 16.4505 23.9954 16.4468C23.9944 16.444 23.9934 16.4411 23.9929 16.4381ZM22.9979 17.0261L22.9939 20.0101C22.9689 20.0118 22.9436 20.0154 22.9182 20.0191C22.8838 20.0241 22.8493 20.0291 22.8159 20.0291C21.0614 20.0291 19.922 18.3036 19.8651 18.2173L19.8629 18.2141C19.6769 17.9181 19.1779 17.9271 19.0019 18.2291C18.3629 19.3371 17.1429 20.0261 15.8169 20.0261C14.5049 20.0261 13.3399 19.3661 12.6229 18.2141C12.4369 17.9161 11.9359 17.9251 11.7619 18.2291C11.1239 19.3371 9.90392 20.0261 8.57992 20.0271C7.26592 20.0271 6.10092 19.3671 5.38392 18.2151C5.21192 17.9411 4.76592 17.9151 4.56392 18.1691C4.54892 18.1891 3.03292 20.0711 1.17092 20.0711C1.13694 20.0711 1.1033 20.0661 1.06961 20.0611C1.04482 20.0575 1.01991 20.0538 0.99492 20.0521L0.99992 17.0681C2.76092 17.1331 4.21792 15.9641 4.91192 15.2701C5.83792 16.4051 7.18592 17.0281 8.66192 17.0261C10.0539 17.0021 11.3539 16.3701 12.2059 15.3371C13.1299 16.4301 14.4669 17.0101 15.8989 17.0261C17.2959 17.0021 18.6029 16.3651 19.4549 15.3251C20.0689 16.0311 21.2919 17.1081 22.9979 17.0261ZM0.99892 13.0671C2.75992 13.1231 4.21692 11.9631 4.91092 11.2691C5.83692 12.4041 7.18492 13.0151 8.66092 13.0251C10.0529 13.0011 11.3529 12.3691 12.2049 11.3361C13.1289 12.4291 14.4659 13.0081 15.8979 13.0251C17.2949 13.0011 18.6019 12.3641 19.4539 11.3241C20.0679 12.0311 21.2909 13.0961 22.9959 13.0261L22.9919 16.0231C21.0959 16.1451 19.9129 14.2971 19.8609 14.2131C19.6749 13.9171 19.1759 13.9251 18.9999 14.2281C18.3739 15.3141 17.1789 16.0021 15.8799 16.0251C14.5409 15.9971 13.3519 15.3871 12.6209 14.2131C12.4349 13.9141 11.9339 13.9241 11.7599 14.2281C11.1349 15.3141 9.93992 16.0021 8.64292 16.0251C7.31092 16.0481 6.11292 15.3881 5.38192 14.2131C5.20992 13.9381 4.76392 13.9131 4.56192 14.1671C4.54074 14.1932 2.93036 16.1829 0.99292 16.0631L0.99892 13.0671ZM22.9939 22.9791H0.99392L0.99792 21.0671C2.73992 21.1611 4.21592 19.9641 4.90892 19.2711C5.81892 20.3941 7.12492 21.0271 8.57792 21.0271C10.0019 21.0261 11.3339 20.3941 12.2039 19.3391C13.1109 20.4201 14.3929 21.0271 15.8159 21.0271C17.2479 21.0271 18.5849 20.3891 19.4549 19.3261C20.0679 20.0301 21.3349 21.1021 22.9959 21.0261L22.9939 22.9791Z" fill="black"/>
<path d="M14.9999 1.70696L13.3539 3.35396C13.1579 3.54896 12.8409 3.54896 12.6459 3.35396C12.4509 3.15896 12.4509 2.84196 12.6459 2.64696L15.1459 0.146959C15.1919 0.101959 15.2469 0.064959 15.3089 0.039959C15.4309 -0.011041 15.5689 -0.011041 15.6909 0.039959C15.7519 0.064959 15.8079 0.100959 15.8539 0.146959L18.3539 2.64696C18.5489 2.84196 18.5489 3.15896 18.3539 3.35396C18.2559 3.45096 18.1279 3.49996 17.9999 3.49996C17.8719 3.49996 17.7439 3.45096 17.6459 3.35296L15.9999 1.70696V8.49996C15.9999 8.77596 15.7759 8.99996 15.4999 8.99996C15.2239 8.99996 14.9999 8.77596 14.9999 8.49996V1.70696Z" fill="black"/>
</g>
<defs>
<clipPath id="clip0_323_13865">
<rect width="24" height="24" fill="white"/>
</clipPath>
</defs>
</svg>
