<svg width="24" height="24" viewBox="0 0 24 24" fill="none" xmlns="http://www.w3.org/2000/svg">
<path fill-rule="evenodd" clip-rule="evenodd" d="M2 17V9C2 4.02944 6.02944 0 11 0C15.9706 0 20 4.02944 20 9C20 9.27614 19.7761 9.5 19.5 9.5H16.5C16.2239 9.5 16 9.27614 16 9C16 6.23858 13.7614 4 11 4C8.23858 4 6 6.23858 6 9V17H6.5C6.77614 17 7 17.2239 7 17.5V18.0545L8.13027 17.6053C8.90035 17.3012 9.77154 17.6771 10.0775 18.4466C10.3837 19.2166 10.007 20.0892 9.2365 20.3951L7 21.2834V23.5C7 23.7761 6.77614 24 6.5 24H1.5C1.22386 24 1 23.7761 1 23.5V17.5C1 17.2239 1.22386 17 1.5 17H2ZM3 9C3 4.58172 6.58172 1 11 1C15.2504 1 18.7265 4.31464 18.9846 8.5H16.9795C16.7254 5.42023 14.1453 3 11 3C7.68629 3 5 5.68629 5 9V17H3V9ZM2 18V23H6V21.6805L5.05449 22.0561C4.28393 22.3619 3.4123 21.9856 3.10632 21.2161C2.80016 20.4463 3.17687 19.5736 3.94727 19.2677L6 18.452V18H2ZM4.31638 20.1971L8.4976 18.5354C8.75541 18.4339 9.04637 18.5598 9.14832 18.8161C9.25014 19.0722 9.12494 19.3635 8.86748 19.4657L4.68548 21.1267C4.42805 21.2288 4.13756 21.1032 4.03554 20.8466C3.93373 20.5906 4.05892 20.2993 4.31638 20.1971Z" fill="black"/>
<path d="M16.3024 12.2129C16.42 11.963 16.3128 11.6652 16.0629 11.5476C15.8131 11.43 15.5152 11.5372 15.3976 11.7871L14.7576 13.1471C14.64 13.397 14.7473 13.6948 14.9971 13.8124C15.247 13.93 15.5449 13.8228 15.6624 13.5729L16.3024 12.2129Z" fill="black"/>
<path d="M20.4524 11.7871C20.3348 11.5372 20.037 11.43 19.7871 11.5476C19.5372 11.6652 19.43 11.963 19.5476 12.2129L20.1876 13.5729C20.3052 13.8228 20.603 13.93 20.8529 13.8124C21.1028 13.6948 21.21 13.397 21.0924 13.1471L20.4524 11.7871Z" fill="black"/>
<path d="M18 11.6799C18.2761 11.6799 18.5 11.9038 18.5 12.1799V13.6799C18.5 13.9561 18.2761 14.1799 18 14.1799C17.7239 14.1799 17.5 13.9561 17.5 13.6799V12.1799C17.5 11.9038 17.7239 11.6799 18 11.6799Z" fill="black"/>
<path d="M18 15.1799C18.2761 15.1799 18.5 15.4038 18.5 15.6799V17.1699C18.5 17.4461 18.2761 17.6699 18 17.6699C17.7239 17.6699 17.5 17.4461 17.5 17.1699V15.6799C17.5 15.4038 17.7239 15.1799 18 15.1799Z" fill="black"/>
<path d="M21.2871 14.7075C21.537 14.5899 21.8348 14.6972 21.9524 14.947L22.5924 16.307C22.71 16.5569 22.6028 16.8547 22.3529 16.9723C22.103 17.0899 21.8052 16.9827 21.6876 16.7328L21.0476 15.3728C20.93 15.123 21.0372 14.8251 21.2871 14.7075Z" fill="black"/>
<path d="M14.5629 14.7075C14.8128 14.8251 14.92 15.123 14.8024 15.3728L14.1624 16.7328C14.0449 16.9827 13.747 17.0899 13.4971 16.9723C13.2473 16.8547 13.14 16.5569 13.2576 16.307L13.8976 14.947C14.0152 14.6972 14.3131 14.5899 14.5629 14.7075Z" fill="black"/>
</svg>
