<svg width="24" height="24" viewBox="0 0 24 24" fill="none" xmlns="http://www.w3.org/2000/svg">
<path fill-rule="evenodd" clip-rule="evenodd" d="M16 6.71899C16 5.89199 16.673 5.21899 17.5 5.21899C18.327 5.21899 19 5.89199 19 6.71899C19 7.54599 18.327 8.21899 17.5 8.21899C16.673 8.21899 16 7.54599 16 6.71899ZM17 6.71899C17 6.99499 17.225 7.21899 17.5 7.21899C17.775 7.21899 18 6.99499 18 6.71899C18 6.44299 17.775 6.21899 17.5 6.21899C17.225 6.21899 17 6.44299 17 6.71899Z" fill="black"/>
<path fill-rule="evenodd" clip-rule="evenodd" d="M20.638 5.05611L22.459 9.27111C22.525 9.42511 22.511 9.60211 22.418 9.74411C22.325 9.88611 22.168 9.97011 22 9.97011H19.983C19.716 14.1161 16.149 17.6671 12 17.9351V19.9871L18.088 19.9991L16.685 18.8591C16.471 18.6841 16.438 18.3691 16.613 18.1551C16.787 17.9401 17.102 17.9091 17.316 18.0831L19.816 20.1141C19.8198 20.1168 19.8221 20.1206 19.8243 20.1244C19.8263 20.1276 19.8282 20.1308 19.831 20.1331C19.868 20.1671 19.897 20.2081 19.923 20.2501C19.9272 20.2572 19.9321 20.2636 19.9369 20.27C19.9437 20.2788 19.9503 20.2876 19.955 20.2981C19.983 20.3611 20.001 20.4301 20.001 20.5031V20.5051C20.001 20.5111 19.997 20.5161 19.997 20.5221C19.994 20.5881 19.979 20.6511 19.953 20.7081C19.9476 20.7206 19.9398 20.731 19.9317 20.7416C19.9263 20.7488 19.9208 20.756 19.916 20.7641C19.89 20.8041 19.863 20.8411 19.828 20.8721C19.8247 20.875 19.8222 20.8787 19.8199 20.8824C19.8172 20.8865 19.8147 20.8905 19.811 20.8931L17.342 22.8461C17.25 22.9191 17.14 22.9541 17.031 22.9541C16.883 22.9541 16.738 22.8891 16.638 22.7641C16.467 22.5471 16.504 22.2331 16.72 22.0611L18.064 20.9981L12 20.9871V23.4901C12 23.7661 11.776 23.9901 11.5 23.9901C11.224 23.9901 11 23.7661 11 23.4901V20.9851L8.04 20.9801L6.933 22.7361C6.841 22.8811 6.682 22.9691 6.51 22.9691H2.499C2.326 22.9691 2.165 22.8791 2.073 22.7321C1.983 22.5851 1.975 22.4011 2.052 22.2461L2.69 20.9711L1.999 20.9701C1.723 20.9701 1.5 20.7461 1.5 20.4701C1.501 20.1931 1.725 19.9701 2 19.9701H2.002L2.692 19.9711L2.053 18.6931C1.975 18.5391 1.983 18.3541 2.074 18.2071C2.166 18.0601 2.327 17.9701 2.5 17.9701H6.511C6.683 17.9701 6.842 18.0581 6.934 18.2031L8.053 19.9801L11 19.9851V17.9361C7.673 17.7401 4.854 15.6301 3.64 12.6831C3.63375 12.669 3.62872 12.6544 3.62348 12.6391C3.62202 12.6348 3.62053 12.6305 3.619 12.6261C3.349 11.9581 3.165 11.2481 3.072 10.5091C3.07154 10.5022 3.0696 10.4955 3.06764 10.4888C3.06534 10.4808 3.063 10.4728 3.063 10.4641C3.063 10.4631 3.06312 10.4622 3.06327 10.4613C3.06357 10.4597 3.064 10.4584 3.064 10.4571C3.025 10.1271 3 9.79411 3 9.45311V3.46911C3 3.24711 3.147 3.05111 3.361 2.98911C3.575 2.92511 3.805 3.01511 3.923 3.20411C3.97732 3.2893 7.59929 8.97011 11 8.97011C12.358 8.97011 14 7.83711 14 6.43011C14 5.70911 14.223 5.04011 14.601 4.48511L13.065 1.77711C12.97 1.60911 12.979 1.40011 13.092 1.24411C13.204 1.08511 13.398 1.00411 13.587 1.04011L15.385 1.35811L17.216 0.0901054C17.388 -0.0298946 17.617 -0.0278946 17.789 0.0931054L19.574 1.35511L21.44 1.00911C21.636 0.974105 21.841 1.05811 21.95 1.22811C22.06 1.39711 22.057 1.61611 21.943 1.78311L20.2 4.32711C20.371 4.55011 20.522 4.79111 20.638 5.05611ZM6.864 19.9691L6.234 18.9691H3.309L3.809 19.9691H6.864ZM3.309 21.9691H6.234L6.86 20.9771L3.807 20.9731L3.309 21.9691ZM15.784 2.29611C15.676 2.37111 15.54 2.40011 15.413 2.37711L14.459 2.20811L15.322 3.73011C15.913 3.26111 16.65 2.96911 17.461 2.96911C18.2 2.96911 18.896 3.21011 19.472 3.62111L20.438 2.21111L19.549 2.37611C19.415 2.39911 19.279 2.37011 19.169 2.29311L17.497 1.11011L15.784 2.29611ZM19 9.46911C19 9.19311 19.224 8.96911 19.5 8.96911H21.24L19.72 5.45311C19.33 4.55211 18.443 3.96911 17.461 3.96911C16.104 3.96911 15 5.07211 15 6.42911C15 8.4551 12.889 9.96911 11 9.96911C8.154 9.96911 5.391 6.88311 4 5.05011V7.96911H5.5C5.776 7.96911 6 8.19311 6 8.46911C6 8.74511 5.776 8.96911 5.5 8.96911H4V9.45311C4 9.58972 4.00935 9.72384 4.01871 9.85793C4.0212 9.89364 4.02369 9.92935 4.026 9.96511L6.501 9.96911C6.777 9.96911 7 10.1931 7 10.4701C7 10.7461 6.775 10.9691 6.5 10.9691L4.153 10.9661C4.223 11.3101 4.326 11.6431 4.442 11.9691H7.5C7.776 11.9691 8 12.1931 8 12.4691C8 12.7451 7.776 12.9691 7.5 12.9691H4.878C6.14 15.3411 8.633 16.9611 11.5 16.9611C15.793 16.9611 19 13.0061 19 9.46911Z" fill="black"/>
</svg>
