<svg width="24" height="24" viewBox="0 0 24 24" fill="none" xmlns="http://www.w3.org/2000/svg">
<path d="M18 20.5C18 20.7761 17.7761 21 17.5 21C17.2239 21 17 20.7761 17 20.5C17 20.2239 17.2239 20 17.5 20C17.7761 20 18 20.2239 18 20.5Z" fill="black"/>
<path d="M15.5 20C15.7761 20 16 19.7761 16 19.5C16 19.2239 15.7761 19 15.5 19C15.2239 19 15 19.2239 15 19.5C15 19.7761 15.2239 20 15.5 20Z" fill="black"/>
<path d="M15 17.5C15 17.7761 14.7761 18 14.5 18C14.2239 18 14 17.7761 14 17.5C14 17.2239 14.2239 17 14.5 17C14.7761 17 15 17.2239 15 17.5Z" fill="black"/>
<path d="M17.5 19C17.7761 19 18 18.7761 18 18.5C18 18.2239 17.7761 18 17.5 18C17.2239 18 17 18.2239 17 18.5C17 18.7761 17.2239 19 17.5 19Z" fill="black"/>
<path d="M20 18.5C20 18.7761 19.7761 19 19.5 19C19.2239 19 19 18.7761 19 18.5C19 18.2239 19.2239 18 19.5 18C19.7761 18 20 18.2239 20 18.5Z" fill="black"/>
<path d="M21.5 18C21.7761 18 22 17.7761 22 17.5C22 17.2239 21.7761 17 21.5 17C21.2239 17 21 17.2239 21 17.5C21 17.7761 21.2239 18 21.5 18Z" fill="black"/>
<path d="M21 20.5C21 20.7761 20.7761 21 20.5 21C20.2239 21 20 20.7761 20 20.5C20 20.2239 20.2239 20 20.5 20C20.7761 20 21 20.2239 21 20.5Z" fill="black"/>
<path fill-rule="evenodd" clip-rule="evenodd" d="M4.50001 21H9.50001C9.74901 21 9.96001 20.817 9.99501 20.571L10.995 13.571C11.016 13.427 10.973 13.282 10.878 13.173C10.783 13.062 10.645 13 10.5 13H3.50001C3.35501 13 3.21701 13.062 3.12201 13.173C3.02701 13.282 2.98401 13.427 3.00501 13.571L4.00501 20.571C4.04001 20.817 4.25101 21 4.50001 21ZM9.92401 14L9.06701 20H4.93401L4.07701 14H9.92401Z" fill="black"/>
<path fill-rule="evenodd" clip-rule="evenodd" d="M3 23H11C11.621 23 12.215 22.617 12.536 22.06C13.073 22.628 13.925 23 14.68 23H21.371C22.562 23 24 22.04 24 20.847V11.5C24 11.224 23.776 11 23.5 11H12.5C12.4718 11 12.4454 11.0071 12.4194 11.0142C12.4076 11.0173 12.3958 11.0205 12.384 11.023C11.869 10.516 11.25 10.103 10.685 9.733C9.781 9.141 9 8.629 9 8V0.5C9 0.224 8.776 0 8.5 0H5.5C5.224 0 5 0.224 5 0.5V8C5 8.629 4.22 9.141 3.315 9.733L3.31166 9.73519C2.05922 10.5568 0.5 11.5797 0.5 13.5C0.5 16.503 1.232 21.397 1.272 21.65C1.461 22.407 2.22 23 3 23ZM21.371 22H14.68C13.978 22 13 21.419 13 20.847V19.67C13.0005 19.6645 13.0012 19.6595 13.002 19.6545C13.0028 19.6495 13.0035 19.6445 13.004 19.639C13.0051 19.6293 13.0037 19.6196 13.0022 19.6099C13.0011 19.6026 13 19.5953 13 19.588V16H23V20.847C23 21.419 22.053 22 21.371 22ZM23 15H13V12H23V15ZM8 3H6V1H8V3ZM3.864 10.569C4.914 9.881 6 9.169 6 8V4H8V8C8 9.17 9.086 9.881 10.137 10.569C10.818 11.015 11.519 11.477 12 12.086V19.607C11.9013 20.3837 11.8159 20.9887 11.778 21.2577C11.764 21.3564 11.757 21.41 11.757 21.41C11.679 21.719 11.318 22 11 22H3C2.681 22 2.32 21.719 2.252 21.455L2.24969 21.4393C2.20371 21.1269 1.5 16.3467 1.5 13.5C1.5 12.1192 2.70218 11.3309 3.864 10.569Z" fill="black"/>
</svg>
