<svg width="24" height="24" viewBox="0 0 24 24" fill="none" xmlns="http://www.w3.org/2000/svg">
<path d="M22.937 4.84395C20.302 3.08695 16.699 3.08595 14.062 4.84395C13.835 4.99595 13.524 4.93695 13.368 4.70495C13.215 4.47595 13.278 4.16495 13.507 4.01195C16.474 2.03295 20.527 2.03395 23.491 4.01195C23.721 4.16495 23.783 4.47595 23.63 4.70495C23.476 4.93595 23.166 4.99595 22.937 4.84395Z" fill="black"/>
<path d="M3.5 17C3.224 17 3 17.224 3 17.5V19.5C3 19.776 3.224 20 3.5 20C3.776 20 4 19.776 4 19.5V17.5C4 17.224 3.776 17 3.5 17Z" fill="black"/>
<path d="M6 17.5C6 17.224 6.224 17 6.5 17C6.776 17 7 17.224 7 17.5V19.5C7 19.776 6.776 20 6.5 20C6.224 20 6 19.776 6 19.5V17.5Z" fill="black"/>
<path d="M9.5 17C9.224 17 9 17.224 9 17.5V19.5C9 19.776 9.224 20 9.5 20C9.776 20 10 19.776 10 19.5V17.5C10 17.224 9.776 17 9.5 17Z" fill="black"/>
<path fill-rule="evenodd" clip-rule="evenodd" d="M13 17H20.5C20.776 17 21 17.224 21 17.5V19.5C21 19.776 20.776 20 20.5 20H13C12.724 20 12.5 19.776 12.5 19.5V17.5C12.5 17.224 12.724 17 13 17ZM13.5 19H20V18H13.5V19Z" fill="black"/>
<path fill-rule="evenodd" clip-rule="evenodd" d="M21.5 15H19V10C19 9.724 18.776 9.5 18.5 9.5C18.224 9.5 18 9.724 18 10V15H6V10C6 9.724 5.776 9.5 5.5 9.5C5.224 9.5 5 9.724 5 10V15H2.5C1.121 15 0 16.122 0 17.5V19.5C0 20.878 1.121 22 2.5 22H3V22.5C3 22.776 3.224 23 3.5 23C3.776 23 4 22.776 4 22.5V22H20V22.5C20 22.776 20.224 23 20.5 23C20.776 23 21 22.776 21 22.5V22H21.5C22.879 22 24 20.878 24 19.5V17.5C24 16.122 22.879 15 21.5 15ZM23 19.5C23 20.327 22.327 21 21.5 21H2.5C1.673 21 1 20.327 1 19.5V17.5C1 16.673 1.673 16 2.5 16H21.5C22.327 16 23 16.673 23 17.5V19.5Z" fill="black"/>
<path d="M22.521 6.36997C22.674 6.14097 22.613 5.82997 22.383 5.67697C20.082 4.13797 16.923 4.13697 14.616 5.67597C14.387 5.82897 14.324 6.13997 14.477 6.36897C14.63 6.59797 14.942 6.65897 15.17 6.50797C17.148 5.18797 19.856 5.18997 21.825 6.50797C22.06 6.66197 22.368 6.59797 22.521 6.36997Z" fill="black"/>
<path d="M15.588 8.03399C15.435 7.80399 15.498 7.49299 15.727 7.33999C17.373 6.24199 19.625 6.24099 21.273 7.33999C21.503 7.49299 21.565 7.80299 21.412 8.03299C21.258 8.26399 20.948 8.32399 20.719 8.17199C19.399 7.29199 17.596 7.29299 16.281 8.17199C16.053 8.32499 15.743 8.26499 15.588 8.03399Z" fill="black"/>
<path d="M1.062 4.84395C3.7 3.08595 7.303 3.08695 9.937 4.84395C10.165 4.99595 10.476 4.93595 10.63 4.70495C10.783 4.47595 10.721 4.16495 10.491 4.01195C7.526 2.03395 3.473 2.03295 0.506996 4.01195C0.277996 4.16495 0.215996 4.47595 0.368996 4.70495C0.523996 4.93695 0.834996 4.99595 1.062 4.84395Z" fill="black"/>
<path d="M9.38399 5.67697C9.61299 5.82997 9.67499 6.13997 9.52099 6.36997C9.36799 6.59797 9.05999 6.66197 8.82699 6.50797C6.85799 5.18997 4.14999 5.18797 2.17199 6.50797C1.94399 6.65897 1.63299 6.59797 1.47899 6.36897C1.32499 6.13997 1.38799 5.82897 1.61699 5.67597C3.92399 4.13697 7.08199 4.13797 9.38399 5.67697Z" fill="black"/>
<path d="M2.727 7.33999C2.497 7.49299 2.435 7.80399 2.588 8.03399C2.743 8.26499 3.053 8.32499 3.281 8.17199C4.596 7.29299 6.399 7.29199 7.719 8.17199C7.948 8.32399 8.258 8.26399 8.412 8.03299C8.565 7.80299 8.503 7.49299 8.273 7.33999C6.625 6.24099 4.372 6.24199 2.727 7.33999Z" fill="black"/>
</svg>
