<svg width="24" height="24" viewBox="0 0 24 24" fill="none" xmlns="http://www.w3.org/2000/svg">
<g clip-path="url(#clip0_323_13910)">
<path d="M1 10C1.276 10 1.5 9.776 1.5 9.5V1.5C1.5 1.224 1.276 1 1 1C0.724 1 0.5 1.224 0.5 1.5V9.5C0.5 9.776 0.724 10 1 10Z" fill="black"/>
<path d="M4.5 8.5C4.5 8.776 4.276 9 4 9C3.724 9 3.5 8.776 3.5 8.5V2.5C3.5 2.224 3.724 2 4 2C4.276 2 4.5 2.224 4.5 2.5V8.5Z" fill="black"/>
<path d="M7.5 7.5C7.5 7.776 7.276 8 7 8C6.724 8 6.5 7.776 6.5 7.5V3.5C6.5 3.224 6.724 3 7 3C7.276 3 7.5 3.224 7.5 3.5V7.5Z" fill="black"/>
<path d="M10 7C10.276 7 10.5 6.776 10.5 6.5V4.5C10.5 4.224 10.276 4 10 4C9.724 4 9.5 4.224 9.5 4.5V6.5C9.5 6.776 9.724 7 10 7Z" fill="black"/>
<path d="M14 7C14.276 7 14.5 6.776 14.5 6.5V4.5C14.5 4.224 14.276 4 14 4C13.724 4 13.5 4.224 13.5 4.5V6.5C13.5 6.776 13.724 7 14 7Z" fill="black"/>
<path d="M17 8C17.276 8 17.5 7.776 17.5 7.5V3.5C17.5 3.224 17.276 3 17 3C16.724 3 16.5 3.224 16.5 3.5V7.5C16.5 7.776 16.724 8 17 8Z" fill="black"/>
<path d="M20 9C20.276 9 20.5 8.776 20.5 8.5V2.5C20.5 2.224 20.276 2 20 2C19.724 2 19.5 2.224 19.5 2.5V8.5C19.5 8.776 19.724 9 20 9Z" fill="black"/>
<path d="M23 10C23.276 10 23.5 9.776 23.5 9.5V1.5C23.5 1.224 23.276 1 23 1C22.724 1 22.5 1.224 22.5 1.5V9.5C22.5 9.776 22.724 10 23 10Z" fill="black"/>
<path d="M15 18.5C15 19.0523 14.5523 19.5 14 19.5C13.4477 19.5 13 19.0523 13 18.5C13 17.9477 13.4477 17.5 14 17.5C14.5523 17.5 15 17.9477 15 18.5Z" fill="black"/>
<path d="M17 19.5C17.5523 19.5 18 19.0523 18 18.5C18 17.9477 17.5523 17.5 17 17.5C16.4477 17.5 16 17.9477 16 18.5C16 19.0523 16.4477 19.5 17 19.5Z" fill="black"/>
<path d="M21 18.5C21 19.0523 20.5523 19.5 20 19.5C19.4477 19.5 19 19.0523 19 18.5C19 17.9477 19.4477 17.5 20 17.5C20.5523 17.5 21 17.9477 21 18.5Z" fill="black"/>
<path d="M8.5 18H2.5C2.224 18 2 18.224 2 18.5C2 18.776 2.224 19 2.5 19H8.5C8.776 19 9 18.776 9 18.5C9 18.224 8.776 18 8.5 18Z" fill="black"/>
<path fill-rule="evenodd" clip-rule="evenodd" d="M12.5 15H21.501C22.88 15 24.001 16.122 24.001 17.5V19.5C24.001 20.708 23.141 21.718 22 21.95V22.5C22 22.776 21.776 23 21.5 23C21.224 23 21 22.776 21 22.5V22H3V22.5C3 22.776 2.776 23 2.5 23C2.224 23 2 22.776 2 22.5V21.95C0.86 21.717 0 20.707 0 19.5V17.5C0 16.122 1.121 15 2.5 15H11.5V7.5C11.5 7.224 11.724 7 12 7C12.276 7 12.5 7.224 12.5 7.5V15ZM21.501 21C22.328 21 23.001 20.327 23.001 19.5V17.5C23.001 16.673 22.328 16 21.501 16H2.5C1.673 16 1 16.673 1 17.5V19.5C1 20.327 1.673 21 2.5 21H21.501Z" fill="black"/>
</g>
<defs>
<clipPath id="clip0_323_13910">
<rect width="24" height="24" fill="white"/>
</clipPath>
</defs>
</svg>
