<svg width="24" height="24" viewBox="0 0 24 24" fill="none" xmlns="http://www.w3.org/2000/svg">
<path fill-rule="evenodd" clip-rule="evenodd" d="M5.5 2C5.24312 2 5.02804 2.19465 5.00248 2.45025L3.50248 18.4502C3.48843 18.5908 3.53448 18.7308 3.62927 18.8355C3.72406 18.9402 3.85874 19 4 19H20C20.1413 19 20.2759 18.9402 20.3707 18.8355C20.4655 18.7308 20.5116 18.5908 20.4975 18.4502L18.9975 2.45025C18.972 2.19465 18.7569 2 18.5 2H5.5ZM4.55249 18L5.95249 3H18.0475L19.4475 18H4.55249Z" fill="black"/>
<path fill-rule="evenodd" clip-rule="evenodd" d="M3.5 0C3.24412 0 3.02954 0.193184 3.00275 0.447658L1.00275 20.4477C0.987914 20.5886 1.03358 20.7292 1.1284 20.8345C1.22322 20.9399 1.35828 21 1.5 21H22.5C22.6417 21 22.7768 20.9399 22.8716 20.8345C22.9664 20.7292 23.0121 20.5886 22.9973 20.4477L20.9973 0.447658C20.9705 0.193184 20.7559 0 20.5 0H3.5ZM2.0554 20L3.95013 1H20.0499L21.9446 20H2.0554Z" fill="black"/>
<path d="M3 23V22H2V23.5C2 23.7761 2.22386 24 2.5 24H21.5C21.7761 24 22 23.7761 22 23.5V22H21V23H3Z" fill="black"/>
</svg>
