<svg width="24" height="24" viewBox="0 0 24 24" fill="none" xmlns="http://www.w3.org/2000/svg">
<g clip-path="url(#clip0_323_13936)">
<path d="M23.5 23H14V15.568C15.135 16.674 16.804 17.889 18.73 17.965C18.794 17.968 18.858 17.969 18.922 17.969C20.328 17.969 21.65 17.354 22.853 16.139C23.188 15.8 23.328 15.464 23.267 15.139C23.237 14.98 23.127 14.686 22.731 14.51L14.079 10.525C15.121 8.50098 16.095 5.71398 15.195 3.39098C14.616 1.89698 13.347 0.792984 11.425 0.111984C10.975 -0.0460156 10.611 -0.0330155 10.343 0.157984C10.214 0.250984 9.997 0.472984 10 0.902984V10.365C7.604 9.80598 4.572 9.78598 2.569 11.296C1.215 12.318 0.527 13.879 0.527 15.936C0.527 16.413 0.665 16.75 0.936 16.938C1.025 17 1.182 17.079 1.397 17.079C1.504 17.079 1.626 17.059 1.761 17.009L10 13.986V23H0.5C0.224 23 0 23.224 0 23.5C0 23.776 0.224 24 0.5 24H10.5H13.5H23.5C23.776 24 24 23.776 24 23.5C24 23.224 23.776 23 23.5 23ZM22.144 15.436C21.092 16.498 19.965 17.01 18.77 16.967C16.722 16.886 14.944 15.201 14 14.112V11.59L22.205 15.37C22.188 15.39 22.168 15.411 22.144 15.436ZM11.092 1.05598C12.727 1.63498 13.794 2.54198 14.263 3.75298C14.93 5.47598 14.339 7.58898 13.552 9.32098C13.186 8.86498 12.63 8.56598 12 8.56598C11.634 8.56598 11.295 8.67098 11 8.84398L11.001 1.02598C11.028 1.03298 11.058 1.04298 11.092 1.05598ZM1.53 16.025C1.528 16 1.527 15.97 1.527 15.936C1.527 14.21 2.08 12.917 3.171 12.095C4.963 10.744 7.881 10.862 10 11.394V12.92L1.53 16.025ZM11 23V10.566C11 10.014 11.449 9.56598 12 9.56598C12.551 9.56598 13 10.014 13 10.566V23H11Z" fill="black"/>
</g>
<defs>
<clipPath id="clip0_323_13936">
<rect width="24" height="24" fill="white"/>
</clipPath>
</defs>
</svg>
