<svg width="24" height="24" viewBox="0 0 24 24" fill="none" xmlns="http://www.w3.org/2000/svg">
<path fill-rule="evenodd" clip-rule="evenodd" d="M2 0.5C2 0.223858 1.77614 0 1.5 0C1.22386 0 1 0.223858 1 0.5V23.5C1 23.7761 1.22386 24 1.5 24C1.77614 24 2 23.7761 2 23.5V14.2385L6 15.8385V17.5C6 17.6693 6.08563 17.827 6.22754 17.9192C6.36946 18.0115 6.5484 18.0256 6.70307 17.9569L22.647 10.8707C23.8347 10.3428 23.8347 8.65716 22.647 8.12928L6.70307 1.04309C6.5484 0.974354 6.36946 0.988525 6.22754 1.08075C6.08563 1.17298 6 1.33075 6 1.5V3.2169L2 5.6169V0.5ZM6 14.7615L2 13.1615V6.7831L6 4.3831V14.7615ZM7 2.26938L11 4.04716V14.9528L7 16.7306V2.26938ZM12 14.5084L16 12.7306V6.26938L12 4.4916V14.5084ZM17 6.71383V12.2862L22.2409 9.95691C22.6368 9.78095 22.6368 9.21905 22.2409 9.04309L17 6.71383Z" fill="black"/>
</svg>
