<svg width="24" height="24" viewBox="0 0 24 24" fill="none" xmlns="http://www.w3.org/2000/svg">
<path d="M4 4C3.73478 4 3.48043 4.10536 3.29289 4.29289C3.10536 4.48043 3 4.73478 3 5C3 5.26522 3.10536 5.51957 3.29289 5.70711C3.48043 5.89464 3.73478 6 4 6C4.26522 6 4.51957 5.89464 4.70711 5.70711C4.89464 5.51957 5 5.26522 5 5C5 4.73478 4.89464 4.48043 4.70711 4.29289C4.51957 4.10536 4.26522 4 4 4Z" fill="black"/>
<path d="M6.29289 4.29289C6.48043 4.10536 6.73478 4 7 4C7.26522 4 7.51957 4.10536 7.70711 4.29289C7.89464 4.48043 8 4.73478 8 5C8 5.26522 7.89464 5.51957 7.70711 5.70711C7.51957 5.89464 7.26522 6 7 6C6.73478 6 6.48043 5.89464 6.29289 5.70711C6.10536 5.51957 6 5.26522 6 5C6 4.73478 6.10536 4.48043 6.29289 4.29289Z" fill="black"/>
<path d="M10 4C9.73478 4 9.48043 4.10536 9.29289 4.29289C9.10536 4.48043 9 4.73478 9 5C9 5.26522 9.10536 5.51957 9.29289 5.70711C9.48043 5.89464 9.73478 6 10 6C10.2652 6 10.5196 5.89464 10.7071 5.70711C10.8946 5.51957 11 5.26522 11 5C11 4.73478 10.8946 4.48043 10.7071 4.29289C10.5196 4.10536 10.2652 4 10 4Z" fill="black"/>
<path d="M5.14645 11.6464C5.34171 11.4512 5.65829 11.4512 5.85355 11.6464L8.35355 14.1464C8.54882 14.3417 8.54882 14.6583 8.35355 14.8536L5.85355 17.3536C5.65829 17.5488 5.34171 17.5488 5.14645 17.3536C4.95118 17.1583 4.95118 16.8417 5.14645 16.6464L7.29289 14.5L5.14645 12.3536C4.95118 12.1583 4.95118 11.8417 5.14645 11.6464Z" fill="black"/>
<path d="M11.5 14C11.2239 14 11 14.2239 11 14.5C11 14.7761 11.2239 15 11.5 15H15.5C15.7761 15 16 14.7761 16 14.5C16 14.2239 15.7761 14 15.5 14H11.5Z" fill="black"/>
<path fill-rule="evenodd" clip-rule="evenodd" d="M0 4.5V19.5C0 20.8801 1.11986 22 2.5 22H21.5C22.8813 22 24 20.88 24 19.5V4.5C24 3.12002 22.8813 2 21.5 2H2.5C1.11986 2 0 3.11986 0 4.5ZM2.5 3C1.67214 3 1 3.67214 1 4.5V7H23V4.5C23 3.67198 22.3287 3 21.5 3H2.5ZM23 19.5V8H1V19.5C1 20.3279 1.67214 21 2.5 21H21.5C22.3287 21 23 20.328 23 19.5Z" fill="black"/>
</svg>
