<svg width="24" height="24" viewBox="0 0 24 24" fill="none" xmlns="http://www.w3.org/2000/svg">
<path d="M23.5 7H19.5C18.981 7 18.489 7.198 18.132 7.541L15.312 10H8.00001V7.117C8.42601 6.258 8.76301 5.592 9.02401 5.075C9.85101 3.443 10 3.149 10 2.5C10 1.121 8.87801 0 7.50001 0C6.12201 0 5.00001 1.121 5.00001 2.5C5.00001 3.154 5.14901 3.449 5.98001 5.086C6.24101 5.602 6.57601 6.264 7.00001 7.117V10H5.00001V7.5C5.00001 7.298 4.87801 7.115 4.69101 7.038C4.50401 6.962 4.29001 7.003 4.14601 7.146L1.14601 10.146C0.951006 10.341 0.951006 10.658 1.14601 10.853L4.14601 13.853C4.24201 13.949 4.37001 14 4.50001 14C4.56401 14 4.62901 13.987 4.69101 13.962C4.87801 13.885 5.00001 13.702 5.00001 13.5V11H7.00001V13.383C6.57501 14.24 6.23901 14.903 5.97801 15.419C5.14901 17.052 5.00001 17.347 5.00001 18C5.00001 19.379 6.12201 20.5 7.50001 20.5C8.87801 20.5 10 19.379 10 18C10 17.351 9.85101 17.057 9.02401 15.425C8.76301 14.908 8.42601 14.242 8.00001 13.383V11H12V23.5C12 23.776 12.224 24 12.5 24C12.776 24 13 23.776 13 23.5V11H15.313L18.071 13.398C18.451 13.786 18.958 14 19.5 14H23.5C23.776 14 24 13.776 24 13.5V7.5C24 7.224 23.776 7 23.5 7ZM6.00001 2.5C6.00001 1.673 6.67301 1 7.50001 1C8.32701 1 9.00001 1.673 9.00001 2.5C9.00001 2.897 8.91401 3.08 8.13201 4.623C7.95701 4.971 7.74801 5.384 7.50001 5.878C7.25401 5.389 7.04701 4.979 6.87201 4.634C6.08601 3.085 6.00001 2.901 6.00001 2.5ZM4.00001 12.293L2.20701 10.5L4.00001 8.707V12.293ZM9.00001 18C9.00001 18.827 8.32701 19.5 7.50001 19.5C6.67301 19.5 6.00001 18.827 6.00001 18C6.00001 17.599 6.08601 17.416 6.87001 15.871C7.04601 15.524 7.25401 15.113 7.50001 14.622C7.74801 15.116 7.95701 15.529 8.13201 15.877C8.91401 17.42 9.00001 17.603 9.00001 18ZM23 13H19.5C19.229 13 18.976 12.894 18.757 12.672L16.261 10.5L18.807 8.278C18.994 8.099 19.24 8 19.5 8H23V13Z" fill="black"/>
</svg>
