<svg width="24" height="24" viewBox="0 0 24 24" fill="none" xmlns="http://www.w3.org/2000/svg">
<path fill-rule="evenodd" clip-rule="evenodd" d="M4 2V11.5H11.5V2H4ZM5 10.5V3H10.5V10.5H5Z" fill="black"/>
<path fill-rule="evenodd" clip-rule="evenodd" d="M12.5 2V11.5H20V2H12.5ZM13.5 10.5V3H19V10.5H13.5Z" fill="black"/>
<path fill-rule="evenodd" clip-rule="evenodd" d="M4 12.5V22H11.5V12.5H4ZM5 21V13.5H10.5V21H5Z" fill="black"/>
<path fill-rule="evenodd" clip-rule="evenodd" d="M12.5 12.5V22H20V12.5H12.5ZM13.5 21V13.5H19V21H13.5Z" fill="black"/>
<path fill-rule="evenodd" clip-rule="evenodd" d="M2.5 0C2.22386 0 2 0.223858 2 0.5V23.5C2 23.7761 2.22386 24 2.5 24H21.5C21.7761 24 22 23.7761 22 23.5V0.5C22 0.223858 21.7761 0 21.5 0H2.5ZM3 23V1H21V23H3Z" fill="black"/>
</svg>
