<svg width="24" height="24" viewBox="0 0 24 24" fill="none" xmlns="http://www.w3.org/2000/svg">
<path fill-rule="evenodd" clip-rule="evenodd" d="M4 2.5C4 2.22386 4.22386 2 4.5 2H11C11.2761 2 11.5 2.22386 11.5 2.5V11C11.5 11.2761 11.2761 11.5 11 11.5H4.5C4.22386 11.5 4 11.2761 4 11V2.5ZM5 3V10.5H10.5V3H5Z" fill="black"/>
<path fill-rule="evenodd" clip-rule="evenodd" d="M12.5 2.5C12.5 2.22386 12.7239 2 13 2H19.5C19.7761 2 20 2.22386 20 2.5V11C20 11.2761 19.7761 11.5 19.5 11.5H13C12.7239 11.5 12.5 11.2761 12.5 11V2.5ZM13.5 3V10.5H19V3H13.5Z" fill="black"/>
<path fill-rule="evenodd" clip-rule="evenodd" d="M4.5 12.5C4.22386 12.5 4 12.7239 4 13V21.5C4 21.7761 4.22386 22 4.5 22H11C11.2761 22 11.5 21.7761 11.5 21.5V13C11.5 12.7239 11.2761 12.5 11 12.5H4.5ZM5 21V13.5H10.5V21H5Z" fill="black"/>
<path fill-rule="evenodd" clip-rule="evenodd" d="M12.5 13C12.5 12.7239 12.7239 12.5 13 12.5H19.5C19.7761 12.5 20 12.7239 20 13V21.5C20 21.7761 19.7761 22 19.5 22H13C12.7239 22 12.5 21.7761 12.5 21.5V13ZM13.5 13.5V21H19V13.5H13.5Z" fill="black"/>
<path fill-rule="evenodd" clip-rule="evenodd" d="M2.5 0C2.22386 0 2 0.223858 2 0.5V23H0.5C0.223858 23 0 23.2239 0 23.5C0 23.7761 0.223858 24 0.5 24H23.5C23.7761 24 24 23.7761 24 23.5C24 23.2239 23.7761 23 23.5 23H22V0.5C22 0.223858 21.7761 0 21.5 0H2.5ZM21 23H3V1H21V23Z" fill="black"/>
</svg>
