<svg width="24" height="24" viewBox="0 0 24 24" fill="none" xmlns="http://www.w3.org/2000/svg">
<path d="M3 2V1H21V2H22V0.5C22 0.223858 21.7761 0 21.5 0H2.5C2.22386 0 2 0.223858 2 0.5V2H3Z" fill="black"/>
<path fill-rule="evenodd" clip-rule="evenodd" d="M4 5C3.85927 5 3.72506 5.0593 3.63031 5.16335C3.53556 5.2674 3.48905 5.40656 3.50218 5.54667L5.00218 21.5467C5.02627 21.8036 5.24194 22 5.5 22H18.5C18.7581 22 18.9737 21.8036 18.9978 21.5467L20.4978 5.54667C20.511 5.40656 20.4644 5.2674 20.3697 5.16335C20.2749 5.0593 20.1407 5 20 5H4ZM5.95532 21L4.54907 6H19.4509L18.0447 21H5.95532Z" fill="black"/>
<path fill-rule="evenodd" clip-rule="evenodd" d="M1.1284 3.16546C1.22322 3.06014 1.35828 3 1.5 3H22.5C22.6417 3 22.7768 3.06014 22.8716 3.16546C22.9664 3.27079 23.0121 3.4114 22.9973 3.55234L20.9973 23.5523C20.9705 23.8068 20.7559 24 20.5 24H3.5C3.24412 24 3.02954 23.8068 3.00275 23.5523L1.00275 3.55234C0.987914 3.4114 1.03358 3.27079 1.1284 3.16546ZM2.0554 4L3.95013 23H20.0499L21.9446 4H2.0554Z" fill="black"/>
</svg>
