<svg width="24" height="24" viewBox="0 0 24 24" fill="none" xmlns="http://www.w3.org/2000/svg">
<g clip-path="url(#clip0_321_16898)">
<path d="M22.1935 21.789L20.2205 22.118L19.3055 16.643C21.4765 16.024 22.8985 13.871 22.5095 11.552L21.0335 5.82703C21.0331 5.81731 21.0341 5.80794 21.0351 5.79862C21.0364 5.78591 21.0378 5.7733 21.0355 5.76003C21.0255 5.70303 21.0025 5.65403 20.9755 5.60703L19.6265 0.37503C19.5625 0.12403 19.3135 -0.0389696 19.0605 0.00703038L14.7025 0.73603C14.4305 0.78203 14.2455 1.03903 14.2915 1.31103C14.3375 1.58303 14.5985 1.76903 14.8665 1.72203L18.7725 1.06903L19.9015 5.44303L16.1705 6.06703C15.8985 6.11303 15.7135 6.37003 15.7595 6.64303C15.8005 6.88803 16.0125 7.06003 16.2515 7.06003C16.2785 7.06003 16.3075 7.05803 16.3345 7.05303L20.1525 6.41503L21.5315 11.76C21.8485 13.664 20.5585 15.471 18.6555 15.789C17.7345 15.944 16.8065 15.728 16.0455 15.185C15.2845 14.642 14.7805 13.835 14.6275 12.914C14.5815 12.642 14.3165 12.456 14.0525 12.503C13.7805 12.549 13.5955 12.807 13.6415 13.078C13.8385 14.264 14.4875 15.301 15.4645 16C16.2355 16.551 17.1405 16.838 18.0685 16.838C18.1178 16.838 18.1678 16.8324 18.2177 16.8267C18.2518 16.8229 18.2858 16.8191 18.3195 16.817L19.2335 22.283L17.2605 22.613C16.9885 22.658 16.8035 22.917 16.8495 23.188C16.8905 23.433 17.1025 23.606 17.3415 23.606C17.3685 23.606 17.3975 23.604 17.4245 23.599L22.3565 22.775C22.6285 22.73 22.8135 22.472 22.7675 22.199C22.7215 21.926 22.4595 21.739 22.1935 21.789Z" fill="black"/>
<path d="M9.2615 8.98702C9.1805 9.17802 8.9955 9.29102 8.8015 9.29102C8.7365 9.29102 8.6705 9.27802 8.6055 9.25102C8.3515 9.14202 8.2335 8.84902 8.3415 8.59502C8.4225 8.40502 8.6075 8.29102 8.8025 8.29102C8.8675 8.29102 8.9345 8.30402 8.9975 8.33102C9.2525 8.43902 9.3695 8.73402 9.2615 8.98702Z" fill="black"/>
<path d="M6.70549 10.656C6.77049 10.656 6.83749 10.67 6.90049 10.697C7.15449 10.806 7.27149 11.1 7.16449 11.354C7.08249 11.544 6.89749 11.658 6.70349 11.658C6.63949 11.658 6.57249 11.644 6.50849 11.617C6.25349 11.507 6.13649 11.214 6.24449 10.96C6.32549 10.771 6.51149 10.656 6.70549 10.656Z" fill="black"/>
<path d="M6.6665 13.8711C6.6025 13.8441 6.5355 13.8311 6.4705 13.8311C6.2765 13.8311 6.0915 13.9441 6.0105 14.1341C5.9025 14.3891 6.0195 14.6821 6.2735 14.7911C6.3375 14.8191 6.4045 14.8321 6.4695 14.8321C6.6635 14.8321 6.8485 14.7181 6.9295 14.5281C7.0385 14.2731 6.9205 13.9791 6.6665 13.8711Z" fill="black"/>
<path d="M9.0705 12.7539C9.1355 12.7539 9.2025 12.7679 9.2655 12.7949C9.5205 12.9039 9.6375 13.1979 9.5295 13.4509C9.4485 13.6409 9.2635 13.7549 9.0695 13.7549C9.0045 13.7549 8.9375 13.7409 8.8735 13.7139C8.6195 13.6059 8.5015 13.3119 8.6105 13.0579C8.6905 12.8689 8.8765 12.7539 9.0705 12.7539Z" fill="black"/>
<path d="M11.3645 10.4289C11.3015 10.4019 11.2345 10.3879 11.1695 10.3879C10.9755 10.3879 10.7895 10.5019 10.7085 10.6919C10.6005 10.9459 10.7185 11.2399 10.9725 11.3479C11.0365 11.3749 11.1035 11.3889 11.1695 11.3889C11.3625 11.3889 11.5475 11.2749 11.6285 11.0849C11.7365 10.8329 11.6185 10.5379 11.3645 10.4289Z" fill="black"/>
<path fill-rule="evenodd" clip-rule="evenodd" d="M10.1055 0.647879L15.6235 3.00588C15.8615 3.10788 15.9825 3.37588 15.9015 3.62088L12.3025 14.5889C11.5795 16.2889 9.9545 17.3619 8.1475 17.3619C7.7085 17.3619 7.2805 17.2759 6.8615 17.1499L4.6815 22.2539L6.5205 23.0399C6.7745 23.1479 6.8925 23.4419 6.7845 23.6959C6.7035 23.8869 6.5185 23.9999 6.3245 23.9999C6.2585 23.9999 6.1915 23.9869 6.1285 23.9599L1.5295 21.9959C1.2755 21.8879 1.1575 21.5939 1.2655 21.3399C1.3735 21.0859 1.6685 20.9679 1.9215 21.0759L3.7615 21.8619L5.9415 16.7589C5.0555 16.2589 4.3575 15.4959 3.9735 14.5379C3.5265 13.4229 3.5385 12.1999 4.0115 11.0949L9.4675 0.872879C9.5905 0.642879 9.8695 0.546879 10.1055 0.647879ZM8.1475 16.3629C9.5535 16.3629 10.8175 15.5289 11.3685 14.2369L13.0885 8.99088L7.5345 6.61788L4.9135 11.5259C4.5645 12.3469 4.5535 13.2979 4.9015 14.1659C5.2505 15.0339 5.9155 15.7139 6.7745 16.0809C7.2125 16.2679 7.6755 16.3629 8.1475 16.3629ZM8.0065 5.73288L13.4015 8.03788L14.8085 3.74588L10.1345 1.74888L8.0065 5.73288Z" fill="black"/>
<path d="M20.3805 10.939C20.4265 11.212 20.2415 11.469 19.9695 11.515C19.9415 11.52 19.9145 11.521 19.8865 11.522C19.6465 11.522 19.4345 11.349 19.3945 11.104C19.3485 10.833 19.5325 10.574 19.8055 10.529C19.8335 10.524 19.8615 10.522 19.8885 10.522C20.1285 10.522 20.3395 10.695 20.3805 10.939Z" fill="black"/>
<path d="M18.4075 7.72803C18.3805 7.72803 18.3525 7.73003 18.3245 7.73503C18.0525 7.78003 17.8685 8.03903 17.9145 8.31003C17.9545 8.55403 18.1665 8.72703 18.4055 8.72703C18.4335 8.72703 18.4615 8.72503 18.4895 8.72003C18.7615 8.67503 18.9455 8.41703 18.9005 8.14503C18.8595 7.90103 18.6475 7.72803 18.4075 7.72803Z" fill="black"/>
<path d="M18.8735 14.2429C18.8285 13.9709 19.0125 13.7139 19.2845 13.6679C19.3125 13.6629 19.3395 13.6609 19.3685 13.6609C19.6075 13.6609 19.8195 13.8339 19.8595 14.0779C19.9055 14.3499 19.7215 14.6079 19.4495 14.6539C19.4215 14.6589 19.3935 14.6609 19.3665 14.6609C19.1255 14.6609 18.9145 14.4879 18.8735 14.2429Z" fill="black"/>
<path d="M17.1755 12.995C17.4475 12.95 17.6315 12.692 17.5865 12.42C17.5455 12.176 17.3335 12.002 17.0935 12.002C17.0665 12.002 17.0375 12.004 17.0105 12.009C16.7385 12.055 16.5545 12.313 16.5995 12.585C16.6405 12.83 16.8525 13.003 17.0915 13.003C17.1205 13.002 17.1475 13 17.1755 12.995Z" fill="black"/>
<path d="M15.6125 10.208C15.3715 10.208 15.1605 10.035 15.1195 9.79001C15.0745 9.51901 15.2575 9.26001 15.5305 9.21501C15.5585 9.21001 15.5865 9.20801 15.6135 9.20801C15.8535 9.20801 16.0655 9.38101 16.1055 9.62501C16.1515 9.89801 15.9675 10.155 15.6955 10.201C15.6675 10.206 15.6395 10.208 15.6125 10.208Z" fill="black"/>
</g>
<defs>
<clipPath id="clip0_321_16898">
<rect width="24" height="24" fill="white"/>
</clipPath>
</defs>
</svg>
