<svg width="24" height="24" viewBox="0 0 24 24" fill="none" xmlns="http://www.w3.org/2000/svg">
<g clip-path="url(#clip0_321_16903)">
<path d="M21.6081 0.162119C21.4131 -0.0328809 21.0961 -0.0328809 20.9011 0.162119L18.7801 2.28312L17.0121 4.05112C16.0981 4.96512 15.8901 4.96512 14.8901 4.96512C13.8291 4.96512 11.8551 4.96512 10.2941 6.52612L5.82005 11.0001H3.83105C2.17705 11.0001 0.831055 12.3461 0.831055 14.0001C0.831055 15.6541 2.17705 17.0001 3.83105 17.0001H4.69005L6.34505 23.6211C6.40105 23.8441 6.60205 24.0001 6.83105 24.0001H15.8311C16.0601 24.0001 16.2611 23.8441 16.3161 23.6211L17.9721 17.0001H18.8311C20.4851 17.0001 21.8311 15.6541 21.8311 14.0001C21.8311 12.3461 20.4851 11.0001 18.8311 11.0001H17.8301C18.1961 9.97212 18.2201 8.98112 18.2201 8.29312C18.2201 7.29412 18.2201 7.08612 19.1341 6.17312L23.0231 2.28312C23.1171 2.18812 23.1691 2.06112 23.1691 1.92912C23.1691 1.79612 23.1161 1.67012 23.0231 1.57512L21.6081 0.162119ZM21.2551 1.22312L21.9621 1.93012L21.0201 2.87312L20.5481 3.34412L19.8411 2.63712L21.2551 1.22312ZM9.94105 8.29312L12.6481 11.0001H7.23405L9.94105 8.29312ZM3.83105 16.0001C2.72805 16.0001 1.83105 15.1031 1.83105 14.0001C1.83105 13.0271 2.52905 12.2171 3.45005 12.0391L4.44005 16.0001H3.83105ZM20.8311 14.0001C20.8311 15.1031 19.9341 16.0001 18.8311 16.0001H18.2221L19.2121 12.0391C20.1331 12.2171 20.8311 13.0271 20.8311 14.0001ZM15.4401 23.0001H7.22205L4.47205 12.0001H18.1911L15.4401 23.0001ZM18.4271 5.46512C17.2791 6.61312 17.2201 7.08812 17.2201 8.29312C17.2201 9.02712 17.2111 10.0251 16.7661 11.0001H14.0631L10.6491 7.58612L11.0031 7.23212C12.2711 5.96412 13.8481 5.96412 14.8921 5.96412C16.0971 5.96412 16.5731 5.90512 17.7211 4.75712L19.1351 3.34312L19.8421 4.05012L18.4271 5.46512Z" fill="black"/>
</g>
<defs>
<clipPath id="clip0_321_16903">
<rect width="24" height="24" fill="white"/>
</clipPath>
</defs>
</svg>
