<svg width="24" height="24" viewBox="0 0 24 24" fill="none" xmlns="http://www.w3.org/2000/svg">
<path fill-rule="evenodd" clip-rule="evenodd" d="M9 10.5C9.827 10.5 10.5 9.827 10.5 9C10.5 8.173 9.827 7.5 9 7.5C8.173 7.5 7.5 8.173 7.5 9C7.5 9.827 8.173 10.5 9 10.5ZM9 8.5C9.275 8.5 9.5 8.724 9.5 9C9.5 9.276 9.275 9.5 9 9.5C8.725 9.5 8.5 9.276 8.5 9C8.5 8.724 8.725 8.5 9 8.5Z" fill="black"/>
<path fill-rule="evenodd" clip-rule="evenodd" d="M4 21.5C4 22.878 5.121 24 6.5 24H12C12.276 24 12.5 23.776 12.5 23.5C12.5 23.224 12.276 23 12 23H6.5C5.673 23 5 22.327 5 21.5V21H11.5C11.776 21 12 20.776 12 20.5C12 20.224 11.776 20 11.5 20H5V16H11.5C11.776 16 12 15.776 12 15.5C12 15.224 11.776 15 11.5 15H5.018C5.057 13.59 5.422 12.156 6.092 10.721L6.153 10.807C6.814 11.751 7.854 12.294 9.007 12.298H9.021C10.167 12.298 11.207 11.763 11.872 10.827L12.419 10.058C12.4286 10.0453 12.4337 10.0309 12.4387 10.0167C12.4415 10.0086 12.4444 10.0006 12.448 9.993L12.456 9.97774C12.4704 9.95024 12.4846 9.92325 12.493 9.892C12.499 9.86955 12.4999 9.84654 12.5009 9.82381C12.5012 9.81619 12.5015 9.80853 12.502 9.801C12.5025 9.79332 12.5031 9.7857 12.5037 9.77809C12.5058 9.753 12.5078 9.72809 12.504 9.702C12.5011 9.67722 12.4923 9.65351 12.4835 9.62969L12.4768 9.61103L12.474 9.603C12.4702 9.59281 12.4678 9.58226 12.4654 9.57165C12.4622 9.55728 12.4589 9.54281 12.452 9.529C11.487 7.759 11 5.98 11 4.242V0.5C11 0.224 10.776 0 10.5 0H7.5C7.224 0 7 0.224 7 0.5V3.868C7 5.826 6.506 7.772 5.57 9.493C4.528 11.413 4 13.352 4 15.258V21.5ZM10 1V2H8V1H10ZM8 3.868V3H10V4.242C10 6.053 10.492 7.893 11.433 9.717L11.056 10.247C10.58 10.916 9.838 11.298 9.019 11.298H9.01C8.187 11.295 7.444 10.907 6.971 10.233L6.584 9.681C7.502 7.884 8 5.886 8 3.868Z" fill="black"/>
<path d="M18 15.5C18 15.7761 17.7761 16 17.5 16C17.2239 16 17 15.7761 17 15.5C17 15.2239 17.2239 15 17.5 15C17.7761 15 18 15.2239 18 15.5Z" fill="black"/>
<path d="M16 17.5C16.2761 17.5 16.5 17.2761 16.5 17C16.5 16.7239 16.2761 16.5 16 16.5C15.7239 16.5 15.5 16.7239 15.5 17C15.5 17.2761 15.7239 17.5 16 17.5Z" fill="black"/>
<path fill-rule="evenodd" clip-rule="evenodd" d="M18.995 9.429L19.995 16.429C20 18.252 18.691 19.704 17 19.949V23H19C19.276 23 19.5 23.224 19.5 23.5C19.5 23.776 19.276 24 19 24H14C13.724 24 13.5 23.776 13.5 23.5C13.5 23.224 13.724 23 14 23H16V19.95C14.309 19.704 13 18.259 13 16.5L14.005 9.429C14.04 9.184 14.251 9 14.5 9H18.5C18.749 9 18.96 9.184 18.995 9.429ZM18.497 13L18.066 10H14.934L14.505 13H18.497ZM14.362 14L13.995 16.571C14 17.878 15.121 19 16.5 19C17.879 19 19 17.878 19 16.5L18.64 14H14.362Z" fill="black"/>
</svg>
