<svg width="24" height="24" viewBox="0 0 24 24" fill="none" xmlns="http://www.w3.org/2000/svg">
<g clip-path="url(#clip0_321_16875)">
<path fill-rule="evenodd" clip-rule="evenodd" d="M23.854 1.64612L22.354 0.146117C22.182 -0.0248827 21.912 -0.0488827 21.715 0.0891173L18.174 2.54812C18.052 2.63212 17.975 2.76712 17.961 2.91412C17.948 3.06112 18.001 3.20712 18.106 3.31212L19.044 4.24812L9.07298 14.2191L7.30498 12.4511C7.10998 12.2561 6.79298 12.2561 6.59798 12.4511C6.40298 12.6461 6.40298 12.9631 6.59798 13.1581L7.30398 13.8651L1.08598 20.0851C0.707977 20.4641 0.499977 20.9671 0.499977 21.5001C0.499977 22.0351 0.707977 22.5371 1.08498 22.9131C1.46198 23.2921 1.96398 23.5001 2.49898 23.5001C3.03398 23.5001 3.53598 23.2921 3.91398 22.9131L10.131 16.6951L10.838 17.4021C10.936 17.5001 11.064 17.5481 11.192 17.5481C11.32 17.5481 11.448 17.4991 11.546 17.4021C11.741 17.2061 11.741 16.8901 11.546 16.6951L9.77898 14.9281L19.751 4.95612L20.581 5.78612C20.675 5.88012 20.803 5.93212 20.935 5.93212C20.947 5.93212 20.958 5.93212 20.971 5.93112C21.116 5.92112 21.248 5.84812 21.335 5.73212L23.9 2.29912C24.049 2.10012 24.029 1.82312 23.854 1.64612ZM3.20698 22.2071C2.82898 22.5851 2.17098 22.5881 1.79298 22.2071C1.60398 22.0181 1.49998 21.7671 1.49998 21.5001C1.49998 21.2331 1.60398 20.9821 1.79298 20.7931L8.00998 14.5741L9.42398 15.9881L3.20698 22.2071ZM20.879 4.67112L19.235 3.02912L21.942 1.14912L22.839 2.04712L20.879 4.67112Z" fill="black"/>
<path d="M5.89898 8.78902L9.41598 12.298L10.123 11.59L6.37698 7.85302C6.23198 7.70902 6.01698 7.66703 5.82798 7.74703C4.49998 8.31003 2.99198 8.02302 1.98798 7.01902C1.16698 6.19702 0.819977 5.04902 1.02298 3.94502L2.49998 5.36102C2.59298 5.45103 2.71698 5.50002 2.84598 5.50002H4.99998C5.27598 5.50002 5.49998 5.27602 5.49998 5.00002V2.93402C5.49998 2.80502 5.44998 2.68102 5.35998 2.58802L3.89998 1.06602C4.99798 0.862025 6.10998 1.20602 6.93698 2.03202C7.94998 3.04402 8.24298 4.55202 7.68298 5.87302C7.60398 6.06103 7.64698 6.27802 7.79098 6.42202L11.536 10.165L12.243 9.45802L8.72698 5.94302C9.27398 4.32502 8.86598 2.54602 7.64498 1.32502C6.33698 0.019025 4.47198 -0.349975 2.78198 0.365025C2.63098 0.429025 2.52098 0.563025 2.48698 0.724025C2.45298 0.885025 2.50198 1.05302 2.61598 1.17102L4.49998 3.13502V4.50002H3.04698L1.12698 2.65902C1.00898 2.54602 0.839977 2.49602 0.680977 2.53102C0.519977 2.56402 0.384977 2.67402 0.319977 2.82502C-0.391023 4.50702 -0.0140232 6.43102 1.28098 7.72502C2.49398 8.94102 4.27498 9.34202 5.89898 8.78902Z" fill="black"/>
<path d="M14.366 11.5811L17.883 15.0991C19.503 14.5501 21.28 14.9601 22.502 16.1841C23.804 17.4851 24.181 19.4231 23.463 21.1201C23.4 21.2701 23.267 21.3801 23.108 21.4141C22.947 21.4461 22.783 21.4031 22.664 21.2921L20.653 19.4361H19.348V20.7341L21.243 22.6991C21.357 22.8171 21.405 22.9851 21.373 23.1461C21.34 23.3081 21.229 23.4421 21.077 23.5061C20.505 23.7481 19.906 23.8661 19.313 23.8661C18.145 23.8661 17.002 23.4091 16.139 22.5471C14.918 21.3261 14.511 19.5461 15.057 17.9291L11.538 14.4091L12.245 13.7021L15.992 17.4501C16.135 17.5941 16.178 17.8101 16.099 17.9981C15.539 19.3191 15.832 20.8261 16.845 21.8391C17.673 22.6661 18.826 23.0131 19.955 22.8051L18.486 21.2821C18.396 21.1891 18.346 21.0651 18.346 20.9351V18.9351C18.346 18.6591 18.57 18.4351 18.846 18.4351H20.846C20.972 18.4351 21.093 18.4831 21.185 18.5681L22.756 20.0181C22.973 18.8941 22.627 17.7241 21.793 16.8901C20.781 15.8761 19.271 15.5821 17.953 16.1421C17.762 16.2221 17.548 16.1791 17.404 16.0361L13.659 12.2881L14.366 11.5811Z" fill="black"/>
</g>
<defs>
<clipPath id="clip0_321_16875">
<rect width="24" height="24" fill="white"/>
</clipPath>
</defs>
</svg>
