<svg width="24" height="24" viewBox="0 0 24 24" fill="none" xmlns="http://www.w3.org/2000/svg">
<path d="M23.0729 3.95989C22.9999 3.81689 22.8639 3.71889 22.7059 3.69389C22.5479 3.66789 22.3879 3.71989 22.2749 3.83289L19.1099 6.98789H17.1519V4.88289L20.2389 1.71689C20.3499 1.60289 20.3999 1.44389 20.3739 1.28689C20.3489 1.12989 20.2499 0.994886 20.1079 0.922886C17.4219 -0.451114 14.0599 0.0768859 11.9309 2.20489C9.85591 4.27989 9.28991 7.37289 10.4699 10.0089L0.892912 19.5769C0.420912 20.0509 0.159912 20.6809 0.159912 21.3499C0.159912 22.0159 0.418912 22.6419 0.889912 23.1109C1.36191 23.5839 1.98991 23.8439 2.65591 23.8439C3.32291 23.8439 3.94991 23.5839 4.42291 23.1109L13.9879 13.5439C16.6299 14.7289 19.7239 14.1719 21.7909 12.1059C23.9469 9.94789 24.4619 6.67389 23.0729 3.95989ZM21.0839 11.3979C19.2389 13.2429 16.4379 13.6849 14.1129 12.4949C13.9219 12.3969 13.6859 12.4329 13.5319 12.5869L3.71591 22.4039C3.14991 22.9709 2.16591 22.9729 1.59691 22.4039C1.01391 21.8209 1.01291 20.8739 1.60191 20.2849L11.4289 10.4659C11.5819 10.3129 11.6189 10.0779 11.5209 9.88389C10.3349 7.56889 10.7849 4.76589 12.6399 2.91189C13.7859 1.76589 15.3489 1.16189 16.9239 1.16189C17.6329 1.16189 18.3439 1.28489 19.0209 1.53489L16.2949 4.32989C16.2039 4.42389 16.1529 4.54889 16.1529 4.67889V7.48789C16.1529 7.76489 16.3769 7.98789 16.6529 7.98789H19.3169C19.4489 7.98789 19.5759 7.93489 19.6699 7.84189L22.4659 5.05489C23.2829 7.24089 22.7659 9.71589 21.0839 11.3979Z" fill="black"/>
</svg>
