<?xml version="1.0" encoding="iso-8859-1"?>
<!-- Generator: Adobe Illustrator 18.0.0, SVG Export Plug-In . SVG Version: 6.00 Build 0)  -->
<!DOCTYPE svg PUBLIC "-//W3C//DTD SVG 1.1//EN" "http://www.w3.org/Graphics/SVG/1.1/DTD/svg11.dtd">
<svg version="1.1" id="Ebene_1" xmlns="http://www.w3.org/2000/svg" xmlns:xlink="http://www.w3.org/1999/xlink" x="0px" y="0px"
	 viewBox="0 0 32 32" style="enable-background:new 0 0 32 32;" xml:space="preserve">
<path d="M25.7,4H6.2C5,4,4,5,4,6.2v19.5C4,27,5,28,6.2,28h19.5c1.2,0,2.3-1,2.3-2.2V6.2C28,5,27,4,25.7,4z M13,21H9.4
	c-0.6,0-1-0.4-1-1c0-0.6,0.4-1,1-1H13c0.6,0,1,0.4,1,1C14,20.6,13.6,21,13,21z M17,14c0,0.6-0.4,1-1,1c-0.6,0-1-0.4-1-1v-3.8
	c0-0.6,0.4-1,1-1c0.6,0,1,0.4,1,1V14z M22.5,21H19c-0.6,0-1-0.4-1-1c0-0.6,0.4-1,1-1h3.6c0.6,0,1,0.4,1,1C23.6,20.6,23.1,21,22.5,21
	z"/>
</svg>
