<?xml version="1.0" encoding="iso-8859-1"?>
<!-- Generator: Adobe Illustrator 18.0.0, SVG Export Plug-In . SVG Version: 6.00 Build 0)  -->
<!DOCTYPE svg PUBLIC "-//W3C//DTD SVG 1.1//EN" "http://www.w3.org/Graphics/SVG/1.1/DTD/svg11.dtd">
<svg version="1.1" id="Ebene_1" xmlns="http://www.w3.org/2000/svg" xmlns:xlink="http://www.w3.org/1999/xlink" x="0px" y="0px"
	 viewBox="0 0 32 32" style="enable-background:new 0 0 32 32;" xml:space="preserve">
<path d="M7.6,12.6c0.2,0.2,0.2,0.4,0,0.6c-0.9,0.9-1.4,2.1-1.4,3.3c0,1.3,0.5,2.4,1.4,3.3c0.2,0.2,0.2,0.4,0,0.6l-0.1,0.1
	c-0.2,0.2-0.4,0.2-0.6,0c-1.1-1-1.7-2.5-1.7-4c0-1.5,0.6-3,1.7-4C7,12.4,7.3,12.4,7.6,12.6L7.6,12.6z M5.9,10.9
	c0.2,0.2,0.2,0.4,0,0.6c-1.3,1.3-2,3.1-2,5c0,1.9,0.7,3.7,2,5c0.2,0.2,0.2,0.4,0,0.6l0,0c-0.2,0.2-0.4,0.2-0.6,0
	c-1.5-1.5-2.3-3.5-2.3-5.6c0-2.1,0.8-4.1,2.3-5.6C5.4,10.7,5.7,10.7,5.9,10.9L5.9,10.9z M24.3,20.4c-0.2-0.2-0.2-0.4,0-0.6
	c0.9-0.9,1.4-2.1,1.4-3.3c0-1.3-0.5-2.4-1.4-3.3c-0.2-0.2-0.2-0.4,0-0.6l0.1-0.1c0.2-0.2,0.4-0.2,0.6,0c1.1,1,1.7,2.5,1.7,4
	c0,1.5-0.6,3-1.7,4C24.8,20.7,24.6,20.7,24.3,20.4L24.3,20.4z M26,22.1c-0.2-0.2-0.2-0.4,0-0.6c1.3-1.3,2-3.1,2-5c0-1.9-0.7-3.7-2-5
	c-0.2-0.2-0.2-0.4,0-0.6l0,0c0.2-0.2,0.4-0.2,0.6,0c1.5,1.5,2.3,3.5,2.3,5.6c0,2.1-0.8,4.1-2.3,5.6C26.5,22.3,26.2,22.3,26,22.1
	L26,22.1z M22.3,15.7l-2.7-2l-2.1-3.9c-0.1-0.3-0.4-0.5-0.7-0.5L15.6,9c-0.3-0.1-0.6,0-0.9,0.2l-3.9,3.4c-0.2,0.1-0.3,0.3-0.3,0.5
	l-1,4.1c-0.1,0.5,0.2,1.1,0.8,1.2c0.1,0,0.2,0,0.2,0c0.5,0,0.9-0.3,1-0.8l0.9-3.8l1.2-1.1l-2.2,9.5l-2.6,4.2
	c-0.4,0.6-0.2,1.5,0.4,1.9c0.6,0.4,1.5,0.2,1.9-0.4l2.7-4.4c0.1-0.1,0.1-0.3,0.2-0.4l0.7-3l2.5,2.8l0.9,4.6c0.1,0.6,0.7,1.1,1.3,1.1
	c0.1,0,0.2,0,0.3,0c0.7-0.1,1.2-0.9,1.1-1.6l-1-4.9c0-0.2-0.2-0.5-0.3-0.6l-2.8-3.2l0.4-4.8l0.7,1.3c0.1,0.1,0.2,0.3,0.3,0.3
	l2.9,2.1c0.5,0.3,1.1,0.2,1.4-0.2C22.8,16.6,22.7,16,22.3,15.7z M17.3,8.6c1.4,0,2.5-1.1,2.5-2.5c0-1.4-1.1-2.5-2.5-2.5
	c-1.4,0-2.5,1.1-2.5,2.5C14.8,7.4,15.9,8.6,17.3,8.6z"/>
</svg>
