<?xml version="1.0" encoding="iso-8859-1"?>
<!-- Generator: Adobe Illustrator 18.0.0, SVG Export Plug-In . SVG Version: 6.00 Build 0)  -->
<!DOCTYPE svg PUBLIC "-//W3C//DTD SVG 1.1//EN" "http://www.w3.org/Graphics/SVG/1.1/DTD/svg11.dtd">
<svg version="1.1" id="Ebene_1" xmlns="http://www.w3.org/2000/svg" xmlns:xlink="http://www.w3.org/1999/xlink" x="0px" y="0px"
	 viewBox="0 0 32 32" style="enable-background:new 0 0 32 32;" xml:space="preserve">
<path style="fill-rule:evenodd;clip-rule:evenodd;" d="M23.7,9.8c-0.7,0.8-0.8,1.7-1.1,2.6c-0.3,0.7-0.8,1.4-1.5,1.7
	c-0.6,0.3-1.8,0.4-2.2-0.2c0.9-0.2,1.5-1.5,1.5-1.5c0.4-1.4,0.8-1.7,0.8-1.7c0.1-0.2,0.4-0.4,0.2-0.6c0,0-1.3,0-3.5,1.7
	c-0.3-2.5,2.3-3,2.3-3c0.6-0.2,2.6-0.4,3.9,0.3C24.4,9.2,23.8,9.6,23.7,9.8z M24,18.6V21H8v-2.4c0-1.2,1-2.2,2.2-2.2l5.2-0.1
	c0.2-1.4,0.1-3-0.9-4.6c0,0.1-0.1,0.2-0.1,0.3c-0.5,0.9-1.7,1.2-2.6,0.7c-0.6-0.4-0.9-1-0.9-1.7c-0.6,0.4-1.3,0.4-2,0
	c-0.9-0.5-1.2-1.7-0.7-2.6C8.3,8.2,8.5,8,8.8,7.8c0,0-0.1,0-0.1-0.1C7.8,7.2,7.5,6,8.1,5.1c0.5-0.9,1.7-1.2,2.6-0.7
	c0-0.4,0.1-0.7,0.3-1c0.5-0.9,1.7-1.2,2.6-0.7c0.6,0.3,0.9,1,0.9,1.6c0.6-0.4,1.4-0.4,2,0c0.9,0.5,1.2,1.7,0.7,2.6
	c-0.2,0.3-0.4,0.5-0.7,0.7c0,0,0.1,0,0.1,0.1c0.8,0.5,1.1,1.5,0.8,2.4c0,0.2-0.1,0.3-0.2,0.4c-0.4,0.7-1.3,1-2,0.9
	c0.5,0.5,1,1.3,1.3,2.2c0.8-0.7,1.8-1.3,2.2-1.5c0.1,0,0.3-0.1,0.4,0.1c0.1,0.2-0.1,0.4-0.3,0.6c-1.4,1.3-1.7,2.2-1.8,2.8
	c0,0.1-0.1,0.2-0.1,0.3c0,0.2,0,0.3,0,0.5l4.9,0.1C23,16.5,24,17.4,24,18.6z M14.8,9c0.7-1.2,0.2-2.7-0.9-3.3
	c-1.2-0.7-2.7-0.2-3.3,0.9c-0.7,1.2-0.2,2.7,0.9,3.3C12.7,10.6,14.2,10.1,14.8,9z M9.9,27.2c0.2,1,1.1,1.8,2.1,1.8h7.9
	c1,0,1.8-0.8,2-1.8L23,22H9L9.9,27.2z"/>
</svg>
