<svg xmlns="http://www.w3.org/2000/svg" viewBox="0 0 32 32"><title>state0009</title><path d="M24.04521,9.6094c-.43264,3.683-2.08469,12.69232-8.04531,16.2657a13.02142,13.02142,0,0,1-4.132-4.17618ZM10.73515,19.71734,21.37927,9.15a14.06447,14.06447,0,0,1-5.38481-2.3339A14.67549,14.67549,0,0,1,7.93293,9.48767a37.73639,37.73639,0,0,0,1.08219,5.64647A26.49586,26.49586,0,0,0,10.73515,19.71734ZM15.99571,4.89328a12.98851,12.98851,0,0,1-8.88143,3.115q-.41681,0-.83475-.019c.02259.32127.053.68249.09224,1.07833a39.51039,39.51039,0,0,0,1.19032,6.463c1.1509,4.16551,3.545,9.58431,8.43666,12.05678,7.42212-3.7155,9.20155-14.1491,9.62394-18.517.03922-.39782.06976-.75946.09329-1.08125q-.389.01756-.76793.017a13.07024,13.07024,0,0,1-8.95234-3.11292M15.99561,3.01l.94362.84594A11.73617,11.73617,0,0,0,24.94794,6.6087q.347,0,.704-.01558l1.58292-.07143-.11483,1.569c-.02426.33214-.05584.7056-.096,1.11346-.4408,4.55915-2.33568,15.59879-10.39146,19.63149l-.63689.31886-.63563-.32127c-5.36275-2.7107-7.93886-8.5291-9.15533-12.9318A40.91468,40.91468,0,0,1,4.97092,9.20478c-.04079-.41037-.07226-.785-.09569-1.11806L4.76511,6.52137l1.57894.07175q.38605.01757.77034.01756a11.64517,11.64517,0,0,0,7.9378-2.75452L15.99561,3.01Z" fill="#69c350"/></svg>