<?xml version="1.0" encoding="iso-8859-1"?>
<!-- Generator: Adobe Illustrator 18.0.0, SVG Export Plug-In . SVG Version: 6.00 Build 0)  -->
<!DOCTYPE svg PUBLIC "-//W3C//DTD SVG 1.1//EN" "http://www.w3.org/Graphics/SVG/1.1/DTD/svg11.dtd">
<svg version="1.1" id="Ebene_1" xmlns="http://www.w3.org/2000/svg" xmlns:xlink="http://www.w3.org/1999/xlink" x="0px" y="0px"
	 viewBox="0 0 32 32" style="enable-background:new 0 0 32 32;" xml:space="preserve">
<path d="M11.8,14.3l-7-7c-0.2-0.2-0.2-0.6,0-0.8c0.2-0.2,0.6-0.2,0.8,0l7,7l0.6-0.6l-7-7C6.1,5.7,6.1,5.3,6.3,5
	c0.2-0.2,0.6-0.2,0.8,0l7,7l0.8-0.8L8.2,4.5C7.4,3.7,5.9,3.9,4.8,4.9c-1,1-1.2,2.5-0.3,3.4l6.7,6.7L11.8,14.3z M28,26.8l-2-2.8
	c0-0.1-0.2,0-0.5,0.2c0,0,0,0-0.1-0.1l-5.9-5.9l-1.4,1.4l5.9,5.9c0,0,0,0,0.1,0.1c-0.2,0.3-0.3,0.5-0.2,0.5l2.9,1.9
	c0.1,0.1,0.5-0.1,0.8-0.4C27.9,27.2,28.1,26.9,28,26.8z M21.2,15.4c1.6,0.2,3.3-0.3,4.5-1.5c1.7-1.7,2-4.4,0.8-6.4l-3.8,3.8
	l-1.9-1.9l3.8-3.8c-2-1.2-4.7-0.9-6.4,0.8c-1.2,1.2-1.7,2.9-1.5,4.5c-0.2,0.1-0.5,0.3-0.7,0.5L5.7,21.5c-1.3,1.3-1.3,3.4,0,4.7
	c1.3,1.3,3.4,1.3,4.7,0L20.6,16C20.8,15.8,21,15.6,21.2,15.4z M9.2,24.3c-0.4,0.4-1.1,0.4-1.5,0c-0.4-0.4-0.4-1.1,0-1.5
	c0.4-0.4,1.1-0.4,1.5,0C9.6,23.2,9.6,23.9,9.2,24.3z"/>
</svg>
