<?xml version="1.0" encoding="iso-8859-1"?>
<!-- Generator: Adobe Illustrator 18.0.0, SVG Export Plug-In . SVG Version: 6.00 Build 0)  -->
<!DOCTYPE svg PUBLIC "-//W3C//DTD SVG 1.1//EN" "http://www.w3.org/Graphics/SVG/1.1/DTD/svg11.dtd">
<svg version="1.1" id="Ebene_1" xmlns="http://www.w3.org/2000/svg" xmlns:xlink="http://www.w3.org/1999/xlink" x="0px" y="0px"
	 viewBox="0 0 32 32" style="enable-background:new 0 0 32 32;" xml:space="preserve">
<path d="M13,17c0,0.6,0,6,0,6s-3.6,0-3,0C11.5,22.3,12.7,19.2,13,17z"/>
<path d="M7.8,5c-2.5,0-4.4,4-4.4,9c0,5,2,9,4.4,9c2.5,0,4.4-4,4.4-9C12.3,9,10.3,5,7.8,5z M7.8,17.2c-0.9,0-1.6-1.4-1.6-3.2
	s0.7-3.2,1.6-3.2s1.6,1.4,1.6,3.2S8.7,17.2,7.8,17.2z"/>
<path d="M28,27H14V13.4C13.8,7,11,5,11,5h14c1.4,0,2.9,3.9,3,8.4V27z"/>
</svg>
