<svg xmlns="http://www.w3.org/2000/svg" viewBox="0 0 32 32"><title>cat0058</title><path d="M25.89612,6.19906q-.36445.01727-.72124.01666A11.98233,11.98233,0,0,1,16.963,3.373L15.99486,2.5l-.96684.873A11.88766,11.88766,0,0,1,6.88943,6.21829c-.26226,0-.52586-.00643-.78941-.01794l-1.61875-.0746.11319,1.6174c.02309.34457.05653.73031.09769,1.15463a42.58151,42.58151,0,0,0,1.26511,6.91586c1.24717,4.54628,3.888,10.55569,9.387,13.35466l.65185.33171.65056-.33043C24.90613,25.00388,26.84888,13.60348,27.30143,8.8952c.04244-.42046.0746-.80619.099-1.14948l.11833-1.62ZM10.87293,12.5969H15.067a1.10439,1.10439,0,0,0,1.1298-1.09173,1.08761,1.08761,0,1,0-2.17523,0,.43036.43036,0,0,1-.86073,0,1.94834,1.94834,0,1,1,1.99928,1.94731l-4.28718.00514a.43036.43036,0,1,1,0-.86073Zm6.94737,7.73948A1.95109,1.95109,0,0,1,15.872,18.38752a.43036.43036,0,0,1,.86073,0A1.08761,1.08761,0,1,0,17.8203,17.2999H10.89486a.43011.43011,0,1,1,0-.86021H17.8203a1.94834,1.94834,0,1,1,0,3.89668Zm1.859-4.964-.07.00617H10.87293a.43062.43062,0,1,1,0-.86124h8.69371A1.10452,1.10452,0,0,0,20.697,13.42553a1.08761,1.08761,0,1,0-2.17523,0,.43036.43036,0,1,1-.86073,0,1.94834,1.94834,0,1,1,2.01831,1.9468Z"/></svg>