<?xml version="1.0" encoding="iso-8859-1"?>
<!-- Generator: Adobe Illustrator 18.0.0, SVG Export Plug-In . SVG Version: 6.00 Build 0)  -->
<!DOCTYPE svg PUBLIC "-//W3C//DTD SVG 1.1//EN" "http://www.w3.org/Graphics/SVG/1.1/DTD/svg11.dtd">
<svg version="1.1" id="Ebene_1" xmlns="http://www.w3.org/2000/svg" xmlns:xlink="http://www.w3.org/1999/xlink" x="0px" y="0px"
	 viewBox="0 0 32 32" style="enable-background:new 0 0 32 32;" xml:space="preserve">
<path d="M16.1,3.5c2.2,0,3.9,1.8,3.9,3.9V15v0.7l0.5,0.4c1.6,1.3,2.5,3.3,2.5,5.3c0,3.9-3.1,7-7,7c-0.3,0-0.5,0-0.8,0
	c-3.1-0.4-5.7-2.9-6.1-6c-0.3-2.4,0.6-4.7,2.4-6.3l0.5-0.4V15V7.4c0-2.2,1.8-3.9,3.9-3.9H16.1 M16.1,2h-0.1c-3,0-5.4,2.4-5.4,5.4V15
	c-2.1,1.8-3.3,4.6-2.9,7.6c0.5,3.8,3.6,6.8,7.4,7.3c0.3,0,0.7,0.1,1,0.1c4.7,0,8.5-3.8,8.5-8.5c0-2.6-1.2-4.9-3-6.5V7.4
	C21.5,4.4,19.1,2,16.1,2L16.1,2z M18.2,17.1v-2.6h-1.7c-0.4,0-0.7-0.3-0.7-0.8c0-0.4,0.3-0.8,0.7-0.8h1.7v-2.6h-1.7
	c-0.4,0-0.8-0.3-0.8-0.8c0-0.4,0.3-0.8,0.8-0.8h1.7V7.6c0-1.2-1-2.2-2.2-2.2s-2.2,1-2.2,2.2v9.6C12,18.1,11,19.8,11,21.6
	c0,2.8,2.2,5,5,5s5-2.2,5-5C21,19.7,19.9,17.9,18.2,17.1z"/>
</svg>
