<?xml version="1.0" encoding="iso-8859-1"?>
<!-- Generator: Adobe Illustrator 18.0.0, SVG Export Plug-In . SVG Version: 6.00 Build 0)  -->
<!DOCTYPE svg PUBLIC "-//W3C//DTD SVG 1.1//EN" "http://www.w3.org/Graphics/SVG/1.1/DTD/svg11.dtd">
<svg version="1.1" id="Ebene_1" xmlns="http://www.w3.org/2000/svg" xmlns:xlink="http://www.w3.org/1999/xlink" x="0px" y="0px"
	 viewBox="0 0 32 32" style="enable-background:new 0 0 32 32;" xml:space="preserve">
<path d="M29.1,13.2c0.3-0.3,0.2-0.8-0.1-1.1l-12.6-10c-0.3-0.2-0.7-0.2-0.9,0L3,12.2c-0.3,0.3-0.4,0.7-0.1,1.1
	c0.3,0.3,0.7,0.4,1.1,0.1l12-9.6L28,13.3c0.1,0.1,0.3,0.2,0.5,0.2C28.7,13.5,28.9,13.4,29.1,13.2z"/>
<path d="M24.5,23h-17C7.2,23,7,23.2,7,23.5v3C7,26.8,7.2,27,7.5,27h17c0.3,0,0.5-0.2,0.5-0.5v-3C25,23.2,24.8,23,24.5,23z"/>
<g>
	<rect x="8" y="28" width="3" height="1"/>
	<path d="M6.5,28C6.2,28,6,27.8,6,27.5V27H5v0.5C5,28.3,5.7,29,6.5,29H7v-1H6.5z"/>
	<rect x="5" y="23" width="1" height="3"/>
	<rect x="5" y="14.8" width="1" height="7.2"/>
	<rect x="12" y="28" width="3" height="1"/>
	<rect x="26" y="14.8" width="1" height="7.2"/>
	<rect x="26" y="23" width="1" height="3"/>
	<rect x="16" y="28" width="3" height="1"/>
	<path d="M26,27.5c0,0.3-0.2,0.5-0.5,0.5H24v1h1.5c0.8,0,1.5-0.7,1.5-1.5V27h-1V27.5z"/>
	<rect x="20" y="28" width="3" height="1"/>
</g>
</svg>
