<?xml version="1.0" encoding="iso-8859-1"?>
<!-- Generator: Adobe Illustrator 18.0.0, SVG Export Plug-In . SVG Version: 6.00 Build 0)  -->
<!DOCTYPE svg PUBLIC "-//W3C//DTD SVG 1.1//EN" "http://www.w3.org/Graphics/SVG/1.1/DTD/svg11.dtd">
<svg version="1.1" id="Ebene_1" xmlns="http://www.w3.org/2000/svg" xmlns:xlink="http://www.w3.org/1999/xlink" x="0px" y="0px"
	 viewBox="0 0 32 32" style="enable-background:new 0 0 32 32;" xml:space="preserve">
<path id="laptop_2_" d="M29,21h-2V8c0-0.4-0.6-1-1-1H6C5.6,7,5,7.6,5,8v13H3c-0.5,0-1,0.5-1,1v1c0,0.5,0.5,1,1,1h26c0.5,0,1-0.5,1-1
	v-1C30,21.5,29.5,21,29,21z M20,22.6c0,0.2-0.2,0.4-0.4,0.4h-7.3c-0.2,0-0.4-0.2-0.4-0.4c0,0,0-0.6,0-0.6h8C20,22,20,22.6,20,22.6z
	 M24.6,22.6c-0.2,0-0.3-0.1-0.3-0.3c0-0.2,0.1-0.3,0.3-0.3c0.2,0,0.3,0.1,0.3,0.3C24.9,22.4,24.8,22.6,24.6,22.6z M26,21H6
	C6,21,6,9,6,9h20C26,9,26,21,26,21z M26.1,22.6c-0.2,0-0.3-0.1-0.3-0.3c0-0.2,0.1-0.3,0.3-0.3c0.2,0,0.3,0.1,0.3,0.3
	C26.4,22.4,26.2,22.6,26.1,22.6z M27.5,22.6c-0.2,0-0.3-0.1-0.3-0.3c0-0.2,0.1-0.3,0.3-0.3c0.2,0,0.3,0.1,0.3,0.3
	C27.8,22.4,27.7,22.6,27.5,22.6z"/>
</svg>
