<?xml version="1.0" encoding="iso-8859-1"?>
<!-- Generator: Adobe Illustrator 18.0.0, SVG Export Plug-In . SVG Version: 6.00 Build 0)  -->
<!DOCTYPE svg PUBLIC "-//W3C//DTD SVG 1.1//EN" "http://www.w3.org/Graphics/SVG/1.1/DTD/svg11.dtd">
<svg version="1.1" id="Ebene_1" xmlns="http://www.w3.org/2000/svg" xmlns:xlink="http://www.w3.org/1999/xlink" x="0px" y="0px"
	 viewBox="0 0 32 32" style="enable-background:new 0 0 32 32;" xml:space="preserve">
<path style="fill-rule:evenodd;clip-rule:evenodd;" d="M18.6,21.1h2.9c0.3,0,0.6-0.1,0.8-0.3l1.1-1h-6.9h-0.1v-8.2
	c4.1,0,8.1,0.5,10.5,1.5c0-5.4-4.6-9.7-10.5-10V2.5C16.5,2.2,16.3,2,16,2s-0.5,0.2-0.5,0.5V3C9.7,3.2,5,7.6,5,13
	c2.4-1,6.4-1.4,10.5-1.5v8.2H9.1l1.1,1c0.2,0.2,0.5,0.3,0.8,0.3h2.2L10,25H6v1h3.4l-2.5,2.8c-0.3,0.3-0.2,0.8,0.1,1
	C7.1,29.9,7.3,30,7.4,30c0.2,0,0.4-0.1,0.6-0.3l3.2-3.7h9.6l3,3.8c0.1,0.2,0.4,0.3,0.6,0.3c0.2,0,0.3-0.1,0.5-0.2
	c0.3-0.3,0.4-0.7,0.1-1L22.5,26H26v-1h-4.3L18.6,21.1z M12,25l3-4h2l3.1,4H12z M9,24H4v-1h5V24z M28,23v1h-5v-1H28z"/>
</svg>
