<?xml version="1.0" encoding="iso-8859-1"?>
<!-- Generator: Adobe Illustrator 18.0.0, SVG Export Plug-In . SVG Version: 6.00 Build 0)  -->
<!DOCTYPE svg PUBLIC "-//W3C//DTD SVG 1.1//EN" "http://www.w3.org/Graphics/SVG/1.1/DTD/svg11.dtd">
<svg version="1.1" id="Ebene_1" xmlns="http://www.w3.org/2000/svg" xmlns:xlink="http://www.w3.org/1999/xlink" x="0px" y="0px"
	 viewBox="0 0 32 32" style="enable-background:new 0 0 32 32;" xml:space="preserve">
<path id="network" d="M12.8,26c0,0.4,0,0.7,0.2,1H5v-2h8C12.9,25.3,12.8,25.6,12.8,26z M28,15.5v1.1c0,1.3-1.1,2.5-2.4,2.5H17v5
	c0.7,0.4,1.2,1,1.2,1.8c0,1.2-1,2.2-2.2,2.2c-1.2,0-2.2-1-2.2-2.2c0-0.8,0.5-1.5,1.2-1.9l0-4.9H6.4C5.1,19,4,17.9,4,16.5v-1.1
	C4,14.1,5.1,13,6.4,13h19.2C26.9,13,28,14.1,28,15.5z M20.4,16.1c0-0.3-0.3-0.6-0.6-0.6c-0.3,0-0.6,0.3-0.6,0.6
	c0,0.3,0.3,0.6,0.6,0.6C20.1,16.7,20.4,16.4,20.4,16.1z M22.6,16.1c0-0.3-0.3-0.6-0.6-0.6c-0.3,0-0.6,0.3-0.6,0.6
	c0,0.3,0.3,0.6,0.6,0.6C22.3,16.7,22.6,16.4,22.6,16.1z M26.2,16.1c0-0.7-0.5-1.2-1.2-1.2c-0.7,0-1.2,0.5-1.2,1.2
	c0,0.7,0.5,1.2,1.2,1.2C25.6,17.3,26.2,16.8,26.2,16.1z M19.2,26c0,0.4-0.1,0.7-0.2,1h8v-2h-8C19.1,25.3,19.2,25.6,19.2,26z M28,7.5
	v1.1c0,1.3-1.1,2.4-2.4,2.4H6.4C5.1,11,4,9.9,4,8.6V7.5C4,6.2,5.1,5,6.4,5h19.2C26.9,5,28,6.2,28,7.5z M20.4,8.1
	c0-0.3-0.3-0.6-0.6-0.6c-0.3,0-0.6,0.3-0.6,0.6c0,0.3,0.3,0.6,0.6,0.6C20.1,8.8,20.4,8.5,20.4,8.1z M22.6,8.1c0-0.3-0.3-0.6-0.6-0.6
	c-0.3,0-0.6,0.3-0.6,0.6c0,0.3,0.3,0.6,0.6,0.6C22.3,8.8,22.6,8.5,22.6,8.1z M26.2,8.1c0-0.7-0.5-1.2-1.2-1.2
	c-0.7,0-1.2,0.5-1.2,1.2c0,0.7,0.5,1.2,1.2,1.2C25.6,9.3,26.2,8.8,26.2,8.1z"/>
</svg>
