<?xml version="1.0" encoding="iso-8859-1"?>
<!-- Generator: Adobe Illustrator 18.0.0, SVG Export Plug-In . SVG Version: 6.00 Build 0)  -->
<!DOCTYPE svg PUBLIC "-//W3C//DTD SVG 1.1//EN" "http://www.w3.org/Graphics/SVG/1.1/DTD/svg11.dtd">
<svg version="1.1" id="Ebene_1" xmlns="http://www.w3.org/2000/svg" xmlns:xlink="http://www.w3.org/1999/xlink" x="0px" y="0px"
	 viewBox="0 0 32 32" style="enable-background:new 0 0 32 32;" xml:space="preserve">
<path style="fill-rule:evenodd;clip-rule:evenodd;" d="M15.6,13.3c-1.8,0-3.3,1.5-3.3,3.3s1.5,3.3,3.3,3.3s3.3-1.5,3.3-3.3
	S17.4,13.3,15.6,13.3z M15.6,17.9c-0.8,0-1.4-0.6-1.4-1.4c0-0.8,0.6-1.4,1.4-1.4s1.4,0.6,1.4,1.4C17,17.3,16.4,17.9,15.6,17.9z
	 M8.1,8c0.1-2,2.2-5.5,8-4.9c5.9,0.6,7.5,4.7,7.6,4.9c0.3,0.8-0.1,1.7-1.8,2.5c-1.7,0.8-3.2,2.1-3.5,2.8c-0.7-0.7-1.7-1.1-2.8-1.1
	c-1.5,0-2.9,0.8-3.6,2C10.6,13.1,7.9,10.7,8.1,8z M27.1,23.6c-3.5,4.8-7.8,4.2-8.1,4.1c-0.8-0.1-1.4-0.9-1.2-2.8
	c0.2-1.8-0.2-3.8-0.7-4.4c1.6-0.6,2.8-2.2,2.8-4c0-0.7-0.2-1.4-0.5-2c1.7-0.7,5.3-1.8,7.5-0.3C28.5,15.3,30.6,18.9,27.1,23.6z
	 M15.7,20.8c-0.3,1.8-1.1,5.4-3.5,6.6c-1.8,0.9-5.9,0.9-8.2-4.5c-2.4-5.4,0.3-8.8,0.5-9.1c0.5-0.6,1.5-0.8,3,0.3
	c1.4,1,3.1,1.6,3.9,1.6c0,0.2-0.1,0.5-0.1,0.8C11.4,18.9,13.3,20.8,15.7,20.8C15.7,20.8,15.7,20.8,15.7,20.8z"/>
</svg>
