<?xml version="1.0" encoding="iso-8859-1"?>
<!-- Generator: Adobe Illustrator 18.0.0, SVG Export Plug-In . SVG Version: 6.00 Build 0)  -->
<!DOCTYPE svg PUBLIC "-//W3C//DTD SVG 1.1//EN" "http://www.w3.org/Graphics/SVG/1.1/DTD/svg11.dtd">
<svg version="1.1" id="Ebene_1" xmlns="http://www.w3.org/2000/svg" xmlns:xlink="http://www.w3.org/1999/xlink" x="0px" y="0px"
	 viewBox="0 0 32 32" style="enable-background:new 0 0 32 32;" xml:space="preserve">
<path style="fill-rule:evenodd;clip-rule:evenodd;" d="M26,3H6C5.4,3,5,3.4,5,4v24c0,0.6,0.4,1,1,1h20c0.6,0,1-0.4,1-1V4
	C27,3.4,26.6,3,26,3z M17,6c0.3,0,0.5,0.2,0.5,0.5C17.5,6.8,17.3,7,17,7s-0.5-0.2-0.5-0.5C16.5,6.2,16.7,6,17,6z M15,6
	c0.3,0,0.5,0.2,0.5,0.5C15.5,6.8,15.3,7,15,7s-0.5-0.2-0.5-0.5C14.5,6.2,14.7,6,15,6z M7,6.5L7,6.5C7,6.2,7.2,6,7.5,6h4
	C11.8,6,12,6.2,12,6.5v0C12,6.8,11.8,7,11.5,7h-4C7.2,7,7,6.8,7,6.5z M16,23.5c-3.6,0-6.5-2.9-6.5-6.5s2.9-6.5,6.5-6.5
	s6.5,2.9,6.5,6.5S19.6,23.5,16,23.5z M16,11c-3.3,0-6,2.7-6,6s2.7,6,6,6s6-2.7,6-6S19.3,11,16,11z M16,22c-2.8,0-5-2.2-5-5
	s2.2-5,5-5s5,2.2,5,5S18.8,22,16,22z M19.8,17c0,2.1-1.7,3.8-3.8,3.8s-3.8-1.7-3.8-3.8S17.3,18.7,19.8,17z"/>
</svg>
