<?xml version="1.0" encoding="iso-8859-1"?>
<!-- Generator: Adobe Illustrator 18.0.0, SVG Export Plug-In . SVG Version: 6.00 Build 0)  -->
<!DOCTYPE svg PUBLIC "-//W3C//DTD SVG 1.1//EN" "http://www.w3.org/Graphics/SVG/1.1/DTD/svg11.dtd">
<svg version="1.1" id="Ebene_1" xmlns="http://www.w3.org/2000/svg" xmlns:xlink="http://www.w3.org/1999/xlink" x="0px" y="0px"
	 viewBox="0 0 32 32" style="enable-background:new 0 0 32 32;" xml:space="preserve">
<path style="fill-rule:evenodd;clip-rule:evenodd;" d="M23.4,9.4c-0.2-0.3-0.2-0.7,0-0.9L26,6.7c0.2-0.2,0.6-0.1,0.8,0.2
	s0.2,0.7,0,0.9l-2.5,1.8C24,9.8,23.7,9.7,23.4,9.4z M18.8,6c0.4,0.1,0.7,0,0.8-0.3l1-2.9c0.1-0.3-0.1-0.6-0.5-0.7
	c-0.4-0.1-0.7,0-0.8,0.3l-1,2.9C18.2,5.6,18.4,5.9,18.8,6z M12.2,5.8C12.3,6,12.7,6.2,13,6.1c0.4-0.1,0.6-0.4,0.5-0.7l-1-2.9
	c-0.1-0.3-0.5-0.4-0.8-0.3s-0.6,0.4-0.5,0.7L12.2,5.8z M7.5,9.7c0.2,0.2,0.6,0.1,0.8-0.2c0.2-0.3,0.2-0.7,0-0.9L5.9,6.8
	C5.6,6.6,5.2,6.7,5,7C4.8,7.3,4.8,7.7,5,7.9L7.5,9.7z M8,24l-1,4h18l-1-4H8z M6.1,14.3H3c-0.3,0-0.5,0.3-0.5,0.7
	c0,0.4,0.2,0.7,0.5,0.7h3.1c0.3,0,0.5-0.3,0.5-0.7C6.7,14.6,6.4,14.3,6.1,14.3z M29,14.3h-3.1c-0.3,0-0.5,0.3-0.5,0.7
	c0,0.4,0.2,0.7,0.5,0.7H29c0.3,0,0.5-0.3,0.5-0.7C29.5,14.6,29.3,14.3,29,14.3z M8,23h7v-4.4c-1-0.4-1.8-1.4-1.8-2.6
	c0-1.5,1.2-2.8,2.8-2.8s2.8,1.2,2.8,2.8c0,1.2-0.7,2.2-1.8,2.6V23h7v-8c0-4.4-3.6-8-8-8s-8,3.6-8,8V23z"/>
</svg>
