<svg xmlns="http://www.w3.org/2000/svg" viewBox="0 0 32 32"><title>Zeichenfläche 1</title><path d="M27.37778,13.68889H26.31111a2.13267,2.13267,0,0,1-1.86667-1.15556A2.08528,2.08528,0,0,1,24.88889,10.4L25.6,9.68889A.59383.59383,0,0,0,25.6,8.8L23.2,6.4c-.08889-.17778-.17778-.26667-.35555-.26667s-.26667.08889-.44444.17778l-.71111.71111a2.31933,2.31933,0,0,1-1.51111.62222,1.318,1.318,0,0,1-.62222-.08889A1.97952,1.97952,0,0,1,18.4,5.68889V4.62222A.60759.60759,0,0,0,17.77778,4H14.31111a.60759.60759,0,0,0-.62222.62222V5.68889a2.13267,2.13267,0,0,1-1.15556,1.86667,1.51269,1.51269,0,0,1-.62222.08889A2.31933,2.31933,0,0,1,10.4,7.02222l-.8-.71111a.679.679,0,0,0-.44444-.17778c-.17778,0-.26667.08889-.44444.17778l-2.4,2.4a.59383.59383,0,0,0,0,.88889l.71111.71111a2.12444,2.12444,0,0,1,.44444,2.13333A1.97952,1.97952,0,0,1,5.6,13.6H4.62222A.60759.60759,0,0,0,4,14.22222v3.46667a.60759.60759,0,0,0,.62222.62222H5.68889a2.13267,2.13267,0,0,1,1.86667,1.15555A2.08528,2.08528,0,0,1,7.11111,21.6L6.4,22.31111A.59383.59383,0,0,0,6.4,23.2l2.4,2.4c.08889.17778.17778.26667.35556.26667A.679.679,0,0,0,9.6,25.68889l.71111-.71111a2.31933,2.31933,0,0,1,1.51111-.62222,1.318,1.318,0,0,1,.62222.08889A1.97952,1.97952,0,0,1,13.6,26.31111v1.06667A.60759.60759,0,0,0,14.22222,28h3.46667a.60759.60759,0,0,0,.62222-.62222V26.31111a2.13267,2.13267,0,0,1,1.15555-1.86667,1.51269,1.51269,0,0,1,.62222-.08889A2.31933,2.31933,0,0,1,21.6,24.97778l.71111.71111a.679.679,0,0,0,.44444.17778c.17778,0,.26667-.08889.44444-.17778l2.4-2.4a.59383.59383,0,0,0,0-.88889l-.71111-.71111a2.12444,2.12444,0,0,1-.44444-2.13333A1.97952,1.97952,0,0,1,26.31111,18.4h1.06667A.60759.60759,0,0,0,28,17.77778V14.31111A.60759.60759,0,0,0,27.37778,13.68889ZM16,22.84444A6.84444,6.84444,0,1,1,22.84444,16,6.8473,6.8473,0,0,1,16,22.84444Zm0-1.95556A4.88889,4.88889,0,1,1,20.88889,16,4.93229,4.93229,0,0,1,16,20.88889Z"/></svg>