<?xml version="1.0" encoding="iso-8859-1"?>
<!-- Generator: Adobe Illustrator 18.0.0, SVG Export Plug-In . SVG Version: 6.00 Build 0)  -->
<!DOCTYPE svg PUBLIC "-//W3C//DTD SVG 1.1//EN" "http://www.w3.org/Graphics/SVG/1.1/DTD/svg11.dtd">
<svg version="1.1" id="Ebene_1" xmlns="http://www.w3.org/2000/svg" xmlns:xlink="http://www.w3.org/1999/xlink" x="0px" y="0px"
	 viewBox="0 0 32 32" style="enable-background:new 0 0 32 32;" xml:space="preserve">
<path style="fill-rule:evenodd;clip-rule:evenodd;" d="M5.5,26L5.5,26C4.7,26,4,25.3,4,24.5v-18C4,5.7,4.7,5,5.5,5h0
	C6.3,5,7,5.7,7,6.5v18C7,25.3,6.3,26,5.5,26z M11,24.5v-18C11,5.7,10.3,5,9.5,5h0C8.7,5,8,5.7,8,6.5v18C8,25.3,8.7,26,9.5,26h0
	C10.3,26,11,25.3,11,24.5z M15,24.5v-18C15,5.7,14.3,5,13.5,5h0C12.7,5,12,5.7,12,6.5v18c0,0.8,0.7,1.5,1.5,1.5h0
	C14.3,26,15,25.3,15,24.5z M19,24.5v-18C19,5.7,18.3,5,17.5,5h0C16.7,5,16,5.7,16,6.5v18c0,0.8,0.7,1.5,1.5,1.5h0
	C18.3,26,19,25.3,19,24.5z M23,24.5v-18C23,5.7,22.3,5,21.5,5h0C20.7,5,20,5.7,20,6.5v18c0,0.8,0.7,1.5,1.5,1.5h0
	C22.3,26,23,25.3,23,24.5z M27,24.5v-18C27,5.7,26.3,5,25.5,5h0C24.7,5,24,5.7,24,6.5v18c0,0.8,0.7,1.5,1.5,1.5h0
	C26.3,26,27,25.3,27,24.5z M29.5,7C28.7,7,28,7.7,28,8.5s0.7,1.5,1.5,1.5S31,9.3,31,8.5S30.3,7,29.5,7z"/>
</svg>
