<?xml version="1.0" encoding="iso-8859-1"?>
<!-- Generator: Adobe Illustrator 18.0.0, SVG Export Plug-In . SVG Version: 6.00 Build 0)  -->
<!DOCTYPE svg PUBLIC "-//W3C//DTD SVG 1.1//EN" "http://www.w3.org/Graphics/SVG/1.1/DTD/svg11.dtd">
<svg version="1.1" id="Ebene_1" xmlns="http://www.w3.org/2000/svg" xmlns:xlink="http://www.w3.org/1999/xlink" x="0px" y="0px"
	 viewBox="0 0 32 32" style="enable-background:new 0 0 32 32;" xml:space="preserve">
<path style="fill-rule:evenodd;clip-rule:evenodd;" d="M29,6H3C2.4,6,2,6.4,2,7v19h28V7C30,6.4,29.6,6,29,6z M28,9v1H4V9H28z M28,15
	v1H4v-1H28z M4,13v-1h24v1H4z M28,18v1H4v-1H28z M14,25c0-0.6,0.5-1,1-1h2c0.6,0,1,0.4,1,1H14z M4,22l0-1h24v1H4z"/>
</svg>
