<?xml version="1.0" encoding="iso-8859-1"?>
<!-- Generator: Adobe Illustrator 18.0.0, SVG Export Plug-In . SVG Version: 6.00 Build 0)  -->
<!DOCTYPE svg PUBLIC "-//W3C//DTD SVG 1.1//EN" "http://www.w3.org/Graphics/SVG/1.1/DTD/svg11.dtd">
<svg version="1.1" id="Ebene_1" xmlns="http://www.w3.org/2000/svg" xmlns:xlink="http://www.w3.org/1999/xlink" x="0px" y="0px"
	 viewBox="0 0 32 32" style="enable-background:new 0 0 32 32;" xml:space="preserve">
<path d="M7.5,7.6c2,0,3.6,1.2,4.3,2.9H11c-0.1-0.3-0.3-0.5-0.5-0.8L9.4,11l-0.5-0.5L10,9.3C9.4,8.8,8.6,8.5,7.8,8.4v1.9H7.1V8.4
	c-0.8,0.1-1.6,0.5-2.2,1l1.3,1.3l-0.5,0.5L4.4,10c-0.5,0.6-0.7,1.4-0.7,2.2h1.7V13H3.7c0.1,0.8,0.5,1.5,1,2l1.2-1.2l0.5,0.5
	l-1.1,1.1c0.5,0.4,1.1,0.6,1.8,0.7v-1.7h0.7v1.7c0.4,0,0.9-0.1,1.3-0.3l0.6,0.5c-0.6,0.3-1.4,0.5-2.2,0.5c-2.6,0-4.6-2.1-4.6-4.6
	C2.9,9.7,5,7.6,7.5,7.6z M21.6,5.5c-0.2,0.1-0.4,0.3-0.4,0.6l-1.1,4.2h1.5l0.9-3.7l4.7-1.3L26.7,4L21.6,5.5z M21.9,28l0-0.3L17,26.4
	c0,0,0-6.2,0-6.2l7.4-7.4c0.2-0.2,0.2-0.4,0.1-0.6c-0.1-0.2-0.3-0.3-0.5-0.3H8.3c-0.2,0-0.4,0.1-0.5,0.3c-0.1,0.2,0,0.4,0.1,0.6
	l7.4,7.4c0,0,0,6.2,0,6.2l-4.9,1.2l0,0.3H21.9z M9.6,12.9h13.2l-1.4,1.3h-8.5l4.4,4l-1.1,1.1c0,0,0,0-0.1,0c0,0,0,0-0.1,0L9.6,12.9z
	"/>
</svg>
