<svg xmlns="http://www.w3.org/2000/svg" viewBox="0 0 32 32"><title>Zeichenfläche 54</title><path d="M10.56349,10.8426a.60309.60309,0,0,0,.069-.84993,4.11993,4.11993,0,1,1,6.27974.00191.603.603,0,0,0,.91837.7816,5.326,5.326,0,1,0-8.11707-.00251A.60307.60307,0,0,0,10.56349,10.8426Zm14.65225,7.58673a2.836,2.836,0,0,0-2.71661-2.65913.74422.74422,0,0,1-.58293-.3298,2.15552,2.15552,0,0,0-1.88336-1.04508,3.11786,3.11786,0,0,0-1.05.19414.24182.24182,0,0,1-.08411.01507.25283.25283,0,0,1-.21736-.12682A2.202,2.202,0,0,0,16.68948,13.291a3.18611,3.18611,0,0,0-.95947.15716.44842.44842,0,0,1-.10059.01146.264.264,0,0,1-.265-.23876V7.34729a1.65807,1.65807,0,1,0-3.31613,0v9.55553a.78678.78678,0,0,1-.79567.81135.76773.76773,0,0,1-.6584-.3696l-.79758-1.2341a1.57172,1.57172,0,0,0-1.36916-.8229,1.66983,1.66983,0,0,0-1.47156,2.54678L13.23559,29.862a.249.249,0,0,0,.21183.138H22.266a.247.247,0,0,0,.23766-.23364l.22067-3.5991a.24827.24827,0,0,1,.03919-.11918C24.95257,22.73256,25.57931,20.59567,25.21575,18.42933Z"/></svg>