<?xml version="1.0" encoding="iso-8859-1"?>
<!-- Generator: Adobe Illustrator 18.0.0, SVG Export Plug-In . SVG Version: 6.00 Build 0)  -->
<!DOCTYPE svg PUBLIC "-//W3C//DTD SVG 1.1//EN" "http://www.w3.org/Graphics/SVG/1.1/DTD/svg11.dtd">
<svg version="1.1" id="Ebene_1" xmlns="http://www.w3.org/2000/svg" xmlns:xlink="http://www.w3.org/1999/xlink" x="0px" y="0px"
	 viewBox="0 0 32 32" style="enable-background:new 0 0 32 32;" xml:space="preserve">
<path d="M30,17v5c0,1.1-0.9,2-2,2H9c-1.1,0-2-0.9-2-2V10c0-1.1,0.9-2,2-2h11C25.5,8,30,11.5,30,17z M25,18.5H12c-0.6,0-1,0.4-1,1v0
	c0,0.6,0.4,1,1,1h13c0.6,0,1-0.4,1-1v0C26,18.9,25.6,18.5,25,18.5z M21,12.5h-9c-0.6,0-1,0.4-1,1v0c0,0.6,0.4,1,1,1h9
	c0.6,0,1-0.4,1-1v0C22,12.9,21.6,12.5,21,12.5z M5,10.5L5,10.5c-0.6,0-1,0.4-1,1v10c0,0.6,0.4,1,1,1h0c0.6,0,1-0.4,1-1v-10
	C6,10.9,5.6,10.5,5,10.5z M2.5,13.5L2.5,13.5C2.2,13.5,2,13.7,2,14v5c0,0.3,0.2,0.5,0.5,0.5h0C2.8,19.5,3,19.3,3,19v-5
	C3,13.7,2.8,13.5,2.5,13.5z"/>
</svg>
