<?xml version="1.0" encoding="iso-8859-1"?>
<!-- Generator: Adobe Illustrator 18.0.0, SVG Export Plug-In . SVG Version: 6.00 Build 0)  -->
<!DOCTYPE svg PUBLIC "-//W3C//DTD SVG 1.1//EN" "http://www.w3.org/Graphics/SVG/1.1/DTD/svg11.dtd">
<svg version="1.1" id="Ebene_1" xmlns="http://www.w3.org/2000/svg" xmlns:xlink="http://www.w3.org/1999/xlink" x="0px" y="0px"
	 viewBox="0 0 32 32" style="enable-background:new 0 0 32 32;" xml:space="preserve">
<path d="M28,17h-3.2l1.7,2.2c0.2,0.3,0.3,0.8,0.1,1.1l0,0c-0.3,0.5-1.1,0.6-1.5,0.2L21.9,17h-4.2l2.1,3.7l4.6,1.1
	c0.6,0.2,0.9,0.9,0.6,1.4l0,0c-0.2,0.4-0.6,0.5-1,0.5l-2.8-0.4l1.6,2.8c0.3,0.4,0.1,1.1-0.4,1.3l-0.1,0c-0.4,0.3-1.1,0.1-1.3-0.4
	l-1.6-2.8l-1,2.6c-0.2,0.3-0.5,0.6-0.9,0.6l0,0c-0.6,0-1.1-0.6-0.9-1.2l1.3-4.5L16,18l-2.1,3.7l1.3,4.5c0.2,0.6-0.3,1.2-0.9,1.2l0,0
	c-0.4,0-0.8-0.2-0.9-0.6l-1-2.6l-1.6,2.8c-0.3,0.4-0.9,0.6-1.3,0.4l-0.1,0C9,27,8.8,26.4,9.1,25.9l1.6-2.8L8,23.6
	c-0.4,0.1-0.8-0.1-1-0.5l0,0c-0.3-0.6,0-1.3,0.6-1.4l4.5-1.1l2.1-3.7h-4.2l-3.2,3.4c-0.4,0.4-1.2,0.4-1.5-0.2l0,0
	c-0.2-0.4-0.2-0.8,0.1-1.1L7.2,17H4c-0.6,0-1-0.4-1-1l0,0c0-0.6,0.4-1,1-1h3.2l-1.7-2.2c-0.2-0.3-0.3-0.8-0.1-1.1l0,0
	c0.3-0.5,1.1-0.6,1.5-0.2l3.2,3.4h4.2l-2.1-3.7l-4.6-1.1C7,10.1,6.7,9.4,7,8.9l0,0c0.2-0.4,0.6-0.5,1-0.5l2.7,0.4L9.1,6.1
	C8.8,5.6,9,5,9.5,4.8l0.1,0c0.4-0.3,1.1-0.1,1.3,0.4l1.6,2.8l1-2.6c0.2-0.4,0.5-0.6,0.9-0.6l0,0c0.7,0,1.1,0.6,0.9,1.2l-1.3,4.5
	L16,14l2.1-3.7l-1.3-4.5c-0.2-0.6,0.3-1.2,0.9-1.2l0,0c0.4,0,0.8,0.2,0.9,0.6l1,2.5l1.6-2.8c0.3-0.4,0.9-0.6,1.3-0.4l0.1,0
	C22.9,5,23.1,5.6,22.9,6l-1.6,2.8L24,8.4c0.4-0.1,0.8,0.1,1,0.5l0,0c0.3,0.6,0,1.3-0.6,1.4l-4.6,1.1L17.7,15h4.2l3.2-3.4
	c0.4-0.4,1.2-0.4,1.5,0.2l0,0c0.2,0.4,0.2,0.8-0.1,1.1L24.8,15H28c0.5,0,1,0.4,1,1V16C29,16.6,28.6,17,28,17z"/>
</svg>
