<?xml version="1.0" encoding="iso-8859-1"?>
<!-- Generator: Adobe Illustrator 18.0.0, SVG Export Plug-In . SVG Version: 6.00 Build 0)  -->
<!DOCTYPE svg PUBLIC "-//W3C//DTD SVG 1.1//EN" "http://www.w3.org/Graphics/SVG/1.1/DTD/svg11.dtd">
<svg version="1.1" id="Ebene_1" xmlns="http://www.w3.org/2000/svg" xmlns:xlink="http://www.w3.org/1999/xlink" x="0px" y="0px"
	 viewBox="0 0 32 32" style="enable-background:new 0 0 32 32;" xml:space="preserve">
<path d="M4.2,20.4l4.4,2.1l-2.1,1.4L4.2,20.4z M27.4,12.8l-14.7,9.5c-0.6,0.4-1,0.4-1.6,0.2l-8.8-4c-0.2-0.1-0.3-0.3,0-0.5L22.4,5
	c0.6-0.4,1.4-0.2,1.8,0.4l3.6,5.6C28.2,11.6,28,12.4,27.4,12.8z M9.7,16.1c-0.2-0.3-0.6-0.4-0.8-0.2l0,0c-0.3,0.2-0.4,0.6-0.2,0.8
	c0.2,0.3,0.6,0.4,0.8,0.2l0,0C9.8,16.7,9.8,16.3,9.7,16.1z M21.6,8.4C21.4,8.1,21,8,20.7,8.2L11,14.4c-0.3,0.2-0.4,0.6-0.2,0.8
	c0.2,0.3,0.6,0.4,0.8,0.2l9.7-6.2C21.7,9.1,21.7,8.7,21.6,8.4z M27.1,17.8v2.8c-0.7,0-3.7,0-4.4,0c-0.3,0-0.3,0-0.5-0.4l-0.9-1.4
	L19,20.3l0.9,1.4c0.5,0.8,1.2,1.6,2.7,1.7c0.6,0,4.3,0,4.5,0v1.9H28v-7.4H27.1z"/>
</svg>
