<?xml version="1.0" encoding="iso-8859-1"?>
<!-- Generator: Adobe Illustrator 18.0.0, SVG Export Plug-In . SVG Version: 6.00 Build 0)  -->
<!DOCTYPE svg PUBLIC "-//W3C//DTD SVG 1.1//EN" "http://www.w3.org/Graphics/SVG/1.1/DTD/svg11.dtd">
<svg version="1.1" id="Ebene_1" xmlns="http://www.w3.org/2000/svg" xmlns:xlink="http://www.w3.org/1999/xlink" x="0px" y="0px"
	 viewBox="0 0 32 32" style="enable-background:new 0 0 32 32;" xml:space="preserve">
<path d="M26.1,4.3l-20.8,9c-0.1,0-0.2,0.1-0.3,0.1c-0.3,0-0.6-0.2-0.7-0.5c-0.2-0.4,0-0.8,0.4-1l20.8-9c0.4-0.2,0.8,0,1,0.4
	C26.7,3.7,26.5,4.2,26.1,4.3z"/>
<polygon points="26,6 25,6 25,27 8,27 8,14 7,14 7,27 5,27 5,29 26,29 26,27 26,27 "/>
<g>
	<path d="M14.5,23.2l0.4,2.1c0,0.4,0.3,0.7,0.7,0.7H17h1.3c0.4,0,0.7-0.3,0.7-0.7l0.4-2.1H17H14.5z"/>
	<path d="M20.6,14C20.5,14,20.5,14,20.6,14c-0.2-0.9-0.8-1.5-1.7-1.6c-0.8-0.1-1.5,0.3-1.9,1c-0.4-0.7-1.1-1.1-1.9-1
		c-0.9,0.1-1.5,0.8-1.7,1.6c0,0,0,0,0,0c-0.9,0.1-1.6,1.1-1.4,2.1c0.1,1.1,1,1.8,1.9,1.7c0.1,0.8,0.9,1.4,1.8,1.5c0,0,0,0,0,0
		c0.6,0.5,0.7,0.9,0.7,1.1c0,0,0,0.1,0,0.1c0,0.1,0,0.1,0,0.2h-1.6c-0.5,0-0.9,0.4-0.9,0.9v0.9h3h3v-0.9c0-0.5-0.4-0.9-0.9-0.9h-1.6
		c0-0.1,0-0.1,0-0.2c0,0,0-0.1,0-0.1c0.1-0.2,0.1-0.6,0.7-1.1c0,0,0,0,0,0c0.9-0.1,1.7-0.7,1.8-1.5c0.9,0.1,1.7-0.7,1.9-1.7
		C22.1,15.1,21.5,14.1,20.6,14z M16.6,19.7c-0.1-0.1-0.3-0.2-0.4-0.3c0.1,0,0.2,0,0.3,0c0.1,0,0.3-0.1,0.4-0.1
		C16.7,19.4,16.7,19.6,16.6,19.7z M17.3,19.7c-0.1-0.2-0.1-0.3-0.2-0.4c0.1,0,0.2,0.1,0.4,0.1c0.1,0,0.2,0,0.3,0
		C17.6,19.5,17.5,19.6,17.3,19.7z"/>
</g>
</svg>
