<?xml version="1.0" encoding="iso-8859-1"?>
<!-- Generator: Adobe Illustrator 18.0.0, SVG Export Plug-In . SVG Version: 6.00 Build 0)  -->
<!DOCTYPE svg PUBLIC "-//W3C//DTD SVG 1.1//EN" "http://www.w3.org/Graphics/SVG/1.1/DTD/svg11.dtd">
<svg version="1.1" id="Ebene_1" xmlns="http://www.w3.org/2000/svg" xmlns:xlink="http://www.w3.org/1999/xlink" x="0px" y="0px"
	 viewBox="0 0 32 32" style="enable-background:new 0 0 32 32;" xml:space="preserve">
<path d="M14,16H5c-0.6,0-1,0.4-1,1v9c0,0.6,0.4,1,1,1h9c0.6,0,1-0.4,1-1v-9C15,16.4,14.6,16,14,16z M11.6,24.1
	c-0.5,0.4-1.2,0.6-2.5,0.6c-0.7,0-1.2,0-1.6-0.1v-6.2c0.4-0.1,1.1-0.1,1.9-0.1c0.9,0,1.4,0.1,1.9,0.4c0.4,0.2,0.8,0.7,0.8,1.3
	c0,0.6-0.3,1.1-1,1.3v0c0.7,0.2,1.3,0.7,1.3,1.6C12.3,23.3,12,23.8,11.6,24.1z M9.5,20.7H9v-1.5c0.1,0,0.3,0,0.6,0
	c0.6,0,1,0.3,1,0.7C10.6,20.4,10.2,20.7,9.5,20.7z M10.8,22.7c0,0.7-0.6,0.9-1.2,0.9c-0.2,0-0.4,0-0.6,0v-1.8h0.5
	C10.2,21.8,10.8,22,10.8,22.7z M27,16h-9c-0.6,0-1,0.4-1,1v9c0,0.6,0.4,1,1,1h9c0.6,0,1-0.4,1-1v-9C28,16.4,27.6,16,27,16z
	 M23.3,23.9c0.4,0,0.9-0.1,1.2-0.2l0.2,1.1c-0.3,0.1-0.9,0.3-1.6,0.3c-2.2,0-3.3-1.4-3.3-3.2c0-2.2,1.5-3.4,3.5-3.4
	c0.7,0,1.3,0.2,1.6,0.3l-0.3,1.1c-0.3-0.1-0.7-0.2-1.2-0.2c-1.1,0-2,0.7-2,2.1C21.2,23.1,22,23.9,23.3,23.9z M17.1,9.9h-1.4L16,8.5
	c0.1-0.4,0.2-0.8,0.3-1.2h0c0.1,0.4,0.2,0.8,0.3,1.2L17.1,9.9z M12,15h9c0.6,0,1-0.4,1-1V5c0-0.6-0.4-1-1-1h-9c-0.6,0-1,0.4-1,1v9
	C11,14.6,11.4,15,12,15z M15.5,6.2h1.9l2,6.3h-1.5l-0.5-1.6h-1.8L15,12.6h-1.5L15.5,6.2z"/>
</svg>
