<?xml version="1.0" encoding="iso-8859-1"?>
<!-- Generator: Adobe Illustrator 18.0.0, SVG Export Plug-In . SVG Version: 6.00 Build 0)  -->
<!DOCTYPE svg PUBLIC "-//W3C//DTD SVG 1.1//EN" "http://www.w3.org/Graphics/SVG/1.1/DTD/svg11.dtd">
<svg version="1.1" id="Ebene_1" xmlns="http://www.w3.org/2000/svg" xmlns:xlink="http://www.w3.org/1999/xlink" x="0px" y="0px"
	 viewBox="0 0 32 32" style="enable-background:new 0 0 32 32;" xml:space="preserve">
<g>
	<path d="M4.1,21h25c-1.2-3.9-3.3-10.2-3.6-11.1C25,8.6,23.9,8,22.2,8c-2.1,0-9.9,0-12.1,0c-1.5,0-1.5,2.6,0,2.6c2.7,0,7.4,0,9.6,0
		c2.8,0,4.6,4.9,1.9,4.9c-3.4,0-7.3,0-9.5,0C9.7,15.5,6.4,18.1,4.1,21z"/>
	<path d="M3.3,22c-0.5,0.7-0.9,1.4-1.3,2h28c0-0.2-0.3-0.9-0.6-2H3.3z"/>
	<path d="M18.3,13.6h-1.9c-0.3,0-0.6,0.3-0.6,0.6v0.6H19v-0.6C19,13.9,18.7,13.6,18.3,13.6z"/>
</g>
</svg>
