<?xml version="1.0" encoding="iso-8859-1"?>
<!-- Generator: Adobe Illustrator 18.0.0, SVG Export Plug-In . SVG Version: 6.00 Build 0)  -->
<!DOCTYPE svg PUBLIC "-//W3C//DTD SVG 1.1//EN" "http://www.w3.org/Graphics/SVG/1.1/DTD/svg11.dtd">
<svg version="1.1" id="Ebene_1" xmlns="http://www.w3.org/2000/svg" xmlns:xlink="http://www.w3.org/1999/xlink" x="0px" y="0px"
	 viewBox="0 0 32 32" style="enable-background:new 0 0 32 32;" xml:space="preserve">
<path style="fill-rule:evenodd;clip-rule:evenodd;" d="M8,25h16l1,4H7L8,25z M2.5,15.9c0,0.4,0.2,0.7,0.5,0.7h3.1
	c0.3,0,0.5-0.3,0.5-0.7s-0.2-0.7-0.5-0.7H3.1C2.8,15.3,2.5,15.6,2.5,15.9 M29.5,15.9c0-0.4-0.2-0.7-0.5-0.7h-3.1
	c-0.3,0-0.5,0.3-0.5,0.7c0,0.4,0.2,0.7,0.5,0.7h3.1C29.2,16.6,29.5,16.3,29.5,15.9 M26.9,8c-0.2-0.3-0.6-0.4-0.8-0.2l-2.5,1.8
	c-0.2,0.2-0.3,0.6,0,0.9c0.2,0.3,0.6,0.4,0.8,0.2l2.5-1.8C27.1,8.7,27.1,8.3,26.9,8 M20.1,3.1c-0.4-0.1-0.7,0-0.8,0.3l-1,2.9
	c-0.1,0.3,0.1,0.6,0.5,0.7s0.7,0,0.8-0.3l1-2.9C20.7,3.5,20.5,3.2,20.1,3.1 M11.8,3.1c-0.4,0.1-0.6,0.4-0.5,0.7l1,2.9
	c0.1,0.3,0.5,0.4,0.8,0.3c0.4-0.1,0.6-0.4,0.5-0.7l-1-2.9C12.5,3.1,12.2,3,11.8,3.1 M5.1,8c-0.2,0.3-0.2,0.7,0,0.9l2.5,1.8
	c0.2,0.2,0.6,0.1,0.8-0.2c0.2-0.3,0.2-0.7,0-0.9L5.9,7.8C5.7,7.6,5.3,7.7,5.1,8 M24,15.9v8H8v-8c0-4.4,3.6-8,8-8S24,11.5,24,15.9z
	 M22.3,15.9c0-3.3-2.7-6-6-6c0,6.3,2.3,12,2.3,12h3.7V15.9z"/>
</svg>
