<?xml version="1.0" encoding="iso-8859-1"?>
<!-- Generator: Adobe Illustrator 18.0.0, SVG Export Plug-In . SVG Version: 6.00 Build 0)  -->
<!DOCTYPE svg PUBLIC "-//W3C//DTD SVG 1.1//EN" "http://www.w3.org/Graphics/SVG/1.1/DTD/svg11.dtd">
<svg version="1.1" id="Ebene_1" xmlns="http://www.w3.org/2000/svg" xmlns:xlink="http://www.w3.org/1999/xlink" x="0px" y="0px"
	 viewBox="0 0 32 32" style="enable-background:new 0 0 32 32;" xml:space="preserve">
<path d="M21.1,15.1h-0.9c-0.6,0-1.3-0.4-1.5-1c-0.2-0.5-0.1-1.3,0.4-1.8l0.6-0.6c0.2-0.2,0.2-0.5,0-0.7l-2-2
	c-0.1-0.1-0.2-0.1-0.4-0.1c-0.1,0-0.3,0.1-0.3,0.1l-0.6,0.6c-0.3,0.3-0.8,0.5-1.2,0.5c-0.2,0-0.4,0-0.5-0.1c-0.5-0.2-1-0.9-1-1.5
	V7.6c0-0.3-0.2-0.5-0.5-0.5h-2.8c-0.3,0-0.5,0.2-0.5,0.5v0.9c0,0.6-0.4,1.3-1,1.5c-0.2,0.1-0.3,0.1-0.5,0.1c-0.5,0-0.9-0.2-1.2-0.5
	L6.6,9C6.5,8.9,6.3,8.9,6.2,8.9C6.1,8.9,6,8.9,5.9,9l-2,2c-0.2,0.2-0.2,0.5,0,0.7l0.6,0.6c0.4,0.4,0.6,1.2,0.4,1.8
	c-0.2,0.5-0.9,1-1.5,1H2.5c-0.3,0-0.5,0.2-0.5,0.5v2.8c0,0.3,0.2,0.5,0.5,0.5h0.9c0.6,0,1.3,0.4,1.5,1c0.2,0.5,0.1,1.3-0.4,1.8
	l-0.6,0.6c-0.2,0.2-0.2,0.5,0,0.7l2,2C6,25,6.1,25,6.2,25c0.1,0,0.3-0.1,0.3-0.1l0.6-0.6c0.3-0.3,0.8-0.5,1.2-0.5
	c0.2,0,0.4,0,0.5,0.1c0.5,0.2,1,0.9,1,1.5v0.9c0,0.3,0.2,0.5,0.5,0.5h2.8c0.3,0,0.5-0.2,0.5-0.5v-0.9c0-0.6,0.4-1.3,1-1.5
	c0.2-0.1,0.3-0.1,0.5-0.1c0.5,0,0.9,0.2,1.2,0.5l0.6,0.6c0.1,0.1,0.2,0.1,0.3,0.1c0.1,0,0.3-0.1,0.3-0.1l2-2c0.2-0.2,0.2-0.5,0-0.7
	l-0.6-0.6c-0.4-0.4-0.6-1.2-0.4-1.8c0.2-0.5,0.9-1,1.5-1h0.9c0.3,0,0.5-0.2,0.5-0.5v-2.8C21.6,15.3,21.4,15.1,21.1,15.1z M11.8,22.5
	c-3.1,0-5.6-2.5-5.6-5.6c0-3.1,2.5-5.6,5.6-5.6c3.1,0,5.6,2.5,5.6,5.6C17.4,20,14.9,22.5,11.8,22.5z M29.8,10.3l-0.4-0.1
	c-0.3-0.1-0.6-0.3-0.6-0.6c-0.1-0.3,0.1-0.7,0.4-0.8l0.4-0.2c0.1-0.1,0.1-0.2,0.1-0.3l-0.8-1.2c0-0.1-0.1-0.1-0.2-0.1
	c-0.1,0-0.1,0-0.2,0l-0.4,0.2c-0.2,0.1-0.4,0.2-0.7,0.1c-0.1,0-0.2-0.1-0.3-0.1c-0.2-0.2-0.4-0.5-0.3-0.8l0.1-0.4
	c0-0.1-0.1-0.3-0.2-0.3l-1.4-0.3c-0.1,0-0.3,0.1-0.3,0.2L25,5.9c-0.1,0.3-0.3,0.6-0.6,0.6c-0.1,0-0.2,0-0.3,0
	c-0.2,0-0.4-0.2-0.6-0.4l-0.2-0.4c0-0.1-0.1-0.1-0.2-0.1c-0.1,0-0.1,0-0.2,0l-1.2,0.8c-0.1,0.1-0.1,0.2-0.1,0.3l0.2,0.4
	c0.2,0.3,0.2,0.7,0,0.9c-0.2,0.2-0.5,0.4-0.8,0.3l-0.4-0.1c-0.1,0-0.3,0.1-0.3,0.2L20,9.9c0,0.1,0.1,0.3,0.2,0.3l0.4,0.1
	c0.3,0.1,0.6,0.3,0.6,0.6c0.1,0.3-0.1,0.7-0.4,0.8L20.6,12c-0.1,0.1-0.1,0.2-0.1,0.3l0.8,1.2c0,0.1,0.1,0.1,0.2,0.1
	c0.1,0,0.1,0,0.2,0l0.4-0.2c0.2-0.1,0.4-0.2,0.7-0.1c0.1,0,0.2,0.1,0.3,0.1c0.2,0.2,0.4,0.5,0.3,0.8l-0.1,0.4c0,0.1,0.1,0.3,0.2,0.3
	l1.4,0.3c0.1,0,0.3-0.1,0.3-0.2l0.1-0.4c0.1-0.3,0.3-0.6,0.6-0.6c0.1,0,0.2,0,0.3,0c0.2,0,0.4,0.2,0.6,0.4l0.2,0.4
	c0,0.1,0.1,0.1,0.2,0.1c0.1,0,0.1,0,0.2,0l1.2-0.8c0.1-0.1,0.1-0.2,0.1-0.3l-0.2-0.4c-0.2-0.3-0.2-0.7,0-0.9
	c0.2-0.2,0.5-0.4,0.8-0.3l0.4,0.1c0.1,0,0.3-0.1,0.3-0.2l0.3-1.4C30,10.4,29.9,10.3,29.8,10.3z M24.7,11.9c-0.9-0.2-1.5-1.1-1.3-2
	c0.2-0.9,1.1-1.5,2-1.3c0.9,0.2,1.5,1.1,1.3,2C26.5,11.5,25.6,12.1,24.7,11.9z M11.8,20.9c-2.2,0-4-1.8-4-4c0-2.2,1.8-4,4-4
	c2.2,0,4,1.8,4,4C15.8,19.2,14,20.9,11.8,20.9z"/>
</svg>
