<?xml version="1.0" encoding="iso-8859-1"?>
<!-- Generator: Adobe Illustrator 18.0.0, SVG Export Plug-In . SVG Version: 6.00 Build 0)  -->
<!DOCTYPE svg PUBLIC "-//W3C//DTD SVG 1.1//EN" "http://www.w3.org/Graphics/SVG/1.1/DTD/svg11.dtd">
<svg version="1.1" id="Ebene_1" xmlns="http://www.w3.org/2000/svg" xmlns:xlink="http://www.w3.org/1999/xlink" x="0px" y="0px"
	 viewBox="0 0 32 32" style="enable-background:new 0 0 32 32;" xml:space="preserve">
<path d="M10,2H6C5.4,2,5,2.4,5,3v26c0,0.6,0.4,1,1,1h4c0.6,0,1-0.4,1-1V3C11,2.4,10.6,2,10,2z M8,28c-1.1,0-2-0.9-2-2
	c0-1.1,0.9-2,2-2s2,0.9,2,2C10,27.1,9.1,28,8,28z M10,18H6V4h4V18z"/>
<path d="M18,2h-4c-0.6,0-1,0.4-1,1v26c0,0.6,0.4,1,1,1h4c0.6,0,1-0.4,1-1V3C19,2.4,18.6,2,18,2z M16,28c-1.1,0-2-0.9-2-2
	c0-1.1,0.9-2,2-2s2,0.9,2,2C18,27.1,17.1,28,16,28z M18,18h-4V4h4V18z"/>
<path d="M26,2h-4c-0.6,0-1,0.4-1,1v26c0,0.6,0.4,1,1,1h4c0.6,0,1-0.4,1-1V3C27,2.4,26.6,2,26,2z M24,28c-1.1,0-2-0.9-2-2
	c0-1.1,0.9-2,2-2s2,0.9,2,2C26,27.1,25.1,28,24,28z M26,18h-4V4h4V18z"/>
</svg>
