<?xml version="1.0" encoding="iso-8859-1"?>
<!-- Generator: Adobe Illustrator 18.0.0, SVG Export Plug-In . SVG Version: 6.00 Build 0)  -->
<!DOCTYPE svg PUBLIC "-//W3C//DTD SVG 1.1//EN" "http://www.w3.org/Graphics/SVG/1.1/DTD/svg11.dtd">
<svg version="1.1" id="Ebene_1" xmlns="http://www.w3.org/2000/svg" xmlns:xlink="http://www.w3.org/1999/xlink" x="0px" y="0px"
	 viewBox="0 0 32 32" style="enable-background:new 0 0 32 32;" xml:space="preserve">
<path d="M26,3H6C5.4,3,5,3.4,5,4v16v8c0,0.6,0.4,1,1,1h20c0.6,0,1-0.4,1-1v-8V4C27,3.4,26.6,3,26,3z M7.5,5H10v1H7.5
	C7.2,6,7,5.8,7,5.5C7,5.2,7.2,5,7.5,5z M21.5,6h-11V5h11V6z M10.5,12v-1h11v1H10.5z M21.5,14v1h-11v-1H21.5z M10.5,9V8h11v1H10.5z
	 M7.5,8H10v1H7.5C7.2,9,7,8.8,7,8.5C7,8.2,7.2,8,7.5,8z M7.5,11H10v1H7.5C7.2,12,7,11.8,7,11.5C7,11.2,7.2,11,7.5,11z M7.5,14H10v1
	H7.5C7.2,15,7,14.8,7,14.5C7,14.2,7.2,14,7.5,14z M7.5,17H10v1H7.5C7.2,18,7,17.8,7,17.5C7,17.2,7.2,17,7.5,17z M10.5,17h11v1h-11
	V17z M22,17h2.5c0.3,0,0.5,0.2,0.5,0.5c0,0.3-0.2,0.5-0.5,0.5H22V17z M24.5,15H22v-1h2.5c0.3,0,0.5,0.2,0.5,0.5
	C25,14.8,24.8,15,24.5,15z M24.5,12H22v-1h2.5c0.3,0,0.5,0.2,0.5,0.5C25,11.8,24.8,12,24.5,12z M24.5,9H22V8h2.5
	C24.8,8,25,8.2,25,8.5C25,8.8,24.8,9,24.5,9z M24.5,6H22V5h2.5C24.8,5,25,5.2,25,5.5C25,5.8,24.8,6,24.5,6z M25,27H7v-7h18V27z"/>
</svg>
