<?xml version="1.0" encoding="iso-8859-1"?>
<!-- Generator: Adobe Illustrator 18.0.0, SVG Export Plug-In . SVG Version: 6.00 Build 0)  -->
<!DOCTYPE svg PUBLIC "-//W3C//DTD SVG 1.1//EN" "http://www.w3.org/Graphics/SVG/1.1/DTD/svg11.dtd">
<svg version="1.1" id="Ebene_1" xmlns="http://www.w3.org/2000/svg" xmlns:xlink="http://www.w3.org/1999/xlink" x="0px" y="0px"
	 viewBox="0 0 32 32" style="enable-background:new 0 0 32 32;" xml:space="preserve">
<g>
	<path d="M19.8,7c0,1.1-1.7,2-3.9,2S12,8.1,12,7s1.7-2,3.9-2S19.8,5.9,19.8,7z M19.7,8.9c-0.9,0.7-2.2,1.1-3.9,1.1
		c-1.5,0-2.7-0.4-3.6-0.9c-1.1,0.6-1.9,1.4-1.9,2.3c0,1.7,2.6,3.1,5.8,3.1c3.2,0,5.8-1.4,5.8-3.1C22,10.3,21.1,9.4,19.7,8.9z
		 M16.3,20.5c-5.6,0-10.6-0.3-14.3-0.9c1.8,2.3,7.4,3.9,14,3.9c6.6,0,12.1-1.6,14-3.8C26.4,20.2,21.6,20.5,16.3,20.5z M16.3,20.5
		c-5.6,0-10.6-0.3-14.3-0.9c1.8,2.3,7.4,3.9,14,3.9c6.6,0,12.1-1.6,14-3.8C26.4,20.2,21.6,20.5,16.3,20.5z M9.9,24l-0.3,1.8
		c-0.1,0.6,0.3,1.1,0.8,1.2c0.5,0.1,1.1-0.3,1.2-0.8l0.3-1.9C11.2,24.2,10.6,24.1,9.9,24z M20.1,24.3l0.3,1.9
		c0.1,0.6,0.6,0.9,1.2,0.8c0.5-0.1,0.9-0.6,0.8-1.2L22.1,24C21.4,24.1,20.8,24.2,20.1,24.3z M9.9,19.3c2.1,0.1,4.2,0.2,6.5,0.2
		c2.1,0,4.2-0.1,6.1-0.2c1.1-0.6,1.7-1.5,1.7-2.3c0-1.2-1.1-2.2-2.9-2.9c-1.2,0.9-3,1.4-5.1,1.4c-2.1,0-3.9-0.5-5.2-1.4
		c-1.8,0.7-2.9,1.7-2.9,2.9C8.2,17.9,8.8,18.7,9.9,19.3z"/>
</g>
</svg>
