<svg xmlns="http://www.w3.org/2000/svg" viewBox="0 0 32 32"><title>0025</title><path d="M23.49817,3.54408a4.26082,4.26082,0,0,0-.75859,2.52483q0,.01058,0,.02115a4.664,4.664,0,0,0,4.678,4.6498,4.03534,4.03534,0,0,0,1.51719-.25248A6.24095,6.24095,0,1,1,21.096,3.67033,6.90036,6.90036,0,0,1,22.7396,3.481,3.08233,3.08233,0,0,1,23.49817,3.54408ZM28.74638,4.894l-.26145.68634-.49218.16148.49218.16148.26145.68634.26144-.68634L29.5,5.74185l-.49218-.16148Zm-3.07912.06726-.689.21535.689.21535.36607.91509.366-.91509.689-.21535-.689-.21535-.366-.91509Zm1.20579,2.26087-.689.21535.689.21535.366.91509.366-.91509.689-.21535-.689-.21535-.366-.91509ZM15.1254,16.28654a.36526.36526,0,0,0-.36125-.36922H13.56936a.36441.36441,0,0,0-.362.36683V17.016l1.918,1.9514Zm2.79881,6.36591L11.623,16.24064a.76519.76519,0,0,0-1.08206-.01369h0l-.01369.01369L4.23008,22.65245a.78817.78817,0,0,0,0,1.1131.76055.76055,0,0,0,1.07546.01631h0l.0163-.0163,5.75246-5.85265,5.75546,5.85265a.7631.7631,0,0,0,1.07908.01537h0l.01537-.01537A.857.857,0,0,0,17.9242,22.65245ZM5.90512,24.00639v4.23613a.70914.70914,0,0,0,.702.71506h8.99226a.70819.70819,0,0,0,.69986-.71508V24.06672l-5.22494-5.31717Z"/></svg>