<?xml version="1.0" encoding="iso-8859-1"?>
<!-- Generator: Adobe Illustrator 18.0.0, SVG Export Plug-In . SVG Version: 6.00 Build 0)  -->
<!DOCTYPE svg PUBLIC "-//W3C//DTD SVG 1.1//EN" "http://www.w3.org/Graphics/SVG/1.1/DTD/svg11.dtd">
<svg version="1.1" id="Ebene_1" xmlns="http://www.w3.org/2000/svg" xmlns:xlink="http://www.w3.org/1999/xlink" x="0px" y="0px"
	 viewBox="0 0 32 32" style="enable-background:new 0 0 32 32;" xml:space="preserve">
<path d="M7,10h18V8H7V10L7,10z M14.1,12h6.7c0.6,0,1.1,0.5,1.1,1.1v12.9c0,0.6-0.5,1.1-1.1,1.1h-6.7c-0.6,0-1.1-0.5-1.1-1.1V13.1
	C13,12.5,13.5,12,14.1,12L14.1,12z M28,5c0-0.6-0.4-1-1-1c-0.6,0-1,0.5-1,1v20c0,0.6,0.4,1,1,1c0.6,0,1-0.5,1-1V5L28,5z M6,5
	c0-0.6-0.4-1-1-1C4.4,4,4,4.5,4,5v20c0,0.6,0.4,1,1,1c0.6,0,1-0.5,1-1V5L6,5z M7,22h5v-2H7V22L7,22z M23,22h2v-2h-2V22L23,22z M7,16
	h5v-2H7V16L7,16z M23,16h2v-2h-2V16z"/>
</svg>
