<?xml version="1.0" encoding="iso-8859-1"?>
<!-- Generator: Adobe Illustrator 18.0.0, SVG Export Plug-In . SVG Version: 6.00 Build 0)  -->
<!DOCTYPE svg PUBLIC "-//W3C//DTD SVG 1.1//EN" "http://www.w3.org/Graphics/SVG/1.1/DTD/svg11.dtd">
<svg version="1.1" id="Ebene_1" xmlns="http://www.w3.org/2000/svg" xmlns:xlink="http://www.w3.org/1999/xlink" x="0px" y="0px"
	 viewBox="0 0 32 32" style="enable-background:new 0 0 32 32;" xml:space="preserve">
<path d="M13.2,9.8c1.4-1.6,0.1-2.9,0-3c-0.1-0.1-0.1-0.4,0-0.5c0.1-0.1,0.3-0.1,0.5,0c0.7,0.6,1.5,2.3,0,3.9c-0.4,0.5-0.6,1-0.6,1.5
	c0,0.8,0.7,1.4,0.7,1.4c0.1,0.1,0.2,0.3,0,0.5c-0.1,0.1-0.2,0.1-0.3,0.1c-0.1,0-0.2,0-0.2-0.1c0,0-0.9-0.8-1-1.9
	C12.4,11.1,12.6,10.4,13.2,9.8z M10.2,11.8c0.1,1.1,0.9,1.9,1,1.9c0.1,0.1,0.1,0.1,0.2,0.1c0.1,0,0.2,0,0.3-0.1
	c0.1-0.1,0.1-0.4,0-0.5c0,0-0.7-0.6-0.7-1.4c0-0.5,0.2-1,0.6-1.5c1.5-1.7,0.6-3.3,0-3.9c-0.1-0.1-0.4-0.1-0.5,0
	c-0.1,0.1-0.1,0.4,0,0.5c0.1,0.1,1.4,1.4,0,3C10.4,10.4,10.2,11.1,10.2,11.8z M8,11.8c0.1,1.1,0.9,1.9,1,1.9
	c0.1,0.1,0.1,0.1,0.2,0.1c0.1,0,0.2,0,0.3-0.1c0.1-0.1,0.1-0.4,0-0.5c0,0-0.7-0.6-0.7-1.4c0-0.5,0.2-1,0.6-1.5
	c1.5-1.7,0.6-3.3,0-3.9c-0.1-0.1-0.4-0.1-0.5,0c-0.1,0.1-0.1,0.4,0,0.5c0.1,0.1,1.4,1.4,0,3C8.2,10.4,7.9,11.1,8,11.8z M15.6,27H16
	v-0.9c0-0.3,0.3-0.6,0.6-0.6h0.2c0.3,0,0.6,0.3,0.6,0.6v2.3c0,0.3-0.3,0.6-0.6,0.6h-0.2c-0.3,0-0.6-0.3-0.6-0.6v-0.8h-1l0,0v0H5.7
	v0.8c0,0.3-0.3,0.6-0.6,0.6H4.9c-0.3,0-0.6-0.3-0.6-0.6v-2.3c0-0.3,0.3-0.6,0.6-0.6h0.2c0.3,0,0.6,0.3,0.6,0.6V27h0.5l1.5-4.5
	c-2.3-1.2-3.9-3.6-4-6.1c0.8,0.2,2.7,0.3,7.3,0.3c4.5,0,6.4-0.1,7.2-0.3c-0.1,2.8-1.8,5.1-4.2,6.2L15.6,27z M14.7,27l-1.4-4.1
	c-0.7,0.2-1.5,0.4-2.3,0.4c-0.9,0-1.8-0.2-2.6-0.5L7,27H14.7z M28.9,10.8l-1.4,3c-0.3,0.7-1.2,1-1.8,0.6L25,14.1
	c-1.9,1.9-4.4,2.6-6.4,1.7L25,2.7c2,1,3,3.4,2.7,6L28.2,9C28.9,9.3,29.2,10.1,28.9,10.8z M28,9.5l-0.5-0.2c-0.1,0.8-0.4,1.6-0.8,2.4
	c-0.4,0.8-0.9,1.5-1.4,2.1l0.5,0.2c0.4,0.2,0.9,0,1.1-0.4l1.4-3C28.6,10.2,28.4,9.7,28,9.5z M15.1,15.4v-0.3c0-0.1-0.1-0.2-0.2-0.2
	h-2.6c-0.1,0-0.2,0.1-0.2,0.2v0.3c0,0,0,0,0,0c-0.3,0-0.7,0-1.1,0c-0.5,0-1,0-1.5,0c0,0,0,0,0,0v-0.3c0-0.1-0.1-0.2-0.2-0.2H6.8
	c-0.1,0-0.2,0.1-0.2,0.2v0.3c0,0,0,0.1,0,0.1c-1.8,0.1-2.9,0.2-2.9,0.3c0,0.2,3.3,0.3,7.3,0.3s7.3-0.2,7.3-0.3
	C18.3,15.7,17,15.6,15.1,15.4C15.1,15.5,15.1,15.5,15.1,15.4z"/>
</svg>
