<svg xmlns="http://www.w3.org/2000/svg" viewBox="0 0 32 32"><title>state0024</title><path d="M16.00006,30A14,14,0,1,1,30,16.00006,14.04115,14.04115,0,0,1,16.00006,30Zm-5.2-7.3c1.1,3.1,2.79992,5.1,4.6,5.4V21.5A18.3464,18.3464,0,0,0,10.80006,22.7Zm6.4-1.1V28c1.59994-.59993,3.1-2.59994,4-5.3A13.99384,13.99384,0,0,0,17.2,21.6Zm-9.6,3.3a10.14369,10.14369,0,0,0,3.5,2.3A12.2864,12.2864,0,0,1,9.2,23.6,18.25941,18.25941,0,0,0,7.60007,24.9ZM22.7,23.6a15.22233,15.22233,0,0,1-1.9,3.6,11.80859,11.80859,0,0,0,3.50006-2.3A6.98529,6.98529,0,0,0,22.7,23.6Zm.6-1.7a19.53278,19.53278,0,0,1,2.3,1.7,12.28049,12.28049,0,0,0,2.69994-6.7H24A27.38138,27.38138,0,0,1,23.30005,21.9ZM3.8,16.90007a12.31431,12.31431,0,0,0,2.60006,6.7,12.41617,12.41617,0,0,1,2.3-1.7A27.37189,27.37189,0,0,1,8,16.90007ZM17.2,19.9a11.57012,11.57012,0,0,1,4.5,1.2001,26.53967,26.53967,0,0,0,.6-4.2H17.2Zm-7.4-2.9999a20.26064,20.26064,0,0,0,.59994,4.2A14.64337,14.64337,0,0,1,15.5,19.9v-2.9999ZM24,15.1h4.2A11.70769,11.70769,0,0,0,25.5,8.4a9.11867,9.11867,0,0,1-2.3,1.7A20.88478,20.88478,0,0,1,24,15.1ZM17.2,15.1h5.1a20.25858,20.25858,0,0,0-.6-4.2A13.51543,13.51543,0,0,1,17.2,12Zm-7.4,0h5.6v-3a14.64592,14.64592,0,0,1-5.1-1.2A20.07416,20.07416,0,0,0,9.80005,15.1Zm-6,0H8a27.37309,27.37309,0,0,1,.7-5,13.00656,13.00656,0,0,1-2.3-1.8A12.9444,12.9444,0,0,0,3.8,15.1Zm7-5.8a10.38781,10.38781,0,0,0,4.6,1.1V3.8C13.6,4.2,11.90005,6.2,10.80006,9.3ZM17.2,4v6.4a11.3736,11.3736,0,0,0,4-1.1C20.20005,6.50008,18.8,4.60006,17.2,4Zm-9.6,3.1A10.09072,10.09072,0,0,0,9.2,8.4,15.22636,15.22636,0,0,1,11.1,4.8,12.43985,12.43985,0,0,0,7.60007,7.1ZM20.8,4.8a12.28378,12.28378,0,0,1,1.9,3.6,10.092,10.092,0,0,0,1.6-1.3A10.14418,10.14418,0,0,0,20.8,4.8Z" fill="#d4d2cc"/></svg>