<?xml version="1.0" encoding="iso-8859-1"?>
<!-- Generator: Adobe Illustrator 18.0.0, SVG Export Plug-In . SVG Version: 6.00 Build 0)  -->
<!DOCTYPE svg PUBLIC "-//W3C//DTD SVG 1.1//EN" "http://www.w3.org/Graphics/SVG/1.1/DTD/svg11.dtd">
<svg version="1.1" id="Ebene_1" xmlns="http://www.w3.org/2000/svg" xmlns:xlink="http://www.w3.org/1999/xlink" x="0px" y="0px"
	 viewBox="0 0 32 32" style="enable-background:new 0 0 32 32;" xml:space="preserve">
<g>
	<path d="M20.1,11.4c0-1.7-2.3-2.9-3.4-6.8h-1.3c-1.2,3.8-3.4,5.1-3.4,6.8c0,2.3,1.8,4.1,4.1,4.1C18.3,15.5,20.1,13.6,20.1,11.4z"/>
	<path d="M23,15c0.6,0.3,1.2,0.5,2,0.5c2.3,0,4.1-1.9,4.1-4.2c-2.2-2.5-8.8-4-11.2-6.8h-0.6c1,2.7,3.6,4.9,3.6,6.8
		c0,1.2,0.6,2.4,1.4,3.1v6.6c0,0,0,0.1,0,0.1l-2-1.2l0.4,2.6l-2,1.7l2.7,0.6l1.2,2.5l1.2-2.3l2.7-0.2l-1.9-2l0.5-2.6l-2.1,0.9
		c0-0.1,0-0.1,0-0.2V15z"/>
	<circle cx="9.5" cy="22.6" r="0.5"/>
	<path d="M11.1,17.9c-0.7,0.1-1.2,0.7-1.3,1.3c-0.1,0-0.3,0-0.5,0v-4.4c1.1-0.8,1.8-2,1.8-3.5c0-1.8,2.6-4,3.6-6.8h-0.5
		C11.9,7.3,5.5,8.7,3,11.4c0,2.3,1.8,4.1,4.1,4.1c0.6,0,1.1-0.1,1.6-0.3v4.1c0,0,0,0,0,0c-0.2,0.1-0.5,0.2-0.7,0.3
		c-0.4-0.5-1.1-0.8-1.7-0.7c-0.9,0.2-1.5,1.1-1.3,2c0.2,0.8,0.8,1.3,1.5,1.3c0,0.2,0,0.4,0.1,0.6c0.3,1.7,2,2.3,3.6,2
		c1.7-0.3,2.8-1.6,2.4-3.2c0-0.2-0.1-0.4-0.2-0.6c0.6-0.4,1-1.1,0.8-1.8C13,18.3,12.1,17.7,11.1,17.9z M10.4,20.4
		c0.3-0.1,0.5,0.1,0.6,0.4c0.1,0.3-0.1,0.5-0.4,0.6c-0.3,0.1-0.5-0.1-0.6-0.4C10,20.7,10.1,20.4,10.4,20.4z M7.6,21.5
		C7.6,21.2,7.7,21,8,20.9c0.3-0.1,0.5,0.1,0.6,0.4c0.1,0.3-0.1,0.5-0.4,0.6C7.9,21.9,7.7,21.7,7.6,21.5z M9.9,24.1
		c-0.9,0.2-1.9-0.4-2.1-1.3l0.8-0.2c-0.1-0.5,0.3-1,0.8-1.1c0.5-0.1,1,0.2,1.1,0.7l0.8-0.2C11.4,23,10.8,23.9,9.9,24.1z"/>
</g>
</svg>
