<?xml version="1.0" encoding="iso-8859-1"?>
<!-- Generator: Adobe Illustrator 19.1.0, SVG Export Plug-In . SVG Version: 6.00 Build 0)  -->
<!DOCTYPE svg PUBLIC "-//W3C//DTD SVG 1.1//EN" "http://www.w3.org/Graphics/SVG/1.1/DTD/svg11.dtd">
<svg version="1.1" id="Ebene_1" xmlns="http://www.w3.org/2000/svg" xmlns:xlink="http://www.w3.org/1999/xlink" x="0px" y="0px"
	 viewBox="0 0 32 32" style="enable-background:new 0 0 32 32;" xml:space="preserve">
<path d="M19.885,5.09c0.911-0.955,2.189-1.557,3.615-1.557c2.761,0,5,2.233,5,4.987c0,1.211-0.451,2.308-1.171,3.172
	C25.879,8.581,23.189,6.167,19.885,5.09z M12.115,5.09C11.204,4.135,9.926,3.533,8.5,3.533c-2.761,0-5,2.233-5,4.987
	c0,1.212,0.451,2.308,1.171,3.172C6.121,8.581,8.811,6.167,12.115,5.09z M16.631,12.585h-2.116v5.628h0.035l5.286,2.458l0.894-1.913
	l-4.099-1.906V12.585z M24.17,26.338c0.488,0.487,0.488,1.276,0,1.763c-0.488,0.487-1.28,0.487-1.768,0l-1.889-1.885
	C19.141,26.86,17.616,27.23,16,27.23s-3.141-0.37-4.512-1.013l-1.889,1.885c-0.488,0.487-1.28,0.487-1.768,0
	c-0.488-0.487-0.488-1.276,0-1.763l1.48-1.476c-2.402-1.944-3.94-4.909-3.94-8.234c0-5.855,4.76-10.602,10.63-10.602
	c5.871,0,10.63,4.747,10.63,10.602c0,3.326-1.538,6.291-3.94,8.235L24.17,26.338z M24.38,16.628c0-4.609-3.759-8.358-8.38-8.358
	s-8.38,3.749-8.38,8.358c0,4.608,3.759,8.358,8.38,8.358S24.38,21.237,24.38,16.628z"/>
</svg>
