<?xml version="1.0" encoding="iso-8859-1"?>
<!-- Generator: Adobe Illustrator 18.0.0, SVG Export Plug-In . SVG Version: 6.00 Build 0)  -->
<!DOCTYPE svg PUBLIC "-//W3C//DTD SVG 1.1//EN" "http://www.w3.org/Graphics/SVG/1.1/DTD/svg11.dtd">
<svg version="1.1" id="Ebene_1" xmlns="http://www.w3.org/2000/svg" xmlns:xlink="http://www.w3.org/1999/xlink" x="0px" y="0px"
	 viewBox="0 0 32 32" style="enable-background:new 0 0 32 32;" xml:space="preserve">
<path d="M21,28H11v-0.5c2.5,0,2.5-1,2.5-3.5h5c0,2.5,0,3.5,2.5,3.5V28z M30,5v17c0,0.6-0.5,1-1.1,1H3.1C2.5,23,2,22.6,2,22V5
	c0-0.6,0.5-1,1.1-1h25.8C29.5,4,30,4.4,30,5z M17,21c0-0.6-0.4-1-1-1s-1,0.4-1,1c0,0.6,0.4,1,1,1S17,21.6,17,21z M28,6H4v13h24V6z"
	/>
</svg>
