<?xml version="1.0" encoding="iso-8859-1"?>
<!-- Generator: Adobe Illustrator 18.0.0, SVG Export Plug-In . SVG Version: 6.00 Build 0)  -->
<!DOCTYPE svg PUBLIC "-//W3C//DTD SVG 1.1//EN" "http://www.w3.org/Graphics/SVG/1.1/DTD/svg11.dtd">
<svg version="1.1" id="Ebene_1" xmlns="http://www.w3.org/2000/svg" xmlns:xlink="http://www.w3.org/1999/xlink" x="0px" y="0px"
	 viewBox="0 0 32 32" style="enable-background:new 0 0 32 32;" xml:space="preserve">
<path style="fill-rule:evenodd;clip-rule:evenodd;" d="M17.2,4.2v2.1H16h-1.2V4c0-0.1,0-0.2-0.1-0.2l-1.5-0.6
	c-0.4-0.1-0.3-0.7,0.1-0.7l2.9,0.6C16.8,3.2,17.2,3.5,17.2,4.2L17.2,4.2z M16,15.5c-5.1,0-10.2-2.2-11-6.5C4.9,8,5.4,7.3,6.6,7.3H16
	h9.4C26.6,7.3,27.1,8,27,9C26.2,13.4,21.1,15.5,16,15.5L16,15.5z M18.8,16.3L18,28.7c0,0.5-0.4,0.8-0.8,0.8h-2.2
	c-0.5,0-0.8-0.4-0.8-0.8l-0.8-12.3c0.9,0.1,1.9,0.2,2.8,0.2C16.9,16.6,17.9,16.5,18.8,16.3z"/>
</svg>
