<?xml version="1.0" encoding="iso-8859-1"?>
<!-- Generator: Adobe Illustrator 18.0.0, SVG Export Plug-In . SVG Version: 6.00 Build 0)  -->
<!DOCTYPE svg PUBLIC "-//W3C//DTD SVG 1.1//EN" "http://www.w3.org/Graphics/SVG/1.1/DTD/svg11.dtd">
<svg version="1.1" id="Ebene_1" xmlns="http://www.w3.org/2000/svg" xmlns:xlink="http://www.w3.org/1999/xlink" x="0px" y="0px"
	 viewBox="0 0 32 32" style="enable-background:new 0 0 32 32;" xml:space="preserve">
<path d="M15,3.1v8.8c0,0.9-0.9,1.9-2,1.9h-0.3v14.7c0,0.6-0.5,1-1,1h-0.3c-0.6,0-1-0.5-1-1l0-14.7H10c-1.1,0-2-0.8-2-2.1V3.1
	C8,2.3,9,2.2,9,3v7h1V3c0-0.7,1-0.8,1,0v7h1V3c0-0.7,1-0.8,1,0v7h1V3C14,2.3,15,2.3,15,3.1z M23,29.5c0.6,0,1-0.5,1-1V3.4
	c0-0.5-0.4-0.9-0.9-0.9c-0.1,0-0.1,0-0.2,0l-0.7,0.1c-0.5,0.1-1,0.6-1.1,1.1l-1.6,12.6c-0.1,0.5,0.3,1.1,0.8,1.3l0.5,0.2
	c0.4,0.1,0.7,0.5,0.7,0.9l0,9.9c0,0.6,0.5,1,1,1H23z"/>
</svg>
