<?xml version="1.0" encoding="iso-8859-1"?>
<!-- Generator: Adobe Illustrator 18.0.0, SVG Export Plug-In . SVG Version: 6.00 Build 0)  -->
<!DOCTYPE svg PUBLIC "-//W3C//DTD SVG 1.1//EN" "http://www.w3.org/Graphics/SVG/1.1/DTD/svg11.dtd">
<svg version="1.1" id="Ebene_1" xmlns="http://www.w3.org/2000/svg" xmlns:xlink="http://www.w3.org/1999/xlink" x="0px" y="0px"
	 viewBox="0 0 32 32" style="enable-background:new 0 0 32 32;" xml:space="preserve">
<g>
	<g>
		<g>
			<path d="M26.1,19c0.4,0.5,0.7,1.1,0.7,1.9c0,0.8-0.1,1.1-0.5,1.6c-0.2,0.3-0.5,0.5-0.8,0.6l-0.1,5.2h-0.6l-0.1-4.9
				c-0.1,0-0.3,0-0.4,0c-0.2,0-6.8,5-6.8,5s-0.2,0-1.4,0c-4.6,0-6.1-0.8-6.1-1.2c0.1-0.7,1.2,0,2.9-0.3c0.4-0.1,2.4-0.9,3.2-1.7
				c0.1-0.1,0.2-0.1,2.6-5.4L17.3,2.5c0,0,0.1,0,0.3,0L22.4,4V21c0,0.2,0.4,0.2,0.4,0v-17l0.8,0.3v10.5c0,0.2,0.4,0.2,0.4,0V4.4
				l3.3,1C26.8,10.1,26,16.1,26,16.3C25.9,17.6,26,18.5,26.1,19z"/>
		</g>
	</g>
</g>
<g>
	<g>
		<path d="M17.3,19.2c-0.5-0.6-0.9-1.3-1.8-0.7c-0.5,0.3-1,0.6-1.4,0.9l0,0c0-0.1-0.2-0.1-0.2-0.1c-0.1,0-0.1,0.1-0.2,0.1
			c-0.1,0.1-0.1,0.2-0.1,0.3l0,0c-0.4,0.3-0.9,0.5-1.3,0.7l0-0.1c0-0.1-0.2-0.1-0.3-0.1c-0.1,0-0.1,0.1-0.2,0.1
			c-0.1,0-0.1,0.2-0.1,0.3l0,0.1c-0.4,0.2-0.7,0.4-1.1,0.5l0-0.1c0-0.1-0.2-0.1-0.2-0.1c-0.1,0-0.1,0.1-0.2,0.1
			c-0.1,0-0.1,0.2-0.1,0.2l0,0.1c-3.6,1.6-5.3,1.3-6,1.6c-0.6,0.4-0.7,0.8-0.8,1c3.6,0.8,7.1,1.1,10.2,1.1c0.5-0.3,1-0.5,1.3-0.8
			l0,0C15,24.1,15.7,22.7,17.3,19.2L17.3,19.2z M10.7,22.1c-0.3,0.1-0.7,0.1-0.7,0c0-0.1,0.1-0.2,0.3-0.3l0.1,0.1
			c0,0.1,0.2,0.1,0.3,0.1l0.1,0c0.1-0.1,0.2-0.2,0.2-0.3l0-0.1c0.2,0,0.4,0,0.4,0.1C11.3,21.7,11.1,22,10.7,22.1z M12.4,21.2
			c-0.3,0.2-0.6,0.2-0.7,0c0-0.1,0-0.2,0.2-0.3l0,0c0,0.1,0.2,0.1,0.3,0l0.1,0c0.1-0.1,0.2-0.2,0.2-0.3l0-0.1
			c0.2-0.1,0.4-0.1,0.5,0.1C13,20.8,12.8,21,12.4,21.2z M14.2,20.3c-0.3,0.2-0.6,0.2-0.7,0c0-0.1,0-0.2,0.2-0.4l0,0.1
			c0,0.1,0.2,0.1,0.3,0l0.1,0c0.1-0.1,0.2-0.2,0.2-0.3l0-0.1c0.2-0.1,0.4,0,0.4,0.1C14.8,19.9,14.6,20.1,14.2,20.3z"/>
	</g>
	<g>
		<path d="M9.5,25.9c0.2,0,0.4,0,0.6,0c0.3,0,0.6,0.1,1,0.1c0.3,0,0.5,0,0.8-0.1c0.2,0,0.7-0.2,1.3-0.5c-3-0.1-6.4-0.4-10-1.1
			C3,24.4,3,25.4,3.6,25.6c0,0,0,0,0,0c0,0,0,0,0,0c0,0.1,0.1,0.2,0.2,0.3c0.2,0,0.3,0,0.3-0.1c0.1,0,0.2,0.1,0.3,0.1
			c0,0.1,0.1,0.2,0.3,0.3c0.2,0,0.3,0,0.3-0.1c0.2,0,0.3,0.1,0.5,0.1c0,0.1,0.1,0.2,0.3,0.2c0.1,0,0.3,0,0.3-0.1
			c0.2,0,0.4,0.1,0.7,0.1c0,0.1,0.1,0.2,0.3,0.2c0.1,0,0.3,0,0.3-0.1c0.3,0,0.5,0.1,0.8,0.1c0,0.1,0.1,0.1,0.3,0.2
			c0.1,0,0.1,0,0.1,0C8.6,26.3,8.8,25.9,9.5,25.9z"/>
	</g>
</g>
</svg>
