<?xml version="1.0" encoding="iso-8859-1"?>
<!-- Generator: Adobe Illustrator 18.0.0, SVG Export Plug-In . SVG Version: 6.00 Build 0)  -->
<!DOCTYPE svg PUBLIC "-//W3C//DTD SVG 1.1//EN" "http://www.w3.org/Graphics/SVG/1.1/DTD/svg11.dtd">
<svg version="1.1" id="Ebene_1" xmlns="http://www.w3.org/2000/svg" xmlns:xlink="http://www.w3.org/1999/xlink" x="0px" y="0px"
	 viewBox="0 0 32 32" style="enable-background:new 0 0 32 32;" xml:space="preserve">
<path style="fill-rule:evenodd;clip-rule:evenodd;" d="M27,4H5C4.4,4,4,4.4,4,5v22c0,0.6,0.4,1,1,1h22c0.6,0,1-0.4,1-1V5
	C28,4.4,27.6,4,27,4z M10,7c1.7,0,3,1.3,3,3s-1.3,3-3,3s-3-1.3-3-3S8.3,7,10,7z M10,24c-2.2,0-4-1.8-4-4c0-2.2,1.8-4,4-4s4,1.8,4,4
	C14,22.2,12.2,24,10,24z M17,10c0-1.7,1.3-3,3-3s3,1.3,3,3s-1.3,3-3,3S17,11.7,17,10z M18.8,26.6c-0.3,0-0.5-0.2-0.5-0.5
	c0-0.3,0.2-0.5,0.5-0.5s0.5,0.2,0.5,0.5C19.2,26.4,19,26.6,18.8,26.6z M20.8,26.6c-0.3,0-0.5-0.2-0.5-0.5c0-0.3,0.2-0.5,0.5-0.5
	s0.5,0.2,0.5,0.5C21.2,26.4,21,26.6,20.8,26.6z M22.8,26.6c-0.3,0-0.5-0.2-0.5-0.5c0-0.3,0.2-0.5,0.5-0.5s0.5,0.2,0.5,0.5
	C23.2,26.4,23,26.6,22.8,26.6z M21.5,23c-1.7,0-3-1.3-3-3s1.3-3,3-3s3,1.3,3,3S23.2,23,21.5,23z M24.8,26.6c-0.3,0-0.5-0.2-0.5-0.5
	c0-0.3,0.2-0.5,0.5-0.5s0.5,0.2,0.5,0.5C25.2,26.4,25,26.6,24.8,26.6z M23,13h-1.4c1.1-0.6,1.8-1.7,1.8-3s-0.7-2.4-1.8-3H23
	c1.7,0,3,1.3,3,3S24.7,13,23,13z"/>
</svg>
