<svg xmlns="http://www.w3.org/2000/svg" viewBox="0 0 32 32"><title>state0023</title><path d="M22.4325,3.90119a.802.802,0,0,1,.39062.10089l.06946.03353a.867.867,0,0,1,.32812,1.131l-1.75,3.01873-.21167.36514.41663-.0674,2.9823-.48259a.78241.78241,0,0,1,.15356-.01525.74172.74172,0,0,1,.68348.44335.81026.81026,0,0,1,.03942.74538.782.782,0,0,1-.56713.44813l-4.9,1.13745-.08459.01962-.04346.07514-2.275,3.93755-.17334.30006h4.983l.0592-.063,3.45215-3.67061a.85049.85049,0,0,1,.60425-.25379.81628.81628,0,0,1,.69812.38455.85406.85406,0,0,1-.06787.9581L25.3385,14.76587l-.26453.326H28.95a.86142.86142,0,0,1,.8501.85v.08745a.83.83,0,0,1-.8501.80628H25.074l.26453.326,1.87647,2.3127a.86667.86667,0,0,1,.07714.95647.84694.84694,0,0,1-.72082.3922.77235.77235,0,0,1-.58191-.2494l-3.4563-3.675-.0592-.063H17.53467l.17334.30006,2.275,3.93755.04346.07514.08459.01962,4.89368,1.13587a.87877.87877,0,0,1,.58911.51926.738.738,0,0,1-.05627.678.86152.86152,0,0,1-.756.42865.89726.89726,0,0,1-.09009-.00443l-2.975-.43755-.40991-.06029.20789.35847,1.75427,3.02579a.7814.7814,0,0,1-.31482,1.11384l-.105.05386a.765.765,0,0,1-.41126.11939.78651.78651,0,0,1-.708-.444l-1.7063-2.975-.21143-.36877-.14929.398-1.0415,2.78076a.94028.94028,0,0,1-.82752.502.81119.81119,0,0,1-.66833-.33373.78855.78855,0,0,1-.10254-.72136l1.44372-4.81244.02491-.08273-.04322-.0748-2.275-3.93756L16,17.72955l-.17322.29972-2.275,3.93756-.04322.0748.02491.08273L14.979,26.94257a.77323.77323,0,0,1-.11181.70335.82074.82074,0,0,1-.66089.346.809.809,0,0,1-.77527-.52651l-1.05005-2.8-.14831-.39564-.21192.36556L10.275,27.647a.904.904,0,0,1-.75134.42311.80227.80227,0,0,1-.39038-.10068l-.0697-.0338a.867.867,0,0,1-.32874-1.12985l1.75-2.975.21643-.36792-.42114.06916-2.93823.48253a.78173.78173,0,0,1-.15357.01528.74167.74167,0,0,1-.68335-.4434.81025.81025,0,0,1-.03942-.74538.78165.78165,0,0,1,.56713-.448l4.9-1.13755.08447-.01962.04346-.07514,2.275-3.93745.17334-.30006H9.526l-.0592.063-3.452,3.6706a.85061.85061,0,0,1-.60437.25376.81637.81637,0,0,1-.69812-.38445.85412.85412,0,0,1,.068-.95815L6.6615,17.24917l.26453-.326H3.09375a.89378.89378,0,1,1,0-1.78755H6.92114L6.66272,14.811,4.785,12.45314a.86664.86664,0,0,1-.07727-.95644.84712.84712,0,0,1,.72083-.3922.77243.77243,0,0,1,.582.2494l3.45618,3.675.0592.063h4.983l-.17334-.30006-2.275-3.93755-.04346-.07514-.08459-.01962L7.03894,9.62364a.8785.8785,0,0,1-.589-.51917.738.738,0,0,1,.05615-.678.86178.86178,0,0,1,.756-.42868c.0326,0,.06507.00177.0868.00391l2.93127.48128.42114.06916-.21643-.36792L8.7312,5.20323a.78152.78152,0,0,1,.31458-1.11376l.10534-.05385a.76424.76424,0,0,1,.41114-.11945.787.787,0,0,1,.70849.44475l1.75,3.01872.21192.36556.14831-.39564,1.04553-2.789a.89438.89438,0,0,1,.77979-.53738.811.811,0,0,1,.66821.33363.78855.78855,0,0,1,.10266.72135L13.53345,9.89069l-.02491.08274.04322.07479,2.275,3.93745L16,14.28538l.17322-.29971,2.275-3.93745.04322-.07479-.02491-.08274L17.021,5.07234a.77313.77313,0,0,1,.11157-.70317.821.821,0,0,1,.66113-.346.80961.80961,0,0,1,.776.52837l1.05,2.71255.15137.39107.20862-.36377,1.70141-2.96712a.904.904,0,0,1,.75135-.42307" fill="#00b0db"/></svg>