<?xml version="1.0" encoding="iso-8859-1"?>
<!-- Generator: Adobe Illustrator 19.1.0, SVG Export Plug-In . SVG Version: 6.00 Build 0)  -->
<!DOCTYPE svg PUBLIC "-//W3C//DTD SVG 1.1//EN" "http://www.w3.org/Graphics/SVG/1.1/DTD/svg11.dtd">
<svg version="1.1" id="Ebene_1" xmlns="http://www.w3.org/2000/svg" xmlns:xlink="http://www.w3.org/1999/xlink" x="0px" y="0px"
	 viewBox="0 0 32 32" style="enable-background:new 0 0 32 32;" xml:space="preserve">
<path style="fill-rule:evenodd;clip-rule:evenodd;" d="M23.311,15.996c0,4.038-3.273,7.311-7.311,7.311s-7.311-3.273-7.311-7.311
	S11.962,8.686,16,8.686S23.311,11.959,23.311,15.996z M16,6.999c0.621,0,1.125-0.499,1.125-1.135V3.635
	C17.125,3.008,16.626,2.5,16,2.5c-0.621,0-1.125,0.499-1.125,1.135v2.228C14.875,6.491,15.374,6.999,16,6.999z M8.037,9.628
	c0.443,0.443,1.156,0.45,1.598,0.007c0.439-0.439,0.443-1.148-0.007-1.598L8.052,6.462c-0.443-0.443-1.156-0.45-1.598-0.007
	C6.015,6.893,6.011,7.602,6.461,8.052L8.037,9.628z M6.999,16c0-0.621-0.499-1.125-1.135-1.125H3.635
	C3.008,14.875,2.5,15.375,2.5,16c0,0.621,0.499,1.125,1.135,1.125h2.228C6.491,17.125,6.999,16.625,6.999,16z M8.037,22.372
	l-1.576,1.576c-0.443,0.443-0.45,1.156-0.007,1.598c0.439,0.439,1.148,0.443,1.598-0.007l1.576-1.576
	c0.443-0.443,0.45-1.156,0.007-1.598C9.196,21.926,8.487,21.922,8.037,22.372z M16,25.001c-0.621,0-1.125,0.499-1.125,1.135v2.228
	c0,0.627,0.499,1.135,1.125,1.135c0.621,0,1.125-0.499,1.125-1.135v-2.228C17.125,25.509,16.626,25.001,16,25.001z M23.963,22.372
	c-0.443-0.443-1.156-0.45-1.598-0.007c-0.439,0.439-0.443,1.148,0.007,1.598l1.576,1.576c0.443,0.443,1.156,0.45,1.598,0.007
	c0.439-0.439,0.443-1.148-0.007-1.598L23.963,22.372z M28.365,14.875h-2.228c-0.627,0-1.135,0.499-1.135,1.125
	c0,0.621,0.499,1.125,1.135,1.125h2.228c0.627,0,1.135-0.499,1.135-1.125C29.5,15.379,29.001,14.875,28.365,14.875z M23.963,9.628
	l1.576-1.576c0.443-0.443,0.45-1.156,0.007-1.598c-0.439-0.439-1.148-0.443-1.598,0.007l-1.576,1.576
	c-0.443,0.443-0.45,1.156-0.007,1.598C22.804,10.074,23.513,10.078,23.963,9.628z"/>
</svg>
