<?xml version="1.0" encoding="iso-8859-1"?>
<!-- Generator: Adobe Illustrator 18.0.0, SVG Export Plug-In . SVG Version: 6.00 Build 0)  -->
<!DOCTYPE svg PUBLIC "-//W3C//DTD SVG 1.1//EN" "http://www.w3.org/Graphics/SVG/1.1/DTD/svg11.dtd">
<svg version="1.1" id="Ebene_1" xmlns="http://www.w3.org/2000/svg" xmlns:xlink="http://www.w3.org/1999/xlink" x="0px" y="0px"
	 viewBox="0 0 32 32" style="enable-background:new 0 0 32 32;" xml:space="preserve">
<path style="fill-rule:evenodd;clip-rule:evenodd;" d="M6,27h20v2H6V27z M25,3L25,3l-5,0c-0.5,0-0.9,0.1-1.3,0.3L7,9
	c-0.6,0.3-0.7,1,0,1h18v14H10v2h16v-1.8V24V3H25z M14,10l-1,0v13h1V10z M22.3,20.8C22.3,20.8,22.3,20.8,22.3,20.8l0.6,0.1
	c0.2,0,0.4,0.2,0.4,0.4v0.4h-1.2h0h-1.2v-0.4c0-0.2,0.2-0.4,0.4-0.4h0.6c0,0,0-0.1,0-0.1c0,0,0,0,0-0.1c0-0.1-0.1-0.2-0.3-0.5
	c0,0,0,0,0,0c-0.4-0.1-0.7-0.3-0.8-0.6c-0.4,0-0.7-0.3-0.8-0.7c-0.1-0.4,0.2-0.8,0.6-0.9c0,0,0,0,0,0c0.1-0.4,0.3-0.6,0.7-0.7
	c0.3,0,0.6,0.1,0.8,0.4c0.2-0.3,0.4-0.4,0.8-0.4c0.4,0,0.6,0.3,0.7,0.7c0,0,0,0,0,0c0.4,0,0.6,0.4,0.6,0.9c-0.1,0.4-0.4,0.8-0.8,0.7
	c-0.1,0.3-0.4,0.6-0.8,0.6c0,0,0,0,0,0C22.3,20.5,22.3,20.6,22.3,20.8C22.3,20.7,22.3,20.8,22.3,20.8z M22,20.2c-0.1,0-0.1,0-0.2,0
	c0,0-0.1,0-0.1,0c0.1,0,0.1,0.1,0.2,0.1C22,20.3,22,20.3,22,20.2z M22.4,20.3c0,0-0.1,0-0.1,0c-0.1,0-0.1,0-0.2,0
	c0,0.1,0.1,0.1,0.1,0.2C22.2,20.3,22.3,20.3,22.4,20.3z M22,21.8h-1l0.2,0.9c0,0.2,0.1,0.3,0.3,0.3H22h0h0.5c0.2,0,0.3-0.1,0.3-0.3
	l0.2-0.9H22L22,21.8z"/>
</svg>
