<?xml version="1.0" encoding="iso-8859-1"?>
<!-- Generator: Adobe Illustrator 18.0.0, SVG Export Plug-In . SVG Version: 6.00 Build 0)  -->
<!DOCTYPE svg PUBLIC "-//W3C//DTD SVG 1.1//EN" "http://www.w3.org/Graphics/SVG/1.1/DTD/svg11.dtd">
<svg version="1.1" id="Ebene_1" xmlns="http://www.w3.org/2000/svg" xmlns:xlink="http://www.w3.org/1999/xlink" x="0px" y="0px"
	 viewBox="0 0 32 32" style="enable-background:new 0 0 32 32;" xml:space="preserve">
<path id="padlock" d="M8.9,13.6v-4c0-3.9,3.2-7.1,7.1-7.1c3.9,0,7.1,3.2,7.1,7.1v4c-0.7-0.8-1.6-1.5-2.5-2v-2c0-2.5-2-4.5-4.5-4.5
	c-2.5,0-4.5,2-4.5,4.5v2C10.5,12.1,9.6,12.8,8.9,13.6z M25.1,20.4c0,5-4.1,9.1-9.1,9.1c-5,0-9.1-4.1-9.1-9.1c0-5,4.1-9.1,9.1-9.1
	C21,11.3,25.1,15.4,25.1,20.4z M22.8,20.4c0-3.7-3-6.8-6.8-6.8c-3.7,0-6.8,3-6.8,6.8s3,6.8,6.8,6.8C19.7,27.2,22.8,24.2,22.8,20.4z
	 M21.7,20.4c0,3.1-2.6,5.7-5.7,5.7c-3.1,0-5.7-2.6-5.7-5.7c0-3.1,2.6-5.7,5.7-5.7C19.1,14.7,21.7,17.3,21.7,20.4z M17.5,19
	c0-0.9-0.7-1.6-1.6-1.6c-0.9,0-1.6,0.7-1.6,1.6c0,0.7,0.6,1.2,0.6,1.2c0.1,0.1,0.1,0.2,0.1,0.3V24c0,0.1,0.1,0.2,0.2,0.2h1.2
	c0.1,0,0.2-0.1,0.2-0.2v-3.4c0-0.1,0.1-0.2,0.1-0.3C16.9,20.2,17.5,19.7,17.5,19z"/>
</svg>
