<?xml version="1.0" encoding="iso-8859-1"?>
<!-- Generator: Adobe Illustrator 18.0.0, SVG Export Plug-In . SVG Version: 6.00 Build 0)  -->
<!DOCTYPE svg PUBLIC "-//W3C//DTD SVG 1.1//EN" "http://www.w3.org/Graphics/SVG/1.1/DTD/svg11.dtd">
<svg version="1.1" id="Ebene_1" xmlns="http://www.w3.org/2000/svg" xmlns:xlink="http://www.w3.org/1999/xlink" x="0px" y="0px"
	 viewBox="0 0 32 32" style="enable-background:new 0 0 32 32;" xml:space="preserve">
<path d="M21.5,15V7.4c0-3-2.4-5.4-5.4-5.4h-0.1c-3,0-5.4,2.4-5.4,5.4V15c-2.1,1.8-3.3,4.6-2.9,7.6c0.5,3.8,3.6,6.8,7.4,7.3
	c0.3,0,0.7,0.1,1,0.1c4.7,0,8.5-3.8,8.5-8.5C24.5,18.9,23.3,16.6,21.5,15z M16,28.5c-0.3,0-0.5,0-0.8,0c-3.1-0.4-5.7-2.9-6.1-6
	c-0.3-2.4,0.6-4.7,2.4-6.3l0.5-0.4V15V7.4c0-2.2,1.8-3.9,3.9-3.9h0.1c2.2,0,3.9,1.8,3.9,3.9V8h-2.5c-0.6,0-1,0.4-1,1
	c0,0.6,0.4,1,1,1H20v2h-2.5c-0.6,0-1,0.4-1,1c0,0.6,0.4,1,1,1H20v1v0.7l0.5,0.4c1.6,1.3,2.5,3.3,2.5,5.3C23,25.4,19.9,28.5,16,28.5z
	 M21,21.3c0,2.8-2.2,5-5,5s-5-2.2-5-5c0-2.8,2.2-0.6,5-0.6S21,18.6,21,21.3z"/>
</svg>
