<?xml version="1.0" encoding="iso-8859-1"?>
<!-- Generator: Adobe Illustrator 18.0.0, SVG Export Plug-In . SVG Version: 6.00 Build 0)  -->
<!DOCTYPE svg PUBLIC "-//W3C//DTD SVG 1.1//EN" "http://www.w3.org/Graphics/SVG/1.1/DTD/svg11.dtd">
<svg version="1.1" id="Ebene_1" xmlns="http://www.w3.org/2000/svg" xmlns:xlink="http://www.w3.org/1999/xlink" x="0px" y="0px"
	 viewBox="0 0 32 32" style="enable-background:new 0 0 32 32;" xml:space="preserve">
<path d="M17.5,19l-3.1,3.1h-1.3v1.2h-1.2v1.2h-1.2v1.2H9.5v1.3c-2,1.6-5.1,0.8-5.3,0.4l10.5-10.5C15.5,17.8,16.4,18.5,17.5,19z
	 M14.1,16.2c-0.4-0.5-0.7-1-0.9-1.6c0,0-6.2,6.2-7.8,7.8c-1.6,1.6-1.6,4.1-1.6,4.1L14.1,16.2z M13.7,11.3c0-4,3.2-7.2,7.2-7.2
	c4,0,7.2,3.2,7.2,7.2c0,4-3.2,7.2-7.2,7.2C16.9,18.5,13.7,15.2,13.7,11.3z M21.5,9.5c0,1,0.8,1.8,1.8,1.8c1,0,1.8-0.8,1.8-1.8
	c0-1-0.8-1.8-1.8-1.8C22.3,7.7,21.5,8.5,21.5,9.5z"/>
</svg>
