<?xml version="1.0" encoding="iso-8859-1"?>
<!-- Generator: Adobe Illustrator 18.0.0, SVG Export Plug-In . SVG Version: 6.00 Build 0)  -->
<!DOCTYPE svg PUBLIC "-//W3C//DTD SVG 1.1//EN" "http://www.w3.org/Graphics/SVG/1.1/DTD/svg11.dtd">
<svg version="1.1" id="Ebene_1" xmlns="http://www.w3.org/2000/svg" xmlns:xlink="http://www.w3.org/1999/xlink" x="0px" y="0px"
	 viewBox="0 0 32 32" style="enable-background:new 0 0 32 32;" xml:space="preserve">
<path d="M19,27.2c0,0.5-0.3,0.8-0.6,0.8H13c-0.3,0-0.6-0.4-0.6-0.8c0-0.7,1.7-1.1,2.4-1.3c0-0.3,0-0.6,0.1-0.8
	c-0.3-0.9-1-1.9-1.7-2.9c0.5-0.1,1-0.4,1.4-0.7c0.3,0.4,0.6,0.8,0.8,1.2c0.4-1.1,0.9-2,1.4-2.7c0,0,0,0,0,0c0.5,0.4,1.2,0.7,1.8,0.9
	c-0.7,1.1-1.8,3-1.8,5C17.4,26,19,26.4,19,27.2z M28.5,12.9c0-1.6-1.2-3-2.8-3.1c-0.4-1.7-2.4-3-4.9-3.2c-0.2-1.6-1.5-2.8-3.1-2.8
	c-1.1,0-2.1,0.6-2.6,1.4c-0.2,0-0.4-0.1-0.6-0.1c-0.7,0-1.4,0.3-1.9,0.8c-0.3-0.2-0.7-0.3-1-0.3c-1.2,0-2.2,1-2.4,2.3c0,0,0,0,0,0
	C8.2,8,7.3,8.5,7,9.2c-1.6,0.1-2.9,1.5-2.9,3.1c0,0.5,0.1,0.9,0.3,1.3c-0.6,0.6-0.9,1.4-0.9,2.3c0,2.2,2.4,4.1,5.4,4.1
	c0.6,0.9,1.7,1.5,3,1.5c1.5,0,2.7-0.8,3.3-2c0,0,0.1,0,0.1,0c0.6,0,1.2-0.2,1.5-0.6c0.9,0.8,2.2,1.3,3.6,1.3c2.8,0,5-1.9,5-4.3
	c0,0,0,0,0,0C27.1,16,28.5,14.6,28.5,12.9z"/>
</svg>
