<?xml version="1.0" encoding="iso-8859-1"?>
<!-- Generator: Adobe Illustrator 18.0.0, SVG Export Plug-In . SVG Version: 6.00 Build 0)  -->
<!DOCTYPE svg PUBLIC "-//W3C//DTD SVG 1.1//EN" "http://www.w3.org/Graphics/SVG/1.1/DTD/svg11.dtd">
<svg version="1.1" id="Ebene_1" xmlns="http://www.w3.org/2000/svg" xmlns:xlink="http://www.w3.org/1999/xlink" x="0px" y="0px"
	 viewBox="0 0 32 32" style="enable-background:new 0 0 32 32;" xml:space="preserve">
<path d="M26.5,12.6c-0.9,1.1-1,2.2-1.5,3.4c-0.4,0.9-1,1.8-2,2.2c-0.8,0.3-2.4,0.5-2.9-0.3c1.2-0.2,2-2,2-2c0.5-1.9,1-2.3,1-2.3
	c0.2-0.3,0.5-0.5,0.3-0.8c0,0-1.8,0-4.6,2.3c-0.4-3.2,3-3.9,3-3.9c0.8-0.3,3.4-0.6,5.1,0.4C27.4,11.9,26.7,12.4,26.5,12.6z
	 M25.9,27.8c0,0.4-0.1,0.8-0.2,1.2H4.8c0,0,0,0,0-0.1c0-2.6,2.8-4.7,5.4-4.7c0.3,0,0.6,0,0.9,0.1c0.8-1.5,2.4-2.5,4.3-2.7
	c0.4-2,0.3-4.3-1.2-6.4c-0.1,0.1-0.1,0.3-0.2,0.4c-0.7,1.2-2.3,1.6-3.4,0.9c-0.8-0.5-1.2-1.3-1.2-2.2c-0.8,0.5-1.8,0.5-2.6,0
	c-1.2-0.7-1.6-2.3-0.9-3.4c0.2-0.4,0.6-0.7,0.9-0.9c0,0-0.1-0.1-0.1-0.1C5.6,9.2,5.2,7.7,5.9,6.5c0.7-1.2,2.2-1.6,3.4-0.9
	c0-0.5,0.1-0.9,0.4-1.4c0.7-1.2,2.3-1.6,3.4-0.9c0.8,0.5,1.2,1.3,1.2,2.1c0.8-0.5,1.8-0.6,2.7-0.1c1.2,0.7,1.6,2.3,0.9,3.4
	c-0.2,0.4-0.5,0.7-0.9,0.9c0.1,0,0.1,0.1,0.2,0.1c1.1,0.6,1.5,2,1,3.1c-0.1,0.2-0.1,0.4-0.3,0.6c-0.6,1-1.7,1.4-2.7,1.2
	c0.6,0.7,1.3,1.7,1.7,2.8c1.1-1,2.3-1.7,2.9-1.9c0.1,0,0.4-0.1,0.5,0.1c0.2,0.3-0.1,0.5-0.4,0.7c-1.9,1.7-2.2,2.9-2.4,3.7
	c0,0.1-0.1,0.3-0.1,0.4c0,0.5,0,0.9,0,1.2c1.5,0.4,2.8,1.4,3.4,2.7c0.4-0.2,0.9-0.3,1.4-0.3C24.3,24.2,25.9,25.8,25.9,27.8z
	 M14.8,11.5c0.9-1.6,0.3-3.5-1.2-4.4C12,6.2,10,6.8,9.2,8.3c-0.9,1.6-0.3,3.5,1.2,4.4C12,13.6,13.9,13.1,14.8,11.5z"/>
</svg>
