<?xml version="1.0" encoding="iso-8859-1"?>
<!-- Generator: Adobe Illustrator 18.0.0, SVG Export Plug-In . SVG Version: 6.00 Build 0)  -->
<!DOCTYPE svg PUBLIC "-//W3C//DTD SVG 1.1//EN" "http://www.w3.org/Graphics/SVG/1.1/DTD/svg11.dtd">
<svg version="1.1" id="Ebene_1" xmlns="http://www.w3.org/2000/svg" xmlns:xlink="http://www.w3.org/1999/xlink" x="0px" y="0px"
	 viewBox="0 0 32 32" style="enable-background:new 0 0 32 32;" xml:space="preserve">
<path style="fill-rule:evenodd;clip-rule:evenodd;" d="M29,7L29,7c0.6,0,1,0.4,1,1v18h-2V8C28,7.4,28.4,7,29,7z M2,8v18h2V8
	c0-0.5-0.4-1-1-1h0C2.4,7,2,7.4,2,8z M27,23v2H5V8h22v2H9.5C9.2,10,9,10.2,9,10.5C9,10.8,9.2,11,9.5,11H27v2H9.5
	C9.2,13,9,13.2,9,13.5C9,13.8,9.2,14,9.5,14H27v2H9.5C9.2,16,9,16.2,9,16.5C9,16.8,9.2,17,9.5,17H27v2H9.5C9.2,19,9,19.2,9,19.5
	C9,19.8,9.2,20,9.5,20H27v2H9.5C9.2,22,9,22.2,9,22.5C9,22.8,9.2,23,9.5,23H27z M7.5,15.5C7.5,15.2,7.3,15,7,15s-0.5,0.2-0.5,0.5v2
	C6.5,17.8,6.7,18,7,18s0.5-0.2,0.5-0.5V15.5z"/>
</svg>
