<?xml version="1.0" encoding="iso-8859-1"?>
<!-- Generator: Adobe Illustrator 18.0.0, SVG Export Plug-In . SVG Version: 6.00 Build 0)  -->
<!DOCTYPE svg PUBLIC "-//W3C//DTD SVG 1.1//EN" "http://www.w3.org/Graphics/SVG/1.1/DTD/svg11.dtd">
<svg version="1.1" id="Ebene_1" xmlns="http://www.w3.org/2000/svg" xmlns:xlink="http://www.w3.org/1999/xlink" x="0px" y="0px"
	 viewBox="0 0 32 32" style="enable-background:new 0 0 32 32;" xml:space="preserve">
<path d="M16,25.1c-0.4,0-0.7,0.3-0.7,0.7v1.9c0,0.4,0.3,0.7,0.7,0.7s0.7-0.3,0.7-0.7v-1.9C16.7,25.4,16.4,25.1,16,25.1z M22.6,22.3
	c-0.2,0-0.4,0.1-0.5,0.2c-0.1,0.1-0.2,0.3-0.2,0.5s0.1,0.4,0.2,0.5l1.3,1.3c0.3,0.3,0.8,0.3,1,0c0.1-0.1,0.2-0.3,0.2-0.5
	s-0.1-0.4-0.2-0.5l-1.3-1.3C23,22.4,22.8,22.3,22.6,22.3z M9.3,22.3c-0.2,0-0.4,0.1-0.5,0.2l-1.3,1.3c-0.1,0.1-0.2,0.3-0.2,0.5
	s0.1,0.4,0.2,0.5c0.3,0.3,0.8,0.3,1,0l1.3-1.3c0.1-0.1,0.2-0.3,0.2-0.5s-0.1-0.4-0.2-0.5C9.7,22.4,9.5,22.3,9.3,22.3z M29.1,17.4
	L17.1,9V5.3c0-0.6-0.5-1.1-1.1-1.1c-0.6,0-1.1,0.5-1.1,1.1V9l-12,8.4c-0.3,0.2-0.4,0.6-0.3,0.9C2.7,18.8,3,19,3.4,19h8.3
	c0.4,2,2.2,3.5,4.3,3.5c2.1,0,3.9-1.5,4.3-3.5c0,0,8.4,0,8.5,0c0.5,0,0.8-0.4,0.8-0.8C29.5,17.9,29.4,17.6,29.1,17.4z M10.4,17.3H6
	l8.6-6.1L10.4,17.3z M15.9,21.5c-1.6,0-2.9-1.1-3.2-2.5h6.5C18.8,20.4,17.5,21.5,15.9,21.5z"/>
</svg>
