<svg id="Ebene_1" data-name="Ebene 1" xmlns="http://www.w3.org/2000/svg" viewBox="0 0 32 32"><title>0050</title><path d="M26,5H6A2,2,0,0,0,4,7V25a2.00006,2.00006,0,0,0,2,2H26a2.00006,2.00006,0,0,0,2-2V7A2,2,0,0,0,26,5ZM9,25H6V22H9Zm0-5H6V17H9Zm0-5H6V12H9Zm0-5H6V7H9Zm9.78638,6.3692-5.0769,3.0625a.48447.48447,0,0,1-.47.01447A.43538.43538,0,0,1,13,19.06244V12.93738a.4355.4355,0,0,1,.2395-.38367.48636.48636,0,0,1,.47046.01447l5.0769,3.0625a.4262.4262,0,0,1-.00049.73853ZM26,25H23V22h3Zm0-5H23V17h3Zm0-5H23V12h3Zm0-5H23V7h3Z"/></svg>