<?xml version="1.0" encoding="iso-8859-1"?>
<!-- Generator: Adobe Illustrator 18.0.0, SVG Export Plug-In . SVG Version: 6.00 Build 0)  -->
<!DOCTYPE svg PUBLIC "-//W3C//DTD SVG 1.1//EN" "http://www.w3.org/Graphics/SVG/1.1/DTD/svg11.dtd">
<svg version="1.1" id="Ebene_1" xmlns="http://www.w3.org/2000/svg" xmlns:xlink="http://www.w3.org/1999/xlink" x="0px" y="0px"
	 viewBox="0 0 32 32" style="enable-background:new 0 0 32 32;" xml:space="preserve">
<path style="fill-rule:evenodd;clip-rule:evenodd;" d="M29,6H3C2.4,6,2,6.4,2,7v18h2l0-8h5.7l-0.5,2H8.7C8.3,19,8,19.1,8,19.5v3.8
	C8,23.7,8.3,24,8.7,24H10v1.5c0,0.3,0.2,0.5,0.5,0.5h1c0.3,0,0.5-0.2,0.5-0.5V24h8v1.5c0,0.3,0.2,0.5,0.5,0.5h1
	c0.3,0,0.5-0.2,0.5-0.5V24h1.3c0.4,0,0.7-0.3,0.7-0.7v-3.8c0-0.4-0.3-0.5-0.7-0.5h-0.4c0,0-0.3-1-0.6-2H28v8h2V7C30,6.4,29.6,6,29,6
	z M11,22.2c-0.6,0-1-0.5-1-1c0-0.6,0.5-1,1-1c0.6,0,1,0.5,1,1C12.1,21.8,11.6,22.2,11,22.2z M9.9,19l1.1-3.1c0,0,0.3-0.9,1.2-0.9
	h7.1c0,0,0.8,0.1,1.2,0.9c0.1,0.1,1.5,3.1,1.5,3.1H9.9z M21.1,22.2c-0.6,0-1-0.5-1-1c0-0.6,0.5-1,1-1c0.6,0,1,0.5,1,1
	C22.2,21.8,21.7,22.2,21.1,22.2z M28,14H4l0-1h24V14z M28,10H4l0-1h24V10z"/>
</svg>
