<?xml version="1.0" encoding="iso-8859-1"?>
<!-- Generator: Adobe Illustrator 18.0.0, SVG Export Plug-In . SVG Version: 6.00 Build 0)  -->
<!DOCTYPE svg PUBLIC "-//W3C//DTD SVG 1.1//EN" "http://www.w3.org/Graphics/SVG/1.1/DTD/svg11.dtd">
<svg version="1.1" id="Ebene_1" xmlns="http://www.w3.org/2000/svg" xmlns:xlink="http://www.w3.org/1999/xlink" x="0px" y="0px"
	 viewBox="0 0 32 32" style="enable-background:new 0 0 32 32;" xml:space="preserve">
<path d="M23.9,8H8.1C7,8,6.3,8.8,6.2,9.9C6.1,11.2,6,13.4,6,15.1l0,0.2l0.2,0c1.2-0.3,2.7-0.4,4.2-0.4c2,0,4,0.3,5.5,0.7l0.1,0
	l0.1,0c1.5-0.5,3.5-0.7,5.5-0.7c1.5,0,2.9,0.1,4.2,0.4l0.2,0l0-0.2c0-1.6,0-3.9-0.2-5.2C25.7,8.8,25,8.1,23.9,8L23.9,8z M10.5,15.7
	c-1.6,0-3,0.1-4.3,0.4L6,16.1v0.2v1.8C6,18.7,6.3,19,6.8,19h8.6h0.3v-0.3v-2.1v-0.2l-0.2-0.1C14.1,15.9,12.4,15.7,10.5,15.7
	L10.5,15.7z M21.5,15.7c-1.9,0-3.6,0.2-5,0.6l-0.2,0.1v0.2v2.1V19h0.3h8.6c0.5,0,0.8-0.3,0.8-0.8l0-1.8v-0.2l-0.2-0.1
	C24.5,15.8,23.1,15.7,21.5,15.7L21.5,15.7z M27.5,13h2c0.3,0,0.5,0.2,0.5,0.5V20v2.5c0,0.3-0.2,0.5-0.5,0.5H27H5H2.5
	C2.2,23,2,22.8,2,22.5V20v-6.5C2,13.2,2.2,13,2.5,13h2C4.8,13,5,13.2,5,13.5v6C5,19.8,5.2,20,5.5,20h21c0.3,0,0.5-0.2,0.5-0.5v-6
	C27,13.2,27.2,13,27.5,13z"/>
</svg>
