<?xml version="1.0" encoding="iso-8859-1"?>
<!-- Generator: Adobe Illustrator 18.0.0, SVG Export Plug-In . SVG Version: 6.00 Build 0)  -->
<!DOCTYPE svg PUBLIC "-//W3C//DTD SVG 1.1//EN" "http://www.w3.org/Graphics/SVG/1.1/DTD/svg11.dtd">
<svg version="1.1" id="Ebene_1" xmlns="http://www.w3.org/2000/svg" xmlns:xlink="http://www.w3.org/1999/xlink" x="0px" y="0px"
	 viewBox="0 0 32 32" style="enable-background:new 0 0 32 32;" xml:space="preserve">
<path d="M16.7,10.3c3.5,0,6.4,2.9,6.4,6.4c0,3.5-2.9,6.4-6.4,6.4s-6.4-2.9-6.4-6.4C10.3,13.2,13.2,10.3,16.7,10.3 M16.7,8.4
	c-4.6,0-8.3,3.7-8.3,8.3c0,4.6,3.7,8.3,8.3,8.3c4.6,0,8.3-3.7,8.3-8.3C24.9,12.1,21.2,8.4,16.7,8.4L16.7,8.4z M16.7,11.1
	c-3.1,0-5.6,2.5-5.6,5.6c0,3.1,2.5,5.6,5.6,5.6s5.6-2.5,5.6-5.6C22.2,13.6,19.7,11.1,16.7,11.1z M29.4,25.7c0.4,0,0.6-0.3,0.6-0.6
	V7.4c0-0.3-0.2-0.6-0.5-0.6c0,0-0.1,0-0.1,0L28.9,7c-0.3,0.1-0.6,0.4-0.7,0.7l-1,7.8c0,0.3,0.2,0.7,0.5,0.8l0.3,0.1
	c0.2,0.1,0.4,0.3,0.4,0.5l0,8.2c0,0.4,0.3,0.6,0.6,0.6H29.4z M6.1,7.4v4.5H5.5V7.4c0-0.5-0.7-0.5-0.7,0v4.5H4.1V7.4
	c0-0.5-0.7-0.5-0.7,0v4.5H2.8V7.4c0-0.6-0.8-0.5-0.8,0v6c0,0.9,0.6,1.4,1.4,1.4h0.3l0,10.2c0,0.4,0.3,0.7,0.7,0.7h0.2
	c0.4,0,0.7-0.3,0.7-0.7V14.8h0.2c0.8,0,1.4-0.7,1.4-1.3V7.4C6.9,6.9,6.1,6.9,6.1,7.4z"/>
</svg>
