<?xml version="1.0" encoding="iso-8859-1"?>
<!-- Generator: Adobe Illustrator 18.0.0, SVG Export Plug-In . SVG Version: 6.00 Build 0)  -->
<!DOCTYPE svg PUBLIC "-//W3C//DTD SVG 1.1//EN" "http://www.w3.org/Graphics/SVG/1.1/DTD/svg11.dtd">
<svg version="1.1" id="Ebene_1" xmlns="http://www.w3.org/2000/svg" xmlns:xlink="http://www.w3.org/1999/xlink" x="0px" y="0px"
	 viewBox="0 0 32 32" style="enable-background:new 0 0 32 32;" xml:space="preserve">
<path d="M7,23h18v5H7V23z M18,22v-4h-4v4H18z M5,22L5,22c-0.6,0-1,0.4-1,1v5c0,0.5,0.4,1,1,1h0c0.5,0,1-0.4,1-1v-5
	C6,22.4,5.6,22,5,22z M27,22L27,22c-0.6,0-1,0.4-1,1v5c0,0.5,0.4,1,1,1h0c0.5,0,1-0.4,1-1v-5C28,22.4,27.6,22,27,22z M11,15V8
	c0-2.8,2.2-5,5-5h3c0.6,0,1,0.4,1,1v11c0,0.6-0.4,1-1,1v1h-6v-1h-1C11.4,16,11,15.6,11,15z M17,13.5c0,0.3,0.2,0.5,0.5,0.5
	s0.5-0.2,0.5-0.5v-8C18,5.2,17.8,5,17.5,5S17,5.2,17,5.5V13.5z M14,13.5c0,0.3,0.2,0.5,0.5,0.5s0.5-0.2,0.5-0.5v-6
	C15,7.2,14.8,7,14.5,7S14,7.2,14,7.5V13.5z"/>
</svg>
