<?xml version="1.0" encoding="UTF-8" standalone="no"?>
<!-- Generator: Adobe Illustrator 18.0.0, SVG Export Plug-In . SVG Version: 6.00 Build 0)  -->

<svg
   xmlns:dc="http://purl.org/dc/elements/1.1/"
   xmlns:cc="http://creativecommons.org/ns#"
   xmlns:rdf="http://www.w3.org/1999/02/22-rdf-syntax-ns#"
   xmlns:svg="http://www.w3.org/2000/svg"
   xmlns="http://www.w3.org/2000/svg"
   xmlns:sodipodi="http://sodipodi.sourceforge.net/DTD/sodipodi-0.dtd"
   xmlns:inkscape="http://www.inkscape.org/namespaces/inkscape"
   version="1.1"
   id="Ebene_1"
   x="0px"
   y="0px"
   viewBox="0 0 32 32"
   style="enable-background:new 0 0 32 32;"
   xml:space="preserve"
   sodipodi:docname="00000000-0000-003d-2000000000000000.svg"
   inkscape:version="0.92.3 (2405546, 2018-03-11)"><metadata
   id="metadata13"><rdf:RDF><cc:Work
       rdf:about=""><dc:format>image/svg+xml</dc:format><dc:type
         rdf:resource="http://purl.org/dc/dcmitype/StillImage" /><dc:title /></cc:Work></rdf:RDF></metadata><defs
   id="defs11" /><sodipodi:namedview
   pagecolor="#ffffff"
   bordercolor="#666666"
   borderopacity="1"
   objecttolerance="10"
   gridtolerance="10"
   guidetolerance="10"
   inkscape:pageopacity="0"
   inkscape:pageshadow="2"
   inkscape:window-width="1790"
   inkscape:window-height="952"
   id="namedview9"
   showgrid="false"
   inkscape:zoom="20.85965"
   inkscape:cx="3.3753556"
   inkscape:cy="16.160016"
   inkscape:window-x="0"
   inkscape:window-y="0"
   inkscape:window-maximized="0"
   inkscape:current-layer="Ebene_1" />



<path
   inkscape:connector-curvature="0"
   class="st0"
   d="m 10.702126,22.558056 c -1.4353922,0 -2.6071392,1.171749 -2.6071392,2.607135 0,1.435392 1.171747,2.60714 2.6071392,2.60714 1.435391,0 2.607139,-1.171748 2.607139,-2.60714 0,-1.435386 -1.166866,-2.607135 -2.607139,-2.607135 z m 0,3.261366 c -0.34176,0 -0.624933,-0.263644 -0.649344,-0.595639 0,-0.0195 -0.0049,-0.03907 -0.0049,-0.05857 0,-0.0195 0,-0.03419 0.0049,-0.0537 0.02929,-0.336876 0.307584,-0.60052 0.649344,-0.60052 0.361289,0 0.654226,0.292937 0.654226,0.654224 0,0.361294 -0.292937,0.654231 -0.654226,0.654231 z M 8.6613308,11.98791 9.3692628,22.104001 C 9.7793751,21.92336 10.228544,21.82571 10.707008,21.82571 c 0.205056,0 0.410112,0.0195 0.605403,0.0537 L 10.609362,11.851202 C 10.560542,11.128627 10.238309,10.464632 9.7110221,9.9764069 9.1837358,9.4930589 8.5002158,9.2245329 7.7776378,9.2245329 h -1.074102 v 1.9529161 h 1.074102 c 0.4687,0 0.849517,0.346641 0.883693,0.810454 z M 24.958391,8.2969059 H 21.638438 V 6.2951739 H 10.165074 v 2.001732 H 6.6986538 v -1.95291 h 1.513507 v -0.04882 c 0,-1.078987 0.873929,-1.952916 1.9529132,-1.952916 h 11.473364 c 1.078985,0 1.952913,0.873929 1.952913,1.952916 v 0.04882 h 1.36704 z m -3.481068,0.927633 -2.089617,14.9397861 v 0.0051 c -0.05859,0.419874 -0.405229,0.727457 -0.83487,0.727457 h -4.520994 c 0.0049,0.08789 0.0098,0.175765 0.0098,0.268527 0,0.615167 -0.165998,1.191276 -0.458935,1.684389 h 4.970164 c 1.391451,0 2.582727,-1.039929 2.768254,-2.416729 L 23.4498,9.2247269 Z"
   id="path4-3"
   style="fill-opacity:1;" /></svg>