<svg xmlns="http://www.w3.org/2000/svg" viewBox="0 0 32 32"><title>0028</title><path d="M26.784,10.5547a.5646.5646,0,0,1-.78934.126L24.36332,9.49536a.57043.57043,0,0,1-.16667-.192l-.39-.732-.23,2.656,1.576,1.75934a.75627.75627,0,0,1,.17933.36133l.53,2.75268a.75311.75311,0,1,1-1.47867.28667L23.89265,13.84,22.49,12.2747l-.38467,1.698a.76606.76606,0,0,1-.09467.23067L20.502,16.64272a.75395.75395,0,1,1-1.28067-.796L20.66464,13.514l1.206-5.32135L21.194,8.784,20.7053,10.8947a.56572.56572,0,0,1-.55.43867.59733.59733,0,0,1-.128-.014.56656.56656,0,0,1-.42267-.68l.53-2.28934a.57.57,0,0,1,.17933-.29867l2.156-1.884a.56307.56307,0,0,1,.49134-.12667l.62534.136a.56527.56527,0,0,1,.37867.28667L25.13265,8.654l1.526,1.10934A.56745.56745,0,0,1,26.784,10.5547ZM23.89,5.802a1.401,1.401,0,1,0-1.398-1.40067A1.39969,1.39969,0,0,0,23.89,5.802ZM15.1254,16.28654a.36526.36526,0,0,0-.36125-.36922H13.56936a.36441.36441,0,0,0-.362.36683V17.016l1.918,1.9514Zm2.79881,6.36591L11.623,16.24064a.76519.76519,0,0,0-1.08206-.01369h0l-.01369.01369L4.23008,22.65245a.78817.78817,0,0,0,0,1.1131.76055.76055,0,0,0,1.07546.01631h0l.0163-.0163,5.75246-5.85265,5.75546,5.85265a.7631.7631,0,0,0,1.07908.01537h0l.01537-.01537A.857.857,0,0,0,17.9242,22.65245ZM5.90512,24.00639v4.23613a.70914.70914,0,0,0,.702.71506h8.99226a.70819.70819,0,0,0,.69986-.71508V24.06672l-5.22494-5.31717Z"/></svg>