<?xml version="1.0" encoding="iso-8859-1"?>
<!-- Generator: Adobe Illustrator 18.0.0, SVG Export Plug-In . SVG Version: 6.00 Build 0)  -->
<!DOCTYPE svg PUBLIC "-//W3C//DTD SVG 1.1//EN" "http://www.w3.org/Graphics/SVG/1.1/DTD/svg11.dtd">
<svg version="1.1" id="Ebene_1" xmlns="http://www.w3.org/2000/svg" xmlns:xlink="http://www.w3.org/1999/xlink" x="0px" y="0px"
	 viewBox="0 0 32 32" style="enable-background:new 0 0 32 32;" xml:space="preserve">
<path d="M18,6.6C18,5.8,17.4,5,16,5c-1.4,0-2,0.8-2,1.6V12h4V6.6L18,6.6z M5,13c-2.7,0-2.7,4,0,4h22c2.7,0,2.7-4,0-4H5L5,13z M26,18
	c-5.1,3.1-14.9,3.1-20,0H26L26,18z M6.5,23.5c-0.1,1.9,2.5,1.9,2.4,0c0-0.8-0.6-1.6-1-2.3c-0.1-0.1-0.1-0.2-0.2-0.2
	c-0.1,0-0.1,0-0.2,0.1C7.1,21.9,6.5,22.8,6.5,23.5L6.5,23.5z M12,24.5c0-0.8,0.6-1.6,1-2.3c0.1-0.1,0.1-0.1,0.2-0.1
	c0.1,0,0.1,0.1,0.2,0.2c0.4,0.7,1,1.6,1,2.3C14.5,26.4,11.9,26.4,12,24.5L12,24.5z M17.6,24.5c0-0.8,0.6-1.6,1-2.3
	c0.1-0.1,0.1-0.1,0.2-0.1c0.1,0,0.1,0.1,0.2,0.2c0.4,0.7,1,1.6,1,2.3C20.1,26.4,17.5,26.4,17.6,24.5L17.6,24.5z M23.1,23.5
	c-0.1,1.9,2.5,1.9,2.4,0c0-0.8-0.6-1.6-1-2.3c-0.1-0.1-0.1-0.2-0.2-0.2c-0.1,0-0.1,0-0.2,0.1C23.7,21.9,23.2,22.8,23.1,23.5
	L23.1,23.5z"/>
</svg>
