<?xml version="1.0" encoding="iso-8859-1"?>
<!-- Generator: Adobe Illustrator 18.0.0, SVG Export Plug-In . SVG Version: 6.00 Build 0)  -->
<!DOCTYPE svg PUBLIC "-//W3C//DTD SVG 1.1//EN" "http://www.w3.org/Graphics/SVG/1.1/DTD/svg11.dtd">
<svg version="1.1" id="Ebene_1" xmlns="http://www.w3.org/2000/svg" xmlns:xlink="http://www.w3.org/1999/xlink" x="0px" y="0px"
	 viewBox="0 0 32 32" style="enable-background:new 0 0 32 32;" xml:space="preserve">
<g>
	<g>
		<path d="M16,16.5c-2.5,0-4.5-2-4.5-4.5s2-4.5,4.5-4.5c2.5,0,4.5,2,4.5,4.5S18.5,16.5,16,16.5L16,16.5z"/>
		<g>
			<path d="M7.5,24.8c0.2,0.1,0.6,0.1,1,0.1h7.1l-3.2-8.1C9.5,18.3,7.6,21.3,7.5,24.8z"/>
			<path d="M24.5,24.8c-0.1-3.5-2-6.6-4.9-8L16.4,25h7.1C23.9,25,24.3,24.9,24.5,24.8z"/>
		</g>
	</g>
	<g>
		<path d="M10.5,12c0,0.6,0.1,1.2,0.3,1.7c-0.5,0.2-1,0.4-1.5,0.4c-1.9,0-3.5-1.6-3.5-3.5c0-1.9,1.6-3.5,3.5-3.5
			c1.1,0,2,0.5,2.7,1.2C11,9.3,10.5,10.6,10.5,12z"/>
		<path d="M7,14.4C7.6,14.8,8.4,15,9.2,15c0.7,0,1.3-0.2,1.9-0.4c0.3,0.5,0.6,0.9,0.9,1.3c-2.1,1-3.8,2.8-4.8,5.1H3.5
			c-0.4,0-0.8,0-1-0.1C2.6,17.9,4.5,15.4,7,14.4z"/>
	</g>
	<g>
		<path d="M21.5,12c0,0.6-0.1,1.2-0.3,1.7c0.5,0.2,1,0.4,1.5,0.4c1.9,0,3.5-1.6,3.5-3.5S24.7,7,22.8,7c-1.1,0-2,0.5-2.7,1.2
			C21,9.3,21.5,10.5,21.5,12z"/>
		<path d="M25,14.4c-0.7,0.4-1.4,0.6-2.3,0.6c-0.7,0-1.3-0.2-1.9-0.4c-0.3,0.5-0.6,0.9-0.9,1.3c2.1,1,3.8,2.8,4.8,5.1h3.8
			c0.4,0,0.8,0,1-0.1C29.4,17.9,27.5,15.4,25,14.4z"/>
	</g>
	<path d="M16,17.5c-0.3,0-0.5,0-0.8-0.1l-0.5,3l1.3,3.5l1.3-3.5l-0.5-3C16.5,17.4,16.3,17.5,16,17.5z"/>
</g>
</svg>
