<svg xmlns="http://www.w3.org/2000/svg" viewBox="0 0 32 32"><title>state0021</title><path d="M28.81871,13.38764H27.637A2.38573,2.38573,0,0,1,25.54913,12.046a2.3748,2.3748,0,0,1,.52642-2.426l.83626-.8383a.68223.68223,0,0,0,0-.96079L24.18012,5.08712a.681.681,0,0,0-.9639,0l-.83937.84043a2.45524,2.45524,0,0,1-1.67765.6635,1.95716,1.95716,0,0,1-.74206-.13911,2.37518,2.37518,0,0,1-1.34586-2.08587V3.18129A.68049.68049,0,0,0,17.93407,2.5H14.069a.68022.68022,0,0,0-.67925.68129V4.36607a2.38952,2.38952,0,0,1-1.3449,2.08587,1.96567,1.96567,0,0,1-.74516.13911A2.45775,2.45775,0,0,1,9.621,5.92755l-.83937-.84043a.66656.66656,0,0,0-.48045-.19988.692.692,0,0,0-.48034.19988L5.08711,7.82084a.68824.68824,0,0,0,0,.96079l.83626.8383a2.38049,2.38049,0,0,1,.52857,2.426A2.38182,2.38182,0,0,1,4.365,13.38764H3.18021a.679.679,0,0,0-.67818.67926V17.932a.68178.68178,0,0,0,.67818.68022H4.365a2.38763,2.38763,0,0,1,2.087,1.34178,2.37683,2.37683,0,0,1-.52857,2.425l-.83626.83626a.69075.69075,0,0,0,0,.96283l2.73373,2.73372a.67517.67517,0,0,0,.48034.19677.6596.6596,0,0,0,.48045-.19677l.83937-.83936a2.43946,2.43946,0,0,1,1.67873-.66457,1.9457,1.9457,0,0,1,.74516.14125,2.38437,2.38437,0,0,1,1.3449,2.08587v1.18478A.68.68,0,0,0,14.069,29.5h3.865a.68025.68025,0,0,0,.67721-.68022V27.635a2.38133,2.38133,0,0,1,1.34586-2.08587,1.93732,1.93732,0,0,1,.74206-.14125,2.44931,2.44931,0,0,1,1.68183.66457l.83519.83936a.69819.69819,0,0,0,.48248.19677.68281.68281,0,0,0,.48142-.19677l2.73169-2.73372a.67525.67525,0,0,0,0-.96283l-.83626-.83626a2.3809,2.3809,0,0,1-.52642-2.425A2.3878,2.3878,0,0,1,27.637,18.61225h1.18167A.67938.67938,0,0,0,29.498,17.932V14.0669A.67925.67925,0,0,0,28.81871,13.38764ZM15.99994,23.6851a7.68408,7.68408,0,1,1,7.68419-7.68719A7.68763,7.68763,0,0,1,15.99994,23.6851Zm0-2.16958a5.5145,5.5145,0,1,1,5.51033-5.51761A5.51537,5.51537,0,0,1,15.99994,21.51552Z" fill="#69c350"/></svg>