<?xml version="1.0" encoding="iso-8859-1"?>
<!-- Generator: Adobe Illustrator 18.0.0, SVG Export Plug-In . SVG Version: 6.00 Build 0)  -->
<!DOCTYPE svg PUBLIC "-//W3C//DTD SVG 1.1//EN" "http://www.w3.org/Graphics/SVG/1.1/DTD/svg11.dtd">
<svg version="1.1" id="Ebene_1" xmlns="http://www.w3.org/2000/svg" xmlns:xlink="http://www.w3.org/1999/xlink" x="0px" y="0px"
	 viewBox="0 0 32 32" style="enable-background:new 0 0 32 32;" xml:space="preserve">
<path d="M21.6,11.7L19.5,15l-2-2l-1.1-1.1l1.5-2.6c0.2-0.3,0.6-0.5,0.9-0.3l3.5,1.4L21.6,11.7z M28.5,13.1c-0.1-0.2-0.2-0.4-0.4-0.4
	l-4.3-1.7L23,12.2l-2.4,3.9l3,3l1.1,1.1l3.7-6.4C28.5,13.5,28.5,13.3,28.5,13.1z M22.8,20.4l-3-3l-2.5,4.1L16.4,23l2.4,5.1
	c0.1,0.3,0.4,0.4,0.6,0.4c0,0,0,0,0,0c0.3,0,0.5-0.1,0.6-0.4l3.9-6.7L22.8,20.4z M13.7,16.5c-0.1,0.2-0.1,0.5,0,0.7l1.9,4.2l0.9-1.5
	l2.2-3.5l-2-2l-1.1-1.1L13.7,16.5z M12.1,4.2c0,0.4,0.3,0.7,0.7,0.7h3.7c0.4,0,0.7-0.3,0.7-0.7S17,3.4,16.6,3.4h-3.7
	C12.4,3.4,12.1,3.8,12.1,4.2z M11.7,6.6c-0.1,0.4,0.1,0.8,0.5,0.9l3.5,1.1c0.1,0,0.2,0,0.2,0c0.3,0,0.6-0.2,0.7-0.5
	c0.1-0.4-0.1-0.8-0.5-0.9l-3.5-1.1C12.3,6,11.8,6.2,11.7,6.6z M10.6,8.8c-0.2,0.3-0.2,0.8,0.2,1l3,2.2c0.1,0.1,0.3,0.1,0.4,0.1
	c0.2,0,0.5-0.1,0.6-0.3c0.2-0.3,0.2-0.8-0.2-1l-3-2.2C11.3,8.4,10.8,8.5,10.6,8.8z M11.5,14.9c0.2,0,0.3,0,0.4-0.1
	c0.3-0.2,0.4-0.7,0.2-1l-2.2-3c-0.2-0.3-0.7-0.4-1-0.2c-0.3,0.2-0.4,0.7-0.2,1l2.2,3C11,14.8,11.3,14.9,11.5,14.9z M6.7,11.7
	c-0.4,0.1-0.6,0.5-0.5,0.9l1.1,3.5c0.1,0.3,0.4,0.5,0.7,0.5c0.1,0,0.2,0,0.2,0c0.4-0.1,0.6-0.5,0.5-0.9l-1.1-3.5
	C7.5,11.7,7.1,11.5,6.7,11.7z M3.5,16.5c0,0.4,0.3,0.7,0.7,0.7S5,16.9,5,16.5l0-3.7C5,12.4,4.7,12,4.2,12s-0.7,0.3-0.7,0.7L3.5,16.5
	z M5.1,9.1c-0.3,0-0.5,0.1-0.8,0.1c-0.4,0-0.7,0.3-0.7,0.7c0,0.4,0.3,0.7,0.7,0.7c3.6,0,6.4-2.9,6.5-6.5c0-0.4-0.3-0.7-0.7-0.7
	c-0.4,0-0.7,0.3-0.7,0.7c0,0.3,0,0.6-0.1,0.8C8.8,7.1,7.1,8.7,5.1,9.1z"/>
</svg>
