<?xml version="1.0" encoding="iso-8859-1"?>
<!-- Generator: Adobe Illustrator 18.0.0, SVG Export Plug-In . SVG Version: 6.00 Build 0)  -->
<!DOCTYPE svg PUBLIC "-//W3C//DTD SVG 1.1//EN" "http://www.w3.org/Graphics/SVG/1.1/DTD/svg11.dtd">
<svg version="1.1" id="Ebene_1" xmlns="http://www.w3.org/2000/svg" xmlns:xlink="http://www.w3.org/1999/xlink" x="0px" y="0px"
	 viewBox="0 0 32 32" style="enable-background:new 0 0 32 32;" xml:space="preserve">
<path d="M25,16.5c0,0.3-0.2,0.5-0.5,0.5h-17C7.2,17,7,16.8,7,16.5l0,0C7,16.2,7.2,16,7.5,16h17C24.8,16,25,16.2,25,16.5L25,16.5z
	 M24.5,17.5c-4.5,0-12,0-17.1,0c0,3.3,1.6,4.7,4.3,5.8c2.8,1.1-1.7,5.7-0.6,5.7c1.2,0,8.6,0,9.8,0c1.3,0-3.3-4.6-0.6-5.8
	C23.2,21.9,24.5,20.6,24.5,17.5z M7.6,4.6c0,4.8,2,10.4,2,10.4h12.7c0,0,2-5.7,2-10.4C24.4,4.6,10.6,4.6,7.6,4.6z M24.4,3.8
	C24.4,3.3,24,3,23.6,3H8.4C8,3,7.6,3.3,7.6,3.8V4h16.7V3.8z"/>
</svg>
