<?xml version="1.0" encoding="iso-8859-1"?>
<!-- Generator: Adobe Illustrator 18.0.0, SVG Export Plug-In . SVG Version: 6.00 Build 0)  -->
<!DOCTYPE svg PUBLIC "-//W3C//DTD SVG 1.1//EN" "http://www.w3.org/Graphics/SVG/1.1/DTD/svg11.dtd">
<svg version="1.1" id="Ebene_1" xmlns="http://www.w3.org/2000/svg" xmlns:xlink="http://www.w3.org/1999/xlink" x="0px" y="0px"
	 viewBox="0 0 32 32" style="enable-background:new 0 0 32 32;" xml:space="preserve">
<path d="M9.6,22L9,23.8c-0.2,0.6,0.7,0.9,1,0.4l1-2.1H9.6L9.6,22z M3.7,7.6c-0.5-0.1-1,0.1-1.2,0.7c-0.1,0.5,0.1,1,0.7,1.2l9.4,2.7
	c1.7,0.5,3.7,0.9,5.4,0.9h10.3c0.5,0,0.9-0.4,0.9-0.9c0-0.5-0.4-1.1-0.9-1.1H18c-1.5,0-3.3-0.3-4.9-0.7L3.7,7.6L3.7,7.6z M22.4,22
	l0.5,1.7c0.2,0.6-0.7,0.9-1,0.4L21,22H22.4L22.4,22z M26.7,13.9l-0.5,5C25.9,20.2,25,21,23.5,21H10c-1.6,0-2.3-0.8-2.6-2.1L5.2,11
	l7,2c2,0.6,3.9,0.8,6,0.9H26.7z"/>
</svg>
