<svg xmlns="http://www.w3.org/2000/svg" viewBox="0 0 32 32"><title>state0008</title><path d="M23.061,10.60124a.61669.61669,0,0,1,.027-.848l2.375-1.749a.59723.59723,0,0,1,.804.236.61659.61659,0,0,1-.027.848l-2.376,1.749A.5972.5972,0,0,1,23.061,10.60124Zm-4.432-3.24a.59865.59865,0,0,0,.787-.288l.907-2.83a.60956.60956,0,0,0-.469-.702.59865.59865,0,0,0-.787.288l-.907,2.83A.60859.60859,0,0,0,18.629,7.36125Zm-6.252-.269a.599.599,0,0,0,.787.288.61033.61033,0,0,0,.47-.702l-.907-2.83a.60025.60025,0,0,0-.787-.289.60956.60956,0,0,0-.469.702Zm-4.427,3.793a.59867.59867,0,0,0,.805-.235.61659.61659,0,0,0-.027-.848l-2.376-1.749a.5975.5975,0,0,0-.804.235.6155.6155,0,0,0,.027.848Zm.416,13.77-.951,3.845H24.529l-.951-3.845Zm-1.751-9.348H3.678a.69236.69236,0,0,0,0,1.338H6.615a.69236.69236,0,0,0,0-1.338Zm21.707,0H25.385a.69236.69236,0,0,0,0,1.338h2.937a.69236.69236,0,0,0,0-1.338Zm-19.928,8.376H15.05v-4.251a2.64363,2.64363,0,1,1,1.901,0v4.251h6.655v-7.707a7.60666,7.60666,0,1,0-15.212,0Z" fill="#e73246"/></svg>