<?xml version="1.0" encoding="iso-8859-1"?>
<!-- Generator: Adobe Illustrator 18.0.0, SVG Export Plug-In . SVG Version: 6.00 Build 0)  -->
<!DOCTYPE svg PUBLIC "-//W3C//DTD SVG 1.1//EN" "http://www.w3.org/Graphics/SVG/1.1/DTD/svg11.dtd">
<svg version="1.1" id="Ebene_1" xmlns="http://www.w3.org/2000/svg" xmlns:xlink="http://www.w3.org/1999/xlink" x="0px" y="0px"
	 viewBox="0 0 32 32" style="enable-background:new 0 0 32 32;" xml:space="preserve">
<path d="M19.3,27.2c0.6,0,1.1,0.1,1.7,0.3c0.9,0.3,2,0.3,2.9,0c1.1-0.4,2.3-0.4,3.3,0c0.4,0.1,0.8,0.2,1.2,0.3v-1.4
	c-0.5,0-0.9-0.1-1.4-0.3c-1-0.4-2-0.4-3,0c-1.1,0.4-2.2,0.4-3.2,0c-1-0.4-2-0.4-3,0c-1.1,0.4-2.2,0.4-3.3,0c-1-0.4-2-0.4-3,0
	c-1.1,0.4-2.2,0.4-3.3,0c-1-0.4-2-0.4-3,0c-0.5,0.2-0.9,0.3-1.4,0.3v1.4c0.4,0,0.8-0.1,1.2-0.3c1.1-0.4,2.3-0.4,3.3,0
	c0.9,0.3,2,0.3,2.9,0c1.1-0.4,2.3-0.4,3.3,0c0.9,0.3,2,0.3,2.9,0C18.1,27.3,18.7,27.2,19.3,27.2z M19.3,24.4c0.6,0,1.1,0.1,1.7,0.3
	c0.9,0.3,2,0.3,2.9,0c1.1-0.4,2.3-0.4,3.3,0c0.4,0.1,0.8,0.2,1.2,0.3v-1.4c-0.5,0-0.9-0.1-1.4-0.3c-0.9-0.4-2.1-0.4-3,0
	c-1.1,0.4-2.2,0.4-3.2,0c-1-0.4-2.1-0.4-3,0c-1.1,0.4-2.2,0.4-3.3,0c-1-0.4-2.1-0.4-3,0c-1.1,0.4-2.2,0.4-3.3,0
	c-0.9-0.4-2.1-0.4-3,0c-0.5,0.2-0.9,0.3-1.4,0.3V25c0.4,0,0.8-0.1,1.2-0.3c1.1-0.4,2.3-0.4,3.3,0c0.9,0.3,2,0.3,2.9,0
	c1.1-0.4,2.3-0.4,3.3,0c0.9,0.3,2,0.3,2.9,0C18.1,24.5,18.7,24.4,19.3,24.4z M23.4,4.8c-0.2-0.5-0.7-0.7-1.2-0.6
	c-0.1,0-3.2,1.1-3.2,5.5l0,1.3h-7V9.7c0-3,1.8-3.7,1.9-3.8c0.5-0.2,0.7-0.7,0.6-1.2c-0.2-0.5-0.7-0.7-1.2-0.6
	c-0.1,0-3.3,1.1-3.3,5.5v10.5c0,0.5,0.5,0.9,1,0.9c0.5,0,1-0.4,1-0.9V18h7l0,2.3c0,0.5,0.5,0.9,1,0.9c0.5,0,1-0.4,1-0.9V9.7
	c0-3,1.7-3.7,1.8-3.8C23.3,5.8,23.6,5.3,23.4,4.8z M19,16h-7v-3h7V16z"/>
</svg>
