<?xml version="1.0" encoding="iso-8859-1"?>
<!-- Generator: Adobe Illustrator 18.0.0, SVG Export Plug-In . SVG Version: 6.00 Build 0)  -->
<!DOCTYPE svg PUBLIC "-//W3C//DTD SVG 1.1//EN" "http://www.w3.org/Graphics/SVG/1.1/DTD/svg11.dtd">
<svg version="1.1" id="Ebene_1" xmlns="http://www.w3.org/2000/svg" xmlns:xlink="http://www.w3.org/1999/xlink" x="0px" y="0px"
	 viewBox="0 0 32 32" style="enable-background:new 0 0 32 32;" xml:space="preserve">
<g>
	<polygon style="fill-rule:evenodd;clip-rule:evenodd;" points="9,21 9,24 4,24 4,27 8.5,27 9.4,27 13.7,27 18.8,27 23.9,27 29,27 
		29,12 24,12 24,15 19,15 19,18 14,18 14,21 	"/>
	<path d="M3.4,20.5c-0.1,0-0.3-0.1-0.4-0.2c-0.1-0.2-0.1-0.5,0.1-0.6L24.5,5.2c0.1,0,0.2-0.1,0.2-0.1h3.4c0.2,0,0.4,0.2,0.4,0.4
		c0,0.2-0.2,0.4-0.4,0.4h-3.3L3.7,20.4C3.6,20.5,3.5,20.5,3.4,20.5z"/>
</g>
</svg>
