<svg xmlns="http://www.w3.org/2000/svg" viewBox="0 0 32 32"><title>0027</title><path d="M15.68983,4.29644h3.07623l-3.40657,3.5151V9.07h5.81916V7.76588H17.61017l3.44275-3.55246V3H15.68983ZM24.42628,9.2693h2.56323l-2.839,2.8912V13.196H29V12.12313H26.02637L28.895,9.2011V8.203H24.42568V9.2693ZM18.017,13.21081h1.89722L17.81359,15.2646V16h3.58923v-.76209H19.20137l2.12318-2.07573v-.70871H18.017ZM15.1254,16.28654a.36526.36526,0,0,0-.36125-.36922H13.56936a.36441.36441,0,0,0-.362.36683V17.016l1.918,1.9514Zm2.79881,6.36591L11.623,16.24064a.76519.76519,0,0,0-1.08206-.01369h0l-.01369.01369L4.23008,22.65245a.78817.78817,0,0,0,0,1.1131.76055.76055,0,0,0,1.07546.01631h0l.0163-.0163,5.75246-5.85265,5.75546,5.85265a.7631.7631,0,0,0,1.07908.01537h0l.01537-.01537A.857.857,0,0,0,17.9242,22.65245ZM5.90512,24.00639v4.23613a.70914.70914,0,0,0,.702.71506h8.99226a.70819.70819,0,0,0,.69986-.71508V24.06672l-5.22494-5.31717Z"/></svg>