<?xml version="1.0" encoding="iso-8859-1"?>
<!-- Generator: Adobe Illustrator 18.0.0, SVG Export Plug-In . SVG Version: 6.00 Build 0)  -->
<!DOCTYPE svg PUBLIC "-//W3C//DTD SVG 1.1//EN" "http://www.w3.org/Graphics/SVG/1.1/DTD/svg11.dtd">
<svg version="1.1" id="Ebene_1" xmlns="http://www.w3.org/2000/svg" xmlns:xlink="http://www.w3.org/1999/xlink" x="0px" y="0px"
	 viewBox="0 0 32 32" style="enable-background:new 0 0 32 32;" xml:space="preserve">
<path style="fill-rule:evenodd;clip-rule:evenodd;" d="M5.5,11C4.7,11,4,11.7,4,12.5v6.9C4,20.3,4.7,21,5.5,21C6.3,21,7,20.3,7,19.5
	v-6.9C7,11.7,6.3,11,5.5,11z"/>
<path style="fill-rule:evenodd;clip-rule:evenodd;" d="M9.5,8C8.7,8,8,8.7,8,9.5v12.9C8,23.3,8.7,24,9.5,24c0.8,0,1.5-0.7,1.5-1.5
	V9.5C11,8.7,10.3,8,9.5,8z"/>
<rect x="12" y="14" style="fill-rule:evenodd;clip-rule:evenodd;" width="8" height="4"/>
<rect x="2" y="14" style="fill-rule:evenodd;clip-rule:evenodd;" width="1" height="4"/>
<path style="fill-rule:evenodd;clip-rule:evenodd;" d="M26.5,21c0.8,0,1.5-0.7,1.5-1.5v-6.9c0-0.8-0.7-1.5-1.5-1.5
	c-0.8,0-1.5,0.7-1.5,1.5v6.9C25,20.3,25.7,21,26.5,21z"/>
<path style="fill-rule:evenodd;clip-rule:evenodd;" d="M22.5,24c0.8,0,1.5-0.7,1.5-1.5V9.5C24,8.7,23.3,8,22.5,8
	C21.7,8,21,8.7,21,9.5v12.9C21,23.3,21.7,24,22.5,24z"/>
<rect x="29" y="14" style="fill-rule:evenodd;clip-rule:evenodd;" width="1" height="4"/>
</svg>
