<?xml version="1.0" encoding="iso-8859-1"?>
<!-- Generator: Adobe Illustrator 18.0.0, SVG Export Plug-In . SVG Version: 6.00 Build 0)  -->
<!DOCTYPE svg PUBLIC "-//W3C//DTD SVG 1.1//EN" "http://www.w3.org/Graphics/SVG/1.1/DTD/svg11.dtd">
<svg version="1.1" id="Ebene_1" xmlns="http://www.w3.org/2000/svg" xmlns:xlink="http://www.w3.org/1999/xlink" x="0px" y="0px"
	 viewBox="0 0 32 32" style="enable-background:new 0 0 32 32;" xml:space="preserve">
<path style="fill-rule:evenodd;clip-rule:evenodd;" d="M23,27c0,0.6-0.4,1-1,1H10c-0.6,0-1-0.4-1-1v-1h14V27z M28,12
	c0,2.7-1.8,5-4.2,5.7L23,25H9l-0.8-7.3C5.8,17,4,14.7,4,12c0-3.3,2.7-6,6-6c0.5,0,1,0.1,1.5,0.2C12.6,4.9,14.3,4,16.2,4
	c1.8,0,3.5,0.8,4.6,2.1C21.2,6,21.6,6,22,6C25.3,6,28,8.7,28,12z M14.4,19.1c0-0.3-0.2-0.5-0.5-0.5h-0.2c-0.3,0-0.5,0.2-0.5,0.5v3.8
	c0,0.3,0.2,0.5,0.5,0.5h0.2c0.3,0,0.5-0.2,0.5-0.5V19.1z M19.2,19.1c0-0.3-0.2-0.5-0.5-0.5h-0.2c-0.3,0-0.5,0.2-0.5,0.5v3.8
	c0,0.3,0.2,0.5,0.5,0.5h0.2c0.3,0,0.5-0.2,0.5-0.5V19.1z"/>
</svg>
