<svg xmlns="http://www.w3.org/2000/svg" viewBox="0 0 32 32"><title>cat0059</title><path d="M25.89612,6.199c-.243.01158-.48342.01672-.72124.01672A11.98233,11.98233,0,0,1,16.963,3.373L15.99486,2.5l-.96684.873A11.88766,11.88766,0,0,1,6.88943,6.21829c-.26226,0-.52586-.00643-.78941-.018L4.48127,6.12575l.11319,1.6174c.02309.34457.05653.73031.09769,1.15456a42.58151,42.58151,0,0,0,1.26511,6.91586c1.24717,4.54628,3.888,10.55575,9.387,13.35472l.65185.33171.65056-.33043c8.25943-4.16569,10.20217-15.56616,10.65472-20.27444.04244-.4204.0746-.80613.099-1.14942l.11833-1.62Zm-5.01851,7.34487a.49425.49425,0,1,1-.63545.75719l-.8707-.73056-2.383,1.37585,2.38308,1.37585.87063-.73063a.49423.49423,0,0,1,.63538.75719l-.59513.49937.67281.38843a.4942.4942,0,1,1-.49422.856l-.67281-.38843-.13486.7651a.49424.49424,0,1,1-.97346-.17164l.19737-1.11938-2.38308-1.37585v2.75177l1.06813.38876a.49422.49422,0,1,1-.33808.92883l-.73-.26567v.7768a.49422.49422,0,0,1-.98845,0V19.606l-.73.26567a.49421.49421,0,1,1-.338-.92883l1.068-.38876V15.80237l-2.383,1.37585.19737,1.11932a.49421.49421,0,1,1-.9734.17171l-.13492-.7651-.67275.3885a.49423.49423,0,1,1-.49422-.856l.67275-.38843-.59506-.49937a.49421.49421,0,1,1,.63532-.75719l.8707.73063,2.38314-1.37592-2.38314-1.37592-.87076.73063a.49421.49421,0,1,1-.63532-.75719l.59506-.49937-.67268-.38843A.49423.49423,0,0,1,11.539,11.8l.67268.38843.13492-.765a.49421.49421,0,1,1,.9734.17164l-.1973,1.11932,2.383,1.37585V11.3386l-1.068-.38876a.49421.49421,0,1,1,.338-.92883l.73.26573V9.50981a.49422.49422,0,0,1,.98845,0v.77693l.73-.26573a.49422.49422,0,0,1,.33808.92883l-1.06813.38876v2.75177l2.38308-1.37592-.1973-1.11932a.49421.49421,0,1,1,.9734-.17164l.13492.765.67275-.38843a.49423.49423,0,0,1,.49422.856l-.67275.38843Z"/></svg>