<?xml version="1.0" encoding="iso-8859-1"?>
<!-- Generator: Adobe Illustrator 18.0.0, SVG Export Plug-In . SVG Version: 6.00 Build 0)  -->
<!DOCTYPE svg PUBLIC "-//W3C//DTD SVG 1.1//EN" "http://www.w3.org/Graphics/SVG/1.1/DTD/svg11.dtd">
<svg version="1.1" id="Ebene_1" xmlns="http://www.w3.org/2000/svg" xmlns:xlink="http://www.w3.org/1999/xlink" x="0px" y="0px"
	 viewBox="0 0 32 32" style="enable-background:new 0 0 32 32;" xml:space="preserve">
<path d="M16,16.5c-2.8,0-5,2.2-5,5s2.2,5,5,5s5-2.2,5-5S18.8,16.5,16,16.5z M16,25c-1.9,0-3.5-1.6-3.5-3.5S14.1,18,16,18
	s3.5,1.6,3.5,3.5S17.9,25,16,25z M16,5c-1.9,0-3.5,1.6-3.5,3.5S14.1,12,16,12s3.5-1.6,3.5-3.5S17.9,5,16,5z M16,10.5
	c-1.1,0-2-0.9-2-2c0-1.1,0.9-2,2-2s2,0.9,2,2C18,9.6,17.1,10.5,16,10.5z M26,2H6C5.4,2,5,2.4,5,3v26c0,0.6,0.4,1,1,1h20
	c0.6,0,1-0.4,1-1V3C27,2.4,26.6,2,26,2z M16,4c2.5,0,4.5,2,4.5,4.5S18.5,13,16,13s-4.5-2-4.5-4.5S13.5,4,16,4z M7.5,28.2
	c-0.4,0-0.8-0.3-0.8-0.8c0-0.4,0.3-0.8,0.8-0.8s0.8,0.3,0.8,0.8C8.2,27.9,7.9,28.2,7.5,28.2z M7.5,5.2c-0.4,0-0.8-0.3-0.8-0.8
	c0-0.4,0.3-0.8,0.8-0.8s0.8,0.3,0.8,0.8C8.2,4.9,7.9,5.2,7.5,5.2z M16,27.5c-3.3,0-6-2.7-6-6s2.7-6,6-6s6,2.7,6,6S19.3,27.5,16,27.5
	z M24.5,28.2c-0.4,0-0.8-0.3-0.8-0.8c0-0.4,0.3-0.8,0.8-0.8s0.8,0.3,0.8,0.8C25.2,27.9,24.9,28.2,24.5,28.2z M24.5,5.2
	c-0.4,0-0.8-0.3-0.8-0.8c0-0.4,0.3-0.8,0.8-0.8s0.8,0.3,0.8,0.8C25.2,4.9,24.9,5.2,24.5,5.2z"/>
</svg>
