<?xml version="1.0" encoding="iso-8859-1"?>
<!-- Generator: Adobe Illustrator 18.0.0, SVG Export Plug-In . SVG Version: 6.00 Build 0)  -->
<!DOCTYPE svg PUBLIC "-//W3C//DTD SVG 1.1//EN" "http://www.w3.org/Graphics/SVG/1.1/DTD/svg11.dtd">
<svg version="1.1" id="Ebene_1" xmlns="http://www.w3.org/2000/svg" xmlns:xlink="http://www.w3.org/1999/xlink" x="0px" y="0px"
	 viewBox="0 0 32 32" style="enable-background:new 0 0 32 32;" xml:space="preserve">
<path d="M25.5,4.5v23h-19v-23H25.5 M26,3H6C5.4,3,5,3.4,5,4v24c0,0.6,0.4,1,1,1h20c0.6,0,1-0.4,1-1V4C27,3.4,26.6,3,26,3L26,3z
	 M24,6h-7v9h7V6z M8,6v9h7V6H8z M8,26h7v-9H8V26z M24,26v-9h-7v9H24z"/>
</svg>
