<?xml version="1.0" encoding="iso-8859-1"?>
<!-- Generator: Adobe Illustrator 19.1.0, SVG Export Plug-In . SVG Version: 6.00 Build 0)  -->
<!DOCTYPE svg PUBLIC "-//W3C//DTD SVG 1.1//EN" "http://www.w3.org/Graphics/SVG/1.1/DTD/svg11.dtd">
<svg version="1.1" id="Ebene_1" xmlns="http://www.w3.org/2000/svg" xmlns:xlink="http://www.w3.org/1999/xlink" x="0px" y="0px"
	 viewBox="0 0 32 32" style="enable-background:new 0 0 32 32;" xml:space="preserve">
<path d="M11.81,8.985c0.293-0.45,0.889-0.568,1.336-0.274l1.591,1.05c0.454,0.301,0.575,0.897,0.282,1.342
	c-0.293,0.45-0.889,0.568-1.336,0.274l-1.591-1.05C11.64,10.028,11.519,9.432,11.81,8.985z M27.22,13.447
	c-0.108-0.526,0.229-1.035,0.755-1.145l1.862-0.388c0.532-0.11,1.035,0.225,1.143,0.749c0.108,0.526-0.229,1.035-0.753,1.145
	l-1.862,0.388C27.833,14.306,27.328,13.969,27.22,13.447z M24.327,9.163c-0.445-0.295-0.564-0.895-0.269-1.347l1.043-1.601
	c0.299-0.458,0.891-0.579,1.334-0.284c0.447,0.295,0.564,0.895,0.271,1.347l-1.043,1.601C25.364,9.335,24.77,9.456,24.327,9.163z
	 M29.468,20.656c-0.293,0.45-0.891,0.568-1.336,0.274l-1.588-1.05c-0.454-0.299-0.575-0.897-0.284-1.342
	c0.293-0.45,0.889-0.568,1.336-0.274l1.588,1.05C29.639,19.612,29.758,20.21,29.468,20.656z M19.275,8.194
	c-0.524,0.108-1.029-0.231-1.137-0.759l-0.386-1.873c-0.11-0.534,0.225-1.043,0.742-1.152c0.522-0.108,1.029,0.231,1.135,0.759
	l0.386,1.875C20.128,7.579,19.793,8.086,19.275,8.194z M1,22.912c0-1.735,0.94-3.255,2.335-4.068
	c0.081-3.82,3.183-6.891,6.997-6.891c2.513,0,4.719,1.334,5.953,3.338c0.454-0.136,0.937-0.208,1.434-0.208
	c2.165,0,4.013,1.37,4.732,3.298c1.977,0.545,3.431,2.367,3.431,4.53c0,2.59-2.089,4.698-4.666,4.698H5.666
	C3.091,27.608,1,25.506,1,22.912z M16.283,15.292c0.227-0.068,0.462-0.121,0.7-0.155C16.745,15.171,16.512,15.224,16.283,15.292
	L16.283,15.292z M16.707,14.202c0.333-0.057,0.67-0.085,1.01-0.085c2.331,0,4.46,1.381,5.444,3.478
	c0.651,0.242,1.23,0.609,1.737,1.054c0.863-0.967,1.415-2.229,1.472-3.631c0.131-3.2-2.337-5.9-5.514-6.034
	c-2.534-0.106-4.751,1.457-5.612,3.716C15.786,13.133,16.283,13.629,16.707,14.202z"/>
</svg>
