<?xml version="1.0" encoding="utf-8"?>
<!-- Generator: Adobe Illustrator 21.1.0, SVG Export Plug-In . SVG Version: 6.00 Build 0)  -->
<svg version="1.1" id="Ebene_1" xmlns="http://www.w3.org/2000/svg" xmlns:xlink="http://www.w3.org/1999/xlink" x="0px" y="0px"
	 viewBox="0 0 32 32" style="enable-background:new 0 0 32 32;" xml:space="preserve">
<title>0026</title>
<path d="M26.7,15.7l-3.3-1.3V9.7l5.5-5.5c0,0,0-0.1,0-0.1c0,0,0,0-0.1,0H16.8c-0.1,0-0.1,0.1-0.1,0.1c0,0,0,0.1,0,0.1l5.5,5.5v4.7
	L19,15.7c-0.1,0-0.1,0.1-0.1,0.2c0,0.1,0.1,0.1,0.1,0.1h7.7c0.1,0,0.1-0.1,0.1-0.1C26.8,15.8,26.8,15.8,26.7,15.7z M18.3,4.6h8.8
	l-1.9,1.9h-5.1L18.3,4.6z M15.1,16.3c0-0.2-0.2-0.4-0.4-0.4h-1.2c-0.2,0-0.4,0.2-0.4,0.4c0,0,0,0,0,0V17l1.9,2L15.1,16.3z
	 M17.9,22.7l-6.3-6.4c-0.3-0.3-0.8-0.3-1.1,0c0,0,0,0,0,0l0,0l0,0l-6.3,6.4c-0.3,0.3-0.3,0.8,0,1.1c0.3,0.3,0.8,0.3,1.1,0
	c0,0,0,0,0,0l0,0l0,0l5.8-5.9l5.8,5.9c0.3,0.3,0.8,0.3,1.1,0c0,0,0,0,0,0l0,0l0,0C18.2,23.4,18.2,23,17.9,22.7L17.9,22.7z M5.9,24
	v4.2c0,0.4,0.3,0.7,0.7,0.7h9c0.4,0,0.7-0.3,0.7-0.7v-4.2l-5.2-5.3L5.9,24z"/>
</svg>
