<?xml version="1.0" encoding="iso-8859-1"?>
<!-- Generator: Adobe Illustrator 18.0.0, SVG Export Plug-In . SVG Version: 6.00 Build 0)  -->
<!DOCTYPE svg PUBLIC "-//W3C//DTD SVG 1.1//EN" "http://www.w3.org/Graphics/SVG/1.1/DTD/svg11.dtd">
<svg version="1.1" id="Ebene_1" xmlns="http://www.w3.org/2000/svg" xmlns:xlink="http://www.w3.org/1999/xlink" x="0px" y="0px"
	 viewBox="0 0 32 32" style="enable-background:new 0 0 32 32;" xml:space="preserve">
<path d="M20,5V27c0,0.6-0.5,1-1.1,1c-0.3,0-0.6-0.1-0.8-0.3l-7.7-5.9C10.1,21.6,10,21.3,10,21V10.8c0-0.3,0.2-0.6,0.4-0.8l0,0
	l7.8-5.8c0.5-0.4,1.2-0.3,1.6,0.1C19.9,4.6,20,4.8,20,5L20,5L20,5z M9,12.1C9,11.5,8.5,11,7.9,11l-3.8,0C3.5,11,3,11.5,3,12.1v7.8
	C3,20.5,3.5,21,4.1,21l3.8,0C8.5,21,9,20.5,9,19.9V12.1L9,12.1z M23.9,23.7C27,22.4,29,19.4,29,16c0-3.4-2-6.4-5.1-7.7
	c-0.4-0.2-0.8,0-1,0.4c-0.2,0.4,0,0.8,0.4,1c2.6,1.1,4.2,3.6,4.2,6.4c0,2.8-1.7,5.3-4.2,6.4c-0.4,0.2-0.6,0.6-0.4,1
	c0.1,0.3,0.4,0.5,0.7,0.5C23.7,23.8,23.8,23.8,23.9,23.7z M22.1,20.7c2.1-0.7,3.5-2.6,3.5-4.7c0-2.2-1.4-4.1-3.5-4.7
	c-0.4-0.1-0.8,0.1-0.9,0.5c-0.1,0.4,0.1,0.8,0.5,0.9c1.5,0.5,2.5,1.8,2.5,3.3c0,1.5-1,2.9-2.5,3.3c-0.4,0.1-0.6,0.5-0.5,0.9
	c0.1,0.3,0.4,0.5,0.7,0.5C21.9,20.8,22,20.8,22.1,20.7z"/>
</svg>
