<?xml version="1.0" encoding="iso-8859-1"?>
<!-- Generator: Adobe Illustrator 18.0.0, SVG Export Plug-In . SVG Version: 6.00 Build 0)  -->
<!DOCTYPE svg PUBLIC "-//W3C//DTD SVG 1.1//EN" "http://www.w3.org/Graphics/SVG/1.1/DTD/svg11.dtd">
<svg version="1.1" id="Ebene_1" xmlns="http://www.w3.org/2000/svg" xmlns:xlink="http://www.w3.org/1999/xlink" x="0px" y="0px"
	 viewBox="0 0 32 32" style="enable-background:new 0 0 32 32;" xml:space="preserve">
<path d="M9.4,10.6l9.1-3.4C19.1,7,19.8,7.4,19.9,8l1.9,10.3c0.1,0.6-0.4,1.2-1,1.2l-9.7,0.1L9.4,10.6z M8.6,20.1l1.7-0.3l-1.7-9
	l-1.7,0.3c-2.4,0.4-4,2.7-3.5,5.1l0.1,0.3C3.9,18.9,6.2,20.5,8.6,20.1z M16.3,25.5L12.9,21c-0.1-0.1-0.2-0.1-0.3-0.2l-1.5-0.3
	c-0.1,0-0.1,0-0.2,0l-1.5,0.3c-0.3,0.1-0.5,0.4-0.3,0.7l3.4,5.1c0.1,0.2,0.3,0.2,0.5,0.2l3-0.6C16.3,26.2,16.5,25.8,16.3,25.5z
	 M22.2,14.9c0.9-0.3,1.5-1.3,1.3-2.3c-0.2-1-1.1-1.7-2.1-1.7L22.2,14.9z M26.2,18.7c2.4-1.5,3.7-4.2,3.3-7c-0.4-2.8-2.4-5-5.2-5.7
	c-0.3-0.1-0.7,0.1-0.8,0.5c-0.1,0.3,0.1,0.7,0.5,0.8c2.2,0.6,3.9,2.4,4.2,4.7c0.3,2.3-0.7,4.5-2.7,5.7c-0.3,0.2-0.4,0.6-0.2,0.9
	c0.1,0.2,0.3,0.3,0.5,0.3C26,18.8,26.1,18.7,26.2,18.7z M24.4,16.4c1.6-0.8,2.6-2.5,2.3-4.3c-0.3-1.8-1.7-3.2-3.5-3.5
	c-0.3-0.1-0.7,0.2-0.7,0.5c-0.1,0.3,0.2,0.7,0.5,0.7c1.3,0.2,2.2,1.2,2.4,2.4c0.2,1.2-0.5,2.5-1.6,3c-0.3,0.2-0.4,0.5-0.3,0.8
	c0.1,0.2,0.3,0.4,0.6,0.4C24.2,16.5,24.3,16.5,24.4,16.4z"/>
</svg>
