<?xml version="1.0" encoding="iso-8859-1"?>
<!-- Generator: Adobe Illustrator 18.0.0, SVG Export Plug-In . SVG Version: 6.00 Build 0)  -->
<!DOCTYPE svg PUBLIC "-//W3C//DTD SVG 1.1//EN" "http://www.w3.org/Graphics/SVG/1.1/DTD/svg11.dtd">
<svg version="1.1" id="Ebene_1" xmlns="http://www.w3.org/2000/svg" xmlns:xlink="http://www.w3.org/1999/xlink" x="0px" y="0px"
	 viewBox="0 0 32 32" style="enable-background:new 0 0 32 32;" xml:space="preserve">
<g>
	<g>
		<path d="M16,5.3l9.9,7.9c0.3,0.2,0.1,0.6-0.2,0.6H6.4c-0.3,0-0.5-0.4-0.2-0.6L16,5.3z"/>
	</g>
</g>
<path d="M27,27.5V14.8h-1v12.8c0,0.3-0.2,0.5-0.5,0.5H6.5C6.2,28,6,27.8,6,27.5V14.8H5v12.8C5,28.3,5.7,29,6.5,29h19.1
	C26.3,29,27,28.3,27,27.5z"/>
<path d="M29.1,13.2c0.3-0.3,0.2-0.8-0.1-1.1l-12.6-10c-0.3-0.2-0.7-0.2-0.9,0L3,12.2c-0.3,0.3-0.4,0.7-0.1,1.1
	c0.3,0.3,0.7,0.4,1.1,0.1l12-9.6L28,13.3c0.1,0.1,0.3,0.2,0.5,0.2C28.7,13.5,28.9,13.4,29.1,13.2z"/>
</svg>
