<svg id="Ebene_1" data-name="Ebene 1" xmlns="http://www.w3.org/2000/svg" viewBox="0 0 32 32"><title>0049</title><path d="M26.87819,7.42577A3.83524,3.83524,0,1,1,21.441,7.42294l2.216-2.20669a.68487.68487,0,0,1,.52722-.21525.73553.73553,0,0,1,.52722.221Zm-6.59014,9.57747a5.87194,5.87194,0,1,1-8.32536-.00283l3.676-3.65986a.75717.75717,0,0,1,.52722-.21525.72894.72894,0,0,1,.52433.221ZM10.5633,7.42577a3.83627,3.83627,0,1,1-5.44-.00283l2.216-2.20669A.69954.69954,0,0,1,7.86938,5.001a.73386.73386,0,0,1,.52433.221Z"/></svg>