<?xml version="1.0" encoding="iso-8859-1"?>
<!-- Generator: Adobe Illustrator 18.0.0, SVG Export Plug-In . SVG Version: 6.00 Build 0)  -->
<!DOCTYPE svg PUBLIC "-//W3C//DTD SVG 1.1//EN" "http://www.w3.org/Graphics/SVG/1.1/DTD/svg11.dtd">
<svg version="1.1" id="Ebene_1" xmlns="http://www.w3.org/2000/svg" xmlns:xlink="http://www.w3.org/1999/xlink" x="0px" y="0px"
	 viewBox="0 0 32 32" style="enable-background:new 0 0 32 32;" xml:space="preserve">
<path d="M23.4,17.5c0,3-2.5,5.9-5,7.4c0.8-1.3,1.4-2.6,1.4-3.6c0-2.2-3.4-4.6-3.7-6.3c-0.9,0.6-3.1,2.6-3.1,4.7c0,1.3,0.9,3.1,1.6,5
	c-1.7-1.7-5.9-3.8-5.9-8.6c0-6,3.9-11.3,9.8-14C16.3,8.8,23.4,11.1,23.4,17.5z M26.8,28c0-1.1-0.9-2-2-2H7.1c-1.1,0-2,0.9-2,2l0,0
	c0,1.1,0.9,2,2,2h17.7C26,30,26.8,29.1,26.8,28L26.8,28z"/>
</svg>
