<?xml version="1.0" encoding="iso-8859-1"?>
<!-- Generator: Adobe Illustrator 18.0.0, SVG Export Plug-In . SVG Version: 6.00 Build 0)  -->
<!DOCTYPE svg PUBLIC "-//W3C//DTD SVG 1.1//EN" "http://www.w3.org/Graphics/SVG/1.1/DTD/svg11.dtd">
<svg version="1.1" id="Ebene_1" xmlns="http://www.w3.org/2000/svg" xmlns:xlink="http://www.w3.org/1999/xlink" x="0px" y="0px"
	 viewBox="0 0 32 32" style="enable-background:new 0 0 32 32;" xml:space="preserve">
<path style="fill-rule:evenodd;clip-rule:evenodd;" d="M28.5,22.5 M12,14v-2l-1,2H12z M15,11.5c-0.1,0-0.3,0-0.4,0.1
	c-0.1,0.1-0.1,0.2-0.1,0.4s0,0.3,0.1,0.4s0.2,0.1,0.4,0.1c0.1,0,0.3,0,0.4-0.1c0.1-0.1,0.1-0.2,0.1-0.4s0-0.3-0.1-0.4
	C15.3,11.5,15.1,11.5,15,11.5z M4,9v9h16V9H4z M13.5,15H13v1h-1v-1h-2v-0.9l1.5-3.1H13v3h0.5V15z M16,12.4c-0.1,0.1-0.1,0.2-0.2,0.3
	c-0.1,0.1-0.2,0.2-0.3,0.2S15.1,13,15,13c-0.1,0-0.3,0-0.4-0.1s-0.2-0.1-0.3-0.2c-0.1-0.1-0.2-0.2-0.2-0.3S14,12.1,14,12
	s0-0.3,0.1-0.4s0.1-0.2,0.2-0.3c0.1-0.1,0.2-0.2,0.3-0.2S14.9,11,15,11c0.1,0,0.3,0,0.4,0.1s0.2,0.1,0.3,0.2
	c0.1,0.1,0.2,0.2,0.2,0.3S16,11.9,16,12S16,12.3,16,12.4z M29.7,15.4c-0.1-1.1-0.5-1.9-1.2-2.5c-1.4-1.1-3.2-0.9-3.3-0.9
	c-0.2,0-0.3,0.2-0.3,0.4c0,0.2,0.2,0.3,0.4,0.3c0,0,1.6-0.2,2.8,0.8c0.6,0.5,0.9,1.1,1,2c0.2,2.3-1.3,6.1-3.2,7.1
	c-1.3,0.6-3.8,0.7-5.8,0.7v-0.8c0-0.3-0.2-0.5-0.5-0.5h-8c-0.3,0-0.5,0.3-0.5,0.5V23H3.5C3.3,23,3,23.2,3,23.5C3,23.8,3.3,24,3.5,24
	H11v0.5c0,0.3,0.3,0.5,0.5,0.5h8c0.3,0,0.5-0.2,0.5-0.5V24c0,0,0.1,0,0.2,0c2,0,4.6-0.1,6-0.8C28.3,22.1,30,18,29.7,15.4z M21,8v11
	H3V8H21 M21,7H3C2.4,7,2,7.4,2,8v11c0,0.6,0.4,1,1,1h18c0.6,0,1-0.4,1-1V8C22,7.4,21.6,7,21,7L21,7z M23,15.5v-5
	c0-0.3,0.2-0.5,0.5-0.5c0.3,0,0.5,0.2,0.5,0.5v5c0,0.3-0.2,0.5-0.5,0.5C23.2,16,23,15.8,23,15.5z"/>
</svg>
