<?xml version="1.0" encoding="iso-8859-1"?>
<!-- Generator: Adobe Illustrator 18.0.0, SVG Export Plug-In . SVG Version: 6.00 Build 0)  -->
<!DOCTYPE svg PUBLIC "-//W3C//DTD SVG 1.1//EN" "http://www.w3.org/Graphics/SVG/1.1/DTD/svg11.dtd">
<svg version="1.1" id="Ebene_1" xmlns="http://www.w3.org/2000/svg" xmlns:xlink="http://www.w3.org/1999/xlink" x="0px" y="0px"
	 viewBox="0 0 32 32" style="enable-background:new 0 0 32 32;" xml:space="preserve">
<path d="M24.5,22.6c0,0.7-0.4,4.2-0.6,5.7c0,0.4-0.4,0.7-0.7,0.7c0,0-3.2-1-4-1s-4,0-4,0c-0.4,0-0.7-0.3-0.8-0.7
	c-0.2-1.5-0.5-4-0.6-4.7c-0.1-1.8,0.3-3,1.3-5.7c1.1-2.9-1.1-8.3-0.9-8.5c0.1-0.2,0.9-1.2,1.9-1.5V3.1c0,0,0,0,0,0c0,0,0.1,0,0.3,0
	c0.2,0,0.3,0,0.3,0c0,0,0,0,0,0v3.8c0.1,0,0.2,0,0.3,0c0.9,0.2,1.5,0.9,1.8,1.5c0.2,0.3,0.4,0.3,0.6,0c0.3-0.5,0.9-1.3,1.8-1.5
	c0.2,0,0.4-0.1,0.5,0V3.1c0,0,0,0,0,0c0,0,0.1,0,0.3,0c0.2,0,0.3,0,0.3,0c0,0,0,0,0,0V7c0.9,0.4,1.5,1.3,1.7,1.4
	c0.2,0.2-2,5.6-0.9,8.5C24.2,19.6,24.6,20.9,24.5,22.6z M12.4,24.9c-0.1-1-0.2-1.9-0.2-2.2c-0.1-2,0.4-3.4,1.4-6
	c0.5-1.4,0.1-3.6-0.3-5.4c-0.2,0-0.3,0-0.5,0c-1.5,0-2.7-0.6-2.8-1.4c0.1,0,0.1,0,0.2,0c0.1,0.7,1.2,1.2,2.6,1.2c0.2,0,0.3,0,0.5,0
	c0-0.1,0-0.2-0.1-0.2c-0.1,0-0.3,0-0.4,0c-1.3,0-2.3-0.5-2.4-1c0,0,0,0,0-0.1c0,0,0,0-0.1,0c-0.1,0-0.1,0-0.2,0c-0.1,0-0.1,0-0.2,0
	c-0.7,0.1-1.1,0.2-1.5,0.3c-2,0.6-4,2.7-4,2.7l0,0l2,2.4l0,0c0,0,1.1-1,1.6-1c0.1,0,0.1,0,0.2,0.1c0.1,0.1,0.1,0.8,0.2,1.6
	c0.1,1.1,0.1,2.7,0.2,4.3c0.1,2.1,0,4.5,0,4.5L12.4,24.9z"/>
</svg>
