<?xml version="1.0" encoding="iso-8859-1"?>
<!-- Generator: Adobe Illustrator 18.0.0, SVG Export Plug-In . SVG Version: 6.00 Build 0)  -->
<!DOCTYPE svg PUBLIC "-//W3C//DTD SVG 1.1//EN" "http://www.w3.org/Graphics/SVG/1.1/DTD/svg11.dtd">
<svg version="1.1" id="Ebene_1" xmlns="http://www.w3.org/2000/svg" xmlns:xlink="http://www.w3.org/1999/xlink" x="0px" y="0px"
	 viewBox="0 0 32 32" style="enable-background:new 0 0 32 32;" xml:space="preserve">
<path d="M24.8,4.3l-16,3.6C8.3,7.9,8,8.3,8,8.8v11.4c0,0.7-0.6,1.3-1.3,1.3c-2.1,0-3.9,1.7-3.9,3.8c0,2.1,1.5,3.8,3.5,3.8
	c2,0,3.7-1.8,3.7-3.8V13.8c0-0.5,0.3-0.9,0.8-1l12-2.6c0.6-0.1,1.2,0.3,1.2,1v7c0,0.7-0.6,1.3-1.4,1.3c-2.1-0.1-4.1,1.7-4.1,3.8
	c0,2.1,1.6,3.8,3.7,3.8c2.1,0,3.7-1.7,3.7-3.8V5.2C26,4.6,25.4,4.1,24.8,4.3z"/>
</svg>
