<?xml version="1.0" encoding="iso-8859-1"?>
<!-- Generator: Adobe Illustrator 18.0.0, SVG Export Plug-In . SVG Version: 6.00 Build 0)  -->
<!DOCTYPE svg PUBLIC "-//W3C//DTD SVG 1.1//EN" "http://www.w3.org/Graphics/SVG/1.1/DTD/svg11.dtd">
<svg version="1.1" id="Ebene_1" xmlns="http://www.w3.org/2000/svg" xmlns:xlink="http://www.w3.org/1999/xlink" x="0px" y="0px"
	 viewBox="0 0 32 32" style="enable-background:new 0 0 32 32;" xml:space="preserve">
<path style="fill-rule:evenodd;clip-rule:evenodd;" d="M26,3H6C5.4,3,5,3.4,5,4v24c0,0.6,0.4,1,1,1h20c0.6,0,1-0.4,1-1V4
	C27,3.4,26.6,3,26,3z M22,6c0.3,0,0.5,0.2,0.5,0.5C22.5,6.8,22.3,7,22,7s-0.5-0.2-0.5-0.5C21.5,6.2,21.7,6,22,6z M20,6
	c0.3,0,0.5,0.2,0.5,0.5C20.5,6.8,20.3,7,20,7s-0.5-0.2-0.5-0.5C19.5,6.2,19.7,6,20,6z M18,6c0.3,0,0.5,0.2,0.5,0.5
	C18.5,6.8,18.3,7,18,7s-0.5-0.2-0.5-0.5C17.5,6.2,17.7,6,18,6z M7.5,6.5L7.5,6.5C7.5,6.2,7.7,6,8,6h4c0.3,0,0.5,0.2,0.5,0.5v0
	C12.5,6.8,12.3,7,12,7H8C7.7,7,7.5,6.8,7.5,6.5z M24,24.5c0,0.3-0.2,0.5-0.5,0.5h-15C8.2,25,8,24.8,8,24.5v-13C8,11.2,8.2,11,8.5,11
	h15c0.3,0,0.5,0.2,0.5,0.5V24.5z M24,7c-0.3,0-0.5-0.2-0.5-0.5C23.5,6.2,23.7,6,24,6s0.5,0.2,0.5,0.5C24.5,6.8,24.3,7,24,7z
	 M11.1,17.3c0.6,1.4,1.7,3.5,3.7,4.5c0.2,0.1,0.1,0.5-0.1,0.5h-3.9c-0.1,0-0.2-0.1-0.2-0.2v-4.6C10.7,17.1,11,17,11.1,17.3z
	 M23,11.5H9c-0.3,0-0.5,0.2-0.5,0.5v12c0,0.3,0.2,0.5,0.5,0.5h14c0.3,0,0.5-0.2,0.5-0.5V12C23.5,11.7,23.3,11.5,23,11.5z M22,23H10
	v-7h12V23z M22,13.5c0,0.3-0.2,0.5-0.5,0.5h-11c-0.3,0-0.5-0.2-0.5-0.5v0c0-0.3,0.2-0.5,0.5-0.5h11C21.8,13,22,13.2,22,13.5L22,13.5
	z"/>
</svg>
