<?xml version="1.0" encoding="iso-8859-1"?>
<!-- Generator: Adobe Illustrator 18.0.0, SVG Export Plug-In . SVG Version: 6.00 Build 0)  -->
<!DOCTYPE svg PUBLIC "-//W3C//DTD SVG 1.1//EN" "http://www.w3.org/Graphics/SVG/1.1/DTD/svg11.dtd">
<svg version="1.1" id="Ebene_1" xmlns="http://www.w3.org/2000/svg" xmlns:xlink="http://www.w3.org/1999/xlink" x="0px" y="0px"
	 viewBox="0 0 32 32" style="enable-background:new 0 0 32 32;" xml:space="preserve">
<g>
	<path d="M29.5,18.9c-0.3-2.7-0.2-3.7-1.3-4c-1.7-0.4-4.5,2.6-7.3,1c-1.2-0.7-1.5-2.7-3-1.8c-0.6,0.4-1.1,0.7-1.7,1l0,0
		C16.1,15,16,15,15.9,15c-0.1,0-0.2,0.1-0.2,0.1c-0.1,0.1-0.2,0.2-0.1,0.3l0,0c-0.5,0.3-1,0.6-1.5,0.8l0-0.1
		c-0.1-0.1-0.2-0.1-0.3-0.1c-0.1,0-0.2,0.1-0.2,0.1c-0.1,0.1-0.2,0.2-0.1,0.3l0,0.1c-0.4,0.2-0.9,0.4-1.2,0.6l0-0.1
		c0-0.1-0.2-0.2-0.3-0.1c-0.1,0-0.2,0.1-0.2,0.1c-0.1,0-0.2,0.2-0.1,0.3l0,0.1c-4.3,1.7-6.3,1.4-7,1.7c-0.8,0.4-0.8,0.9-1,1.2
		c6.9,1.7,13.5,1.8,17.9,1.6c4.1-0.2,7.1-0.7,7.9-0.9C29.5,20.8,29.7,20.3,29.5,18.9z M12.2,18.2c-0.4,0.1-0.8,0.1-0.8-0.1
		c0-0.1,0.1-0.3,0.3-0.4l0.1,0.1c0,0.1,0.2,0.1,0.4,0.1l0.1,0c0.2-0.1,0.3-0.2,0.2-0.3l0-0.1c0.2,0,0.4,0,0.5,0.1
		C12.9,17.8,12.6,18.1,12.2,18.2z M14.2,17.2c-0.4,0.2-0.8,0.2-0.8,0c0-0.1,0-0.2,0.2-0.4l0,0.1c0,0.1,0.2,0.1,0.4,0.1l0.1,0
		c0.2-0.1,0.2-0.2,0.2-0.3l0-0.1c0.3-0.1,0.5,0,0.6,0.1C14.8,16.8,14.6,17,14.2,17.2z M16.4,16.2c-0.4,0.2-0.8,0.2-0.8,0
		c-0.1-0.1,0-0.3,0.2-0.4l0,0.1c0,0.1,0.2,0.1,0.4,0.1l0.1,0c0.2-0.1,0.2-0.2,0.2-0.3l0-0.1c0.3-0.1,0.5,0,0.5,0.1
		C17,15.7,16.7,16,16.4,16.2z M26.7,12.9c-0.3-2.5-0.2-3.4-1.2-3.7c-1.5-0.4-4.1,2.4-6.8,0.9c-1.1-0.6-1.4-2.5-2.7-1.6
		c-0.5,0.3-1,0.6-1.5,0.9l0,0c0-0.1-0.2-0.1-0.3-0.1c-0.1,0-0.1,0.1-0.2,0.1c-0.1,0.1-0.1,0.2-0.1,0.3l0,0c-0.5,0.3-0.9,0.5-1.4,0.7
		l0-0.1c0-0.1-0.2-0.1-0.3-0.1c-0.1,0-0.1,0.1-0.2,0.1c-0.1,0-0.1,0.2-0.1,0.3l0,0.1c-0.4,0.2-0.8,0.4-1.2,0.5l0-0.1
		c0-0.1-0.2-0.1-0.3-0.1c-0.1,0-0.1,0.1-0.2,0.1c-0.1,0-0.2,0.2-0.1,0.3l0,0.1c-3.9,1.6-5.8,1.2-6.5,1.6C3,13.5,2.9,14,2.8,14.2
		c3.5,0.8,6.9,1.3,10,1.4c0,0,0.1,0,0.1-0.1c0,0,0-0.1,0-0.1c0.1-0.2,0.2-0.3,0.4-0.4l0,0l0.2-0.1c0.1,0,0.2-0.1,0.3-0.1
		c0.1,0,0.2,0,0.4,0.1c0.3-0.2,0.6-0.3,0.9-0.5c0-0.2,0.2-0.4,0.4-0.5l0.2-0.1c0.1-0.1,0.2-0.1,0.3-0.1c0.1,0,0.2,0,0.3,0.1
		c0.4-0.3,0.9-0.5,1.3-0.8c0.3-0.2,0.6-0.3,0.9-0.3c0.8,0,1.3,0.6,1.7,1.2c0.3,0.4,0.5,0.7,0.9,0.9c0.5,0.3,1.1,0.4,1.7,0.4
		c1,0,2-0.5,2.8-0.8c0.4-0.2,0.8-0.3,1.1-0.5C26.7,13.6,26.7,13.3,26.7,12.9z M10.7,12.2c-0.4,0.1-0.7,0.1-0.8-0.1
		c0-0.1,0.1-0.3,0.3-0.4l0.1,0.1c0,0.1,0.2,0.1,0.3,0.1l0.1,0c0.1-0.1,0.2-0.2,0.2-0.3l0-0.1c0.2,0,0.4,0,0.4,0.1
		C11.3,11.9,11.1,12.1,10.7,12.2z M12.6,11.3c-0.4,0.2-0.7,0.2-0.8,0c0-0.1,0-0.2,0.2-0.4l0,0.1c0,0.1,0.2,0.1,0.3,0l0.1,0
		c0.1-0.1,0.2-0.2,0.2-0.3l0-0.1c0.3-0.1,0.5,0,0.5,0.1C13.2,10.9,12.9,11.2,12.6,11.3z M14.6,10.4c-0.3,0.2-0.7,0.2-0.8,0
		c0-0.1,0-0.2,0.2-0.4l0,0.1c0,0.1,0.2,0.1,0.3,0l0.1,0c0.1-0.1,0.2-0.2,0.2-0.3l0-0.1c0.2-0.1,0.4,0,0.5,0.1
		C15.1,10,14.9,10.2,14.6,10.4z M2.6,14.4c3.2,0.8,6.3,1.2,9.2,1.4c0,0-0.1,0-0.1,0l-0.2,0.1c-0.2,0.1-0.4,0.3-0.4,0.5
		c-0.6,0.2-1.1,0.4-1.6,0.6c0,0,0,0,0,0c-0.3,0-0.6-0.1-1-0.1C8.4,17,8.3,17,8.1,17c-0.1,0-0.2-0.1-0.3-0.2c-0.3,0-0.6-0.1-0.8-0.1
		c0,0.1-0.2,0.1-0.3,0.1c-0.1,0-0.2-0.1-0.3-0.2c-0.2,0-0.5-0.1-0.7-0.1c0,0.1-0.2,0.2-0.4,0.1c-0.2,0-0.3-0.1-0.3-0.2
		c-0.2,0-0.4-0.1-0.5-0.1c0,0.1-0.2,0.2-0.4,0.1c-0.2,0-0.3-0.2-0.3-0.3c-0.1,0-0.2-0.1-0.4-0.1c0,0.1-0.2,0.2-0.4,0.1
		c-0.2,0-0.3-0.2-0.3-0.3c0,0,0,0,0,0c0,0,0,0,0,0C2.3,15.6,2.3,14.5,2.6,14.4z M3.4,20.5c6.5,1.6,12.8,1.8,17.2,1.7
		c0.3,0,0.6,0,0.9,0c4-0.2,7-0.7,7.9-0.8c0.1,0.2,0.2,0.7,0.1,1.2c0,0.1-0.1,0.4-0.4,0.5c0,0-0.1,0-0.2,0c0,0,0,0,0,0
		c0,0.1-0.1,0.2-0.3,0.3c-0.2,0-0.3-0.1-0.4-0.2c-0.1,0-0.2,0-0.3,0c0,0,0,0,0,0c0,0.1-0.2,0.2-0.3,0.2c-0.2,0-0.4-0.1-0.4-0.2
		c0,0,0,0,0,0c-0.2,0-0.3,0-0.5,0c0,0,0,0,0,0c0,0.1-0.2,0.2-0.3,0.2c-0.2,0-0.4-0.1-0.4-0.2c0,0,0,0,0,0c-0.2,0-0.4,0-0.7,0
		c0,0,0,0,0,0c0,0.1-0.2,0.2-0.4,0.2c-0.2,0-0.4-0.1-0.4-0.2c0,0,0,0,0,0c-0.3,0-0.5,0-0.8,0c0,0,0,0,0,0c0,0.1-0.2,0.2-0.4,0.2
		c-0.2,0-0.3-0.1-0.3-0.2c-0.3,0-0.6,0-0.9,0c0,0,0,0,0,0c0,0.1-0.2,0.2-0.4,0.2c-0.2,0-0.3-0.1-0.3-0.2c-0.3,0-0.7,0-1,0
		c0,0,0,0,0,0c0,0.1-0.2,0.2-0.4,0.2c-0.2,0-0.3-0.1-0.3-0.2c-0.4,0-0.7,0-1.1,0c0,0.1-0.2,0.2-0.4,0.2c-0.2,0-0.3-0.1-0.3-0.2
		c-0.4,0-0.8,0-1.1,0c0,0.1-0.2,0.2-0.4,0.2c-0.1,0-0.3-0.1-0.3-0.2c-0.4,0-0.8,0-1.2,0c0,0.1-0.2,0.2-0.4,0.1
		c-0.1,0-0.2-0.1-0.3-0.2c-0.4,0-0.8,0-1.2,0c-0.1,0.1-0.2,0.2-0.4,0.1c-0.1,0-0.2-0.1-0.3-0.2c-0.4,0-0.7,0-1.1-0.1
		c-0.1,0.1-0.2,0.1-0.4,0.1c-0.1,0-0.2-0.1-0.3-0.2c-0.3,0-0.7-0.1-1-0.1c-0.1,0.1-0.2,0.1-0.4,0.1c-0.1,0-0.2-0.1-0.3-0.2
		c-0.3,0-0.6-0.1-0.9-0.1c-0.1,0.1-0.2,0.2-0.4,0.1c-0.2,0-0.3-0.1-0.3-0.2c-0.3,0-0.5-0.1-0.8-0.1C6.7,23,6.5,23,6.3,23
		c-0.2,0-0.3-0.1-0.3-0.3c-0.2,0-0.4-0.1-0.6-0.1c0,0.1-0.2,0.2-0.4,0.1c-0.2,0-0.3-0.2-0.3-0.3c-0.1,0-0.3-0.1-0.4-0.1
		c0,0.1-0.2,0.2-0.4,0.1c-0.2,0-0.3-0.2-0.3-0.3c0,0,0,0,0,0c0,0,0,0,0,0C3,21.9,3.1,20.7,3.4,20.5z"/>
</g>
</svg>
