<?xml version="1.0" encoding="iso-8859-1"?>
<!-- Generator: Adobe Illustrator 18.1.1, SVG Export Plug-In . SVG Version: 6.00 Build 0)  -->
<!DOCTYPE svg PUBLIC "-//W3C//DTD SVG 1.1//EN" "http://www.w3.org/Graphics/SVG/1.1/DTD/svg11.dtd">
<svg version="1.1" id="Ebene_1" xmlns="http://www.w3.org/2000/svg" xmlns:xlink="http://www.w3.org/1999/xlink" x="0px" y="0px"
	 viewBox="0 0 32 32" style="enable-background:new 0 0 32 32;" xml:space="preserve">
<path d="M22.93,15.54c-0.019-0.102-0.127-0.172-0.241-0.155l-0.709,0.102c0,0-1.549-2.514-2.002-2.514h-8.028
	c-0.453,0-1.928,2.514-1.928,2.514l-0.707-0.102c-0.114-0.017-0.223,0.053-0.241,0.155l-0.073,0.397
	c-0.019,0.101,0.059,0.198,0.173,0.213l0.27,0.04c-0.144,0.158-0.25,0.471-0.25,0.691v1.79c0,0.219,0.099,0.553,0.24,0.712v1.234
	c0,0.2,0.184,0.364,0.41,0.364h1.886c0.227,0,0.411-0.163,0.411-0.364v-0.87c1.084,0.087,2.415,0.139,3.859,0.139
	c1.444,0,2.775-0.053,3.859-0.139v0.849c0,0.213,0.195,0.385,0.434,0.385h1.84c0.24,0,0.434-0.172,0.434-0.385v-1.232
	c0.133-0.155,0.225-0.482,0.225-0.692v-1.79c0-0.22-0.091-0.533-0.235-0.691l0.271-0.04c0.114-0.016,0.192-0.112,0.173-0.213
	L22.93,15.54z M11.881,18.101l-1.939-0.23c-0.077-0.01-0.133-0.067-0.133-0.135v-0.731c0-0.094,0.106-0.159,0.205-0.126l1.839,0.588
	c0.049,0.016,0.085,0.051,0.097,0.097l0.1,0.371C12.075,18.028,11.987,18.113,11.881,18.101z M19.221,17.908
	c0,0.141-0.054,0.203-0.428,0.256c-0.187,0.026-1.486,0.139-2.787,0.138c-1.3-0.001-2.603-0.116-2.794-0.138
	c-0.385-0.044-0.429-0.115-0.429-0.256v-0.264c0-0.142,0.113-0.23,0.429-0.256c0.315-0.026,1.945-0.04,2.791-0.04
	c1.615,0.001,2.511,0.023,2.791,0.04c0.279,0.019,0.428,0.114,0.428,0.256V17.908z M10.283,16.004l1.512-2.43
	c0.037-0.047,0.098-0.075,0.163-0.075h7.983c0.062,0,0.119,0.024,0.157,0.067l1.624,2.438H10.283z M22.183,17.736
	c0,0.068-0.058,0.125-0.134,0.135l-1.939,0.23c-0.106,0.011-0.195-0.074-0.169-0.166l0.1-0.371c0.011-0.046,0.049-0.081,0.097-0.097
	l1.839-0.588c0.1-0.033,0.206,0.033,0.206,0.126V17.736z M14.07,27.02c-4.071-0.753-7.344-4.02-8.098-8.085
	C4.772,12.46,9.718,6.991,15.989,6.991v-2c-6.796,0-12.251,5.629-11.991,12.472c0.235,6.18,5.357,11.293,11.546,11.528
	c6.52,0.247,11.939-4.69,12.452-11.012c0.043-0.526-0.358-0.983-0.886-0.983h-0.026c-0.476,0-0.848,0.376-0.887,0.85
	C25.712,23.698,20.259,28.164,14.07,27.02z M17.005,3.781L17,8.206c0.001,0.985,0.797,1.784,1.78,1.784l4.21,0.01L23,2.008L18.791,2
	C17.805,1.999,17.007,2.797,17.005,3.781 M28,3.75L28,3.75c0,0.414-0.336,0.75-0.75,0.75H24V3h3.25C27.664,3,28,3.336,28,3.75z
	 M27.25,9H24V7.5h3.25C27.664,7.5,28,7.836,28,8.25v0C28,8.664,27.664,9,27.25,9z"/>
</svg>
