<?xml version="1.0" encoding="iso-8859-1"?>
<!-- Generator: Adobe Illustrator 19.1.0, SVG Export Plug-In . SVG Version: 6.00 Build 0)  -->
<!DOCTYPE svg PUBLIC "-//W3C//DTD SVG 1.1//EN" "http://www.w3.org/Graphics/SVG/1.1/DTD/svg11.dtd">
<svg version="1.1" id="Ebene_1" xmlns="http://www.w3.org/2000/svg" xmlns:xlink="http://www.w3.org/1999/xlink" x="0px" y="0px"
	 viewBox="0 0 32 32" style="enable-background:new 0 0 32 32;" xml:space="preserve">
<path d="M17.192,23.167c0.394-0.628,0.681-1.302,0.681-1.785c0-1.101-1.68-2.313-1.855-3.171c-0.462,0.298-1.564,1.305-1.564,2.349
	c0,0.648,0.466,1.546,0.79,2.503c-0.842-0.866-2.941-1.899-2.941-4.317c0-3.019,1.944-5.632,4.894-6.994
	c-1.041,3.412,2.514,4.565,2.514,7.724C19.711,20.966,18.46,22.413,17.192,23.167z M30,8.764l-5.167-5.167l-1.632,1.632l5.167,5.167
	L30,8.764z M7.167,3.597L2,8.764l1.632,1.632l5.167-5.167L7.167,3.597z M26.33,17.46c0-1.769-0.446-3.434-1.231-4.89l0.041,0.041
	l1.839-1.839l-4.124-4.124l-1.807,1.807c-1.492-0.837-3.209-1.319-5.041-1.319c-1.832,0-3.549,0.482-5.04,1.319L9.152,6.641
	l-4.125,4.124l1.846,1.846l0.041-0.041c-0.785,1.456-1.231,3.12-1.231,4.889c0,3.934,2.201,7.352,5.438,9.095l-3.438,1.848H24.33
	l-3.438-1.848C24.129,24.813,26.33,21.394,26.33,17.46z M16.007,25.84c-4.621,0-8.38-3.759-8.38-8.38c0-4.621,3.759-8.38,8.38-8.38
	s8.38,3.759,8.38,8.38C24.387,22.081,20.628,25.84,16.007,25.84z"/>
</svg>
