<?xml version="1.0" encoding="iso-8859-1"?>
<!-- Generator: Adobe Illustrator 18.0.0, SVG Export Plug-In . SVG Version: 6.00 Build 0)  -->
<!DOCTYPE svg PUBLIC "-//W3C//DTD SVG 1.1//EN" "http://www.w3.org/Graphics/SVG/1.1/DTD/svg11.dtd">
<svg version="1.1" id="Ebene_1" xmlns="http://www.w3.org/2000/svg" xmlns:xlink="http://www.w3.org/1999/xlink" x="0px" y="0px"
	 viewBox="0 0 32 32" style="enable-background:new 0 0 32 32;" xml:space="preserve">
<path id="drop_1_" d="M5.9,19.4c0-7.4,8.6-16,8.9-16.4c0.3-0.3,0.8-0.5,1.2-0.5c0.4,0,0.9,0.2,1.2,0.5c0.4,0.4,8.9,9,8.9,16.4
	c0,5.6-4.5,10.1-10.1,10.1S5.9,25,5.9,19.4z M9.5,24c1.3,2,3.6,2.7,5.1,1.7c1.6-1,1.8-3.4,0.6-5.4c-1.3-1.9-3.6-2.7-5.1-1.7
	C8.5,19.6,8.3,22,9.5,24z"/>
</svg>
