<?xml version="1.0" encoding="iso-8859-1"?>
<!-- Generator: Adobe Illustrator 18.1.1, SVG Export Plug-In . SVG Version: 6.00 Build 0)  -->
<!DOCTYPE svg PUBLIC "-//W3C//DTD SVG 1.1//EN" "http://www.w3.org/Graphics/SVG/1.1/DTD/svg11.dtd">
<svg version="1.1" id="Ebene_1" xmlns="http://www.w3.org/2000/svg" xmlns:xlink="http://www.w3.org/1999/xlink" x="0px" y="0px"
	 viewBox="0 0 32 32" style="enable-background:new 0 0 32 32;" xml:space="preserve">
<path d="M16,15.997h4.997v2H16h-2v-2V10h2V15.997z M16,4C9.373,4,4,9.373,4,16c0,6.628,5.373,12,12,12s12-5.372,12-12
	C28,9.373,22.627,4,16,4z M16,25.5c-5.238,0-9.5-4.262-9.5-9.5c0-5.238,4.262-9.5,9.5-9.5c5.239,0,9.5,4.262,9.5,9.5
	C25.5,21.238,21.239,25.5,16,25.5z"/>
</svg>
