<?xml version="1.0" encoding="iso-8859-1"?>
<!-- Generator: Adobe Illustrator 18.0.0, SVG Export Plug-In . SVG Version: 6.00 Build 0)  -->
<!DOCTYPE svg PUBLIC "-//W3C//DTD SVG 1.1//EN" "http://www.w3.org/Graphics/SVG/1.1/DTD/svg11.dtd">
<svg version="1.1" id="Ebene_1" xmlns="http://www.w3.org/2000/svg" xmlns:xlink="http://www.w3.org/1999/xlink" x="0px" y="0px"
	 viewBox="0 0 32 32" style="enable-background:new 0 0 32 32;" xml:space="preserve">
<path d="M28,25.8V6.2C28,5,27,4,25.7,4H6.2C5,4,4,5,4,6.2v19.5C4,27,5,28,6.2,28h19.5C27,28,28,27,28,25.8z M15,8.3V11
	c0,0.5,0.5,0.7,1,0.7c0.5,0,1-0.2,1-0.7V8.3c3.9,0.5,6.8,3.8,6.8,7.7c0,4-2.9,7.3-6.8,7.7V21c0-0.5-0.5-0.7-1-0.7
	c-0.5,0-1,0.2-1,0.7v2.7C11.1,23.3,8.2,20,8.2,16C8.2,12,11.1,8.7,15,8.3z M12.5,16c0-0.5,0.4-0.9,0.9-0.9c0.5,0,0.9,0.4,0.9,0.9
	c0,0.5-0.4,0.9-0.9,0.9C12.9,16.9,12.5,16.5,12.5,16z M17.7,16c0-0.5,0.4-0.9,0.9-0.9c0.5,0,0.9,0.4,0.9,0.9c0,0.5-0.4,0.9-0.9,0.9
	C18.1,16.9,17.7,16.5,17.7,16z"/>
</svg>
