<?xml version="1.0" encoding="iso-8859-1"?>
<!-- Generator: Adobe Illustrator 18.0.0, SVG Export Plug-In . SVG Version: 6.00 Build 0)  -->
<!DOCTYPE svg PUBLIC "-//W3C//DTD SVG 1.1//EN" "http://www.w3.org/Graphics/SVG/1.1/DTD/svg11.dtd">
<svg version="1.1" id="Ebene_1" xmlns="http://www.w3.org/2000/svg" xmlns:xlink="http://www.w3.org/1999/xlink" x="0px" y="0px"
	 viewBox="0 0 32 32" style="enable-background:new 0 0 32 32;" xml:space="preserve">
<path d="M16,2.1c0.4,0,0.8,0.3,0.8,0.8v3c0,0.4-0.3,0.8-0.8,0.8c-0.4,0-0.8-0.3-0.8-0.8v-3C15.3,2.5,15.6,2.1,16,2.1 M6.4,6.1
	c0.3-0.3,0.8-0.3,1.1,0l2.1,2.1c0.3,0.3,0.3,0.8,0,1.1c-0.3,0.3-0.8,0.3-1.1,0L6.4,7.1C6.2,6.8,6.2,6.4,6.4,6.1 M2.5,15.6
	c0-0.4,0.3-0.8,0.8-0.8h3c0.4,0,0.8,0.3,0.8,0.8s-0.3,0.8-0.8,0.8h-3C2.8,16.4,2.5,16.1,2.5,15.6 M6.4,25.2c-0.3-0.3-0.3-0.8,0-1.1
	L8.5,22c0.3-0.3,0.8-0.3,1.1,0c0.3,0.3,0.3,0.8,0,1.1l-2.1,2.1C7.2,25.5,6.7,25.5,6.4,25.2 M25.6,25.2c-0.3,0.3-0.8,0.3-1.1,0
	l-2.1-2.1c-0.3-0.3-0.3-0.8,0-1.1s0.8-0.3,1.1,0l2.1,2.1C25.8,24.5,25.8,24.9,25.6,25.2 M29.5,15.7c0,0.4-0.3,0.7-0.8,0.7h-3
	c-0.4,0-0.8-0.3-0.8-0.7c0-0.4,0.3-0.8,0.8-0.8h3C29.2,14.9,29.5,15.3,29.5,15.7 M25.6,6.1c0.3,0.3,0.3,0.8,0,1.1l-2.1,2.1
	c-0.3,0.3-0.8,0.3-1.1,0c-0.3-0.3-0.3-0.8,0-1.1l2.1-2.1C24.8,5.8,25.3,5.8,25.6,6.1 M16,30c1.7,0,3-1.3,3-3h-6
	C13,28.7,14.3,30,16,30z M15.8,18.3c0.1,0.1,0.3,0.1,0.4,0l1.6-0.7l-0.9,3.2c0.4-0.1,0.8-0.2,1.1-0.4l1-3.6c0.1-0.2,0-0.4-0.2-0.5
	c-0.1-0.1-0.4-0.2-0.5-0.1L16,17.3l-2.4-1.1c-0.2-0.1-0.4,0-0.5,0.1c-0.1,0.1-0.2,0.3-0.1,0.5l1.1,3.6c0.4,0.2,0.8,0.3,1.2,0.3
	l-1-3.2L15.8,18.3z M16,8.3c-4.1,0-7.5,3.4-7.5,7.5c0,2.2,1,4.2,2.5,5.6V25c0,0.6,0.5,1,1.1,1h7.8c0.6,0,1.1-0.4,1.1-1v-3.6
	c1.5-1.4,2.5-3.4,2.5-5.6C23.5,11.7,20.2,8.3,16,8.3z M16,21.7c-3.3,0-6-2.7-6-6s2.7-6,6-6s6,2.7,6,6S19.3,21.7,16,21.7z"/>
</svg>
