<?xml version="1.0" encoding="iso-8859-1"?>
<!-- Generator: Adobe Illustrator 18.0.0, SVG Export Plug-In . SVG Version: 6.00 Build 0)  -->
<!DOCTYPE svg PUBLIC "-//W3C//DTD SVG 1.1//EN" "http://www.w3.org/Graphics/SVG/1.1/DTD/svg11.dtd">
<svg version="1.1" id="Ebene_1" xmlns="http://www.w3.org/2000/svg" xmlns:xlink="http://www.w3.org/1999/xlink" x="0px" y="0px"
	 viewBox="0 0 32 32" style="enable-background:new 0 0 32 32;" xml:space="preserve">
<path d="M27.5,28h-23C4.2,28,4,27.8,4,27.5V23h24v4.5C28,27.8,27.8,28,27.5,28z M27,21.5v-4H5v4C5,21.8,5.2,22,5.5,22h21
	C26.8,22,27,21.8,27,21.5z M26,16v-3.5H6V16c0,0.3,0.2,0.5,0.5,0.5h19C25.8,16.5,26,16.3,26,16z M25,11V8H7v3c0,0.3,0.2,0.5,0.5,0.5
	h17C24.8,11.5,25,11.3,25,11z M24,6.5V4H8v2.5C8,6.8,8.2,7,8.5,7h15C23.8,7,24,6.8,24,6.5z"/>
</svg>
