<?xml version="1.0" encoding="UTF-8" standalone="no"?>
<svg
   xmlns:dc="http://purl.org/dc/elements/1.1/"
   xmlns:cc="http://creativecommons.org/ns#"
   xmlns:rdf="http://www.w3.org/1999/02/22-rdf-syntax-ns#"
   xmlns:svg="http://www.w3.org/2000/svg"
   xmlns="http://www.w3.org/2000/svg"
   xmlns:sodipodi="http://sodipodi.sourceforge.net/DTD/sodipodi-0.dtd"
   xmlns:inkscape="http://www.inkscape.org/namespaces/inkscape"
   version="1.1"
   id="Ebene_1"
   x="0px"
   y="0px"
   viewBox="0 0 32 32"
   style="enable-background:new 0 0 32 32;"
   xml:space="preserve"
   sodipodi:docname="80000000-0000-0002-2000000000000000.svg"
   inkscape:version="1.0.2 (e86c870879, 2021-01-15, custom)"><metadata
   id="metadata9"><rdf:RDF><cc:Work
       rdf:about=""><dc:format>image/svg+xml</dc:format><dc:type
         rdf:resource="http://purl.org/dc/dcmitype/StillImage" /></cc:Work></rdf:RDF></metadata><defs
   id="defs7"><inkscape:perspective
     sodipodi:type="inkscape:persp3d"
     inkscape:vp_x="0 : 16 : 1"
     inkscape:vp_y="0 : 1000 : 0"
     inkscape:vp_z="32 : 16 : 1"
     inkscape:persp3d-origin="16 : 10.666667 : 1"
     id="perspective13" /></defs><sodipodi:namedview
   pagecolor="#ffffff"
   bordercolor="#666666"
   borderopacity="1"
   objecttolerance="10"
   gridtolerance="10"
   guidetolerance="10"
   inkscape:pageopacity="0"
   inkscape:pageshadow="2"
   inkscape:window-width="1920"
   inkscape:window-height="1001"
   id="namedview5"
   showgrid="false"
   inkscape:zoom="24.202876"
   inkscape:cx="16.092447"
   inkscape:cy="16.619761"
   inkscape:window-x="-9"
   inkscape:window-y="-9"
   inkscape:window-maximized="1"
   inkscape:current-layer="Ebene_1"
   inkscape:document-rotation="0" />

   <path
   d="m 20.439693,11.577797 9.000954,0.65882 a 0.60231031,0.63047202 0 0 1 0.342668,1.113177 l -6.935781,6.051359 a 0.60261581,0.63079181 0 0 0 -0.198638,0.636968 l 2.183808,9.179369 a 0.60131108,0.62942607 0 0 1 -0.903831,0.685601 l -7.632249,-5.046308 a 0.60006362,0.62812029 0 0 0 -0.639066,-0.0013 L 8.006209,29.86978 A 0.60137472,0.62949269 0 0 1 7.1049234,29.180382 L 9.3238006,20.010207 A 0.60255853,0.63073185 0 0 0 9.1275175,19.37244 L 2.2148205,13.291967 A 0.60222121,0.63037875 0 0 1 2.5616254,12.180388 L 11.565145,11.55921 a 0.60108195,0.62918623 0 0 0 0.517948,-0.392733 l 3.379073,-8.7723122 a 0.60064916,0.6287332 0 0 1 1.115453,0.00233 l 3.34566,8.7863682 a 0.60127289,0.62938609 0 0 0 0.516414,0.394932 z"
   id="path6"
   style="stroke-width:0.651165" />
   
   </svg>
