<?xml version="1.0" encoding="UTF-8" standalone="no"?>
<svg
   xmlns:dc="http://purl.org/dc/elements/1.1/"
   xmlns:cc="http://creativecommons.org/ns#"
   xmlns:rdf="http://www.w3.org/1999/02/22-rdf-syntax-ns#"
   xmlns:svg="http://www.w3.org/2000/svg"
   xmlns="http://www.w3.org/2000/svg"
   xmlns:sodipodi="http://sodipodi.sourceforge.net/DTD/sodipodi-0.dtd"
   xmlns:inkscape="http://www.inkscape.org/namespaces/inkscape"
   version="1.1"
   id="Ebene_1"
   x="0px"
   y="0px"
   viewBox="0 0 32 32"
   style="enable-background:new 0 0 32 32;"
   xml:space="preserve"
   sodipodi:docname="80000000-0000-0002-2000000000000000.svg"
   inkscape:version="1.0.2 (e86c870879, 2021-01-15, custom)"><metadata
   id="metadata9"><rdf:RDF><cc:Work
       rdf:about=""><dc:format>image/svg+xml</dc:format><dc:type
         rdf:resource="http://purl.org/dc/dcmitype/StillImage" /></cc:Work></rdf:RDF></metadata><defs
   id="defs7"><inkscape:perspective
     sodipodi:type="inkscape:persp3d"
     inkscape:vp_x="0 : 16 : 1"
     inkscape:vp_y="0 : 1000 : 0"
     inkscape:vp_z="32 : 16 : 1"
     inkscape:persp3d-origin="16 : 10.666667 : 1"
     id="perspective13" /></defs><sodipodi:namedview
   pagecolor="#ffffff"
   bordercolor="#666666"
   borderopacity="1"
   objecttolerance="10"
   gridtolerance="10"
   guidetolerance="10"
   inkscape:pageopacity="0"
   inkscape:pageshadow="2"
   inkscape:window-width="1920"
   inkscape:window-height="1001"
   id="namedview5"
   showgrid="false"
   inkscape:zoom="24.202876"
   inkscape:cx="16.092447"
   inkscape:cy="16.619761"
   inkscape:window-x="-9"
   inkscape:window-y="-9"
   inkscape:window-maximized="1"
   inkscape:current-layer="Ebene_1"
   inkscape:document-rotation="0" />

<path d="M21.733,11.531L9.109,24.664C10.69,26.117,12.765,27,15.036,27C19.979,27,24,22.817,24,17.675 C24,16.132,23.239,14.073,21.733,11.531z M17.057,24.335c-0.375,0-0.75-0.045-1.113-0.135c-0.115-0.028-0.195-0.136-0.193-0.258 c0.002-0.122,0.086-0.227,0.201-0.251c2.802-0.585,4.835-3.168,4.835-6.142c0-0.093-0.007-0.195-0.019-0.304 c-0.014-0.126,0.06-0.244,0.177-0.28c0.117-0.036,0.242,0.02,0.296,0.134c0.539,1.129,0.652,1.822,0.652,2.205 C21.894,22.078,19.724,24.335,17.057,24.335z M7.996,23.48l12.742-13.255C19.411,8.774,16.385,7.187,16.527,2 c0,0-4.095,1.564-5.751,9.193c-0.978-1.057-0.887-3.236-0.402-4.523C9.144,7.759,2.985,16.1,7.835,23.266 C7.888,23.338,7.942,23.409,7.996,23.48z"></path>
   
   </svg>
