<?xml version="1.0" encoding="UTF-8" standalone="no"?>
<svg
   xmlns:dc="http://purl.org/dc/elements/1.1/"
   xmlns:cc="http://creativecommons.org/ns#"
   xmlns:rdf="http://www.w3.org/1999/02/22-rdf-syntax-ns#"
   xmlns:svg="http://www.w3.org/2000/svg"
   xmlns="http://www.w3.org/2000/svg"
   xmlns:sodipodi="http://sodipodi.sourceforge.net/DTD/sodipodi-0.dtd"
   xmlns:inkscape="http://www.inkscape.org/namespaces/inkscape"
   version="1.1"
   id="Ebene_1"
   x="0px"
   y="0px"
   viewBox="0 0 32 32"
   style="enable-background:new 0 0 32 32;"
   xml:space="preserve"
   sodipodi:docname="80000000-0000-0002-2000000000000000.svg"
   inkscape:version="1.0.2 (e86c870879, 2021-01-15, custom)"><metadata
   id="metadata9"><rdf:RDF><cc:Work
       rdf:about=""><dc:format>image/svg+xml</dc:format><dc:type
         rdf:resource="http://purl.org/dc/dcmitype/StillImage" /></cc:Work></rdf:RDF></metadata><defs
   id="defs7"><inkscape:perspective
     sodipodi:type="inkscape:persp3d"
     inkscape:vp_x="0 : 16 : 1"
     inkscape:vp_y="0 : 1000 : 0"
     inkscape:vp_z="32 : 16 : 1"
     inkscape:persp3d-origin="16 : 10.666667 : 1"
     id="perspective13" /></defs><sodipodi:namedview
   pagecolor="#ffffff"
   bordercolor="#666666"
   borderopacity="1"
   objecttolerance="10"
   gridtolerance="10"
   guidetolerance="10"
   inkscape:pageopacity="0"
   inkscape:pageshadow="2"
   inkscape:window-width="1920"
   inkscape:window-height="1001"
   id="namedview5"
   showgrid="false"
   inkscape:zoom="24.202876"
   inkscape:cx="16.092447"
   inkscape:cy="16.619761"
   inkscape:window-x="-9"
   inkscape:window-y="-9"
   inkscape:window-maximized="1"
   inkscape:current-layer="Ebene_1"
   inkscape:document-rotation="0" />

   <path class="node--symbol" d="M7.305,22.288c0.369-0.709,0.787-1.451,1.234-2.277c-2.084-2.555-2.184-5.735,1.321-9.611 c2.735-3.026,6.758-4.429,14.423-5.327c0.229-0.027,0.375,0.243,0.23,0.422c-5.414,6.7-3.121,8.891-5.769,13.958 c-1.148,2.198-4.713,3.307-7.262,2.169c-0.188-0.084-0.294-0.293-0.256-0.496c0.579-3.107,2.616-7.167,6.965-11.824 c-5.541,4.075-7.835,9.47-8.679,12.005c-0.46,1.376-0.686,2.853-0.835,4.019c-0.024,0.187-0.278,0.217-0.352,0.043l-1.042-2.461 C7.199,22.707,7.205,22.481,7.305,22.288z"></path>
   </svg>
