<?xml version="1.0" encoding="UTF-8" standalone="no"?>
<svg
   viewBox="0 0 512 512"
   xmlns="http://www.w3.org/2000/svg">
  <path
     d="m 33.32479,286.02858 c -0.441597,0 -0.883194,0 -1.32479,0 v 171.33958 c 0,12.36472 10.156727,22.52144 22.521439,22.52144 H 230.93938 C 229.39379,372.80237 141.29521,286.02858 33.32479,286.02858 Z"
     id="path5"
     style="stroke-width:2.20799" />
  <path
     d="m 33.32479,144.7176 c -0.441597,0 -0.883194,0 -1.32479,0 v 72.86348 c 145.50616,0.66239 263.85412,117.68555 265.3997,262.30853 h 75.51306 C 371.58797,294.86052 219.67866,144.7176 33.32479,144.7176 Z"
     id="path6"
     style="stroke-width:2.20799" />
  <path
     d="M 480,457.58896 V 302.80926 C 428.77477,177.39576 325.6619,78.478066 197.15722,32.110395 H 54.521439 C 42.156727,32.110395 32,42.267122 32,54.631835 V 76.270082 C 255.8896,76.932477 438.0483,257.32479 439.37309,479.8896 h 18.10547 C 469.84327,479.8896 480,469.95367 480,457.58896 Z"
     id="path7"
     style="stroke-width:2.20799" />
  <path
     d="M 421.04682,94.596351 C 441.80187,115.35141 462.99852,141.62641 480,164.81025 V 54.411036 C 480,42.046325 470.06407,32.110395 457.69936,32.110395 H 343.98817 c 26.27502,18.326269 53.65402,39.302122 77.05865,62.485956 z"
     id="path8"
     style="stroke-width:2.208;stroke-dasharray:none" />
</svg>
