<svg width="1280" height="720" xmlns="http://www.w3.org/2000/svg" xmlns:xlink="http://www.w3.org/1999/xlink" overflow="hidden"><defs><clipPath id="clip0"><rect x="0" y="0" width="1280" height="720"/></clipPath><clipPath id="clip1"><rect x="1113" y="661" width="38" height="35"/></clipPath><clipPath id="clip2"><rect x="1113" y="661" width="38" height="35"/></clipPath><clipPath id="clip3"><rect x="1113" y="661" width="38" height="35"/></clipPath></defs><g clip-path="url(#clip0)"><rect x="0" y="0" width="1280" height="720" fill="#FFFFFF"/><path d="M731.833 470.771 731.833 465.437 733.167 465.437 733.167 470.771ZM731.833 461.437 731.833 456.104 733.167 456.104 733.167 461.437ZM731.833 452.104 731.833 446.771 733.167 446.771 733.167 452.104ZM731.833 442.771 731.833 437.437 733.167 437.437 733.167 442.771ZM731.833 433.437 731.833 428.104 733.167 428.104 733.167 433.437ZM731.833 424.104 731.833 418.771 733.167 418.771 733.167 424.104ZM731.833 414.771 731.833 409.437 733.167 409.437 733.167 414.771ZM731.833 405.437 731.833 400.104 733.167 400.104 733.167 405.437ZM731.833 396.104 731.833 390.771 733.167 390.771 733.167 396.104ZM731.833 386.771 731.833 381.437 733.167 381.437 733.167 386.771ZM731.833 377.437 731.833 372.104 733.167 372.104 733.167 377.437ZM728.5 371.5 732.5 363.5 736.5 371.5Z"/><path d="M0.666667-5.3321e-07 0.666671 5.33333-0.666662 5.33333-0.666667 5.3321e-07ZM0.666674 9.33333 0.666678 14.6667-0.666655 14.6667-0.666659 9.33333ZM0.666682 18.6667 0.666686 24-0.666647 24-0.666652 18.6667ZM0.666689 28 0.666693 33.3333-0.66664 33.3333-0.666644 28ZM0.666696 37.3333 0.666701 42.6667-0.666633 42.6667-0.666637 37.3333ZM0.666704 46.6667 0.666708 52-0.666625 52-0.666629 46.6667ZM0.666711 56 0.666716 61.3333-0.666618 61.3333-0.666622 56ZM0.666719 65.3333 0.666723 70.6667-0.66661 70.6667-0.666614 65.3333ZM0.666726 74.6667 0.666731 80-0.666603 80-0.666607 74.6667ZM0.666734 84 0.666738 89.3333-0.666595 89.3333-0.666599 84ZM0.666741 93.3333 0.666746 98.6667-0.666588 98.6667-0.666592 93.3333ZM0.666749 102.667 0.666753 108-0.66658 108-0.666585 102.667ZM0.666756 112 0.666761 117.333-0.666573 117.333-0.666577 112ZM0.666764 121.333 0.666766 124.597-0.666567 124.597-0.66657 121.333ZM4.0001 123.264 0.000104987 131.264-3.9999 123.264Z" transform="matrix(1 0 0 -1 678.5 406.764)"/><path d="M476.5 175.701C476.5 173.381 478.381 171.5 480.701 171.5L617.299 171.5C619.619 171.5 621.5 173.381 621.5 175.701L621.5 210.299C621.5 212.619 619.619 214.5 617.299 214.5L480.701 214.5C478.381 214.5 476.5 212.619 476.5 210.299Z" stroke="#000000" stroke-width="1.33333" stroke-miterlimit="8" fill="#F2F2F2" fill-rule="evenodd"/><text font-family="Calibri,Calibri_MSFontService,sans-serif" font-weight="400" font-size="16" transform="translate(501.038 198)">ControlService</text><path d="M1136.5 325.875C1136.5 328.844 1155.08 331.25 1178 331.25 1200.92 331.25 1219.5 328.844 1219.5 325.875L1219.5 358.125C1219.5 361.094 1200.92 363.5 1178 363.5 1155.08 363.5 1136.5 361.094 1136.5 358.125Z" fill="#F2F2F2" fill-rule="evenodd"/><path d="M1136.5 325.875C1136.5 322.907 1155.08 320.5 1178 320.5 1200.92 320.5 1219.5 322.907 1219.5 325.875 1219.5 328.844 1200.92 331.25 1178 331.25 1155.08 331.25 1136.5 328.844 1136.5 325.875Z" fill="#F7F7F7" fill-rule="evenodd"/><path d="M1219.5 325.875C1219.5 328.844 1200.92 331.25 1178 331.25 1155.08 331.25 1136.5 328.844 1136.5 325.875 1136.5 322.907 1155.08 320.5 1178 320.5 1200.92 320.5 1219.5 322.907 1219.5 325.875L1219.5 358.125C1219.5 361.094 1200.92 363.5 1178 363.5 1155.08 363.5 1136.5 361.094 1136.5 358.125L1136.5 325.875" stroke="#000000" stroke-width="1.33333" stroke-miterlimit="8" fill="none" fill-rule="evenodd"/><text font-family="Calibri,Calibri_MSFontService,sans-serif" font-weight="400" font-size="16" transform="translate(1153.19 350)">Storage</text><path d="M443.5 20.5001 443.5 715.95" stroke="#000000" stroke-width="1.33333" stroke-miterlimit="8" stroke-dasharray="10.6667 4 1.33333 4" fill="none" fill-rule="evenodd"/><text font-family="Calibri,Calibri_MSFontService,sans-serif" font-weight="400" font-size="24" transform="translate(76.8242 31)">“Frontend” (Application, GUI)</text><text font-family="Calibri,Calibri_MSFontService,sans-serif" font-weight="400" font-size="24" transform="translate(528.642 31)">“Middle</text><text font-family="Calibri,Calibri_MSFontService,sans-serif" font-weight="400" font-size="24" transform="translate(607.475 31)">-</text><text font-family="Calibri,Calibri_MSFontService,sans-serif" font-weight="400" font-size="24" transform="translate(614.808 31)">layer” (Services)</text><path d="M874.5 20.5001 874.5 720.695" stroke="#000000" stroke-width="1.33333" stroke-miterlimit="8" stroke-dasharray="10.6667 4 1.33333 4" fill="none" fill-rule="evenodd"/><text font-family="Calibri,Calibri_MSFontService,sans-serif" font-weight="400" font-size="24" transform="translate(1018.99 31)">“Backend”</text><path d="M660.5 236.701C660.5 234.381 662.381 232.5 664.701 232.5L801.299 232.5C803.619 232.5 805.5 234.381 805.5 236.701L805.5 271.299C805.5 273.619 803.619 275.5 801.299 275.5L664.701 275.5C662.381 275.5 660.5 273.619 660.5 271.299Z" stroke="#000000" stroke-width="1.33333" stroke-miterlimit="8" fill="#F2F2F2" fill-rule="evenodd"/><text font-family="Calibri,Calibri_MSFontService,sans-serif" font-weight="400" font-size="16" transform="translate(694.035 259)">DataService</text><path d="M660.5 324.701C660.5 322.381 662.381 320.5 664.701 320.5L801.299 320.5C803.619 320.5 805.5 322.381 805.5 324.701L805.5 359.299C805.5 361.619 803.619 363.5 801.299 363.5L664.701 363.5C662.381 363.5 660.5 361.619 660.5 359.299Z" stroke="#000000" stroke-width="1.33333" stroke-miterlimit="8" fill="#F2F2F2" fill-rule="evenodd"/><text font-family="Calibri,Calibri_MSFontService,sans-serif" font-weight="400" font-size="16" transform="translate(684.505 347)">StorageService</text><path d="M660.5 102.603C660.5 100.337 662.337 98.5001 664.603 98.5001L801.397 98.5001C803.663 98.5001 805.5 100.337 805.5 102.603L805.5 136.397C805.5 138.663 803.663 140.5 801.397 140.5L664.603 140.5C662.337 140.5 660.5 138.663 660.5 136.397Z" stroke="#000000" stroke-width="1.33333" stroke-miterlimit="8" fill="#F2F2F2" fill-rule="evenodd"/><text font-family="Calibri,Calibri_MSFontService,sans-serif" font-weight="400" font-size="16" transform="translate(680.732 124)">LoxBerryService</text><path d="M928.5 102.603C928.5 100.337 930.337 98.5001 932.603 98.5001L1069.4 98.5001C1071.66 98.5001 1073.5 100.337 1073.5 102.603L1073.5 136.397C1073.5 138.663 1071.66 140.5 1069.4 140.5L932.603 140.5C930.337 140.5 928.5 138.663 928.5 136.397Z" stroke="#000000" stroke-width="1.33333" stroke-miterlimit="8" fill="#F2F2F2" fill-rule="evenodd"/><text font-family="Calibri,Calibri_MSFontService,sans-serif" font-weight="400" font-size="16" transform="translate(961.278 124)">MqttService</text><path d="M928.5 324.701C928.5 322.381 930.381 320.5 932.701 320.5L1069.3 320.5C1071.62 320.5 1073.5 322.381 1073.5 324.701L1073.5 359.299C1073.5 361.619 1071.62 363.5 1069.3 363.5L932.701 363.5C930.381 363.5 928.5 361.619 928.5 359.299Z" stroke="#000000" stroke-width="1.33333" stroke-miterlimit="8" fill="#F2F2F2" fill-rule="evenodd"/><text font-family="Calibri,Calibri_MSFontService,sans-serif" font-weight="400" font-size="16" transform="translate(951.541 347)">EncryptStorage</text><path d="M928.5 236.701C928.5 234.381 930.381 232.5 932.701 232.5L1069.3 232.5C1071.62 232.5 1073.5 234.381 1073.5 236.701L1073.5 271.299C1073.5 273.619 1071.62 275.5 1069.3 275.5L932.701 275.5C930.381 275.5 928.5 273.619 928.5 271.299Z" stroke="#000000" stroke-width="1.33333" stroke-miterlimit="8" fill="#F2F2F2" fill-rule="evenodd"/><text font-family="Calibri,Calibri_MSFontService,sans-serif" font-weight="400" font-size="16" transform="translate(983.671 259)">Store</text><path d="M805.5 106.833 922.151 106.833 922.151 108.167 805.5 108.167ZM920.817 103.5 928.817 107.5 920.817 111.5Z"/><path d="M805.5 242.833 922.151 242.833 922.151 244.167 805.5 244.167ZM920.817 239.5 928.817 243.5 920.817 247.5Z"/><path d="M805.5 341.833 922.151 341.833 922.151 343.167 805.5 343.167ZM920.817 338.5 928.817 342.5 920.817 346.5Z"/><path d="M1136.5 237.875C1136.5 240.844 1155.08 243.25 1178 243.25 1200.92 243.25 1219.5 240.844 1219.5 237.875L1219.5 270.125C1219.5 273.094 1200.92 275.5 1178 275.5 1155.08 275.5 1136.5 273.094 1136.5 270.125Z" fill="#F2F2F2" fill-rule="evenodd"/><path d="M1136.5 237.875C1136.5 234.907 1155.08 232.5 1178 232.5 1200.92 232.5 1219.5 234.907 1219.5 237.875 1219.5 240.844 1200.92 243.25 1178 243.25 1155.08 243.25 1136.5 240.844 1136.5 237.875Z" fill="#F7F7F7" fill-rule="evenodd"/><path d="M1219.5 237.875C1219.5 240.844 1200.92 243.25 1178 243.25 1155.08 243.25 1136.5 240.844 1136.5 237.875 1136.5 234.907 1155.08 232.5 1178 232.5 1200.92 232.5 1219.5 234.907 1219.5 237.875L1219.5 270.125C1219.5 273.094 1200.92 275.5 1178 275.5 1155.08 275.5 1136.5 273.094 1136.5 270.125L1136.5 237.875" stroke="#000000" stroke-width="1.33333" stroke-miterlimit="8" fill="none" fill-rule="evenodd"/><text font-family="Calibri,Calibri_MSFontService,sans-serif" font-weight="400" font-size="16" transform="translate(1148.23 261)">AppState</text><path d="M1073.5 253.5 1136.34 253.5" stroke="#000000" stroke-width="1.33333" stroke-miterlimit="8" fill="none" fill-rule="evenodd"/><path d="M1073.5 342.5 1136.34 342.5" stroke="#000000" stroke-width="1.33333" stroke-miterlimit="8" fill="none" fill-rule="evenodd"/><path d="M1134.07 106.446C1132.84 97.3654 1139.19 89.0029 1148.25 87.7678 1151.93 87.2673 1155.66 88.0155 1158.86 89.8926 1162.25 83.493 1170.18 81.0608 1176.56 84.4602 1177.68 85.0546 1178.7 85.808 1179.6 86.6969 1182.24 81.392 1188.67 79.2368 1193.97 81.883 1195.43 82.6154 1196.71 83.6747 1197.7 84.9794 1201.96 79.9627 1209.48 79.343 1214.5 83.5953 1216.61 85.3825 1218.03 87.8476 1218.52 90.5678 1225.49 92.4732 1229.61 99.6906 1227.71 106.688 1227.55 107.277 1227.35 107.853 1227.11 108.413 1232.7 115.705 1231.33 126.156 1224.05 131.756 1221.79 133.5 1219.11 134.628 1216.28 135.033 1216.22 142.878 1209.81 149.186 1201.97 149.123 1199.35 149.102 1196.79 148.356 1194.57 146.968 1191.92 155.763 1182.67 160.734 1173.91 158.071 1170.24 156.955 1167.07 154.595 1164.94 151.394 1155.97 156.81 1144.33 153.897 1138.94 144.886 1138.88 144.772 1138.81 144.658 1138.74 144.543 1132.88 145.231 1127.56 141.037 1126.87 135.176 1126.5 132.052 1127.53 128.925 1129.69 126.629 1124.61 123.633 1122.9 117.057 1125.87 111.942 1127.59 108.991 1130.6 107.04 1133.98 106.689Z" stroke="#000000" stroke-width="1.33333" stroke-miterlimit="8" fill="#F2F2F2" fill-rule="evenodd"/><path d="M1136.02 127.764C1133.85 127.934 1131.68 127.432 1129.8 126.325M1141.5 143.512C1140.63 143.86 1139.71 144.092 1138.78 144.201M1164.93 151.079C1164.28 150.094 1163.73 149.04 1163.29 147.938M1195.23 143.245C1195.14 144.414 1194.92 145.569 1194.58 146.692M1208.24 121.945C1213.16 124.342 1216.26 129.354 1216.22 134.829M1227.06 108.223C1226.26 110.087 1225.05 111.74 1223.51 113.054M1218.54 90.297C1218.67 91.0498 1218.73 91.8138 1218.72 92.5786M1195.85 87.6356C1196.31 86.583 1196.92 85.6029 1197.67 84.7259M1178.83 89.0223C1179.02 88.1524 1179.31 87.3094 1179.71 86.5128M1158.85 89.8745C1160.01 90.5537 1161.08 91.3712 1162.04 92.3091M1134.63 109.008C1134.37 108.17 1134.19 107.314 1134.07 106.447" stroke="#000000" stroke-width="1.33333" stroke-miterlimit="8" fill="none" fill-rule="evenodd"/><text font-family="Calibri,Calibri_MSFontService,sans-serif" font-weight="400" font-size="16" transform="translate(1153.34 123)">MQTT</text><path d="M1073.5 119.5 1124.63 119.5" stroke="#000000" stroke-width="1.33333" stroke-miterlimit="8" fill="none" fill-rule="evenodd"/><path d="M547.833 171.674 547.833 118.833 653.449 118.833 653.449 120.167 548.5 120.167 549.167 119.5 549.167 171.674ZM652.116 115.5 660.116 119.5 652.116 123.5Z"/><path d="M213.5 76.138C213.5 74.6811 214.681 73.5001 216.138 73.5001L360.862 73.5001C362.319 73.5001 363.5 74.6811 363.5 76.138L363.5 97.8621C363.5 99.319 362.319 100.5 360.862 100.5L216.138 100.5C214.681 100.5 213.5 99.319 213.5 97.8621Z" stroke="#000000" stroke-width="1.33333" stroke-miterlimit="8" fill="#F2F2F2" fill-rule="evenodd"/><text font-family="Calibri,Calibri_MSFontService,sans-serif" font-weight="400" font-size="16" transform="translate(238.208 91)">CategoriesPage</text><path d="M213.5 107.138C213.5 105.681 214.681 104.5 216.138 104.5L360.862 104.5C362.319 104.5 363.5 105.681 363.5 107.138L363.5 128.862C363.5 130.319 362.319 131.5 360.862 131.5L216.138 131.5C214.681 131.5 213.5 130.319 213.5 128.862Z" stroke="#000000" stroke-width="1.33333" stroke-miterlimit="8" fill="#F2F2F2" fill-rule="evenodd"/><text font-family="Calibri,Calibri_MSFontService,sans-serif" font-weight="400" font-size="16" transform="translate(245.364 123)">ControlsPage</text><path d="M213.5 139.138C213.5 137.681 214.681 136.5 216.138 136.5L360.862 136.5C362.319 136.5 363.5 137.681 363.5 139.138L363.5 160.862C363.5 162.319 362.319 163.5 360.862 163.5L216.138 163.5C214.681 163.5 213.5 162.319 213.5 160.862Z" stroke="#000000" stroke-width="1.33333" stroke-miterlimit="8" fill="#F2F2F2" fill-rule="evenodd"/><text font-family="Calibri,Calibri_MSFontService,sans-serif" font-weight="400" font-size="16" transform="translate(221.421 155)">DetailedControlPage</text><path d="M213.5 171.138C213.5 169.681 214.681 168.5 216.138 168.5L360.862 168.5C362.319 168.5 363.5 169.681 363.5 171.138L363.5 192.862C363.5 194.319 362.319 195.5 360.862 195.5L216.138 195.5C214.681 195.5 213.5 194.319 213.5 192.862Z" stroke="#000000" stroke-width="1.33333" stroke-miterlimit="8" fill="#F2F2F2" fill-rule="evenodd"/><text font-family="Calibri,Calibri_MSFontService,sans-serif" font-weight="400" font-size="16" transform="translate(250.241 187)">RoomsPage</text><path d="M213.5 203.138C213.5 201.681 214.681 200.5 216.138 200.5L360.862 200.5C362.319 200.5 363.5 201.681 363.5 203.138L363.5 224.862C363.5 226.319 362.319 227.5 360.862 227.5L216.138 227.5C214.681 227.5 213.5 226.319 213.5 224.862Z" stroke="#000000" stroke-width="1.33333" stroke-miterlimit="8" fill="#F2F2F2" fill-rule="evenodd"/><text font-family="Calibri,Calibri_MSFontService,sans-serif" font-weight="400" font-size="16" transform="translate(252.828 219)">HomePage</text><path d="M213.5 331.138C213.5 329.681 214.681 328.5 216.138 328.5L360.862 328.5C362.319 328.5 363.5 329.681 363.5 331.138L363.5 352.862C363.5 354.319 362.319 355.5 360.862 355.5L216.138 355.5C214.681 355.5 213.5 354.319 213.5 352.862Z" stroke="#000000" stroke-width="1.33333" stroke-miterlimit="8" fill="#F2F2F2" fill-rule="evenodd"/><text font-family="Calibri,Calibri_MSFontService,sans-serif" font-weight="400" font-size="16" transform="translate(246.734 347)">SettingsPage</text><path d="M213.5 233.138C213.5 231.681 214.681 230.5 216.138 230.5L360.862 230.5C362.319 230.5 363.5 231.681 363.5 233.138L363.5 254.862C363.5 256.319 362.319 257.5 360.862 257.5L216.138 257.5C214.681 257.5 213.5 256.319 213.5 254.862Z" stroke="#000000" stroke-width="1.33333" stroke-miterlimit="8" fill="#F2F2F2" fill-rule="evenodd"/><text font-family="Calibri,Calibri_MSFontService,sans-serif" font-weight="400" font-size="16" transform="translate(257.828 249)">LockPage</text><path d="M213.5 266.138C213.5 264.681 214.681 263.5 216.138 263.5L360.862 263.5C362.319 263.5 363.5 264.681 363.5 266.138L363.5 287.862C363.5 289.319 362.319 290.5 360.862 290.5L216.138 290.5C214.681 290.5 213.5 289.319 213.5 287.862Z" stroke="#000000" stroke-width="1.33333" stroke-miterlimit="8" fill="#F2F2F2" fill-rule="evenodd"/><text font-family="Calibri,Calibri_MSFontService,sans-serif" font-weight="400" font-size="16" transform="translate(252.578 282)">AboutPage</text><path d="M400.5 192.833 405.833 192.833 405.833 194.167 400.5 194.167ZM409.833 192.833 415.167 192.833 415.167 194.167 409.833 194.167ZM419.167 192.833 424.5 192.833 424.5 194.167 419.167 194.167ZM428.5 192.833 433.833 192.833 433.833 194.167 428.5 194.167ZM437.833 192.833 443.167 192.833 443.167 194.167 437.833 194.167ZM447.167 192.833 452.5 192.833 452.5 194.167 447.167 194.167ZM456.5 192.833 461.833 192.833 461.833 194.167 456.5 194.167ZM465.833 192.833 469.591 192.833 469.591 194.167 465.833 194.167ZM468.257 189.5 476.257 193.5 468.257 197.5Z"/><path d="M363.5 86.5001 397.987 86.5001 397.987 213.954 364.833 213.954" stroke="#000000" stroke-width="1.33333" stroke-miterlimit="8" stroke-dasharray="5.33333 4" fill="none" fill-rule="evenodd"/><path d="M733.167 140.5 733.167 225.32 731.833 225.32 731.833 140.5ZM736.5 223.986 732.5 231.986 728.5 223.986Z"/><path d="M653.449 254.479 648.116 254.479 648.116 253.146 653.449 253.146ZM644.116 254.479 638.782 254.479 638.782 253.146 644.116 253.146ZM634.782 254.479 629.449 254.479 629.449 253.146 634.782 253.146ZM625.449 254.479 620.116 254.479 620.116 253.146 625.449 253.146ZM616.116 254.479 610.782 254.479 610.782 253.146 616.116 253.146ZM606.782 254.479 601.449 254.479 601.449 253.146 606.782 253.146ZM597.449 254.479 592.116 254.479 592.116 253.146 597.449 253.146ZM588.116 254.479 582.782 254.479 582.782 253.146 588.116 253.146ZM578.782 254.479 573.449 254.479 573.449 253.146 578.782 253.146ZM569.449 254.479 564.116 254.479 564.116 253.146 569.449 253.146ZM560.116 254.479 554.782 254.479 554.782 253.146 560.116 253.146ZM550.782 254.479 547.833 254.479 547.833 250.761 549.167 250.761 549.167 253.812 548.5 253.146 550.782 253.146ZM547.833 246.761 547.833 241.428 549.167 241.428 549.167 246.761ZM547.833 237.428 547.833 232.095 549.167 232.095 549.167 237.428ZM547.833 228.095 547.833 222.761 549.167 222.761 549.167 228.095ZM547.833 218.761 547.833 214.5 549.167 214.5 549.167 218.761ZM652.116 249.812 660.116 253.812 652.116 257.812Z"/><path d="M600.5 681.833 605.833 681.833 605.833 683.167 600.5 683.167ZM609.833 681.833 615.167 681.833 615.167 683.167 609.833 683.167ZM619.167 681.833 624.5 681.833 624.5 683.167 619.167 683.167ZM628.5 681.833 633.833 681.833 633.833 683.167 628.5 683.167ZM637.833 681.833 643.167 681.833 643.167 683.167 637.833 683.167ZM647.167 681.833 652.5 681.833 652.5 683.167 647.167 683.167ZM656.5 681.833 661.833 681.833 661.833 683.167 656.5 683.167ZM660.539 678.5 668.539 682.5 660.539 686.5Z"/><text font-family="Calibri,Calibri_MSFontService,sans-serif" font-style="italic" font-weight="400" font-size="13" transform="translate(457.952 83)">controls</text><text font-family="Calibri,Calibri_MSFontService,sans-serif" font-style="italic" font-weight="400" font-size="13" transform="translate(501.119 83)">$</text><text font-family="Calibri,Calibri_MSFontService,sans-serif" font-style="italic" font-weight="400" font-size="13" transform="translate(457.952 99)">rooms$</text><text font-family="Calibri,Calibri_MSFontService,sans-serif" font-style="italic" font-weight="400" font-size="13" transform="translate(457.952 115)">categories</text><text font-family="Calibri,Calibri_MSFontService,sans-serif" font-style="italic" font-weight="400" font-size="13" transform="translate(513.786 115)">$</text><text font-family="Calibri,Calibri_MSFontService,sans-serif" font-style="italic" font-weight="400" font-size="13" transform="translate(457.952 131)">getControl</text><text font-family="Calibri,Calibri_MSFontService,sans-serif" font-style="italic" font-weight="400" font-size="13" transform="translate(515.119 131)">$</text><text font-family="Calibri,Calibri_MSFontService,sans-serif" font-style="italic" font-weight="400" font-size="13" transform="translate(457.952 147)">getSubControl</text><text font-family="Calibri,Calibri_MSFontService,sans-serif" font-style="italic" font-weight="400" font-size="13" transform="translate(534.786 147)">$</text><text font-family="Calibri,Calibri_MSFontService,sans-serif" font-weight="700" font-size="13" transform="translate(457.952 163)">updateControl</text><text font-family="Calibri,Calibri_MSFontService,sans-serif" font-style="italic" font-weight="400" font-size="13" transform="translate(675.441 686)">subscribers</text><text font-family="Calibri,Calibri_MSFontService,sans-serif" font-style="italic" font-weight="400" font-size="13" transform="translate(735.274 686)">$,</text><text font-family="Calibri,Calibri_MSFontService,sans-serif" font-style="italic" font-weight="400" font-size="13" transform="translate(748.441 686)">observers</text><path d="M600.5 702.833 661.872 702.833 661.872 704.167 600.5 704.167ZM660.539 699.5 668.539 703.5 660.539 707.5Z"/><text font-family="Calibri,Calibri_MSFontService,sans-serif" font-weight="700" font-size="13" transform="translate(675.441 706)">methods</text><text font-family="Calibri,Calibri_MSFontService,sans-serif" font-weight="700" font-size="13" transform="translate(739.837 164)">updateStructureInStore</text><text font-family="Calibri,Calibri_MSFontService,sans-serif" font-weight="700" font-size="13" transform="translate(739.837 180)">updateElementsInStore</text><text font-family="Calibri,Calibri_MSFontService,sans-serif" font-weight="700" font-size="13" transform="translate(739.837 196)">flushControlsInStore</text><text font-family="Calibri,Calibri_MSFontService,sans-serif" font-weight="700" font-size="13" transform="translate(739.837 212)">putSettingsInStore</text><text font-family="Calibri,Calibri_MSFontService,sans-serif" font-weight="700" font-size="13" transform="translate(559.244 114)">SendMessage</text><path d="M805.5 128.833 810.833 128.833 810.833 130.167 805.5 130.167ZM814.833 128.833 820.167 128.833 820.167 130.167 814.833 130.167ZM824.167 128.833 829.5 128.833 829.5 130.167 824.167 130.167ZM833.5 128.833 838.833 128.833 838.833 130.167 833.5 130.167ZM842.833 128.833 848.167 128.833 848.167 130.167 842.833 130.167ZM852.167 128.833 857.5 128.833 857.5 130.167 852.167 130.167ZM861.5 128.833 866.833 128.833 866.833 130.167 861.5 130.167ZM870.833 128.833 876.167 128.833 876.167 130.167 870.833 130.167ZM880.167 128.833 885.5 128.833 885.5 130.167 880.167 130.167ZM889.5 128.833 894.833 128.833 894.833 130.167 889.5 130.167ZM898.833 128.833 904.167 128.833 904.167 130.167 898.833 130.167ZM908.167 128.833 913.5 128.833 913.5 130.167 908.167 130.167ZM917.5 128.833 922.151 128.833 922.151 130.167 917.5 130.167ZM920.817 125.5 928.817 129.5 920.817 133.5Z"/><text font-family="Calibri,Calibri_MSFontService,sans-serif" font-weight="400" font-size="19" transform="translate(265.461 64)">Pages</text><text font-family="Calibri,Calibri_MSFontService,sans-serif" font-weight="400" font-size="19" transform="translate(38.8689 64)">Views (Controls)</text><path d="M20.5001 76.138C20.5001 74.6811 21.6811 73.5001 23.138 73.5001L178.862 73.5001C180.319 73.5001 181.5 74.6811 181.5 76.138L181.5 97.8621C181.5 99.319 180.319 100.5 178.862 100.5L23.138 100.5C21.6811 100.5 20.5001 99.319 20.5001 97.8621Z" stroke="#000000" stroke-width="1.33333" stroke-miterlimit="8" fill="#F2F2F2" fill-rule="evenodd"/><text font-family="Calibri,Calibri_MSFontService,sans-serif" font-weight="400" font-size="16" transform="translate(50.2322 91)">ControlIRCView</text><path d="M20.5001 107.138C20.5001 105.681 21.6811 104.5 23.138 104.5L178.862 104.5C180.319 104.5 181.5 105.681 181.5 107.138L181.5 128.862C181.5 130.319 180.319 131.5 178.862 131.5L23.138 131.5C21.6811 131.5 20.5001 130.319 20.5001 128.862Z" stroke="#000000" stroke-width="1.33333" stroke-miterlimit="8" fill="#F2F2F2" fill-rule="evenodd"/><text font-family="Calibri,Calibri_MSFontService,sans-serif" font-weight="400" font-size="16" transform="translate(36.4856 123)">ControlLightV2View</text><path d="M20.5001 139.138C20.5001 137.681 21.6811 136.5 23.138 136.5L178.862 136.5C180.319 136.5 181.5 137.681 181.5 139.138L181.5 160.862C181.5 162.319 180.319 163.5 178.862 163.5L23.138 163.5C21.6811 163.5 20.5001 162.319 20.5001 160.862Z" stroke="#000000" stroke-width="1.33333" stroke-miterlimit="8" fill="#F2F2F2" fill-rule="evenodd"/><text font-family="Calibri,Calibri_MSFontService,sans-serif" font-weight="400" font-size="16" transform="translate(23.1856 155)">ControlPushbuttonView</text><path d="M20.5001 171.138C20.5001 169.681 21.6811 168.5 23.138 168.5L178.862 168.5C180.319 168.5 181.5 169.681 181.5 171.138L181.5 192.862C181.5 194.319 180.319 195.5 178.862 195.5L23.138 195.5C21.6811 195.5 20.5001 194.319 20.5001 192.862Z" stroke="#000000" stroke-width="1.33333" stroke-miterlimit="8" fill="#F2F2F2" fill-rule="evenodd"/><text font-family="Calibri,Calibri_MSFontService,sans-serif" font-weight="400" font-size="16" transform="translate(42.3289 187)">ControlRadioView</text><path d="M20.5001 203.138C20.5001 201.681 21.6811 200.5 23.138 200.5L178.862 200.5C180.319 200.5 181.5 201.681 181.5 203.138L181.5 224.862C181.5 226.319 180.319 227.5 178.862 227.5L23.138 227.5C21.6811 227.5 20.5001 226.319 20.5001 224.862Z" stroke="#000000" stroke-width="1.33333" stroke-miterlimit="8" fill="#F2F2F2" fill-rule="evenodd"/><text font-family="Calibri,Calibri_MSFontService,sans-serif" font-weight="400" font-size="16" transform="translate(42.4956 219)">ControlSliderView</text><path d="M20.5001 234.138C20.5001 232.681 21.6811 231.5 23.138 231.5L178.862 231.5C180.319 231.5 181.5 232.681 181.5 234.138L181.5 255.862C181.5 257.319 180.319 258.5 178.862 258.5L23.138 258.5C21.6811 258.5 20.5001 257.319 20.5001 255.862Z" stroke="#000000" stroke-width="1.33333" stroke-miterlimit="8" fill="#F2F2F2" fill-rule="evenodd"/><text font-family="Calibri,Calibri_MSFontService,sans-serif" font-weight="400" font-size="16" transform="translate(39.4089 250)">ControlSwitchView</text><path d="M20.5001 266.138C20.5001 264.681 21.6811 263.5 23.138 263.5L178.862 263.5C180.319 263.5 181.5 264.681 181.5 266.138L181.5 287.862C181.5 289.319 180.319 290.5 178.862 290.5L23.138 290.5C21.6811 290.5 20.5001 289.319 20.5001 287.862Z" stroke="#000000" stroke-width="1.33333" stroke-miterlimit="8" fill="#F2F2F2" fill-rule="evenodd"/><text font-family="Calibri,Calibri_MSFontService,sans-serif" font-weight="400" font-size="16" transform="translate(30.8923 282)">ControlTextStateView</text><path d="M20.5001 338.138C20.5001 336.681 21.681 335.5 23.1379 335.5L179.862 335.5C181.319 335.5 182.5 336.681 182.5 338.138L182.5 359.862C182.5 361.319 181.319 362.5 179.862 362.5L23.1379 362.5C21.681 362.5 20.5001 361.319 20.5001 359.862Z" stroke="#000000" stroke-width="1.33333" stroke-miterlimit="8" fill="#F2F2F2" fill-rule="evenodd"/><text font-family="Calibri,Calibri_MSFontService,sans-serif" font-weight="400" font-size="16" transform="translate(43.6936 353)">CardDimmerView</text><path d="M20.5001 369.138C20.5001 367.681 21.681 366.5 23.1379 366.5L179.862 366.5C181.319 366.5 182.5 367.681 182.5 369.138L182.5 390.862C182.5 392.319 181.319 393.5 179.862 393.5L23.1379 393.5C21.681 393.5 20.5001 392.319 20.5001 390.862Z" stroke="#000000" stroke-width="1.33333" stroke-miterlimit="8" fill="#F2F2F2" fill-rule="evenodd"/><text font-family="Calibri,Calibri_MSFontService,sans-serif" font-weight="400" font-size="16" transform="translate(51.6103 385)">CardRadioView</text><path d="M20.5001 401.138C20.5001 399.681 21.681 398.5 23.1379 398.5L179.862 398.5C181.319 398.5 182.5 399.681 182.5 401.138L182.5 422.862C182.5 424.319 181.319 425.5 179.862 425.5L23.1379 425.5C21.681 425.5 20.5001 424.319 20.5001 422.862Z" stroke="#000000" stroke-width="1.33333" stroke-miterlimit="8" fill="#F2F2F2" fill-rule="evenodd"/><text font-family="Calibri,Calibri_MSFontService,sans-serif" font-weight="400" font-size="16" transform="translate(51.777 417)">CardSliderView</text><path d="M20.5001 433.138C20.5001 431.681 21.681 430.5 23.1379 430.5L179.862 430.5C181.319 430.5 182.5 431.681 182.5 433.138L182.5 454.862C182.5 456.319 181.319 457.5 179.862 457.5L23.1379 457.5C21.681 457.5 20.5001 456.319 20.5001 454.862Z" stroke="#000000" stroke-width="1.33333" stroke-miterlimit="8" fill="#F2F2F2" fill-rule="evenodd"/><text font-family="Calibri,Calibri_MSFontService,sans-serif" font-weight="400" font-size="16" transform="translate(48.6903 449)">CardSwitchView</text><text font-family="Calibri,Calibri_MSFontService,sans-serif" font-weight="400" font-size="24" transform="translate(92.8019 476)">:</text><path d="M928.5 575.604C928.5 573.337 930.337 571.5 932.603 571.5L1069.4 571.5C1071.66 571.5 1073.5 573.337 1073.5 575.604L1073.5 609.397C1073.5 611.663 1071.66 613.5 1069.4 613.5L932.603 613.5C930.337 613.5 928.5 611.663 928.5 609.397Z" stroke="#000000" stroke-width="1.33333" stroke-miterlimit="8" fill="#F2F2F2" fill-rule="evenodd"/><text font-family="Calibri,Calibri_MSFontService,sans-serif" font-weight="400" font-size="16" transform="translate(948.151 597)">TranslateService</text><path d="M363.5 341.833 368.833 341.833 368.833 343.167 363.5 343.167ZM372.833 341.833 378.167 341.833 378.167 343.167 372.833 343.167ZM382.167 341.833 387.5 341.833 387.5 343.167 382.167 343.167ZM391.5 341.833 396.833 341.833 396.833 343.167 391.5 343.167ZM400.833 341.833 406.167 341.833 406.167 343.167 400.833 343.167ZM410.167 341.833 415.5 341.833 415.5 343.167 410.167 343.167ZM419.5 341.833 424.833 341.833 424.833 343.167 419.5 343.167ZM428.833 341.833 434.167 341.833 434.167 343.167 428.833 343.167ZM438.167 341.833 443.5 341.833 443.5 343.167 438.167 343.167ZM447.5 341.833 452.833 341.833 452.833 343.167 447.5 343.167ZM456.833 341.833 462.167 341.833 462.167 343.167 456.833 343.167ZM466.167 341.833 471.5 341.833 471.5 343.167 466.167 343.167ZM475.5 341.833 480.833 341.833 480.833 343.167 475.5 343.167ZM484.833 341.833 490.167 341.833 490.167 343.167 484.833 343.167ZM494.167 341.833 499.5 341.833 499.5 343.167 494.167 343.167ZM503.5 341.833 508.833 341.833 508.833 343.167 503.5 343.167ZM512.833 341.833 518.167 341.833 518.167 343.167 512.833 343.167ZM522.167 341.833 527.5 341.833 527.5 343.167 522.167 343.167ZM531.5 341.833 536.833 341.833 536.833 343.167 531.5 343.167ZM540.833 341.833 546.167 341.833 546.167 343.167 540.833 343.167ZM550.167 341.833 555.5 341.833 555.5 343.167 550.167 343.167ZM559.5 341.833 564.833 341.833 564.833 343.167 559.5 343.167ZM568.833 341.833 574.167 341.833 574.167 343.167 568.833 343.167ZM578.167 341.833 583.5 341.833 583.5 343.167 578.167 343.167ZM587.5 341.833 592.833 341.833 592.833 343.167 587.5 343.167ZM596.833 341.833 602.167 341.833 602.167 343.167 596.833 343.167ZM606.167 341.833 611.5 341.833 611.5 343.167 606.167 343.167ZM615.5 341.833 620.833 341.833 620.833 343.167 615.5 343.167ZM624.833 341.833 630.167 341.833 630.167 343.167 624.833 343.167ZM634.167 341.833 639.5 341.833 639.5 343.167 634.167 343.167ZM643.5 341.833 648.833 341.833 648.833 343.167 643.5 343.167ZM652.833 341.833 654.107 341.833 654.107 343.167 652.833 343.167ZM652.773 338.5 660.773 342.5 652.773 346.5Z"/><text font-family="Calibri,Calibri_MSFontService,sans-serif" font-weight="700" font-size="13" transform="translate(449.114 319)">cleanStorage</text><text font-family="Calibri,Calibri_MSFontService,sans-serif" font-weight="700" font-size="13" transform="translate(449.114 335)">saveSettings</text><path d="M213.5 299.138C213.5 297.681 214.681 296.5 216.138 296.5L360.862 296.5C362.319 296.5 363.5 297.681 363.5 299.138L363.5 320.862C363.5 322.319 362.319 323.5 360.862 323.5L216.138 323.5C214.681 323.5 213.5 322.319 213.5 320.862Z" stroke="#000000" stroke-width="1.33333" stroke-miterlimit="8" fill="#F2F2F2" fill-rule="evenodd"/><text font-family="Calibri,Calibri_MSFontService,sans-serif" font-weight="400" font-size="16" transform="translate(253.328 315)">MenuPage</text><path d="M21.5001 515.138C21.5001 513.681 22.6811 512.5 24.138 512.5L179.862 512.5C181.319 512.5 182.5 513.681 182.5 515.138L182.5 536.862C182.5 538.319 181.319 539.5 179.862 539.5L24.138 539.5C22.6811 539.5 21.5001 538.319 21.5001 536.862Z" stroke="#000000" stroke-width="1.33333" stroke-miterlimit="8" fill="#F2F2F2" fill-rule="evenodd"/><text font-family="Calibri,Calibri_MSFontService,sans-serif" font-weight="400" font-size="16" transform="translate(55.3276 531)">ControlListVM</text><path d="M21.5001 548.138C21.5001 546.681 22.6811 545.5 24.138 545.5L179.862 545.5C181.319 545.5 182.5 546.681 182.5 548.138L182.5 569.862C182.5 571.319 181.319 572.5 179.862 572.5L24.138 572.5C22.6811 572.5 21.5001 571.319 21.5001 569.862Z" stroke="#000000" stroke-width="1.33333" stroke-miterlimit="8" fill="#F2F2F2" fill-rule="evenodd"/><text font-family="Calibri,Calibri_MSFontService,sans-serif" font-weight="400" font-size="16" transform="translate(50.3809 564)">CategoryListVM</text><path d="M21.5001 580.138C21.5001 578.681 22.6811 577.5 24.138 577.5L179.862 577.5C181.319 577.5 182.5 578.681 182.5 580.138L182.5 601.862C182.5 603.319 181.319 604.5 179.862 604.5L24.138 604.5C22.6811 604.5 21.5001 603.319 21.5001 601.862Z" stroke="#000000" stroke-width="1.33333" stroke-miterlimit="8" fill="#F2F2F2" fill-rule="evenodd"/><text font-family="Calibri,Calibri_MSFontService,sans-serif" font-weight="400" font-size="16" transform="translate(60.2043 596)">RoomListVM</text><path d="M21.5001 613.138C21.5001 611.681 22.6811 610.5 24.138 610.5L179.862 610.5C181.319 610.5 182.5 611.681 182.5 613.138L182.5 634.862C182.5 636.319 181.319 637.5 179.862 637.5L24.138 637.5C22.6811 637.5 21.5001 636.319 21.5001 634.862Z" stroke="#000000" stroke-width="1.33333" stroke-miterlimit="8" fill="#F2F2F2" fill-rule="evenodd"/><text font-family="Calibri,Calibri_MSFontService,sans-serif" font-weight="400" font-size="16" transform="translate(53.2909 629)">ColorPickerVM</text><path d="M21.5001 646.138C21.5001 644.681 22.6811 643.5 24.138 643.5L179.862 643.5C181.319 643.5 182.5 644.681 182.5 646.138L182.5 667.862C182.5 669.319 181.319 670.5 179.862 670.5L24.138 670.5C22.6811 670.5 21.5001 669.319 21.5001 667.862Z" stroke="#000000" stroke-width="1.33333" stroke-miterlimit="8" fill="#F2F2F2" fill-rule="evenodd"/><text font-family="Calibri,Calibri_MSFontService,sans-serif" font-weight="400" font-size="16" transform="translate(63.8676 662)">DimmerVM</text><path d="M21.5001 679.138C21.5001 677.681 22.6811 676.5 24.138 676.5L179.862 676.5C181.319 676.5 182.5 677.681 182.5 679.138L182.5 700.862C182.5 702.319 181.319 703.5 179.862 703.5L24.138 703.5C22.6811 703.5 21.5001 702.319 21.5001 700.862Z" stroke="#000000" stroke-width="1.33333" stroke-miterlimit="8" fill="#F2F2F2" fill-rule="evenodd"/><text font-family="Calibri,Calibri_MSFontService,sans-serif" font-weight="400" font-size="16" transform="translate(71.7843 695)">RadioVM</text><text font-family="Calibri,Calibri_MSFontService,sans-serif" font-weight="400" font-size="24" transform="translate(92.7312 718)">:</text><text font-family="Calibri,Calibri_MSFontService,sans-serif" font-weight="400" font-size="19" transform="translate(31.9646 503)">View Models (VM)</text><text font-family="Calibri,Calibri_MSFontService,sans-serif" font-weight="700" font-size="13" transform="translate(819.855 323)">getItem</text><text font-family="Calibri,Calibri_MSFontService,sans-serif" font-weight="700" font-size="13" transform="translate(819.855 339)">setItem</text><path d="M0.666667-1.53009e-06 0.666679 5.33333-0.666654 5.33333-0.666667 1.53009e-06ZM0.666688 9.33333 0.6667 14.6667-0.666633 14.6667-0.666645 9.33333ZM0.666709 18.6667 0.666722 24-0.666612 24-0.666624 18.6667ZM0.666731 28 0.666743 33.3333-0.66659 33.3333-0.666602 28ZM0.666752 37.3333 0.666756 39.0765-0.666577 39.0765-0.666581 37.3333ZM4.00009 37.7432 0.000104987 45.7432-3.99991 37.7432Z" transform="matrix(1 0 0 -1 732.5 321.243)"/><text font-family="Calibri,Calibri_MSFontService,sans-serif" font-style="italic" font-weight="400" font-size="13" transform="translate(738.416 303)">settings</text><text font-family="Calibri,Calibri_MSFontService,sans-serif" font-style="italic" font-weight="400" font-size="13" transform="translate(780.749 303)">$</text><text font-family="Calibri,Calibri_MSFontService,sans-serif" font-weight="700" font-size="13" transform="translate(821.756 237)">setState</text><text font-family="Calibri,Calibri_MSFontService,sans-serif" font-weight="700" font-size="13" transform="translate(867.256 237)">, state</text><path d="M805.5 264.833 810.833 264.833 810.833 266.167 805.5 266.167ZM814.833 264.833 820.167 264.833 820.167 266.167 814.833 266.167ZM824.167 264.833 829.5 264.833 829.5 266.167 824.167 266.167ZM833.5 264.833 838.833 264.833 838.833 266.167 833.5 266.167ZM842.833 264.833 848.167 264.833 848.167 266.167 842.833 266.167ZM852.167 264.833 857.5 264.833 857.5 266.167 852.167 266.167ZM861.5 264.833 866.833 264.833 866.833 266.167 861.5 266.167ZM870.833 264.833 876.167 264.833 876.167 266.167 870.833 266.167ZM880.167 264.833 885.5 264.833 885.5 266.167 880.167 266.167ZM889.5 264.833 894.833 264.833 894.833 266.167 889.5 266.167ZM898.833 264.833 904.167 264.833 904.167 266.167 898.833 266.167ZM908.167 264.833 913.5 264.833 913.5 266.167 908.167 266.167ZM917.5 264.833 922.151 264.833 922.151 266.167 917.5 266.167ZM920.817 261.5 928.817 265.5 920.817 269.5Z"/><text font-family="Calibri,Calibri_MSFontService,sans-serif" font-style="italic" font-weight="400" font-size="13" transform="translate(819.229 261)">state$</text><text font-family="Calibri,Calibri_MSFontService,sans-serif" font-style="italic" font-weight="400" font-size="13" transform="translate(819.229 277)">select$</text><text font-family="Calibri,Calibri_MSFontService,sans-serif" font-style="italic" font-weight="400" font-size="13" transform="translate(819.229 293)">selectByKey</text><text font-family="Calibri,Calibri_MSFontService,sans-serif" font-style="italic" font-weight="400" font-size="13" transform="translate(882.729 293)">$</text><text font-family="Calibri,Calibri_MSFontService,sans-serif" font-style="italic" font-weight="400" font-size="13" transform="translate(819.229 124)">state,</text><text font-family="Calibri,Calibri_MSFontService,sans-serif" font-style="italic" font-weight="400" font-size="13" transform="translate(852.895 124)">observe</text><path d="M363.5 309.5 400.052 309.5" stroke="#000000" stroke-width="1.33333" stroke-miterlimit="8" stroke-dasharray="5.33333 4" fill="none" fill-rule="evenodd"/><path d="M0 0 0.000104987 32.6776" stroke="#000000" stroke-width="1.33333" stroke-miterlimit="8" stroke-dasharray="5.33333 4" fill="none" fill-rule="evenodd" transform="matrix(1 0 0 -1 400.5 342.178)"/><path d="M363.5 148.5 400.052 148.5" stroke="#000000" stroke-width="1.33333" stroke-miterlimit="8" stroke-dasharray="5.33333 4" fill="none" fill-rule="evenodd"/><path d="M1127.5 540.529C1127.5 538.856 1128.86 537.5 1130.53 537.5L1221.47 537.5C1223.14 537.5 1224.5 538.856 1224.5 540.529L1224.5 565.471C1224.5 567.144 1223.14 568.5 1221.47 568.5L1130.53 568.5C1128.86 568.5 1127.5 567.144 1127.5 565.471Z" stroke="#000000" stroke-width="1.33333" stroke-miterlimit="8" fill="#F2F2F2" fill-rule="evenodd"/><text font-family="Calibri,Calibri_MSFontService,sans-serif" font-weight="400" font-size="16" transform="translate(1139.31 558)">Web Audio</text><path d="M660.5 535.701C660.5 533.381 662.381 531.5 664.701 531.5L801.299 531.5C803.619 531.5 805.5 533.381 805.5 535.701L805.5 570.299C805.5 572.619 803.619 574.5 801.299 574.5L664.701 574.5C662.381 574.5 660.5 572.619 660.5 570.299Z" stroke="#000000" stroke-width="1.33333" stroke-miterlimit="8" fill="#F2F2F2" fill-rule="evenodd"/><text font-family="Calibri,Calibri_MSFontService,sans-serif" font-weight="400" font-size="16" transform="translate(688.699 558)">SoundService</text><path d="M213.5 363.138C213.5 361.681 214.681 360.5 216.138 360.5L360.862 360.5C362.319 360.5 363.5 361.681 363.5 363.138L363.5 384.862C363.5 386.319 362.319 387.5 360.862 387.5L216.138 387.5C214.681 387.5 213.5 386.319 213.5 384.862Z" stroke="#000000" stroke-width="1.33333" stroke-miterlimit="8" fill="#F2F2F2" fill-rule="evenodd"/><text font-family="Calibri,Calibri_MSFontService,sans-serif" font-weight="400" font-size="16" transform="translate(231.134 379)">NotificationsPage</text><path d="M660.5 410.701C660.5 408.381 662.381 406.5 664.701 406.5L801.299 406.5C803.619 406.5 805.5 408.381 805.5 410.701L805.5 445.299C805.5 447.619 803.619 449.5 801.299 449.5L664.701 449.5C662.381 449.5 660.5 447.619 660.5 445.299Z" stroke="#000000" stroke-width="1.33333" stroke-miterlimit="8" fill="#F2F2F2" fill-rule="evenodd"/><text font-family="Calibri,Calibri_MSFontService,sans-serif" font-weight="400" font-size="16" transform="translate(670.922 433)">NotificationService</text><path d="M805.5 552.5 1127.4 552.5" stroke="#000000" stroke-width="1.33333" stroke-miterlimit="8" fill="none" fill-rule="evenodd"/><path d="M363.5 404.833 490.413 404.833 490.413 552.962 489.746 552.295 653.325 552.295 653.325 553.628 489.08 553.628 489.08 405.5 489.746 406.167 363.5 406.167ZM651.991 548.962 659.991 552.962 651.991 556.962Z"/><text font-family="Calibri,Calibri_MSFontService,sans-serif" font-weight="700" font-size="13" transform="translate(534.511 528)">registerSound</text><text font-family="Calibri,Calibri_MSFontService,sans-serif" font-weight="700" font-size="13" transform="translate(534.511 544)">play</text><path d="M0-0.666667 5.33333-0.666667 5.33333 0.666667 0 0.666667ZM9.33333-0.666667 14.6667-0.666667 14.6667 0.666667 9.33333 0.666667ZM18.6667-0.666667 24-0.666667 24 0.666667 18.6667 0.666667ZM28-0.666667 33.3333-0.666667 33.3333 0.666667 28 0.666667ZM37.3333-0.666667 42.6667-0.666667 42.6667 0.666667 37.3333 0.666667ZM46.6667-0.666667 52-0.666667 52 0.666667 46.6667 0.666667ZM56-0.666667 61.3333-0.666667 61.3333 0.666667 56 0.666667ZM65.3333-0.666667 70.6667-0.666667 70.6667 0.666667 65.3333 0.666667ZM74.6667-0.666667 80-0.666667 80 0.666667 74.6667 0.666667ZM84-0.666667 89.3333-0.666667 89.3333 0.666667 84 0.666667ZM93.3333-0.666667 98.6667-0.666667 98.6667 0.666667 93.3333 0.666667ZM102.667-0.666667 108-0.666667 108 0.666667 102.667 0.666667ZM112-0.666667 117.333-0.666667 117.333 0.666667 112 0.666667ZM121.333-0.666667 126.667-0.666667 126.667 0.666667 121.333 0.666667ZM130.667-0.666667 136-0.666667 136 0.666667 130.667 0.666667ZM140-0.666667 145.333-0.666667 145.333 0.666667 140 0.666667ZM149.333-0.666667 154.667-0.666667 154.667 0.666667 149.333 0.666667ZM158.667-0.666667 164-0.666667 164 0.666667 158.667 0.666667ZM168-0.666667 173.333-0.666667 173.333 0.666667 168 0.666667ZM177.333-0.666667 182.667-0.666667 182.667 0.666667 177.333 0.666667ZM186.519 0.814134 186.519 6.14747 185.186 6.14747 185.186 0.814134ZM186.519 10.1475 186.519 15.4808 185.186 15.4808 185.186 10.1475ZM186.519 19.4808 186.519 24.8141 185.186 24.8141 185.186 19.4808ZM186.519 28.8141 186.519 34.1475 185.186 34.1475 185.186 28.8141ZM186.519 38.1475 186.519 43.4808 185.186 43.4808 185.186 38.1475ZM186.519 47.4808 186.519 52.8141 185.186 52.8141 185.186 47.4808ZM186.519 56.8141 186.519 62.1475 185.186 62.1475 185.186 56.8141ZM186.519 66.1475 186.519 71.4808 185.186 71.4808 185.186 66.1475ZM186.519 75.4808 186.519 80.8141 185.186 80.8141 185.186 75.4808ZM186.519 84.8141 186.519 90.1475 185.186 90.1475 185.186 84.8141ZM186.519 94.1475 186.519 99.4808 185.186 99.4808 185.186 94.1475ZM186.519 103.481 186.519 104.86 185.853 104.193 189.807 104.193 189.807 105.527 185.186 105.527 185.186 103.481ZM193.807 104.193 199.14 104.193 199.14 105.527 193.807 105.527ZM203.14 104.193 208.473 104.193 208.473 105.527 203.14 105.527ZM212.473 104.193 217.807 104.193 217.807 105.527 212.473 105.527ZM221.807 104.193 227.14 104.193 227.14 105.527 221.807 105.527ZM231.14 104.193 236.473 104.193 236.473 105.527 231.14 105.527ZM240.473 104.193 245.807 104.193 245.807 105.527 240.473 105.527ZM249.807 104.193 255.14 104.193 255.14 105.527 249.807 105.527ZM259.14 104.193 264.473 104.193 264.473 105.527 259.14 105.527ZM268.473 104.193 273.807 104.193 273.807 105.527 268.473 105.527ZM277.807 104.193 283.14 104.193 283.14 105.527 277.807 105.527ZM287.14 104.193 289.825 104.193 289.825 105.527 287.14 105.527ZM288.491 100.86 296.491 104.86 288.491 108.86Z" transform="matrix(1 0 0 -1 363.5 373.36)"/><path d="M213.5 394.236C213.5 392.725 214.725 391.5 216.236 391.5L360.764 391.5C362.275 391.5 363.5 392.725 363.5 394.236L363.5 416.764C363.5 418.275 362.275 419.5 360.764 419.5L216.236 419.5C214.725 419.5 213.5 418.275 213.5 416.764Z" stroke="#000000" stroke-width="1.33333" stroke-miterlimit="8" fill="#F2F2F2" fill-rule="evenodd"/><text font-family="Calibri,Calibri_MSFontService,sans-serif" font-weight="400" font-size="16" transform="translate(258.078 410)">TabsPage</text><path d="M213.5 429.138C213.5 427.681 214.681 426.5 216.138 426.5L360.862 426.5C362.319 426.5 363.5 427.681 363.5 429.138L363.5 450.862C363.5 452.319 362.319 453.5 360.862 453.5L216.138 453.5C214.681 453.5 213.5 452.319 213.5 450.862Z" stroke="#000000" stroke-width="1.33333" stroke-miterlimit="8" fill="#F2F2F2" fill-rule="evenodd"/><text font-family="Calibri,Calibri_MSFontService,sans-serif" font-weight="400" font-size="16" transform="translate(235.654 445)">MqttConfigPage</text><text font-family="Calibri,Calibri_MSFontService,sans-serif" font-style="italic" font-weight="400" font-size="13" transform="translate(566.372 281)">notifications</text><text font-family="Calibri,Calibri_MSFontService,sans-serif" font-style="italic" font-weight="400" font-size="13" transform="translate(633.206 281)">$</text><path d="M0-0.666667 5.33333-0.666667 5.33333 0.666667 0 0.666667ZM9.33333-0.666667 14.6667-0.666667 14.6667 0.666667 9.33333 0.666667ZM18.6667-0.666667 24-0.666667 24 0.666667 18.6667 0.666667ZM28-0.666667 33.3333-0.666667 33.3333 0.666667 28 0.666667ZM37.3333-0.666667 42.6667-0.666667 42.6667 0.666667 37.3333 0.666667ZM46.6667-0.666667 52-0.666667 52 0.666667 46.6667 0.666667ZM56-0.666667 61.3333-0.666667 61.3333 0.666667 56 0.666667ZM65.3333-0.666667 70.6667-0.666667 70.6667 0.666667 65.3333 0.666667ZM74.6667-0.666667 80-0.666667 80 0.666667 74.6667 0.666667ZM84-0.666667 89.3333-0.666667 89.3333 0.666667 84 0.666667ZM93.3333-0.666667 98.6667-0.666667 98.6667 0.666667 93.3333 0.666667ZM102.667-0.666667 108-0.666667 108 0.666667 102.667 0.666667ZM112-0.666667 117.333-0.666667 117.333 0.666667 112 0.666667ZM121.333-0.666667 126.667-0.666667 126.667 0.666667 121.333 0.666667ZM130.667-0.666667 136-0.666667 136 0.666667 130.667 0.666667ZM140-0.666667 145.333-0.666667 145.333 0.666667 140 0.666667ZM148.785 1.21454 148.785 6.54787 147.452 6.54787 147.452 1.21454ZM148.785 10.5479 148.785 15.8812 147.452 15.8812 147.452 10.5479ZM148.785 19.8812 148.785 25.2145 147.452 25.2145 147.452 19.8812ZM148.785 29.2145 148.785 34.5479 147.452 34.5479 147.452 29.2145ZM148.785 38.5479 148.785 43.8812 147.452 43.8812 147.452 38.5479ZM148.785 47.8812 148.785 53.2145 147.452 53.2145 147.452 47.8812ZM148.785 57.2145 148.785 62.5479 147.452 62.5479 147.452 57.2145ZM148.785 66.5479 148.785 71.8812 147.452 71.8812 147.452 66.5479ZM148.785 75.8812 148.785 81.2145 147.452 81.2145 147.452 75.8812ZM149.404 83.2623 154.738 83.2623 154.738 84.5956 149.404 84.5956ZM158.738 83.2623 164.071 83.2623 164.071 84.5956 158.738 84.5956ZM168.071 83.2623 173.404 83.2623 173.404 84.5956 168.071 84.5956ZM177.404 83.2623 182.738 83.2623 182.738 84.5956 177.404 84.5956ZM186.738 83.2623 192.071 83.2623 192.071 84.5956 186.738 84.5956ZM196.071 83.2623 201.404 83.2623 201.404 84.5956 196.071 84.5956ZM205.404 83.2623 210.738 83.2623 210.738 84.5956 205.404 84.5956ZM214.738 83.2623 220.071 83.2623 220.071 84.5956 214.738 84.5956ZM224.071 83.2623 229.404 83.2623 229.404 84.5956 224.071 84.5956ZM233.404 83.2623 238.738 83.2623 238.738 84.5956 233.404 84.5956ZM242.738 83.2623 248.071 83.2623 248.071 84.5956 242.738 84.5956ZM252.071 83.2623 257.404 83.2623 257.404 84.5956 252.071 84.5956ZM261.404 83.2623 266.738 83.2623 266.738 84.5956 261.404 84.5956ZM270.738 83.2623 276.071 83.2623 276.071 84.5956 270.738 84.5956ZM280.071 83.2623 285.404 83.2623 285.404 84.5956 280.071 84.5956ZM289.404 83.2623 289.571 83.2623 289.571 84.5956 289.404 84.5956ZM288.238 79.9289 296.238 83.9289 288.238 87.9289Z" transform="matrix(1 0 0 -1 363.5 440.429)"/><text font-family="Calibri,Calibri_MSFontService,sans-serif" font-style="italic" font-weight="400" font-size="13" transform="translate(578.742 368)">settings</text><text font-family="Calibri,Calibri_MSFontService,sans-serif" font-style="italic" font-weight="400" font-size="13" transform="translate(621.075 368)">$</text><text font-family="Calibri,Calibri_MSFontService,sans-serif" font-style="italic" font-weight="400" font-size="13" transform="translate(578.742 337)">settings</text><text font-family="Calibri,Calibri_MSFontService,sans-serif" font-style="italic" font-weight="400" font-size="13" transform="translate(621.075 337)">$</text><path d="M0-0.666667 139.57-0.666667 139.57 633.584 138.236 633.584 138.236 0 138.903 0.666667 0 0.666667ZM142.903 632.25 138.903 640.25 134.903 632.25Z" transform="matrix(1.83697e-16 1 1 -1.83697e-16 288.5 453.5)"/><text font-family="Calibri,Calibri_MSFontService,sans-serif" font-weight="700" font-size="13" transform="translate(358.891 588)">translate</text><text font-family="Calibri,Calibri_MSFontService,sans-serif" font-style="italic" font-weight="400" font-size="13" transform="translate(562.559 229)">controls</text><text font-family="Calibri,Calibri_MSFontService,sans-serif" font-style="italic" font-weight="400" font-size="13" transform="translate(605.725 229)">$, rooms$</text><text font-family="Calibri,Calibri_MSFontService,sans-serif" font-style="italic" font-weight="400" font-size="13" transform="translate(562.559 245)">categories</text><text font-family="Calibri,Calibri_MSFontService,sans-serif" font-style="italic" font-weight="400" font-size="13" transform="translate(618.392 245)">$</text><path d="M363.5 118.5 400.052 118.5" stroke="#000000" stroke-width="1.33333" stroke-miterlimit="8" stroke-dasharray="5.33333 4" fill="none" fill-rule="evenodd"/><path d="M363.5 184.5 400.052 184.5" stroke="#000000" stroke-width="1.33333" stroke-miterlimit="8" stroke-dasharray="5.33333 4" fill="none" fill-rule="evenodd"/><text font-family="Calibri,Calibri_MSFontService,sans-serif" font-weight="400" font-size="27" transform="translate(1159.58 677)">LoxBuddy</text><g clip-path="url(#clip1)"><g clip-path="url(#clip2)"><g clip-path="url(#clip3)"><path d="M42.754 30.4714C43.2398 30.2158 44.072 30.3893 44.3228 30.4876 44.7444 30.7139 45.0852 31.0652 45.275 31.3612 45.5049 31.7602 45.5153 31.9067 45.5797 32.2302 45.6341 32.6259 45.5312 32.756 45.4391 32.9134 45.3558 33.1304 42.2609 36.3554 41.4255 37.2457 39.9616 38.7403 27.9626 50.8058 27.59 51.092 27.2228 51.3728 26.888 51.4538 26.5639 51.3404 26.4613 51.2972 26.3155 51.227 26.2399 51.1784 26.1697 51.1244 22.0817 47.058 17.1567 42.1383 7.30657 32.2882 8.08421 33.1253 8.08961 32.4016 8.08961 31.867 8.25702 31.4728 8.66204 31.0732 8.84565 30.8896 9.13186 30.679 9.31547 30.5871 9.60709 30.4467 9.69349 30.4305 10.1795 30.4305 10.5845 30.4305 10.7573 30.4521 10.8816 30.5223 10.9734 30.5709 14.5807 34.1513 18.901 38.4715 23.2212 42.7972 26.7584 46.3343 26.7584 46.3343 26.7584 46.3343 29.3829 43.7098 32.5906 40.5075 35.793 37.2997 38.4337 34.686 38.4607 34.7022 38.4823 34.7184 42.5443 30.5998 42.754 30.4714" fill="#6BAD18" transform="matrix(1.01275 0 0 -1 1104.82 712.366)"/><path d="M26.8933 43.6882C26.8501 43.6882 23.6747 40.5452 19.8351 36.711L12.8527 29.7286 12.8527 23.3939 12.8527 17.065 12.9822 16.8597C13.1442 16.6005 13.2739 16.4925 13.5007 16.4061 13.7761 16.3035 40.2026 16.3502 40.3026 16.3727 40.4981 16.4166 40.5998 16.42 40.8082 16.6553 41.0167 16.8905 40.9686 17.1576 40.9729 17.3573 40.9754 17.5853 40.9762 27.6549 40.9613 29.7355 40.8661 29.8261 40.7793 29.9161 40.6989 29.989L32.3475 38.3149C29.3891 41.2644 26.9365 43.6882 26.8933 43.6882ZM22.0331 22.8431 26.8718 22.8431 31.7157 22.8431 31.6889 22.4003C31.6349 21.5633 31.2892 20.8289 30.6466 20.1754 30.004 19.5166 29.291 19.1225 28.2542 18.8363 27.9086 18.7391 27.6817 18.7173 26.8933 18.7173 25.8565 18.7119 25.4839 18.7821 24.6252 19.1223 23.1294 19.7217 22.0331 21.1474 22.0331 22.4975Z" fill="#6BAD18" transform="matrix(1.01275 0 0 -1 1104.82 712.366)"/><path d="M5.31502-1.06515C5.35828-0.5796 5.20944-0.304463 5.21494 0.139679 4.5651 0.4491 4.52166 1.66176 4.26415 2.54933 4.07855 3.18904 3.85916 3.93548 3.36341 4.24704 1.79486 5.23285-0.772269 4.82782-1.74082 3.53509-1.98082 3.21478-2.28572 2.60048-2.49144 2.11121-2.80881 1.35655-2.84233 0.231903-3.74248 0.63256-4.04248 0.766077-4.35784 1.93508-4.59318 2.4398-4.85741 3.00639-5.24347 3.72836-5.59401 4.02798-6.63282 4.91577-9.2589 5.08128-10.348 4.08274-11.3166 3.19462-10.9652 0.893788-11.9993 0.0849144-12.0077-0.325712-12.1395-0.601396-12.0994-1.06515-10.3794-1.6404-7.77776-1.38705-5.99436-1.01038-5.1168-0.825055-4.28218-0.416786-3.34215-0.462734-2.66909-0.495647-1.96245-0.765198-1.29045-0.900854 0.77656-1.31816 2.9334-1.55064 5.31502-1.06515Z" fill-rule="evenodd" transform="matrix(1.24474 0 0 1 1136.16 680.48)"/></g></g></g><text font-family="Calibri,Calibri_MSFontService,sans-serif" font-weight="400" font-size="16" transform="translate(1160.17 697)">SW</text><text font-family="Calibri,Calibri_MSFontService,sans-serif" font-weight="400" font-size="16" transform="translate(1185.21 697)">architecture</text><path d="M364.5 410.833 369.833 410.833 369.833 412.167 364.5 412.167ZM373.833 410.833 379.167 410.833 379.167 412.167 373.833 412.167ZM383.167 410.833 388.5 410.833 388.5 412.167 383.167 412.167ZM392.5 410.833 397.833 410.833 397.833 412.167 392.5 412.167ZM401.833 410.833 407.167 410.833 407.167 412.167 401.833 412.167ZM411.167 410.833 416.5 410.833 416.5 412.167 411.167 412.167ZM420.5 410.833 425.833 410.833 425.833 412.167 420.5 412.167ZM429.833 410.833 435.167 410.833 435.167 412.167 429.833 412.167ZM439.167 410.833 444.5 410.833 444.5 412.167 439.167 412.167ZM448.5 410.833 453.833 410.833 453.833 412.167 448.5 412.167ZM457.833 410.833 463.167 410.833 463.167 412.167 457.833 412.167ZM467.167 410.833 472.5 410.833 472.5 412.167 467.167 412.167ZM473.261 415.406 473.261 420.739 471.928 420.739 471.928 415.406ZM473.261 424.739 473.261 427.833 472.594 427.166 474.834 427.166 474.834 428.499 471.928 428.499 471.928 424.739ZM478.834 427.166 484.168 427.166 484.168 428.499 478.834 428.499ZM488.168 427.166 493.501 427.166 493.501 428.499 488.168 428.499ZM497.501 427.166 502.834 427.166 502.834 428.499 497.501 428.499ZM506.834 427.166 512.168 427.166 512.168 428.499 506.834 428.499ZM516.168 427.166 521.501 427.166 521.501 428.499 516.168 428.499ZM525.501 427.166 530.834 427.166 530.834 428.499 525.501 428.499ZM534.834 427.166 540.168 427.166 540.168 428.499 534.834 428.499ZM544.168 427.166 549.501 427.166 549.501 428.499 544.168 428.499ZM553.501 427.166 558.834 427.166 558.834 428.499 553.501 428.499ZM562.834 427.166 568.168 427.166 568.168 428.499 562.834 428.499ZM572.168 427.166 577.501 427.166 577.501 428.499 572.168 428.499ZM581.501 427.166 586.834 427.166 586.834 428.499 581.501 428.499ZM590.834 427.166 596.168 427.166 596.168 428.499 590.834 428.499ZM600.168 427.166 605.501 427.166 605.501 428.499 600.168 428.499ZM609.501 427.166 614.834 427.166 614.834 428.499 609.501 428.499ZM618.834 427.166 624.168 427.166 624.168 428.499 618.834 428.499ZM628.168 427.166 633.501 427.166 633.501 428.499 628.168 428.499ZM637.501 427.166 642.834 427.166 642.834 428.499 637.501 428.499ZM646.834 427.166 652.168 427.166 652.168 428.499 646.834 428.499ZM652.69 423.833 660.69 427.833 652.69 431.833Z"/><path d="M0.666667-1.63925e-06 0.66668 5.33333-0.666654 5.33333-0.666667 1.63925e-06ZM0.66669 9.33333 0.666703 14.6667-0.666631 14.6667-0.666644 9.33333ZM0.666713 18.6667 0.666726 24-0.666608 24-0.666621 18.6667ZM0.666735 28 0.666749 33.3333-0.666585 33.3333-0.666598 28ZM4.00009 34.6971 0.000104987 42.6971-3.99991 34.6971Z" transform="matrix(1 0 0 -1 765.5 406.197)"/><text font-family="Calibri,Calibri_MSFontService,sans-serif" font-style="italic" font-weight="400" font-size="13" transform="translate(770.578 389)">settings</text><text font-family="Calibri,Calibri_MSFontService,sans-serif" font-style="italic" font-weight="400" font-size="13" transform="translate(812.911 389)">$</text><text font-family="Calibri,Calibri_MSFontService,sans-serif" font-style="italic" font-weight="400" font-size="13" transform="translate(601.186 394)">notifications</text><text font-family="Calibri,Calibri_MSFontService,sans-serif" font-style="italic" font-weight="400" font-size="13" transform="translate(668.019 394)">$</text><path d="M701.167 140.5 701.167 145.833 699.833 145.833 699.833 140.5ZM701.167 149.833 701.167 155.167 699.833 155.167 699.833 149.833ZM701.167 159.167 701.167 164.5 699.833 164.5 699.833 159.167ZM701.167 168.5 701.167 173.833 699.833 173.833 699.833 168.5ZM701.167 177.833 701.167 183.167 699.833 183.167 699.833 177.833ZM701.167 187.167 701.167 192.5 699.833 192.5 699.833 187.167ZM701.167 196.5 701.167 201.833 699.833 201.833 699.833 196.5ZM701.167 205.833 701.167 211.167 699.833 211.167 699.833 205.833ZM701.167 215.167 701.167 220.5 699.833 220.5 699.833 215.167ZM701.167 224.5 701.167 224.697 699.833 224.697 699.833 224.5ZM704.5 223.363 700.5 231.363 696.5 223.363Z"/><text font-family="Calibri,Calibri_MSFontService,sans-serif" font-style="italic" font-weight="400" font-size="13" transform="translate(647.222 186)">settings</text><text font-family="Calibri,Calibri_MSFontService,sans-serif" font-style="italic" font-weight="400" font-size="13" transform="translate(689.556 186)">$</text><text font-family="Calibri,Calibri_MSFontService,sans-serif" font-weight="700" font-size="13" transform="translate(816.992 87)">connect</text><text font-family="Calibri,Calibri_MSFontService,sans-serif" font-weight="700" font-size="13" transform="translate(816.992 103)">unsafePublish</text><text font-family="Calibri,Calibri_MSFontService,sans-serif" font-weight="400" font-size="11" transform="translate(1236.62 709)">v0.</text><text font-family="Calibri,Calibri_MSFontService,sans-serif" font-weight="400" font-size="11" transform="translate(1249.45 709)">2</text><text font-family="Calibri,Calibri_MSFontService,sans-serif" font-weight="400" font-size="11" transform="translate(1254.78 709)">.0</text><path d="M660.5 475.603C660.5 473.337 662.337 471.5 664.603 471.5L801.397 471.5C803.663 471.5 805.5 473.337 805.5 475.603L805.5 509.397C805.5 511.663 803.663 513.5 801.397 513.5L664.603 513.5C662.337 513.5 660.5 511.663 660.5 509.397Z" stroke="#000000" stroke-width="1.33333" stroke-miterlimit="8" fill="#F2F2F2" fill-rule="evenodd"/><text font-family="Calibri,Calibri_MSFontService,sans-serif" font-weight="400" font-size="16" transform="translate(672.555 497)">LockScreenService</text><path d="M365.5 400.833 502.385 400.833 502.385 492.906 501.718 492.239 654.273 492.239 654.273 493.573 501.052 493.573 501.052 401.5 501.718 402.167 365.5 402.167ZM652.94 488.906 660.94 492.906 652.94 496.906Z"/><text font-family="Calibri,Calibri_MSFontService,sans-serif" font-weight="700" font-size="13" transform="translate(534.511 482)">verify</text><text font-family="Calibri,Calibri_MSFontService,sans-serif" font-style="italic" font-weight="400" font-size="13" transform="translate(739.323 463)">settings</text><text font-family="Calibri,Calibri_MSFontService,sans-serif" font-style="italic" font-weight="400" font-size="13" transform="translate(781.657 463)">$</text><text font-family="Calibri,Calibri_MSFontService,sans-serif" font-weight="400" font-size="19" transform="translate(51.4449 325)">Views (Cards)</text><text font-family="Calibri,Calibri_MSFontService,sans-serif" font-weight="400" font-size="24" transform="translate(92.8019 307)">:</text><path d="M1134.07 415.446C1132.84 406.365 1139.19 398.003 1148.25 396.768 1151.93 396.267 1155.66 397.015 1158.86 398.893 1162.25 392.493 1170.18 390.061 1176.56 393.46 1177.68 394.055 1178.7 394.808 1179.6 395.697 1182.24 390.392 1188.67 388.237 1193.97 390.883 1195.43 391.615 1196.71 392.675 1197.7 393.979 1201.96 388.963 1209.48 388.343 1214.5 392.595 1216.61 394.383 1218.03 396.848 1218.52 399.568 1225.49 401.473 1229.61 408.691 1227.71 415.688 1227.55 416.277 1227.35 416.853 1227.11 417.413 1232.7 424.705 1231.33 435.156 1224.05 440.756 1221.79 442.5 1219.11 443.628 1216.28 444.033 1216.22 451.878 1209.81 458.186 1201.97 458.123 1199.35 458.102 1196.79 457.356 1194.57 455.969 1191.92 464.763 1182.67 469.734 1173.91 467.071 1170.24 465.955 1167.07 463.595 1164.94 460.394 1155.97 465.81 1144.33 462.897 1138.94 453.886 1138.88 453.772 1138.81 453.658 1138.74 453.543 1132.88 454.231 1127.56 450.037 1126.87 444.176 1126.5 441.052 1127.53 437.925 1129.69 435.629 1124.61 432.633 1122.9 426.057 1125.87 420.942 1127.59 417.991 1130.6 416.04 1133.98 415.689Z" stroke="#000000" stroke-width="1.33333" stroke-miterlimit="8" fill="#F2F2F2" fill-rule="evenodd"/><path d="M1136.02 436.764C1133.85 436.934 1131.68 436.432 1129.8 435.325M1141.5 452.512C1140.63 452.86 1139.71 453.092 1138.78 453.201M1164.93 460.079C1164.28 459.094 1163.73 458.04 1163.29 456.938M1195.23 452.245C1195.14 453.414 1194.92 454.569 1194.58 455.692M1208.24 430.945C1213.16 433.342 1216.26 438.354 1216.22 443.829M1227.06 417.223C1226.26 419.087 1225.05 420.74 1223.51 422.054M1218.54 399.297C1218.67 400.05 1218.73 400.814 1218.72 401.579M1195.85 396.636C1196.31 395.583 1196.92 394.603 1197.67 393.726M1178.83 398.022C1179.02 397.152 1179.31 396.309 1179.71 395.513M1158.85 398.875C1160.01 399.554 1161.08 400.371 1162.04 401.309M1134.63 418.008C1134.37 417.17 1134.19 416.314 1134.07 415.447" stroke="#000000" stroke-width="1.33333" stroke-miterlimit="8" fill="none" fill-rule="evenodd"/><text font-family="Calibri,Calibri_MSFontService,sans-serif" font-weight="400" font-size="16" transform="translate(1158.67 432)">FCM</text><path d="M928.5 411.603C928.5 409.337 930.337 407.5 932.603 407.5L1069.4 407.5C1071.66 407.5 1073.5 409.337 1073.5 411.603L1073.5 445.397C1073.5 447.663 1071.66 449.5 1069.4 449.5L932.603 449.5C930.337 449.5 928.5 447.663 928.5 445.397Z" stroke="#000000" stroke-width="1.33333" stroke-miterlimit="8" fill="#F2F2F2" fill-rule="evenodd"/><text font-family="Calibri,Calibri_MSFontService,sans-serif" font-weight="400" font-size="16" transform="translate(942.998 433)">Messaging</text><text font-family="Calibri,Calibri_MSFontService,sans-serif" font-weight="400" font-size="16" transform="translate(1012 433)">Service</text><path d="M1073.5 428.5 1124.63 428.556" stroke="#000000" stroke-width="1.33333" stroke-miterlimit="8" fill="none" fill-rule="evenodd"/><path d="M812.167 426.833 928.817 426.833 928.817 428.167 812.167 428.167ZM813.5 431.5 805.5 427.5 813.5 423.5Z"/><text font-family="Calibri,Calibri_MSFontService,sans-serif" font-weight="700" font-size="13" transform="translate(819.855 421)">showNotification</text></g></svg>