<?xml version="1.0" encoding="UTF-8" standalone="no"?>
<!-- Generator: Adobe Illustrator 18.0.0, SVG Export Plug-In . SVG Version: 6.00 Build 0)  -->

<svg
   version="1.1"
   id="Ebene_1"
   x="0px"
   y="0px"
   viewBox="0 0 32 32"
   style="enable-background:new 0 0 32 32;"
   xml:space="preserve"
   sodipodi:docname="afval.svg"
   inkscape:version="1.2 (dc2aedaf03, 2022-05-15)"
   xmlns:inkscape="http://www.inkscape.org/namespaces/inkscape"
   xmlns:sodipodi="http://sodipodi.sourceforge.net/DTD/sodipodi-0.dtd"
   xmlns="http://www.w3.org/2000/svg"
   xmlns:svg="http://www.w3.org/2000/svg"
   xmlns:rdf="http://www.w3.org/1999/02/22-rdf-syntax-ns#"
   xmlns:cc="http://creativecommons.org/ns#"
   xmlns:dc="http://purl.org/dc/elements/1.1/"><metadata
   id="metadata13"><rdf:RDF><cc:Work
       rdf:about=""><dc:format>image/svg+xml</dc:format><dc:type
         rdf:resource="http://purl.org/dc/dcmitype/StillImage" /><dc:title /></cc:Work></rdf:RDF></metadata><defs
   id="defs11" /><sodipodi:namedview
   pagecolor="#ffffff"
   bordercolor="#666666"
   borderopacity="1"
   objecttolerance="10"
   gridtolerance="10"
   guidetolerance="10"
   inkscape:pageopacity="0"
   inkscape:pageshadow="2"
   inkscape:window-width="1790"
   inkscape:window-height="952"
   id="namedview9"
   showgrid="false"
   inkscape:zoom="20.85965"
   inkscape:cx="3.355761"
   inkscape:cy="16.179562"
   inkscape:window-x="0"
   inkscape:window-y="0"
   inkscape:window-maximized="0"
   inkscape:current-layer="Ebene_1"
   inkscape:showpageshadow="2"
   inkscape:pagecheckerboard="0"
   inkscape:deskcolor="#d1d1d1" />



<path
   inkscape:connector-curvature="0"
   class="st0"
   d="m 9.0616791,24.638299 c -1.8947176,0 -3.4414237,1.546709 -3.4414237,3.441418 0,1.894719 1.5467061,3.441425 3.4414237,3.441425 1.8947159,0 3.4414239,-1.546706 3.4414239,-3.441425 0,-1.894709 -1.540264,-3.441418 -3.4414239,-3.441418 z m 0,4.305003 c -0.4511232,0 -0.8249115,-0.348009 -0.8571341,-0.786242 0,-0.02574 -0.00647,-0.05157 -0.00647,-0.07731 0,-0.02574 0,-0.04513 0.00647,-0.07088 0.038663,-0.444678 0.4060109,-0.792687 0.8571341,-0.792687 0.476902,0 0.8635784,0.386677 0.8635784,0.863575 0,0.476908 -0.3866764,0.863586 -0.8635784,0.863586 z M 6.3678295,10.685707 7.3022997,24.038947 c 0.5413482,-0.238446 1.1342512,-0.367344 1.7658237,-0.367344 0.2706739,0 0.5413483,0.02574 0.7991322,0.07088 L 8.9392306,10.505252 C 8.8747882,9.5514528 8.4494407,8.6749797 7.7534219,8.0305226 7.0574041,7.3925032 6.1551577,7.0380489 5.2013547,7.0380489 H 3.7835401 v 2.5778496 h 1.4178146 c 0.618684,0 1.1213625,0.4575655 1.1664748,1.0697995 z M 27.879949,5.8135813 H 23.497611 V 3.171295 H 8.3527705 V 5.8135813 H 3.7770959 V 3.2357401 h 1.9978292 v -0.064442 c 0,-1.4242629 1.1535863,-2.57784916 2.5778454,-2.57784916 H 23.497611 c 1.42426,0 2.577845,1.15358626 2.577845,2.57784916 v 0.064442 h 1.804493 z m -4.59501,1.2244755 -2.758294,19.7205182 v 0.0067 c -0.07734,0.554233 -0.534902,0.960242 -1.102028,0.960242 h -5.967713 c 0.0065,0.116015 0.01294,0.23201 0.01294,0.354457 0,0.81202 -0.219117,1.572484 -0.605794,2.223393 h 6.560617 c 1.836715,0 3.409199,-1.372706 3.654095,-3.190082 L 25.888609,7.038283 Z"
   id="path4-3"
   style="fill-opacity:1;stroke-width:1.32" /></svg>
