<svg xmlns="http://www.w3.org/2000/svg" viewBox="0 0 24 24">
  <path d="M7.5 13a1 1 0 1 0 0-2 1 1 0 0 0 0 2Zm10-1a1 1 0 1 1-2 0 1 1 0 0 1 2 0ZM12 15.5a1 1 0 1 0 0-2 1 1 0 0 0 0 2Z"/>
  <path fill-rule="evenodd" d="M1.5 1h21a.5.5 0 0 1 .5.5v21a.5.5 0 0 1-.5.5h-21a.5.5 0 0 1-.5-.5v-21a.5.5 0 0 1 .5-.5Zm6.023 6.257A1 1 0 0 1 8.192 7h7.616a1 1 0 0 1 .669.257l4.444 4a1 1 0 0 1 0 1.486l-4.444 4a1 1 0 0 1-.669.257H8.192a1 1 0 0 1-.67-.257l-4.444-4a1 1 0 0 1 0-1.486l4.445-4Z" clip-rule="evenodd"/>
</svg>
