<svg xmlns="http://www.w3.org/2000/svg" viewBox="0 0 24 24">
  <g clip-path="url(#a)">
    <path d="M10.644 22.758c2.669.198 4.733-.143 5.96-.504a.462.462 0 0 0 .23-.156c.489-.604 2.82-3.456 3.622-3.906a3.12 3.12 0 0 1 .531-.242l.023 4.553a.5.5 0 0 0 .5.497h.7a.497.497 0 0 0 .497-.5l-.003-.641c-.008-1.26-.02-3.225-.02-4.272.99-.546 1.897-1.667.849-3.52-.997-1.762-.969-5.79-.948-8.815.014-2.061.025-3.657-.294-3.752a.108.108 0 0 0-.03-.004c-.258 0-.724.081-1.26.198V11.5a.5.5 0 1 1-.998 0V1.931c-.538.136-1.33-.152-2.13-.443C17.205 1.244 16.532 1 16 1c0 0-.293 4.344-.5 6-.114.916-.193 1.614-.257 2.179-.213 1.9-.256 2.28-.923 4.303-.75 2.278-1.664 3.648-2.593 4.518a6.167 6.167 0 0 1-1.423 1c-.535.274-1.048.446-1.51.6l-.112.038c-.321.109-.596.23-.823.362-.26.15-.459.311-.598.479-.168.2-.25.409-.25.615 0 .368.262.727.776 1.015.418.235 1.001.422 1.744.53.359.051.732.09 1.113.119Z"/>
    <path d="M13.624 10.176c.156-.071.289-.13.382-.176.03.564-.233 1.856-.482 2.685-.378 1.256-.8 2.225-1.236 2.977-.637 1.1-1.305 1.736-1.923 2.147a5.572 5.572 0 0 1-.312.191H.076c.03-.077.06-.171.094-.276C.38 17.074.724 16 2.014 16c1.085 0 2.882-.533 4.1-1.195l.522.806a.5.5 0 1 0 .838-.545l-.487-.75c.343-.196.683-.395 1.013-.587l.045-.027.59.909a.5.5 0 1 0 .838-.545l-.562-.866c.313-.179.606-.342.87-.48l.187-.134.666 1.025a.5.5 0 1 0 .838-.545l-.718-1.106c.835-.71 1.866-1.33 2.87-1.784ZM7.61 19H0a1 1 0 0 0 1 1h5.37c.039-.056.08-.11.123-.162.282-.337.666-.614 1.116-.838Z"/>
  </g>
  <defs>
    <clipPath id="a">
      <path d="M0 0h24v24H0z"/>
    </clipPath>
  </defs>
</svg>
