<?xml version="1.0" encoding="UTF-8" standalone="no"?>
<!-- Generator: Adobe Illustrator 17.1.0, SVG Export Plug-In . SVG Version: 6.00 Build 0)  -->

<svg
   version="1.1"
   id="Capa_1"
   x="0px"
   y="0px"
   viewBox="0 0 32 32"
   xml:space="preserve"
   sodipodi:docname="00000000-0000-003e-2000000000000000.svg"
   width="32"
   height="32"
   inkscape:version="1.2 (dc2aedaf03, 2022-05-15)"
   xmlns:inkscape="http://www.inkscape.org/namespaces/inkscape"
   xmlns:sodipodi="http://sodipodi.sourceforge.net/DTD/sodipodi-0.dtd"
   xmlns="http://www.w3.org/2000/svg"
   xmlns:svg="http://www.w3.org/2000/svg"><defs
   id="defs55" /><sodipodi:namedview
   id="namedview53"
   pagecolor="#ffffff"
   bordercolor="#666666"
   borderopacity="1.0"
   inkscape:showpageshadow="2"
   inkscape:pageopacity="0.0"
   inkscape:pagecheckerboard="0"
   inkscape:deskcolor="#d1d1d1"
   showgrid="false"
   inkscape:zoom="22.255034"
   inkscape:cx="15.636912"
   inkscape:cy="16.265983"
   inkscape:window-width="1920"
   inkscape:window-height="1009"
   inkscape:window-x="-8"
   inkscape:window-y="-8"
   inkscape:window-maximized="1"
   inkscape:current-layer="Capa_1" />
<g
   id="g20"
   transform="matrix(0.1,0,0,0.1,1.0514475,1.1)">
	<g
   id="g6">
		<g
   id="g4">
			<path
   d="m 298,222.5 c -19,0 -28.678,-6.725 -36.711,-12.128 -6.795,-4.57 -11.704,-7.872 -22.759,-7.872 -11.055,0 -15.963,3.302 -22.758,7.872 -8.033,5.403 -18.032,12.128 -36.712,12.128 -18.68,0 -28.676,-6.725 -36.709,-12.128 -6.794,-4.57 -11.704,-7.872 -22.757,-7.872 -11.053,0 -15.961,3.302 -22.755,7.872 C 88.807,215.775 78.808,222.5 60.129,222.5 41.45,222.5 31.12,215.775 23.088,210.372 16.294,205.802 11,202.5 0,202.5 v -25 c 19,0 29.009,6.725 37.041,12.128 6.795,4.57 11.869,7.872 22.922,7.872 11.054,0 16.045,-3.302 22.839,-7.872 8.032,-5.403 18.072,-12.128 36.751,-12.128 18.679,0 28.697,6.725 36.73,12.128 6.794,4.57 11.714,7.872 22.768,7.872 11.055,0 15.968,-3.302 22.762,-7.872 8.033,-5.403 18.035,-12.128 36.715,-12.128 18.68,0 28.68,6.725 36.713,12.128 6.794,4.57 11.759,7.872 22.759,7.872 z"
   id="path2" />
		</g>
	</g>
	<g
   id="g12">
		<g
   id="g10">
			<path
   d="m 298,171.5 c -19,0 -28.678,-6.725 -36.711,-12.128 -6.795,-4.57 -11.704,-7.872 -22.759,-7.872 -11.055,0 -15.963,3.302 -22.758,7.872 -8.033,5.403 -18.032,12.128 -36.712,12.128 -18.68,0 -28.676,-6.725 -36.709,-12.128 -6.794,-4.57 -11.704,-7.872 -22.757,-7.872 -11.053,0 -15.961,3.302 -22.755,7.872 C 88.807,164.775 78.808,171.5 60.129,171.5 41.45,171.5 31.12,164.775 23.088,159.372 16.294,154.802 11,151.5 0,151.5 v -25 c 19,0 29.009,6.725 37.041,12.128 6.795,4.57 11.869,7.872 22.922,7.872 11.054,0 16.045,-3.302 22.839,-7.872 8.032,-5.403 18.072,-12.128 36.751,-12.128 18.679,0 28.697,6.725 36.73,12.128 6.794,4.57 11.714,7.872 22.768,7.872 11.055,0 15.968,-3.302 22.762,-7.872 8.033,-5.403 18.035,-12.128 36.715,-12.128 18.68,0 28.68,6.725 36.713,12.128 6.794,4.57 11.759,7.872 22.759,7.872 z"
   id="path8" />
		</g>
	</g>
	<g
   id="g18">
		<g
   id="g16">
			<path
   d="m 298,120.5 c -19,0 -28.678,-6.725 -36.711,-12.128 -6.795,-4.57 -11.704,-7.872 -22.759,-7.872 -11.055,0 -15.963,3.302 -22.758,7.872 -8.033,5.403 -18.032,12.128 -36.712,12.128 -18.68,0 -28.676,-6.725 -36.709,-12.128 -6.794,-4.57 -11.704,-7.872 -22.757,-7.872 -11.053,0 -15.961,3.302 -22.755,7.872 C 88.807,113.775 78.808,120.5 60.129,120.5 41.45,120.5 31.12,113.775 23.088,108.372 16.294,103.802 11,100.5 0,100.5 v -25 c 19,0 29.009,6.725 37.041,12.128 6.795,4.57 11.869,7.872 22.922,7.872 11.054,0 16.045,-3.302 22.839,-7.872 8.032,-5.403 18.072,-12.128 36.751,-12.128 18.679,0 28.697,6.725 36.73,12.128 6.794,4.57 11.714,7.872 22.768,7.872 11.055,0 15.968,-3.302 22.762,-7.872 8.033,-5.403 18.035,-12.128 36.715,-12.128 18.68,0 28.68,6.725 36.713,12.128 C 282.035,92.198 287,95.5 298,95.5 Z"
   id="path14" />
		</g>
	</g>
</g>
<g
   id="g22">
</g>
<g
   id="g24">
</g>
<g
   id="g26">
</g>
<g
   id="g28">
</g>
<g
   id="g30">
</g>
<g
   id="g32">
</g>
<g
   id="g34">
</g>
<g
   id="g36">
</g>
<g
   id="g38">
</g>
<g
   id="g40">
</g>
<g
   id="g42">
</g>
<g
   id="g44">
</g>
<g
   id="g46">
</g>
<g
   id="g48">
</g>
<g
   id="g50">
</g>
</svg>
